G04 #@! TF.GenerationSoftware,KiCad,Pcbnew,8.0.4-8.0.4-0~ubuntu22.04.1*
G04 #@! TF.CreationDate,2025-04-15T08:48:27+00:00*
G04 #@! TF.ProjectId,stencil,7374656e-6369-46c2-9e6b-696361645f70,rev?*
G04 #@! TF.SameCoordinates,Original*
G04 #@! TF.FileFunction,Paste,Bot*
G04 #@! TF.FilePolarity,Positive*
%FSLAX46Y46*%
G04 Gerber Fmt 4.6, Leading zero omitted, Abs format (unit mm)*
G04 Created by KiCad (PCBNEW 8.0.4-8.0.4-0~ubuntu22.04.1) date 2025-04-15 08:48:27*
%MOMM*%
%LPD*%
G01*
G04 APERTURE LIST*
%ADD10C,0.500000*%
%ADD11C,1.000000*%
%ADD12C,1.050000*%
G04 APERTURE END LIST*
D10*
X83250000Y-85750000D02*
X83250000Y-95750000D01*
X83250000Y-109750000D02*
G75*
G02*
X83750000Y-109250000I500000J0D01*
G01*
D11*
X125750000Y-76000000D02*
G75*
G02*
X124750000Y-76000000I-500000J0D01*
G01*
X124750000Y-76000000D02*
G75*
G02*
X125750000Y-76000000I500000J0D01*
G01*
D10*
X83750000Y-132250000D02*
G75*
G02*
X83250000Y-131750000I0J500000D01*
G01*
X167250000Y-95750000D02*
G75*
G02*
X166750000Y-96250000I-500000J0D01*
G01*
X155750000Y-73250000D02*
G75*
G02*
X156250000Y-72750000I500000J0D01*
G01*
D12*
X87025000Y-153500000D02*
G75*
G02*
X85975000Y-153500000I-525000J0D01*
G01*
X85975000Y-153500000D02*
G75*
G02*
X87025000Y-153500000I525000J0D01*
G01*
D11*
X125750000Y-153500000D02*
G75*
G02*
X124750000Y-153500000I-500000J0D01*
G01*
X124750000Y-153500000D02*
G75*
G02*
X125750000Y-153500000I500000J0D01*
G01*
D10*
X156250000Y-156750000D02*
G75*
G02*
X155750000Y-156250000I0J500000D01*
G01*
D11*
X87000000Y-114750000D02*
G75*
G02*
X86000000Y-114750000I-500000J0D01*
G01*
X86000000Y-114750000D02*
G75*
G02*
X87000000Y-114750000I500000J0D01*
G01*
D10*
X83250000Y-121750000D02*
X83250000Y-131750000D01*
X96250000Y-156750000D02*
X106250000Y-156750000D01*
D11*
X106375000Y-76000000D02*
G75*
G02*
X105375000Y-76000000I-500000J0D01*
G01*
X105375000Y-76000000D02*
G75*
G02*
X106375000Y-76000000I500000J0D01*
G01*
D10*
X83250000Y-73750000D02*
X83250000Y-83750000D01*
X83250000Y-97750000D02*
X83250000Y-107750000D01*
X167250000Y-107750000D02*
G75*
G02*
X166750000Y-108250000I-500000J0D01*
G01*
X144250000Y-156750000D02*
X154250000Y-156750000D01*
D12*
X164525000Y-153500000D02*
G75*
G02*
X163475000Y-153500000I-525000J0D01*
G01*
X163475000Y-153500000D02*
G75*
G02*
X164525000Y-153500000I525000J0D01*
G01*
D10*
X167250000Y-133750000D02*
X167250000Y-143750000D01*
X131750000Y-73250000D02*
G75*
G02*
X132250000Y-72750000I500000J0D01*
G01*
X83750000Y-96250000D02*
G75*
G02*
X83250000Y-95750000I0J500000D01*
G01*
X167250000Y-83750000D02*
G75*
G02*
X166750000Y-84250000I-500000J0D01*
G01*
D11*
X145125000Y-76000000D02*
G75*
G02*
X144125000Y-76000000I-500000J0D01*
G01*
X144125000Y-76000000D02*
G75*
G02*
X145125000Y-76000000I500000J0D01*
G01*
D10*
X83250000Y-133750000D02*
G75*
G02*
X83750000Y-133250000I500000J0D01*
G01*
X167250000Y-131750000D02*
G75*
G02*
X166750000Y-132250000I-500000J0D01*
G01*
X95750000Y-73250000D02*
G75*
G02*
X96250000Y-72750000I500000J0D01*
G01*
X166750000Y-85250000D02*
G75*
G02*
X167250000Y-85750000I0J-500000D01*
G01*
X96250000Y-72750000D02*
X106250000Y-72750000D01*
X83250000Y-109750000D02*
X83250000Y-119750000D01*
X106750000Y-156250000D02*
G75*
G02*
X106250000Y-156750000I-500000J0D01*
G01*
X83750000Y-120250000D02*
G75*
G02*
X83250000Y-119750000I0J500000D01*
G01*
X120250000Y-156750000D02*
X130250000Y-156750000D01*
X118750000Y-156250000D02*
G75*
G02*
X118250000Y-156750000I-500000J0D01*
G01*
X94750000Y-156250000D02*
G75*
G02*
X94250000Y-156750000I-500000J0D01*
G01*
X83250000Y-121750000D02*
G75*
G02*
X83750000Y-121250000I500000J0D01*
G01*
X167250000Y-143750000D02*
G75*
G02*
X166750000Y-144250000I-500000J0D01*
G01*
X130250000Y-72750000D02*
G75*
G02*
X130750000Y-73250000I0J-500000D01*
G01*
X167250000Y-119750000D02*
G75*
G02*
X166750000Y-120250000I-500000J0D01*
G01*
X83250000Y-85750000D02*
G75*
G02*
X83750000Y-85250000I500000J0D01*
G01*
X167250000Y-109750000D02*
X167250000Y-119750000D01*
X142250000Y-72750000D02*
G75*
G02*
X142750000Y-73250000I0J-500000D01*
G01*
X108250000Y-156750000D02*
G75*
G02*
X107750000Y-156250000I0J500000D01*
G01*
X118250000Y-72750000D02*
G75*
G02*
X118750000Y-73250000I0J-500000D01*
G01*
D12*
X87025000Y-76000000D02*
G75*
G02*
X85975000Y-76000000I-525000J0D01*
G01*
X85975000Y-76000000D02*
G75*
G02*
X87025000Y-76000000I525000J0D01*
G01*
X164525000Y-76000000D02*
G75*
G02*
X163475000Y-76000000I-525000J0D01*
G01*
X163475000Y-76000000D02*
G75*
G02*
X164525000Y-76000000I525000J0D01*
G01*
D10*
X107750000Y-73250000D02*
G75*
G02*
X108250000Y-72750000I500000J0D01*
G01*
D11*
X164500000Y-114750000D02*
G75*
G02*
X163500000Y-114750000I-500000J0D01*
G01*
X163500000Y-114750000D02*
G75*
G02*
X164500000Y-114750000I500000J0D01*
G01*
D10*
X108250000Y-156750000D02*
X118250000Y-156750000D01*
X167250000Y-121750000D02*
X167250000Y-131750000D01*
X106250000Y-72750000D02*
G75*
G02*
X106750000Y-73250000I0J-500000D01*
G01*
X144250000Y-156750000D02*
G75*
G02*
X143750000Y-156250000I0J500000D01*
G01*
X156250000Y-72750000D02*
X166250000Y-72750000D01*
X83250000Y-133750000D02*
X83250000Y-143750000D01*
X83250000Y-97750000D02*
G75*
G02*
X83750000Y-97250000I500000J0D01*
G01*
X83750000Y-108250000D02*
G75*
G02*
X83250000Y-107750000I0J500000D01*
G01*
D11*
X164500000Y-134125000D02*
G75*
G02*
X163500000Y-134125000I-500000J0D01*
G01*
X163500000Y-134125000D02*
G75*
G02*
X164500000Y-134125000I500000J0D01*
G01*
X145125000Y-153500000D02*
G75*
G02*
X144125000Y-153500000I-500000J0D01*
G01*
X144125000Y-153500000D02*
G75*
G02*
X145125000Y-153500000I500000J0D01*
G01*
X106375000Y-153500000D02*
G75*
G02*
X105375000Y-153500000I-500000J0D01*
G01*
X105375000Y-153500000D02*
G75*
G02*
X106375000Y-153500000I500000J0D01*
G01*
D10*
X84250000Y-156750000D02*
G75*
G02*
X83250000Y-155750000I0J1000000D01*
G01*
X166750000Y-97250000D02*
G75*
G02*
X167250000Y-97750000I0J-500000D01*
G01*
X167250000Y-85750000D02*
X167250000Y-95750000D01*
D11*
X87000000Y-134125000D02*
G75*
G02*
X86000000Y-134125000I-500000J0D01*
G01*
X86000000Y-134125000D02*
G75*
G02*
X87000000Y-134125000I500000J0D01*
G01*
D10*
X132250000Y-156750000D02*
G75*
G02*
X131750000Y-156250000I0J500000D01*
G01*
X166250000Y-72750000D02*
G75*
G02*
X167250000Y-73750000I0J-1000000D01*
G01*
X83750000Y-144250000D02*
G75*
G02*
X83250000Y-143750000I0J500000D01*
G01*
X108250000Y-72750000D02*
X118250000Y-72750000D01*
X119750000Y-73250000D02*
G75*
G02*
X120250000Y-72750000I500000J0D01*
G01*
X166750000Y-133250000D02*
G75*
G02*
X167250000Y-133750000I0J-500000D01*
G01*
X167250000Y-155750000D02*
G75*
G02*
X166250000Y-156750000I-1000000J0D01*
G01*
X166750000Y-145250000D02*
G75*
G02*
X167250000Y-145750000I0J-500000D01*
G01*
X167250000Y-145750000D02*
X167250000Y-155750000D01*
X83250000Y-145750000D02*
G75*
G02*
X83750000Y-145250000I500000J0D01*
G01*
X156250000Y-156750000D02*
X166250000Y-156750000D01*
X96250000Y-156750000D02*
G75*
G02*
X95750000Y-156250000I0J500000D01*
G01*
X84250000Y-72750000D02*
X94250000Y-72750000D01*
X120250000Y-156750000D02*
G75*
G02*
X119750000Y-156250000I0J500000D01*
G01*
X167250000Y-73750000D02*
X167250000Y-83750000D01*
D11*
X87000000Y-95375000D02*
G75*
G02*
X86000000Y-95375000I-500000J0D01*
G01*
X86000000Y-95375000D02*
G75*
G02*
X87000000Y-95375000I500000J0D01*
G01*
D10*
X167250000Y-97750000D02*
X167250000Y-107750000D01*
X83750000Y-84250000D02*
G75*
G02*
X83250000Y-83750000I0J500000D01*
G01*
X130750000Y-156250000D02*
G75*
G02*
X130250000Y-156750000I-500000J0D01*
G01*
X94250000Y-72750000D02*
G75*
G02*
X94750000Y-73250000I0J-500000D01*
G01*
X132250000Y-156750000D02*
X142250000Y-156750000D01*
X83250000Y-145750000D02*
X83250000Y-155750000D01*
X154250000Y-72750000D02*
G75*
G02*
X154750000Y-73250000I0J-500000D01*
G01*
X154750000Y-156250000D02*
G75*
G02*
X154250000Y-156750000I-500000J0D01*
G01*
X144250000Y-72750000D02*
X154250000Y-72750000D01*
X166750000Y-109250000D02*
G75*
G02*
X167250000Y-109750000I0J-500000D01*
G01*
X143750000Y-73250000D02*
G75*
G02*
X144250000Y-72750000I500000J0D01*
G01*
X132250000Y-72750000D02*
X142250000Y-72750000D01*
X83250000Y-73750000D02*
G75*
G02*
X84250000Y-72750000I1000000J0D01*
G01*
X84250000Y-156750000D02*
X94250000Y-156750000D01*
D11*
X164500000Y-95375000D02*
G75*
G02*
X163500000Y-95375000I-500000J0D01*
G01*
X163500000Y-95375000D02*
G75*
G02*
X164500000Y-95375000I500000J0D01*
G01*
D10*
X166750000Y-121250000D02*
G75*
G02*
X167250000Y-121750000I0J-500000D01*
G01*
X120250000Y-72750000D02*
X130250000Y-72750000D01*
X142750000Y-156250000D02*
G75*
G02*
X142250000Y-156750000I-500000J0D01*
G01*
M02*
