%TF.GenerationSoftware,KiCad,Pcbnew,8.0.7*%
%TF.CreationDate,2025-04-15T10:47:43+02:00*%
%TF.ProjectId,colobus_hardware,636f6c6f-6275-4735-9f68-617264776172,rev?*%
%TF.SameCoordinates,Original*%
%TF.FileFunction,Legend,Bot*%
%TF.FilePolarity,Positive*%
%FSLAX46Y46*%
G04 Gerber Fmt 4.6, Leading zero omitted, Abs format (unit mm)*
G04 Created by KiCad (PCBNEW 8.0.7) date 2025-04-15 10:47:43*
%MOMM*%
%LPD*%
G01*
G04 APERTURE LIST*
%ADD10C,0.250000*%
%ADD11C,0.000000*%
G04 APERTURE END LIST*
D10*
X141026003Y-102769380D02*
X141073622Y-102817000D01*
X141073622Y-102817000D02*
X141216479Y-102864619D01*
X141216479Y-102864619D02*
X141311717Y-102864619D01*
X141311717Y-102864619D02*
X141454574Y-102817000D01*
X141454574Y-102817000D02*
X141549812Y-102721761D01*
X141549812Y-102721761D02*
X141597431Y-102626523D01*
X141597431Y-102626523D02*
X141645050Y-102436047D01*
X141645050Y-102436047D02*
X141645050Y-102293190D01*
X141645050Y-102293190D02*
X141597431Y-102102714D01*
X141597431Y-102102714D02*
X141549812Y-102007476D01*
X141549812Y-102007476D02*
X141454574Y-101912238D01*
X141454574Y-101912238D02*
X141311717Y-101864619D01*
X141311717Y-101864619D02*
X141216479Y-101864619D01*
X141216479Y-101864619D02*
X141073622Y-101912238D01*
X141073622Y-101912238D02*
X141026003Y-101959857D01*
X140454574Y-102864619D02*
X140549812Y-102817000D01*
X140549812Y-102817000D02*
X140597431Y-102769380D01*
X140597431Y-102769380D02*
X140645050Y-102674142D01*
X140645050Y-102674142D02*
X140645050Y-102388428D01*
X140645050Y-102388428D02*
X140597431Y-102293190D01*
X140597431Y-102293190D02*
X140549812Y-102245571D01*
X140549812Y-102245571D02*
X140454574Y-102197952D01*
X140454574Y-102197952D02*
X140311717Y-102197952D01*
X140311717Y-102197952D02*
X140216479Y-102245571D01*
X140216479Y-102245571D02*
X140168860Y-102293190D01*
X140168860Y-102293190D02*
X140121241Y-102388428D01*
X140121241Y-102388428D02*
X140121241Y-102674142D01*
X140121241Y-102674142D02*
X140168860Y-102769380D01*
X140168860Y-102769380D02*
X140216479Y-102817000D01*
X140216479Y-102817000D02*
X140311717Y-102864619D01*
X140311717Y-102864619D02*
X140454574Y-102864619D01*
X139549812Y-102864619D02*
X139645050Y-102817000D01*
X139645050Y-102817000D02*
X139692669Y-102721761D01*
X139692669Y-102721761D02*
X139692669Y-101864619D01*
X139026002Y-102864619D02*
X139121240Y-102817000D01*
X139121240Y-102817000D02*
X139168859Y-102769380D01*
X139168859Y-102769380D02*
X139216478Y-102674142D01*
X139216478Y-102674142D02*
X139216478Y-102388428D01*
X139216478Y-102388428D02*
X139168859Y-102293190D01*
X139168859Y-102293190D02*
X139121240Y-102245571D01*
X139121240Y-102245571D02*
X139026002Y-102197952D01*
X139026002Y-102197952D02*
X138883145Y-102197952D01*
X138883145Y-102197952D02*
X138787907Y-102245571D01*
X138787907Y-102245571D02*
X138740288Y-102293190D01*
X138740288Y-102293190D02*
X138692669Y-102388428D01*
X138692669Y-102388428D02*
X138692669Y-102674142D01*
X138692669Y-102674142D02*
X138740288Y-102769380D01*
X138740288Y-102769380D02*
X138787907Y-102817000D01*
X138787907Y-102817000D02*
X138883145Y-102864619D01*
X138883145Y-102864619D02*
X139026002Y-102864619D01*
X138264097Y-102864619D02*
X138264097Y-101864619D01*
X138264097Y-102245571D02*
X138168859Y-102197952D01*
X138168859Y-102197952D02*
X137978383Y-102197952D01*
X137978383Y-102197952D02*
X137883145Y-102245571D01*
X137883145Y-102245571D02*
X137835526Y-102293190D01*
X137835526Y-102293190D02*
X137787907Y-102388428D01*
X137787907Y-102388428D02*
X137787907Y-102674142D01*
X137787907Y-102674142D02*
X137835526Y-102769380D01*
X137835526Y-102769380D02*
X137883145Y-102817000D01*
X137883145Y-102817000D02*
X137978383Y-102864619D01*
X137978383Y-102864619D02*
X138168859Y-102864619D01*
X138168859Y-102864619D02*
X138264097Y-102817000D01*
X136930764Y-102197952D02*
X136930764Y-102864619D01*
X137359335Y-102197952D02*
X137359335Y-102721761D01*
X137359335Y-102721761D02*
X137311716Y-102817000D01*
X137311716Y-102817000D02*
X137216478Y-102864619D01*
X137216478Y-102864619D02*
X137073621Y-102864619D01*
X137073621Y-102864619D02*
X136978383Y-102817000D01*
X136978383Y-102817000D02*
X136930764Y-102769380D01*
X136502192Y-102817000D02*
X136406954Y-102864619D01*
X136406954Y-102864619D02*
X136216478Y-102864619D01*
X136216478Y-102864619D02*
X136121240Y-102817000D01*
X136121240Y-102817000D02*
X136073621Y-102721761D01*
X136073621Y-102721761D02*
X136073621Y-102674142D01*
X136073621Y-102674142D02*
X136121240Y-102578904D01*
X136121240Y-102578904D02*
X136216478Y-102531285D01*
X136216478Y-102531285D02*
X136359335Y-102531285D01*
X136359335Y-102531285D02*
X136454573Y-102483666D01*
X136454573Y-102483666D02*
X136502192Y-102388428D01*
X136502192Y-102388428D02*
X136502192Y-102340809D01*
X136502192Y-102340809D02*
X136454573Y-102245571D01*
X136454573Y-102245571D02*
X136359335Y-102197952D01*
X136359335Y-102197952D02*
X136216478Y-102197952D01*
X136216478Y-102197952D02*
X136121240Y-102245571D01*
X134311716Y-102769380D02*
X134359335Y-102817000D01*
X134359335Y-102817000D02*
X134502192Y-102864619D01*
X134502192Y-102864619D02*
X134597430Y-102864619D01*
X134597430Y-102864619D02*
X134740287Y-102817000D01*
X134740287Y-102817000D02*
X134835525Y-102721761D01*
X134835525Y-102721761D02*
X134883144Y-102626523D01*
X134883144Y-102626523D02*
X134930763Y-102436047D01*
X134930763Y-102436047D02*
X134930763Y-102293190D01*
X134930763Y-102293190D02*
X134883144Y-102102714D01*
X134883144Y-102102714D02*
X134835525Y-102007476D01*
X134835525Y-102007476D02*
X134740287Y-101912238D01*
X134740287Y-101912238D02*
X134597430Y-101864619D01*
X134597430Y-101864619D02*
X134502192Y-101864619D01*
X134502192Y-101864619D02*
X134359335Y-101912238D01*
X134359335Y-101912238D02*
X134311716Y-101959857D01*
X133454573Y-102864619D02*
X133454573Y-102340809D01*
X133454573Y-102340809D02*
X133502192Y-102245571D01*
X133502192Y-102245571D02*
X133597430Y-102197952D01*
X133597430Y-102197952D02*
X133787906Y-102197952D01*
X133787906Y-102197952D02*
X133883144Y-102245571D01*
X133454573Y-102817000D02*
X133549811Y-102864619D01*
X133549811Y-102864619D02*
X133787906Y-102864619D01*
X133787906Y-102864619D02*
X133883144Y-102817000D01*
X133883144Y-102817000D02*
X133930763Y-102721761D01*
X133930763Y-102721761D02*
X133930763Y-102626523D01*
X133930763Y-102626523D02*
X133883144Y-102531285D01*
X133883144Y-102531285D02*
X133787906Y-102483666D01*
X133787906Y-102483666D02*
X133549811Y-102483666D01*
X133549811Y-102483666D02*
X133454573Y-102436047D01*
X132978382Y-102864619D02*
X132978382Y-101864619D01*
X132978382Y-102245571D02*
X132883144Y-102197952D01*
X132883144Y-102197952D02*
X132692668Y-102197952D01*
X132692668Y-102197952D02*
X132597430Y-102245571D01*
X132597430Y-102245571D02*
X132549811Y-102293190D01*
X132549811Y-102293190D02*
X132502192Y-102388428D01*
X132502192Y-102388428D02*
X132502192Y-102674142D01*
X132502192Y-102674142D02*
X132549811Y-102769380D01*
X132549811Y-102769380D02*
X132597430Y-102817000D01*
X132597430Y-102817000D02*
X132692668Y-102864619D01*
X132692668Y-102864619D02*
X132883144Y-102864619D01*
X132883144Y-102864619D02*
X132978382Y-102817000D01*
X131930763Y-102864619D02*
X132026001Y-102817000D01*
X132026001Y-102817000D02*
X132073620Y-102721761D01*
X132073620Y-102721761D02*
X132073620Y-101864619D01*
X131168858Y-102817000D02*
X131264096Y-102864619D01*
X131264096Y-102864619D02*
X131454572Y-102864619D01*
X131454572Y-102864619D02*
X131549810Y-102817000D01*
X131549810Y-102817000D02*
X131597429Y-102721761D01*
X131597429Y-102721761D02*
X131597429Y-102340809D01*
X131597429Y-102340809D02*
X131549810Y-102245571D01*
X131549810Y-102245571D02*
X131454572Y-102197952D01*
X131454572Y-102197952D02*
X131264096Y-102197952D01*
X131264096Y-102197952D02*
X131168858Y-102245571D01*
X131168858Y-102245571D02*
X131121239Y-102340809D01*
X131121239Y-102340809D02*
X131121239Y-102436047D01*
X131121239Y-102436047D02*
X131597429Y-102531285D01*
X144097431Y-124864619D02*
X144097431Y-123864619D01*
X144097431Y-124245571D02*
X144002193Y-124197952D01*
X144002193Y-124197952D02*
X143811717Y-124197952D01*
X143811717Y-124197952D02*
X143716479Y-124245571D01*
X143716479Y-124245571D02*
X143668860Y-124293190D01*
X143668860Y-124293190D02*
X143621241Y-124388428D01*
X143621241Y-124388428D02*
X143621241Y-124674142D01*
X143621241Y-124674142D02*
X143668860Y-124769380D01*
X143668860Y-124769380D02*
X143716479Y-124817000D01*
X143716479Y-124817000D02*
X143811717Y-124864619D01*
X143811717Y-124864619D02*
X144002193Y-124864619D01*
X144002193Y-124864619D02*
X144097431Y-124817000D01*
X143287907Y-124197952D02*
X143049812Y-124864619D01*
X142811717Y-124197952D02*
X143049812Y-124864619D01*
X143049812Y-124864619D02*
X143145050Y-125102714D01*
X143145050Y-125102714D02*
X143192669Y-125150333D01*
X143192669Y-125150333D02*
X143287907Y-125197952D01*
X141811716Y-124197952D02*
X141430764Y-124197952D01*
X141668859Y-123864619D02*
X141668859Y-124721761D01*
X141668859Y-124721761D02*
X141621240Y-124817000D01*
X141621240Y-124817000D02*
X141526002Y-124864619D01*
X141526002Y-124864619D02*
X141430764Y-124864619D01*
X141097430Y-124864619D02*
X141097430Y-124197952D01*
X141097430Y-123864619D02*
X141145049Y-123912238D01*
X141145049Y-123912238D02*
X141097430Y-123959857D01*
X141097430Y-123959857D02*
X141049811Y-123912238D01*
X141049811Y-123912238D02*
X141097430Y-123864619D01*
X141097430Y-123864619D02*
X141097430Y-123959857D01*
X140621240Y-124864619D02*
X140621240Y-123864619D01*
X140192669Y-124864619D02*
X140192669Y-124340809D01*
X140192669Y-124340809D02*
X140240288Y-124245571D01*
X140240288Y-124245571D02*
X140335526Y-124197952D01*
X140335526Y-124197952D02*
X140478383Y-124197952D01*
X140478383Y-124197952D02*
X140573621Y-124245571D01*
X140573621Y-124245571D02*
X140621240Y-124293190D01*
X139716478Y-124864619D02*
X139716478Y-124197952D01*
X139716478Y-124293190D02*
X139668859Y-124245571D01*
X139668859Y-124245571D02*
X139573621Y-124197952D01*
X139573621Y-124197952D02*
X139430764Y-124197952D01*
X139430764Y-124197952D02*
X139335526Y-124245571D01*
X139335526Y-124245571D02*
X139287907Y-124340809D01*
X139287907Y-124340809D02*
X139287907Y-124864619D01*
X139287907Y-124340809D02*
X139240288Y-124245571D01*
X139240288Y-124245571D02*
X139145050Y-124197952D01*
X139145050Y-124197952D02*
X139002193Y-124197952D01*
X139002193Y-124197952D02*
X138906954Y-124245571D01*
X138906954Y-124245571D02*
X138859335Y-124340809D01*
X138859335Y-124340809D02*
X138859335Y-124864619D01*
X138430764Y-124817000D02*
X138335526Y-124864619D01*
X138335526Y-124864619D02*
X138145050Y-124864619D01*
X138145050Y-124864619D02*
X138049812Y-124817000D01*
X138049812Y-124817000D02*
X138002193Y-124721761D01*
X138002193Y-124721761D02*
X138002193Y-124674142D01*
X138002193Y-124674142D02*
X138049812Y-124578904D01*
X138049812Y-124578904D02*
X138145050Y-124531285D01*
X138145050Y-124531285D02*
X138287907Y-124531285D01*
X138287907Y-124531285D02*
X138383145Y-124483666D01*
X138383145Y-124483666D02*
X138430764Y-124388428D01*
X138430764Y-124388428D02*
X138430764Y-124340809D01*
X138430764Y-124340809D02*
X138383145Y-124245571D01*
X138383145Y-124245571D02*
X138287907Y-124197952D01*
X138287907Y-124197952D02*
X138145050Y-124197952D01*
X138145050Y-124197952D02*
X138049812Y-124245571D01*
X137716478Y-124197952D02*
X137335526Y-124197952D01*
X137573621Y-123864619D02*
X137573621Y-124721761D01*
X137573621Y-124721761D02*
X137526002Y-124817000D01*
X137526002Y-124817000D02*
X137430764Y-124864619D01*
X137430764Y-124864619D02*
X137335526Y-124864619D01*
X136573621Y-124864619D02*
X136573621Y-124340809D01*
X136573621Y-124340809D02*
X136621240Y-124245571D01*
X136621240Y-124245571D02*
X136716478Y-124197952D01*
X136716478Y-124197952D02*
X136906954Y-124197952D01*
X136906954Y-124197952D02*
X137002192Y-124245571D01*
X136573621Y-124817000D02*
X136668859Y-124864619D01*
X136668859Y-124864619D02*
X136906954Y-124864619D01*
X136906954Y-124864619D02*
X137002192Y-124817000D01*
X137002192Y-124817000D02*
X137049811Y-124721761D01*
X137049811Y-124721761D02*
X137049811Y-124626523D01*
X137049811Y-124626523D02*
X137002192Y-124531285D01*
X137002192Y-124531285D02*
X136906954Y-124483666D01*
X136906954Y-124483666D02*
X136668859Y-124483666D01*
X136668859Y-124483666D02*
X136573621Y-124436047D01*
X136097430Y-124864619D02*
X136097430Y-124197952D01*
X136097430Y-124388428D02*
X136049811Y-124293190D01*
X136049811Y-124293190D02*
X136002192Y-124245571D01*
X136002192Y-124245571D02*
X135906954Y-124197952D01*
X135906954Y-124197952D02*
X135811716Y-124197952D01*
X125097431Y-127364619D02*
X125097431Y-126697952D01*
X125097431Y-126888428D02*
X125049812Y-126793190D01*
X125049812Y-126793190D02*
X125002193Y-126745571D01*
X125002193Y-126745571D02*
X124906955Y-126697952D01*
X124906955Y-126697952D02*
X124811717Y-126697952D01*
X124097431Y-127317000D02*
X124192669Y-127364619D01*
X124192669Y-127364619D02*
X124383145Y-127364619D01*
X124383145Y-127364619D02*
X124478383Y-127317000D01*
X124478383Y-127317000D02*
X124526002Y-127221761D01*
X124526002Y-127221761D02*
X124526002Y-126840809D01*
X124526002Y-126840809D02*
X124478383Y-126745571D01*
X124478383Y-126745571D02*
X124383145Y-126697952D01*
X124383145Y-126697952D02*
X124192669Y-126697952D01*
X124192669Y-126697952D02*
X124097431Y-126745571D01*
X124097431Y-126745571D02*
X124049812Y-126840809D01*
X124049812Y-126840809D02*
X124049812Y-126936047D01*
X124049812Y-126936047D02*
X124526002Y-127031285D01*
X123716478Y-126697952D02*
X123478383Y-127364619D01*
X123478383Y-127364619D02*
X123240288Y-126697952D01*
X121668859Y-126697952D02*
X121668859Y-127364619D01*
X121906954Y-126317000D02*
X122145049Y-127031285D01*
X122145049Y-127031285D02*
X121526002Y-127031285D01*
D11*
%TO.C,G\u002A\u002A\u002A*%
G36*
X118442049Y-115623274D02*
G01*
X118436931Y-115729889D01*
X118411629Y-115792129D01*
X118355218Y-115807774D01*
X118324024Y-115806752D01*
X118182659Y-115775916D01*
X118078648Y-115712839D01*
X118038163Y-115632028D01*
X118040825Y-115585131D01*
X118066156Y-115533608D01*
X118136607Y-115500335D01*
X118274105Y-115470281D01*
X118442049Y-115438775D01*
X118442049Y-115623274D01*
G37*
G36*
X115479659Y-115456926D02*
G01*
X115517255Y-115500111D01*
X115525088Y-115605831D01*
X115524888Y-115640622D01*
X115513544Y-115724778D01*
X115465463Y-115757424D01*
X115354160Y-115762898D01*
X115281446Y-115759100D01*
X115142861Y-115723714D01*
X115061967Y-115659192D01*
X115054549Y-115575412D01*
X115089774Y-115526410D01*
X115211077Y-115469757D01*
X115401678Y-115449376D01*
X115479659Y-115456926D01*
G37*
G36*
X115749447Y-109622949D02*
G01*
X115811983Y-109685826D01*
X115815183Y-109694572D01*
X115838211Y-109828409D01*
X115826599Y-109963405D01*
X115783651Y-110056349D01*
X115755109Y-110080191D01*
X115661455Y-110104689D01*
X115575998Y-110063773D01*
X115513467Y-109975474D01*
X115488592Y-109857820D01*
X115516099Y-109728840D01*
X115562869Y-109665456D01*
X115655424Y-109617756D01*
X115749447Y-109622949D01*
G37*
G36*
X115749447Y-119944504D02*
G01*
X115811983Y-120007381D01*
X115815183Y-120016126D01*
X115838211Y-120149963D01*
X115826599Y-120284959D01*
X115783651Y-120377904D01*
X115755109Y-120401746D01*
X115661455Y-120426244D01*
X115575998Y-120385328D01*
X115513467Y-120297028D01*
X115488592Y-120179374D01*
X115516099Y-120050395D01*
X115562869Y-119987011D01*
X115655424Y-119939311D01*
X115749447Y-119944504D01*
G37*
G36*
X115570558Y-107210095D02*
G01*
X115601936Y-107271663D01*
X115613309Y-107395523D01*
X115614841Y-107595406D01*
X115614841Y-107999293D01*
X115414476Y-107999293D01*
X115394587Y-107999120D01*
X115257632Y-107980094D01*
X115174128Y-107918949D01*
X115132680Y-107800503D01*
X115121889Y-107609576D01*
X115127844Y-107466333D01*
X115157945Y-107351551D01*
X115226676Y-107282559D01*
X115348442Y-107235576D01*
X115407126Y-107218917D01*
X115509009Y-107197089D01*
X115570558Y-107210095D01*
G37*
G36*
X115906537Y-113449125D02*
G01*
X115912762Y-113458453D01*
X115945876Y-113560397D01*
X115967617Y-113714303D01*
X115976185Y-113888005D01*
X115969783Y-114049332D01*
X115946612Y-114166118D01*
X115897521Y-114226007D01*
X115821590Y-114224325D01*
X115751049Y-114150300D01*
X115718704Y-114038637D01*
X115704999Y-113877569D01*
X115709972Y-113702984D01*
X115732612Y-113548848D01*
X115771908Y-113449125D01*
X115812463Y-113399831D01*
X115852561Y-113388697D01*
X115906537Y-113449125D01*
G37*
G36*
X116804064Y-109320503D02*
G01*
X116810288Y-109329831D01*
X116843403Y-109431775D01*
X116865143Y-109585682D01*
X116873711Y-109759383D01*
X116867309Y-109920710D01*
X116844139Y-110037496D01*
X116795047Y-110097385D01*
X116719116Y-110095703D01*
X116648575Y-110021678D01*
X116616230Y-109910015D01*
X116602526Y-109748947D01*
X116607498Y-109574362D01*
X116630138Y-109420226D01*
X116669435Y-109320503D01*
X116709989Y-109271209D01*
X116750088Y-109260075D01*
X116804064Y-109320503D01*
G37*
G36*
X116804064Y-111384814D02*
G01*
X116810288Y-111394142D01*
X116843403Y-111496086D01*
X116865143Y-111649992D01*
X116873711Y-111823694D01*
X116867309Y-111985021D01*
X116844139Y-112101807D01*
X116795047Y-112161696D01*
X116719116Y-112160014D01*
X116648575Y-112085989D01*
X116616230Y-111974326D01*
X116602526Y-111813258D01*
X116607498Y-111638673D01*
X116630138Y-111484537D01*
X116669435Y-111384814D01*
X116709989Y-111335520D01*
X116750088Y-111324386D01*
X116804064Y-111384814D01*
G37*
G36*
X117186105Y-113403027D02*
G01*
X117217484Y-113464596D01*
X117228857Y-113588456D01*
X117230389Y-113788339D01*
X117230389Y-114192226D01*
X117030024Y-114192226D01*
X117010134Y-114192053D01*
X116873179Y-114173027D01*
X116789676Y-114111881D01*
X116748228Y-113993436D01*
X116737436Y-113802509D01*
X116743392Y-113659266D01*
X116773493Y-113544484D01*
X116842224Y-113475491D01*
X116963990Y-113428509D01*
X117022673Y-113411850D01*
X117124557Y-113390022D01*
X117186105Y-113403027D01*
G37*
G36*
X117186105Y-121660271D02*
G01*
X117217484Y-121721839D01*
X117228857Y-121845700D01*
X117230389Y-122045583D01*
X117230389Y-122449470D01*
X117030024Y-122449470D01*
X117010134Y-122449296D01*
X116873179Y-122430271D01*
X116789676Y-122369125D01*
X116748228Y-122250679D01*
X116737436Y-122059752D01*
X116743392Y-121916510D01*
X116773493Y-121801728D01*
X116842224Y-121732735D01*
X116963990Y-121685753D01*
X117022673Y-121669093D01*
X117124557Y-121647266D01*
X117186105Y-121660271D01*
G37*
G36*
X126330853Y-119313859D02*
G01*
X126330900Y-119315111D01*
X126334708Y-119492948D01*
X126327140Y-119601611D01*
X126304611Y-119661228D01*
X126263538Y-119691927D01*
X126200442Y-119704072D01*
X126061210Y-119718130D01*
X125863012Y-119732319D01*
X125621670Y-119745514D01*
X125353004Y-119756591D01*
X125292553Y-119758623D01*
X124973990Y-119767712D01*
X124600298Y-119776302D01*
X124199809Y-119783850D01*
X123800850Y-119789807D01*
X123431754Y-119793629D01*
X123163990Y-119795136D01*
X122860778Y-119794745D01*
X122625758Y-119790905D01*
X122446418Y-119782999D01*
X122310243Y-119770409D01*
X122204720Y-119752516D01*
X122117337Y-119728703D01*
X121893958Y-119655640D01*
X121906961Y-119313597D01*
X121919965Y-118971555D01*
X124118905Y-118971555D01*
X126317845Y-118971555D01*
X126330853Y-119313859D01*
G37*
G36*
X126269353Y-113515685D02*
G01*
X126333659Y-113588651D01*
X126374547Y-113691469D01*
X126385159Y-113843988D01*
X126385102Y-113857874D01*
X126363971Y-114064936D01*
X126301172Y-114202279D01*
X126191501Y-114281666D01*
X126152581Y-114287768D01*
X126028576Y-114295710D01*
X125831416Y-114303051D01*
X125570669Y-114309599D01*
X125255904Y-114315160D01*
X124896693Y-114319545D01*
X124502604Y-114322559D01*
X124083208Y-114324011D01*
X122072952Y-114326855D01*
X121957513Y-114211417D01*
X121920024Y-114171763D01*
X121871610Y-114095764D01*
X121855444Y-113999879D01*
X121862495Y-113849739D01*
X121868504Y-113790803D01*
X121908246Y-113618936D01*
X121981220Y-113505196D01*
X121997469Y-113489330D01*
X122023542Y-113468836D01*
X122058741Y-113452056D01*
X122111128Y-113438617D01*
X122188766Y-113428150D01*
X122299719Y-113420283D01*
X122452048Y-113414644D01*
X122653816Y-113410863D01*
X122913087Y-113408568D01*
X123237921Y-113407389D01*
X123636384Y-113406953D01*
X124116536Y-113406891D01*
X126153547Y-113406891D01*
X126269353Y-113515685D01*
G37*
G36*
X124961527Y-120798400D02*
G01*
X125329009Y-120800051D01*
X125650929Y-120803079D01*
X125918452Y-120807379D01*
X126122739Y-120812840D01*
X126254952Y-120819357D01*
X126306254Y-120826820D01*
X126318053Y-120851155D01*
X126335017Y-120950527D01*
X126344207Y-121094661D01*
X126345050Y-121254207D01*
X126336975Y-121399815D01*
X126319410Y-121502136D01*
X126268929Y-121573160D01*
X126169942Y-121635099D01*
X126148303Y-121640119D01*
X126037582Y-121651141D01*
X125853566Y-121660587D01*
X125607886Y-121668450D01*
X125312171Y-121674725D01*
X124978054Y-121679407D01*
X124617163Y-121682487D01*
X124241131Y-121683962D01*
X123861588Y-121683824D01*
X123490165Y-121682068D01*
X123138492Y-121678688D01*
X122818200Y-121673678D01*
X122540920Y-121667031D01*
X122318282Y-121658741D01*
X122161918Y-121648804D01*
X122083458Y-121637212D01*
X122026084Y-121613144D01*
X121955775Y-121556014D01*
X121916319Y-121463645D01*
X121901812Y-121318189D01*
X121906349Y-121101796D01*
X121919965Y-120811484D01*
X124093786Y-120799829D01*
X124125233Y-120799664D01*
X124557323Y-120798235D01*
X124961527Y-120798400D01*
G37*
G36*
X124154418Y-109704606D02*
G01*
X124596327Y-109705189D01*
X124959374Y-109706901D01*
X125252794Y-109710088D01*
X125485823Y-109715095D01*
X125667698Y-109722268D01*
X125807654Y-109731952D01*
X125914928Y-109744494D01*
X125998756Y-109760239D01*
X126068373Y-109779533D01*
X126157767Y-109813360D01*
X126278829Y-109877436D01*
X126344989Y-109937770D01*
X126361378Y-109990949D01*
X126376023Y-110120119D01*
X126376145Y-110276400D01*
X126368240Y-110388221D01*
X126346265Y-110495312D01*
X126298531Y-110566677D01*
X126210236Y-110634242D01*
X126057752Y-110736749D01*
X124094576Y-110736749D01*
X122131400Y-110736749D01*
X121992025Y-110606554D01*
X121921573Y-110532777D01*
X121866610Y-110426380D01*
X121853263Y-110281200D01*
X121853334Y-110267009D01*
X121864025Y-110077023D01*
X121901038Y-109950537D01*
X121976519Y-109863763D01*
X122102617Y-109792913D01*
X122111870Y-109788742D01*
X122165550Y-109767170D01*
X122226210Y-109749625D01*
X122303047Y-109735693D01*
X122405259Y-109724960D01*
X122542042Y-109717014D01*
X122722593Y-109711440D01*
X122956108Y-109707824D01*
X123251786Y-109705754D01*
X123618822Y-109704815D01*
X124066413Y-109704594D01*
X124154418Y-109704606D01*
G37*
G36*
X124627777Y-107911687D02*
G01*
X125065924Y-107915966D01*
X125427176Y-107922967D01*
X125708326Y-107932607D01*
X125906168Y-107944806D01*
X126017495Y-107959484D01*
X126191117Y-108016794D01*
X126308158Y-108106881D01*
X126368219Y-108244891D01*
X126385159Y-108449285D01*
X126383650Y-108550213D01*
X126369878Y-108664788D01*
X126332796Y-108738535D01*
X126261749Y-108801903D01*
X126252062Y-108809013D01*
X126219556Y-108829620D01*
X126179275Y-108846606D01*
X126123022Y-108860327D01*
X126042597Y-108871140D01*
X125929805Y-108879403D01*
X125776446Y-108885471D01*
X125574323Y-108889703D01*
X125315239Y-108892455D01*
X124990995Y-108894083D01*
X124593394Y-108894945D01*
X124114238Y-108895398D01*
X122090138Y-108896820D01*
X121971394Y-108786772D01*
X121958054Y-108774152D01*
X121891486Y-108691477D01*
X121860357Y-108590691D01*
X121852650Y-108436338D01*
X121854422Y-108323272D01*
X121864810Y-108222549D01*
X121891192Y-108139720D01*
X121940944Y-108073035D01*
X122021442Y-108020737D01*
X122140062Y-107981074D01*
X122304179Y-107952293D01*
X122521169Y-107932638D01*
X122798408Y-107920357D01*
X123143271Y-107913695D01*
X123563135Y-107910900D01*
X124065375Y-107910216D01*
X124115941Y-107910209D01*
X124627777Y-107911687D01*
G37*
G36*
X123625546Y-117098903D02*
G01*
X124137285Y-117102173D01*
X124358269Y-117103988D01*
X124819099Y-117109089D01*
X125228510Y-117115490D01*
X125580114Y-117123014D01*
X125867522Y-117131487D01*
X126084345Y-117140735D01*
X126224194Y-117150581D01*
X126280679Y-117160852D01*
X126284753Y-117164503D01*
X126330704Y-117251427D01*
X126363028Y-117390236D01*
X126376155Y-117546154D01*
X126364517Y-117684402D01*
X126321125Y-117780525D01*
X126192451Y-117884451D01*
X126166236Y-117895786D01*
X126110954Y-117911573D01*
X126032507Y-117924465D01*
X125922572Y-117934763D01*
X125772826Y-117942769D01*
X125574944Y-117948784D01*
X125320605Y-117953110D01*
X125001484Y-117956048D01*
X124609258Y-117957900D01*
X124135604Y-117958968D01*
X123795757Y-117959343D01*
X123349490Y-117958899D01*
X122980421Y-117956471D01*
X122680983Y-117951202D01*
X122443608Y-117942234D01*
X122260729Y-117928712D01*
X122124778Y-117909776D01*
X122028187Y-117884571D01*
X121963390Y-117852238D01*
X121922819Y-117811920D01*
X121898906Y-117762761D01*
X121884084Y-117703903D01*
X121882793Y-117697204D01*
X121872023Y-117541122D01*
X121887971Y-117374694D01*
X121925087Y-117231097D01*
X121977822Y-117143510D01*
X122005264Y-117131715D01*
X122072429Y-117120181D01*
X122183434Y-117111137D01*
X122344835Y-117104460D01*
X122563190Y-117100024D01*
X122845056Y-117097702D01*
X123196989Y-117097371D01*
X123625546Y-117098903D01*
G37*
G36*
X124176449Y-111544545D02*
G01*
X124609730Y-111545866D01*
X125003639Y-111549103D01*
X125349782Y-111554071D01*
X125639760Y-111560589D01*
X125865178Y-111568473D01*
X126017640Y-111577540D01*
X126088749Y-111587607D01*
X126132496Y-111605649D01*
X126279938Y-111704805D01*
X126360622Y-111848055D01*
X126385159Y-112052024D01*
X126375756Y-112215238D01*
X126330947Y-112349244D01*
X126234637Y-112438193D01*
X126071025Y-112504863D01*
X126070657Y-112504978D01*
X125997126Y-112521825D01*
X125889821Y-112535718D01*
X125740747Y-112546928D01*
X125541907Y-112555726D01*
X125285305Y-112562385D01*
X124962946Y-112567176D01*
X124566832Y-112570371D01*
X124088968Y-112572242D01*
X124052499Y-112572332D01*
X123609000Y-112573151D01*
X123245379Y-112572989D01*
X122952450Y-112571470D01*
X122721025Y-112568218D01*
X122541917Y-112562856D01*
X122405937Y-112555009D01*
X122303899Y-112544300D01*
X122226614Y-112530355D01*
X122164895Y-112512796D01*
X122109555Y-112491249D01*
X122016711Y-112445539D01*
X121916667Y-112359455D01*
X121867124Y-112236836D01*
X121853263Y-112052303D01*
X121871869Y-111876217D01*
X121948564Y-111723194D01*
X122091306Y-111618720D01*
X122121840Y-111605944D01*
X122178605Y-111589688D01*
X122256407Y-111576526D01*
X122363835Y-111566143D01*
X122509478Y-111558222D01*
X122701925Y-111552449D01*
X122949767Y-111548509D01*
X123261591Y-111546084D01*
X123645988Y-111544861D01*
X124111546Y-111544523D01*
X124176449Y-111544545D01*
G37*
G36*
X123218825Y-115228571D02*
G01*
X123641434Y-115230986D01*
X124146340Y-115234309D01*
X124640866Y-115237016D01*
X125061258Y-115239563D01*
X125406689Y-115243338D01*
X125684602Y-115249782D01*
X125902443Y-115260332D01*
X126067656Y-115276427D01*
X126187685Y-115299507D01*
X126269975Y-115331009D01*
X126321971Y-115372374D01*
X126351116Y-115425039D01*
X126364856Y-115490444D01*
X126370635Y-115570027D01*
X126375897Y-115665227D01*
X126383459Y-115808544D01*
X126373995Y-115902184D01*
X126337464Y-115963553D01*
X126264703Y-116022063D01*
X126128574Y-116092538D01*
X125979307Y-116133631D01*
X125929048Y-116137503D01*
X125786483Y-116142977D01*
X125576805Y-116147691D01*
X125312079Y-116151629D01*
X125004372Y-116154773D01*
X124665750Y-116157106D01*
X124308280Y-116158612D01*
X123944026Y-116159274D01*
X123585057Y-116159075D01*
X123243438Y-116157998D01*
X122931234Y-116156028D01*
X122660514Y-116153146D01*
X122443342Y-116149336D01*
X122291784Y-116144581D01*
X122217908Y-116138864D01*
X122215498Y-116138370D01*
X122083007Y-116086069D01*
X121959680Y-116001004D01*
X121905065Y-115946012D01*
X121866069Y-115878058D01*
X121856961Y-115785473D01*
X121869862Y-115636256D01*
X121878990Y-115543909D01*
X121888649Y-115464855D01*
X121906055Y-115399870D01*
X121938665Y-115347640D01*
X121993932Y-115306848D01*
X122079313Y-115276176D01*
X122202261Y-115254310D01*
X122370231Y-115239933D01*
X122590678Y-115231728D01*
X122871058Y-115228380D01*
X123218825Y-115228571D01*
G37*
G36*
X129795326Y-108236687D02*
G01*
X129807702Y-108348264D01*
X129818483Y-108484858D01*
X129827802Y-108651092D01*
X129835792Y-108851590D01*
X129842585Y-109090977D01*
X129848314Y-109373877D01*
X129853112Y-109704913D01*
X129857112Y-110088709D01*
X129860446Y-110529890D01*
X129863247Y-111033079D01*
X129865647Y-111602900D01*
X129867780Y-112243978D01*
X129869778Y-112960936D01*
X129871774Y-113758399D01*
X129873900Y-114640990D01*
X129874324Y-114817823D01*
X129876307Y-115684704D01*
X129877890Y-116467342D01*
X129879033Y-117170358D01*
X129879695Y-117798370D01*
X129879838Y-118356001D01*
X129879419Y-118847870D01*
X129878401Y-119278597D01*
X129876742Y-119652802D01*
X129874402Y-119975106D01*
X129871341Y-120250129D01*
X129867519Y-120482491D01*
X129862897Y-120676812D01*
X129857433Y-120837712D01*
X129851088Y-120969812D01*
X129843822Y-121077732D01*
X129835595Y-121166092D01*
X129826366Y-121239513D01*
X129816095Y-121302614D01*
X129803304Y-121370736D01*
X129761388Y-121570885D01*
X129718958Y-121745705D01*
X129683490Y-121863568D01*
X129676213Y-121883960D01*
X129631701Y-122046081D01*
X129601942Y-122213224D01*
X129548543Y-122402337D01*
X129441106Y-122592295D01*
X129394076Y-122662504D01*
X129328043Y-122790396D01*
X129302120Y-122886860D01*
X129296134Y-122923042D01*
X129239887Y-123035096D01*
X129139500Y-123158497D01*
X129093531Y-123207434D01*
X128970280Y-123353692D01*
X128871634Y-123489748D01*
X128816080Y-123568162D01*
X128655260Y-123751107D01*
X128459072Y-123934793D01*
X128256900Y-124090504D01*
X128090496Y-124202051D01*
X127896261Y-124327707D01*
X127757194Y-124410109D01*
X127663040Y-124455196D01*
X127603545Y-124468905D01*
X127561461Y-124473951D01*
X127482385Y-124511367D01*
X127477726Y-124515495D01*
X127408463Y-124560984D01*
X127286027Y-124631392D01*
X127133577Y-124713310D01*
X127026275Y-124767179D01*
X126863069Y-124833753D01*
X126710606Y-124866977D01*
X126527746Y-124878037D01*
X126389870Y-124882720D01*
X126151325Y-124897536D01*
X125936396Y-124917707D01*
X125812025Y-124928335D01*
X125571213Y-124937709D01*
X125285764Y-124939997D01*
X124982351Y-124935671D01*
X124687652Y-124925199D01*
X124428342Y-124909051D01*
X124231095Y-124887696D01*
X124230108Y-124887550D01*
X124139701Y-124881487D01*
X123968336Y-124876898D01*
X123724615Y-124873785D01*
X123417137Y-124872155D01*
X123054501Y-124872009D01*
X122645308Y-124873352D01*
X122198157Y-124876187D01*
X121721649Y-124880519D01*
X121224382Y-124886352D01*
X120878509Y-124890626D01*
X120312936Y-124896863D01*
X119682962Y-124903068D01*
X119003573Y-124909128D01*
X118289750Y-124914927D01*
X117556476Y-124920352D01*
X116818735Y-124925288D01*
X116091509Y-124929620D01*
X115389781Y-124933234D01*
X114728534Y-124936014D01*
X110992580Y-124949678D01*
X110992580Y-121417315D01*
X115614841Y-121417315D01*
X115614841Y-122068021D01*
X115614841Y-122718728D01*
X115749470Y-122718728D01*
X115884099Y-122718728D01*
X115884099Y-122271478D01*
X115884099Y-122068021D01*
X116422615Y-122068021D01*
X116422681Y-122082161D01*
X116453927Y-122338324D01*
X116542839Y-122527107D01*
X116690404Y-122650654D01*
X116744639Y-122672471D01*
X116927259Y-122706941D01*
X117183284Y-122718728D01*
X117544523Y-122718728D01*
X117724028Y-122718728D01*
X117881095Y-122718728D01*
X118038163Y-122718728D01*
X118038163Y-122068021D01*
X118038163Y-121417315D01*
X117881095Y-121417315D01*
X117724028Y-121417315D01*
X117724028Y-122068021D01*
X117724028Y-122718728D01*
X117544523Y-122718728D01*
X117544523Y-122068021D01*
X117544523Y-121417315D01*
X117150621Y-121417315D01*
X117052055Y-121419009D01*
X116800830Y-121447932D01*
X116621509Y-121519040D01*
X116504856Y-121640588D01*
X116441636Y-121820831D01*
X116436225Y-121891151D01*
X116422615Y-122068021D01*
X115884099Y-122068021D01*
X115884099Y-121824228D01*
X116041166Y-121916900D01*
X116198233Y-122009572D01*
X116198233Y-121891151D01*
X116164206Y-121786505D01*
X116074882Y-121661336D01*
X115954711Y-121541925D01*
X115828169Y-121452506D01*
X115719727Y-121417315D01*
X115614841Y-121417315D01*
X110992580Y-121417315D01*
X110992580Y-120161617D01*
X115210954Y-120161617D01*
X115226325Y-120324019D01*
X115293834Y-120506019D01*
X115405943Y-120628376D01*
X115552641Y-120681450D01*
X115723917Y-120655601D01*
X115771946Y-120638544D01*
X115818633Y-120638508D01*
X115836403Y-120690186D01*
X115839223Y-120812595D01*
X115840156Y-120900710D01*
X115853933Y-120979660D01*
X115899593Y-121009068D01*
X115996290Y-121013428D01*
X116153357Y-121013428D01*
X116153357Y-120362721D01*
X116153357Y-120003710D01*
X116512367Y-120003710D01*
X116512367Y-120654417D01*
X116646996Y-120654417D01*
X116781625Y-120654417D01*
X117224427Y-120654417D01*
X117698609Y-120654417D01*
X118172792Y-120654417D01*
X118172792Y-120003710D01*
X118172792Y-119353004D01*
X118038163Y-119353004D01*
X117903534Y-119353004D01*
X117903534Y-119826840D01*
X117903534Y-119867115D01*
X117903534Y-120381227D01*
X117578180Y-120394412D01*
X117475474Y-120398905D01*
X117348581Y-120409247D01*
X117280199Y-120429324D01*
X117250242Y-120467218D01*
X117238627Y-120531007D01*
X117224427Y-120654417D01*
X116781625Y-120654417D01*
X116781625Y-120207167D01*
X116781625Y-119759918D01*
X116938693Y-119852589D01*
X117095760Y-119945261D01*
X117095760Y-119826840D01*
X117061733Y-119722194D01*
X116972408Y-119597025D01*
X116852238Y-119477614D01*
X116725695Y-119388195D01*
X116617254Y-119353004D01*
X116512367Y-119353004D01*
X116512367Y-119712014D01*
X116512367Y-120003710D01*
X116153357Y-120003710D01*
X116153357Y-119712014D01*
X116018728Y-119712014D01*
X116017018Y-119712018D01*
X115923084Y-119726144D01*
X115884099Y-119759435D01*
X115856502Y-119773150D01*
X115784361Y-119736997D01*
X115645825Y-119675475D01*
X115493469Y-119692075D01*
X115342131Y-119798315D01*
X115332756Y-119807780D01*
X115255431Y-119903730D01*
X115219659Y-120008301D01*
X115210954Y-120161617D01*
X110992580Y-120161617D01*
X110992580Y-118189425D01*
X115255830Y-118189425D01*
X115255830Y-118590106D01*
X115390459Y-118590106D01*
X115525088Y-118590106D01*
X115525088Y-118284549D01*
X115525128Y-118269387D01*
X115539083Y-118045852D01*
X115579005Y-117906058D01*
X115646157Y-117847577D01*
X115741804Y-117867982D01*
X115749764Y-117872360D01*
X115797208Y-117910555D01*
X115824241Y-117972410D01*
X115836400Y-118079927D01*
X115839223Y-118255113D01*
X115839223Y-118590106D01*
X115996290Y-118590106D01*
X116153357Y-118590106D01*
X116153357Y-118113995D01*
X116153357Y-117939399D01*
X116512367Y-117939399D01*
X116512367Y-118590106D01*
X116646996Y-118590106D01*
X116781625Y-118590106D01*
X117224427Y-118590106D01*
X117698609Y-118590106D01*
X118172792Y-118590106D01*
X118172792Y-117939399D01*
X118172792Y-117288693D01*
X118038163Y-117288693D01*
X117903534Y-117288693D01*
X117903534Y-117762529D01*
X117903534Y-117802804D01*
X117903534Y-118316916D01*
X117578180Y-118330101D01*
X117475474Y-118334594D01*
X117348581Y-118344936D01*
X117280199Y-118365013D01*
X117250242Y-118402907D01*
X117238627Y-118466696D01*
X117224427Y-118590106D01*
X116781625Y-118590106D01*
X116781625Y-118142856D01*
X116781625Y-117695607D01*
X116938693Y-117788278D01*
X117095760Y-117880950D01*
X117095760Y-117762529D01*
X117061733Y-117657883D01*
X116972408Y-117532714D01*
X116852238Y-117413303D01*
X116725695Y-117323884D01*
X116617254Y-117288693D01*
X116512367Y-117288693D01*
X116512367Y-117637884D01*
X116512367Y-117939399D01*
X116153357Y-117939399D01*
X116153357Y-117637884D01*
X115985071Y-117658273D01*
X115968896Y-117659990D01*
X115829287Y-117659094D01*
X115719122Y-117635049D01*
X115617972Y-117612130D01*
X115460529Y-117636149D01*
X115326283Y-117718291D01*
X115303099Y-117749522D01*
X115275130Y-117835326D01*
X115260228Y-117976246D01*
X115255830Y-118189425D01*
X110992580Y-118189425D01*
X110992580Y-116500224D01*
X114627562Y-116500224D01*
X114631308Y-116505485D01*
X114691673Y-116519976D01*
X114802389Y-116525795D01*
X114889524Y-116521618D01*
X114966374Y-116494974D01*
X115035173Y-116427267D01*
X115122105Y-116300005D01*
X115236548Y-116141341D01*
X115361721Y-116024982D01*
X115477262Y-115987279D01*
X115497404Y-116008161D01*
X115517657Y-116102288D01*
X115525088Y-116256537D01*
X115525088Y-116525795D01*
X115682155Y-116525795D01*
X115839223Y-116525795D01*
X115839223Y-115875088D01*
X115839223Y-115258039D01*
X115930674Y-115258039D01*
X115931825Y-115265890D01*
X115948018Y-115342739D01*
X115980268Y-115484862D01*
X116024708Y-115675408D01*
X116072139Y-115875088D01*
X116077469Y-115897527D01*
X116222565Y-116503357D01*
X116387484Y-116517141D01*
X116432573Y-116521352D01*
X116489424Y-116522687D01*
X116530751Y-116505197D01*
X116564262Y-116455298D01*
X116597668Y-116359405D01*
X116638680Y-116203933D01*
X116695007Y-115975297D01*
X116714416Y-115902591D01*
X116750412Y-115793761D01*
X116777705Y-115742882D01*
X116788135Y-115750458D01*
X116820307Y-115821997D01*
X116863773Y-115952909D01*
X116912165Y-116125094D01*
X117016708Y-116525795D01*
X117181703Y-116525795D01*
X117346698Y-116525795D01*
X117490592Y-115908746D01*
X117508936Y-115829804D01*
X117558310Y-115614314D01*
X117562084Y-115597424D01*
X117720406Y-115597424D01*
X117742894Y-115772759D01*
X117834179Y-115922005D01*
X117840900Y-115928641D01*
X117926629Y-115993167D01*
X118032623Y-116024163D01*
X118193190Y-116032156D01*
X118442049Y-116032156D01*
X118442049Y-116278975D01*
X118442049Y-116525795D01*
X118599117Y-116525795D01*
X118756184Y-116525795D01*
X118756184Y-115875088D01*
X118756184Y-115224382D01*
X118350257Y-115224382D01*
X118208632Y-115225221D01*
X118059518Y-115231787D01*
X117962405Y-115248993D01*
X117943671Y-115258039D01*
X117894793Y-115281640D01*
X117834179Y-115334533D01*
X117766713Y-115427550D01*
X117720406Y-115597424D01*
X117562084Y-115597424D01*
X117598137Y-115436052D01*
X117624724Y-115311724D01*
X117634381Y-115258039D01*
X117633672Y-115254791D01*
X117585291Y-115233210D01*
X117484222Y-115224382D01*
X117334169Y-115224382D01*
X117250958Y-115617050D01*
X117167747Y-116009717D01*
X117111978Y-115807774D01*
X117101881Y-115771035D01*
X117052181Y-115586902D01*
X117006940Y-115415106D01*
X116989140Y-115349186D01*
X116952309Y-115263720D01*
X116892665Y-115230184D01*
X116781625Y-115224382D01*
X116720563Y-115225217D01*
X116637546Y-115241201D01*
X116592323Y-115296432D01*
X116556311Y-115415106D01*
X116547216Y-115450116D01*
X116499166Y-115631401D01*
X116451273Y-115807774D01*
X116395504Y-116009717D01*
X116312293Y-115617050D01*
X116229082Y-115224382D01*
X116079029Y-115224382D01*
X116064254Y-115224545D01*
X115968795Y-115235399D01*
X115930674Y-115258039D01*
X115839223Y-115258039D01*
X115839223Y-115224382D01*
X115400445Y-115224382D01*
X115394875Y-115224384D01*
X115143893Y-115231386D01*
X114967286Y-115255835D01*
X114850692Y-115303555D01*
X114779748Y-115380368D01*
X114740091Y-115492097D01*
X114739158Y-115496487D01*
X114743595Y-115664847D01*
X114814036Y-115819126D01*
X114935061Y-115925075D01*
X114964265Y-115940426D01*
X115008180Y-115980158D01*
X114976855Y-116016141D01*
X114955239Y-116034158D01*
X114886662Y-116111893D01*
X114801086Y-116223035D01*
X114717031Y-116341915D01*
X114653016Y-116442867D01*
X114627562Y-116500224D01*
X110992580Y-116500224D01*
X110992580Y-114724309D01*
X110992580Y-113811677D01*
X115397910Y-113811677D01*
X115411730Y-114034969D01*
X115464077Y-114231385D01*
X115555548Y-114374121D01*
X115561480Y-114379709D01*
X115714848Y-114467452D01*
X115886570Y-114483263D01*
X116049393Y-114429948D01*
X116176063Y-114310307D01*
X116216257Y-114232108D01*
X116265538Y-114037969D01*
X116277278Y-113813772D01*
X116276961Y-113810778D01*
X116422615Y-113810778D01*
X116422629Y-113813772D01*
X116422681Y-113824917D01*
X116453927Y-114081081D01*
X116542839Y-114269863D01*
X116690404Y-114393410D01*
X116744639Y-114415227D01*
X116927259Y-114449697D01*
X117183284Y-114461484D01*
X117544523Y-114461484D01*
X117724028Y-114461484D01*
X117881095Y-114461484D01*
X118038163Y-114461484D01*
X118038163Y-113810778D01*
X118038163Y-113160071D01*
X117881095Y-113160071D01*
X117724028Y-113160071D01*
X117724028Y-113810778D01*
X117724028Y-114461484D01*
X117544523Y-114461484D01*
X117544523Y-113810778D01*
X117544523Y-113160071D01*
X117150621Y-113160071D01*
X117052055Y-113161765D01*
X116800830Y-113190688D01*
X116621509Y-113261796D01*
X116504856Y-113383345D01*
X116441636Y-113563587D01*
X116422615Y-113810778D01*
X116276961Y-113810778D01*
X116253363Y-113588179D01*
X116195679Y-113389853D01*
X116106113Y-113247456D01*
X116027682Y-113194961D01*
X115874456Y-113160311D01*
X115712675Y-113178552D01*
X115580617Y-113249531D01*
X115483460Y-113391682D01*
X115422019Y-113588314D01*
X115397910Y-113811677D01*
X110992580Y-113811677D01*
X110992580Y-111996492D01*
X115255830Y-111996492D01*
X115255830Y-112397173D01*
X115390459Y-112397173D01*
X115525088Y-112397173D01*
X115525088Y-112091616D01*
X115525128Y-112076454D01*
X115539083Y-111852919D01*
X115579005Y-111713125D01*
X115646157Y-111654644D01*
X115741804Y-111675049D01*
X115749764Y-111679427D01*
X115797208Y-111717623D01*
X115824241Y-111779477D01*
X115836400Y-111886995D01*
X115839223Y-112062180D01*
X115839223Y-112397173D01*
X115996290Y-112397173D01*
X116153357Y-112397173D01*
X116153357Y-111921062D01*
X116153357Y-111747366D01*
X116295436Y-111747366D01*
X116309256Y-111970658D01*
X116361603Y-112167074D01*
X116453074Y-112309810D01*
X116459007Y-112315398D01*
X116612374Y-112403141D01*
X116784097Y-112418952D01*
X116850609Y-112397173D01*
X117224427Y-112397173D01*
X117698609Y-112397173D01*
X118172792Y-112397173D01*
X118172792Y-111746467D01*
X118172792Y-111095760D01*
X118038163Y-111095760D01*
X117903534Y-111095760D01*
X117903534Y-111609872D01*
X117903534Y-111749461D01*
X117903534Y-112123983D01*
X117578180Y-112137168D01*
X117475474Y-112141662D01*
X117348581Y-112152003D01*
X117280199Y-112172080D01*
X117250242Y-112209974D01*
X117238627Y-112273763D01*
X117224427Y-112397173D01*
X116850609Y-112397173D01*
X116946919Y-112365637D01*
X117073589Y-112245996D01*
X117113783Y-112167797D01*
X117163064Y-111973658D01*
X117174804Y-111749461D01*
X117150889Y-111523869D01*
X117093206Y-111325542D01*
X117003640Y-111183145D01*
X116925208Y-111130650D01*
X116771983Y-111096000D01*
X116610202Y-111114241D01*
X116478143Y-111185220D01*
X116380986Y-111327371D01*
X116344247Y-111444951D01*
X116319546Y-111524003D01*
X116295436Y-111747366D01*
X116153357Y-111747366D01*
X116153357Y-111444951D01*
X115985071Y-111465340D01*
X115968896Y-111467057D01*
X115829287Y-111466161D01*
X115719122Y-111442116D01*
X115617972Y-111419197D01*
X115460529Y-111443216D01*
X115326283Y-111525358D01*
X115303099Y-111556589D01*
X115275130Y-111642393D01*
X115260228Y-111783313D01*
X115255830Y-111996492D01*
X110992580Y-111996492D01*
X110992580Y-109840062D01*
X115210954Y-109840062D01*
X115226325Y-110002464D01*
X115293834Y-110184464D01*
X115405943Y-110306821D01*
X115552641Y-110359895D01*
X115723917Y-110334046D01*
X115771946Y-110316989D01*
X115818633Y-110316953D01*
X115836403Y-110368631D01*
X115839223Y-110491040D01*
X115840156Y-110579155D01*
X115853933Y-110658105D01*
X115899593Y-110687513D01*
X115996290Y-110691873D01*
X116153357Y-110691873D01*
X116153357Y-110041166D01*
X116153357Y-109683056D01*
X116295436Y-109683056D01*
X116309256Y-109906347D01*
X116361603Y-110102763D01*
X116453074Y-110245499D01*
X116459007Y-110251087D01*
X116612374Y-110338830D01*
X116784097Y-110354642D01*
X116850611Y-110332862D01*
X117224427Y-110332862D01*
X117698609Y-110332862D01*
X118172792Y-110332862D01*
X118172792Y-109682156D01*
X118172792Y-109031449D01*
X118038163Y-109031449D01*
X117903534Y-109031449D01*
X117903534Y-109545561D01*
X117903534Y-109685150D01*
X117903534Y-110059672D01*
X117578180Y-110072857D01*
X117475474Y-110077351D01*
X117348581Y-110087692D01*
X117280199Y-110107769D01*
X117250242Y-110145663D01*
X117238627Y-110209452D01*
X117224427Y-110332862D01*
X116850611Y-110332862D01*
X116946919Y-110301326D01*
X117073589Y-110181685D01*
X117113783Y-110103486D01*
X117163064Y-109909347D01*
X117174804Y-109685150D01*
X117150889Y-109459558D01*
X117093206Y-109261231D01*
X117003640Y-109118834D01*
X116925208Y-109066339D01*
X116771983Y-109031690D01*
X116610202Y-109049930D01*
X116478143Y-109120909D01*
X116380986Y-109263060D01*
X116341179Y-109390459D01*
X116319546Y-109459692D01*
X116295436Y-109683056D01*
X116153357Y-109683056D01*
X116153357Y-109390459D01*
X116018728Y-109390459D01*
X116017018Y-109390463D01*
X115923084Y-109404589D01*
X115884099Y-109437880D01*
X115856502Y-109451595D01*
X115784361Y-109415442D01*
X115645825Y-109353920D01*
X115493469Y-109370520D01*
X115342131Y-109476760D01*
X115332756Y-109486226D01*
X115255431Y-109582175D01*
X115219659Y-109686746D01*
X115210954Y-109840062D01*
X110992580Y-109840062D01*
X110992580Y-107617845D01*
X114807067Y-107617845D01*
X114807133Y-107631984D01*
X114838379Y-107888148D01*
X114927292Y-108076930D01*
X115074856Y-108200477D01*
X115129091Y-108222294D01*
X115311711Y-108256764D01*
X115567736Y-108268551D01*
X115928975Y-108268551D01*
X116153357Y-108268551D01*
X116304265Y-108268551D01*
X116373105Y-108264086D01*
X116433746Y-108240147D01*
X116494266Y-108182111D01*
X116569553Y-108075371D01*
X116674495Y-107905319D01*
X116893816Y-107542088D01*
X116906850Y-107905319D01*
X116919884Y-108268551D01*
X117045219Y-108268551D01*
X117137596Y-108260680D01*
X117200471Y-108238634D01*
X117203949Y-108230937D01*
X117214338Y-108153291D01*
X117222731Y-108008347D01*
X117227657Y-107837113D01*
X117409894Y-107837113D01*
X117409967Y-107886880D01*
X117414401Y-108023598D01*
X117433502Y-108103234D01*
X117477989Y-108151537D01*
X117558584Y-108194254D01*
X117767592Y-108264820D01*
X117998041Y-108292054D01*
X118199921Y-108266870D01*
X118308901Y-108220722D01*
X118468133Y-108089003D01*
X118471453Y-108083511D01*
X120057597Y-108083511D01*
X120057597Y-109682156D01*
X120057597Y-111746467D01*
X120057597Y-113810778D01*
X120057597Y-114831588D01*
X120057601Y-115045913D01*
X120057716Y-115875088D01*
X120057726Y-115947426D01*
X120058056Y-116764222D01*
X120058629Y-117500411D01*
X120059200Y-117939399D01*
X120059487Y-118160107D01*
X120060668Y-118747421D01*
X120062212Y-119266466D01*
X120064158Y-119721354D01*
X120065866Y-120003710D01*
X120066547Y-120116196D01*
X120069418Y-120455104D01*
X120072810Y-120742192D01*
X120076764Y-120981570D01*
X120081319Y-121177351D01*
X120086514Y-121333648D01*
X120092389Y-121454571D01*
X120098984Y-121544233D01*
X120106339Y-121606747D01*
X120114492Y-121646224D01*
X120123484Y-121666776D01*
X120163420Y-121735393D01*
X120190799Y-121833829D01*
X120200213Y-121877841D01*
X120254248Y-121937571D01*
X120266458Y-121945217D01*
X120311924Y-122018987D01*
X120325414Y-122068021D01*
X120344305Y-122136690D01*
X120347007Y-122152100D01*
X120390398Y-122280683D01*
X120453812Y-122355611D01*
X120489452Y-122380651D01*
X120585595Y-122462456D01*
X120715384Y-122582156D01*
X120861070Y-122723710D01*
X120872466Y-122735041D01*
X121036625Y-122891367D01*
X121162546Y-122992925D01*
X121268787Y-123052748D01*
X121373905Y-123083869D01*
X121413068Y-123091872D01*
X121565974Y-123127337D01*
X121760737Y-123176390D01*
X121964841Y-123230939D01*
X122027242Y-123248016D01*
X122125319Y-123273237D01*
X122219979Y-123293492D01*
X122321572Y-123309314D01*
X122440451Y-123321237D01*
X122586969Y-123329795D01*
X122771477Y-123335521D01*
X123004329Y-123338947D01*
X123295876Y-123340609D01*
X123656471Y-123341038D01*
X124096466Y-123340768D01*
X124539583Y-123339922D01*
X124916711Y-123337952D01*
X125223897Y-123334480D01*
X125471187Y-123329112D01*
X125668626Y-123321455D01*
X125826260Y-123311118D01*
X125954133Y-123297707D01*
X126062290Y-123280831D01*
X126160777Y-123260096D01*
X126175659Y-123256578D01*
X126357346Y-123210582D01*
X126517752Y-123165054D01*
X126623681Y-123129370D01*
X126732142Y-123094638D01*
X126839734Y-123077739D01*
X126921980Y-123050686D01*
X127050408Y-122969544D01*
X127203785Y-122849388D01*
X127365845Y-122705504D01*
X127520320Y-122553177D01*
X127650943Y-122407691D01*
X127741447Y-122284332D01*
X127775565Y-122198386D01*
X127800138Y-122114350D01*
X127871320Y-122018881D01*
X127917218Y-121965887D01*
X127997605Y-121840921D01*
X128073263Y-121692208D01*
X128180212Y-121451023D01*
X128180212Y-114818694D01*
X128180212Y-108186366D01*
X127930388Y-107691013D01*
X127845189Y-107528162D01*
X127739102Y-107344855D01*
X127653642Y-107221285D01*
X127596111Y-107168856D01*
X127540086Y-107133532D01*
X127481767Y-107043376D01*
X127471880Y-107014956D01*
X127390865Y-106881105D01*
X127278066Y-106781686D01*
X127161264Y-106742756D01*
X127089794Y-106728039D01*
X127029656Y-106675442D01*
X127011129Y-106644221D01*
X126946807Y-106608127D01*
X126912042Y-106600061D01*
X126838469Y-106546291D01*
X126804518Y-106522477D01*
X126695890Y-106484662D01*
X126552497Y-106458861D01*
X126484081Y-106450588D01*
X126288704Y-106421069D01*
X126115901Y-106388023D01*
X126113160Y-106387437D01*
X126015596Y-106376754D01*
X125837950Y-106367060D01*
X125589406Y-106358565D01*
X125279150Y-106351482D01*
X124916364Y-106346023D01*
X124510233Y-106342400D01*
X124069941Y-106340824D01*
X123724939Y-106340715D01*
X123306618Y-106341648D01*
X122963485Y-106344099D01*
X122687005Y-106348335D01*
X122468640Y-106354626D01*
X122299857Y-106363240D01*
X122172118Y-106374444D01*
X122076888Y-106388508D01*
X122005630Y-106405698D01*
X121935457Y-106425091D01*
X121771109Y-106459263D01*
X121638842Y-106473013D01*
X121535680Y-106488872D01*
X121365030Y-106549477D01*
X121177955Y-106641877D01*
X121000013Y-106751547D01*
X120856765Y-106863963D01*
X120773770Y-106964600D01*
X120769812Y-106972323D01*
X120678309Y-107093712D01*
X120559100Y-107193298D01*
X120540144Y-107205348D01*
X120441614Y-107285962D01*
X120388048Y-107360063D01*
X120384814Y-107369281D01*
X120347927Y-107458428D01*
X120285841Y-107597606D01*
X120234915Y-107707345D01*
X120210050Y-107760925D01*
X120057597Y-108083511D01*
X118471453Y-108083511D01*
X118575355Y-107911659D01*
X118629296Y-107707345D01*
X118628682Y-107494713D01*
X118572242Y-107292417D01*
X118458702Y-107119109D01*
X118286791Y-106993442D01*
X118225250Y-106968043D01*
X118014707Y-106928270D01*
X117807136Y-106950008D01*
X117627219Y-107028114D01*
X117499638Y-107157446D01*
X117487582Y-107177936D01*
X117442293Y-107273678D01*
X117434109Y-107329023D01*
X117492872Y-107365059D01*
X117592460Y-107380938D01*
X117689927Y-107373145D01*
X117743485Y-107340173D01*
X117756348Y-107314547D01*
X117848423Y-107238716D01*
X117982227Y-107209310D01*
X118125209Y-107235275D01*
X118224089Y-107298448D01*
X118304040Y-107419721D01*
X118329979Y-107565870D01*
X118308158Y-107718044D01*
X118244827Y-107857394D01*
X118146238Y-107965070D01*
X118018641Y-108022223D01*
X117868288Y-108010004D01*
X117772311Y-107960505D01*
X117729052Y-107896037D01*
X117756271Y-107842277D01*
X117855367Y-107819788D01*
X117931457Y-107815229D01*
X117982572Y-107779740D01*
X117993286Y-107685159D01*
X117993286Y-107550530D01*
X117701590Y-107550530D01*
X117409894Y-107550530D01*
X117409894Y-107585218D01*
X117409894Y-107837113D01*
X117227657Y-107837113D01*
X117228343Y-107813268D01*
X117230389Y-107585218D01*
X117230389Y-106961720D01*
X117062529Y-106975648D01*
X116981655Y-106987182D01*
X116917158Y-107016226D01*
X116853978Y-107077797D01*
X116776688Y-107186946D01*
X116669862Y-107358723D01*
X116445053Y-107727870D01*
X116432087Y-107347504D01*
X116419121Y-106967138D01*
X116286239Y-106967138D01*
X116153357Y-106967138D01*
X116153357Y-107617845D01*
X116153357Y-108268551D01*
X115928975Y-108268551D01*
X115928975Y-107617845D01*
X115928975Y-106967138D01*
X115535074Y-106967138D01*
X115436507Y-106968832D01*
X115185283Y-106997755D01*
X115005961Y-107068863D01*
X114889308Y-107190412D01*
X114826088Y-107370654D01*
X114807067Y-107617845D01*
X110992580Y-107617845D01*
X110992580Y-104498940D01*
X114714666Y-104498940D01*
X114813983Y-104498948D01*
X115571343Y-104499637D01*
X116241527Y-104501426D01*
X116824213Y-104504312D01*
X117319079Y-104508293D01*
X117725806Y-104513362D01*
X118044070Y-104519517D01*
X118273553Y-104526754D01*
X118413931Y-104535069D01*
X118464884Y-104544458D01*
X118477228Y-104558439D01*
X118553795Y-104614288D01*
X118667688Y-104679087D01*
X118697317Y-104693450D01*
X118739795Y-104710025D01*
X118792472Y-104723952D01*
X118862578Y-104735462D01*
X118957346Y-104744785D01*
X119084009Y-104752150D01*
X119249798Y-104757787D01*
X119461946Y-104761926D01*
X119727686Y-104764797D01*
X120054249Y-104766630D01*
X120448868Y-104767654D01*
X120918774Y-104768100D01*
X121471201Y-104768198D01*
X121895029Y-104768148D01*
X122384661Y-104767809D01*
X122797218Y-104766949D01*
X123139931Y-104765338D01*
X123420033Y-104762745D01*
X123644756Y-104758940D01*
X123821332Y-104753695D01*
X123956994Y-104746779D01*
X124058973Y-104737962D01*
X124134503Y-104727014D01*
X124190815Y-104713705D01*
X124235141Y-104697806D01*
X124274715Y-104679087D01*
X124318653Y-104655706D01*
X124422630Y-104591703D01*
X124477519Y-104544458D01*
X124479165Y-104542508D01*
X124542640Y-104524623D01*
X124683109Y-104510878D01*
X124889006Y-104502055D01*
X125148769Y-104498940D01*
X125668308Y-104517543D01*
X126143813Y-104573386D01*
X126556343Y-104664733D01*
X126895464Y-104789849D01*
X127000380Y-104834877D01*
X127146251Y-104883814D01*
X127251109Y-104902827D01*
X127340841Y-104923215D01*
X127474960Y-104984991D01*
X127614672Y-105070142D01*
X127730151Y-105160236D01*
X127791572Y-105236841D01*
X127794465Y-105242850D01*
X127859865Y-105293985D01*
X127970399Y-105330637D01*
X128084208Y-105371911D01*
X128216287Y-105483912D01*
X128216850Y-105484671D01*
X128320699Y-105579874D01*
X128441040Y-105634869D01*
X128548795Y-105681723D01*
X128620343Y-105794881D01*
X128681987Y-105904591D01*
X128782549Y-106004135D01*
X128863365Y-106080269D01*
X128898233Y-106160940D01*
X128920062Y-106218608D01*
X128992995Y-106321115D01*
X129099435Y-106436256D01*
X129191441Y-106531760D01*
X129270634Y-106629910D01*
X129301379Y-106691098D01*
X129324261Y-106784780D01*
X129381139Y-106920514D01*
X129456503Y-107065339D01*
X129534841Y-107186352D01*
X129592455Y-107310913D01*
X129616254Y-107487745D01*
X129616987Y-107519246D01*
X129637819Y-107685790D01*
X129678400Y-107829485D01*
X129680149Y-107833629D01*
X129704880Y-107892210D01*
X129727221Y-107948064D01*
X129747303Y-108005815D01*
X129765259Y-108070086D01*
X129781223Y-108145502D01*
X129787543Y-108186366D01*
X129795326Y-108236687D01*
G37*
%TD*%
M02*
