%TF.GenerationSoftware,KiCad,Pcbnew,8.0.7*%
%TF.CreationDate,2025-04-15T10:47:45+02:00*%
%TF.ProjectId,colobus_hardware,636f6c6f-6275-4735-9f68-617264776172,rev?*%
%TF.SameCoordinates,Original*%
%TF.FileFunction,Drillmap*%
%TF.FilePolarity,Positive*%
%FSLAX45Y45*%
G04 Gerber Fmt 4.5, Leading zero omitted, Abs format (unit mm)*
G04 Created by KiCad (PCBNEW 8.0.7) date 2025-04-15 10:47:45*
%MOMM*%
%LPD*%
G01*
G04 APERTURE LIST*
%ADD10C,0.050000*%
%ADD11C,0.200000*%
%ADD12C,0.100000*%
%ADD13C,0.120000*%
G04 APERTURE END LIST*
D10*
X15050000Y-12950000D02*
X15050000Y-10000000D01*
X10000000Y-10000000D02*
X10000000Y-12950000D01*
X10000000Y-12950000D02*
X15050000Y-12950000D01*
X15050000Y-10000000D02*
X10000000Y-10000000D01*
D11*
D12*
X10085000Y-12735000D02*
X10115000Y-12765000D01*
X10115000Y-12735000D02*
X10085000Y-12765000D01*
X10135000Y-10135000D02*
X10165000Y-10165000D01*
X10165000Y-10135000D02*
X10135000Y-10165000D01*
X10385000Y-11485000D02*
X10415000Y-11515000D01*
X10415000Y-11485000D02*
X10385000Y-11515000D01*
X10385000Y-11735000D02*
X10415000Y-11765000D01*
X10415000Y-11735000D02*
X10385000Y-11765000D01*
X10435000Y-12535000D02*
X10465000Y-12565000D01*
X10465000Y-12535000D02*
X10435000Y-12565000D01*
X10485000Y-11235000D02*
X10515000Y-11265000D01*
X10515000Y-11235000D02*
X10485000Y-11265000D01*
X10635000Y-11835000D02*
X10665000Y-11865000D01*
X10665000Y-11835000D02*
X10635000Y-11865000D01*
X10685000Y-12485000D02*
X10715000Y-12515000D01*
X10715000Y-12485000D02*
X10685000Y-12515000D01*
X10885000Y-11785000D02*
X10915000Y-11815000D01*
X10915000Y-11785000D02*
X10885000Y-11815000D01*
X11135000Y-11485000D02*
X11165000Y-11515000D01*
X11165000Y-11485000D02*
X11135000Y-11515000D01*
X11411548Y-10134376D02*
X11441548Y-10164376D01*
X11441548Y-10134376D02*
X11411548Y-10164376D01*
X11435000Y-12685000D02*
X11465000Y-12715000D01*
X11465000Y-12685000D02*
X11435000Y-12715000D01*
X11535000Y-11535000D02*
X11565000Y-11565000D01*
X11565000Y-11535000D02*
X11535000Y-11565000D01*
X11580972Y-11683623D02*
X11610972Y-11713623D01*
X11610972Y-11683623D02*
X11580972Y-11713623D01*
X11585000Y-10535000D02*
X11615000Y-10565000D01*
X11615000Y-10535000D02*
X11585000Y-10565000D01*
X11585000Y-10935000D02*
X11615000Y-10965000D01*
X11615000Y-10935000D02*
X11585000Y-10965000D01*
X11585000Y-11185000D02*
X11615000Y-11215000D01*
X11615000Y-11185000D02*
X11585000Y-11215000D01*
X11585000Y-11385000D02*
X11615000Y-11415000D01*
X11615000Y-11385000D02*
X11585000Y-11415000D01*
X11685000Y-12335000D02*
X11715000Y-12365000D01*
X11715000Y-12335000D02*
X11685000Y-12365000D01*
X11709000Y-10235000D02*
X11739000Y-10265000D01*
X11739000Y-10235000D02*
X11709000Y-10265000D01*
X11709000Y-10335000D02*
X11739000Y-10365000D01*
X11739000Y-10335000D02*
X11709000Y-10365000D01*
X11735000Y-11985000D02*
X11765000Y-12015000D01*
X11765000Y-11985000D02*
X11735000Y-12015000D01*
X11885000Y-12685000D02*
X11915000Y-12715000D01*
X11915000Y-12685000D02*
X11885000Y-12715000D01*
X12035000Y-10335000D02*
X12065000Y-10365000D01*
X12065000Y-10335000D02*
X12035000Y-10365000D01*
X12110000Y-11510000D02*
X12140000Y-11540000D01*
X12140000Y-11510000D02*
X12110000Y-11540000D01*
X12135000Y-10835000D02*
X12165000Y-10865000D01*
X12165000Y-10835000D02*
X12135000Y-10865000D01*
X12135016Y-11630000D02*
X12165016Y-11660000D01*
X12165016Y-11630000D02*
X12135016Y-11660000D01*
X12187000Y-12283000D02*
X12217000Y-12313000D01*
X12217000Y-12283000D02*
X12187000Y-12313000D01*
X12210000Y-11285000D02*
X12240000Y-11315000D01*
X12240000Y-11285000D02*
X12210000Y-11315000D01*
X12235000Y-12685000D02*
X12265000Y-12715000D01*
X12265000Y-12685000D02*
X12235000Y-12715000D01*
X12285000Y-10335000D02*
X12315000Y-10365000D01*
X12315000Y-10335000D02*
X12285000Y-10365000D01*
X12335000Y-12285000D02*
X12365000Y-12315000D01*
X12365000Y-12285000D02*
X12335000Y-12315000D01*
X12336250Y-11136250D02*
X12366250Y-11166250D01*
X12366250Y-11136250D02*
X12336250Y-11166250D01*
X12385000Y-11985000D02*
X12415000Y-12015000D01*
X12415000Y-11985000D02*
X12385000Y-12015000D01*
X12510000Y-10985000D02*
X12540000Y-11015000D01*
X12540000Y-10985000D02*
X12510000Y-11015000D01*
X12585000Y-10185000D02*
X12615000Y-10215000D01*
X12615000Y-10185000D02*
X12585000Y-10215000D01*
X12585000Y-11385000D02*
X12615000Y-11415000D01*
X12615000Y-11385000D02*
X12585000Y-11415000D01*
X12585000Y-12685000D02*
X12615000Y-12715000D01*
X12615000Y-12685000D02*
X12585000Y-12715000D01*
X12635000Y-10485000D02*
X12665000Y-10515000D01*
X12665000Y-10485000D02*
X12635000Y-10515000D01*
X12635000Y-10735000D02*
X12665000Y-10765000D01*
X12665000Y-10735000D02*
X12635000Y-10765000D01*
X12637943Y-11757057D02*
X12667943Y-11787057D01*
X12667943Y-11757057D02*
X12637943Y-11787057D01*
X12660000Y-12110000D02*
X12690000Y-12140000D01*
X12690000Y-12110000D02*
X12660000Y-12140000D01*
X12680000Y-11528750D02*
X12710000Y-11558750D01*
X12710000Y-11528750D02*
X12680000Y-11558750D01*
X12720000Y-11035000D02*
X12750000Y-11065000D01*
X12750000Y-11035000D02*
X12720000Y-11065000D01*
X12735000Y-12685000D02*
X12765000Y-12715000D01*
X12765000Y-12685000D02*
X12735000Y-12715000D01*
X12785000Y-10985000D02*
X12815000Y-11015000D01*
X12815000Y-10985000D02*
X12785000Y-11015000D01*
X12785000Y-11635000D02*
X12815000Y-11665000D01*
X12815000Y-11635000D02*
X12785000Y-11665000D01*
X12910000Y-11335000D02*
X12940000Y-11365000D01*
X12940000Y-11335000D02*
X12910000Y-11365000D01*
X12935000Y-12485000D02*
X12965000Y-12515000D01*
X12965000Y-12485000D02*
X12935000Y-12515000D01*
X12985000Y-10485000D02*
X13015000Y-10515000D01*
X13015000Y-10485000D02*
X12985000Y-10515000D01*
X12985000Y-10860000D02*
X13015000Y-10890000D01*
X13015000Y-10860000D02*
X12985000Y-10890000D01*
X13000000Y-11120000D02*
X13030000Y-11150000D01*
X13030000Y-11120000D02*
X13000000Y-11150000D01*
X13035000Y-10135000D02*
X13065000Y-10165000D01*
X13065000Y-10135000D02*
X13035000Y-10165000D01*
X13035000Y-11849000D02*
X13065000Y-11879000D01*
X13065000Y-11849000D02*
X13035000Y-11879000D01*
X13085000Y-11985000D02*
X13115000Y-12015000D01*
X13115000Y-11985000D02*
X13085000Y-12015000D01*
X13085000Y-12077431D02*
X13115000Y-12107431D01*
X13115000Y-12077431D02*
X13085000Y-12107431D01*
X13160000Y-11310000D02*
X13190000Y-11340000D01*
X13190000Y-11310000D02*
X13160000Y-11340000D01*
X13160000Y-11810000D02*
X13190000Y-11840000D01*
X13190000Y-11810000D02*
X13160000Y-11840000D01*
X13185000Y-11460000D02*
X13215000Y-11490000D01*
X13215000Y-11460000D02*
X13185000Y-11490000D01*
X13235000Y-11635000D02*
X13265000Y-11665000D01*
X13265000Y-11635000D02*
X13235000Y-11665000D01*
X13260000Y-11360000D02*
X13290000Y-11390000D01*
X13290000Y-11360000D02*
X13260000Y-11390000D01*
X13260000Y-12435000D02*
X13290000Y-12465000D01*
X13290000Y-12435000D02*
X13260000Y-12465000D01*
X13335000Y-11434000D02*
X13365000Y-11464000D01*
X13365000Y-11434000D02*
X13335000Y-11464000D01*
X13335000Y-11685000D02*
X13365000Y-11715000D01*
X13365000Y-11685000D02*
X13335000Y-11715000D01*
X13385000Y-11285000D02*
X13415000Y-11315000D01*
X13415000Y-11285000D02*
X13385000Y-11315000D01*
X13435000Y-12035000D02*
X13465000Y-12065000D01*
X13465000Y-12035000D02*
X13435000Y-12065000D01*
X13485000Y-10335000D02*
X13515000Y-10365000D01*
X13515000Y-10335000D02*
X13485000Y-10365000D01*
X13485000Y-10635000D02*
X13515000Y-10665000D01*
X13515000Y-10635000D02*
X13485000Y-10665000D01*
X13485000Y-10785000D02*
X13515000Y-10815000D01*
X13515000Y-10785000D02*
X13485000Y-10815000D01*
X13485000Y-12435000D02*
X13515000Y-12465000D01*
X13515000Y-12435000D02*
X13485000Y-12465000D01*
X13535000Y-12135000D02*
X13565000Y-12165000D01*
X13565000Y-12135000D02*
X13535000Y-12165000D01*
X13560000Y-12035000D02*
X13590000Y-12065000D01*
X13590000Y-12035000D02*
X13560000Y-12065000D01*
X13585000Y-11935000D02*
X13615000Y-11965000D01*
X13615000Y-11935000D02*
X13585000Y-11965000D01*
X13635000Y-10185000D02*
X13665000Y-10215000D01*
X13665000Y-10185000D02*
X13635000Y-10215000D01*
X13685000Y-12035000D02*
X13715000Y-12065000D01*
X13715000Y-12035000D02*
X13685000Y-12065000D01*
X13735000Y-11585000D02*
X13765000Y-11615000D01*
X13765000Y-11585000D02*
X13735000Y-11615000D01*
X13811000Y-11086000D02*
X13841000Y-11116000D01*
X13841000Y-11086000D02*
X13811000Y-11116000D01*
X13835000Y-10735000D02*
X13865000Y-10765000D01*
X13865000Y-10735000D02*
X13835000Y-10765000D01*
X13835000Y-10885000D02*
X13865000Y-10915000D01*
X13865000Y-10885000D02*
X13835000Y-10915000D01*
X13860000Y-10585000D02*
X13890000Y-10615000D01*
X13890000Y-10585000D02*
X13860000Y-10615000D01*
X13898750Y-11446250D02*
X13928750Y-11476250D01*
X13928750Y-11446250D02*
X13898750Y-11476250D01*
X13910000Y-11160000D02*
X13940000Y-11190000D01*
X13940000Y-11160000D02*
X13910000Y-11190000D01*
X13935000Y-12435000D02*
X13965000Y-12465000D01*
X13965000Y-12435000D02*
X13935000Y-12465000D01*
X14035000Y-12135000D02*
X14065000Y-12165000D01*
X14065000Y-12135000D02*
X14035000Y-12165000D01*
X14085000Y-10835000D02*
X14115000Y-10865000D01*
X14115000Y-10835000D02*
X14085000Y-10865000D01*
X14105000Y-12321750D02*
X14135000Y-12351750D01*
X14135000Y-12321750D02*
X14105000Y-12351750D01*
X14113117Y-11160000D02*
X14143117Y-11190000D01*
X14143117Y-11160000D02*
X14113117Y-11190000D01*
X14160000Y-11685000D02*
X14190000Y-11715000D01*
X14190000Y-11685000D02*
X14160000Y-11715000D01*
X14185000Y-11785000D02*
X14215000Y-11815000D01*
X14215000Y-11785000D02*
X14185000Y-11815000D01*
X14185000Y-12035000D02*
X14215000Y-12065000D01*
X14215000Y-12035000D02*
X14185000Y-12065000D01*
X14285000Y-10235000D02*
X14315000Y-10265000D01*
X14315000Y-10235000D02*
X14285000Y-10265000D01*
X14335000Y-12035000D02*
X14365000Y-12065000D01*
X14365000Y-12035000D02*
X14335000Y-12065000D01*
X14360000Y-11285000D02*
X14390000Y-11315000D01*
X14390000Y-11285000D02*
X14360000Y-11315000D01*
X14425000Y-12160000D02*
X14455000Y-12190000D01*
X14455000Y-12160000D02*
X14425000Y-12190000D01*
X14435000Y-12387500D02*
X14465000Y-12417500D01*
X14465000Y-12387500D02*
X14435000Y-12417500D01*
X14560000Y-12035000D02*
X14590000Y-12065000D01*
X14590000Y-12035000D02*
X14560000Y-12065000D01*
X14628875Y-12278875D02*
X14658875Y-12308875D01*
X14658875Y-12278875D02*
X14628875Y-12308875D01*
X14635000Y-10685000D02*
X14665000Y-10715000D01*
X14665000Y-10685000D02*
X14635000Y-10715000D01*
X14635000Y-11385000D02*
X14665000Y-11415000D01*
X14665000Y-11385000D02*
X14635000Y-11415000D01*
X14635000Y-12135000D02*
X14665000Y-12165000D01*
X14665000Y-12135000D02*
X14635000Y-12165000D01*
X14835000Y-11585000D02*
X14865000Y-11615000D01*
X14865000Y-11585000D02*
X14835000Y-11615000D01*
X14835000Y-12285000D02*
X14865000Y-12315000D01*
X14865000Y-12285000D02*
X14835000Y-12315000D01*
X14369500Y-11043000D02*
G75*
G02*
X14309500Y-11043000I-30000J0D01*
G01*
X14309500Y-11043000D02*
G75*
G02*
X14369500Y-11043000I30000J0D01*
G01*
X14284500Y-11073000D02*
X14394500Y-11073000D01*
X14394500Y-11013000D02*
G75*
G02*
X14394500Y-11073000I0J-30000D01*
G01*
X14394500Y-11013000D02*
X14284500Y-11013000D01*
X14284500Y-11013000D02*
G75*
G03*
X14284500Y-11073000I0J-30000D01*
G01*
X14369500Y-11907000D02*
G75*
G02*
X14309500Y-11907000I-30000J0D01*
G01*
X14309500Y-11907000D02*
G75*
G02*
X14369500Y-11907000I30000J0D01*
G01*
X14284500Y-11937000D02*
X14394500Y-11937000D01*
X14394500Y-11877000D02*
G75*
G02*
X14394500Y-11937000I0J-30000D01*
G01*
X14394500Y-11877000D02*
X14284500Y-11877000D01*
X14284500Y-11877000D02*
G75*
G03*
X14284500Y-11937000I0J-30000D01*
G01*
X14787500Y-11043000D02*
G75*
G02*
X14727500Y-11043000I-30000J0D01*
G01*
X14727500Y-11043000D02*
G75*
G02*
X14787500Y-11043000I30000J0D01*
G01*
X14727500Y-11073000D02*
X14787500Y-11073000D01*
X14787500Y-11013000D02*
G75*
G02*
X14787500Y-11073000I0J-30000D01*
G01*
X14787500Y-11013000D02*
X14727500Y-11013000D01*
X14727500Y-11013000D02*
G75*
G03*
X14727500Y-11073000I0J-30000D01*
G01*
X14787500Y-11907000D02*
G75*
G02*
X14727500Y-11907000I-30000J0D01*
G01*
X14727500Y-11907000D02*
G75*
G02*
X14787500Y-11907000I30000J0D01*
G01*
X14727500Y-11937000D02*
X14787500Y-11937000D01*
X14787500Y-11877000D02*
G75*
G02*
X14787500Y-11937000I0J-30000D01*
G01*
X14787500Y-11877000D02*
X14727500Y-11877000D01*
X14727500Y-11877000D02*
G75*
G03*
X14727500Y-11937000I0J-30000D01*
G01*
X10200000Y-10537500D02*
X10200000Y-10637500D01*
X10150000Y-10587500D02*
X10250000Y-10587500D01*
X10200000Y-10791500D02*
X10200000Y-10891500D01*
X10150000Y-10841500D02*
X10250000Y-10841500D01*
X10200000Y-11045500D02*
X10200000Y-11145500D01*
X10150000Y-11095500D02*
X10250000Y-11095500D01*
X10200000Y-11299500D02*
X10200000Y-11399500D01*
X10150000Y-11349500D02*
X10250000Y-11349500D01*
X10200000Y-11553500D02*
X10200000Y-11653500D01*
X10150000Y-11603500D02*
X10250000Y-11603500D01*
X10200000Y-11807500D02*
X10200000Y-11907500D01*
X10150000Y-11857500D02*
X10250000Y-11857500D01*
X10200000Y-12061500D02*
X10200000Y-12161500D01*
X10150000Y-12111500D02*
X10250000Y-12111500D01*
X10200000Y-12315500D02*
X10200000Y-12415500D01*
X10150000Y-12365500D02*
X10250000Y-12365500D01*
X10646000Y-10775000D02*
X10646000Y-10875000D01*
X10596000Y-10825000D02*
X10696000Y-10825000D01*
X10646000Y-11462500D02*
X10646000Y-11562500D01*
X10596000Y-11512500D02*
X10696000Y-11512500D01*
X10646000Y-12150000D02*
X10646000Y-12250000D01*
X10596000Y-12200000D02*
X10696000Y-12200000D01*
X10900000Y-10775000D02*
X10900000Y-10875000D01*
X10850000Y-10825000D02*
X10950000Y-10825000D01*
X10900000Y-11462500D02*
X10900000Y-11562500D01*
X10850000Y-11512500D02*
X10950000Y-11512500D01*
X10900000Y-12150000D02*
X10900000Y-12250000D01*
X10850000Y-12200000D02*
X10950000Y-12200000D01*
X13192500Y-12625000D02*
X13192500Y-12725000D01*
X13142500Y-12675000D02*
X13242500Y-12675000D01*
X13446500Y-12625000D02*
X13446500Y-12725000D01*
X13396500Y-12675000D02*
X13496500Y-12675000D01*
X13700500Y-12625000D02*
X13700500Y-12725000D01*
X13650500Y-12675000D02*
X13750500Y-12675000D01*
X13954500Y-12625000D02*
X13954500Y-12725000D01*
X13904500Y-12675000D02*
X14004500Y-12675000D01*
X14208500Y-12625000D02*
X14208500Y-12725000D01*
X14158500Y-12675000D02*
X14258500Y-12675000D01*
D13*
X11367427Y-10592427D02*
X11367427Y-10507573D01*
X11282573Y-10507573D01*
X11282573Y-10592427D01*
X11367427Y-10592427D01*
X11367427Y-11042427D02*
X11367427Y-10957573D01*
X11282573Y-10957573D01*
X11282573Y-11042427D01*
X11367427Y-11042427D01*
X11367427Y-11317427D02*
X11367427Y-11232573D01*
X11282573Y-11232573D01*
X11282573Y-11317427D01*
X11367427Y-11317427D01*
X11367427Y-11767427D02*
X11367427Y-11682573D01*
X11282573Y-11682573D01*
X11282573Y-11767427D01*
X11367427Y-11767427D01*
X11367427Y-12042427D02*
X11367427Y-11957573D01*
X11282573Y-11957573D01*
X11282573Y-12042427D01*
X11367427Y-12042427D01*
X11367427Y-12492427D02*
X11367427Y-12407573D01*
X11282573Y-12407573D01*
X11282573Y-12492427D01*
X11367427Y-12492427D01*
X12017427Y-10592427D02*
X12017427Y-10507573D01*
X11932573Y-10507573D01*
X11932573Y-10592427D01*
X12017427Y-10592427D01*
X12017427Y-11042427D02*
X12017427Y-10957573D01*
X11932573Y-10957573D01*
X11932573Y-11042427D01*
X12017427Y-11042427D01*
X12017427Y-11317427D02*
X12017427Y-11232573D01*
X11932573Y-11232573D01*
X11932573Y-11317427D01*
X12017427Y-11317427D01*
X12017427Y-11767427D02*
X12017427Y-11682573D01*
X11932573Y-11682573D01*
X11932573Y-11767427D01*
X12017427Y-11767427D01*
X12017427Y-12042427D02*
X12017427Y-11957573D01*
X11932573Y-11957573D01*
X11932573Y-12042427D01*
X12017427Y-12042427D01*
X12017427Y-12492427D02*
X12017427Y-12407573D01*
X11932573Y-12407573D01*
X11932573Y-12492427D01*
X12017427Y-12492427D01*
D11*
X10258277Y-13263984D02*
X10258277Y-13063984D01*
X10258277Y-13063984D02*
X10305896Y-13063984D01*
X10305896Y-13063984D02*
X10334467Y-13073508D01*
X10334467Y-13073508D02*
X10353515Y-13092555D01*
X10353515Y-13092555D02*
X10363039Y-13111603D01*
X10363039Y-13111603D02*
X10372563Y-13149698D01*
X10372563Y-13149698D02*
X10372563Y-13178269D01*
X10372563Y-13178269D02*
X10363039Y-13216365D01*
X10363039Y-13216365D02*
X10353515Y-13235412D01*
X10353515Y-13235412D02*
X10334467Y-13254460D01*
X10334467Y-13254460D02*
X10305896Y-13263984D01*
X10305896Y-13263984D02*
X10258277Y-13263984D01*
X10458277Y-13263984D02*
X10458277Y-13130650D01*
X10458277Y-13168746D02*
X10467801Y-13149698D01*
X10467801Y-13149698D02*
X10477324Y-13140174D01*
X10477324Y-13140174D02*
X10496372Y-13130650D01*
X10496372Y-13130650D02*
X10515420Y-13130650D01*
X10582086Y-13263984D02*
X10582086Y-13130650D01*
X10582086Y-13063984D02*
X10572563Y-13073508D01*
X10572563Y-13073508D02*
X10582086Y-13083031D01*
X10582086Y-13083031D02*
X10591610Y-13073508D01*
X10591610Y-13073508D02*
X10582086Y-13063984D01*
X10582086Y-13063984D02*
X10582086Y-13083031D01*
X10705896Y-13263984D02*
X10686848Y-13254460D01*
X10686848Y-13254460D02*
X10677324Y-13235412D01*
X10677324Y-13235412D02*
X10677324Y-13063984D01*
X10810658Y-13263984D02*
X10791610Y-13254460D01*
X10791610Y-13254460D02*
X10782086Y-13235412D01*
X10782086Y-13235412D02*
X10782086Y-13063984D01*
X11039229Y-13263984D02*
X11039229Y-13063984D01*
X11039229Y-13063984D02*
X11105896Y-13206841D01*
X11105896Y-13206841D02*
X11172563Y-13063984D01*
X11172563Y-13063984D02*
X11172563Y-13263984D01*
X11353515Y-13263984D02*
X11353515Y-13159222D01*
X11353515Y-13159222D02*
X11343991Y-13140174D01*
X11343991Y-13140174D02*
X11324943Y-13130650D01*
X11324943Y-13130650D02*
X11286848Y-13130650D01*
X11286848Y-13130650D02*
X11267801Y-13140174D01*
X11353515Y-13254460D02*
X11334467Y-13263984D01*
X11334467Y-13263984D02*
X11286848Y-13263984D01*
X11286848Y-13263984D02*
X11267801Y-13254460D01*
X11267801Y-13254460D02*
X11258277Y-13235412D01*
X11258277Y-13235412D02*
X11258277Y-13216365D01*
X11258277Y-13216365D02*
X11267801Y-13197317D01*
X11267801Y-13197317D02*
X11286848Y-13187793D01*
X11286848Y-13187793D02*
X11334467Y-13187793D01*
X11334467Y-13187793D02*
X11353515Y-13178269D01*
X11448753Y-13130650D02*
X11448753Y-13330650D01*
X11448753Y-13140174D02*
X11467801Y-13130650D01*
X11467801Y-13130650D02*
X11505896Y-13130650D01*
X11505896Y-13130650D02*
X11524943Y-13140174D01*
X11524943Y-13140174D02*
X11534467Y-13149698D01*
X11534467Y-13149698D02*
X11543991Y-13168746D01*
X11543991Y-13168746D02*
X11543991Y-13225888D01*
X11543991Y-13225888D02*
X11534467Y-13244936D01*
X11534467Y-13244936D02*
X11524943Y-13254460D01*
X11524943Y-13254460D02*
X11505896Y-13263984D01*
X11505896Y-13263984D02*
X11467801Y-13263984D01*
X11467801Y-13263984D02*
X11448753Y-13254460D01*
X11629705Y-13244936D02*
X11639229Y-13254460D01*
X11639229Y-13254460D02*
X11629705Y-13263984D01*
X11629705Y-13263984D02*
X11620182Y-13254460D01*
X11620182Y-13254460D02*
X11629705Y-13244936D01*
X11629705Y-13244936D02*
X11629705Y-13263984D01*
X11629705Y-13140174D02*
X11639229Y-13149698D01*
X11639229Y-13149698D02*
X11629705Y-13159222D01*
X11629705Y-13159222D02*
X11620182Y-13149698D01*
X11620182Y-13149698D02*
X11629705Y-13140174D01*
X11629705Y-13140174D02*
X11629705Y-13159222D01*
D12*
X9967500Y-13577500D02*
X9997500Y-13607500D01*
X9997500Y-13577500D02*
X9967500Y-13607500D01*
D11*
X10296372Y-13483984D02*
X10315420Y-13483984D01*
X10315420Y-13483984D02*
X10334467Y-13493508D01*
X10334467Y-13493508D02*
X10343991Y-13503031D01*
X10343991Y-13503031D02*
X10353515Y-13522079D01*
X10353515Y-13522079D02*
X10363039Y-13560174D01*
X10363039Y-13560174D02*
X10363039Y-13607793D01*
X10363039Y-13607793D02*
X10353515Y-13645888D01*
X10353515Y-13645888D02*
X10343991Y-13664936D01*
X10343991Y-13664936D02*
X10334467Y-13674460D01*
X10334467Y-13674460D02*
X10315420Y-13683984D01*
X10315420Y-13683984D02*
X10296372Y-13683984D01*
X10296372Y-13683984D02*
X10277324Y-13674460D01*
X10277324Y-13674460D02*
X10267801Y-13664936D01*
X10267801Y-13664936D02*
X10258277Y-13645888D01*
X10258277Y-13645888D02*
X10248753Y-13607793D01*
X10248753Y-13607793D02*
X10248753Y-13560174D01*
X10248753Y-13560174D02*
X10258277Y-13522079D01*
X10258277Y-13522079D02*
X10267801Y-13503031D01*
X10267801Y-13503031D02*
X10277324Y-13493508D01*
X10277324Y-13493508D02*
X10296372Y-13483984D01*
X10448753Y-13664936D02*
X10458277Y-13674460D01*
X10458277Y-13674460D02*
X10448753Y-13683984D01*
X10448753Y-13683984D02*
X10439229Y-13674460D01*
X10439229Y-13674460D02*
X10448753Y-13664936D01*
X10448753Y-13664936D02*
X10448753Y-13683984D01*
X10524944Y-13483984D02*
X10648753Y-13483984D01*
X10648753Y-13483984D02*
X10582086Y-13560174D01*
X10582086Y-13560174D02*
X10610658Y-13560174D01*
X10610658Y-13560174D02*
X10629705Y-13569698D01*
X10629705Y-13569698D02*
X10639229Y-13579222D01*
X10639229Y-13579222D02*
X10648753Y-13598269D01*
X10648753Y-13598269D02*
X10648753Y-13645888D01*
X10648753Y-13645888D02*
X10639229Y-13664936D01*
X10639229Y-13664936D02*
X10629705Y-13674460D01*
X10629705Y-13674460D02*
X10610658Y-13683984D01*
X10610658Y-13683984D02*
X10553515Y-13683984D01*
X10553515Y-13683984D02*
X10534467Y-13674460D01*
X10534467Y-13674460D02*
X10524944Y-13664936D01*
X10772563Y-13483984D02*
X10791610Y-13483984D01*
X10791610Y-13483984D02*
X10810658Y-13493508D01*
X10810658Y-13493508D02*
X10820182Y-13503031D01*
X10820182Y-13503031D02*
X10829705Y-13522079D01*
X10829705Y-13522079D02*
X10839229Y-13560174D01*
X10839229Y-13560174D02*
X10839229Y-13607793D01*
X10839229Y-13607793D02*
X10829705Y-13645888D01*
X10829705Y-13645888D02*
X10820182Y-13664936D01*
X10820182Y-13664936D02*
X10810658Y-13674460D01*
X10810658Y-13674460D02*
X10791610Y-13683984D01*
X10791610Y-13683984D02*
X10772563Y-13683984D01*
X10772563Y-13683984D02*
X10753515Y-13674460D01*
X10753515Y-13674460D02*
X10743991Y-13664936D01*
X10743991Y-13664936D02*
X10734467Y-13645888D01*
X10734467Y-13645888D02*
X10724944Y-13607793D01*
X10724944Y-13607793D02*
X10724944Y-13560174D01*
X10724944Y-13560174D02*
X10734467Y-13522079D01*
X10734467Y-13522079D02*
X10743991Y-13503031D01*
X10743991Y-13503031D02*
X10753515Y-13493508D01*
X10753515Y-13493508D02*
X10772563Y-13483984D01*
X10963039Y-13483984D02*
X10982086Y-13483984D01*
X10982086Y-13483984D02*
X11001134Y-13493508D01*
X11001134Y-13493508D02*
X11010658Y-13503031D01*
X11010658Y-13503031D02*
X11020182Y-13522079D01*
X11020182Y-13522079D02*
X11029705Y-13560174D01*
X11029705Y-13560174D02*
X11029705Y-13607793D01*
X11029705Y-13607793D02*
X11020182Y-13645888D01*
X11020182Y-13645888D02*
X11010658Y-13664936D01*
X11010658Y-13664936D02*
X11001134Y-13674460D01*
X11001134Y-13674460D02*
X10982086Y-13683984D01*
X10982086Y-13683984D02*
X10963039Y-13683984D01*
X10963039Y-13683984D02*
X10943991Y-13674460D01*
X10943991Y-13674460D02*
X10934467Y-13664936D01*
X10934467Y-13664936D02*
X10924944Y-13645888D01*
X10924944Y-13645888D02*
X10915420Y-13607793D01*
X10915420Y-13607793D02*
X10915420Y-13560174D01*
X10915420Y-13560174D02*
X10924944Y-13522079D01*
X10924944Y-13522079D02*
X10934467Y-13503031D01*
X10934467Y-13503031D02*
X10943991Y-13493508D01*
X10943991Y-13493508D02*
X10963039Y-13483984D01*
X11115420Y-13683984D02*
X11115420Y-13550650D01*
X11115420Y-13569698D02*
X11124944Y-13560174D01*
X11124944Y-13560174D02*
X11143991Y-13550650D01*
X11143991Y-13550650D02*
X11172563Y-13550650D01*
X11172563Y-13550650D02*
X11191610Y-13560174D01*
X11191610Y-13560174D02*
X11201134Y-13579222D01*
X11201134Y-13579222D02*
X11201134Y-13683984D01*
X11201134Y-13579222D02*
X11210658Y-13560174D01*
X11210658Y-13560174D02*
X11229705Y-13550650D01*
X11229705Y-13550650D02*
X11258277Y-13550650D01*
X11258277Y-13550650D02*
X11277324Y-13560174D01*
X11277324Y-13560174D02*
X11286848Y-13579222D01*
X11286848Y-13579222D02*
X11286848Y-13683984D01*
X11382086Y-13683984D02*
X11382086Y-13550650D01*
X11382086Y-13569698D02*
X11391610Y-13560174D01*
X11391610Y-13560174D02*
X11410658Y-13550650D01*
X11410658Y-13550650D02*
X11439229Y-13550650D01*
X11439229Y-13550650D02*
X11458277Y-13560174D01*
X11458277Y-13560174D02*
X11467801Y-13579222D01*
X11467801Y-13579222D02*
X11467801Y-13683984D01*
X11467801Y-13579222D02*
X11477324Y-13560174D01*
X11477324Y-13560174D02*
X11496372Y-13550650D01*
X11496372Y-13550650D02*
X11524943Y-13550650D01*
X11524943Y-13550650D02*
X11543991Y-13560174D01*
X11543991Y-13560174D02*
X11553515Y-13579222D01*
X11553515Y-13579222D02*
X11553515Y-13683984D01*
X11943991Y-13474460D02*
X11772563Y-13731603D01*
X12201134Y-13483984D02*
X12220182Y-13483984D01*
X12220182Y-13483984D02*
X12239229Y-13493508D01*
X12239229Y-13493508D02*
X12248753Y-13503031D01*
X12248753Y-13503031D02*
X12258277Y-13522079D01*
X12258277Y-13522079D02*
X12267801Y-13560174D01*
X12267801Y-13560174D02*
X12267801Y-13607793D01*
X12267801Y-13607793D02*
X12258277Y-13645888D01*
X12258277Y-13645888D02*
X12248753Y-13664936D01*
X12248753Y-13664936D02*
X12239229Y-13674460D01*
X12239229Y-13674460D02*
X12220182Y-13683984D01*
X12220182Y-13683984D02*
X12201134Y-13683984D01*
X12201134Y-13683984D02*
X12182086Y-13674460D01*
X12182086Y-13674460D02*
X12172563Y-13664936D01*
X12172563Y-13664936D02*
X12163039Y-13645888D01*
X12163039Y-13645888D02*
X12153515Y-13607793D01*
X12153515Y-13607793D02*
X12153515Y-13560174D01*
X12153515Y-13560174D02*
X12163039Y-13522079D01*
X12163039Y-13522079D02*
X12172563Y-13503031D01*
X12172563Y-13503031D02*
X12182086Y-13493508D01*
X12182086Y-13493508D02*
X12201134Y-13483984D01*
X12353515Y-13664936D02*
X12363039Y-13674460D01*
X12363039Y-13674460D02*
X12353515Y-13683984D01*
X12353515Y-13683984D02*
X12343991Y-13674460D01*
X12343991Y-13674460D02*
X12353515Y-13664936D01*
X12353515Y-13664936D02*
X12353515Y-13683984D01*
X12486848Y-13483984D02*
X12505896Y-13483984D01*
X12505896Y-13483984D02*
X12524944Y-13493508D01*
X12524944Y-13493508D02*
X12534467Y-13503031D01*
X12534467Y-13503031D02*
X12543991Y-13522079D01*
X12543991Y-13522079D02*
X12553515Y-13560174D01*
X12553515Y-13560174D02*
X12553515Y-13607793D01*
X12553515Y-13607793D02*
X12543991Y-13645888D01*
X12543991Y-13645888D02*
X12534467Y-13664936D01*
X12534467Y-13664936D02*
X12524944Y-13674460D01*
X12524944Y-13674460D02*
X12505896Y-13683984D01*
X12505896Y-13683984D02*
X12486848Y-13683984D01*
X12486848Y-13683984D02*
X12467801Y-13674460D01*
X12467801Y-13674460D02*
X12458277Y-13664936D01*
X12458277Y-13664936D02*
X12448753Y-13645888D01*
X12448753Y-13645888D02*
X12439229Y-13607793D01*
X12439229Y-13607793D02*
X12439229Y-13560174D01*
X12439229Y-13560174D02*
X12448753Y-13522079D01*
X12448753Y-13522079D02*
X12458277Y-13503031D01*
X12458277Y-13503031D02*
X12467801Y-13493508D01*
X12467801Y-13493508D02*
X12486848Y-13483984D01*
X12743991Y-13683984D02*
X12629706Y-13683984D01*
X12686848Y-13683984D02*
X12686848Y-13483984D01*
X12686848Y-13483984D02*
X12667801Y-13512555D01*
X12667801Y-13512555D02*
X12648753Y-13531603D01*
X12648753Y-13531603D02*
X12629706Y-13541127D01*
X12934467Y-13683984D02*
X12820182Y-13683984D01*
X12877325Y-13683984D02*
X12877325Y-13483984D01*
X12877325Y-13483984D02*
X12858277Y-13512555D01*
X12858277Y-13512555D02*
X12839229Y-13531603D01*
X12839229Y-13531603D02*
X12820182Y-13541127D01*
X13048753Y-13569698D02*
X13029706Y-13560174D01*
X13029706Y-13560174D02*
X13020182Y-13550650D01*
X13020182Y-13550650D02*
X13010658Y-13531603D01*
X13010658Y-13531603D02*
X13010658Y-13522079D01*
X13010658Y-13522079D02*
X13020182Y-13503031D01*
X13020182Y-13503031D02*
X13029706Y-13493508D01*
X13029706Y-13493508D02*
X13048753Y-13483984D01*
X13048753Y-13483984D02*
X13086848Y-13483984D01*
X13086848Y-13483984D02*
X13105896Y-13493508D01*
X13105896Y-13493508D02*
X13115420Y-13503031D01*
X13115420Y-13503031D02*
X13124944Y-13522079D01*
X13124944Y-13522079D02*
X13124944Y-13531603D01*
X13124944Y-13531603D02*
X13115420Y-13550650D01*
X13115420Y-13550650D02*
X13105896Y-13560174D01*
X13105896Y-13560174D02*
X13086848Y-13569698D01*
X13086848Y-13569698D02*
X13048753Y-13569698D01*
X13048753Y-13569698D02*
X13029706Y-13579222D01*
X13029706Y-13579222D02*
X13020182Y-13588746D01*
X13020182Y-13588746D02*
X13010658Y-13607793D01*
X13010658Y-13607793D02*
X13010658Y-13645888D01*
X13010658Y-13645888D02*
X13020182Y-13664936D01*
X13020182Y-13664936D02*
X13029706Y-13674460D01*
X13029706Y-13674460D02*
X13048753Y-13683984D01*
X13048753Y-13683984D02*
X13086848Y-13683984D01*
X13086848Y-13683984D02*
X13105896Y-13674460D01*
X13105896Y-13674460D02*
X13115420Y-13664936D01*
X13115420Y-13664936D02*
X13124944Y-13645888D01*
X13124944Y-13645888D02*
X13124944Y-13607793D01*
X13124944Y-13607793D02*
X13115420Y-13588746D01*
X13115420Y-13588746D02*
X13105896Y-13579222D01*
X13105896Y-13579222D02*
X13086848Y-13569698D01*
X13201134Y-13483984D02*
X13201134Y-13522079D01*
X13277325Y-13483984D02*
X13277325Y-13522079D01*
X13572563Y-13760174D02*
X13563039Y-13750650D01*
X13563039Y-13750650D02*
X13543991Y-13722079D01*
X13543991Y-13722079D02*
X13534468Y-13703031D01*
X13534468Y-13703031D02*
X13524944Y-13674460D01*
X13524944Y-13674460D02*
X13515420Y-13626841D01*
X13515420Y-13626841D02*
X13515420Y-13588746D01*
X13515420Y-13588746D02*
X13524944Y-13541127D01*
X13524944Y-13541127D02*
X13534468Y-13512555D01*
X13534468Y-13512555D02*
X13543991Y-13493508D01*
X13543991Y-13493508D02*
X13563039Y-13464936D01*
X13563039Y-13464936D02*
X13572563Y-13455412D01*
X13753515Y-13683984D02*
X13639229Y-13683984D01*
X13696372Y-13683984D02*
X13696372Y-13483984D01*
X13696372Y-13483984D02*
X13677325Y-13512555D01*
X13677325Y-13512555D02*
X13658277Y-13531603D01*
X13658277Y-13531603D02*
X13639229Y-13541127D01*
X13877325Y-13483984D02*
X13896372Y-13483984D01*
X13896372Y-13483984D02*
X13915420Y-13493508D01*
X13915420Y-13493508D02*
X13924944Y-13503031D01*
X13924944Y-13503031D02*
X13934468Y-13522079D01*
X13934468Y-13522079D02*
X13943991Y-13560174D01*
X13943991Y-13560174D02*
X13943991Y-13607793D01*
X13943991Y-13607793D02*
X13934468Y-13645888D01*
X13934468Y-13645888D02*
X13924944Y-13664936D01*
X13924944Y-13664936D02*
X13915420Y-13674460D01*
X13915420Y-13674460D02*
X13896372Y-13683984D01*
X13896372Y-13683984D02*
X13877325Y-13683984D01*
X13877325Y-13683984D02*
X13858277Y-13674460D01*
X13858277Y-13674460D02*
X13848753Y-13664936D01*
X13848753Y-13664936D02*
X13839229Y-13645888D01*
X13839229Y-13645888D02*
X13829706Y-13607793D01*
X13829706Y-13607793D02*
X13829706Y-13560174D01*
X13829706Y-13560174D02*
X13839229Y-13522079D01*
X13839229Y-13522079D02*
X13848753Y-13503031D01*
X13848753Y-13503031D02*
X13858277Y-13493508D01*
X13858277Y-13493508D02*
X13877325Y-13483984D01*
X14020182Y-13503031D02*
X14029706Y-13493508D01*
X14029706Y-13493508D02*
X14048753Y-13483984D01*
X14048753Y-13483984D02*
X14096372Y-13483984D01*
X14096372Y-13483984D02*
X14115420Y-13493508D01*
X14115420Y-13493508D02*
X14124944Y-13503031D01*
X14124944Y-13503031D02*
X14134468Y-13522079D01*
X14134468Y-13522079D02*
X14134468Y-13541127D01*
X14134468Y-13541127D02*
X14124944Y-13569698D01*
X14124944Y-13569698D02*
X14010658Y-13683984D01*
X14010658Y-13683984D02*
X14134468Y-13683984D01*
X14372563Y-13683984D02*
X14372563Y-13483984D01*
X14458277Y-13683984D02*
X14458277Y-13579222D01*
X14458277Y-13579222D02*
X14448753Y-13560174D01*
X14448753Y-13560174D02*
X14429706Y-13550650D01*
X14429706Y-13550650D02*
X14401134Y-13550650D01*
X14401134Y-13550650D02*
X14382087Y-13560174D01*
X14382087Y-13560174D02*
X14372563Y-13569698D01*
X14582087Y-13683984D02*
X14563039Y-13674460D01*
X14563039Y-13674460D02*
X14553515Y-13664936D01*
X14553515Y-13664936D02*
X14543991Y-13645888D01*
X14543991Y-13645888D02*
X14543991Y-13588746D01*
X14543991Y-13588746D02*
X14553515Y-13569698D01*
X14553515Y-13569698D02*
X14563039Y-13560174D01*
X14563039Y-13560174D02*
X14582087Y-13550650D01*
X14582087Y-13550650D02*
X14610658Y-13550650D01*
X14610658Y-13550650D02*
X14629706Y-13560174D01*
X14629706Y-13560174D02*
X14639230Y-13569698D01*
X14639230Y-13569698D02*
X14648753Y-13588746D01*
X14648753Y-13588746D02*
X14648753Y-13645888D01*
X14648753Y-13645888D02*
X14639230Y-13664936D01*
X14639230Y-13664936D02*
X14629706Y-13674460D01*
X14629706Y-13674460D02*
X14610658Y-13683984D01*
X14610658Y-13683984D02*
X14582087Y-13683984D01*
X14763039Y-13683984D02*
X14743991Y-13674460D01*
X14743991Y-13674460D02*
X14734468Y-13655412D01*
X14734468Y-13655412D02*
X14734468Y-13483984D01*
X14915420Y-13674460D02*
X14896372Y-13683984D01*
X14896372Y-13683984D02*
X14858277Y-13683984D01*
X14858277Y-13683984D02*
X14839230Y-13674460D01*
X14839230Y-13674460D02*
X14829706Y-13655412D01*
X14829706Y-13655412D02*
X14829706Y-13579222D01*
X14829706Y-13579222D02*
X14839230Y-13560174D01*
X14839230Y-13560174D02*
X14858277Y-13550650D01*
X14858277Y-13550650D02*
X14896372Y-13550650D01*
X14896372Y-13550650D02*
X14915420Y-13560174D01*
X14915420Y-13560174D02*
X14924944Y-13579222D01*
X14924944Y-13579222D02*
X14924944Y-13598269D01*
X14924944Y-13598269D02*
X14829706Y-13617317D01*
X15001134Y-13674460D02*
X15020182Y-13683984D01*
X15020182Y-13683984D02*
X15058277Y-13683984D01*
X15058277Y-13683984D02*
X15077325Y-13674460D01*
X15077325Y-13674460D02*
X15086849Y-13655412D01*
X15086849Y-13655412D02*
X15086849Y-13645888D01*
X15086849Y-13645888D02*
X15077325Y-13626841D01*
X15077325Y-13626841D02*
X15058277Y-13617317D01*
X15058277Y-13617317D02*
X15029706Y-13617317D01*
X15029706Y-13617317D02*
X15010658Y-13607793D01*
X15010658Y-13607793D02*
X15001134Y-13588746D01*
X15001134Y-13588746D02*
X15001134Y-13579222D01*
X15001134Y-13579222D02*
X15010658Y-13560174D01*
X15010658Y-13560174D02*
X15029706Y-13550650D01*
X15029706Y-13550650D02*
X15058277Y-13550650D01*
X15058277Y-13550650D02*
X15077325Y-13560174D01*
X15153515Y-13760174D02*
X15163039Y-13750650D01*
X15163039Y-13750650D02*
X15182087Y-13722079D01*
X15182087Y-13722079D02*
X15191611Y-13703031D01*
X15191611Y-13703031D02*
X15201134Y-13674460D01*
X15201134Y-13674460D02*
X15210658Y-13626841D01*
X15210658Y-13626841D02*
X15210658Y-13588746D01*
X15210658Y-13588746D02*
X15201134Y-13541127D01*
X15201134Y-13541127D02*
X15191611Y-13512555D01*
X15191611Y-13512555D02*
X15182087Y-13493508D01*
X15182087Y-13493508D02*
X15163039Y-13464936D01*
X15163039Y-13464936D02*
X15153515Y-13455412D01*
D12*
X9997500Y-13856500D02*
G75*
G02*
X9937500Y-13856500I-30000J0D01*
G01*
X9937500Y-13856500D02*
G75*
G02*
X9997500Y-13856500I30000J0D01*
G01*
D11*
X10296372Y-13747984D02*
X10315420Y-13747984D01*
X10315420Y-13747984D02*
X10334467Y-13757508D01*
X10334467Y-13757508D02*
X10343991Y-13767031D01*
X10343991Y-13767031D02*
X10353515Y-13786079D01*
X10353515Y-13786079D02*
X10363039Y-13824174D01*
X10363039Y-13824174D02*
X10363039Y-13871793D01*
X10363039Y-13871793D02*
X10353515Y-13909888D01*
X10353515Y-13909888D02*
X10343991Y-13928936D01*
X10343991Y-13928936D02*
X10334467Y-13938460D01*
X10334467Y-13938460D02*
X10315420Y-13947984D01*
X10315420Y-13947984D02*
X10296372Y-13947984D01*
X10296372Y-13947984D02*
X10277324Y-13938460D01*
X10277324Y-13938460D02*
X10267801Y-13928936D01*
X10267801Y-13928936D02*
X10258277Y-13909888D01*
X10258277Y-13909888D02*
X10248753Y-13871793D01*
X10248753Y-13871793D02*
X10248753Y-13824174D01*
X10248753Y-13824174D02*
X10258277Y-13786079D01*
X10258277Y-13786079D02*
X10267801Y-13767031D01*
X10267801Y-13767031D02*
X10277324Y-13757508D01*
X10277324Y-13757508D02*
X10296372Y-13747984D01*
X10448753Y-13928936D02*
X10458277Y-13938460D01*
X10458277Y-13938460D02*
X10448753Y-13947984D01*
X10448753Y-13947984D02*
X10439229Y-13938460D01*
X10439229Y-13938460D02*
X10448753Y-13928936D01*
X10448753Y-13928936D02*
X10448753Y-13947984D01*
X10629705Y-13747984D02*
X10591610Y-13747984D01*
X10591610Y-13747984D02*
X10572563Y-13757508D01*
X10572563Y-13757508D02*
X10563039Y-13767031D01*
X10563039Y-13767031D02*
X10543991Y-13795603D01*
X10543991Y-13795603D02*
X10534467Y-13833698D01*
X10534467Y-13833698D02*
X10534467Y-13909888D01*
X10534467Y-13909888D02*
X10543991Y-13928936D01*
X10543991Y-13928936D02*
X10553515Y-13938460D01*
X10553515Y-13938460D02*
X10572563Y-13947984D01*
X10572563Y-13947984D02*
X10610658Y-13947984D01*
X10610658Y-13947984D02*
X10629705Y-13938460D01*
X10629705Y-13938460D02*
X10639229Y-13928936D01*
X10639229Y-13928936D02*
X10648753Y-13909888D01*
X10648753Y-13909888D02*
X10648753Y-13862269D01*
X10648753Y-13862269D02*
X10639229Y-13843222D01*
X10639229Y-13843222D02*
X10629705Y-13833698D01*
X10629705Y-13833698D02*
X10610658Y-13824174D01*
X10610658Y-13824174D02*
X10572563Y-13824174D01*
X10572563Y-13824174D02*
X10553515Y-13833698D01*
X10553515Y-13833698D02*
X10543991Y-13843222D01*
X10543991Y-13843222D02*
X10534467Y-13862269D01*
X10772563Y-13747984D02*
X10791610Y-13747984D01*
X10791610Y-13747984D02*
X10810658Y-13757508D01*
X10810658Y-13757508D02*
X10820182Y-13767031D01*
X10820182Y-13767031D02*
X10829705Y-13786079D01*
X10829705Y-13786079D02*
X10839229Y-13824174D01*
X10839229Y-13824174D02*
X10839229Y-13871793D01*
X10839229Y-13871793D02*
X10829705Y-13909888D01*
X10829705Y-13909888D02*
X10820182Y-13928936D01*
X10820182Y-13928936D02*
X10810658Y-13938460D01*
X10810658Y-13938460D02*
X10791610Y-13947984D01*
X10791610Y-13947984D02*
X10772563Y-13947984D01*
X10772563Y-13947984D02*
X10753515Y-13938460D01*
X10753515Y-13938460D02*
X10743991Y-13928936D01*
X10743991Y-13928936D02*
X10734467Y-13909888D01*
X10734467Y-13909888D02*
X10724944Y-13871793D01*
X10724944Y-13871793D02*
X10724944Y-13824174D01*
X10724944Y-13824174D02*
X10734467Y-13786079D01*
X10734467Y-13786079D02*
X10743991Y-13767031D01*
X10743991Y-13767031D02*
X10753515Y-13757508D01*
X10753515Y-13757508D02*
X10772563Y-13747984D01*
X10963039Y-13747984D02*
X10982086Y-13747984D01*
X10982086Y-13747984D02*
X11001134Y-13757508D01*
X11001134Y-13757508D02*
X11010658Y-13767031D01*
X11010658Y-13767031D02*
X11020182Y-13786079D01*
X11020182Y-13786079D02*
X11029705Y-13824174D01*
X11029705Y-13824174D02*
X11029705Y-13871793D01*
X11029705Y-13871793D02*
X11020182Y-13909888D01*
X11020182Y-13909888D02*
X11010658Y-13928936D01*
X11010658Y-13928936D02*
X11001134Y-13938460D01*
X11001134Y-13938460D02*
X10982086Y-13947984D01*
X10982086Y-13947984D02*
X10963039Y-13947984D01*
X10963039Y-13947984D02*
X10943991Y-13938460D01*
X10943991Y-13938460D02*
X10934467Y-13928936D01*
X10934467Y-13928936D02*
X10924944Y-13909888D01*
X10924944Y-13909888D02*
X10915420Y-13871793D01*
X10915420Y-13871793D02*
X10915420Y-13824174D01*
X10915420Y-13824174D02*
X10924944Y-13786079D01*
X10924944Y-13786079D02*
X10934467Y-13767031D01*
X10934467Y-13767031D02*
X10943991Y-13757508D01*
X10943991Y-13757508D02*
X10963039Y-13747984D01*
X11115420Y-13947984D02*
X11115420Y-13814650D01*
X11115420Y-13833698D02*
X11124944Y-13824174D01*
X11124944Y-13824174D02*
X11143991Y-13814650D01*
X11143991Y-13814650D02*
X11172563Y-13814650D01*
X11172563Y-13814650D02*
X11191610Y-13824174D01*
X11191610Y-13824174D02*
X11201134Y-13843222D01*
X11201134Y-13843222D02*
X11201134Y-13947984D01*
X11201134Y-13843222D02*
X11210658Y-13824174D01*
X11210658Y-13824174D02*
X11229705Y-13814650D01*
X11229705Y-13814650D02*
X11258277Y-13814650D01*
X11258277Y-13814650D02*
X11277324Y-13824174D01*
X11277324Y-13824174D02*
X11286848Y-13843222D01*
X11286848Y-13843222D02*
X11286848Y-13947984D01*
X11382086Y-13947984D02*
X11382086Y-13814650D01*
X11382086Y-13833698D02*
X11391610Y-13824174D01*
X11391610Y-13824174D02*
X11410658Y-13814650D01*
X11410658Y-13814650D02*
X11439229Y-13814650D01*
X11439229Y-13814650D02*
X11458277Y-13824174D01*
X11458277Y-13824174D02*
X11467801Y-13843222D01*
X11467801Y-13843222D02*
X11467801Y-13947984D01*
X11467801Y-13843222D02*
X11477324Y-13824174D01*
X11477324Y-13824174D02*
X11496372Y-13814650D01*
X11496372Y-13814650D02*
X11524943Y-13814650D01*
X11524943Y-13814650D02*
X11543991Y-13824174D01*
X11543991Y-13824174D02*
X11553515Y-13843222D01*
X11553515Y-13843222D02*
X11553515Y-13947984D01*
X11943991Y-13738460D02*
X11772563Y-13995603D01*
X12201134Y-13747984D02*
X12220182Y-13747984D01*
X12220182Y-13747984D02*
X12239229Y-13757508D01*
X12239229Y-13757508D02*
X12248753Y-13767031D01*
X12248753Y-13767031D02*
X12258277Y-13786079D01*
X12258277Y-13786079D02*
X12267801Y-13824174D01*
X12267801Y-13824174D02*
X12267801Y-13871793D01*
X12267801Y-13871793D02*
X12258277Y-13909888D01*
X12258277Y-13909888D02*
X12248753Y-13928936D01*
X12248753Y-13928936D02*
X12239229Y-13938460D01*
X12239229Y-13938460D02*
X12220182Y-13947984D01*
X12220182Y-13947984D02*
X12201134Y-13947984D01*
X12201134Y-13947984D02*
X12182086Y-13938460D01*
X12182086Y-13938460D02*
X12172563Y-13928936D01*
X12172563Y-13928936D02*
X12163039Y-13909888D01*
X12163039Y-13909888D02*
X12153515Y-13871793D01*
X12153515Y-13871793D02*
X12153515Y-13824174D01*
X12153515Y-13824174D02*
X12163039Y-13786079D01*
X12163039Y-13786079D02*
X12172563Y-13767031D01*
X12172563Y-13767031D02*
X12182086Y-13757508D01*
X12182086Y-13757508D02*
X12201134Y-13747984D01*
X12353515Y-13928936D02*
X12363039Y-13938460D01*
X12363039Y-13938460D02*
X12353515Y-13947984D01*
X12353515Y-13947984D02*
X12343991Y-13938460D01*
X12343991Y-13938460D02*
X12353515Y-13928936D01*
X12353515Y-13928936D02*
X12353515Y-13947984D01*
X12486848Y-13747984D02*
X12505896Y-13747984D01*
X12505896Y-13747984D02*
X12524944Y-13757508D01*
X12524944Y-13757508D02*
X12534467Y-13767031D01*
X12534467Y-13767031D02*
X12543991Y-13786079D01*
X12543991Y-13786079D02*
X12553515Y-13824174D01*
X12553515Y-13824174D02*
X12553515Y-13871793D01*
X12553515Y-13871793D02*
X12543991Y-13909888D01*
X12543991Y-13909888D02*
X12534467Y-13928936D01*
X12534467Y-13928936D02*
X12524944Y-13938460D01*
X12524944Y-13938460D02*
X12505896Y-13947984D01*
X12505896Y-13947984D02*
X12486848Y-13947984D01*
X12486848Y-13947984D02*
X12467801Y-13938460D01*
X12467801Y-13938460D02*
X12458277Y-13928936D01*
X12458277Y-13928936D02*
X12448753Y-13909888D01*
X12448753Y-13909888D02*
X12439229Y-13871793D01*
X12439229Y-13871793D02*
X12439229Y-13824174D01*
X12439229Y-13824174D02*
X12448753Y-13786079D01*
X12448753Y-13786079D02*
X12458277Y-13767031D01*
X12458277Y-13767031D02*
X12467801Y-13757508D01*
X12467801Y-13757508D02*
X12486848Y-13747984D01*
X12629706Y-13767031D02*
X12639229Y-13757508D01*
X12639229Y-13757508D02*
X12658277Y-13747984D01*
X12658277Y-13747984D02*
X12705896Y-13747984D01*
X12705896Y-13747984D02*
X12724944Y-13757508D01*
X12724944Y-13757508D02*
X12734467Y-13767031D01*
X12734467Y-13767031D02*
X12743991Y-13786079D01*
X12743991Y-13786079D02*
X12743991Y-13805127D01*
X12743991Y-13805127D02*
X12734467Y-13833698D01*
X12734467Y-13833698D02*
X12620182Y-13947984D01*
X12620182Y-13947984D02*
X12743991Y-13947984D01*
X12810658Y-13747984D02*
X12934467Y-13747984D01*
X12934467Y-13747984D02*
X12867801Y-13824174D01*
X12867801Y-13824174D02*
X12896372Y-13824174D01*
X12896372Y-13824174D02*
X12915420Y-13833698D01*
X12915420Y-13833698D02*
X12924944Y-13843222D01*
X12924944Y-13843222D02*
X12934467Y-13862269D01*
X12934467Y-13862269D02*
X12934467Y-13909888D01*
X12934467Y-13909888D02*
X12924944Y-13928936D01*
X12924944Y-13928936D02*
X12915420Y-13938460D01*
X12915420Y-13938460D02*
X12896372Y-13947984D01*
X12896372Y-13947984D02*
X12839229Y-13947984D01*
X12839229Y-13947984D02*
X12820182Y-13938460D01*
X12820182Y-13938460D02*
X12810658Y-13928936D01*
X13105896Y-13747984D02*
X13067801Y-13747984D01*
X13067801Y-13747984D02*
X13048753Y-13757508D01*
X13048753Y-13757508D02*
X13039229Y-13767031D01*
X13039229Y-13767031D02*
X13020182Y-13795603D01*
X13020182Y-13795603D02*
X13010658Y-13833698D01*
X13010658Y-13833698D02*
X13010658Y-13909888D01*
X13010658Y-13909888D02*
X13020182Y-13928936D01*
X13020182Y-13928936D02*
X13029706Y-13938460D01*
X13029706Y-13938460D02*
X13048753Y-13947984D01*
X13048753Y-13947984D02*
X13086848Y-13947984D01*
X13086848Y-13947984D02*
X13105896Y-13938460D01*
X13105896Y-13938460D02*
X13115420Y-13928936D01*
X13115420Y-13928936D02*
X13124944Y-13909888D01*
X13124944Y-13909888D02*
X13124944Y-13862269D01*
X13124944Y-13862269D02*
X13115420Y-13843222D01*
X13115420Y-13843222D02*
X13105896Y-13833698D01*
X13105896Y-13833698D02*
X13086848Y-13824174D01*
X13086848Y-13824174D02*
X13048753Y-13824174D01*
X13048753Y-13824174D02*
X13029706Y-13833698D01*
X13029706Y-13833698D02*
X13020182Y-13843222D01*
X13020182Y-13843222D02*
X13010658Y-13862269D01*
X13201134Y-13747984D02*
X13201134Y-13786079D01*
X13277325Y-13747984D02*
X13277325Y-13786079D01*
X13572563Y-14024174D02*
X13563039Y-14014650D01*
X13563039Y-14014650D02*
X13543991Y-13986079D01*
X13543991Y-13986079D02*
X13534468Y-13967031D01*
X13534468Y-13967031D02*
X13524944Y-13938460D01*
X13524944Y-13938460D02*
X13515420Y-13890841D01*
X13515420Y-13890841D02*
X13515420Y-13852746D01*
X13515420Y-13852746D02*
X13524944Y-13805127D01*
X13524944Y-13805127D02*
X13534468Y-13776555D01*
X13534468Y-13776555D02*
X13543991Y-13757508D01*
X13543991Y-13757508D02*
X13563039Y-13728936D01*
X13563039Y-13728936D02*
X13572563Y-13719412D01*
X13686848Y-13747984D02*
X13705896Y-13747984D01*
X13705896Y-13747984D02*
X13724944Y-13757508D01*
X13724944Y-13757508D02*
X13734468Y-13767031D01*
X13734468Y-13767031D02*
X13743991Y-13786079D01*
X13743991Y-13786079D02*
X13753515Y-13824174D01*
X13753515Y-13824174D02*
X13753515Y-13871793D01*
X13753515Y-13871793D02*
X13743991Y-13909888D01*
X13743991Y-13909888D02*
X13734468Y-13928936D01*
X13734468Y-13928936D02*
X13724944Y-13938460D01*
X13724944Y-13938460D02*
X13705896Y-13947984D01*
X13705896Y-13947984D02*
X13686848Y-13947984D01*
X13686848Y-13947984D02*
X13667801Y-13938460D01*
X13667801Y-13938460D02*
X13658277Y-13928936D01*
X13658277Y-13928936D02*
X13648753Y-13909888D01*
X13648753Y-13909888D02*
X13639229Y-13871793D01*
X13639229Y-13871793D02*
X13639229Y-13824174D01*
X13639229Y-13824174D02*
X13648753Y-13786079D01*
X13648753Y-13786079D02*
X13658277Y-13767031D01*
X13658277Y-13767031D02*
X13667801Y-13757508D01*
X13667801Y-13757508D02*
X13686848Y-13747984D01*
X13991610Y-13947984D02*
X13991610Y-13747984D01*
X14077325Y-13947984D02*
X14077325Y-13843222D01*
X14077325Y-13843222D02*
X14067801Y-13824174D01*
X14067801Y-13824174D02*
X14048753Y-13814650D01*
X14048753Y-13814650D02*
X14020182Y-13814650D01*
X14020182Y-13814650D02*
X14001134Y-13824174D01*
X14001134Y-13824174D02*
X13991610Y-13833698D01*
X14201134Y-13947984D02*
X14182087Y-13938460D01*
X14182087Y-13938460D02*
X14172563Y-13928936D01*
X14172563Y-13928936D02*
X14163039Y-13909888D01*
X14163039Y-13909888D02*
X14163039Y-13852746D01*
X14163039Y-13852746D02*
X14172563Y-13833698D01*
X14172563Y-13833698D02*
X14182087Y-13824174D01*
X14182087Y-13824174D02*
X14201134Y-13814650D01*
X14201134Y-13814650D02*
X14229706Y-13814650D01*
X14229706Y-13814650D02*
X14248753Y-13824174D01*
X14248753Y-13824174D02*
X14258277Y-13833698D01*
X14258277Y-13833698D02*
X14267801Y-13852746D01*
X14267801Y-13852746D02*
X14267801Y-13909888D01*
X14267801Y-13909888D02*
X14258277Y-13928936D01*
X14258277Y-13928936D02*
X14248753Y-13938460D01*
X14248753Y-13938460D02*
X14229706Y-13947984D01*
X14229706Y-13947984D02*
X14201134Y-13947984D01*
X14382087Y-13947984D02*
X14363039Y-13938460D01*
X14363039Y-13938460D02*
X14353515Y-13919412D01*
X14353515Y-13919412D02*
X14353515Y-13747984D01*
X14534468Y-13938460D02*
X14515420Y-13947984D01*
X14515420Y-13947984D02*
X14477325Y-13947984D01*
X14477325Y-13947984D02*
X14458277Y-13938460D01*
X14458277Y-13938460D02*
X14448753Y-13919412D01*
X14448753Y-13919412D02*
X14448753Y-13843222D01*
X14448753Y-13843222D02*
X14458277Y-13824174D01*
X14458277Y-13824174D02*
X14477325Y-13814650D01*
X14477325Y-13814650D02*
X14515420Y-13814650D01*
X14515420Y-13814650D02*
X14534468Y-13824174D01*
X14534468Y-13824174D02*
X14543991Y-13843222D01*
X14543991Y-13843222D02*
X14543991Y-13862269D01*
X14543991Y-13862269D02*
X14448753Y-13881317D01*
X14620182Y-13938460D02*
X14639230Y-13947984D01*
X14639230Y-13947984D02*
X14677325Y-13947984D01*
X14677325Y-13947984D02*
X14696372Y-13938460D01*
X14696372Y-13938460D02*
X14705896Y-13919412D01*
X14705896Y-13919412D02*
X14705896Y-13909888D01*
X14705896Y-13909888D02*
X14696372Y-13890841D01*
X14696372Y-13890841D02*
X14677325Y-13881317D01*
X14677325Y-13881317D02*
X14648753Y-13881317D01*
X14648753Y-13881317D02*
X14629706Y-13871793D01*
X14629706Y-13871793D02*
X14620182Y-13852746D01*
X14620182Y-13852746D02*
X14620182Y-13843222D01*
X14620182Y-13843222D02*
X14629706Y-13824174D01*
X14629706Y-13824174D02*
X14648753Y-13814650D01*
X14648753Y-13814650D02*
X14677325Y-13814650D01*
X14677325Y-13814650D02*
X14696372Y-13824174D01*
X14943992Y-13871793D02*
X15096373Y-13871793D01*
X15020182Y-13947984D02*
X15020182Y-13795603D01*
X15429706Y-13814650D02*
X15429706Y-13947984D01*
X15382087Y-13738460D02*
X15334468Y-13881317D01*
X15334468Y-13881317D02*
X15458277Y-13881317D01*
X15677325Y-13938460D02*
X15696373Y-13947984D01*
X15696373Y-13947984D02*
X15734468Y-13947984D01*
X15734468Y-13947984D02*
X15753515Y-13938460D01*
X15753515Y-13938460D02*
X15763039Y-13919412D01*
X15763039Y-13919412D02*
X15763039Y-13909888D01*
X15763039Y-13909888D02*
X15753515Y-13890841D01*
X15753515Y-13890841D02*
X15734468Y-13881317D01*
X15734468Y-13881317D02*
X15705896Y-13881317D01*
X15705896Y-13881317D02*
X15686849Y-13871793D01*
X15686849Y-13871793D02*
X15677325Y-13852746D01*
X15677325Y-13852746D02*
X15677325Y-13843222D01*
X15677325Y-13843222D02*
X15686849Y-13824174D01*
X15686849Y-13824174D02*
X15705896Y-13814650D01*
X15705896Y-13814650D02*
X15734468Y-13814650D01*
X15734468Y-13814650D02*
X15753515Y-13824174D01*
X15877325Y-13947984D02*
X15858277Y-13938460D01*
X15858277Y-13938460D02*
X15848754Y-13919412D01*
X15848754Y-13919412D02*
X15848754Y-13747984D01*
X15982087Y-13947984D02*
X15963039Y-13938460D01*
X15963039Y-13938460D02*
X15953515Y-13928936D01*
X15953515Y-13928936D02*
X15943992Y-13909888D01*
X15943992Y-13909888D02*
X15943992Y-13852746D01*
X15943992Y-13852746D02*
X15953515Y-13833698D01*
X15953515Y-13833698D02*
X15963039Y-13824174D01*
X15963039Y-13824174D02*
X15982087Y-13814650D01*
X15982087Y-13814650D02*
X16010658Y-13814650D01*
X16010658Y-13814650D02*
X16029706Y-13824174D01*
X16029706Y-13824174D02*
X16039230Y-13833698D01*
X16039230Y-13833698D02*
X16048754Y-13852746D01*
X16048754Y-13852746D02*
X16048754Y-13909888D01*
X16048754Y-13909888D02*
X16039230Y-13928936D01*
X16039230Y-13928936D02*
X16029706Y-13938460D01*
X16029706Y-13938460D02*
X16010658Y-13947984D01*
X16010658Y-13947984D02*
X15982087Y-13947984D01*
X16105896Y-13814650D02*
X16182087Y-13814650D01*
X16134468Y-13747984D02*
X16134468Y-13919412D01*
X16134468Y-13919412D02*
X16143992Y-13938460D01*
X16143992Y-13938460D02*
X16163039Y-13947984D01*
X16163039Y-13947984D02*
X16182087Y-13947984D01*
X16239230Y-13938460D02*
X16258277Y-13947984D01*
X16258277Y-13947984D02*
X16296373Y-13947984D01*
X16296373Y-13947984D02*
X16315420Y-13938460D01*
X16315420Y-13938460D02*
X16324944Y-13919412D01*
X16324944Y-13919412D02*
X16324944Y-13909888D01*
X16324944Y-13909888D02*
X16315420Y-13890841D01*
X16315420Y-13890841D02*
X16296373Y-13881317D01*
X16296373Y-13881317D02*
X16267801Y-13881317D01*
X16267801Y-13881317D02*
X16248754Y-13871793D01*
X16248754Y-13871793D02*
X16239230Y-13852746D01*
X16239230Y-13852746D02*
X16239230Y-13843222D01*
X16239230Y-13843222D02*
X16248754Y-13824174D01*
X16248754Y-13824174D02*
X16267801Y-13814650D01*
X16267801Y-13814650D02*
X16296373Y-13814650D01*
X16296373Y-13814650D02*
X16315420Y-13824174D01*
X16391611Y-14024174D02*
X16401135Y-14014650D01*
X16401135Y-14014650D02*
X16420182Y-13986079D01*
X16420182Y-13986079D02*
X16429706Y-13967031D01*
X16429706Y-13967031D02*
X16439230Y-13938460D01*
X16439230Y-13938460D02*
X16448754Y-13890841D01*
X16448754Y-13890841D02*
X16448754Y-13852746D01*
X16448754Y-13852746D02*
X16439230Y-13805127D01*
X16439230Y-13805127D02*
X16429706Y-13776555D01*
X16429706Y-13776555D02*
X16420182Y-13757508D01*
X16420182Y-13757508D02*
X16401135Y-13728936D01*
X16401135Y-13728936D02*
X16391611Y-13719412D01*
D12*
X9947500Y-14070500D02*
X9947500Y-14170500D01*
X9897500Y-14120500D02*
X9997500Y-14120500D01*
D11*
X10363039Y-14211984D02*
X10248753Y-14211984D01*
X10305896Y-14211984D02*
X10305896Y-14011984D01*
X10305896Y-14011984D02*
X10286848Y-14040555D01*
X10286848Y-14040555D02*
X10267801Y-14059603D01*
X10267801Y-14059603D02*
X10248753Y-14069127D01*
X10448753Y-14192936D02*
X10458277Y-14202460D01*
X10458277Y-14202460D02*
X10448753Y-14211984D01*
X10448753Y-14211984D02*
X10439229Y-14202460D01*
X10439229Y-14202460D02*
X10448753Y-14192936D01*
X10448753Y-14192936D02*
X10448753Y-14211984D01*
X10582086Y-14011984D02*
X10601134Y-14011984D01*
X10601134Y-14011984D02*
X10620182Y-14021508D01*
X10620182Y-14021508D02*
X10629705Y-14031031D01*
X10629705Y-14031031D02*
X10639229Y-14050079D01*
X10639229Y-14050079D02*
X10648753Y-14088174D01*
X10648753Y-14088174D02*
X10648753Y-14135793D01*
X10648753Y-14135793D02*
X10639229Y-14173888D01*
X10639229Y-14173888D02*
X10629705Y-14192936D01*
X10629705Y-14192936D02*
X10620182Y-14202460D01*
X10620182Y-14202460D02*
X10601134Y-14211984D01*
X10601134Y-14211984D02*
X10582086Y-14211984D01*
X10582086Y-14211984D02*
X10563039Y-14202460D01*
X10563039Y-14202460D02*
X10553515Y-14192936D01*
X10553515Y-14192936D02*
X10543991Y-14173888D01*
X10543991Y-14173888D02*
X10534467Y-14135793D01*
X10534467Y-14135793D02*
X10534467Y-14088174D01*
X10534467Y-14088174D02*
X10543991Y-14050079D01*
X10543991Y-14050079D02*
X10553515Y-14031031D01*
X10553515Y-14031031D02*
X10563039Y-14021508D01*
X10563039Y-14021508D02*
X10582086Y-14011984D01*
X10772563Y-14011984D02*
X10791610Y-14011984D01*
X10791610Y-14011984D02*
X10810658Y-14021508D01*
X10810658Y-14021508D02*
X10820182Y-14031031D01*
X10820182Y-14031031D02*
X10829705Y-14050079D01*
X10829705Y-14050079D02*
X10839229Y-14088174D01*
X10839229Y-14088174D02*
X10839229Y-14135793D01*
X10839229Y-14135793D02*
X10829705Y-14173888D01*
X10829705Y-14173888D02*
X10820182Y-14192936D01*
X10820182Y-14192936D02*
X10810658Y-14202460D01*
X10810658Y-14202460D02*
X10791610Y-14211984D01*
X10791610Y-14211984D02*
X10772563Y-14211984D01*
X10772563Y-14211984D02*
X10753515Y-14202460D01*
X10753515Y-14202460D02*
X10743991Y-14192936D01*
X10743991Y-14192936D02*
X10734467Y-14173888D01*
X10734467Y-14173888D02*
X10724944Y-14135793D01*
X10724944Y-14135793D02*
X10724944Y-14088174D01*
X10724944Y-14088174D02*
X10734467Y-14050079D01*
X10734467Y-14050079D02*
X10743991Y-14031031D01*
X10743991Y-14031031D02*
X10753515Y-14021508D01*
X10753515Y-14021508D02*
X10772563Y-14011984D01*
X10963039Y-14011984D02*
X10982086Y-14011984D01*
X10982086Y-14011984D02*
X11001134Y-14021508D01*
X11001134Y-14021508D02*
X11010658Y-14031031D01*
X11010658Y-14031031D02*
X11020182Y-14050079D01*
X11020182Y-14050079D02*
X11029705Y-14088174D01*
X11029705Y-14088174D02*
X11029705Y-14135793D01*
X11029705Y-14135793D02*
X11020182Y-14173888D01*
X11020182Y-14173888D02*
X11010658Y-14192936D01*
X11010658Y-14192936D02*
X11001134Y-14202460D01*
X11001134Y-14202460D02*
X10982086Y-14211984D01*
X10982086Y-14211984D02*
X10963039Y-14211984D01*
X10963039Y-14211984D02*
X10943991Y-14202460D01*
X10943991Y-14202460D02*
X10934467Y-14192936D01*
X10934467Y-14192936D02*
X10924944Y-14173888D01*
X10924944Y-14173888D02*
X10915420Y-14135793D01*
X10915420Y-14135793D02*
X10915420Y-14088174D01*
X10915420Y-14088174D02*
X10924944Y-14050079D01*
X10924944Y-14050079D02*
X10934467Y-14031031D01*
X10934467Y-14031031D02*
X10943991Y-14021508D01*
X10943991Y-14021508D02*
X10963039Y-14011984D01*
X11115420Y-14211984D02*
X11115420Y-14078650D01*
X11115420Y-14097698D02*
X11124944Y-14088174D01*
X11124944Y-14088174D02*
X11143991Y-14078650D01*
X11143991Y-14078650D02*
X11172563Y-14078650D01*
X11172563Y-14078650D02*
X11191610Y-14088174D01*
X11191610Y-14088174D02*
X11201134Y-14107222D01*
X11201134Y-14107222D02*
X11201134Y-14211984D01*
X11201134Y-14107222D02*
X11210658Y-14088174D01*
X11210658Y-14088174D02*
X11229705Y-14078650D01*
X11229705Y-14078650D02*
X11258277Y-14078650D01*
X11258277Y-14078650D02*
X11277324Y-14088174D01*
X11277324Y-14088174D02*
X11286848Y-14107222D01*
X11286848Y-14107222D02*
X11286848Y-14211984D01*
X11382086Y-14211984D02*
X11382086Y-14078650D01*
X11382086Y-14097698D02*
X11391610Y-14088174D01*
X11391610Y-14088174D02*
X11410658Y-14078650D01*
X11410658Y-14078650D02*
X11439229Y-14078650D01*
X11439229Y-14078650D02*
X11458277Y-14088174D01*
X11458277Y-14088174D02*
X11467801Y-14107222D01*
X11467801Y-14107222D02*
X11467801Y-14211984D01*
X11467801Y-14107222D02*
X11477324Y-14088174D01*
X11477324Y-14088174D02*
X11496372Y-14078650D01*
X11496372Y-14078650D02*
X11524943Y-14078650D01*
X11524943Y-14078650D02*
X11543991Y-14088174D01*
X11543991Y-14088174D02*
X11553515Y-14107222D01*
X11553515Y-14107222D02*
X11553515Y-14211984D01*
X11943991Y-14002460D02*
X11772563Y-14259603D01*
X12201134Y-14011984D02*
X12220182Y-14011984D01*
X12220182Y-14011984D02*
X12239229Y-14021508D01*
X12239229Y-14021508D02*
X12248753Y-14031031D01*
X12248753Y-14031031D02*
X12258277Y-14050079D01*
X12258277Y-14050079D02*
X12267801Y-14088174D01*
X12267801Y-14088174D02*
X12267801Y-14135793D01*
X12267801Y-14135793D02*
X12258277Y-14173888D01*
X12258277Y-14173888D02*
X12248753Y-14192936D01*
X12248753Y-14192936D02*
X12239229Y-14202460D01*
X12239229Y-14202460D02*
X12220182Y-14211984D01*
X12220182Y-14211984D02*
X12201134Y-14211984D01*
X12201134Y-14211984D02*
X12182086Y-14202460D01*
X12182086Y-14202460D02*
X12172563Y-14192936D01*
X12172563Y-14192936D02*
X12163039Y-14173888D01*
X12163039Y-14173888D02*
X12153515Y-14135793D01*
X12153515Y-14135793D02*
X12153515Y-14088174D01*
X12153515Y-14088174D02*
X12163039Y-14050079D01*
X12163039Y-14050079D02*
X12172563Y-14031031D01*
X12172563Y-14031031D02*
X12182086Y-14021508D01*
X12182086Y-14021508D02*
X12201134Y-14011984D01*
X12353515Y-14192936D02*
X12363039Y-14202460D01*
X12363039Y-14202460D02*
X12353515Y-14211984D01*
X12353515Y-14211984D02*
X12343991Y-14202460D01*
X12343991Y-14202460D02*
X12353515Y-14192936D01*
X12353515Y-14192936D02*
X12353515Y-14211984D01*
X12486848Y-14011984D02*
X12505896Y-14011984D01*
X12505896Y-14011984D02*
X12524944Y-14021508D01*
X12524944Y-14021508D02*
X12534467Y-14031031D01*
X12534467Y-14031031D02*
X12543991Y-14050079D01*
X12543991Y-14050079D02*
X12553515Y-14088174D01*
X12553515Y-14088174D02*
X12553515Y-14135793D01*
X12553515Y-14135793D02*
X12543991Y-14173888D01*
X12543991Y-14173888D02*
X12534467Y-14192936D01*
X12534467Y-14192936D02*
X12524944Y-14202460D01*
X12524944Y-14202460D02*
X12505896Y-14211984D01*
X12505896Y-14211984D02*
X12486848Y-14211984D01*
X12486848Y-14211984D02*
X12467801Y-14202460D01*
X12467801Y-14202460D02*
X12458277Y-14192936D01*
X12458277Y-14192936D02*
X12448753Y-14173888D01*
X12448753Y-14173888D02*
X12439229Y-14135793D01*
X12439229Y-14135793D02*
X12439229Y-14088174D01*
X12439229Y-14088174D02*
X12448753Y-14050079D01*
X12448753Y-14050079D02*
X12458277Y-14031031D01*
X12458277Y-14031031D02*
X12467801Y-14021508D01*
X12467801Y-14021508D02*
X12486848Y-14011984D01*
X12620182Y-14011984D02*
X12743991Y-14011984D01*
X12743991Y-14011984D02*
X12677325Y-14088174D01*
X12677325Y-14088174D02*
X12705896Y-14088174D01*
X12705896Y-14088174D02*
X12724944Y-14097698D01*
X12724944Y-14097698D02*
X12734467Y-14107222D01*
X12734467Y-14107222D02*
X12743991Y-14126269D01*
X12743991Y-14126269D02*
X12743991Y-14173888D01*
X12743991Y-14173888D02*
X12734467Y-14192936D01*
X12734467Y-14192936D02*
X12724944Y-14202460D01*
X12724944Y-14202460D02*
X12705896Y-14211984D01*
X12705896Y-14211984D02*
X12648753Y-14211984D01*
X12648753Y-14211984D02*
X12629706Y-14202460D01*
X12629706Y-14202460D02*
X12620182Y-14192936D01*
X12839229Y-14211984D02*
X12877325Y-14211984D01*
X12877325Y-14211984D02*
X12896372Y-14202460D01*
X12896372Y-14202460D02*
X12905896Y-14192936D01*
X12905896Y-14192936D02*
X12924944Y-14164365D01*
X12924944Y-14164365D02*
X12934467Y-14126269D01*
X12934467Y-14126269D02*
X12934467Y-14050079D01*
X12934467Y-14050079D02*
X12924944Y-14031031D01*
X12924944Y-14031031D02*
X12915420Y-14021508D01*
X12915420Y-14021508D02*
X12896372Y-14011984D01*
X12896372Y-14011984D02*
X12858277Y-14011984D01*
X12858277Y-14011984D02*
X12839229Y-14021508D01*
X12839229Y-14021508D02*
X12829706Y-14031031D01*
X12829706Y-14031031D02*
X12820182Y-14050079D01*
X12820182Y-14050079D02*
X12820182Y-14097698D01*
X12820182Y-14097698D02*
X12829706Y-14116746D01*
X12829706Y-14116746D02*
X12839229Y-14126269D01*
X12839229Y-14126269D02*
X12858277Y-14135793D01*
X12858277Y-14135793D02*
X12896372Y-14135793D01*
X12896372Y-14135793D02*
X12915420Y-14126269D01*
X12915420Y-14126269D02*
X12924944Y-14116746D01*
X12924944Y-14116746D02*
X12934467Y-14097698D01*
X13105896Y-14078650D02*
X13105896Y-14211984D01*
X13058277Y-14002460D02*
X13010658Y-14145317D01*
X13010658Y-14145317D02*
X13134467Y-14145317D01*
X13201134Y-14011984D02*
X13201134Y-14050079D01*
X13277325Y-14011984D02*
X13277325Y-14050079D01*
X13572563Y-14288174D02*
X13563039Y-14278650D01*
X13563039Y-14278650D02*
X13543991Y-14250079D01*
X13543991Y-14250079D02*
X13534468Y-14231031D01*
X13534468Y-14231031D02*
X13524944Y-14202460D01*
X13524944Y-14202460D02*
X13515420Y-14154841D01*
X13515420Y-14154841D02*
X13515420Y-14116746D01*
X13515420Y-14116746D02*
X13524944Y-14069127D01*
X13524944Y-14069127D02*
X13534468Y-14040555D01*
X13534468Y-14040555D02*
X13543991Y-14021508D01*
X13543991Y-14021508D02*
X13563039Y-13992936D01*
X13563039Y-13992936D02*
X13572563Y-13983412D01*
X13753515Y-14211984D02*
X13639229Y-14211984D01*
X13696372Y-14211984D02*
X13696372Y-14011984D01*
X13696372Y-14011984D02*
X13677325Y-14040555D01*
X13677325Y-14040555D02*
X13658277Y-14059603D01*
X13658277Y-14059603D02*
X13639229Y-14069127D01*
X13848753Y-14211984D02*
X13886848Y-14211984D01*
X13886848Y-14211984D02*
X13905896Y-14202460D01*
X13905896Y-14202460D02*
X13915420Y-14192936D01*
X13915420Y-14192936D02*
X13934468Y-14164365D01*
X13934468Y-14164365D02*
X13943991Y-14126269D01*
X13943991Y-14126269D02*
X13943991Y-14050079D01*
X13943991Y-14050079D02*
X13934468Y-14031031D01*
X13934468Y-14031031D02*
X13924944Y-14021508D01*
X13924944Y-14021508D02*
X13905896Y-14011984D01*
X13905896Y-14011984D02*
X13867801Y-14011984D01*
X13867801Y-14011984D02*
X13848753Y-14021508D01*
X13848753Y-14021508D02*
X13839229Y-14031031D01*
X13839229Y-14031031D02*
X13829706Y-14050079D01*
X13829706Y-14050079D02*
X13829706Y-14097698D01*
X13829706Y-14097698D02*
X13839229Y-14116746D01*
X13839229Y-14116746D02*
X13848753Y-14126269D01*
X13848753Y-14126269D02*
X13867801Y-14135793D01*
X13867801Y-14135793D02*
X13905896Y-14135793D01*
X13905896Y-14135793D02*
X13924944Y-14126269D01*
X13924944Y-14126269D02*
X13934468Y-14116746D01*
X13934468Y-14116746D02*
X13943991Y-14097698D01*
X14182087Y-14211984D02*
X14182087Y-14011984D01*
X14267801Y-14211984D02*
X14267801Y-14107222D01*
X14267801Y-14107222D02*
X14258277Y-14088174D01*
X14258277Y-14088174D02*
X14239230Y-14078650D01*
X14239230Y-14078650D02*
X14210658Y-14078650D01*
X14210658Y-14078650D02*
X14191610Y-14088174D01*
X14191610Y-14088174D02*
X14182087Y-14097698D01*
X14391610Y-14211984D02*
X14372563Y-14202460D01*
X14372563Y-14202460D02*
X14363039Y-14192936D01*
X14363039Y-14192936D02*
X14353515Y-14173888D01*
X14353515Y-14173888D02*
X14353515Y-14116746D01*
X14353515Y-14116746D02*
X14363039Y-14097698D01*
X14363039Y-14097698D02*
X14372563Y-14088174D01*
X14372563Y-14088174D02*
X14391610Y-14078650D01*
X14391610Y-14078650D02*
X14420182Y-14078650D01*
X14420182Y-14078650D02*
X14439230Y-14088174D01*
X14439230Y-14088174D02*
X14448753Y-14097698D01*
X14448753Y-14097698D02*
X14458277Y-14116746D01*
X14458277Y-14116746D02*
X14458277Y-14173888D01*
X14458277Y-14173888D02*
X14448753Y-14192936D01*
X14448753Y-14192936D02*
X14439230Y-14202460D01*
X14439230Y-14202460D02*
X14420182Y-14211984D01*
X14420182Y-14211984D02*
X14391610Y-14211984D01*
X14572563Y-14211984D02*
X14553515Y-14202460D01*
X14553515Y-14202460D02*
X14543991Y-14183412D01*
X14543991Y-14183412D02*
X14543991Y-14011984D01*
X14724944Y-14202460D02*
X14705896Y-14211984D01*
X14705896Y-14211984D02*
X14667801Y-14211984D01*
X14667801Y-14211984D02*
X14648753Y-14202460D01*
X14648753Y-14202460D02*
X14639230Y-14183412D01*
X14639230Y-14183412D02*
X14639230Y-14107222D01*
X14639230Y-14107222D02*
X14648753Y-14088174D01*
X14648753Y-14088174D02*
X14667801Y-14078650D01*
X14667801Y-14078650D02*
X14705896Y-14078650D01*
X14705896Y-14078650D02*
X14724944Y-14088174D01*
X14724944Y-14088174D02*
X14734468Y-14107222D01*
X14734468Y-14107222D02*
X14734468Y-14126269D01*
X14734468Y-14126269D02*
X14639230Y-14145317D01*
X14810658Y-14202460D02*
X14829706Y-14211984D01*
X14829706Y-14211984D02*
X14867801Y-14211984D01*
X14867801Y-14211984D02*
X14886849Y-14202460D01*
X14886849Y-14202460D02*
X14896372Y-14183412D01*
X14896372Y-14183412D02*
X14896372Y-14173888D01*
X14896372Y-14173888D02*
X14886849Y-14154841D01*
X14886849Y-14154841D02*
X14867801Y-14145317D01*
X14867801Y-14145317D02*
X14839230Y-14145317D01*
X14839230Y-14145317D02*
X14820182Y-14135793D01*
X14820182Y-14135793D02*
X14810658Y-14116746D01*
X14810658Y-14116746D02*
X14810658Y-14107222D01*
X14810658Y-14107222D02*
X14820182Y-14088174D01*
X14820182Y-14088174D02*
X14839230Y-14078650D01*
X14839230Y-14078650D02*
X14867801Y-14078650D01*
X14867801Y-14078650D02*
X14886849Y-14088174D01*
X14963039Y-14288174D02*
X14972563Y-14278650D01*
X14972563Y-14278650D02*
X14991611Y-14250079D01*
X14991611Y-14250079D02*
X15001134Y-14231031D01*
X15001134Y-14231031D02*
X15010658Y-14202460D01*
X15010658Y-14202460D02*
X15020182Y-14154841D01*
X15020182Y-14154841D02*
X15020182Y-14116746D01*
X15020182Y-14116746D02*
X15010658Y-14069127D01*
X15010658Y-14069127D02*
X15001134Y-14040555D01*
X15001134Y-14040555D02*
X14991611Y-14021508D01*
X14991611Y-14021508D02*
X14972563Y-13992936D01*
X14972563Y-13992936D02*
X14963039Y-13983412D01*
D13*
X9979927Y-14426927D02*
X9979927Y-14342073D01*
X9895073Y-14342073D01*
X9895073Y-14426927D01*
X9979927Y-14426927D01*
D11*
X10363039Y-14475984D02*
X10248753Y-14475984D01*
X10305896Y-14475984D02*
X10305896Y-14275984D01*
X10305896Y-14275984D02*
X10286848Y-14304555D01*
X10286848Y-14304555D02*
X10267801Y-14323603D01*
X10267801Y-14323603D02*
X10248753Y-14333127D01*
X10448753Y-14456936D02*
X10458277Y-14466460D01*
X10458277Y-14466460D02*
X10448753Y-14475984D01*
X10448753Y-14475984D02*
X10439229Y-14466460D01*
X10439229Y-14466460D02*
X10448753Y-14456936D01*
X10448753Y-14456936D02*
X10448753Y-14475984D01*
X10534467Y-14295031D02*
X10543991Y-14285508D01*
X10543991Y-14285508D02*
X10563039Y-14275984D01*
X10563039Y-14275984D02*
X10610658Y-14275984D01*
X10610658Y-14275984D02*
X10629705Y-14285508D01*
X10629705Y-14285508D02*
X10639229Y-14295031D01*
X10639229Y-14295031D02*
X10648753Y-14314079D01*
X10648753Y-14314079D02*
X10648753Y-14333127D01*
X10648753Y-14333127D02*
X10639229Y-14361698D01*
X10639229Y-14361698D02*
X10524944Y-14475984D01*
X10524944Y-14475984D02*
X10648753Y-14475984D01*
X10772563Y-14275984D02*
X10791610Y-14275984D01*
X10791610Y-14275984D02*
X10810658Y-14285508D01*
X10810658Y-14285508D02*
X10820182Y-14295031D01*
X10820182Y-14295031D02*
X10829705Y-14314079D01*
X10829705Y-14314079D02*
X10839229Y-14352174D01*
X10839229Y-14352174D02*
X10839229Y-14399793D01*
X10839229Y-14399793D02*
X10829705Y-14437888D01*
X10829705Y-14437888D02*
X10820182Y-14456936D01*
X10820182Y-14456936D02*
X10810658Y-14466460D01*
X10810658Y-14466460D02*
X10791610Y-14475984D01*
X10791610Y-14475984D02*
X10772563Y-14475984D01*
X10772563Y-14475984D02*
X10753515Y-14466460D01*
X10753515Y-14466460D02*
X10743991Y-14456936D01*
X10743991Y-14456936D02*
X10734467Y-14437888D01*
X10734467Y-14437888D02*
X10724944Y-14399793D01*
X10724944Y-14399793D02*
X10724944Y-14352174D01*
X10724944Y-14352174D02*
X10734467Y-14314079D01*
X10734467Y-14314079D02*
X10743991Y-14295031D01*
X10743991Y-14295031D02*
X10753515Y-14285508D01*
X10753515Y-14285508D02*
X10772563Y-14275984D01*
X10963039Y-14275984D02*
X10982086Y-14275984D01*
X10982086Y-14275984D02*
X11001134Y-14285508D01*
X11001134Y-14285508D02*
X11010658Y-14295031D01*
X11010658Y-14295031D02*
X11020182Y-14314079D01*
X11020182Y-14314079D02*
X11029705Y-14352174D01*
X11029705Y-14352174D02*
X11029705Y-14399793D01*
X11029705Y-14399793D02*
X11020182Y-14437888D01*
X11020182Y-14437888D02*
X11010658Y-14456936D01*
X11010658Y-14456936D02*
X11001134Y-14466460D01*
X11001134Y-14466460D02*
X10982086Y-14475984D01*
X10982086Y-14475984D02*
X10963039Y-14475984D01*
X10963039Y-14475984D02*
X10943991Y-14466460D01*
X10943991Y-14466460D02*
X10934467Y-14456936D01*
X10934467Y-14456936D02*
X10924944Y-14437888D01*
X10924944Y-14437888D02*
X10915420Y-14399793D01*
X10915420Y-14399793D02*
X10915420Y-14352174D01*
X10915420Y-14352174D02*
X10924944Y-14314079D01*
X10924944Y-14314079D02*
X10934467Y-14295031D01*
X10934467Y-14295031D02*
X10943991Y-14285508D01*
X10943991Y-14285508D02*
X10963039Y-14275984D01*
X11115420Y-14475984D02*
X11115420Y-14342650D01*
X11115420Y-14361698D02*
X11124944Y-14352174D01*
X11124944Y-14352174D02*
X11143991Y-14342650D01*
X11143991Y-14342650D02*
X11172563Y-14342650D01*
X11172563Y-14342650D02*
X11191610Y-14352174D01*
X11191610Y-14352174D02*
X11201134Y-14371222D01*
X11201134Y-14371222D02*
X11201134Y-14475984D01*
X11201134Y-14371222D02*
X11210658Y-14352174D01*
X11210658Y-14352174D02*
X11229705Y-14342650D01*
X11229705Y-14342650D02*
X11258277Y-14342650D01*
X11258277Y-14342650D02*
X11277324Y-14352174D01*
X11277324Y-14352174D02*
X11286848Y-14371222D01*
X11286848Y-14371222D02*
X11286848Y-14475984D01*
X11382086Y-14475984D02*
X11382086Y-14342650D01*
X11382086Y-14361698D02*
X11391610Y-14352174D01*
X11391610Y-14352174D02*
X11410658Y-14342650D01*
X11410658Y-14342650D02*
X11439229Y-14342650D01*
X11439229Y-14342650D02*
X11458277Y-14352174D01*
X11458277Y-14352174D02*
X11467801Y-14371222D01*
X11467801Y-14371222D02*
X11467801Y-14475984D01*
X11467801Y-14371222D02*
X11477324Y-14352174D01*
X11477324Y-14352174D02*
X11496372Y-14342650D01*
X11496372Y-14342650D02*
X11524943Y-14342650D01*
X11524943Y-14342650D02*
X11543991Y-14352174D01*
X11543991Y-14352174D02*
X11553515Y-14371222D01*
X11553515Y-14371222D02*
X11553515Y-14475984D01*
X11943991Y-14266460D02*
X11772563Y-14523603D01*
X12201134Y-14275984D02*
X12220182Y-14275984D01*
X12220182Y-14275984D02*
X12239229Y-14285508D01*
X12239229Y-14285508D02*
X12248753Y-14295031D01*
X12248753Y-14295031D02*
X12258277Y-14314079D01*
X12258277Y-14314079D02*
X12267801Y-14352174D01*
X12267801Y-14352174D02*
X12267801Y-14399793D01*
X12267801Y-14399793D02*
X12258277Y-14437888D01*
X12258277Y-14437888D02*
X12248753Y-14456936D01*
X12248753Y-14456936D02*
X12239229Y-14466460D01*
X12239229Y-14466460D02*
X12220182Y-14475984D01*
X12220182Y-14475984D02*
X12201134Y-14475984D01*
X12201134Y-14475984D02*
X12182086Y-14466460D01*
X12182086Y-14466460D02*
X12172563Y-14456936D01*
X12172563Y-14456936D02*
X12163039Y-14437888D01*
X12163039Y-14437888D02*
X12153515Y-14399793D01*
X12153515Y-14399793D02*
X12153515Y-14352174D01*
X12153515Y-14352174D02*
X12163039Y-14314079D01*
X12163039Y-14314079D02*
X12172563Y-14295031D01*
X12172563Y-14295031D02*
X12182086Y-14285508D01*
X12182086Y-14285508D02*
X12201134Y-14275984D01*
X12353515Y-14456936D02*
X12363039Y-14466460D01*
X12363039Y-14466460D02*
X12353515Y-14475984D01*
X12353515Y-14475984D02*
X12343991Y-14466460D01*
X12343991Y-14466460D02*
X12353515Y-14456936D01*
X12353515Y-14456936D02*
X12353515Y-14475984D01*
X12486848Y-14275984D02*
X12505896Y-14275984D01*
X12505896Y-14275984D02*
X12524944Y-14285508D01*
X12524944Y-14285508D02*
X12534467Y-14295031D01*
X12534467Y-14295031D02*
X12543991Y-14314079D01*
X12543991Y-14314079D02*
X12553515Y-14352174D01*
X12553515Y-14352174D02*
X12553515Y-14399793D01*
X12553515Y-14399793D02*
X12543991Y-14437888D01*
X12543991Y-14437888D02*
X12534467Y-14456936D01*
X12534467Y-14456936D02*
X12524944Y-14466460D01*
X12524944Y-14466460D02*
X12505896Y-14475984D01*
X12505896Y-14475984D02*
X12486848Y-14475984D01*
X12486848Y-14475984D02*
X12467801Y-14466460D01*
X12467801Y-14466460D02*
X12458277Y-14456936D01*
X12458277Y-14456936D02*
X12448753Y-14437888D01*
X12448753Y-14437888D02*
X12439229Y-14399793D01*
X12439229Y-14399793D02*
X12439229Y-14352174D01*
X12439229Y-14352174D02*
X12448753Y-14314079D01*
X12448753Y-14314079D02*
X12458277Y-14295031D01*
X12458277Y-14295031D02*
X12467801Y-14285508D01*
X12467801Y-14285508D02*
X12486848Y-14275984D01*
X12724944Y-14342650D02*
X12724944Y-14475984D01*
X12677325Y-14266460D02*
X12629706Y-14409317D01*
X12629706Y-14409317D02*
X12753515Y-14409317D01*
X12810658Y-14275984D02*
X12943991Y-14275984D01*
X12943991Y-14275984D02*
X12858277Y-14475984D01*
X13010658Y-14295031D02*
X13020182Y-14285508D01*
X13020182Y-14285508D02*
X13039229Y-14275984D01*
X13039229Y-14275984D02*
X13086848Y-14275984D01*
X13086848Y-14275984D02*
X13105896Y-14285508D01*
X13105896Y-14285508D02*
X13115420Y-14295031D01*
X13115420Y-14295031D02*
X13124944Y-14314079D01*
X13124944Y-14314079D02*
X13124944Y-14333127D01*
X13124944Y-14333127D02*
X13115420Y-14361698D01*
X13115420Y-14361698D02*
X13001134Y-14475984D01*
X13001134Y-14475984D02*
X13124944Y-14475984D01*
X13201134Y-14275984D02*
X13201134Y-14314079D01*
X13277325Y-14275984D02*
X13277325Y-14314079D01*
X13572563Y-14552174D02*
X13563039Y-14542650D01*
X13563039Y-14542650D02*
X13543991Y-14514079D01*
X13543991Y-14514079D02*
X13534468Y-14495031D01*
X13534468Y-14495031D02*
X13524944Y-14466460D01*
X13524944Y-14466460D02*
X13515420Y-14418841D01*
X13515420Y-14418841D02*
X13515420Y-14380746D01*
X13515420Y-14380746D02*
X13524944Y-14333127D01*
X13524944Y-14333127D02*
X13534468Y-14304555D01*
X13534468Y-14304555D02*
X13543991Y-14285508D01*
X13543991Y-14285508D02*
X13563039Y-14256936D01*
X13563039Y-14256936D02*
X13572563Y-14247412D01*
X13753515Y-14475984D02*
X13639229Y-14475984D01*
X13696372Y-14475984D02*
X13696372Y-14275984D01*
X13696372Y-14275984D02*
X13677325Y-14304555D01*
X13677325Y-14304555D02*
X13658277Y-14323603D01*
X13658277Y-14323603D02*
X13639229Y-14333127D01*
X13829706Y-14295031D02*
X13839229Y-14285508D01*
X13839229Y-14285508D02*
X13858277Y-14275984D01*
X13858277Y-14275984D02*
X13905896Y-14275984D01*
X13905896Y-14275984D02*
X13924944Y-14285508D01*
X13924944Y-14285508D02*
X13934468Y-14295031D01*
X13934468Y-14295031D02*
X13943991Y-14314079D01*
X13943991Y-14314079D02*
X13943991Y-14333127D01*
X13943991Y-14333127D02*
X13934468Y-14361698D01*
X13934468Y-14361698D02*
X13820182Y-14475984D01*
X13820182Y-14475984D02*
X13943991Y-14475984D01*
X14182087Y-14475984D02*
X14182087Y-14275984D01*
X14267801Y-14475984D02*
X14267801Y-14371222D01*
X14267801Y-14371222D02*
X14258277Y-14352174D01*
X14258277Y-14352174D02*
X14239230Y-14342650D01*
X14239230Y-14342650D02*
X14210658Y-14342650D01*
X14210658Y-14342650D02*
X14191610Y-14352174D01*
X14191610Y-14352174D02*
X14182087Y-14361698D01*
X14391610Y-14475984D02*
X14372563Y-14466460D01*
X14372563Y-14466460D02*
X14363039Y-14456936D01*
X14363039Y-14456936D02*
X14353515Y-14437888D01*
X14353515Y-14437888D02*
X14353515Y-14380746D01*
X14353515Y-14380746D02*
X14363039Y-14361698D01*
X14363039Y-14361698D02*
X14372563Y-14352174D01*
X14372563Y-14352174D02*
X14391610Y-14342650D01*
X14391610Y-14342650D02*
X14420182Y-14342650D01*
X14420182Y-14342650D02*
X14439230Y-14352174D01*
X14439230Y-14352174D02*
X14448753Y-14361698D01*
X14448753Y-14361698D02*
X14458277Y-14380746D01*
X14458277Y-14380746D02*
X14458277Y-14437888D01*
X14458277Y-14437888D02*
X14448753Y-14456936D01*
X14448753Y-14456936D02*
X14439230Y-14466460D01*
X14439230Y-14466460D02*
X14420182Y-14475984D01*
X14420182Y-14475984D02*
X14391610Y-14475984D01*
X14572563Y-14475984D02*
X14553515Y-14466460D01*
X14553515Y-14466460D02*
X14543991Y-14447412D01*
X14543991Y-14447412D02*
X14543991Y-14275984D01*
X14724944Y-14466460D02*
X14705896Y-14475984D01*
X14705896Y-14475984D02*
X14667801Y-14475984D01*
X14667801Y-14475984D02*
X14648753Y-14466460D01*
X14648753Y-14466460D02*
X14639230Y-14447412D01*
X14639230Y-14447412D02*
X14639230Y-14371222D01*
X14639230Y-14371222D02*
X14648753Y-14352174D01*
X14648753Y-14352174D02*
X14667801Y-14342650D01*
X14667801Y-14342650D02*
X14705896Y-14342650D01*
X14705896Y-14342650D02*
X14724944Y-14352174D01*
X14724944Y-14352174D02*
X14734468Y-14371222D01*
X14734468Y-14371222D02*
X14734468Y-14390269D01*
X14734468Y-14390269D02*
X14639230Y-14409317D01*
X14810658Y-14466460D02*
X14829706Y-14475984D01*
X14829706Y-14475984D02*
X14867801Y-14475984D01*
X14867801Y-14475984D02*
X14886849Y-14466460D01*
X14886849Y-14466460D02*
X14896372Y-14447412D01*
X14896372Y-14447412D02*
X14896372Y-14437888D01*
X14896372Y-14437888D02*
X14886849Y-14418841D01*
X14886849Y-14418841D02*
X14867801Y-14409317D01*
X14867801Y-14409317D02*
X14839230Y-14409317D01*
X14839230Y-14409317D02*
X14820182Y-14399793D01*
X14820182Y-14399793D02*
X14810658Y-14380746D01*
X14810658Y-14380746D02*
X14810658Y-14371222D01*
X14810658Y-14371222D02*
X14820182Y-14352174D01*
X14820182Y-14352174D02*
X14839230Y-14342650D01*
X14839230Y-14342650D02*
X14867801Y-14342650D01*
X14867801Y-14342650D02*
X14886849Y-14352174D01*
X14963039Y-14552174D02*
X14972563Y-14542650D01*
X14972563Y-14542650D02*
X14991611Y-14514079D01*
X14991611Y-14514079D02*
X15001134Y-14495031D01*
X15001134Y-14495031D02*
X15010658Y-14466460D01*
X15010658Y-14466460D02*
X15020182Y-14418841D01*
X15020182Y-14418841D02*
X15020182Y-14380746D01*
X15020182Y-14380746D02*
X15010658Y-14333127D01*
X15010658Y-14333127D02*
X15001134Y-14304555D01*
X15001134Y-14304555D02*
X14991611Y-14285508D01*
X14991611Y-14285508D02*
X14972563Y-14256936D01*
X14972563Y-14256936D02*
X14963039Y-14247412D01*
M02*
