M48
; DRILL file {KiCad 8.0.7} date 2025-04-15T10:47:45+0200
; FORMAT={-:-/ absolute / inch / decimal}
; #@! TF.CreationDate,2025-04-15T10:47:45+02:00
; #@! TF.GenerationSoftware,Kicad,Pcbnew,8.0.7
; #@! TF.FileFunction,Plated,1,4,PTH
FMAT,2
INCH
; #@! TA.AperFunction,Plated,PTH,ViaDrill
T1C0.0118
; #@! TA.AperFunction,Plated,PTH,ComponentDrill
T2C0.0236
; #@! TA.AperFunction,Plated,PTH,ComponentDrill
T3C0.0394
; #@! TA.AperFunction,Plated,PTH,ComponentDrill
T4C0.0472
%
G90
G05
T1
X3.9764Y-5.0197
X3.9961Y-3.9961
X4.0945Y-4.5276
X4.0945Y-4.626
X4.1142Y-4.9409
X4.1339Y-4.4291
X4.1929Y-4.6654
X4.2126Y-4.9213
X4.2913Y-4.6457
X4.3898Y-4.5276
X4.4986Y-3.9958
X4.5079Y-5.0
X4.5472Y-4.5472
X4.5653Y-4.6058
X4.5669Y-4.1535
X4.5669Y-4.311
X4.5669Y-4.4094
X4.5669Y-4.4882
X4.6063Y-4.8622
X4.6157Y-4.0354
X4.6157Y-4.0748
X4.626Y-4.7244
X4.685Y-5.0
X4.7441Y-4.0748
X4.7736Y-4.5374
X4.7835Y-4.2717
X4.7835Y-4.5846
X4.8039Y-4.8417
X4.813Y-4.4488
X4.8228Y-5.0
X4.8425Y-4.0748
X4.8622Y-4.8425
X4.8627Y-4.3903
X4.8819Y-4.7244
X4.9311Y-4.3307
X4.9606Y-4.0157
X4.9606Y-4.4882
X4.9606Y-5.0
X4.9803Y-4.1339
X4.9803Y-4.2323
X4.9815Y-4.6347
X4.9902Y-4.7736
X4.998Y-4.5448
X5.0138Y-4.3504
X5.0197Y-5.0
X5.0394Y-4.3307
X5.0394Y-4.5866
X5.0886Y-4.4685
X5.0984Y-4.9213
X5.1181Y-4.1339
X5.1181Y-4.2815
X5.124Y-4.3839
X5.1378Y-3.9961
X5.1378Y-4.6709
X5.1575Y-4.7244
X5.1575Y-4.7608
X5.187Y-4.4587
X5.187Y-4.6555
X5.1969Y-4.5177
X5.2165Y-4.5866
X5.2264Y-4.4783
X5.2264Y-4.9016
X5.2559Y-4.5075
X5.2559Y-4.6063
X5.2756Y-4.4488
X5.2953Y-4.7441
X5.315Y-4.0748
X5.315Y-4.1929
X5.315Y-4.252
X5.315Y-4.9016
X5.3346Y-4.7835
X5.3445Y-4.7441
X5.3543Y-4.7047
X5.374Y-4.0157
X5.3937Y-4.7441
X5.4134Y-4.5669
X5.4433Y-4.3705
X5.4528Y-4.2323
X5.4528Y-4.2913
X5.4626Y-4.1732
X5.4779Y-4.5123
X5.4823Y-4.3996
X5.4921Y-4.9016
X5.5315Y-4.7835
X5.5512Y-4.2717
X5.5591Y-4.857
X5.5623Y-4.3996
X5.5807Y-4.6063
X5.5906Y-4.6457
X5.5906Y-4.7441
X5.6299Y-4.0354
X5.6496Y-4.7441
X5.6594Y-4.4488
X5.685Y-4.7933
X5.689Y-4.8829
X5.7382Y-4.7441
X5.7653Y-4.8401
X5.7677Y-4.2126
X5.7677Y-4.4882
X5.7677Y-4.7835
X5.8465Y-4.5669
X5.8465Y-4.8425
T3
X4.0157Y-4.1683
X4.0157Y-4.2683
X4.0157Y-4.3683
X4.0157Y-4.4683
X4.0157Y-4.5683
X4.0157Y-4.6683
X4.0157Y-4.7683
X4.0157Y-4.8683
X4.1913Y-4.2618
X4.1913Y-4.5325
X4.1913Y-4.8031
X4.2913Y-4.2618
X4.2913Y-4.5325
X4.2913Y-4.8031
X5.1939Y-4.9902
X5.2939Y-4.9902
X5.3939Y-4.9902
X5.4939Y-4.9902
X5.5939Y-4.9902
T4
X4.4587Y-4.1535
X4.4587Y-4.3307
X4.4587Y-4.439
X4.4587Y-4.6161
X4.4587Y-4.7244
X4.4587Y-4.9016
X4.7146Y-4.1535
X4.7146Y-4.3307
X4.7146Y-4.439
X4.7146Y-4.6161
X4.7146Y-4.7244
X4.7146Y-4.9016
T2
G00X5.6238Y-4.3476
M15
G01X5.6671Y-4.3476
M16
G05
G00X5.6238Y-4.6878
M15
G01X5.6671Y-4.6878
M16
G05
G00X5.7982Y-4.3476
M15
G01X5.8219Y-4.3476
M16
G05
G00X5.7982Y-4.6878
M15
G01X5.8219Y-4.6878
M16
G05
M30
