%TF.GenerationSoftware,KiCad,Pcbnew,8.0.7*%
%TF.CreationDate,2025-04-15T10:47:43+02:00*%
%TF.ProjectId,colobus_hardware,636f6c6f-6275-4735-9f68-617264776172,rev?*%
%TF.SameCoordinates,Original*%
%TF.FileFunction,Legend,Top*%
%TF.FilePolarity,Positive*%
%FSLAX46Y46*%
G04 Gerber Fmt 4.6, Leading zero omitted, Abs format (unit mm)*
G04 Created by KiCad (PCBNEW 8.0.7) date 2025-04-15 10:47:43*
%MOMM*%
%LPD*%
G01*
G04 APERTURE LIST*
%ADD10C,0.187500*%
%ADD11C,0.150000*%
%ADD12C,0.254000*%
%ADD13C,0.120000*%
%ADD14C,0.100000*%
%ADD15C,0.250000*%
%ADD16C,0.200000*%
%ADD17C,0.300000*%
G04 APERTURE END LIST*
D10*
X133730497Y-128827035D02*
X133694783Y-128862750D01*
X133694783Y-128862750D02*
X133587640Y-128898464D01*
X133587640Y-128898464D02*
X133516212Y-128898464D01*
X133516212Y-128898464D02*
X133409069Y-128862750D01*
X133409069Y-128862750D02*
X133337640Y-128791321D01*
X133337640Y-128791321D02*
X133301926Y-128719892D01*
X133301926Y-128719892D02*
X133266212Y-128577035D01*
X133266212Y-128577035D02*
X133266212Y-128469892D01*
X133266212Y-128469892D02*
X133301926Y-128327035D01*
X133301926Y-128327035D02*
X133337640Y-128255607D01*
X133337640Y-128255607D02*
X133409069Y-128184178D01*
X133409069Y-128184178D02*
X133516212Y-128148464D01*
X133516212Y-128148464D02*
X133587640Y-128148464D01*
X133587640Y-128148464D02*
X133694783Y-128184178D01*
X133694783Y-128184178D02*
X133730497Y-128219892D01*
X134409069Y-128898464D02*
X134051926Y-128898464D01*
X134051926Y-128898464D02*
X134051926Y-128148464D01*
X134659069Y-128898464D02*
X134659069Y-128148464D01*
X135087640Y-128898464D02*
X134766212Y-128469892D01*
X135087640Y-128148464D02*
X134659069Y-128577035D01*
X141730497Y-128148464D02*
X142194783Y-128148464D01*
X142194783Y-128148464D02*
X141944783Y-128434178D01*
X141944783Y-128434178D02*
X142051926Y-128434178D01*
X142051926Y-128434178D02*
X142123355Y-128469892D01*
X142123355Y-128469892D02*
X142159069Y-128505607D01*
X142159069Y-128505607D02*
X142194783Y-128577035D01*
X142194783Y-128577035D02*
X142194783Y-128755607D01*
X142194783Y-128755607D02*
X142159069Y-128827035D01*
X142159069Y-128827035D02*
X142123355Y-128862750D01*
X142123355Y-128862750D02*
X142051926Y-128898464D01*
X142051926Y-128898464D02*
X141837640Y-128898464D01*
X141837640Y-128898464D02*
X141766212Y-128862750D01*
X141766212Y-128862750D02*
X141730497Y-128827035D01*
X142409069Y-128148464D02*
X142659069Y-128898464D01*
X142659069Y-128898464D02*
X142909069Y-128148464D01*
X143087640Y-128148464D02*
X143551926Y-128148464D01*
X143551926Y-128148464D02*
X143301926Y-128434178D01*
X143301926Y-128434178D02*
X143409069Y-128434178D01*
X143409069Y-128434178D02*
X143480498Y-128469892D01*
X143480498Y-128469892D02*
X143516212Y-128505607D01*
X143516212Y-128505607D02*
X143551926Y-128577035D01*
X143551926Y-128577035D02*
X143551926Y-128755607D01*
X143551926Y-128755607D02*
X143516212Y-128827035D01*
X143516212Y-128827035D02*
X143480498Y-128862750D01*
X143480498Y-128862750D02*
X143409069Y-128898464D01*
X143409069Y-128898464D02*
X143194783Y-128898464D01*
X143194783Y-128898464D02*
X143123355Y-128862750D01*
X143123355Y-128862750D02*
X143087640Y-128827035D01*
X139230497Y-128898464D02*
X138980497Y-128541321D01*
X138801926Y-128898464D02*
X138801926Y-128148464D01*
X138801926Y-128148464D02*
X139087640Y-128148464D01*
X139087640Y-128148464D02*
X139159069Y-128184178D01*
X139159069Y-128184178D02*
X139194783Y-128219892D01*
X139194783Y-128219892D02*
X139230497Y-128291321D01*
X139230497Y-128291321D02*
X139230497Y-128398464D01*
X139230497Y-128398464D02*
X139194783Y-128469892D01*
X139194783Y-128469892D02*
X139159069Y-128505607D01*
X139159069Y-128505607D02*
X139087640Y-128541321D01*
X139087640Y-128541321D02*
X138801926Y-128541321D01*
X139516212Y-128862750D02*
X139623355Y-128898464D01*
X139623355Y-128898464D02*
X139801926Y-128898464D01*
X139801926Y-128898464D02*
X139873355Y-128862750D01*
X139873355Y-128862750D02*
X139909069Y-128827035D01*
X139909069Y-128827035D02*
X139944783Y-128755607D01*
X139944783Y-128755607D02*
X139944783Y-128684178D01*
X139944783Y-128684178D02*
X139909069Y-128612750D01*
X139909069Y-128612750D02*
X139873355Y-128577035D01*
X139873355Y-128577035D02*
X139801926Y-128541321D01*
X139801926Y-128541321D02*
X139659069Y-128505607D01*
X139659069Y-128505607D02*
X139587640Y-128469892D01*
X139587640Y-128469892D02*
X139551926Y-128434178D01*
X139551926Y-128434178D02*
X139516212Y-128362750D01*
X139516212Y-128362750D02*
X139516212Y-128291321D01*
X139516212Y-128291321D02*
X139551926Y-128219892D01*
X139551926Y-128219892D02*
X139587640Y-128184178D01*
X139587640Y-128184178D02*
X139659069Y-128148464D01*
X139659069Y-128148464D02*
X139837640Y-128148464D01*
X139837640Y-128148464D02*
X139944783Y-128184178D01*
X140159069Y-128148464D02*
X140587641Y-128148464D01*
X140373355Y-128898464D02*
X140373355Y-128148464D01*
X131194783Y-128184178D02*
X131123355Y-128148464D01*
X131123355Y-128148464D02*
X131016212Y-128148464D01*
X131016212Y-128148464D02*
X130909069Y-128184178D01*
X130909069Y-128184178D02*
X130837640Y-128255607D01*
X130837640Y-128255607D02*
X130801926Y-128327035D01*
X130801926Y-128327035D02*
X130766212Y-128469892D01*
X130766212Y-128469892D02*
X130766212Y-128577035D01*
X130766212Y-128577035D02*
X130801926Y-128719892D01*
X130801926Y-128719892D02*
X130837640Y-128791321D01*
X130837640Y-128791321D02*
X130909069Y-128862750D01*
X130909069Y-128862750D02*
X131016212Y-128898464D01*
X131016212Y-128898464D02*
X131087640Y-128898464D01*
X131087640Y-128898464D02*
X131194783Y-128862750D01*
X131194783Y-128862750D02*
X131230497Y-128827035D01*
X131230497Y-128827035D02*
X131230497Y-128577035D01*
X131230497Y-128577035D02*
X131087640Y-128577035D01*
X131551926Y-128898464D02*
X131551926Y-128148464D01*
X131551926Y-128148464D02*
X131980497Y-128898464D01*
X131980497Y-128898464D02*
X131980497Y-128148464D01*
X132337640Y-128898464D02*
X132337640Y-128148464D01*
X132337640Y-128148464D02*
X132516211Y-128148464D01*
X132516211Y-128148464D02*
X132623354Y-128184178D01*
X132623354Y-128184178D02*
X132694783Y-128255607D01*
X132694783Y-128255607D02*
X132730497Y-128327035D01*
X132730497Y-128327035D02*
X132766211Y-128469892D01*
X132766211Y-128469892D02*
X132766211Y-128577035D01*
X132766211Y-128577035D02*
X132730497Y-128719892D01*
X132730497Y-128719892D02*
X132694783Y-128791321D01*
X132694783Y-128791321D02*
X132623354Y-128862750D01*
X132623354Y-128862750D02*
X132516211Y-128898464D01*
X132516211Y-128898464D02*
X132337640Y-128898464D01*
X136301926Y-128898464D02*
X136301926Y-128148464D01*
X136801926Y-128148464D02*
X136944783Y-128148464D01*
X136944783Y-128148464D02*
X137016212Y-128184178D01*
X137016212Y-128184178D02*
X137087640Y-128255607D01*
X137087640Y-128255607D02*
X137123355Y-128398464D01*
X137123355Y-128398464D02*
X137123355Y-128648464D01*
X137123355Y-128648464D02*
X137087640Y-128791321D01*
X137087640Y-128791321D02*
X137016212Y-128862750D01*
X137016212Y-128862750D02*
X136944783Y-128898464D01*
X136944783Y-128898464D02*
X136801926Y-128898464D01*
X136801926Y-128898464D02*
X136730498Y-128862750D01*
X136730498Y-128862750D02*
X136659069Y-128791321D01*
X136659069Y-128791321D02*
X136623355Y-128648464D01*
X136623355Y-128648464D02*
X136623355Y-128398464D01*
X136623355Y-128398464D02*
X136659069Y-128255607D01*
X136659069Y-128255607D02*
X136730498Y-128184178D01*
X136730498Y-128184178D02*
X136801926Y-128148464D01*
D11*
X140859580Y-124666666D02*
X140907200Y-124714285D01*
X140907200Y-124714285D02*
X140954819Y-124857142D01*
X140954819Y-124857142D02*
X140954819Y-124952380D01*
X140954819Y-124952380D02*
X140907200Y-125095237D01*
X140907200Y-125095237D02*
X140811961Y-125190475D01*
X140811961Y-125190475D02*
X140716723Y-125238094D01*
X140716723Y-125238094D02*
X140526247Y-125285713D01*
X140526247Y-125285713D02*
X140383390Y-125285713D01*
X140383390Y-125285713D02*
X140192914Y-125238094D01*
X140192914Y-125238094D02*
X140097676Y-125190475D01*
X140097676Y-125190475D02*
X140002438Y-125095237D01*
X140002438Y-125095237D02*
X139954819Y-124952380D01*
X139954819Y-124952380D02*
X139954819Y-124857142D01*
X139954819Y-124857142D02*
X140002438Y-124714285D01*
X140002438Y-124714285D02*
X140050057Y-124666666D01*
X139954819Y-123761904D02*
X139954819Y-124238094D01*
X139954819Y-124238094D02*
X140431009Y-124285713D01*
X140431009Y-124285713D02*
X140383390Y-124238094D01*
X140383390Y-124238094D02*
X140335771Y-124142856D01*
X140335771Y-124142856D02*
X140335771Y-123904761D01*
X140335771Y-123904761D02*
X140383390Y-123809523D01*
X140383390Y-123809523D02*
X140431009Y-123761904D01*
X140431009Y-123761904D02*
X140526247Y-123714285D01*
X140526247Y-123714285D02*
X140764342Y-123714285D01*
X140764342Y-123714285D02*
X140859580Y-123761904D01*
X140859580Y-123761904D02*
X140907200Y-123809523D01*
X140907200Y-123809523D02*
X140954819Y-123904761D01*
X140954819Y-123904761D02*
X140954819Y-124142856D01*
X140954819Y-124142856D02*
X140907200Y-124238094D01*
X140907200Y-124238094D02*
X140859580Y-124285713D01*
X123609580Y-127146666D02*
X123657200Y-127194285D01*
X123657200Y-127194285D02*
X123704819Y-127337142D01*
X123704819Y-127337142D02*
X123704819Y-127432380D01*
X123704819Y-127432380D02*
X123657200Y-127575237D01*
X123657200Y-127575237D02*
X123561961Y-127670475D01*
X123561961Y-127670475D02*
X123466723Y-127718094D01*
X123466723Y-127718094D02*
X123276247Y-127765713D01*
X123276247Y-127765713D02*
X123133390Y-127765713D01*
X123133390Y-127765713D02*
X122942914Y-127718094D01*
X122942914Y-127718094D02*
X122847676Y-127670475D01*
X122847676Y-127670475D02*
X122752438Y-127575237D01*
X122752438Y-127575237D02*
X122704819Y-127432380D01*
X122704819Y-127432380D02*
X122704819Y-127337142D01*
X122704819Y-127337142D02*
X122752438Y-127194285D01*
X122752438Y-127194285D02*
X122800057Y-127146666D01*
X122800057Y-126765713D02*
X122752438Y-126718094D01*
X122752438Y-126718094D02*
X122704819Y-126622856D01*
X122704819Y-126622856D02*
X122704819Y-126384761D01*
X122704819Y-126384761D02*
X122752438Y-126289523D01*
X122752438Y-126289523D02*
X122800057Y-126241904D01*
X122800057Y-126241904D02*
X122895295Y-126194285D01*
X122895295Y-126194285D02*
X122990533Y-126194285D01*
X122990533Y-126194285D02*
X123133390Y-126241904D01*
X123133390Y-126241904D02*
X123704819Y-126813332D01*
X123704819Y-126813332D02*
X123704819Y-126194285D01*
X127377142Y-109359580D02*
X127329523Y-109407200D01*
X127329523Y-109407200D02*
X127186666Y-109454819D01*
X127186666Y-109454819D02*
X127091428Y-109454819D01*
X127091428Y-109454819D02*
X126948571Y-109407200D01*
X126948571Y-109407200D02*
X126853333Y-109311961D01*
X126853333Y-109311961D02*
X126805714Y-109216723D01*
X126805714Y-109216723D02*
X126758095Y-109026247D01*
X126758095Y-109026247D02*
X126758095Y-108883390D01*
X126758095Y-108883390D02*
X126805714Y-108692914D01*
X126805714Y-108692914D02*
X126853333Y-108597676D01*
X126853333Y-108597676D02*
X126948571Y-108502438D01*
X126948571Y-108502438D02*
X127091428Y-108454819D01*
X127091428Y-108454819D02*
X127186666Y-108454819D01*
X127186666Y-108454819D02*
X127329523Y-108502438D01*
X127329523Y-108502438D02*
X127377142Y-108550057D01*
X128329523Y-109454819D02*
X127758095Y-109454819D01*
X128043809Y-109454819D02*
X128043809Y-108454819D01*
X128043809Y-108454819D02*
X127948571Y-108597676D01*
X127948571Y-108597676D02*
X127853333Y-108692914D01*
X127853333Y-108692914D02*
X127758095Y-108740533D01*
X128710476Y-108550057D02*
X128758095Y-108502438D01*
X128758095Y-108502438D02*
X128853333Y-108454819D01*
X128853333Y-108454819D02*
X129091428Y-108454819D01*
X129091428Y-108454819D02*
X129186666Y-108502438D01*
X129186666Y-108502438D02*
X129234285Y-108550057D01*
X129234285Y-108550057D02*
X129281904Y-108645295D01*
X129281904Y-108645295D02*
X129281904Y-108740533D01*
X129281904Y-108740533D02*
X129234285Y-108883390D01*
X129234285Y-108883390D02*
X128662857Y-109454819D01*
X128662857Y-109454819D02*
X129281904Y-109454819D01*
X109261905Y-106454819D02*
X109261905Y-105454819D01*
X109261905Y-105454819D02*
X109500000Y-105454819D01*
X109500000Y-105454819D02*
X109642857Y-105502438D01*
X109642857Y-105502438D02*
X109738095Y-105597676D01*
X109738095Y-105597676D02*
X109785714Y-105692914D01*
X109785714Y-105692914D02*
X109833333Y-105883390D01*
X109833333Y-105883390D02*
X109833333Y-106026247D01*
X109833333Y-106026247D02*
X109785714Y-106216723D01*
X109785714Y-106216723D02*
X109738095Y-106311961D01*
X109738095Y-106311961D02*
X109642857Y-106407200D01*
X109642857Y-106407200D02*
X109500000Y-106454819D01*
X109500000Y-106454819D02*
X109261905Y-106454819D01*
X110214286Y-105550057D02*
X110261905Y-105502438D01*
X110261905Y-105502438D02*
X110357143Y-105454819D01*
X110357143Y-105454819D02*
X110595238Y-105454819D01*
X110595238Y-105454819D02*
X110690476Y-105502438D01*
X110690476Y-105502438D02*
X110738095Y-105550057D01*
X110738095Y-105550057D02*
X110785714Y-105645295D01*
X110785714Y-105645295D02*
X110785714Y-105740533D01*
X110785714Y-105740533D02*
X110738095Y-105883390D01*
X110738095Y-105883390D02*
X110166667Y-106454819D01*
X110166667Y-106454819D02*
X110785714Y-106454819D01*
X109284819Y-119152857D02*
X108808628Y-119486190D01*
X109284819Y-119724285D02*
X108284819Y-119724285D01*
X108284819Y-119724285D02*
X108284819Y-119343333D01*
X108284819Y-119343333D02*
X108332438Y-119248095D01*
X108332438Y-119248095D02*
X108380057Y-119200476D01*
X108380057Y-119200476D02*
X108475295Y-119152857D01*
X108475295Y-119152857D02*
X108618152Y-119152857D01*
X108618152Y-119152857D02*
X108713390Y-119200476D01*
X108713390Y-119200476D02*
X108761009Y-119248095D01*
X108761009Y-119248095D02*
X108808628Y-119343333D01*
X108808628Y-119343333D02*
X108808628Y-119724285D01*
X109284819Y-118200476D02*
X109284819Y-118771904D01*
X109284819Y-118486190D02*
X108284819Y-118486190D01*
X108284819Y-118486190D02*
X108427676Y-118581428D01*
X108427676Y-118581428D02*
X108522914Y-118676666D01*
X108522914Y-118676666D02*
X108570533Y-118771904D01*
X108284819Y-117867142D02*
X108284819Y-117248095D01*
X108284819Y-117248095D02*
X108665771Y-117581428D01*
X108665771Y-117581428D02*
X108665771Y-117438571D01*
X108665771Y-117438571D02*
X108713390Y-117343333D01*
X108713390Y-117343333D02*
X108761009Y-117295714D01*
X108761009Y-117295714D02*
X108856247Y-117248095D01*
X108856247Y-117248095D02*
X109094342Y-117248095D01*
X109094342Y-117248095D02*
X109189580Y-117295714D01*
X109189580Y-117295714D02*
X109237200Y-117343333D01*
X109237200Y-117343333D02*
X109284819Y-117438571D01*
X109284819Y-117438571D02*
X109284819Y-117724285D01*
X109284819Y-117724285D02*
X109237200Y-117819523D01*
X109237200Y-117819523D02*
X109189580Y-117867142D01*
X135859580Y-107166666D02*
X135907200Y-107214285D01*
X135907200Y-107214285D02*
X135954819Y-107357142D01*
X135954819Y-107357142D02*
X135954819Y-107452380D01*
X135954819Y-107452380D02*
X135907200Y-107595237D01*
X135907200Y-107595237D02*
X135811961Y-107690475D01*
X135811961Y-107690475D02*
X135716723Y-107738094D01*
X135716723Y-107738094D02*
X135526247Y-107785713D01*
X135526247Y-107785713D02*
X135383390Y-107785713D01*
X135383390Y-107785713D02*
X135192914Y-107738094D01*
X135192914Y-107738094D02*
X135097676Y-107690475D01*
X135097676Y-107690475D02*
X135002438Y-107595237D01*
X135002438Y-107595237D02*
X134954819Y-107452380D01*
X134954819Y-107452380D02*
X134954819Y-107357142D01*
X134954819Y-107357142D02*
X135002438Y-107214285D01*
X135002438Y-107214285D02*
X135050057Y-107166666D01*
X135954819Y-106214285D02*
X135954819Y-106785713D01*
X135954819Y-106499999D02*
X134954819Y-106499999D01*
X134954819Y-106499999D02*
X135097676Y-106595237D01*
X135097676Y-106595237D02*
X135192914Y-106690475D01*
X135192914Y-106690475D02*
X135240533Y-106785713D01*
X125238095Y-112454819D02*
X125238095Y-113264342D01*
X125238095Y-113264342D02*
X125285714Y-113359580D01*
X125285714Y-113359580D02*
X125333333Y-113407200D01*
X125333333Y-113407200D02*
X125428571Y-113454819D01*
X125428571Y-113454819D02*
X125619047Y-113454819D01*
X125619047Y-113454819D02*
X125714285Y-113407200D01*
X125714285Y-113407200D02*
X125761904Y-113359580D01*
X125761904Y-113359580D02*
X125809523Y-113264342D01*
X125809523Y-113264342D02*
X125809523Y-112454819D01*
X126809523Y-113454819D02*
X126238095Y-113454819D01*
X126523809Y-113454819D02*
X126523809Y-112454819D01*
X126523809Y-112454819D02*
X126428571Y-112597676D01*
X126428571Y-112597676D02*
X126333333Y-112692914D01*
X126333333Y-112692914D02*
X126238095Y-112740533D01*
X105721905Y-119954819D02*
X105721905Y-118954819D01*
X105721905Y-118954819D02*
X105960000Y-118954819D01*
X105960000Y-118954819D02*
X106102857Y-119002438D01*
X106102857Y-119002438D02*
X106198095Y-119097676D01*
X106198095Y-119097676D02*
X106245714Y-119192914D01*
X106245714Y-119192914D02*
X106293333Y-119383390D01*
X106293333Y-119383390D02*
X106293333Y-119526247D01*
X106293333Y-119526247D02*
X106245714Y-119716723D01*
X106245714Y-119716723D02*
X106198095Y-119811961D01*
X106198095Y-119811961D02*
X106102857Y-119907200D01*
X106102857Y-119907200D02*
X105960000Y-119954819D01*
X105960000Y-119954819D02*
X105721905Y-119954819D01*
X107150476Y-119288152D02*
X107150476Y-119954819D01*
X106912381Y-118907200D02*
X106674286Y-119621485D01*
X106674286Y-119621485D02*
X107293333Y-119621485D01*
D12*
X106288333Y-125953365D02*
X106227857Y-126013842D01*
X106227857Y-126013842D02*
X106046428Y-126074318D01*
X106046428Y-126074318D02*
X105925476Y-126074318D01*
X105925476Y-126074318D02*
X105744047Y-126013842D01*
X105744047Y-126013842D02*
X105623095Y-125892889D01*
X105623095Y-125892889D02*
X105562618Y-125771937D01*
X105562618Y-125771937D02*
X105502142Y-125530032D01*
X105502142Y-125530032D02*
X105502142Y-125348603D01*
X105502142Y-125348603D02*
X105562618Y-125106699D01*
X105562618Y-125106699D02*
X105623095Y-124985746D01*
X105623095Y-124985746D02*
X105744047Y-124864794D01*
X105744047Y-124864794D02*
X105925476Y-124804318D01*
X105925476Y-124804318D02*
X106046428Y-124804318D01*
X106046428Y-124804318D02*
X106227857Y-124864794D01*
X106227857Y-124864794D02*
X106288333Y-124925270D01*
X107014047Y-125348603D02*
X106893095Y-125288127D01*
X106893095Y-125288127D02*
X106832618Y-125227651D01*
X106832618Y-125227651D02*
X106772142Y-125106699D01*
X106772142Y-125106699D02*
X106772142Y-125046222D01*
X106772142Y-125046222D02*
X106832618Y-124925270D01*
X106832618Y-124925270D02*
X106893095Y-124864794D01*
X106893095Y-124864794D02*
X107014047Y-124804318D01*
X107014047Y-124804318D02*
X107255952Y-124804318D01*
X107255952Y-124804318D02*
X107376904Y-124864794D01*
X107376904Y-124864794D02*
X107437380Y-124925270D01*
X107437380Y-124925270D02*
X107497857Y-125046222D01*
X107497857Y-125046222D02*
X107497857Y-125106699D01*
X107497857Y-125106699D02*
X107437380Y-125227651D01*
X107437380Y-125227651D02*
X107376904Y-125288127D01*
X107376904Y-125288127D02*
X107255952Y-125348603D01*
X107255952Y-125348603D02*
X107014047Y-125348603D01*
X107014047Y-125348603D02*
X106893095Y-125409080D01*
X106893095Y-125409080D02*
X106832618Y-125469556D01*
X106832618Y-125469556D02*
X106772142Y-125590508D01*
X106772142Y-125590508D02*
X106772142Y-125832413D01*
X106772142Y-125832413D02*
X106832618Y-125953365D01*
X106832618Y-125953365D02*
X106893095Y-126013842D01*
X106893095Y-126013842D02*
X107014047Y-126074318D01*
X107014047Y-126074318D02*
X107255952Y-126074318D01*
X107255952Y-126074318D02*
X107376904Y-126013842D01*
X107376904Y-126013842D02*
X107437380Y-125953365D01*
X107437380Y-125953365D02*
X107497857Y-125832413D01*
X107497857Y-125832413D02*
X107497857Y-125590508D01*
X107497857Y-125590508D02*
X107437380Y-125469556D01*
X107437380Y-125469556D02*
X107376904Y-125409080D01*
X107376904Y-125409080D02*
X107255952Y-125348603D01*
D11*
X124357142Y-110859580D02*
X124309523Y-110907200D01*
X124309523Y-110907200D02*
X124166666Y-110954819D01*
X124166666Y-110954819D02*
X124071428Y-110954819D01*
X124071428Y-110954819D02*
X123928571Y-110907200D01*
X123928571Y-110907200D02*
X123833333Y-110811961D01*
X123833333Y-110811961D02*
X123785714Y-110716723D01*
X123785714Y-110716723D02*
X123738095Y-110526247D01*
X123738095Y-110526247D02*
X123738095Y-110383390D01*
X123738095Y-110383390D02*
X123785714Y-110192914D01*
X123785714Y-110192914D02*
X123833333Y-110097676D01*
X123833333Y-110097676D02*
X123928571Y-110002438D01*
X123928571Y-110002438D02*
X124071428Y-109954819D01*
X124071428Y-109954819D02*
X124166666Y-109954819D01*
X124166666Y-109954819D02*
X124309523Y-110002438D01*
X124309523Y-110002438D02*
X124357142Y-110050057D01*
X125309523Y-110954819D02*
X124738095Y-110954819D01*
X125023809Y-110954819D02*
X125023809Y-109954819D01*
X125023809Y-109954819D02*
X124928571Y-110097676D01*
X124928571Y-110097676D02*
X124833333Y-110192914D01*
X124833333Y-110192914D02*
X124738095Y-110240533D01*
X126166666Y-109954819D02*
X125976190Y-109954819D01*
X125976190Y-109954819D02*
X125880952Y-110002438D01*
X125880952Y-110002438D02*
X125833333Y-110050057D01*
X125833333Y-110050057D02*
X125738095Y-110192914D01*
X125738095Y-110192914D02*
X125690476Y-110383390D01*
X125690476Y-110383390D02*
X125690476Y-110764342D01*
X125690476Y-110764342D02*
X125738095Y-110859580D01*
X125738095Y-110859580D02*
X125785714Y-110907200D01*
X125785714Y-110907200D02*
X125880952Y-110954819D01*
X125880952Y-110954819D02*
X126071428Y-110954819D01*
X126071428Y-110954819D02*
X126166666Y-110907200D01*
X126166666Y-110907200D02*
X126214285Y-110859580D01*
X126214285Y-110859580D02*
X126261904Y-110764342D01*
X126261904Y-110764342D02*
X126261904Y-110526247D01*
X126261904Y-110526247D02*
X126214285Y-110431009D01*
X126214285Y-110431009D02*
X126166666Y-110383390D01*
X126166666Y-110383390D02*
X126071428Y-110335771D01*
X126071428Y-110335771D02*
X125880952Y-110335771D01*
X125880952Y-110335771D02*
X125785714Y-110383390D01*
X125785714Y-110383390D02*
X125738095Y-110431009D01*
X125738095Y-110431009D02*
X125690476Y-110526247D01*
X128238095Y-102454819D02*
X128238095Y-103264342D01*
X128238095Y-103264342D02*
X128285714Y-103359580D01*
X128285714Y-103359580D02*
X128333333Y-103407200D01*
X128333333Y-103407200D02*
X128428571Y-103454819D01*
X128428571Y-103454819D02*
X128619047Y-103454819D01*
X128619047Y-103454819D02*
X128714285Y-103407200D01*
X128714285Y-103407200D02*
X128761904Y-103359580D01*
X128761904Y-103359580D02*
X128809523Y-103264342D01*
X128809523Y-103264342D02*
X128809523Y-102454819D01*
X129238095Y-102550057D02*
X129285714Y-102502438D01*
X129285714Y-102502438D02*
X129380952Y-102454819D01*
X129380952Y-102454819D02*
X129619047Y-102454819D01*
X129619047Y-102454819D02*
X129714285Y-102502438D01*
X129714285Y-102502438D02*
X129761904Y-102550057D01*
X129761904Y-102550057D02*
X129809523Y-102645295D01*
X129809523Y-102645295D02*
X129809523Y-102740533D01*
X129809523Y-102740533D02*
X129761904Y-102883390D01*
X129761904Y-102883390D02*
X129190476Y-103454819D01*
X129190476Y-103454819D02*
X129809523Y-103454819D01*
D12*
X105288333Y-104453365D02*
X105227857Y-104513842D01*
X105227857Y-104513842D02*
X105046428Y-104574318D01*
X105046428Y-104574318D02*
X104925476Y-104574318D01*
X104925476Y-104574318D02*
X104744047Y-104513842D01*
X104744047Y-104513842D02*
X104623095Y-104392889D01*
X104623095Y-104392889D02*
X104562618Y-104271937D01*
X104562618Y-104271937D02*
X104502142Y-104030032D01*
X104502142Y-104030032D02*
X104502142Y-103848603D01*
X104502142Y-103848603D02*
X104562618Y-103606699D01*
X104562618Y-103606699D02*
X104623095Y-103485746D01*
X104623095Y-103485746D02*
X104744047Y-103364794D01*
X104744047Y-103364794D02*
X104925476Y-103304318D01*
X104925476Y-103304318D02*
X105046428Y-103304318D01*
X105046428Y-103304318D02*
X105227857Y-103364794D01*
X105227857Y-103364794D02*
X105288333Y-103425270D01*
X105893095Y-104574318D02*
X106134999Y-104574318D01*
X106134999Y-104574318D02*
X106255952Y-104513842D01*
X106255952Y-104513842D02*
X106316428Y-104453365D01*
X106316428Y-104453365D02*
X106437380Y-104271937D01*
X106437380Y-104271937D02*
X106497857Y-104030032D01*
X106497857Y-104030032D02*
X106497857Y-103546222D01*
X106497857Y-103546222D02*
X106437380Y-103425270D01*
X106437380Y-103425270D02*
X106376904Y-103364794D01*
X106376904Y-103364794D02*
X106255952Y-103304318D01*
X106255952Y-103304318D02*
X106014047Y-103304318D01*
X106014047Y-103304318D02*
X105893095Y-103364794D01*
X105893095Y-103364794D02*
X105832618Y-103425270D01*
X105832618Y-103425270D02*
X105772142Y-103546222D01*
X105772142Y-103546222D02*
X105772142Y-103848603D01*
X105772142Y-103848603D02*
X105832618Y-103969556D01*
X105832618Y-103969556D02*
X105893095Y-104030032D01*
X105893095Y-104030032D02*
X106014047Y-104090508D01*
X106014047Y-104090508D02*
X106255952Y-104090508D01*
X106255952Y-104090508D02*
X106376904Y-104030032D01*
X106376904Y-104030032D02*
X106437380Y-103969556D01*
X106437380Y-103969556D02*
X106497857Y-103848603D01*
D11*
X139954819Y-110166666D02*
X139478628Y-110499999D01*
X139954819Y-110738094D02*
X138954819Y-110738094D01*
X138954819Y-110738094D02*
X138954819Y-110357142D01*
X138954819Y-110357142D02*
X139002438Y-110261904D01*
X139002438Y-110261904D02*
X139050057Y-110214285D01*
X139050057Y-110214285D02*
X139145295Y-110166666D01*
X139145295Y-110166666D02*
X139288152Y-110166666D01*
X139288152Y-110166666D02*
X139383390Y-110214285D01*
X139383390Y-110214285D02*
X139431009Y-110261904D01*
X139431009Y-110261904D02*
X139478628Y-110357142D01*
X139478628Y-110357142D02*
X139478628Y-110738094D01*
X138954819Y-109261904D02*
X138954819Y-109738094D01*
X138954819Y-109738094D02*
X139431009Y-109785713D01*
X139431009Y-109785713D02*
X139383390Y-109738094D01*
X139383390Y-109738094D02*
X139335771Y-109642856D01*
X139335771Y-109642856D02*
X139335771Y-109404761D01*
X139335771Y-109404761D02*
X139383390Y-109309523D01*
X139383390Y-109309523D02*
X139431009Y-109261904D01*
X139431009Y-109261904D02*
X139526247Y-109214285D01*
X139526247Y-109214285D02*
X139764342Y-109214285D01*
X139764342Y-109214285D02*
X139859580Y-109261904D01*
X139859580Y-109261904D02*
X139907200Y-109309523D01*
X139907200Y-109309523D02*
X139954819Y-109404761D01*
X139954819Y-109404761D02*
X139954819Y-109642856D01*
X139954819Y-109642856D02*
X139907200Y-109738094D01*
X139907200Y-109738094D02*
X139859580Y-109785713D01*
X142657200Y-107333332D02*
X142704819Y-107190475D01*
X142704819Y-107190475D02*
X142704819Y-106952380D01*
X142704819Y-106952380D02*
X142657200Y-106857142D01*
X142657200Y-106857142D02*
X142609580Y-106809523D01*
X142609580Y-106809523D02*
X142514342Y-106761904D01*
X142514342Y-106761904D02*
X142419104Y-106761904D01*
X142419104Y-106761904D02*
X142323866Y-106809523D01*
X142323866Y-106809523D02*
X142276247Y-106857142D01*
X142276247Y-106857142D02*
X142228628Y-106952380D01*
X142228628Y-106952380D02*
X142181009Y-107142856D01*
X142181009Y-107142856D02*
X142133390Y-107238094D01*
X142133390Y-107238094D02*
X142085771Y-107285713D01*
X142085771Y-107285713D02*
X141990533Y-107333332D01*
X141990533Y-107333332D02*
X141895295Y-107333332D01*
X141895295Y-107333332D02*
X141800057Y-107285713D01*
X141800057Y-107285713D02*
X141752438Y-107238094D01*
X141752438Y-107238094D02*
X141704819Y-107142856D01*
X141704819Y-107142856D02*
X141704819Y-106904761D01*
X141704819Y-106904761D02*
X141752438Y-106761904D01*
X141704819Y-106428570D02*
X142704819Y-106190475D01*
X142704819Y-106190475D02*
X141990533Y-105999999D01*
X141990533Y-105999999D02*
X142704819Y-105809523D01*
X142704819Y-105809523D02*
X141704819Y-105571428D01*
X142704819Y-104666666D02*
X142704819Y-105238094D01*
X142704819Y-104952380D02*
X141704819Y-104952380D01*
X141704819Y-104952380D02*
X141847676Y-105047618D01*
X141847676Y-105047618D02*
X141942914Y-105142856D01*
X141942914Y-105142856D02*
X141990533Y-105238094D01*
X124143333Y-121454819D02*
X123810000Y-120978628D01*
X123571905Y-121454819D02*
X123571905Y-120454819D01*
X123571905Y-120454819D02*
X123952857Y-120454819D01*
X123952857Y-120454819D02*
X124048095Y-120502438D01*
X124048095Y-120502438D02*
X124095714Y-120550057D01*
X124095714Y-120550057D02*
X124143333Y-120645295D01*
X124143333Y-120645295D02*
X124143333Y-120788152D01*
X124143333Y-120788152D02*
X124095714Y-120883390D01*
X124095714Y-120883390D02*
X124048095Y-120931009D01*
X124048095Y-120931009D02*
X123952857Y-120978628D01*
X123952857Y-120978628D02*
X123571905Y-120978628D01*
X124476667Y-120454819D02*
X125095714Y-120454819D01*
X125095714Y-120454819D02*
X124762381Y-120835771D01*
X124762381Y-120835771D02*
X124905238Y-120835771D01*
X124905238Y-120835771D02*
X125000476Y-120883390D01*
X125000476Y-120883390D02*
X125048095Y-120931009D01*
X125048095Y-120931009D02*
X125095714Y-121026247D01*
X125095714Y-121026247D02*
X125095714Y-121264342D01*
X125095714Y-121264342D02*
X125048095Y-121359580D01*
X125048095Y-121359580D02*
X125000476Y-121407200D01*
X125000476Y-121407200D02*
X124905238Y-121454819D01*
X124905238Y-121454819D02*
X124619524Y-121454819D01*
X124619524Y-121454819D02*
X124524286Y-121407200D01*
X124524286Y-121407200D02*
X124476667Y-121359580D01*
X139954819Y-117166666D02*
X139478628Y-117499999D01*
X139954819Y-117738094D02*
X138954819Y-117738094D01*
X138954819Y-117738094D02*
X138954819Y-117357142D01*
X138954819Y-117357142D02*
X139002438Y-117261904D01*
X139002438Y-117261904D02*
X139050057Y-117214285D01*
X139050057Y-117214285D02*
X139145295Y-117166666D01*
X139145295Y-117166666D02*
X139288152Y-117166666D01*
X139288152Y-117166666D02*
X139383390Y-117214285D01*
X139383390Y-117214285D02*
X139431009Y-117261904D01*
X139431009Y-117261904D02*
X139478628Y-117357142D01*
X139478628Y-117357142D02*
X139478628Y-117738094D01*
X139288152Y-116309523D02*
X139954819Y-116309523D01*
X138907200Y-116547618D02*
X139621485Y-116785713D01*
X139621485Y-116785713D02*
X139621485Y-116166666D01*
X126357142Y-120859580D02*
X126309523Y-120907200D01*
X126309523Y-120907200D02*
X126166666Y-120954819D01*
X126166666Y-120954819D02*
X126071428Y-120954819D01*
X126071428Y-120954819D02*
X125928571Y-120907200D01*
X125928571Y-120907200D02*
X125833333Y-120811961D01*
X125833333Y-120811961D02*
X125785714Y-120716723D01*
X125785714Y-120716723D02*
X125738095Y-120526247D01*
X125738095Y-120526247D02*
X125738095Y-120383390D01*
X125738095Y-120383390D02*
X125785714Y-120192914D01*
X125785714Y-120192914D02*
X125833333Y-120097676D01*
X125833333Y-120097676D02*
X125928571Y-120002438D01*
X125928571Y-120002438D02*
X126071428Y-119954819D01*
X126071428Y-119954819D02*
X126166666Y-119954819D01*
X126166666Y-119954819D02*
X126309523Y-120002438D01*
X126309523Y-120002438D02*
X126357142Y-120050057D01*
X127309523Y-120954819D02*
X126738095Y-120954819D01*
X127023809Y-120954819D02*
X127023809Y-119954819D01*
X127023809Y-119954819D02*
X126928571Y-120097676D01*
X126928571Y-120097676D02*
X126833333Y-120192914D01*
X126833333Y-120192914D02*
X126738095Y-120240533D01*
X127928571Y-119954819D02*
X128023809Y-119954819D01*
X128023809Y-119954819D02*
X128119047Y-120002438D01*
X128119047Y-120002438D02*
X128166666Y-120050057D01*
X128166666Y-120050057D02*
X128214285Y-120145295D01*
X128214285Y-120145295D02*
X128261904Y-120335771D01*
X128261904Y-120335771D02*
X128261904Y-120573866D01*
X128261904Y-120573866D02*
X128214285Y-120764342D01*
X128214285Y-120764342D02*
X128166666Y-120859580D01*
X128166666Y-120859580D02*
X128119047Y-120907200D01*
X128119047Y-120907200D02*
X128023809Y-120954819D01*
X128023809Y-120954819D02*
X127928571Y-120954819D01*
X127928571Y-120954819D02*
X127833333Y-120907200D01*
X127833333Y-120907200D02*
X127785714Y-120859580D01*
X127785714Y-120859580D02*
X127738095Y-120764342D01*
X127738095Y-120764342D02*
X127690476Y-120573866D01*
X127690476Y-120573866D02*
X127690476Y-120335771D01*
X127690476Y-120335771D02*
X127738095Y-120145295D01*
X127738095Y-120145295D02*
X127785714Y-120050057D01*
X127785714Y-120050057D02*
X127833333Y-120002438D01*
X127833333Y-120002438D02*
X127928571Y-119954819D01*
X107357142Y-110784819D02*
X107023809Y-110308628D01*
X106785714Y-110784819D02*
X106785714Y-109784819D01*
X106785714Y-109784819D02*
X107166666Y-109784819D01*
X107166666Y-109784819D02*
X107261904Y-109832438D01*
X107261904Y-109832438D02*
X107309523Y-109880057D01*
X107309523Y-109880057D02*
X107357142Y-109975295D01*
X107357142Y-109975295D02*
X107357142Y-110118152D01*
X107357142Y-110118152D02*
X107309523Y-110213390D01*
X107309523Y-110213390D02*
X107261904Y-110261009D01*
X107261904Y-110261009D02*
X107166666Y-110308628D01*
X107166666Y-110308628D02*
X106785714Y-110308628D01*
X108309523Y-110784819D02*
X107738095Y-110784819D01*
X108023809Y-110784819D02*
X108023809Y-109784819D01*
X108023809Y-109784819D02*
X107928571Y-109927676D01*
X107928571Y-109927676D02*
X107833333Y-110022914D01*
X107833333Y-110022914D02*
X107738095Y-110070533D01*
X109261904Y-110784819D02*
X108690476Y-110784819D01*
X108976190Y-110784819D02*
X108976190Y-109784819D01*
X108976190Y-109784819D02*
X108880952Y-109927676D01*
X108880952Y-109927676D02*
X108785714Y-110022914D01*
X108785714Y-110022914D02*
X108690476Y-110070533D01*
X147359580Y-123054166D02*
X147407200Y-123101785D01*
X147407200Y-123101785D02*
X147454819Y-123244642D01*
X147454819Y-123244642D02*
X147454819Y-123339880D01*
X147454819Y-123339880D02*
X147407200Y-123482737D01*
X147407200Y-123482737D02*
X147311961Y-123577975D01*
X147311961Y-123577975D02*
X147216723Y-123625594D01*
X147216723Y-123625594D02*
X147026247Y-123673213D01*
X147026247Y-123673213D02*
X146883390Y-123673213D01*
X146883390Y-123673213D02*
X146692914Y-123625594D01*
X146692914Y-123625594D02*
X146597676Y-123577975D01*
X146597676Y-123577975D02*
X146502438Y-123482737D01*
X146502438Y-123482737D02*
X146454819Y-123339880D01*
X146454819Y-123339880D02*
X146454819Y-123244642D01*
X146454819Y-123244642D02*
X146502438Y-123101785D01*
X146502438Y-123101785D02*
X146550057Y-123054166D01*
X146788152Y-122197023D02*
X147454819Y-122197023D01*
X146407200Y-122435118D02*
X147121485Y-122673213D01*
X147121485Y-122673213D02*
X147121485Y-122054166D01*
X121859580Y-114142857D02*
X121907200Y-114190476D01*
X121907200Y-114190476D02*
X121954819Y-114333333D01*
X121954819Y-114333333D02*
X121954819Y-114428571D01*
X121954819Y-114428571D02*
X121907200Y-114571428D01*
X121907200Y-114571428D02*
X121811961Y-114666666D01*
X121811961Y-114666666D02*
X121716723Y-114714285D01*
X121716723Y-114714285D02*
X121526247Y-114761904D01*
X121526247Y-114761904D02*
X121383390Y-114761904D01*
X121383390Y-114761904D02*
X121192914Y-114714285D01*
X121192914Y-114714285D02*
X121097676Y-114666666D01*
X121097676Y-114666666D02*
X121002438Y-114571428D01*
X121002438Y-114571428D02*
X120954819Y-114428571D01*
X120954819Y-114428571D02*
X120954819Y-114333333D01*
X120954819Y-114333333D02*
X121002438Y-114190476D01*
X121002438Y-114190476D02*
X121050057Y-114142857D01*
X121954819Y-113190476D02*
X121954819Y-113761904D01*
X121954819Y-113476190D02*
X120954819Y-113476190D01*
X120954819Y-113476190D02*
X121097676Y-113571428D01*
X121097676Y-113571428D02*
X121192914Y-113666666D01*
X121192914Y-113666666D02*
X121240533Y-113761904D01*
X120954819Y-112285714D02*
X120954819Y-112761904D01*
X120954819Y-112761904D02*
X121431009Y-112809523D01*
X121431009Y-112809523D02*
X121383390Y-112761904D01*
X121383390Y-112761904D02*
X121335771Y-112666666D01*
X121335771Y-112666666D02*
X121335771Y-112428571D01*
X121335771Y-112428571D02*
X121383390Y-112333333D01*
X121383390Y-112333333D02*
X121431009Y-112285714D01*
X121431009Y-112285714D02*
X121526247Y-112238095D01*
X121526247Y-112238095D02*
X121764342Y-112238095D01*
X121764342Y-112238095D02*
X121859580Y-112285714D01*
X121859580Y-112285714D02*
X121907200Y-112333333D01*
X121907200Y-112333333D02*
X121954819Y-112428571D01*
X121954819Y-112428571D02*
X121954819Y-112666666D01*
X121954819Y-112666666D02*
X121907200Y-112761904D01*
X121907200Y-112761904D02*
X121859580Y-112809523D01*
X129859580Y-121642857D02*
X129907200Y-121690476D01*
X129907200Y-121690476D02*
X129954819Y-121833333D01*
X129954819Y-121833333D02*
X129954819Y-121928571D01*
X129954819Y-121928571D02*
X129907200Y-122071428D01*
X129907200Y-122071428D02*
X129811961Y-122166666D01*
X129811961Y-122166666D02*
X129716723Y-122214285D01*
X129716723Y-122214285D02*
X129526247Y-122261904D01*
X129526247Y-122261904D02*
X129383390Y-122261904D01*
X129383390Y-122261904D02*
X129192914Y-122214285D01*
X129192914Y-122214285D02*
X129097676Y-122166666D01*
X129097676Y-122166666D02*
X129002438Y-122071428D01*
X129002438Y-122071428D02*
X128954819Y-121928571D01*
X128954819Y-121928571D02*
X128954819Y-121833333D01*
X128954819Y-121833333D02*
X129002438Y-121690476D01*
X129002438Y-121690476D02*
X129050057Y-121642857D01*
X129954819Y-120690476D02*
X129954819Y-121261904D01*
X129954819Y-120976190D02*
X128954819Y-120976190D01*
X128954819Y-120976190D02*
X129097676Y-121071428D01*
X129097676Y-121071428D02*
X129192914Y-121166666D01*
X129192914Y-121166666D02*
X129240533Y-121261904D01*
X129954819Y-119738095D02*
X129954819Y-120309523D01*
X129954819Y-120023809D02*
X128954819Y-120023809D01*
X128954819Y-120023809D02*
X129097676Y-120119047D01*
X129097676Y-120119047D02*
X129192914Y-120214285D01*
X129192914Y-120214285D02*
X129240533Y-120309523D01*
X101666666Y-102999819D02*
X101666666Y-103714104D01*
X101666666Y-103714104D02*
X101619047Y-103856961D01*
X101619047Y-103856961D02*
X101523809Y-103952200D01*
X101523809Y-103952200D02*
X101380952Y-103999819D01*
X101380952Y-103999819D02*
X101285714Y-103999819D01*
X102047619Y-102999819D02*
X102666666Y-102999819D01*
X102666666Y-102999819D02*
X102333333Y-103380771D01*
X102333333Y-103380771D02*
X102476190Y-103380771D01*
X102476190Y-103380771D02*
X102571428Y-103428390D01*
X102571428Y-103428390D02*
X102619047Y-103476009D01*
X102619047Y-103476009D02*
X102666666Y-103571247D01*
X102666666Y-103571247D02*
X102666666Y-103809342D01*
X102666666Y-103809342D02*
X102619047Y-103904580D01*
X102619047Y-103904580D02*
X102571428Y-103952200D01*
X102571428Y-103952200D02*
X102476190Y-103999819D01*
X102476190Y-103999819D02*
X102190476Y-103999819D01*
X102190476Y-103999819D02*
X102095238Y-103952200D01*
X102095238Y-103952200D02*
X102047619Y-103904580D01*
X129359580Y-126666666D02*
X129407200Y-126714285D01*
X129407200Y-126714285D02*
X129454819Y-126857142D01*
X129454819Y-126857142D02*
X129454819Y-126952380D01*
X129454819Y-126952380D02*
X129407200Y-127095237D01*
X129407200Y-127095237D02*
X129311961Y-127190475D01*
X129311961Y-127190475D02*
X129216723Y-127238094D01*
X129216723Y-127238094D02*
X129026247Y-127285713D01*
X129026247Y-127285713D02*
X128883390Y-127285713D01*
X128883390Y-127285713D02*
X128692914Y-127238094D01*
X128692914Y-127238094D02*
X128597676Y-127190475D01*
X128597676Y-127190475D02*
X128502438Y-127095237D01*
X128502438Y-127095237D02*
X128454819Y-126952380D01*
X128454819Y-126952380D02*
X128454819Y-126857142D01*
X128454819Y-126857142D02*
X128502438Y-126714285D01*
X128502438Y-126714285D02*
X128550057Y-126666666D01*
X128454819Y-126333332D02*
X128454819Y-125714285D01*
X128454819Y-125714285D02*
X128835771Y-126047618D01*
X128835771Y-126047618D02*
X128835771Y-125904761D01*
X128835771Y-125904761D02*
X128883390Y-125809523D01*
X128883390Y-125809523D02*
X128931009Y-125761904D01*
X128931009Y-125761904D02*
X129026247Y-125714285D01*
X129026247Y-125714285D02*
X129264342Y-125714285D01*
X129264342Y-125714285D02*
X129359580Y-125761904D01*
X129359580Y-125761904D02*
X129407200Y-125809523D01*
X129407200Y-125809523D02*
X129454819Y-125904761D01*
X129454819Y-125904761D02*
X129454819Y-126190475D01*
X129454819Y-126190475D02*
X129407200Y-126285713D01*
X129407200Y-126285713D02*
X129359580Y-126333332D01*
X130833333Y-123624819D02*
X130500000Y-123148628D01*
X130261905Y-123624819D02*
X130261905Y-122624819D01*
X130261905Y-122624819D02*
X130642857Y-122624819D01*
X130642857Y-122624819D02*
X130738095Y-122672438D01*
X130738095Y-122672438D02*
X130785714Y-122720057D01*
X130785714Y-122720057D02*
X130833333Y-122815295D01*
X130833333Y-122815295D02*
X130833333Y-122958152D01*
X130833333Y-122958152D02*
X130785714Y-123053390D01*
X130785714Y-123053390D02*
X130738095Y-123101009D01*
X130738095Y-123101009D02*
X130642857Y-123148628D01*
X130642857Y-123148628D02*
X130261905Y-123148628D01*
X131785714Y-123624819D02*
X131214286Y-123624819D01*
X131500000Y-123624819D02*
X131500000Y-122624819D01*
X131500000Y-122624819D02*
X131404762Y-122767676D01*
X131404762Y-122767676D02*
X131309524Y-122862914D01*
X131309524Y-122862914D02*
X131214286Y-122910533D01*
X138514580Y-110816666D02*
X138562200Y-110864285D01*
X138562200Y-110864285D02*
X138609819Y-111007142D01*
X138609819Y-111007142D02*
X138609819Y-111102380D01*
X138609819Y-111102380D02*
X138562200Y-111245237D01*
X138562200Y-111245237D02*
X138466961Y-111340475D01*
X138466961Y-111340475D02*
X138371723Y-111388094D01*
X138371723Y-111388094D02*
X138181247Y-111435713D01*
X138181247Y-111435713D02*
X138038390Y-111435713D01*
X138038390Y-111435713D02*
X137847914Y-111388094D01*
X137847914Y-111388094D02*
X137752676Y-111340475D01*
X137752676Y-111340475D02*
X137657438Y-111245237D01*
X137657438Y-111245237D02*
X137609819Y-111102380D01*
X137609819Y-111102380D02*
X137609819Y-111007142D01*
X137609819Y-111007142D02*
X137657438Y-110864285D01*
X137657438Y-110864285D02*
X137705057Y-110816666D01*
X137609819Y-109959523D02*
X137609819Y-110149999D01*
X137609819Y-110149999D02*
X137657438Y-110245237D01*
X137657438Y-110245237D02*
X137705057Y-110292856D01*
X137705057Y-110292856D02*
X137847914Y-110388094D01*
X137847914Y-110388094D02*
X138038390Y-110435713D01*
X138038390Y-110435713D02*
X138419342Y-110435713D01*
X138419342Y-110435713D02*
X138514580Y-110388094D01*
X138514580Y-110388094D02*
X138562200Y-110340475D01*
X138562200Y-110340475D02*
X138609819Y-110245237D01*
X138609819Y-110245237D02*
X138609819Y-110054761D01*
X138609819Y-110054761D02*
X138562200Y-109959523D01*
X138562200Y-109959523D02*
X138514580Y-109911904D01*
X138514580Y-109911904D02*
X138419342Y-109864285D01*
X138419342Y-109864285D02*
X138181247Y-109864285D01*
X138181247Y-109864285D02*
X138086009Y-109911904D01*
X138086009Y-109911904D02*
X138038390Y-109959523D01*
X138038390Y-109959523D02*
X137990771Y-110054761D01*
X137990771Y-110054761D02*
X137990771Y-110245237D01*
X137990771Y-110245237D02*
X138038390Y-110340475D01*
X138038390Y-110340475D02*
X138086009Y-110388094D01*
X138086009Y-110388094D02*
X138181247Y-110435713D01*
X135954819Y-115261904D02*
X136764342Y-115261904D01*
X136764342Y-115261904D02*
X136859580Y-115214285D01*
X136859580Y-115214285D02*
X136907200Y-115166666D01*
X136907200Y-115166666D02*
X136954819Y-115071428D01*
X136954819Y-115071428D02*
X136954819Y-114880952D01*
X136954819Y-114880952D02*
X136907200Y-114785714D01*
X136907200Y-114785714D02*
X136859580Y-114738095D01*
X136859580Y-114738095D02*
X136764342Y-114690476D01*
X136764342Y-114690476D02*
X135954819Y-114690476D01*
X136288152Y-113785714D02*
X136954819Y-113785714D01*
X135907200Y-114023809D02*
X136621485Y-114261904D01*
X136621485Y-114261904D02*
X136621485Y-113642857D01*
X145884819Y-106238094D02*
X144884819Y-106238094D01*
X144884819Y-106238094D02*
X144884819Y-105999999D01*
X144884819Y-105999999D02*
X144932438Y-105857142D01*
X144932438Y-105857142D02*
X145027676Y-105761904D01*
X145027676Y-105761904D02*
X145122914Y-105714285D01*
X145122914Y-105714285D02*
X145313390Y-105666666D01*
X145313390Y-105666666D02*
X145456247Y-105666666D01*
X145456247Y-105666666D02*
X145646723Y-105714285D01*
X145646723Y-105714285D02*
X145741961Y-105761904D01*
X145741961Y-105761904D02*
X145837200Y-105857142D01*
X145837200Y-105857142D02*
X145884819Y-105999999D01*
X145884819Y-105999999D02*
X145884819Y-106238094D01*
X145884819Y-104714285D02*
X145884819Y-105285713D01*
X145884819Y-104999999D02*
X144884819Y-104999999D01*
X144884819Y-104999999D02*
X145027676Y-105095237D01*
X145027676Y-105095237D02*
X145122914Y-105190475D01*
X145122914Y-105190475D02*
X145170533Y-105285713D01*
X122859580Y-107642857D02*
X122907200Y-107690476D01*
X122907200Y-107690476D02*
X122954819Y-107833333D01*
X122954819Y-107833333D02*
X122954819Y-107928571D01*
X122954819Y-107928571D02*
X122907200Y-108071428D01*
X122907200Y-108071428D02*
X122811961Y-108166666D01*
X122811961Y-108166666D02*
X122716723Y-108214285D01*
X122716723Y-108214285D02*
X122526247Y-108261904D01*
X122526247Y-108261904D02*
X122383390Y-108261904D01*
X122383390Y-108261904D02*
X122192914Y-108214285D01*
X122192914Y-108214285D02*
X122097676Y-108166666D01*
X122097676Y-108166666D02*
X122002438Y-108071428D01*
X122002438Y-108071428D02*
X121954819Y-107928571D01*
X121954819Y-107928571D02*
X121954819Y-107833333D01*
X121954819Y-107833333D02*
X122002438Y-107690476D01*
X122002438Y-107690476D02*
X122050057Y-107642857D01*
X122954819Y-106690476D02*
X122954819Y-107261904D01*
X122954819Y-106976190D02*
X121954819Y-106976190D01*
X121954819Y-106976190D02*
X122097676Y-107071428D01*
X122097676Y-107071428D02*
X122192914Y-107166666D01*
X122192914Y-107166666D02*
X122240533Y-107261904D01*
X121954819Y-106357142D02*
X121954819Y-105690476D01*
X121954819Y-105690476D02*
X122954819Y-106119047D01*
X133333333Y-104454819D02*
X133000000Y-103978628D01*
X132761905Y-104454819D02*
X132761905Y-103454819D01*
X132761905Y-103454819D02*
X133142857Y-103454819D01*
X133142857Y-103454819D02*
X133238095Y-103502438D01*
X133238095Y-103502438D02*
X133285714Y-103550057D01*
X133285714Y-103550057D02*
X133333333Y-103645295D01*
X133333333Y-103645295D02*
X133333333Y-103788152D01*
X133333333Y-103788152D02*
X133285714Y-103883390D01*
X133285714Y-103883390D02*
X133238095Y-103931009D01*
X133238095Y-103931009D02*
X133142857Y-103978628D01*
X133142857Y-103978628D02*
X132761905Y-103978628D01*
X133714286Y-103550057D02*
X133761905Y-103502438D01*
X133761905Y-103502438D02*
X133857143Y-103454819D01*
X133857143Y-103454819D02*
X134095238Y-103454819D01*
X134095238Y-103454819D02*
X134190476Y-103502438D01*
X134190476Y-103502438D02*
X134238095Y-103550057D01*
X134238095Y-103550057D02*
X134285714Y-103645295D01*
X134285714Y-103645295D02*
X134285714Y-103740533D01*
X134285714Y-103740533D02*
X134238095Y-103883390D01*
X134238095Y-103883390D02*
X133666667Y-104454819D01*
X133666667Y-104454819D02*
X134285714Y-104454819D01*
X111454819Y-114642857D02*
X110978628Y-114976190D01*
X111454819Y-115214285D02*
X110454819Y-115214285D01*
X110454819Y-115214285D02*
X110454819Y-114833333D01*
X110454819Y-114833333D02*
X110502438Y-114738095D01*
X110502438Y-114738095D02*
X110550057Y-114690476D01*
X110550057Y-114690476D02*
X110645295Y-114642857D01*
X110645295Y-114642857D02*
X110788152Y-114642857D01*
X110788152Y-114642857D02*
X110883390Y-114690476D01*
X110883390Y-114690476D02*
X110931009Y-114738095D01*
X110931009Y-114738095D02*
X110978628Y-114833333D01*
X110978628Y-114833333D02*
X110978628Y-115214285D01*
X111454819Y-113690476D02*
X111454819Y-114261904D01*
X111454819Y-113976190D02*
X110454819Y-113976190D01*
X110454819Y-113976190D02*
X110597676Y-114071428D01*
X110597676Y-114071428D02*
X110692914Y-114166666D01*
X110692914Y-114166666D02*
X110740533Y-114261904D01*
X110550057Y-113309523D02*
X110502438Y-113261904D01*
X110502438Y-113261904D02*
X110454819Y-113166666D01*
X110454819Y-113166666D02*
X110454819Y-112928571D01*
X110454819Y-112928571D02*
X110502438Y-112833333D01*
X110502438Y-112833333D02*
X110550057Y-112785714D01*
X110550057Y-112785714D02*
X110645295Y-112738095D01*
X110645295Y-112738095D02*
X110740533Y-112738095D01*
X110740533Y-112738095D02*
X110883390Y-112785714D01*
X110883390Y-112785714D02*
X111454819Y-113357142D01*
X111454819Y-113357142D02*
X111454819Y-112738095D01*
X116857142Y-119859580D02*
X116809523Y-119907200D01*
X116809523Y-119907200D02*
X116666666Y-119954819D01*
X116666666Y-119954819D02*
X116571428Y-119954819D01*
X116571428Y-119954819D02*
X116428571Y-119907200D01*
X116428571Y-119907200D02*
X116333333Y-119811961D01*
X116333333Y-119811961D02*
X116285714Y-119716723D01*
X116285714Y-119716723D02*
X116238095Y-119526247D01*
X116238095Y-119526247D02*
X116238095Y-119383390D01*
X116238095Y-119383390D02*
X116285714Y-119192914D01*
X116285714Y-119192914D02*
X116333333Y-119097676D01*
X116333333Y-119097676D02*
X116428571Y-119002438D01*
X116428571Y-119002438D02*
X116571428Y-118954819D01*
X116571428Y-118954819D02*
X116666666Y-118954819D01*
X116666666Y-118954819D02*
X116809523Y-119002438D01*
X116809523Y-119002438D02*
X116857142Y-119050057D01*
X117809523Y-119954819D02*
X117238095Y-119954819D01*
X117523809Y-119954819D02*
X117523809Y-118954819D01*
X117523809Y-118954819D02*
X117428571Y-119097676D01*
X117428571Y-119097676D02*
X117333333Y-119192914D01*
X117333333Y-119192914D02*
X117238095Y-119240533D01*
X118380952Y-119383390D02*
X118285714Y-119335771D01*
X118285714Y-119335771D02*
X118238095Y-119288152D01*
X118238095Y-119288152D02*
X118190476Y-119192914D01*
X118190476Y-119192914D02*
X118190476Y-119145295D01*
X118190476Y-119145295D02*
X118238095Y-119050057D01*
X118238095Y-119050057D02*
X118285714Y-119002438D01*
X118285714Y-119002438D02*
X118380952Y-118954819D01*
X118380952Y-118954819D02*
X118571428Y-118954819D01*
X118571428Y-118954819D02*
X118666666Y-119002438D01*
X118666666Y-119002438D02*
X118714285Y-119050057D01*
X118714285Y-119050057D02*
X118761904Y-119145295D01*
X118761904Y-119145295D02*
X118761904Y-119192914D01*
X118761904Y-119192914D02*
X118714285Y-119288152D01*
X118714285Y-119288152D02*
X118666666Y-119335771D01*
X118666666Y-119335771D02*
X118571428Y-119383390D01*
X118571428Y-119383390D02*
X118380952Y-119383390D01*
X118380952Y-119383390D02*
X118285714Y-119431009D01*
X118285714Y-119431009D02*
X118238095Y-119478628D01*
X118238095Y-119478628D02*
X118190476Y-119573866D01*
X118190476Y-119573866D02*
X118190476Y-119764342D01*
X118190476Y-119764342D02*
X118238095Y-119859580D01*
X118238095Y-119859580D02*
X118285714Y-119907200D01*
X118285714Y-119907200D02*
X118380952Y-119954819D01*
X118380952Y-119954819D02*
X118571428Y-119954819D01*
X118571428Y-119954819D02*
X118666666Y-119907200D01*
X118666666Y-119907200D02*
X118714285Y-119859580D01*
X118714285Y-119859580D02*
X118761904Y-119764342D01*
X118761904Y-119764342D02*
X118761904Y-119573866D01*
X118761904Y-119573866D02*
X118714285Y-119478628D01*
X118714285Y-119478628D02*
X118666666Y-119431009D01*
X118666666Y-119431009D02*
X118571428Y-119383390D01*
X136773809Y-108978628D02*
X136773809Y-109454819D01*
X136440476Y-108454819D02*
X136773809Y-108978628D01*
X136773809Y-108978628D02*
X137107142Y-108454819D01*
X137392857Y-108550057D02*
X137440476Y-108502438D01*
X137440476Y-108502438D02*
X137535714Y-108454819D01*
X137535714Y-108454819D02*
X137773809Y-108454819D01*
X137773809Y-108454819D02*
X137869047Y-108502438D01*
X137869047Y-108502438D02*
X137916666Y-108550057D01*
X137916666Y-108550057D02*
X137964285Y-108645295D01*
X137964285Y-108645295D02*
X137964285Y-108740533D01*
X137964285Y-108740533D02*
X137916666Y-108883390D01*
X137916666Y-108883390D02*
X137345238Y-109454819D01*
X137345238Y-109454819D02*
X137964285Y-109454819D01*
X137288095Y-124234819D02*
X137288095Y-125044342D01*
X137288095Y-125044342D02*
X137335714Y-125139580D01*
X137335714Y-125139580D02*
X137383333Y-125187200D01*
X137383333Y-125187200D02*
X137478571Y-125234819D01*
X137478571Y-125234819D02*
X137669047Y-125234819D01*
X137669047Y-125234819D02*
X137764285Y-125187200D01*
X137764285Y-125187200D02*
X137811904Y-125139580D01*
X137811904Y-125139580D02*
X137859523Y-125044342D01*
X137859523Y-125044342D02*
X137859523Y-124234819D01*
X138764285Y-124234819D02*
X138573809Y-124234819D01*
X138573809Y-124234819D02*
X138478571Y-124282438D01*
X138478571Y-124282438D02*
X138430952Y-124330057D01*
X138430952Y-124330057D02*
X138335714Y-124472914D01*
X138335714Y-124472914D02*
X138288095Y-124663390D01*
X138288095Y-124663390D02*
X138288095Y-125044342D01*
X138288095Y-125044342D02*
X138335714Y-125139580D01*
X138335714Y-125139580D02*
X138383333Y-125187200D01*
X138383333Y-125187200D02*
X138478571Y-125234819D01*
X138478571Y-125234819D02*
X138669047Y-125234819D01*
X138669047Y-125234819D02*
X138764285Y-125187200D01*
X138764285Y-125187200D02*
X138811904Y-125139580D01*
X138811904Y-125139580D02*
X138859523Y-125044342D01*
X138859523Y-125044342D02*
X138859523Y-124806247D01*
X138859523Y-124806247D02*
X138811904Y-124711009D01*
X138811904Y-124711009D02*
X138764285Y-124663390D01*
X138764285Y-124663390D02*
X138669047Y-124615771D01*
X138669047Y-124615771D02*
X138478571Y-124615771D01*
X138478571Y-124615771D02*
X138383333Y-124663390D01*
X138383333Y-124663390D02*
X138335714Y-124711009D01*
X138335714Y-124711009D02*
X138288095Y-124806247D01*
X125523809Y-126928628D02*
X125523809Y-127404819D01*
X125190476Y-126404819D02*
X125523809Y-126928628D01*
X125523809Y-126928628D02*
X125857142Y-126404819D01*
X126095238Y-126404819D02*
X126714285Y-126404819D01*
X126714285Y-126404819D02*
X126380952Y-126785771D01*
X126380952Y-126785771D02*
X126523809Y-126785771D01*
X126523809Y-126785771D02*
X126619047Y-126833390D01*
X126619047Y-126833390D02*
X126666666Y-126881009D01*
X126666666Y-126881009D02*
X126714285Y-126976247D01*
X126714285Y-126976247D02*
X126714285Y-127214342D01*
X126714285Y-127214342D02*
X126666666Y-127309580D01*
X126666666Y-127309580D02*
X126619047Y-127357200D01*
X126619047Y-127357200D02*
X126523809Y-127404819D01*
X126523809Y-127404819D02*
X126238095Y-127404819D01*
X126238095Y-127404819D02*
X126142857Y-127357200D01*
X126142857Y-127357200D02*
X126095238Y-127309580D01*
X131859580Y-113642857D02*
X131907200Y-113690476D01*
X131907200Y-113690476D02*
X131954819Y-113833333D01*
X131954819Y-113833333D02*
X131954819Y-113928571D01*
X131954819Y-113928571D02*
X131907200Y-114071428D01*
X131907200Y-114071428D02*
X131811961Y-114166666D01*
X131811961Y-114166666D02*
X131716723Y-114214285D01*
X131716723Y-114214285D02*
X131526247Y-114261904D01*
X131526247Y-114261904D02*
X131383390Y-114261904D01*
X131383390Y-114261904D02*
X131192914Y-114214285D01*
X131192914Y-114214285D02*
X131097676Y-114166666D01*
X131097676Y-114166666D02*
X131002438Y-114071428D01*
X131002438Y-114071428D02*
X130954819Y-113928571D01*
X130954819Y-113928571D02*
X130954819Y-113833333D01*
X130954819Y-113833333D02*
X131002438Y-113690476D01*
X131002438Y-113690476D02*
X131050057Y-113642857D01*
X131954819Y-112690476D02*
X131954819Y-113261904D01*
X131954819Y-112976190D02*
X130954819Y-112976190D01*
X130954819Y-112976190D02*
X131097676Y-113071428D01*
X131097676Y-113071428D02*
X131192914Y-113166666D01*
X131192914Y-113166666D02*
X131240533Y-113261904D01*
X130954819Y-112357142D02*
X130954819Y-111738095D01*
X130954819Y-111738095D02*
X131335771Y-112071428D01*
X131335771Y-112071428D02*
X131335771Y-111928571D01*
X131335771Y-111928571D02*
X131383390Y-111833333D01*
X131383390Y-111833333D02*
X131431009Y-111785714D01*
X131431009Y-111785714D02*
X131526247Y-111738095D01*
X131526247Y-111738095D02*
X131764342Y-111738095D01*
X131764342Y-111738095D02*
X131859580Y-111785714D01*
X131859580Y-111785714D02*
X131907200Y-111833333D01*
X131907200Y-111833333D02*
X131954819Y-111928571D01*
X131954819Y-111928571D02*
X131954819Y-112214285D01*
X131954819Y-112214285D02*
X131907200Y-112309523D01*
X131907200Y-112309523D02*
X131859580Y-112357142D01*
X133359580Y-108166666D02*
X133407200Y-108214285D01*
X133407200Y-108214285D02*
X133454819Y-108357142D01*
X133454819Y-108357142D02*
X133454819Y-108452380D01*
X133454819Y-108452380D02*
X133407200Y-108595237D01*
X133407200Y-108595237D02*
X133311961Y-108690475D01*
X133311961Y-108690475D02*
X133216723Y-108738094D01*
X133216723Y-108738094D02*
X133026247Y-108785713D01*
X133026247Y-108785713D02*
X132883390Y-108785713D01*
X132883390Y-108785713D02*
X132692914Y-108738094D01*
X132692914Y-108738094D02*
X132597676Y-108690475D01*
X132597676Y-108690475D02*
X132502438Y-108595237D01*
X132502438Y-108595237D02*
X132454819Y-108452380D01*
X132454819Y-108452380D02*
X132454819Y-108357142D01*
X132454819Y-108357142D02*
X132502438Y-108214285D01*
X132502438Y-108214285D02*
X132550057Y-108166666D01*
X132454819Y-107833332D02*
X132454819Y-107166666D01*
X132454819Y-107166666D02*
X133454819Y-107595237D01*
X145454819Y-115833333D02*
X146169104Y-115833333D01*
X146169104Y-115833333D02*
X146311961Y-115880952D01*
X146311961Y-115880952D02*
X146407200Y-115976190D01*
X146407200Y-115976190D02*
X146454819Y-116119047D01*
X146454819Y-116119047D02*
X146454819Y-116214285D01*
X145550057Y-115404761D02*
X145502438Y-115357142D01*
X145502438Y-115357142D02*
X145454819Y-115261904D01*
X145454819Y-115261904D02*
X145454819Y-115023809D01*
X145454819Y-115023809D02*
X145502438Y-114928571D01*
X145502438Y-114928571D02*
X145550057Y-114880952D01*
X145550057Y-114880952D02*
X145645295Y-114833333D01*
X145645295Y-114833333D02*
X145740533Y-114833333D01*
X145740533Y-114833333D02*
X145883390Y-114880952D01*
X145883390Y-114880952D02*
X146454819Y-115452380D01*
X146454819Y-115452380D02*
X146454819Y-114833333D01*
X145357142Y-108954819D02*
X145023809Y-108478628D01*
X144785714Y-108954819D02*
X144785714Y-107954819D01*
X144785714Y-107954819D02*
X145166666Y-107954819D01*
X145166666Y-107954819D02*
X145261904Y-108002438D01*
X145261904Y-108002438D02*
X145309523Y-108050057D01*
X145309523Y-108050057D02*
X145357142Y-108145295D01*
X145357142Y-108145295D02*
X145357142Y-108288152D01*
X145357142Y-108288152D02*
X145309523Y-108383390D01*
X145309523Y-108383390D02*
X145261904Y-108431009D01*
X145261904Y-108431009D02*
X145166666Y-108478628D01*
X145166666Y-108478628D02*
X144785714Y-108478628D01*
X146309523Y-108954819D02*
X145738095Y-108954819D01*
X146023809Y-108954819D02*
X146023809Y-107954819D01*
X146023809Y-107954819D02*
X145928571Y-108097676D01*
X145928571Y-108097676D02*
X145833333Y-108192914D01*
X145833333Y-108192914D02*
X145738095Y-108240533D01*
X146928571Y-107954819D02*
X147023809Y-107954819D01*
X147023809Y-107954819D02*
X147119047Y-108002438D01*
X147119047Y-108002438D02*
X147166666Y-108050057D01*
X147166666Y-108050057D02*
X147214285Y-108145295D01*
X147214285Y-108145295D02*
X147261904Y-108335771D01*
X147261904Y-108335771D02*
X147261904Y-108573866D01*
X147261904Y-108573866D02*
X147214285Y-108764342D01*
X147214285Y-108764342D02*
X147166666Y-108859580D01*
X147166666Y-108859580D02*
X147119047Y-108907200D01*
X147119047Y-108907200D02*
X147023809Y-108954819D01*
X147023809Y-108954819D02*
X146928571Y-108954819D01*
X146928571Y-108954819D02*
X146833333Y-108907200D01*
X146833333Y-108907200D02*
X146785714Y-108859580D01*
X146785714Y-108859580D02*
X146738095Y-108764342D01*
X146738095Y-108764342D02*
X146690476Y-108573866D01*
X146690476Y-108573866D02*
X146690476Y-108335771D01*
X146690476Y-108335771D02*
X146738095Y-108145295D01*
X146738095Y-108145295D02*
X146785714Y-108050057D01*
X146785714Y-108050057D02*
X146833333Y-108002438D01*
X146833333Y-108002438D02*
X146928571Y-107954819D01*
X116857142Y-121359580D02*
X116809523Y-121407200D01*
X116809523Y-121407200D02*
X116666666Y-121454819D01*
X116666666Y-121454819D02*
X116571428Y-121454819D01*
X116571428Y-121454819D02*
X116428571Y-121407200D01*
X116428571Y-121407200D02*
X116333333Y-121311961D01*
X116333333Y-121311961D02*
X116285714Y-121216723D01*
X116285714Y-121216723D02*
X116238095Y-121026247D01*
X116238095Y-121026247D02*
X116238095Y-120883390D01*
X116238095Y-120883390D02*
X116285714Y-120692914D01*
X116285714Y-120692914D02*
X116333333Y-120597676D01*
X116333333Y-120597676D02*
X116428571Y-120502438D01*
X116428571Y-120502438D02*
X116571428Y-120454819D01*
X116571428Y-120454819D02*
X116666666Y-120454819D01*
X116666666Y-120454819D02*
X116809523Y-120502438D01*
X116809523Y-120502438D02*
X116857142Y-120550057D01*
X117238095Y-120550057D02*
X117285714Y-120502438D01*
X117285714Y-120502438D02*
X117380952Y-120454819D01*
X117380952Y-120454819D02*
X117619047Y-120454819D01*
X117619047Y-120454819D02*
X117714285Y-120502438D01*
X117714285Y-120502438D02*
X117761904Y-120550057D01*
X117761904Y-120550057D02*
X117809523Y-120645295D01*
X117809523Y-120645295D02*
X117809523Y-120740533D01*
X117809523Y-120740533D02*
X117761904Y-120883390D01*
X117761904Y-120883390D02*
X117190476Y-121454819D01*
X117190476Y-121454819D02*
X117809523Y-121454819D01*
X118428571Y-120454819D02*
X118523809Y-120454819D01*
X118523809Y-120454819D02*
X118619047Y-120502438D01*
X118619047Y-120502438D02*
X118666666Y-120550057D01*
X118666666Y-120550057D02*
X118714285Y-120645295D01*
X118714285Y-120645295D02*
X118761904Y-120835771D01*
X118761904Y-120835771D02*
X118761904Y-121073866D01*
X118761904Y-121073866D02*
X118714285Y-121264342D01*
X118714285Y-121264342D02*
X118666666Y-121359580D01*
X118666666Y-121359580D02*
X118619047Y-121407200D01*
X118619047Y-121407200D02*
X118523809Y-121454819D01*
X118523809Y-121454819D02*
X118428571Y-121454819D01*
X118428571Y-121454819D02*
X118333333Y-121407200D01*
X118333333Y-121407200D02*
X118285714Y-121359580D01*
X118285714Y-121359580D02*
X118238095Y-121264342D01*
X118238095Y-121264342D02*
X118190476Y-121073866D01*
X118190476Y-121073866D02*
X118190476Y-120835771D01*
X118190476Y-120835771D02*
X118238095Y-120645295D01*
X118238095Y-120645295D02*
X118285714Y-120550057D01*
X118285714Y-120550057D02*
X118333333Y-120502438D01*
X118333333Y-120502438D02*
X118428571Y-120454819D01*
X116857142Y-122359580D02*
X116809523Y-122407200D01*
X116809523Y-122407200D02*
X116666666Y-122454819D01*
X116666666Y-122454819D02*
X116571428Y-122454819D01*
X116571428Y-122454819D02*
X116428571Y-122407200D01*
X116428571Y-122407200D02*
X116333333Y-122311961D01*
X116333333Y-122311961D02*
X116285714Y-122216723D01*
X116285714Y-122216723D02*
X116238095Y-122026247D01*
X116238095Y-122026247D02*
X116238095Y-121883390D01*
X116238095Y-121883390D02*
X116285714Y-121692914D01*
X116285714Y-121692914D02*
X116333333Y-121597676D01*
X116333333Y-121597676D02*
X116428571Y-121502438D01*
X116428571Y-121502438D02*
X116571428Y-121454819D01*
X116571428Y-121454819D02*
X116666666Y-121454819D01*
X116666666Y-121454819D02*
X116809523Y-121502438D01*
X116809523Y-121502438D02*
X116857142Y-121550057D01*
X117809523Y-122454819D02*
X117238095Y-122454819D01*
X117523809Y-122454819D02*
X117523809Y-121454819D01*
X117523809Y-121454819D02*
X117428571Y-121597676D01*
X117428571Y-121597676D02*
X117333333Y-121692914D01*
X117333333Y-121692914D02*
X117238095Y-121740533D01*
X118666666Y-121788152D02*
X118666666Y-122454819D01*
X118428571Y-121407200D02*
X118190476Y-122121485D01*
X118190476Y-122121485D02*
X118809523Y-122121485D01*
X117859580Y-118142857D02*
X117907200Y-118190476D01*
X117907200Y-118190476D02*
X117954819Y-118333333D01*
X117954819Y-118333333D02*
X117954819Y-118428571D01*
X117954819Y-118428571D02*
X117907200Y-118571428D01*
X117907200Y-118571428D02*
X117811961Y-118666666D01*
X117811961Y-118666666D02*
X117716723Y-118714285D01*
X117716723Y-118714285D02*
X117526247Y-118761904D01*
X117526247Y-118761904D02*
X117383390Y-118761904D01*
X117383390Y-118761904D02*
X117192914Y-118714285D01*
X117192914Y-118714285D02*
X117097676Y-118666666D01*
X117097676Y-118666666D02*
X117002438Y-118571428D01*
X117002438Y-118571428D02*
X116954819Y-118428571D01*
X116954819Y-118428571D02*
X116954819Y-118333333D01*
X116954819Y-118333333D02*
X117002438Y-118190476D01*
X117002438Y-118190476D02*
X117050057Y-118142857D01*
X117954819Y-117190476D02*
X117954819Y-117761904D01*
X117954819Y-117476190D02*
X116954819Y-117476190D01*
X116954819Y-117476190D02*
X117097676Y-117571428D01*
X117097676Y-117571428D02*
X117192914Y-117666666D01*
X117192914Y-117666666D02*
X117240533Y-117761904D01*
X117954819Y-116714285D02*
X117954819Y-116523809D01*
X117954819Y-116523809D02*
X117907200Y-116428571D01*
X117907200Y-116428571D02*
X117859580Y-116380952D01*
X117859580Y-116380952D02*
X117716723Y-116285714D01*
X117716723Y-116285714D02*
X117526247Y-116238095D01*
X117526247Y-116238095D02*
X117145295Y-116238095D01*
X117145295Y-116238095D02*
X117050057Y-116285714D01*
X117050057Y-116285714D02*
X117002438Y-116333333D01*
X117002438Y-116333333D02*
X116954819Y-116428571D01*
X116954819Y-116428571D02*
X116954819Y-116619047D01*
X116954819Y-116619047D02*
X117002438Y-116714285D01*
X117002438Y-116714285D02*
X117050057Y-116761904D01*
X117050057Y-116761904D02*
X117145295Y-116809523D01*
X117145295Y-116809523D02*
X117383390Y-116809523D01*
X117383390Y-116809523D02*
X117478628Y-116761904D01*
X117478628Y-116761904D02*
X117526247Y-116714285D01*
X117526247Y-116714285D02*
X117573866Y-116619047D01*
X117573866Y-116619047D02*
X117573866Y-116428571D01*
X117573866Y-116428571D02*
X117526247Y-116333333D01*
X117526247Y-116333333D02*
X117478628Y-116285714D01*
X117478628Y-116285714D02*
X117383390Y-116238095D01*
X134954819Y-115642857D02*
X134478628Y-115976190D01*
X134954819Y-116214285D02*
X133954819Y-116214285D01*
X133954819Y-116214285D02*
X133954819Y-115833333D01*
X133954819Y-115833333D02*
X134002438Y-115738095D01*
X134002438Y-115738095D02*
X134050057Y-115690476D01*
X134050057Y-115690476D02*
X134145295Y-115642857D01*
X134145295Y-115642857D02*
X134288152Y-115642857D01*
X134288152Y-115642857D02*
X134383390Y-115690476D01*
X134383390Y-115690476D02*
X134431009Y-115738095D01*
X134431009Y-115738095D02*
X134478628Y-115833333D01*
X134478628Y-115833333D02*
X134478628Y-116214285D01*
X134954819Y-114690476D02*
X134954819Y-115261904D01*
X134954819Y-114976190D02*
X133954819Y-114976190D01*
X133954819Y-114976190D02*
X134097676Y-115071428D01*
X134097676Y-115071428D02*
X134192914Y-115166666D01*
X134192914Y-115166666D02*
X134240533Y-115261904D01*
X133954819Y-113785714D02*
X133954819Y-114261904D01*
X133954819Y-114261904D02*
X134431009Y-114309523D01*
X134431009Y-114309523D02*
X134383390Y-114261904D01*
X134383390Y-114261904D02*
X134335771Y-114166666D01*
X134335771Y-114166666D02*
X134335771Y-113928571D01*
X134335771Y-113928571D02*
X134383390Y-113833333D01*
X134383390Y-113833333D02*
X134431009Y-113785714D01*
X134431009Y-113785714D02*
X134526247Y-113738095D01*
X134526247Y-113738095D02*
X134764342Y-113738095D01*
X134764342Y-113738095D02*
X134859580Y-113785714D01*
X134859580Y-113785714D02*
X134907200Y-113833333D01*
X134907200Y-113833333D02*
X134954819Y-113928571D01*
X134954819Y-113928571D02*
X134954819Y-114166666D01*
X134954819Y-114166666D02*
X134907200Y-114261904D01*
X134907200Y-114261904D02*
X134859580Y-114309523D01*
X142738095Y-122454819D02*
X142738095Y-123264342D01*
X142738095Y-123264342D02*
X142785714Y-123359580D01*
X142785714Y-123359580D02*
X142833333Y-123407200D01*
X142833333Y-123407200D02*
X142928571Y-123454819D01*
X142928571Y-123454819D02*
X143119047Y-123454819D01*
X143119047Y-123454819D02*
X143214285Y-123407200D01*
X143214285Y-123407200D02*
X143261904Y-123359580D01*
X143261904Y-123359580D02*
X143309523Y-123264342D01*
X143309523Y-123264342D02*
X143309523Y-122454819D01*
X143690476Y-122454819D02*
X144309523Y-122454819D01*
X144309523Y-122454819D02*
X143976190Y-122835771D01*
X143976190Y-122835771D02*
X144119047Y-122835771D01*
X144119047Y-122835771D02*
X144214285Y-122883390D01*
X144214285Y-122883390D02*
X144261904Y-122931009D01*
X144261904Y-122931009D02*
X144309523Y-123026247D01*
X144309523Y-123026247D02*
X144309523Y-123264342D01*
X144309523Y-123264342D02*
X144261904Y-123359580D01*
X144261904Y-123359580D02*
X144214285Y-123407200D01*
X144214285Y-123407200D02*
X144119047Y-123454819D01*
X144119047Y-123454819D02*
X143833333Y-123454819D01*
X143833333Y-123454819D02*
X143738095Y-123407200D01*
X143738095Y-123407200D02*
X143690476Y-123359580D01*
X104761905Y-113454819D02*
X104761905Y-112454819D01*
X104761905Y-112454819D02*
X105000000Y-112454819D01*
X105000000Y-112454819D02*
X105142857Y-112502438D01*
X105142857Y-112502438D02*
X105238095Y-112597676D01*
X105238095Y-112597676D02*
X105285714Y-112692914D01*
X105285714Y-112692914D02*
X105333333Y-112883390D01*
X105333333Y-112883390D02*
X105333333Y-113026247D01*
X105333333Y-113026247D02*
X105285714Y-113216723D01*
X105285714Y-113216723D02*
X105238095Y-113311961D01*
X105238095Y-113311961D02*
X105142857Y-113407200D01*
X105142857Y-113407200D02*
X105000000Y-113454819D01*
X105000000Y-113454819D02*
X104761905Y-113454819D01*
X105666667Y-112454819D02*
X106285714Y-112454819D01*
X106285714Y-112454819D02*
X105952381Y-112835771D01*
X105952381Y-112835771D02*
X106095238Y-112835771D01*
X106095238Y-112835771D02*
X106190476Y-112883390D01*
X106190476Y-112883390D02*
X106238095Y-112931009D01*
X106238095Y-112931009D02*
X106285714Y-113026247D01*
X106285714Y-113026247D02*
X106285714Y-113264342D01*
X106285714Y-113264342D02*
X106238095Y-113359580D01*
X106238095Y-113359580D02*
X106190476Y-113407200D01*
X106190476Y-113407200D02*
X106095238Y-113454819D01*
X106095238Y-113454819D02*
X105809524Y-113454819D01*
X105809524Y-113454819D02*
X105714286Y-113407200D01*
X105714286Y-113407200D02*
X105666667Y-113359580D01*
X140454819Y-121666666D02*
X139978628Y-121999999D01*
X140454819Y-122238094D02*
X139454819Y-122238094D01*
X139454819Y-122238094D02*
X139454819Y-121857142D01*
X139454819Y-121857142D02*
X139502438Y-121761904D01*
X139502438Y-121761904D02*
X139550057Y-121714285D01*
X139550057Y-121714285D02*
X139645295Y-121666666D01*
X139645295Y-121666666D02*
X139788152Y-121666666D01*
X139788152Y-121666666D02*
X139883390Y-121714285D01*
X139883390Y-121714285D02*
X139931009Y-121761904D01*
X139931009Y-121761904D02*
X139978628Y-121857142D01*
X139978628Y-121857142D02*
X139978628Y-122238094D01*
X139454819Y-120809523D02*
X139454819Y-120999999D01*
X139454819Y-120999999D02*
X139502438Y-121095237D01*
X139502438Y-121095237D02*
X139550057Y-121142856D01*
X139550057Y-121142856D02*
X139692914Y-121238094D01*
X139692914Y-121238094D02*
X139883390Y-121285713D01*
X139883390Y-121285713D02*
X140264342Y-121285713D01*
X140264342Y-121285713D02*
X140359580Y-121238094D01*
X140359580Y-121238094D02*
X140407200Y-121190475D01*
X140407200Y-121190475D02*
X140454819Y-121095237D01*
X140454819Y-121095237D02*
X140454819Y-120904761D01*
X140454819Y-120904761D02*
X140407200Y-120809523D01*
X140407200Y-120809523D02*
X140359580Y-120761904D01*
X140359580Y-120761904D02*
X140264342Y-120714285D01*
X140264342Y-120714285D02*
X140026247Y-120714285D01*
X140026247Y-120714285D02*
X139931009Y-120761904D01*
X139931009Y-120761904D02*
X139883390Y-120809523D01*
X139883390Y-120809523D02*
X139835771Y-120904761D01*
X139835771Y-120904761D02*
X139835771Y-121095237D01*
X139835771Y-121095237D02*
X139883390Y-121190475D01*
X139883390Y-121190475D02*
X139931009Y-121238094D01*
X139931009Y-121238094D02*
X140026247Y-121285713D01*
D13*
%TO.C,C5*%
X140840000Y-122892164D02*
X140840000Y-123107836D01*
X141560000Y-122892164D02*
X141560000Y-123107836D01*
%TO.C,C2*%
X123610000Y-124892164D02*
X123610000Y-125107836D01*
X122890000Y-124892164D02*
X122890000Y-125107836D01*
%TO.C,C12*%
X129392164Y-109840000D02*
X129607836Y-109840000D01*
X129392164Y-110560000D02*
X129607836Y-110560000D01*
D14*
%TO.C,D2*%
X106130000Y-106900000D02*
X106130000Y-107150000D01*
X106130000Y-109600000D02*
X106130000Y-109350000D01*
X106122715Y-106893853D02*
G75*
G02*
X106730000Y-106400000I1607283J-1356144D01*
G01*
X106734533Y-110091615D02*
G75*
G02*
X106130000Y-109600000I995461J1841607D01*
G01*
X108730000Y-106400000D02*
G75*
G02*
X109580000Y-107250000I-1000006J-1850006D01*
G01*
X109580000Y-109250000D02*
G75*
G02*
X108730000Y-110100000I-1850006J1000006D01*
G01*
D13*
%TO.C,R13*%
X109620000Y-118663641D02*
X109620000Y-118356359D01*
X110380000Y-118663641D02*
X110380000Y-118356359D01*
%TO.C,C1*%
X133640000Y-106892164D02*
X133640000Y-107107836D01*
X134360000Y-106892164D02*
X134360000Y-107107836D01*
D15*
%TO.C,U1*%
X123450000Y-111940000D02*
X124020000Y-111940000D01*
X123450000Y-112510000D02*
X123450000Y-111940000D01*
X123450000Y-112510000D02*
X124020000Y-111940000D01*
X123450000Y-118940000D02*
X123450000Y-118370000D01*
X123550000Y-118940000D02*
X123450000Y-118940000D01*
X123710000Y-111940000D02*
X123710000Y-112040000D01*
X123710000Y-112040000D02*
X123450000Y-112300000D01*
X124020000Y-118940000D02*
X123550000Y-118940000D01*
X129880000Y-111940000D02*
X130450000Y-111940000D01*
X130450000Y-111940000D02*
X130450000Y-112510000D01*
X130450000Y-118370000D02*
X130450000Y-118940000D01*
X130450000Y-118940000D02*
X129880000Y-118940000D01*
X123080000Y-111740000D02*
G75*
G02*
X122820000Y-111740000I-130000J0D01*
G01*
X122820000Y-111740000D02*
G75*
G02*
X123080000Y-111740000I130000J0D01*
G01*
D14*
%TO.C,Button3*%
X113440800Y-123295200D02*
X113440800Y-121200000D01*
X113857200Y-118937400D02*
X119150000Y-118947200D01*
X118550000Y-125541400D02*
X113882600Y-125541400D01*
X119546800Y-123299600D02*
X119796800Y-123299600D01*
X119546800Y-123306200D02*
X119546800Y-121198000D01*
%TO.C,D4*%
X106130000Y-120650000D02*
X106130000Y-120900000D01*
X106130000Y-123350000D02*
X106130000Y-123100000D01*
X106122715Y-120643853D02*
G75*
G02*
X106730000Y-120150000I1607283J-1356144D01*
G01*
X106734533Y-123841615D02*
G75*
G02*
X106130000Y-123350000I995461J1841607D01*
G01*
X108730000Y-120150000D02*
G75*
G02*
X109580000Y-121000000I-1000006J-1850006D01*
G01*
X109580000Y-123000000D02*
G75*
G02*
X108730000Y-123850000I-1850006J1000006D01*
G01*
D16*
%TO.C,C8*%
X102125000Y-127400000D02*
X102125000Y-127400000D01*
X102125000Y-127600000D02*
X102125000Y-127600000D01*
X103825000Y-126700000D02*
X105225000Y-126700000D01*
X103825000Y-128300000D02*
X105225000Y-128300000D01*
X102125000Y-127400000D02*
G75*
G02*
X102125000Y-127600000I0J-100000D01*
G01*
X102125000Y-127600000D02*
G75*
G02*
X102125000Y-127400000I0J100000D01*
G01*
D13*
%TO.C,C16*%
X122587836Y-110640000D02*
X122372164Y-110640000D01*
X122587836Y-111360000D02*
X122372164Y-111360000D01*
%TO.C,U2*%
X125275000Y-104025000D02*
X125275000Y-104285000D01*
X125275000Y-109475000D02*
X125275000Y-109215000D01*
X128000000Y-104025000D02*
X125275000Y-104025000D01*
X128000000Y-104025000D02*
X130725000Y-104025000D01*
X128000000Y-109475000D02*
X125275000Y-109475000D01*
X128000000Y-109475000D02*
X130725000Y-109475000D01*
X130725000Y-104025000D02*
X130725000Y-104285000D01*
X130725000Y-109475000D02*
X130725000Y-109215000D01*
X124492500Y-104285000D02*
X124252500Y-103955000D01*
X124732500Y-103955000D01*
X124492500Y-104285000D01*
G36*
X124492500Y-104285000D02*
G01*
X124252500Y-103955000D01*
X124732500Y-103955000D01*
X124492500Y-104285000D01*
G37*
D16*
%TO.C,C9*%
X102125000Y-101900000D02*
X102125000Y-101900000D01*
X102125000Y-102100000D02*
X102125000Y-102100000D01*
X103825000Y-101200000D02*
X105225000Y-101200000D01*
X103825000Y-102800000D02*
X105225000Y-102800000D01*
X102125000Y-101900000D02*
G75*
G02*
X102125000Y-102100000I0J-100000D01*
G01*
X102125000Y-102100000D02*
G75*
G02*
X102125000Y-101900000I0J100000D01*
G01*
D13*
%TO.C,R5*%
X140370000Y-110346359D02*
X140370000Y-110653641D01*
X141130000Y-110346359D02*
X141130000Y-110653641D01*
%TO.C,SW1*%
X136550000Y-104300000D02*
X136550000Y-104420000D01*
X136550000Y-105430000D02*
X136550000Y-106570000D01*
X136550000Y-107580000D02*
X136550000Y-107700000D01*
X136550000Y-107700000D02*
X140950000Y-107700000D01*
X140950000Y-104300000D02*
X136550000Y-104300000D01*
X140950000Y-104420000D02*
X140950000Y-104300000D01*
X140950000Y-106570000D02*
X140950000Y-105430000D01*
X140950000Y-107700000D02*
X140950000Y-107580000D01*
%TO.C,R3*%
X124856359Y-121620000D02*
X125163641Y-121620000D01*
X124856359Y-122380000D02*
X125163641Y-122380000D01*
%TO.C,R4*%
X140120000Y-117153641D02*
X140120000Y-116846359D01*
X140880000Y-117153641D02*
X140880000Y-116846359D01*
%TO.C,C10*%
X127107836Y-121640000D02*
X126892164Y-121640000D01*
X127107836Y-122360000D02*
X126892164Y-122360000D01*
%TO.C,R11*%
X107846359Y-111120000D02*
X108153641Y-111120000D01*
X107846359Y-111880000D02*
X108153641Y-111880000D01*
%TO.C,C4*%
X145340000Y-122995336D02*
X145340000Y-122779664D01*
X146060000Y-122995336D02*
X146060000Y-122779664D01*
%TO.C,C15*%
X122607836Y-111640000D02*
X122392164Y-111640000D01*
X122607836Y-112360000D02*
X122392164Y-112360000D01*
%TO.C,C11*%
X128340000Y-122392164D02*
X128340000Y-122607836D01*
X129060000Y-122392164D02*
X129060000Y-122607836D01*
%TO.C,J3*%
X100670000Y-104545000D02*
X102000000Y-104545000D01*
X100670000Y-105875000D02*
X100670000Y-104545000D01*
X100670000Y-107145000D02*
X100670000Y-124985000D01*
X100670000Y-107145000D02*
X103330000Y-107145000D01*
X100670000Y-124985000D02*
X103330000Y-124985000D01*
X103330000Y-107145000D02*
X103330000Y-124985000D01*
%TO.C,C3*%
X128340000Y-124607836D02*
X128340000Y-124392164D01*
X129060000Y-124607836D02*
X129060000Y-124392164D01*
D14*
%TO.C,Button2*%
X113440800Y-116045200D02*
X113440800Y-113950000D01*
X113857200Y-111687400D02*
X119150000Y-111697200D01*
X118550000Y-118291400D02*
X113882600Y-118291400D01*
X119546800Y-116049600D02*
X119796800Y-116049600D01*
X119546800Y-116056200D02*
X119546800Y-113948000D01*
D13*
%TO.C,R1*%
X131153641Y-121620000D02*
X130846359Y-121620000D01*
X131153641Y-122380000D02*
X130846359Y-122380000D01*
%TO.C,C6*%
X136635000Y-110542164D02*
X136635000Y-110757836D01*
X137355000Y-110542164D02*
X137355000Y-110757836D01*
%TO.C,U4*%
X139250000Y-112690000D02*
X138450000Y-112690000D01*
X139250000Y-112690000D02*
X140050000Y-112690000D01*
X139250000Y-115810000D02*
X138450000Y-115810000D01*
X139250000Y-115810000D02*
X140050000Y-115810000D01*
X137950000Y-112740000D02*
X137710000Y-112410000D01*
X138190000Y-112410000D01*
X137950000Y-112740000D01*
G36*
X137950000Y-112740000D02*
G01*
X137710000Y-112410000D01*
X138190000Y-112410000D01*
X137950000Y-112740000D01*
G37*
%TO.C,D1*%
X143265000Y-104015000D02*
X143265000Y-106300000D01*
X144735000Y-104015000D02*
X143265000Y-104015000D01*
X144735000Y-106300000D02*
X144735000Y-104015000D01*
D14*
%TO.C,Button1*%
X113440800Y-108795200D02*
X113440800Y-106700000D01*
X113857200Y-104437400D02*
X119150000Y-104447200D01*
X118550000Y-111041400D02*
X113882600Y-111041400D01*
X119546800Y-108799600D02*
X119796800Y-108799600D01*
X119546800Y-108806200D02*
X119546800Y-106698000D01*
D13*
%TO.C,C17*%
X121440000Y-109607836D02*
X121440000Y-109392164D01*
X122160000Y-109607836D02*
X122160000Y-109392164D01*
%TO.C,R2*%
X134153641Y-104620000D02*
X133846359Y-104620000D01*
X134153641Y-105380000D02*
X133846359Y-105380000D01*
%TO.C,R12*%
X110120000Y-112163641D02*
X110120000Y-111856359D01*
X110880000Y-112163641D02*
X110880000Y-111856359D01*
%TO.C,C18*%
X122392164Y-119140000D02*
X122607836Y-119140000D01*
X122392164Y-119860000D02*
X122607836Y-119860000D01*
%TO.C,Y2*%
X132970000Y-112750000D02*
X136270000Y-112750000D01*
X136270000Y-112750000D02*
X136270000Y-108750000D01*
D15*
%TO.C,U6*%
X132550000Y-117300000D02*
X133250000Y-117300000D01*
X132550000Y-118000000D02*
X132550000Y-117300000D01*
X132550000Y-123700000D02*
X132550000Y-123000000D01*
X133250000Y-123700000D02*
X132550000Y-123700000D01*
X138250000Y-117300000D02*
X138950000Y-117300000D01*
X138250000Y-123700000D02*
X138950000Y-123700000D01*
X138950000Y-117300000D02*
X138950000Y-118000000D01*
X138950000Y-123700000D02*
X138950000Y-123000000D01*
D17*
X132150001Y-117470000D02*
X132150001Y-117470000D01*
X132150001Y-117470000D01*
X132150001Y-117470000D01*
X132150001Y-117470000D01*
X132150001Y-117470000D01*
X132150001Y-117470001D01*
X132150001Y-117470001D01*
X132150001Y-117470001D01*
X132150001Y-117470001D01*
X132150001Y-117470001D01*
X132150001Y-117470001D01*
X132150001Y-117470001D01*
X132150000Y-117470001D01*
X132150000Y-117470001D01*
X132150000Y-117470001D01*
X132150000Y-117470001D01*
X132150000Y-117470001D01*
X132150000Y-117470001D01*
X132150000Y-117470001D01*
X132150000Y-117470001D01*
X132150000Y-117470001D01*
X132150000Y-117470001D01*
X132150000Y-117470001D01*
X132150000Y-117470001D01*
X132149999Y-117470001D01*
X132149999Y-117470001D01*
X132149999Y-117470001D01*
X132149999Y-117470001D01*
X132149999Y-117470001D01*
X132149999Y-117470001D01*
X132149999Y-117470000D01*
X132149999Y-117470000D01*
X132149999Y-117470000D01*
X132149999Y-117470000D01*
X132149999Y-117470000D01*
X132149999Y-117470000D01*
X132149999Y-117470000D02*
X132149999Y-117470000D01*
X132149999Y-117470000D01*
X132149999Y-117470000D01*
X132149999Y-117470000D01*
X132149999Y-117470000D01*
X132149999Y-117470000D01*
X132149999Y-117469999D01*
X132149999Y-117469999D01*
X132149999Y-117469999D01*
X132149999Y-117469999D01*
X132149999Y-117469999D01*
X132150000Y-117469999D01*
X132150000Y-117469999D01*
X132150000Y-117469999D01*
X132150000Y-117469999D01*
X132150000Y-117469999D01*
X132150000Y-117469999D01*
X132150000Y-117469999D01*
X132150000Y-117469999D01*
X132150000Y-117469999D01*
X132150000Y-117469999D01*
X132150000Y-117469999D01*
X132150000Y-117469999D01*
X132150001Y-117469999D01*
X132150001Y-117469999D01*
X132150001Y-117469999D01*
X132150001Y-117469999D01*
X132150001Y-117469999D01*
X132150001Y-117469999D01*
X132150001Y-117470000D01*
X132150001Y-117470000D01*
X132150001Y-117470000D01*
X132150001Y-117470000D01*
X132150001Y-117470000D01*
X132150001Y-117470000D01*
X132150001Y-117470000D01*
D13*
%TO.C,J1*%
X130595000Y-128080000D02*
X130595000Y-126750000D01*
X131925000Y-128080000D02*
X130595000Y-128080000D01*
X133195000Y-125420000D02*
X143415000Y-125420000D01*
X133195000Y-128080000D02*
X133195000Y-125420000D01*
X133195000Y-128080000D02*
X143415000Y-128080000D01*
X143415000Y-128080000D02*
X143415000Y-125420000D01*
%TO.C,Y3*%
X128000000Y-126150000D02*
X128000000Y-122850000D01*
X128000000Y-122850000D02*
X124000000Y-122850000D01*
%TO.C,C13*%
X130640000Y-110707836D02*
X130640000Y-110492164D01*
X131360000Y-110707836D02*
X131360000Y-110492164D01*
%TO.C,C7*%
X131885000Y-110757836D02*
X131885000Y-110542164D01*
X132605000Y-110757836D02*
X132605000Y-110542164D01*
%TO.C,J2*%
X141800000Y-117550000D02*
X141800000Y-118350000D01*
X144720000Y-110050000D02*
X146500000Y-110050000D01*
X144720000Y-119450000D02*
X146500000Y-119450000D01*
%TO.C,R10*%
X143653641Y-107620000D02*
X143346359Y-107620000D01*
X143653641Y-108380000D02*
X143346359Y-108380000D01*
%TO.C,C20*%
X122412164Y-120140000D02*
X122627836Y-120140000D01*
X122412164Y-120860000D02*
X122627836Y-120860000D01*
%TO.C,C14*%
X122392164Y-121140000D02*
X122607836Y-121140000D01*
X122392164Y-121860000D02*
X122607836Y-121860000D01*
%TO.C,C19*%
X121640000Y-117892164D02*
X121640000Y-118107836D01*
X122360000Y-117892164D02*
X122360000Y-118107836D01*
%TO.C,R15*%
X133120000Y-115153641D02*
X133120000Y-114846359D01*
X133880000Y-115153641D02*
X133880000Y-114846359D01*
%TO.C,U3*%
X141890000Y-122887500D02*
X141890000Y-122087500D01*
X141890000Y-122887500D02*
X141890000Y-123687500D01*
X145010000Y-122887500D02*
X145010000Y-122087500D01*
X145010000Y-122887500D02*
X145010000Y-123687500D01*
X145290000Y-121827500D02*
X144960000Y-121587500D01*
X145290000Y-121347500D01*
X145290000Y-121827500D01*
G36*
X145290000Y-121827500D02*
G01*
X144960000Y-121587500D01*
X145290000Y-121347500D01*
X145290000Y-121827500D01*
G37*
D14*
%TO.C,D3*%
X106130000Y-113775000D02*
X106130000Y-114025000D01*
X106130000Y-116475000D02*
X106130000Y-116225000D01*
X106122715Y-113768853D02*
G75*
G02*
X106730000Y-113275000I1607283J-1356144D01*
G01*
X106734533Y-116966615D02*
G75*
G02*
X106130000Y-116475000I995461J1841607D01*
G01*
X108730000Y-113275000D02*
G75*
G02*
X109580000Y-114125000I-1000006J-1850006D01*
G01*
X109580000Y-116125000D02*
G75*
G02*
X108730000Y-116975000I-1850006J1000006D01*
G01*
D13*
%TO.C,R6*%
X140120000Y-119653641D02*
X140120000Y-119346359D01*
X140880000Y-119653641D02*
X140880000Y-119346359D01*
%TD*%
M02*
