%TF.GenerationSoftware,KiCad,Pcbnew,8.0.7*%
%TF.CreationDate,2025-04-15T10:47:43+02:00*%
%TF.ProjectId,colobus_hardware,636f6c6f-6275-4735-9f68-617264776172,rev?*%
%TF.SameCoordinates,Original*%
%TF.FileFunction,Soldermask,Bot*%
%TF.FilePolarity,Negative*%
%FSLAX46Y46*%
G04 Gerber Fmt 4.6, Leading zero omitted, Abs format (unit mm)*
G04 Created by KiCad (PCBNEW 8.0.7) date 2025-04-15 10:47:43*
%MOMM*%
%LPD*%
G01*
G04 APERTURE LIST*
%ADD10C,2.100000*%
%ADD11R,2.000000X2.000000*%
%ADD12C,2.000000*%
%ADD13R,2.200000X2.200000*%
%ADD14C,2.200000*%
%ADD15R,1.700000X1.700000*%
%ADD16O,1.700000X1.700000*%
%ADD17C,0.650000*%
%ADD18O,2.100000X1.000000*%
%ADD19O,1.600000X1.000000*%
G04 APERTURE END LIST*
D10*
%TO.C,H1*%
X109750000Y-102500000D03*
%TD*%
D11*
%TO.C,D2*%
X109000000Y-108250000D03*
D12*
X106460000Y-108250000D03*
%TD*%
D13*
%TO.C,Button3*%
X119750000Y-124500000D03*
D14*
X119750000Y-120000000D03*
X113250000Y-124500000D03*
X113250000Y-120000000D03*
%TD*%
D11*
%TO.C,D4*%
X109000000Y-122000000D03*
D12*
X106460000Y-122000000D03*
%TD*%
D15*
%TO.C,J3*%
X102000000Y-105875000D03*
D16*
X102000000Y-108415000D03*
X102000000Y-110955000D03*
X102000000Y-113495000D03*
X102000000Y-116035000D03*
X102000000Y-118575000D03*
X102000000Y-121115000D03*
X102000000Y-123655000D03*
%TD*%
D10*
%TO.C,H3*%
X148000000Y-102500000D03*
%TD*%
D13*
%TO.C,Button2*%
X119750000Y-117250000D03*
D14*
X119750000Y-112750000D03*
X113250000Y-117250000D03*
X113250000Y-112750000D03*
%TD*%
D10*
%TO.C,H4*%
X148000000Y-127000000D03*
%TD*%
D13*
%TO.C,Button1*%
X119750000Y-110000000D03*
D14*
X119750000Y-105500000D03*
X113250000Y-110000000D03*
X113250000Y-105500000D03*
%TD*%
D15*
%TO.C,J1*%
X131925000Y-126750000D03*
D16*
X134465000Y-126750000D03*
X137005000Y-126750000D03*
X139545000Y-126750000D03*
X142085000Y-126750000D03*
%TD*%
D17*
%TO.C,J2*%
X143895000Y-117640000D03*
X143895000Y-111860000D03*
D18*
X143395000Y-119070000D03*
D19*
X147575000Y-119070000D03*
D18*
X143395000Y-110430000D03*
D19*
X147575000Y-110430000D03*
%TD*%
D10*
%TO.C,H2*%
X109750000Y-127000000D03*
%TD*%
D11*
%TO.C,D3*%
X109000000Y-115125000D03*
D12*
X106460000Y-115125000D03*
%TD*%
M02*
