%TF.GenerationSoftware,KiCad,Pcbnew,8.0.7*%
%TF.CreationDate,2025-04-15T10:47:43+02:00*%
%TF.ProjectId,colobus_hardware,636f6c6f-6275-4735-9f68-617264776172,rev?*%
%TF.SameCoordinates,Original*%
%TF.FileFunction,Soldermask,Top*%
%TF.FilePolarity,Negative*%
%FSLAX46Y46*%
G04 Gerber Fmt 4.6, Leading zero omitted, Abs format (unit mm)*
G04 Created by KiCad (PCBNEW 8.0.7) date 2025-04-15 10:47:43*
%MOMM*%
%LPD*%
G01*
G04 APERTURE LIST*
G04 Aperture macros list*
%AMRoundRect*
0 Rectangle with rounded corners*
0 $1 Rounding radius*
0 $2 $3 $4 $5 $6 $7 $8 $9 X,Y pos of 4 corners*
0 Add a 4 corners polygon primitive as box body*
4,1,4,$2,$3,$4,$5,$6,$7,$8,$9,$2,$3,0*
0 Add four circle primitives for the rounded corners*
1,1,$1+$1,$2,$3*
1,1,$1+$1,$4,$5*
1,1,$1+$1,$6,$7*
1,1,$1+$1,$8,$9*
0 Add four rect primitives between the rounded corners*
20,1,$1+$1,$2,$3,$4,$5,0*
20,1,$1+$1,$4,$5,$6,$7,0*
20,1,$1+$1,$6,$7,$8,$9,0*
20,1,$1+$1,$8,$9,$2,$3,0*%
G04 Aperture macros list end*
%ADD10RoundRect,0.140000X-0.170000X0.140000X-0.170000X-0.140000X0.170000X-0.140000X0.170000X0.140000X0*%
%ADD11RoundRect,0.140000X-0.140000X-0.170000X0.140000X-0.170000X0.140000X0.170000X-0.140000X0.170000X0*%
%ADD12C,2.100000*%
%ADD13R,2.000000X2.000000*%
%ADD14C,2.000000*%
%ADD15RoundRect,0.135000X0.185000X-0.135000X0.185000X0.135000X-0.185000X0.135000X-0.185000X-0.135000X0*%
%ADD16R,1.100000X0.200000*%
%ADD17R,0.200000X1.100000*%
%ADD18R,3.100000X3.100000*%
%ADD19R,2.200000X2.200000*%
%ADD20C,2.200000*%
%ADD21R,1.050000X1.600000*%
%ADD22RoundRect,0.140000X0.140000X0.170000X-0.140000X0.170000X-0.140000X-0.170000X0.140000X-0.170000X0*%
%ADD23RoundRect,0.150000X-0.650000X-0.150000X0.650000X-0.150000X0.650000X0.150000X-0.650000X0.150000X0*%
%ADD24RoundRect,0.135000X-0.185000X0.135000X-0.185000X-0.135000X0.185000X-0.135000X0.185000X0.135000X0*%
%ADD25R,1.050000X0.650000*%
%ADD26RoundRect,0.135000X-0.135000X-0.185000X0.135000X-0.185000X0.135000X0.185000X-0.135000X0.185000X0*%
%ADD27RoundRect,0.140000X0.170000X-0.140000X0.170000X0.140000X-0.170000X0.140000X-0.170000X-0.140000X0*%
%ADD28R,1.700000X1.700000*%
%ADD29O,1.700000X1.700000*%
%ADD30RoundRect,0.135000X0.135000X0.185000X-0.135000X0.185000X-0.135000X-0.185000X0.135000X-0.185000X0*%
%ADD31RoundRect,0.150000X-0.512500X-0.150000X0.512500X-0.150000X0.512500X0.150000X-0.512500X0.150000X0*%
%ADD32RoundRect,0.218750X-0.256250X0.218750X-0.256250X-0.218750X0.256250X-0.218750X0.256250X0.218750X0*%
%ADD33R,1.200000X1.400000*%
%ADD34R,1.100000X0.280000*%
%ADD35R,0.280000X1.100000*%
%ADD36R,3.700000X3.700000*%
%ADD37R,1.400000X1.200000*%
%ADD38C,0.650000*%
%ADD39RoundRect,0.150000X0.500000X-0.150000X0.500000X0.150000X-0.500000X0.150000X-0.500000X-0.150000X0*%
%ADD40RoundRect,0.075000X0.575000X-0.075000X0.575000X0.075000X-0.575000X0.075000X-0.575000X-0.075000X0*%
%ADD41O,2.100000X1.000000*%
%ADD42O,1.600000X1.000000*%
%ADD43RoundRect,0.150000X-0.150000X0.512500X-0.150000X-0.512500X0.150000X-0.512500X0.150000X0.512500X0*%
G04 APERTURE END LIST*
D10*
%TO.C,C5*%
X141200000Y-122520000D03*
X141200000Y-123480000D03*
%TD*%
%TO.C,C2*%
X123250000Y-124520000D03*
X123250000Y-125480000D03*
%TD*%
D11*
%TO.C,C12*%
X129020000Y-110200000D03*
X129980000Y-110200000D03*
%TD*%
D12*
%TO.C,H1*%
X109750000Y-102500000D03*
%TD*%
D13*
%TO.C,D2*%
X109000000Y-108250000D03*
D14*
X106460000Y-108250000D03*
%TD*%
D15*
%TO.C,R13*%
X110000000Y-119020000D03*
X110000000Y-118000000D03*
%TD*%
D10*
%TO.C,C1*%
X134000000Y-106520000D03*
X134000000Y-107480000D03*
%TD*%
D16*
%TO.C,U1*%
X123400000Y-112840000D03*
X123400000Y-113240000D03*
X123400000Y-113640000D03*
X123400000Y-114040000D03*
X123400000Y-114440000D03*
X123400000Y-114840000D03*
X123400000Y-115240000D03*
X123400000Y-115640000D03*
X123400000Y-116040000D03*
X123400000Y-116440000D03*
X123400000Y-116840000D03*
X123400000Y-117240000D03*
X123400000Y-117640000D03*
X123400000Y-118040000D03*
D17*
X124350000Y-118990000D03*
X124750000Y-118990000D03*
X125150000Y-118990000D03*
X125550000Y-118990000D03*
X125950000Y-118990000D03*
X126350000Y-118990000D03*
X126750000Y-118990000D03*
X127150000Y-118990000D03*
X127550000Y-118990000D03*
X127950000Y-118990000D03*
X128350000Y-118990000D03*
X128750000Y-118990000D03*
X129150000Y-118990000D03*
X129550000Y-118990000D03*
D16*
X130500000Y-118040000D03*
X130500000Y-117640000D03*
X130500000Y-117240000D03*
X130500000Y-116840000D03*
X130500000Y-116440000D03*
X130500000Y-116040000D03*
X130500000Y-115640000D03*
X130500000Y-115240000D03*
X130500000Y-114840000D03*
X130500000Y-114440000D03*
X130500000Y-114040000D03*
X130500000Y-113640000D03*
X130500000Y-113240000D03*
X130500000Y-112840000D03*
D17*
X129550000Y-111890000D03*
X129150000Y-111890000D03*
X128750000Y-111890000D03*
X128350000Y-111890000D03*
X127950000Y-111890000D03*
X127550000Y-111890000D03*
X127150000Y-111890000D03*
X126750000Y-111890000D03*
X126350000Y-111890000D03*
X125950000Y-111890000D03*
X125550000Y-111890000D03*
X125150000Y-111890000D03*
X124750000Y-111890000D03*
X124350000Y-111890000D03*
D18*
X126950000Y-115440000D03*
%TD*%
D19*
%TO.C,Button3*%
X119750000Y-124500000D03*
D20*
X119750000Y-120000000D03*
X113250000Y-124500000D03*
X113250000Y-120000000D03*
%TD*%
D13*
%TO.C,D4*%
X109000000Y-122000000D03*
D14*
X106460000Y-122000000D03*
%TD*%
D21*
%TO.C,C8*%
X103050000Y-127500000D03*
X106000000Y-127500000D03*
%TD*%
D22*
%TO.C,C16*%
X122960000Y-111000000D03*
X122000000Y-111000000D03*
%TD*%
D23*
%TO.C,U2*%
X124400000Y-104845000D03*
X124400000Y-106115000D03*
X124400000Y-107385000D03*
X124400000Y-108655000D03*
X131600000Y-108655000D03*
X131600000Y-107385000D03*
X131600000Y-106115000D03*
X131600000Y-104845000D03*
%TD*%
D21*
%TO.C,C9*%
X103050000Y-102000000D03*
X106000000Y-102000000D03*
%TD*%
D24*
%TO.C,R5*%
X140750000Y-109990000D03*
X140750000Y-111010000D03*
%TD*%
D25*
%TO.C,SW1*%
X140825000Y-107075000D03*
X136675000Y-107075000D03*
X140825000Y-104925000D03*
X136675000Y-104925000D03*
%TD*%
D26*
%TO.C,R3*%
X124500000Y-122000000D03*
X125520000Y-122000000D03*
%TD*%
D15*
%TO.C,R4*%
X140500000Y-117510000D03*
X140500000Y-116490000D03*
%TD*%
D22*
%TO.C,C10*%
X127480000Y-122000000D03*
X126520000Y-122000000D03*
%TD*%
D26*
%TO.C,R11*%
X107490000Y-111500000D03*
X108510000Y-111500000D03*
%TD*%
D27*
%TO.C,C4*%
X145700000Y-123367500D03*
X145700000Y-122407500D03*
%TD*%
D22*
%TO.C,C15*%
X122980000Y-112000000D03*
X122020000Y-112000000D03*
%TD*%
D10*
%TO.C,C11*%
X128700000Y-122020000D03*
X128700000Y-122980000D03*
%TD*%
D28*
%TO.C,J3*%
X102000000Y-105875000D03*
D29*
X102000000Y-108415000D03*
X102000000Y-110955000D03*
X102000000Y-113495000D03*
X102000000Y-116035000D03*
X102000000Y-118575000D03*
X102000000Y-121115000D03*
X102000000Y-123655000D03*
%TD*%
D12*
%TO.C,H3*%
X148000000Y-102500000D03*
%TD*%
D27*
%TO.C,C3*%
X128700000Y-124980000D03*
X128700000Y-124020000D03*
%TD*%
D19*
%TO.C,Button2*%
X119750000Y-117250000D03*
D20*
X119750000Y-112750000D03*
X113250000Y-117250000D03*
X113250000Y-112750000D03*
%TD*%
D30*
%TO.C,R1*%
X131510000Y-122000000D03*
X130490000Y-122000000D03*
%TD*%
D10*
%TO.C,C6*%
X136995000Y-110170000D03*
X136995000Y-111130000D03*
%TD*%
D12*
%TO.C,H4*%
X148000000Y-127000000D03*
%TD*%
D31*
%TO.C,U4*%
X138112500Y-113300000D03*
X138112500Y-114250000D03*
X138112500Y-115200000D03*
X140387500Y-115200000D03*
X140387500Y-114250000D03*
X140387500Y-113300000D03*
%TD*%
D32*
%TO.C,D1*%
X144000000Y-104712500D03*
X144000000Y-106287500D03*
%TD*%
D19*
%TO.C,Button1*%
X119750000Y-110000000D03*
D20*
X119750000Y-105500000D03*
X113250000Y-110000000D03*
X113250000Y-105500000D03*
%TD*%
D27*
%TO.C,C17*%
X121800000Y-109980000D03*
X121800000Y-109020000D03*
%TD*%
D30*
%TO.C,R2*%
X134510000Y-105000000D03*
X133490000Y-105000000D03*
%TD*%
D15*
%TO.C,R12*%
X110500000Y-112520000D03*
X110500000Y-111500000D03*
%TD*%
D11*
%TO.C,C18*%
X122020000Y-119500000D03*
X122980000Y-119500000D03*
%TD*%
D33*
%TO.C,Y2*%
X135470000Y-111850000D03*
X135470000Y-109650000D03*
X133770000Y-109650000D03*
X133770000Y-111850000D03*
%TD*%
D34*
%TO.C,U6*%
X132780000Y-118500000D03*
X132780000Y-119000000D03*
X132780000Y-119500000D03*
X132780000Y-120000000D03*
X132780000Y-120500000D03*
X132780000Y-121000000D03*
X132780000Y-121500000D03*
X132780000Y-122000000D03*
X132780000Y-122500000D03*
D35*
X133750000Y-123450000D03*
X134240000Y-123450000D03*
X134740000Y-123450000D03*
X135240000Y-123450000D03*
X135740000Y-123450000D03*
X136240000Y-123450000D03*
X136750000Y-123450000D03*
X137250000Y-123450000D03*
X137750000Y-123450000D03*
D34*
X138720000Y-122490000D03*
X138720000Y-121990000D03*
X138720000Y-121490000D03*
X138720000Y-120990000D03*
X138720000Y-120490000D03*
X138720000Y-119990000D03*
X138720000Y-119490000D03*
X138720000Y-118990000D03*
X138720000Y-118490000D03*
D35*
X137730000Y-117510000D03*
X137240000Y-117510000D03*
X136740000Y-117510000D03*
X136230000Y-117510000D03*
X135730000Y-117510000D03*
X135230000Y-117510000D03*
X134730000Y-117510000D03*
X134230000Y-117510000D03*
X133740000Y-117510000D03*
D36*
X135750000Y-120500000D03*
%TD*%
D28*
%TO.C,J1*%
X131925000Y-126750000D03*
D29*
X134465000Y-126750000D03*
X137005000Y-126750000D03*
X139545000Y-126750000D03*
X142085000Y-126750000D03*
%TD*%
D37*
%TO.C,Y3*%
X127100000Y-123650000D03*
X124900000Y-123650000D03*
X124900000Y-125350000D03*
X127100000Y-125350000D03*
%TD*%
D27*
%TO.C,C13*%
X131000000Y-111080000D03*
X131000000Y-110120000D03*
%TD*%
%TO.C,C7*%
X132245000Y-111130000D03*
X132245000Y-110170000D03*
%TD*%
D38*
%TO.C,J2*%
X143895000Y-117640000D03*
X143895000Y-111860000D03*
D39*
X142755000Y-117950000D03*
X142755000Y-117150000D03*
D40*
X142755000Y-116000000D03*
X142755000Y-115000000D03*
X142755000Y-114500000D03*
X142755000Y-113500000D03*
D39*
X142755000Y-112350000D03*
X142755000Y-111550000D03*
X142755000Y-111550000D03*
X142755000Y-112350000D03*
D40*
X142755000Y-113000000D03*
X142755000Y-114000000D03*
X142755000Y-115500000D03*
X142755000Y-116500000D03*
D39*
X142755000Y-117150000D03*
X142755000Y-117950000D03*
D41*
X143395000Y-119070000D03*
D42*
X147575000Y-119070000D03*
D41*
X143395000Y-110430000D03*
D42*
X147575000Y-110430000D03*
%TD*%
D30*
%TO.C,R10*%
X144010000Y-108000000D03*
X142990000Y-108000000D03*
%TD*%
D12*
%TO.C,H2*%
X109750000Y-127000000D03*
%TD*%
D11*
%TO.C,C20*%
X122040000Y-120500000D03*
X123000000Y-120500000D03*
%TD*%
%TO.C,C14*%
X122020000Y-121500000D03*
X122980000Y-121500000D03*
%TD*%
D10*
%TO.C,C19*%
X122000000Y-117520000D03*
X122000000Y-118480000D03*
%TD*%
D15*
%TO.C,R15*%
X133500000Y-115510000D03*
X133500000Y-114490000D03*
%TD*%
D43*
%TO.C,U3*%
X144400000Y-121750000D03*
X142500000Y-121750000D03*
X143450000Y-124025000D03*
%TD*%
D13*
%TO.C,D3*%
X109000000Y-115125000D03*
D14*
X106460000Y-115125000D03*
%TD*%
D15*
%TO.C,R6*%
X140500000Y-120010000D03*
X140500000Y-118990000D03*
%TD*%
M02*
