%TF.GenerationSoftware,KiCad,Pcbnew,8.0.7*%
%TF.CreationDate,2025-04-15T10:47:43+02:00*%
%TF.ProjectId,colobus_hardware,636f6c6f-6275-4735-9f68-617264776172,rev?*%
%TF.SameCoordinates,Original*%
%TF.FileFunction,Copper,L2,Inr*%
%TF.FilePolarity,Positive*%
%FSLAX46Y46*%
G04 Gerber Fmt 4.6, Leading zero omitted, Abs format (unit mm)*
G04 Created by KiCad (PCBNEW 8.0.7) date 2025-04-15 10:47:43*
%MOMM*%
%LPD*%
G01*
G04 APERTURE LIST*
%TA.AperFunction,ComponentPad*%
%ADD10R,2.000000X2.000000*%
%TD*%
%TA.AperFunction,ComponentPad*%
%ADD11C,2.000000*%
%TD*%
%TA.AperFunction,ComponentPad*%
%ADD12R,2.200000X2.200000*%
%TD*%
%TA.AperFunction,ComponentPad*%
%ADD13C,2.200000*%
%TD*%
%TA.AperFunction,ComponentPad*%
%ADD14R,1.700000X1.700000*%
%TD*%
%TA.AperFunction,ComponentPad*%
%ADD15O,1.700000X1.700000*%
%TD*%
%TA.AperFunction,ComponentPad*%
%ADD16O,2.100000X1.000000*%
%TD*%
%TA.AperFunction,ComponentPad*%
%ADD17O,1.600000X1.000000*%
%TD*%
%TA.AperFunction,ViaPad*%
%ADD18C,0.600000*%
%TD*%
G04 APERTURE END LIST*
D10*
%TO.N,GND*%
%TO.C,D2*%
X109000000Y-108250000D03*
D11*
%TO.N,Net-(D2-A)*%
X106460000Y-108250000D03*
%TD*%
D12*
%TO.N,BTN3*%
%TO.C,Button3*%
X119750000Y-124500000D03*
D13*
%TO.N,GND*%
X119750000Y-120000000D03*
%TO.N,N/C*%
X113250000Y-124500000D03*
X113250000Y-120000000D03*
%TD*%
D10*
%TO.N,GND*%
%TO.C,D4*%
X109000000Y-122000000D03*
D11*
%TO.N,Net-(D4-A)*%
X106460000Y-122000000D03*
%TD*%
D14*
%TO.N,GND*%
%TO.C,J3*%
X102000000Y-105875000D03*
D15*
%TO.N,L0p*%
X102000000Y-108415000D03*
%TO.N,L0n*%
X102000000Y-110955000D03*
%TO.N,ID0*%
X102000000Y-113495000D03*
%TO.N,5V*%
X102000000Y-116035000D03*
%TO.N,L1n*%
X102000000Y-118575000D03*
%TO.N,L1p*%
X102000000Y-121115000D03*
%TO.N,ID1*%
X102000000Y-123655000D03*
%TD*%
D12*
%TO.N,BTN2*%
%TO.C,Button2*%
X119750000Y-117250000D03*
D13*
%TO.N,GND*%
X119750000Y-112750000D03*
%TO.N,N/C*%
X113250000Y-117250000D03*
X113250000Y-112750000D03*
%TD*%
D12*
%TO.N,BTN1*%
%TO.C,Button1*%
X119750000Y-110000000D03*
D13*
%TO.N,GND*%
X119750000Y-105500000D03*
%TO.N,N/C*%
X113250000Y-110000000D03*
X113250000Y-105500000D03*
%TD*%
D14*
%TO.N,GND*%
%TO.C,J1*%
X131925000Y-126750000D03*
D15*
%TO.N,SWDCLK*%
X134465000Y-126750000D03*
%TO.N,SWDIO*%
X137005000Y-126750000D03*
%TO.N,~{RESET}*%
X139545000Y-126750000D03*
%TO.N,+3V3*%
X142085000Y-126750000D03*
%TD*%
D16*
%TO.N,GND*%
%TO.C,J2*%
X143395000Y-119070000D03*
D17*
X147575000Y-119070000D03*
D16*
X143395000Y-110430000D03*
D17*
X147575000Y-110430000D03*
%TD*%
D10*
%TO.N,GND*%
%TO.C,D3*%
X109000000Y-115125000D03*
D11*
%TO.N,Net-(D3-A)*%
X106460000Y-115125000D03*
%TD*%
D18*
%TO.N,GND*%
X142000000Y-118000000D03*
%TO.N,L0n*%
X131000000Y-120000000D03*
%TO.N,L0p*%
X131000000Y-120924314D03*
%TO.N,GND*%
X146500000Y-107000000D03*
X138750000Y-106000000D03*
X101000000Y-127500000D03*
X144400000Y-121750000D03*
X126500000Y-105000000D03*
X121500000Y-108500000D03*
X116000000Y-105500000D03*
X106500000Y-118500000D03*
X135000000Y-108000000D03*
X114500000Y-127000000D03*
X136000000Y-119500000D03*
X126000000Y-102000000D03*
X122500000Y-127000000D03*
X116000000Y-112000000D03*
X139500000Y-124500000D03*
X134500000Y-120500000D03*
X136500000Y-102000000D03*
X124000000Y-120000000D03*
X115959720Y-116986234D03*
X117500000Y-120000000D03*
X126500000Y-107500000D03*
X105000000Y-112500000D03*
X148500000Y-123000000D03*
X130000000Y-105000000D03*
X119000000Y-127000000D03*
X146500000Y-114000000D03*
X138500000Y-107500000D03*
X117000000Y-123500000D03*
X129500000Y-125000000D03*
X130500000Y-101500000D03*
X126000000Y-127000000D03*
X137000000Y-120500000D03*
X126750000Y-121250000D03*
X128000000Y-116500000D03*
X107000000Y-125000000D03*
X148500000Y-116000000D03*
X135500000Y-121500000D03*
X114265479Y-101493762D03*
X127500000Y-127000000D03*
X116000000Y-109500000D03*
X139137499Y-114612501D03*
X134000000Y-113000000D03*
X123500000Y-123000000D03*
X133500000Y-114490000D03*
X141200000Y-123367500D03*
X126950000Y-115437500D03*
X141000000Y-108500000D03*
X138500000Y-109000000D03*
X143000000Y-102500000D03*
X126000000Y-114000000D03*
%TO.N,BTN1*%
X121250000Y-115250000D03*
%TO.N,BTN3*%
X121500163Y-116449998D03*
%TO.N,+3V3*%
X122020000Y-122980000D03*
X142000000Y-120500000D03*
X137500000Y-116000000D03*
X126529430Y-117720570D03*
X133500000Y-117000000D03*
X135000000Y-106500000D03*
X135000000Y-124500000D03*
X140500000Y-121500000D03*
X123512500Y-111512500D03*
%TO.N,5V*%
X146438749Y-122938749D03*
X143500000Y-120500000D03*
X141750000Y-117000000D03*
X104500000Y-125500000D03*
X145750000Y-120500000D03*
X101500000Y-101500000D03*
X104000000Y-117500000D03*
X144500000Y-124025000D03*
X104000000Y-115000000D03*
X146500000Y-121500000D03*
X141281170Y-111750000D03*
X139250000Y-111750000D03*
%TO.N,~{RESET}*%
X132750000Y-124500000D03*
%TO.N,Net-(J2-CC2)*%
X138260000Y-111010000D03*
X143750000Y-113000000D03*
%TO.N,L0p*%
X117240000Y-102500000D03*
%TO.N,L1n*%
X122250000Y-113000000D03*
X116000000Y-114000000D03*
%TO.N,L0n*%
X117240000Y-103500000D03*
%TO.N,ID0*%
X115500000Y-115500000D03*
X111500000Y-115000000D03*
%TO.N,LED1*%
X132500000Y-116500000D03*
X135000000Y-103500000D03*
%TO.N,LED2*%
X120500000Y-103500000D03*
X132000000Y-114750000D03*
%TO.N,LED3*%
X132750000Y-113750000D03*
X123000000Y-103500000D03*
%TO.N,LED4*%
X131750000Y-113250000D03*
X109000000Y-118000000D03*
%TO.N,+1V1*%
X130150000Y-111350000D03*
X129250000Y-113500000D03*
%TO.N,PICO_D_N*%
X128000000Y-110000000D03*
X131750000Y-118250000D03*
%TO.N,PICO_D_P*%
X130500000Y-118640002D03*
X127350000Y-110500000D03*
%TO.N,Net-(U1-QSPI_SD0)*%
X125250000Y-110000000D03*
X130000000Y-108750000D03*
%TO.N,GND*%
X135750000Y-120500000D03*
%TD*%
%TA.AperFunction,Conductor*%
%TO.N,GND*%
G36*
X149942539Y-100520185D02*
G01*
X149988294Y-100572989D01*
X149999500Y-100624500D01*
X149999500Y-128875500D01*
X149979815Y-128942539D01*
X149927011Y-128988294D01*
X149875500Y-128999500D01*
X100624500Y-128999500D01*
X100557461Y-128979815D01*
X100511706Y-128927011D01*
X100500500Y-128875500D01*
X100500500Y-126897648D01*
X108449500Y-126897648D01*
X108449500Y-127102351D01*
X108481522Y-127304534D01*
X108544781Y-127499223D01*
X108607032Y-127621395D01*
X108620508Y-127647844D01*
X108637715Y-127681613D01*
X108758028Y-127847213D01*
X108902786Y-127991971D01*
X109051477Y-128099999D01*
X109068390Y-128112287D01*
X109184607Y-128171503D01*
X109250776Y-128205218D01*
X109250778Y-128205218D01*
X109250781Y-128205220D01*
X109355137Y-128239127D01*
X109445465Y-128268477D01*
X109546557Y-128284488D01*
X109647648Y-128300500D01*
X109647649Y-128300500D01*
X109852351Y-128300500D01*
X109852352Y-128300500D01*
X110054534Y-128268477D01*
X110249219Y-128205220D01*
X110431610Y-128112287D01*
X110526494Y-128043350D01*
X110597213Y-127991971D01*
X110597215Y-127991968D01*
X110597219Y-127991966D01*
X110741966Y-127847219D01*
X110741968Y-127847215D01*
X110741971Y-127847213D01*
X110841276Y-127710529D01*
X110862287Y-127681610D01*
X110955220Y-127499219D01*
X111018477Y-127304534D01*
X111050500Y-127102352D01*
X111050500Y-126897648D01*
X111018477Y-126695465D01*
X110973489Y-126557007D01*
X110955220Y-126500781D01*
X110955218Y-126500778D01*
X110955218Y-126500776D01*
X110921503Y-126434607D01*
X110862287Y-126318390D01*
X110852969Y-126305565D01*
X110741971Y-126152786D01*
X110597213Y-126008028D01*
X110431613Y-125887715D01*
X110431612Y-125887714D01*
X110431610Y-125887713D01*
X110342543Y-125842331D01*
X110249223Y-125794781D01*
X110054534Y-125731522D01*
X109879995Y-125703878D01*
X109852352Y-125699500D01*
X109647648Y-125699500D01*
X109623329Y-125703351D01*
X109445465Y-125731522D01*
X109250776Y-125794781D01*
X109068386Y-125887715D01*
X108902786Y-126008028D01*
X108758028Y-126152786D01*
X108637715Y-126318386D01*
X108544781Y-126500776D01*
X108481522Y-126695465D01*
X108449500Y-126897648D01*
X100500500Y-126897648D01*
X100500500Y-125499996D01*
X103694435Y-125499996D01*
X103694435Y-125500003D01*
X103714630Y-125679249D01*
X103714631Y-125679254D01*
X103774211Y-125849523D01*
X103870184Y-126002262D01*
X103997738Y-126129816D01*
X104150478Y-126225789D01*
X104299594Y-126277967D01*
X104320745Y-126285368D01*
X104320750Y-126285369D01*
X104499996Y-126305565D01*
X104500000Y-126305565D01*
X104500004Y-126305565D01*
X104679249Y-126285369D01*
X104679252Y-126285368D01*
X104679255Y-126285368D01*
X104849522Y-126225789D01*
X105002262Y-126129816D01*
X105129816Y-126002262D01*
X105225789Y-125849522D01*
X105285368Y-125679255D01*
X105287773Y-125657913D01*
X105305565Y-125500003D01*
X105305565Y-125499996D01*
X105285369Y-125320750D01*
X105285368Y-125320745D01*
X105225789Y-125150478D01*
X105129816Y-124997738D01*
X105002262Y-124870184D01*
X104936774Y-124829035D01*
X104849523Y-124774211D01*
X104679254Y-124714631D01*
X104679249Y-124714630D01*
X104500004Y-124694435D01*
X104499996Y-124694435D01*
X104320750Y-124714630D01*
X104320745Y-124714631D01*
X104150476Y-124774211D01*
X103997737Y-124870184D01*
X103870184Y-124997737D01*
X103774211Y-125150476D01*
X103714631Y-125320745D01*
X103714630Y-125320750D01*
X103694435Y-125499996D01*
X100500500Y-125499996D01*
X100500500Y-124194196D01*
X100520185Y-124127157D01*
X100572989Y-124081402D01*
X100642147Y-124071458D01*
X100705703Y-124100483D01*
X100736881Y-124141790D01*
X100786805Y-124248852D01*
X100825965Y-124332830D01*
X100825967Y-124332834D01*
X100934281Y-124487521D01*
X100961505Y-124526401D01*
X101128599Y-124693495D01*
X101158786Y-124714632D01*
X101322165Y-124829032D01*
X101322167Y-124829033D01*
X101322170Y-124829035D01*
X101536337Y-124928903D01*
X101764592Y-124990063D01*
X101952918Y-125006539D01*
X101999999Y-125010659D01*
X102000000Y-125010659D01*
X102000001Y-125010659D01*
X102039234Y-125007226D01*
X102235408Y-124990063D01*
X102463663Y-124928903D01*
X102677830Y-124829035D01*
X102871401Y-124693495D01*
X103038495Y-124526401D01*
X103056981Y-124500000D01*
X111644551Y-124500000D01*
X111664317Y-124751151D01*
X111723126Y-124996110D01*
X111819533Y-125228859D01*
X111951160Y-125443653D01*
X111951161Y-125443656D01*
X111986736Y-125485309D01*
X112114776Y-125635224D01*
X112227528Y-125731523D01*
X112306343Y-125798838D01*
X112306346Y-125798839D01*
X112521140Y-125930466D01*
X112708393Y-126008028D01*
X112753889Y-126026873D01*
X112998852Y-126085683D01*
X113250000Y-126105449D01*
X113501148Y-126085683D01*
X113746111Y-126026873D01*
X113978859Y-125930466D01*
X114193659Y-125798836D01*
X114385224Y-125635224D01*
X114548836Y-125443659D01*
X114680466Y-125228859D01*
X114776873Y-124996111D01*
X114835683Y-124751148D01*
X114855449Y-124500000D01*
X114835683Y-124248852D01*
X114776873Y-124003889D01*
X114680466Y-123771141D01*
X114680466Y-123771140D01*
X114548839Y-123556346D01*
X114548838Y-123556343D01*
X114495247Y-123493596D01*
X114385224Y-123364776D01*
X114370423Y-123352135D01*
X118149500Y-123352135D01*
X118149500Y-125647870D01*
X118149501Y-125647876D01*
X118155908Y-125707483D01*
X118206202Y-125842328D01*
X118206206Y-125842335D01*
X118292452Y-125957544D01*
X118292455Y-125957547D01*
X118407664Y-126043793D01*
X118407671Y-126043797D01*
X118542517Y-126094091D01*
X118542516Y-126094091D01*
X118549444Y-126094835D01*
X118602127Y-126100500D01*
X120897872Y-126100499D01*
X120957483Y-126094091D01*
X121092331Y-126043796D01*
X121207546Y-125957546D01*
X121286442Y-125852155D01*
X130575000Y-125852155D01*
X130575000Y-126500000D01*
X131491988Y-126500000D01*
X131459075Y-126557007D01*
X131425000Y-126684174D01*
X131425000Y-126815826D01*
X131459075Y-126942993D01*
X131491988Y-127000000D01*
X130575000Y-127000000D01*
X130575000Y-127647844D01*
X130581401Y-127707372D01*
X130581403Y-127707379D01*
X130631645Y-127842086D01*
X130631649Y-127842093D01*
X130717809Y-127957187D01*
X130717812Y-127957190D01*
X130832906Y-128043350D01*
X130832913Y-128043354D01*
X130967620Y-128093596D01*
X130967627Y-128093598D01*
X131027155Y-128099999D01*
X131027172Y-128100000D01*
X131675000Y-128100000D01*
X131675000Y-127183012D01*
X131732007Y-127215925D01*
X131859174Y-127250000D01*
X131990826Y-127250000D01*
X132117993Y-127215925D01*
X132175000Y-127183012D01*
X132175000Y-128100000D01*
X132822828Y-128100000D01*
X132822844Y-128099999D01*
X132882372Y-128093598D01*
X132882379Y-128093596D01*
X133017086Y-128043354D01*
X133017093Y-128043350D01*
X133132187Y-127957190D01*
X133132190Y-127957187D01*
X133218350Y-127842093D01*
X133218354Y-127842086D01*
X133267422Y-127710529D01*
X133309293Y-127654595D01*
X133374757Y-127630178D01*
X133443030Y-127645030D01*
X133471285Y-127666181D01*
X133593599Y-127788495D01*
X133690384Y-127856265D01*
X133787165Y-127924032D01*
X133787167Y-127924033D01*
X133787170Y-127924035D01*
X134001337Y-128023903D01*
X134229592Y-128085063D01*
X134400319Y-128100000D01*
X134464999Y-128105659D01*
X134465000Y-128105659D01*
X134465001Y-128105659D01*
X134529681Y-128100000D01*
X134700408Y-128085063D01*
X134928663Y-128023903D01*
X135142830Y-127924035D01*
X135336401Y-127788495D01*
X135503495Y-127621401D01*
X135633425Y-127435842D01*
X135688002Y-127392217D01*
X135757500Y-127385023D01*
X135819855Y-127416546D01*
X135836575Y-127435842D01*
X135966500Y-127621395D01*
X135966505Y-127621401D01*
X136133599Y-127788495D01*
X136230384Y-127856265D01*
X136327165Y-127924032D01*
X136327167Y-127924033D01*
X136327170Y-127924035D01*
X136541337Y-128023903D01*
X136769592Y-128085063D01*
X136940319Y-128100000D01*
X137004999Y-128105659D01*
X137005000Y-128105659D01*
X137005001Y-128105659D01*
X137069681Y-128100000D01*
X137240408Y-128085063D01*
X137468663Y-128023903D01*
X137682830Y-127924035D01*
X137876401Y-127788495D01*
X138043495Y-127621401D01*
X138173425Y-127435842D01*
X138228002Y-127392217D01*
X138297500Y-127385023D01*
X138359855Y-127416546D01*
X138376575Y-127435842D01*
X138506500Y-127621395D01*
X138506505Y-127621401D01*
X138673599Y-127788495D01*
X138770384Y-127856265D01*
X138867165Y-127924032D01*
X138867167Y-127924033D01*
X138867170Y-127924035D01*
X139081337Y-128023903D01*
X139309592Y-128085063D01*
X139480319Y-128100000D01*
X139544999Y-128105659D01*
X139545000Y-128105659D01*
X139545001Y-128105659D01*
X139609681Y-128100000D01*
X139780408Y-128085063D01*
X140008663Y-128023903D01*
X140222830Y-127924035D01*
X140416401Y-127788495D01*
X140583495Y-127621401D01*
X140713425Y-127435842D01*
X140768002Y-127392217D01*
X140837500Y-127385023D01*
X140899855Y-127416546D01*
X140916575Y-127435842D01*
X141046500Y-127621395D01*
X141046505Y-127621401D01*
X141213599Y-127788495D01*
X141310384Y-127856265D01*
X141407165Y-127924032D01*
X141407167Y-127924033D01*
X141407170Y-127924035D01*
X141621337Y-128023903D01*
X141849592Y-128085063D01*
X142020319Y-128100000D01*
X142084999Y-128105659D01*
X142085000Y-128105659D01*
X142085001Y-128105659D01*
X142149681Y-128100000D01*
X142320408Y-128085063D01*
X142548663Y-128023903D01*
X142762830Y-127924035D01*
X142956401Y-127788495D01*
X143123495Y-127621401D01*
X143259035Y-127427830D01*
X143358903Y-127213663D01*
X143420063Y-126985408D01*
X143427741Y-126897648D01*
X146699500Y-126897648D01*
X146699500Y-127102351D01*
X146731522Y-127304534D01*
X146794781Y-127499223D01*
X146857032Y-127621395D01*
X146870508Y-127647844D01*
X146887715Y-127681613D01*
X147008028Y-127847213D01*
X147152786Y-127991971D01*
X147301477Y-128099999D01*
X147318390Y-128112287D01*
X147434607Y-128171503D01*
X147500776Y-128205218D01*
X147500778Y-128205218D01*
X147500781Y-128205220D01*
X147605137Y-128239127D01*
X147695465Y-128268477D01*
X147796557Y-128284488D01*
X147897648Y-128300500D01*
X147897649Y-128300500D01*
X148102351Y-128300500D01*
X148102352Y-128300500D01*
X148304534Y-128268477D01*
X148499219Y-128205220D01*
X148681610Y-128112287D01*
X148776494Y-128043350D01*
X148847213Y-127991971D01*
X148847215Y-127991968D01*
X148847219Y-127991966D01*
X148991966Y-127847219D01*
X148991968Y-127847215D01*
X148991971Y-127847213D01*
X149091276Y-127710529D01*
X149112287Y-127681610D01*
X149205220Y-127499219D01*
X149268477Y-127304534D01*
X149300500Y-127102352D01*
X149300500Y-126897648D01*
X149268477Y-126695465D01*
X149223489Y-126557007D01*
X149205220Y-126500781D01*
X149205218Y-126500778D01*
X149205218Y-126500776D01*
X149171503Y-126434607D01*
X149112287Y-126318390D01*
X149102969Y-126305565D01*
X148991971Y-126152786D01*
X148847213Y-126008028D01*
X148681613Y-125887715D01*
X148681612Y-125887714D01*
X148681610Y-125887713D01*
X148592543Y-125842331D01*
X148499223Y-125794781D01*
X148304534Y-125731522D01*
X148129995Y-125703878D01*
X148102352Y-125699500D01*
X147897648Y-125699500D01*
X147873329Y-125703351D01*
X147695465Y-125731522D01*
X147500776Y-125794781D01*
X147318386Y-125887715D01*
X147152786Y-126008028D01*
X147008028Y-126152786D01*
X146887715Y-126318386D01*
X146794781Y-126500776D01*
X146731522Y-126695465D01*
X146699500Y-126897648D01*
X143427741Y-126897648D01*
X143440659Y-126750000D01*
X143420063Y-126514592D01*
X143373626Y-126341285D01*
X143358905Y-126286344D01*
X143358904Y-126286343D01*
X143358903Y-126286337D01*
X143259035Y-126072171D01*
X143253425Y-126064158D01*
X143123494Y-125878597D01*
X142956402Y-125711506D01*
X142956395Y-125711501D01*
X142950655Y-125707482D01*
X142879854Y-125657906D01*
X142762834Y-125575967D01*
X142762830Y-125575965D01*
X142599929Y-125500003D01*
X142548663Y-125476097D01*
X142548659Y-125476096D01*
X142548655Y-125476094D01*
X142320413Y-125414938D01*
X142320403Y-125414936D01*
X142085001Y-125394341D01*
X142084999Y-125394341D01*
X141849596Y-125414936D01*
X141849586Y-125414938D01*
X141621344Y-125476094D01*
X141621335Y-125476098D01*
X141407171Y-125575964D01*
X141407169Y-125575965D01*
X141213597Y-125711505D01*
X141046505Y-125878597D01*
X140916575Y-126064158D01*
X140861998Y-126107783D01*
X140792500Y-126114977D01*
X140730145Y-126083454D01*
X140713425Y-126064158D01*
X140583494Y-125878597D01*
X140416402Y-125711506D01*
X140416395Y-125711501D01*
X140410655Y-125707482D01*
X140339854Y-125657906D01*
X140222834Y-125575967D01*
X140222830Y-125575965D01*
X140059929Y-125500003D01*
X140008663Y-125476097D01*
X140008659Y-125476096D01*
X140008655Y-125476094D01*
X139780413Y-125414938D01*
X139780403Y-125414936D01*
X139545001Y-125394341D01*
X139544999Y-125394341D01*
X139309596Y-125414936D01*
X139309586Y-125414938D01*
X139081344Y-125476094D01*
X139081335Y-125476098D01*
X138867171Y-125575964D01*
X138867169Y-125575965D01*
X138673597Y-125711505D01*
X138506505Y-125878597D01*
X138376575Y-126064158D01*
X138321998Y-126107783D01*
X138252500Y-126114977D01*
X138190145Y-126083454D01*
X138173425Y-126064158D01*
X138043494Y-125878597D01*
X137876402Y-125711506D01*
X137876395Y-125711501D01*
X137870655Y-125707482D01*
X137799854Y-125657906D01*
X137682834Y-125575967D01*
X137682830Y-125575965D01*
X137519929Y-125500003D01*
X137468663Y-125476097D01*
X137468659Y-125476096D01*
X137468655Y-125476094D01*
X137240413Y-125414938D01*
X137240403Y-125414936D01*
X137005001Y-125394341D01*
X137004999Y-125394341D01*
X136769596Y-125414936D01*
X136769586Y-125414938D01*
X136541344Y-125476094D01*
X136541335Y-125476098D01*
X136327171Y-125575964D01*
X136327169Y-125575965D01*
X136133597Y-125711505D01*
X135966505Y-125878597D01*
X135836575Y-126064158D01*
X135781998Y-126107783D01*
X135712500Y-126114977D01*
X135650145Y-126083454D01*
X135633425Y-126064158D01*
X135503494Y-125878597D01*
X135336402Y-125711506D01*
X135336395Y-125711501D01*
X135330655Y-125707482D01*
X135259854Y-125657906D01*
X135142834Y-125575967D01*
X135142830Y-125575965D01*
X135047436Y-125531482D01*
X134994997Y-125485309D01*
X134975845Y-125418116D01*
X134996061Y-125351235D01*
X135049226Y-125305900D01*
X135085958Y-125295880D01*
X135179250Y-125285369D01*
X135179253Y-125285368D01*
X135179255Y-125285368D01*
X135349522Y-125225789D01*
X135502262Y-125129816D01*
X135629816Y-125002262D01*
X135725789Y-124849522D01*
X135785368Y-124679255D01*
X135788122Y-124654815D01*
X135805565Y-124500003D01*
X135805565Y-124499996D01*
X135785369Y-124320750D01*
X135785368Y-124320745D01*
X135725789Y-124150478D01*
X135711135Y-124127157D01*
X135676137Y-124071458D01*
X135646943Y-124024996D01*
X143694435Y-124024996D01*
X143694435Y-124025003D01*
X143714630Y-124204249D01*
X143714631Y-124204254D01*
X143774211Y-124374523D01*
X143853052Y-124499996D01*
X143870184Y-124527262D01*
X143997738Y-124654816D01*
X144059292Y-124693493D01*
X144092934Y-124714632D01*
X144150478Y-124750789D01*
X144320745Y-124810368D01*
X144320750Y-124810369D01*
X144499996Y-124830565D01*
X144500000Y-124830565D01*
X144500004Y-124830565D01*
X144679249Y-124810369D01*
X144679252Y-124810368D01*
X144679255Y-124810368D01*
X144849522Y-124750789D01*
X145002262Y-124654816D01*
X145129816Y-124527262D01*
X145225789Y-124374522D01*
X145285368Y-124204255D01*
X145285369Y-124204249D01*
X145305565Y-124025003D01*
X145305565Y-124024996D01*
X145285369Y-123845750D01*
X145285368Y-123845745D01*
X145259263Y-123771141D01*
X145225789Y-123675478D01*
X145218914Y-123664537D01*
X145129815Y-123522737D01*
X145002262Y-123395184D01*
X144849523Y-123299211D01*
X144679254Y-123239631D01*
X144679249Y-123239630D01*
X144500004Y-123219435D01*
X144499996Y-123219435D01*
X144320750Y-123239630D01*
X144320745Y-123239631D01*
X144150476Y-123299211D01*
X143997737Y-123395184D01*
X143870184Y-123522737D01*
X143774211Y-123675476D01*
X143714631Y-123845745D01*
X143714630Y-123845750D01*
X143694435Y-124024996D01*
X135646943Y-124024996D01*
X135629816Y-123997738D01*
X135502262Y-123870184D01*
X135463368Y-123845745D01*
X135349523Y-123774211D01*
X135179254Y-123714631D01*
X135179249Y-123714630D01*
X135000004Y-123694435D01*
X134999996Y-123694435D01*
X134820750Y-123714630D01*
X134820745Y-123714631D01*
X134650476Y-123774211D01*
X134497737Y-123870184D01*
X134370184Y-123997737D01*
X134274211Y-124150476D01*
X134214631Y-124320745D01*
X134214630Y-124320750D01*
X134194435Y-124499996D01*
X134194435Y-124500003D01*
X134214630Y-124679249D01*
X134214631Y-124679254D01*
X134274211Y-124849523D01*
X134362518Y-124990061D01*
X134370184Y-125002262D01*
X134497738Y-125129816D01*
X134546854Y-125160677D01*
X134557180Y-125167166D01*
X134603471Y-125219501D01*
X134614119Y-125288555D01*
X134585744Y-125352403D01*
X134527354Y-125390775D01*
X134480402Y-125395688D01*
X134465004Y-125394341D01*
X134464999Y-125394341D01*
X134229596Y-125414936D01*
X134229586Y-125414938D01*
X134001344Y-125476094D01*
X134001335Y-125476098D01*
X133787171Y-125575964D01*
X133787169Y-125575965D01*
X133593600Y-125711503D01*
X133471284Y-125833819D01*
X133409961Y-125867303D01*
X133340269Y-125862319D01*
X133284336Y-125820447D01*
X133267421Y-125789470D01*
X133218354Y-125657913D01*
X133218350Y-125657906D01*
X133132190Y-125542812D01*
X133132187Y-125542809D01*
X133019477Y-125458434D01*
X132977606Y-125402501D01*
X132972622Y-125332809D01*
X133006108Y-125271486D01*
X133052834Y-125242126D01*
X133090748Y-125228859D01*
X133099522Y-125225789D01*
X133252262Y-125129816D01*
X133379816Y-125002262D01*
X133475789Y-124849522D01*
X133535368Y-124679255D01*
X133538122Y-124654815D01*
X133555565Y-124500003D01*
X133555565Y-124499996D01*
X133535369Y-124320750D01*
X133535368Y-124320745D01*
X133475789Y-124150478D01*
X133461135Y-124127157D01*
X133426137Y-124071458D01*
X133379816Y-123997738D01*
X133252262Y-123870184D01*
X133213368Y-123845745D01*
X133099523Y-123774211D01*
X132929254Y-123714631D01*
X132929249Y-123714630D01*
X132750004Y-123694435D01*
X132749996Y-123694435D01*
X132570750Y-123714630D01*
X132570745Y-123714631D01*
X132400476Y-123774211D01*
X132247737Y-123870184D01*
X132120184Y-123997737D01*
X132024211Y-124150476D01*
X131964631Y-124320745D01*
X131964630Y-124320750D01*
X131944435Y-124499996D01*
X131944435Y-124500003D01*
X131964630Y-124679249D01*
X131964631Y-124679254D01*
X132024211Y-124849523D01*
X132112518Y-124990061D01*
X132120184Y-125002262D01*
X132247738Y-125129816D01*
X132313292Y-125171006D01*
X132359583Y-125223341D01*
X132370231Y-125292394D01*
X132341856Y-125356243D01*
X132283467Y-125394615D01*
X132247320Y-125400000D01*
X132175000Y-125400000D01*
X132175000Y-126316988D01*
X132117993Y-126284075D01*
X131990826Y-126250000D01*
X131859174Y-126250000D01*
X131732007Y-126284075D01*
X131675000Y-126316988D01*
X131675000Y-125400000D01*
X131027155Y-125400000D01*
X130967627Y-125406401D01*
X130967620Y-125406403D01*
X130832913Y-125456645D01*
X130832906Y-125456649D01*
X130717812Y-125542809D01*
X130717809Y-125542812D01*
X130631649Y-125657906D01*
X130631645Y-125657913D01*
X130581403Y-125792620D01*
X130581401Y-125792627D01*
X130575000Y-125852155D01*
X121286442Y-125852155D01*
X121293796Y-125842331D01*
X121344091Y-125707483D01*
X121350500Y-125647873D01*
X121350499Y-123729093D01*
X121370184Y-123662055D01*
X121422987Y-123616300D01*
X121492146Y-123606356D01*
X121540470Y-123624099D01*
X121670478Y-123705789D01*
X121737080Y-123729094D01*
X121840745Y-123765368D01*
X121840750Y-123765369D01*
X122019996Y-123785565D01*
X122020000Y-123785565D01*
X122020004Y-123785565D01*
X122199249Y-123765369D01*
X122199252Y-123765368D01*
X122199255Y-123765368D01*
X122369522Y-123705789D01*
X122522262Y-123609816D01*
X122649816Y-123482262D01*
X122745789Y-123329522D01*
X122805368Y-123159255D01*
X122805369Y-123159249D01*
X122825565Y-122980003D01*
X122825565Y-122979996D01*
X122805369Y-122800750D01*
X122805368Y-122800745D01*
X122745788Y-122630476D01*
X122663804Y-122500000D01*
X122649816Y-122477738D01*
X122522262Y-122350184D01*
X122369523Y-122254211D01*
X122199254Y-122194631D01*
X122199249Y-122194630D01*
X122020004Y-122174435D01*
X122019996Y-122174435D01*
X121840750Y-122194630D01*
X121840745Y-122194631D01*
X121670476Y-122254211D01*
X121517737Y-122350184D01*
X121390184Y-122477737D01*
X121294211Y-122630476D01*
X121234631Y-122800745D01*
X121234631Y-122800748D01*
X121229861Y-122843081D01*
X121202794Y-122907494D01*
X121145199Y-122947049D01*
X121075362Y-122949186D01*
X121063309Y-122945378D01*
X120957485Y-122905909D01*
X120957483Y-122905908D01*
X120897883Y-122899501D01*
X120897881Y-122899500D01*
X120897873Y-122899500D01*
X120897864Y-122899500D01*
X118602129Y-122899500D01*
X118602123Y-122899501D01*
X118542516Y-122905908D01*
X118407671Y-122956202D01*
X118407664Y-122956206D01*
X118292455Y-123042452D01*
X118292452Y-123042455D01*
X118206206Y-123157664D01*
X118206202Y-123157671D01*
X118155908Y-123292517D01*
X118149501Y-123352116D01*
X118149500Y-123352135D01*
X114370423Y-123352135D01*
X114241581Y-123242093D01*
X114193656Y-123201161D01*
X114193653Y-123201160D01*
X113978859Y-123069533D01*
X113746110Y-122973126D01*
X113501151Y-122914317D01*
X113250000Y-122894551D01*
X112998848Y-122914317D01*
X112753889Y-122973126D01*
X112521140Y-123069533D01*
X112306346Y-123201160D01*
X112306343Y-123201161D01*
X112114776Y-123364776D01*
X111951161Y-123556343D01*
X111951160Y-123556346D01*
X111819533Y-123771140D01*
X111723126Y-124003889D01*
X111664317Y-124248848D01*
X111644551Y-124500000D01*
X103056981Y-124500000D01*
X103174035Y-124332830D01*
X103273903Y-124118663D01*
X103335063Y-123890408D01*
X103355659Y-123655000D01*
X103335063Y-123419592D01*
X103284725Y-123231726D01*
X103273905Y-123191344D01*
X103273904Y-123191343D01*
X103273903Y-123191337D01*
X103174035Y-122977171D01*
X103171204Y-122973127D01*
X103038494Y-122783597D01*
X102871402Y-122616506D01*
X102871396Y-122616501D01*
X102685842Y-122486575D01*
X102642217Y-122431998D01*
X102635023Y-122362500D01*
X102666546Y-122300145D01*
X102685842Y-122283425D01*
X102755048Y-122234966D01*
X102871401Y-122153495D01*
X103024902Y-121999994D01*
X104954357Y-121999994D01*
X104954357Y-122000005D01*
X104974890Y-122247812D01*
X104974892Y-122247824D01*
X105035936Y-122488881D01*
X105135826Y-122716606D01*
X105271833Y-122924782D01*
X105290793Y-122945378D01*
X105440256Y-123107738D01*
X105636491Y-123260474D01*
X105636493Y-123260475D01*
X105805830Y-123352116D01*
X105855190Y-123378828D01*
X106090386Y-123459571D01*
X106335665Y-123500500D01*
X106584335Y-123500500D01*
X106829614Y-123459571D01*
X107064810Y-123378828D01*
X107283509Y-123260474D01*
X107367201Y-123195333D01*
X107432192Y-123169692D01*
X107500732Y-123183258D01*
X107551057Y-123231726D01*
X107552290Y-123234361D01*
X107552396Y-123234304D01*
X107556649Y-123242093D01*
X107642809Y-123357187D01*
X107642812Y-123357190D01*
X107757906Y-123443350D01*
X107757913Y-123443354D01*
X107892620Y-123493596D01*
X107892627Y-123493598D01*
X107952155Y-123499999D01*
X107952172Y-123500000D01*
X108750000Y-123500000D01*
X108750000Y-122433012D01*
X108807007Y-122465925D01*
X108934174Y-122500000D01*
X109065826Y-122500000D01*
X109192993Y-122465925D01*
X109250000Y-122433012D01*
X109250000Y-123500000D01*
X110047828Y-123500000D01*
X110047844Y-123499999D01*
X110107372Y-123493598D01*
X110107379Y-123493596D01*
X110242086Y-123443354D01*
X110242093Y-123443350D01*
X110357187Y-123357190D01*
X110357190Y-123357187D01*
X110443350Y-123242093D01*
X110443354Y-123242086D01*
X110493596Y-123107379D01*
X110493598Y-123107372D01*
X110499999Y-123047844D01*
X110500000Y-123047827D01*
X110500000Y-122250000D01*
X109433012Y-122250000D01*
X109465925Y-122192993D01*
X109500000Y-122065826D01*
X109500000Y-121934174D01*
X109465925Y-121807007D01*
X109433012Y-121750000D01*
X110500000Y-121750000D01*
X110500000Y-120952172D01*
X110499999Y-120952155D01*
X110493598Y-120892627D01*
X110493596Y-120892620D01*
X110443354Y-120757913D01*
X110443350Y-120757906D01*
X110357190Y-120642812D01*
X110357187Y-120642809D01*
X110242093Y-120556649D01*
X110242086Y-120556645D01*
X110107379Y-120506403D01*
X110107372Y-120506401D01*
X110047844Y-120500000D01*
X109250000Y-120500000D01*
X109250000Y-121566988D01*
X109192993Y-121534075D01*
X109065826Y-121500000D01*
X108934174Y-121500000D01*
X108807007Y-121534075D01*
X108750000Y-121566988D01*
X108750000Y-120500000D01*
X107952155Y-120500000D01*
X107892627Y-120506401D01*
X107892620Y-120506403D01*
X107757913Y-120556645D01*
X107757906Y-120556649D01*
X107642812Y-120642809D01*
X107642809Y-120642812D01*
X107556649Y-120757906D01*
X107552396Y-120765696D01*
X107549217Y-120763960D01*
X107517596Y-120806135D01*
X107452113Y-120830502D01*
X107383851Y-120815598D01*
X107367199Y-120804665D01*
X107335933Y-120780330D01*
X107283509Y-120739526D01*
X107283507Y-120739525D01*
X107283506Y-120739524D01*
X107064811Y-120621172D01*
X107064802Y-120621169D01*
X106829616Y-120540429D01*
X106584335Y-120499500D01*
X106335665Y-120499500D01*
X106090383Y-120540429D01*
X105855197Y-120621169D01*
X105855188Y-120621172D01*
X105636493Y-120739524D01*
X105456542Y-120879586D01*
X105440256Y-120892262D01*
X105439920Y-120892627D01*
X105271833Y-121075217D01*
X105135826Y-121283393D01*
X105035936Y-121511118D01*
X104974892Y-121752175D01*
X104974890Y-121752187D01*
X104954357Y-121999994D01*
X103024902Y-121999994D01*
X103038495Y-121986401D01*
X103174035Y-121792830D01*
X103273903Y-121578663D01*
X103335063Y-121350408D01*
X103355659Y-121115000D01*
X103335063Y-120879592D01*
X103282921Y-120684994D01*
X103273905Y-120651344D01*
X103273904Y-120651343D01*
X103273903Y-120651337D01*
X103174035Y-120437171D01*
X103145337Y-120396185D01*
X103038494Y-120243597D01*
X102871402Y-120076506D01*
X102871396Y-120076501D01*
X102685842Y-119946575D01*
X102642217Y-119891998D01*
X102635023Y-119822500D01*
X102666546Y-119760145D01*
X102685842Y-119743425D01*
X102708026Y-119727891D01*
X102871401Y-119613495D01*
X103038495Y-119446401D01*
X103174035Y-119252830D01*
X103273903Y-119038663D01*
X103335063Y-118810408D01*
X103355659Y-118575000D01*
X103335063Y-118339592D01*
X103316314Y-118269618D01*
X103317977Y-118199769D01*
X103357140Y-118141907D01*
X103421368Y-118114403D01*
X103490271Y-118125990D01*
X103502056Y-118132529D01*
X103650478Y-118225789D01*
X103775737Y-118269619D01*
X103820745Y-118285368D01*
X103820750Y-118285369D01*
X103999996Y-118305565D01*
X104000000Y-118305565D01*
X104000004Y-118305565D01*
X104179249Y-118285369D01*
X104179252Y-118285368D01*
X104179255Y-118285368D01*
X104349522Y-118225789D01*
X104502262Y-118129816D01*
X104629816Y-118002262D01*
X104631240Y-117999996D01*
X108194435Y-117999996D01*
X108194435Y-118000003D01*
X108214630Y-118179249D01*
X108214631Y-118179254D01*
X108274211Y-118349523D01*
X108370184Y-118502262D01*
X108497738Y-118629816D01*
X108588080Y-118686582D01*
X108611287Y-118701164D01*
X108650478Y-118725789D01*
X108776826Y-118770000D01*
X108820745Y-118785368D01*
X108820750Y-118785369D01*
X108999996Y-118805565D01*
X109000000Y-118805565D01*
X109000004Y-118805565D01*
X109179249Y-118785369D01*
X109179252Y-118785368D01*
X109179255Y-118785368D01*
X109349522Y-118725789D01*
X109502262Y-118629816D01*
X109629816Y-118502262D01*
X109725789Y-118349522D01*
X109785368Y-118179255D01*
X109785703Y-118176281D01*
X109805565Y-118000003D01*
X109805565Y-117999996D01*
X109785369Y-117820750D01*
X109785368Y-117820745D01*
X109748634Y-117715765D01*
X109725789Y-117650478D01*
X109629816Y-117497738D01*
X109502262Y-117370184D01*
X109434331Y-117327500D01*
X109349523Y-117274211D01*
X109280332Y-117250000D01*
X111644551Y-117250000D01*
X111664317Y-117501151D01*
X111723126Y-117746110D01*
X111819533Y-117978859D01*
X111951160Y-118193653D01*
X111951161Y-118193656D01*
X111983726Y-118231784D01*
X112114776Y-118385224D01*
X112203208Y-118460752D01*
X112285118Y-118530710D01*
X112323311Y-118589217D01*
X112323809Y-118659085D01*
X112286456Y-118718131D01*
X112285118Y-118719290D01*
X112114776Y-118864776D01*
X111951161Y-119056343D01*
X111951161Y-119056345D01*
X111819533Y-119271140D01*
X111723126Y-119503889D01*
X111664317Y-119748848D01*
X111644551Y-120000000D01*
X111664317Y-120251151D01*
X111723126Y-120496110D01*
X111819533Y-120728859D01*
X111951160Y-120943653D01*
X111951161Y-120943656D01*
X111980568Y-120978087D01*
X112114776Y-121135224D01*
X112220813Y-121225788D01*
X112306343Y-121298838D01*
X112306346Y-121298839D01*
X112521140Y-121430466D01*
X112689019Y-121500003D01*
X112753889Y-121526873D01*
X112998852Y-121585683D01*
X113250000Y-121605449D01*
X113501148Y-121585683D01*
X113746111Y-121526873D01*
X113978859Y-121430466D01*
X114193659Y-121298836D01*
X114385224Y-121135224D01*
X114548836Y-120943659D01*
X114680466Y-120728859D01*
X114776873Y-120496111D01*
X114835683Y-120251148D01*
X114855449Y-120000000D01*
X118145052Y-120000000D01*
X118164812Y-120251072D01*
X118223603Y-120495956D01*
X118319980Y-120728631D01*
X118451568Y-120943362D01*
X118452266Y-120944179D01*
X119185387Y-120211058D01*
X119190889Y-120231591D01*
X119269881Y-120368408D01*
X119381592Y-120480119D01*
X119518409Y-120559111D01*
X119538940Y-120564612D01*
X118805819Y-121297732D01*
X118805819Y-121297733D01*
X118806634Y-121298429D01*
X119021368Y-121430019D01*
X119254043Y-121526396D01*
X119498927Y-121585187D01*
X119750000Y-121604947D01*
X120001072Y-121585187D01*
X120245956Y-121526396D01*
X120478631Y-121430019D01*
X120693361Y-121298432D01*
X120693363Y-121298430D01*
X120694180Y-121297732D01*
X119961059Y-120564612D01*
X119981591Y-120559111D01*
X120118408Y-120480119D01*
X120230119Y-120368408D01*
X120309111Y-120231591D01*
X120314612Y-120211059D01*
X121047732Y-120944180D01*
X121048430Y-120943363D01*
X121048432Y-120943361D01*
X121180019Y-120728631D01*
X121276396Y-120495956D01*
X121335187Y-120251072D01*
X121354947Y-120000000D01*
X121335187Y-119748927D01*
X121276396Y-119504043D01*
X121180019Y-119271368D01*
X121048431Y-119056637D01*
X121048429Y-119056633D01*
X121003893Y-119004488D01*
X120975323Y-118940727D01*
X120985760Y-118871641D01*
X121031891Y-118819165D01*
X121054852Y-118807775D01*
X121092326Y-118793798D01*
X121092326Y-118793797D01*
X121092331Y-118793796D01*
X121207546Y-118707546D01*
X121258112Y-118639998D01*
X129694435Y-118639998D01*
X129694435Y-118640005D01*
X129714630Y-118819251D01*
X129714631Y-118819256D01*
X129774211Y-118989525D01*
X129849594Y-119109496D01*
X129870184Y-119142264D01*
X129997738Y-119269818D01*
X130150478Y-119365791D01*
X130251782Y-119401239D01*
X130308559Y-119441961D01*
X130334306Y-119506914D01*
X130320850Y-119575475D01*
X130315822Y-119584252D01*
X130274212Y-119650474D01*
X130214631Y-119820745D01*
X130214630Y-119820750D01*
X130194435Y-119999996D01*
X130194435Y-120000000D01*
X130214630Y-120179249D01*
X130214633Y-120179262D01*
X130274209Y-120349518D01*
X130274211Y-120349522D01*
X130303531Y-120396185D01*
X130322531Y-120463422D01*
X130303531Y-120528129D01*
X130274211Y-120574791D01*
X130274209Y-120574795D01*
X130214633Y-120745051D01*
X130214630Y-120745064D01*
X130194435Y-120924310D01*
X130194435Y-120924317D01*
X130214630Y-121103563D01*
X130214631Y-121103568D01*
X130274211Y-121273837D01*
X130369219Y-121425040D01*
X130370184Y-121426576D01*
X130497738Y-121554130D01*
X130650478Y-121650103D01*
X130733787Y-121679254D01*
X130820745Y-121709682D01*
X130820750Y-121709683D01*
X130999996Y-121729879D01*
X131000000Y-121729879D01*
X131000004Y-121729879D01*
X131179249Y-121709683D01*
X131179252Y-121709682D01*
X131179255Y-121709682D01*
X131349522Y-121650103D01*
X131502262Y-121554130D01*
X131556396Y-121499996D01*
X139694435Y-121499996D01*
X139694435Y-121500003D01*
X139714630Y-121679249D01*
X139714631Y-121679254D01*
X139774211Y-121849523D01*
X139827401Y-121934174D01*
X139870184Y-122002262D01*
X139997738Y-122129816D01*
X140013693Y-122139841D01*
X140111825Y-122201502D01*
X140150478Y-122225789D01*
X140280238Y-122271194D01*
X140320745Y-122285368D01*
X140320750Y-122285369D01*
X140499996Y-122305565D01*
X140500000Y-122305565D01*
X140500004Y-122305565D01*
X140679249Y-122285369D01*
X140679252Y-122285368D01*
X140679255Y-122285368D01*
X140849522Y-122225789D01*
X141002262Y-122129816D01*
X141129816Y-122002262D01*
X141225789Y-121849522D01*
X141285368Y-121679255D01*
X141285369Y-121679249D01*
X141305565Y-121500003D01*
X141305565Y-121499996D01*
X141285369Y-121320750D01*
X141285368Y-121320745D01*
X141247722Y-121213159D01*
X141244161Y-121143380D01*
X141278890Y-121082752D01*
X141340883Y-121050525D01*
X141410458Y-121056930D01*
X141452445Y-121084523D01*
X141497738Y-121129816D01*
X141650478Y-121225789D01*
X141787791Y-121273837D01*
X141820745Y-121285368D01*
X141820750Y-121285369D01*
X141999996Y-121305565D01*
X142000000Y-121305565D01*
X142000004Y-121305565D01*
X142179249Y-121285369D01*
X142179252Y-121285368D01*
X142179255Y-121285368D01*
X142349522Y-121225789D01*
X142502262Y-121129816D01*
X142629816Y-121002262D01*
X142645007Y-120978084D01*
X142697339Y-120931796D01*
X142766393Y-120921146D01*
X142830242Y-120949521D01*
X142854990Y-120978082D01*
X142870184Y-121002262D01*
X142997738Y-121129816D01*
X143150478Y-121225789D01*
X143287791Y-121273837D01*
X143320745Y-121285368D01*
X143320750Y-121285369D01*
X143499996Y-121305565D01*
X143500000Y-121305565D01*
X143500004Y-121305565D01*
X143679249Y-121285369D01*
X143679252Y-121285368D01*
X143679255Y-121285368D01*
X143849522Y-121225789D01*
X144002262Y-121129816D01*
X144129816Y-121002262D01*
X144225789Y-120849522D01*
X144285368Y-120679255D01*
X144289475Y-120642809D01*
X144305565Y-120500000D01*
X144305565Y-120499996D01*
X144944435Y-120499996D01*
X144944435Y-120500000D01*
X144964630Y-120679249D01*
X144964631Y-120679254D01*
X145024211Y-120849523D01*
X145088710Y-120952172D01*
X145120184Y-121002262D01*
X145247738Y-121129816D01*
X145400478Y-121225789D01*
X145570745Y-121285368D01*
X145593543Y-121287936D01*
X145657956Y-121315002D01*
X145697512Y-121372597D01*
X145702880Y-121425040D01*
X145694435Y-121499995D01*
X145694435Y-121500003D01*
X145714630Y-121679249D01*
X145714631Y-121679254D01*
X145774211Y-121849523D01*
X145870184Y-122002262D01*
X145974153Y-122106231D01*
X146007638Y-122167554D01*
X146002654Y-122237246D01*
X145960782Y-122293179D01*
X145952447Y-122298904D01*
X145936488Y-122308932D01*
X145936486Y-122308933D01*
X145808933Y-122436486D01*
X145712960Y-122589225D01*
X145653380Y-122759494D01*
X145653379Y-122759499D01*
X145633184Y-122938745D01*
X145633184Y-122938752D01*
X145653379Y-123117998D01*
X145653380Y-123118003D01*
X145712960Y-123288272D01*
X145795477Y-123419596D01*
X145808933Y-123441011D01*
X145936487Y-123568565D01*
X145996631Y-123606356D01*
X146074045Y-123654999D01*
X146089227Y-123664538D01*
X146259494Y-123724117D01*
X146259499Y-123724118D01*
X146438745Y-123744314D01*
X146438749Y-123744314D01*
X146438753Y-123744314D01*
X146617998Y-123724118D01*
X146618001Y-123724117D01*
X146618004Y-123724117D01*
X146788271Y-123664538D01*
X146941011Y-123568565D01*
X147068565Y-123441011D01*
X147164538Y-123288271D01*
X147224117Y-123118004D01*
X147225315Y-123107372D01*
X147244314Y-122938752D01*
X147244314Y-122938745D01*
X147224118Y-122759499D01*
X147224117Y-122759494D01*
X147178972Y-122630478D01*
X147164538Y-122589227D01*
X147068565Y-122436487D01*
X146964595Y-122332517D01*
X146931110Y-122271194D01*
X146936094Y-122201502D01*
X146977966Y-122145569D01*
X146986307Y-122139841D01*
X147002262Y-122129816D01*
X147129816Y-122002262D01*
X147225789Y-121849522D01*
X147285368Y-121679255D01*
X147285369Y-121679249D01*
X147305565Y-121500003D01*
X147305565Y-121499996D01*
X147285369Y-121320750D01*
X147285368Y-121320745D01*
X147225788Y-121150476D01*
X147132660Y-121002264D01*
X147129816Y-120997738D01*
X147002262Y-120870184D01*
X146939109Y-120830502D01*
X146849523Y-120774211D01*
X146679253Y-120714631D01*
X146656453Y-120712062D01*
X146592040Y-120684994D01*
X146552486Y-120627399D01*
X146547119Y-120574958D01*
X146547138Y-120574795D01*
X146555565Y-120500000D01*
X146555109Y-120495956D01*
X146535369Y-120320750D01*
X146535368Y-120320745D01*
X146485861Y-120179262D01*
X146475789Y-120150478D01*
X146379816Y-119997738D01*
X146252262Y-119870184D01*
X146212182Y-119845000D01*
X146099523Y-119774211D01*
X145929254Y-119714631D01*
X145929249Y-119714630D01*
X145750004Y-119694435D01*
X145749996Y-119694435D01*
X145570750Y-119714630D01*
X145570745Y-119714631D01*
X145400476Y-119774211D01*
X145247737Y-119870184D01*
X145120184Y-119997737D01*
X145024211Y-120150476D01*
X144964631Y-120320745D01*
X144964630Y-120320750D01*
X144944435Y-120499996D01*
X144305565Y-120499996D01*
X144285369Y-120320750D01*
X144285366Y-120320737D01*
X144229548Y-120161220D01*
X144225986Y-120091441D01*
X144260714Y-120030814D01*
X144299137Y-120005704D01*
X144418671Y-119956192D01*
X144418684Y-119956185D01*
X144582462Y-119846751D01*
X144582466Y-119846748D01*
X144721748Y-119707466D01*
X144721751Y-119707462D01*
X144831185Y-119543684D01*
X144831192Y-119543671D01*
X144906569Y-119361692D01*
X144906569Y-119361690D01*
X144914862Y-119320000D01*
X144111988Y-119320000D01*
X144129205Y-119310060D01*
X144185060Y-119254205D01*
X144224556Y-119185796D01*
X144245000Y-119109496D01*
X144245000Y-119030504D01*
X144224556Y-118954204D01*
X144185060Y-118885795D01*
X144129205Y-118829940D01*
X144111988Y-118820000D01*
X144914862Y-118820000D01*
X146305138Y-118820000D01*
X147108012Y-118820000D01*
X147090795Y-118829940D01*
X147034940Y-118885795D01*
X146995444Y-118954204D01*
X146975000Y-119030504D01*
X146975000Y-119109496D01*
X146995444Y-119185796D01*
X147034940Y-119254205D01*
X147090795Y-119310060D01*
X147108012Y-119320000D01*
X146305138Y-119320000D01*
X146313430Y-119361690D01*
X146313430Y-119361692D01*
X146388807Y-119543671D01*
X146388814Y-119543684D01*
X146498248Y-119707462D01*
X146498251Y-119707466D01*
X146637533Y-119846748D01*
X146637537Y-119846751D01*
X146801315Y-119956185D01*
X146801328Y-119956192D01*
X146983306Y-120031569D01*
X146983318Y-120031572D01*
X147176504Y-120069999D01*
X147176508Y-120070000D01*
X147325000Y-120070000D01*
X147325000Y-119370000D01*
X147825000Y-119370000D01*
X147825000Y-120070000D01*
X147973492Y-120070000D01*
X147973495Y-120069999D01*
X148166681Y-120031572D01*
X148166693Y-120031569D01*
X148348671Y-119956192D01*
X148348684Y-119956185D01*
X148512462Y-119846751D01*
X148512466Y-119846748D01*
X148651748Y-119707466D01*
X148651751Y-119707462D01*
X148761185Y-119543684D01*
X148761192Y-119543671D01*
X148836569Y-119361692D01*
X148836569Y-119361690D01*
X148844862Y-119320000D01*
X148041988Y-119320000D01*
X148059205Y-119310060D01*
X148115060Y-119254205D01*
X148154556Y-119185796D01*
X148175000Y-119109496D01*
X148175000Y-119030504D01*
X148154556Y-118954204D01*
X148115060Y-118885795D01*
X148059205Y-118829940D01*
X148041988Y-118820000D01*
X148844862Y-118820000D01*
X148836569Y-118778309D01*
X148836569Y-118778307D01*
X148761192Y-118596328D01*
X148761185Y-118596315D01*
X148651751Y-118432537D01*
X148651748Y-118432533D01*
X148512466Y-118293251D01*
X148512462Y-118293248D01*
X148348684Y-118183814D01*
X148348671Y-118183807D01*
X148166693Y-118108430D01*
X148166681Y-118108427D01*
X147973495Y-118070000D01*
X147825000Y-118070000D01*
X147825000Y-118770000D01*
X147325000Y-118770000D01*
X147325000Y-118070000D01*
X147176504Y-118070000D01*
X146983318Y-118108427D01*
X146983306Y-118108430D01*
X146801328Y-118183807D01*
X146801315Y-118183814D01*
X146637537Y-118293248D01*
X146637533Y-118293251D01*
X146498251Y-118432533D01*
X146498248Y-118432537D01*
X146388814Y-118596315D01*
X146388807Y-118596328D01*
X146313430Y-118778307D01*
X146313430Y-118778309D01*
X146305138Y-118820000D01*
X144914862Y-118820000D01*
X144906569Y-118778309D01*
X144906569Y-118778307D01*
X144831192Y-118596328D01*
X144831185Y-118596315D01*
X144721751Y-118432537D01*
X144721748Y-118432533D01*
X144582466Y-118293251D01*
X144582462Y-118293248D01*
X144418684Y-118183814D01*
X144418674Y-118183809D01*
X144409157Y-118179867D01*
X144354754Y-118136026D01*
X144332689Y-118069731D01*
X144349969Y-118002032D01*
X144353648Y-117996597D01*
X144355512Y-117993367D01*
X144355515Y-117993365D01*
X144431281Y-117862135D01*
X144470500Y-117715766D01*
X144470500Y-117564234D01*
X144431281Y-117417865D01*
X144355515Y-117286635D01*
X144248365Y-117179485D01*
X144162336Y-117129816D01*
X144117136Y-117103719D01*
X144027919Y-117079814D01*
X143970766Y-117064500D01*
X143819234Y-117064500D01*
X143672863Y-117103719D01*
X143541635Y-117179485D01*
X143541632Y-117179487D01*
X143434487Y-117286632D01*
X143434485Y-117286635D01*
X143358719Y-117417863D01*
X143336403Y-117501151D01*
X143319500Y-117564234D01*
X143319500Y-117715766D01*
X143322186Y-117725789D01*
X143358719Y-117862136D01*
X143378946Y-117897169D01*
X143434485Y-117993365D01*
X143541635Y-118100515D01*
X143565690Y-118114403D01*
X143583000Y-118124397D01*
X143631216Y-118174964D01*
X143645000Y-118231784D01*
X143645000Y-118770000D01*
X143145000Y-118770000D01*
X143145000Y-118070000D01*
X142746504Y-118070000D01*
X142553318Y-118108427D01*
X142553306Y-118108430D01*
X142371328Y-118183807D01*
X142371315Y-118183814D01*
X142207537Y-118293248D01*
X142207533Y-118293251D01*
X142068251Y-118432533D01*
X142068248Y-118432537D01*
X141958814Y-118596315D01*
X141958807Y-118596328D01*
X141883430Y-118778307D01*
X141883430Y-118778309D01*
X141875138Y-118820000D01*
X142678012Y-118820000D01*
X142660795Y-118829940D01*
X142604940Y-118885795D01*
X142565444Y-118954204D01*
X142545000Y-119030504D01*
X142545000Y-119109496D01*
X142565444Y-119185796D01*
X142604940Y-119254205D01*
X142660795Y-119310060D01*
X142678012Y-119320000D01*
X141875138Y-119320000D01*
X141883430Y-119361690D01*
X141883430Y-119361692D01*
X141957254Y-119539922D01*
X141964723Y-119609392D01*
X141933447Y-119671871D01*
X141873358Y-119707522D01*
X141856577Y-119710594D01*
X141820749Y-119714630D01*
X141820745Y-119714631D01*
X141650476Y-119774211D01*
X141497737Y-119870184D01*
X141370184Y-119997737D01*
X141274211Y-120150476D01*
X141214631Y-120320745D01*
X141214630Y-120320750D01*
X141194435Y-120499996D01*
X141194435Y-120500000D01*
X141214630Y-120679249D01*
X141214632Y-120679257D01*
X141252277Y-120786841D01*
X141255838Y-120856620D01*
X141221109Y-120917247D01*
X141159115Y-120949474D01*
X141089540Y-120943068D01*
X141047554Y-120915476D01*
X141002262Y-120870184D01*
X140849523Y-120774211D01*
X140679254Y-120714631D01*
X140679249Y-120714630D01*
X140500004Y-120694435D01*
X140499996Y-120694435D01*
X140320750Y-120714630D01*
X140320745Y-120714631D01*
X140150476Y-120774211D01*
X139997737Y-120870184D01*
X139870184Y-120997737D01*
X139774211Y-121150476D01*
X139714631Y-121320745D01*
X139714630Y-121320750D01*
X139694435Y-121499996D01*
X131556396Y-121499996D01*
X131629816Y-121426576D01*
X131725789Y-121273836D01*
X131785368Y-121103569D01*
X131787514Y-121084523D01*
X131805565Y-120924317D01*
X131805565Y-120924310D01*
X131785369Y-120745064D01*
X131785368Y-120745059D01*
X131725788Y-120574789D01*
X131696469Y-120528130D01*
X131677468Y-120460894D01*
X131696469Y-120396184D01*
X131725788Y-120349524D01*
X131725790Y-120349518D01*
X131785368Y-120179255D01*
X131788611Y-120150478D01*
X131805565Y-120000000D01*
X131805565Y-119999996D01*
X131785369Y-119820750D01*
X131785368Y-119820745D01*
X131764163Y-119760145D01*
X131725789Y-119650478D01*
X131725786Y-119650474D01*
X131658686Y-119543684D01*
X131629816Y-119497738D01*
X131502262Y-119370184D01*
X131422395Y-119320000D01*
X131349521Y-119274210D01*
X131248217Y-119238763D01*
X131191441Y-119198041D01*
X131165693Y-119133089D01*
X131179149Y-119064527D01*
X131184177Y-119055750D01*
X131215451Y-119005977D01*
X131267785Y-118959685D01*
X131336838Y-118949036D01*
X131386418Y-118966955D01*
X131400475Y-118975788D01*
X131570745Y-119035368D01*
X131570750Y-119035369D01*
X131749996Y-119055565D01*
X131750000Y-119055565D01*
X131750004Y-119055565D01*
X131929249Y-119035369D01*
X131929252Y-119035368D01*
X131929255Y-119035368D01*
X132099522Y-118975789D01*
X132252262Y-118879816D01*
X132379816Y-118752262D01*
X132475789Y-118599522D01*
X132535368Y-118429255D01*
X132538904Y-118397872D01*
X132555565Y-118250003D01*
X132555565Y-118249996D01*
X132535369Y-118070750D01*
X132535368Y-118070745D01*
X132508292Y-117993367D01*
X132475789Y-117900478D01*
X132451696Y-117862135D01*
X132434293Y-117834437D01*
X132379816Y-117747738D01*
X132252262Y-117620184D01*
X132099523Y-117524211D01*
X131929254Y-117464631D01*
X131929249Y-117464630D01*
X131750004Y-117444435D01*
X131749996Y-117444435D01*
X131570750Y-117464630D01*
X131570745Y-117464631D01*
X131400476Y-117524211D01*
X131247737Y-117620184D01*
X131120182Y-117747739D01*
X131034547Y-117884026D01*
X130982212Y-117930316D01*
X130913159Y-117940964D01*
X130863583Y-117923047D01*
X130849525Y-117914214D01*
X130679254Y-117854633D01*
X130679249Y-117854632D01*
X130500004Y-117834437D01*
X130499996Y-117834437D01*
X130320750Y-117854632D01*
X130320745Y-117854633D01*
X130150476Y-117914213D01*
X129997737Y-118010186D01*
X129870184Y-118137739D01*
X129774211Y-118290478D01*
X129714631Y-118460747D01*
X129714630Y-118460752D01*
X129694435Y-118639998D01*
X121258112Y-118639998D01*
X121293796Y-118592331D01*
X121344091Y-118457483D01*
X121350500Y-118397873D01*
X121350499Y-117720566D01*
X125723865Y-117720566D01*
X125723865Y-117720573D01*
X125744060Y-117899819D01*
X125744061Y-117899824D01*
X125803641Y-118070093D01*
X125895007Y-118215500D01*
X125899614Y-118222832D01*
X126027168Y-118350386D01*
X126102743Y-118397873D01*
X126152685Y-118429254D01*
X126179908Y-118446359D01*
X126211696Y-118457482D01*
X126350175Y-118505938D01*
X126350180Y-118505939D01*
X126529426Y-118526135D01*
X126529430Y-118526135D01*
X126529434Y-118526135D01*
X126708679Y-118505939D01*
X126708682Y-118505938D01*
X126708685Y-118505938D01*
X126878952Y-118446359D01*
X127031692Y-118350386D01*
X127159246Y-118222832D01*
X127255219Y-118070092D01*
X127314798Y-117899825D01*
X127315097Y-117897171D01*
X127334995Y-117720573D01*
X127334995Y-117720566D01*
X127314799Y-117541320D01*
X127314798Y-117541315D01*
X127255218Y-117371046D01*
X127201383Y-117285368D01*
X127159246Y-117218308D01*
X127031692Y-117090754D01*
X127004229Y-117073498D01*
X126878953Y-116994781D01*
X126708684Y-116935201D01*
X126708679Y-116935200D01*
X126529434Y-116915005D01*
X126529426Y-116915005D01*
X126350180Y-116935200D01*
X126350175Y-116935201D01*
X126179906Y-116994781D01*
X126027167Y-117090754D01*
X125899614Y-117218307D01*
X125803641Y-117371046D01*
X125744061Y-117541315D01*
X125744060Y-117541320D01*
X125723865Y-117720566D01*
X121350499Y-117720566D01*
X121350499Y-117377455D01*
X121370183Y-117310417D01*
X121422987Y-117264662D01*
X121488383Y-117254236D01*
X121500160Y-117255563D01*
X121500163Y-117255563D01*
X121500167Y-117255563D01*
X121679412Y-117235367D01*
X121679415Y-117235366D01*
X121679418Y-117235366D01*
X121849685Y-117175787D01*
X122002425Y-117079814D01*
X122129979Y-116952260D01*
X122225952Y-116799520D01*
X122285531Y-116629253D01*
X122285954Y-116625500D01*
X122305728Y-116450001D01*
X122305728Y-116449994D01*
X122285532Y-116270748D01*
X122285531Y-116270743D01*
X122269801Y-116225789D01*
X122225952Y-116100476D01*
X122129979Y-115947736D01*
X122002425Y-115820182D01*
X122001392Y-115819533D01*
X121988917Y-115811694D01*
X121942626Y-115759359D01*
X121931979Y-115690305D01*
X121949895Y-115640730D01*
X121975789Y-115599522D01*
X122035368Y-115429255D01*
X122035369Y-115429249D01*
X122055565Y-115250003D01*
X122055565Y-115249996D01*
X122035369Y-115070750D01*
X122035368Y-115070745D01*
X122010614Y-115000003D01*
X121975789Y-114900478D01*
X121879816Y-114747738D01*
X121752262Y-114620184D01*
X121730037Y-114606219D01*
X121599523Y-114524211D01*
X121429254Y-114464631D01*
X121429249Y-114464630D01*
X121250004Y-114444435D01*
X121249996Y-114444435D01*
X121070750Y-114464630D01*
X121070745Y-114464631D01*
X120900476Y-114524211D01*
X120747737Y-114620184D01*
X120620184Y-114747737D01*
X120524211Y-114900476D01*
X120464631Y-115070745D01*
X120464630Y-115070750D01*
X120444435Y-115249996D01*
X120444435Y-115250003D01*
X120464630Y-115429249D01*
X120464633Y-115429260D01*
X120483978Y-115484547D01*
X120487539Y-115554326D01*
X120452809Y-115614953D01*
X120390816Y-115647179D01*
X120366936Y-115649500D01*
X118602129Y-115649500D01*
X118602123Y-115649501D01*
X118542516Y-115655908D01*
X118407671Y-115706202D01*
X118407664Y-115706206D01*
X118292455Y-115792452D01*
X118292452Y-115792455D01*
X118206206Y-115907664D01*
X118206202Y-115907671D01*
X118155908Y-116042517D01*
X118149501Y-116102116D01*
X118149500Y-116102135D01*
X118149500Y-118397870D01*
X118149501Y-118397876D01*
X118155908Y-118457483D01*
X118206202Y-118592328D01*
X118206206Y-118592335D01*
X118292452Y-118707544D01*
X118292455Y-118707547D01*
X118407664Y-118793793D01*
X118407671Y-118793797D01*
X118445148Y-118807775D01*
X118501082Y-118849646D01*
X118525499Y-118915110D01*
X118510648Y-118983383D01*
X118496106Y-119004487D01*
X118451575Y-119056626D01*
X118451568Y-119056637D01*
X118319980Y-119271368D01*
X118223603Y-119504043D01*
X118164812Y-119748927D01*
X118145052Y-120000000D01*
X114855449Y-120000000D01*
X114835683Y-119748852D01*
X114776873Y-119503889D01*
X114750778Y-119440889D01*
X114680466Y-119271140D01*
X114548839Y-119056345D01*
X114548838Y-119056343D01*
X114466284Y-118959685D01*
X114385224Y-118864776D01*
X114214879Y-118719288D01*
X114176688Y-118660784D01*
X114176189Y-118590916D01*
X114213543Y-118531869D01*
X114214823Y-118530759D01*
X114385224Y-118385224D01*
X114548836Y-118193659D01*
X114680466Y-117978859D01*
X114776873Y-117746111D01*
X114835683Y-117501148D01*
X114855449Y-117250000D01*
X114835683Y-116998852D01*
X114776873Y-116753889D01*
X114760612Y-116714631D01*
X114680466Y-116521140D01*
X114548839Y-116306345D01*
X114548838Y-116306343D01*
X114440289Y-116179249D01*
X114385224Y-116114776D01*
X114248189Y-115997737D01*
X114193656Y-115951161D01*
X114193653Y-115951160D01*
X113978859Y-115819533D01*
X113746110Y-115723126D01*
X113501151Y-115664317D01*
X113250000Y-115644551D01*
X112998848Y-115664317D01*
X112753889Y-115723126D01*
X112521140Y-115819533D01*
X112306346Y-115951160D01*
X112306343Y-115951161D01*
X112114776Y-116114776D01*
X111951161Y-116306343D01*
X111951161Y-116306345D01*
X111819533Y-116521140D01*
X111723126Y-116753889D01*
X111664317Y-116998848D01*
X111644551Y-117250000D01*
X109280332Y-117250000D01*
X109179254Y-117214631D01*
X109179249Y-117214630D01*
X109000004Y-117194435D01*
X108999996Y-117194435D01*
X108820750Y-117214630D01*
X108820745Y-117214631D01*
X108650476Y-117274211D01*
X108497737Y-117370184D01*
X108370184Y-117497737D01*
X108274211Y-117650476D01*
X108214631Y-117820745D01*
X108214630Y-117820750D01*
X108194435Y-117999996D01*
X104631240Y-117999996D01*
X104725789Y-117849522D01*
X104785368Y-117679255D01*
X104785369Y-117679249D01*
X104805565Y-117500003D01*
X104805565Y-117499996D01*
X104785369Y-117320750D01*
X104785368Y-117320745D01*
X104765744Y-117264662D01*
X104725789Y-117150478D01*
X104629816Y-116997738D01*
X104502262Y-116870184D01*
X104469379Y-116849522D01*
X104349523Y-116774211D01*
X104179254Y-116714631D01*
X104179249Y-116714630D01*
X104000004Y-116694435D01*
X103999996Y-116694435D01*
X103820750Y-116714630D01*
X103820745Y-116714631D01*
X103650476Y-116774211D01*
X103497737Y-116870184D01*
X103370184Y-116997737D01*
X103274211Y-117150476D01*
X103214631Y-117320745D01*
X103214630Y-117320750D01*
X103194434Y-117499996D01*
X103200412Y-117553051D01*
X103188356Y-117621873D01*
X103141006Y-117673252D01*
X103073395Y-117690875D01*
X103006990Y-117669147D01*
X102989510Y-117654614D01*
X102871402Y-117536506D01*
X102871396Y-117536501D01*
X102685842Y-117406575D01*
X102642217Y-117351998D01*
X102635023Y-117282500D01*
X102666546Y-117220145D01*
X102685842Y-117203425D01*
X102790966Y-117129816D01*
X102871401Y-117073495D01*
X103038495Y-116906401D01*
X103174035Y-116712830D01*
X103273903Y-116498663D01*
X103335063Y-116270408D01*
X103355659Y-116035000D01*
X103335063Y-115799592D01*
X103329201Y-115777714D01*
X103330864Y-115707868D01*
X103370026Y-115650005D01*
X103434254Y-115622500D01*
X103503156Y-115634086D01*
X103514943Y-115640626D01*
X103539263Y-115655908D01*
X103650475Y-115725788D01*
X103820745Y-115785368D01*
X103820750Y-115785369D01*
X103999996Y-115805565D01*
X104000000Y-115805565D01*
X104000004Y-115805565D01*
X104179249Y-115785369D01*
X104179252Y-115785368D01*
X104179255Y-115785368D01*
X104349522Y-115725789D01*
X104502262Y-115629816D01*
X104629816Y-115502262D01*
X104725789Y-115349522D01*
X104733145Y-115328499D01*
X104773864Y-115271724D01*
X104838816Y-115245974D01*
X104907378Y-115259428D01*
X104957782Y-115307814D01*
X104973763Y-115359207D01*
X104974891Y-115372815D01*
X104974892Y-115372824D01*
X105035936Y-115613881D01*
X105135826Y-115841606D01*
X105271833Y-116049782D01*
X105271836Y-116049785D01*
X105440256Y-116232738D01*
X105636491Y-116385474D01*
X105855190Y-116503828D01*
X106090386Y-116584571D01*
X106335665Y-116625500D01*
X106584335Y-116625500D01*
X106829614Y-116584571D01*
X107064810Y-116503828D01*
X107283509Y-116385474D01*
X107367201Y-116320333D01*
X107432192Y-116294692D01*
X107500732Y-116308258D01*
X107551057Y-116356726D01*
X107552290Y-116359361D01*
X107552396Y-116359304D01*
X107556649Y-116367093D01*
X107642809Y-116482187D01*
X107642812Y-116482190D01*
X107757906Y-116568350D01*
X107757913Y-116568354D01*
X107892620Y-116618596D01*
X107892627Y-116618598D01*
X107952155Y-116624999D01*
X107952172Y-116625000D01*
X108750000Y-116625000D01*
X108750000Y-115558012D01*
X108807007Y-115590925D01*
X108934174Y-115625000D01*
X109065826Y-115625000D01*
X109192993Y-115590925D01*
X109250000Y-115558012D01*
X109250000Y-116625000D01*
X110047828Y-116625000D01*
X110047844Y-116624999D01*
X110107372Y-116618598D01*
X110107379Y-116618596D01*
X110242086Y-116568354D01*
X110242093Y-116568350D01*
X110357187Y-116482190D01*
X110357190Y-116482187D01*
X110443350Y-116367093D01*
X110443354Y-116367086D01*
X110493596Y-116232379D01*
X110493598Y-116232372D01*
X110499999Y-116172844D01*
X110500000Y-116172827D01*
X110500000Y-115295685D01*
X110519685Y-115228646D01*
X110572489Y-115182891D01*
X110641647Y-115172947D01*
X110705203Y-115201972D01*
X110741042Y-115254731D01*
X110774210Y-115349521D01*
X110824314Y-115429260D01*
X110870184Y-115502262D01*
X110997738Y-115629816D01*
X111039263Y-115655908D01*
X111146239Y-115723126D01*
X111150478Y-115725789D01*
X111246416Y-115759359D01*
X111320745Y-115785368D01*
X111320750Y-115785369D01*
X111499996Y-115805565D01*
X111500000Y-115805565D01*
X111500004Y-115805565D01*
X111679249Y-115785369D01*
X111679252Y-115785368D01*
X111679255Y-115785368D01*
X111849522Y-115725789D01*
X112002262Y-115629816D01*
X112129816Y-115502262D01*
X112131240Y-115499996D01*
X114694435Y-115499996D01*
X114694435Y-115500003D01*
X114714630Y-115679249D01*
X114714631Y-115679254D01*
X114774211Y-115849523D01*
X114810744Y-115907664D01*
X114870184Y-116002262D01*
X114997738Y-116129816D01*
X115066190Y-116172827D01*
X115132721Y-116214632D01*
X115150478Y-116225789D01*
X115288860Y-116274211D01*
X115320745Y-116285368D01*
X115320750Y-116285369D01*
X115499996Y-116305565D01*
X115500000Y-116305565D01*
X115500004Y-116305565D01*
X115679249Y-116285369D01*
X115679252Y-116285368D01*
X115679255Y-116285368D01*
X115849522Y-116225789D01*
X116002262Y-116129816D01*
X116129816Y-116002262D01*
X116225789Y-115849522D01*
X116285368Y-115679255D01*
X116285369Y-115679249D01*
X116305565Y-115500003D01*
X116305565Y-115499996D01*
X116285369Y-115320750D01*
X116285368Y-115320745D01*
X116248237Y-115214630D01*
X116225789Y-115150478D01*
X116222846Y-115145795D01*
X116179491Y-115076796D01*
X116129816Y-114997738D01*
X116124745Y-114992667D01*
X116091260Y-114931344D01*
X116096244Y-114861652D01*
X116138116Y-114805719D01*
X116173301Y-114789439D01*
X116172682Y-114787668D01*
X116179255Y-114785368D01*
X116349522Y-114725789D01*
X116502262Y-114629816D01*
X116629816Y-114502262D01*
X116725789Y-114349522D01*
X116785368Y-114179255D01*
X116785369Y-114179249D01*
X116805565Y-114000003D01*
X116805565Y-113999996D01*
X116785369Y-113820750D01*
X116785368Y-113820745D01*
X116741081Y-113694180D01*
X116725789Y-113650478D01*
X116713803Y-113631403D01*
X116686582Y-113588080D01*
X116629816Y-113497738D01*
X116502262Y-113370184D01*
X116349523Y-113274211D01*
X116179254Y-113214631D01*
X116179249Y-113214630D01*
X116000004Y-113194435D01*
X115999996Y-113194435D01*
X115820750Y-113214630D01*
X115820745Y-113214631D01*
X115650476Y-113274211D01*
X115497737Y-113370184D01*
X115370184Y-113497737D01*
X115274211Y-113650476D01*
X115214631Y-113820745D01*
X115214630Y-113820750D01*
X115194435Y-113999996D01*
X115194435Y-114000003D01*
X115214630Y-114179249D01*
X115214631Y-114179254D01*
X115274211Y-114349523D01*
X115370184Y-114502262D01*
X115375254Y-114507332D01*
X115408739Y-114568655D01*
X115403755Y-114638347D01*
X115361883Y-114694280D01*
X115326703Y-114710577D01*
X115327318Y-114712332D01*
X115150476Y-114774211D01*
X114997737Y-114870184D01*
X114870184Y-114997737D01*
X114774211Y-115150476D01*
X114714631Y-115320745D01*
X114714630Y-115320750D01*
X114694435Y-115499996D01*
X112131240Y-115499996D01*
X112225789Y-115349522D01*
X112285368Y-115179255D01*
X112287132Y-115163599D01*
X112305565Y-115000003D01*
X112305565Y-114999996D01*
X112285369Y-114820750D01*
X112285368Y-114820745D01*
X112251831Y-114724901D01*
X112225789Y-114650478D01*
X112129816Y-114497738D01*
X112002262Y-114370184D01*
X111996232Y-114366395D01*
X111849523Y-114274211D01*
X111679254Y-114214631D01*
X111679249Y-114214630D01*
X111500004Y-114194435D01*
X111499996Y-114194435D01*
X111320750Y-114214630D01*
X111320745Y-114214631D01*
X111150476Y-114274211D01*
X110997737Y-114370184D01*
X110870184Y-114497737D01*
X110774209Y-114650480D01*
X110741041Y-114745269D01*
X110700320Y-114802045D01*
X110635367Y-114827792D01*
X110566805Y-114814336D01*
X110516403Y-114765948D01*
X110500000Y-114704314D01*
X110500000Y-114077172D01*
X110499999Y-114077155D01*
X110493598Y-114017627D01*
X110493596Y-114017620D01*
X110443354Y-113882913D01*
X110443350Y-113882906D01*
X110357190Y-113767812D01*
X110357187Y-113767809D01*
X110242093Y-113681649D01*
X110242086Y-113681645D01*
X110107379Y-113631403D01*
X110107372Y-113631401D01*
X110047844Y-113625000D01*
X109250000Y-113625000D01*
X109250000Y-114691988D01*
X109192993Y-114659075D01*
X109065826Y-114625000D01*
X108934174Y-114625000D01*
X108807007Y-114659075D01*
X108750000Y-114691988D01*
X108750000Y-113625000D01*
X107952155Y-113625000D01*
X107892627Y-113631401D01*
X107892620Y-113631403D01*
X107757913Y-113681645D01*
X107757906Y-113681649D01*
X107642812Y-113767809D01*
X107642809Y-113767812D01*
X107556649Y-113882906D01*
X107552396Y-113890696D01*
X107549217Y-113888960D01*
X107517596Y-113931135D01*
X107452113Y-113955502D01*
X107383851Y-113940598D01*
X107367199Y-113929665D01*
X107366672Y-113929255D01*
X107283509Y-113864526D01*
X107283507Y-113864525D01*
X107283506Y-113864524D01*
X107064811Y-113746172D01*
X107064802Y-113746169D01*
X106829616Y-113665429D01*
X106584335Y-113624500D01*
X106335665Y-113624500D01*
X106090383Y-113665429D01*
X105855197Y-113746169D01*
X105855188Y-113746172D01*
X105636493Y-113864524D01*
X105485829Y-113981791D01*
X105440256Y-114017262D01*
X105439920Y-114017627D01*
X105271833Y-114200217D01*
X105135826Y-114408393D01*
X105035935Y-114636122D01*
X105035935Y-114636123D01*
X105004763Y-114759215D01*
X104969224Y-114819371D01*
X104906803Y-114850762D01*
X104837320Y-114843424D01*
X104782834Y-114799684D01*
X104767516Y-114769728D01*
X104766193Y-114765948D01*
X104725789Y-114650478D01*
X104629816Y-114497738D01*
X104502262Y-114370184D01*
X104496232Y-114366395D01*
X104349523Y-114274211D01*
X104179254Y-114214631D01*
X104179249Y-114214630D01*
X104000004Y-114194435D01*
X103999996Y-114194435D01*
X103820750Y-114214630D01*
X103820745Y-114214631D01*
X103650476Y-114274211D01*
X103497737Y-114370184D01*
X103370184Y-114497737D01*
X103274211Y-114650476D01*
X103214631Y-114820745D01*
X103214630Y-114820750D01*
X103194435Y-114999996D01*
X103194435Y-115000001D01*
X103195333Y-115007974D01*
X103183275Y-115076796D01*
X103135924Y-115128173D01*
X103068313Y-115145795D01*
X103001908Y-115124066D01*
X102984431Y-115109535D01*
X102934070Y-115059174D01*
X102871401Y-114996505D01*
X102871397Y-114996502D01*
X102871396Y-114996501D01*
X102685842Y-114866575D01*
X102642217Y-114811998D01*
X102635023Y-114742500D01*
X102666546Y-114680145D01*
X102685842Y-114663425D01*
X102818195Y-114570750D01*
X102871401Y-114533495D01*
X103038495Y-114366401D01*
X103174035Y-114172830D01*
X103273903Y-113958663D01*
X103335063Y-113730408D01*
X103355659Y-113495000D01*
X103335063Y-113259592D01*
X103284462Y-113070745D01*
X103273905Y-113031344D01*
X103273904Y-113031343D01*
X103273903Y-113031337D01*
X103174035Y-112817171D01*
X103143955Y-112774211D01*
X103038494Y-112623597D01*
X102871402Y-112456506D01*
X102871396Y-112456501D01*
X102685842Y-112326575D01*
X102642217Y-112271998D01*
X102635023Y-112202500D01*
X102666546Y-112140145D01*
X102685842Y-112123425D01*
X102744807Y-112082137D01*
X102871401Y-111993495D01*
X103038495Y-111826401D01*
X103174035Y-111632830D01*
X103273903Y-111418663D01*
X103335063Y-111190408D01*
X103355659Y-110955000D01*
X103354332Y-110939838D01*
X103346431Y-110849522D01*
X103335063Y-110719592D01*
X103286888Y-110539799D01*
X103273905Y-110491344D01*
X103273904Y-110491343D01*
X103273903Y-110491337D01*
X103174035Y-110277171D01*
X103152066Y-110245795D01*
X103038494Y-110083597D01*
X102954896Y-110000000D01*
X111644551Y-110000000D01*
X111664317Y-110251151D01*
X111723126Y-110496110D01*
X111819533Y-110728859D01*
X111951160Y-110943653D01*
X111951161Y-110943655D01*
X111951162Y-110943657D01*
X111951164Y-110943659D01*
X112114776Y-111135224D01*
X112216311Y-111221943D01*
X112285118Y-111280710D01*
X112323311Y-111339217D01*
X112323809Y-111409085D01*
X112286456Y-111468131D01*
X112285118Y-111469290D01*
X112114776Y-111614776D01*
X111951161Y-111806343D01*
X111951160Y-111806346D01*
X111819533Y-112021140D01*
X111723126Y-112253889D01*
X111664317Y-112498848D01*
X111644551Y-112750000D01*
X111664317Y-113001151D01*
X111723126Y-113246110D01*
X111819533Y-113478859D01*
X111951160Y-113693653D01*
X111951161Y-113693656D01*
X111982555Y-113730413D01*
X112114776Y-113885224D01*
X112249165Y-114000003D01*
X112306343Y-114048838D01*
X112306346Y-114048839D01*
X112521140Y-114180466D01*
X112747462Y-114274211D01*
X112753889Y-114276873D01*
X112998852Y-114335683D01*
X113250000Y-114355449D01*
X113501148Y-114335683D01*
X113746111Y-114276873D01*
X113978859Y-114180466D01*
X114193659Y-114048836D01*
X114385224Y-113885224D01*
X114548836Y-113693659D01*
X114680466Y-113478859D01*
X114776873Y-113246111D01*
X114835683Y-113001148D01*
X114855449Y-112750000D01*
X118145052Y-112750000D01*
X118164812Y-113001072D01*
X118223603Y-113245956D01*
X118319980Y-113478631D01*
X118451568Y-113693362D01*
X118452266Y-113694179D01*
X119185387Y-112961058D01*
X119190889Y-112981591D01*
X119269881Y-113118408D01*
X119381592Y-113230119D01*
X119518409Y-113309111D01*
X119538940Y-113314612D01*
X118805819Y-114047732D01*
X118805819Y-114047733D01*
X118806634Y-114048429D01*
X119021368Y-114180019D01*
X119254043Y-114276396D01*
X119498927Y-114335187D01*
X119750000Y-114354947D01*
X120001072Y-114335187D01*
X120245956Y-114276396D01*
X120478631Y-114180019D01*
X120693361Y-114048432D01*
X120693363Y-114048430D01*
X120694180Y-114047732D01*
X119961059Y-113314612D01*
X119981591Y-113309111D01*
X120118408Y-113230119D01*
X120230119Y-113118408D01*
X120309111Y-112981591D01*
X120314612Y-112961059D01*
X121047732Y-113694180D01*
X121048430Y-113693363D01*
X121048432Y-113693361D01*
X121180019Y-113478630D01*
X121180021Y-113478627D01*
X121266772Y-113269191D01*
X121310613Y-113214787D01*
X121376907Y-113192722D01*
X121444606Y-113210001D01*
X121492217Y-113261138D01*
X121498374Y-113275688D01*
X121524209Y-113349519D01*
X121556229Y-113400478D01*
X121620184Y-113502262D01*
X121747738Y-113629816D01*
X121900478Y-113725789D01*
X122020573Y-113767812D01*
X122070745Y-113785368D01*
X122070750Y-113785369D01*
X122249996Y-113805565D01*
X122250000Y-113805565D01*
X122250004Y-113805565D01*
X122429249Y-113785369D01*
X122429252Y-113785368D01*
X122429255Y-113785368D01*
X122599522Y-113725789D01*
X122752262Y-113629816D01*
X122879816Y-113502262D01*
X122881240Y-113499996D01*
X128444435Y-113499996D01*
X128444435Y-113500003D01*
X128464630Y-113679249D01*
X128464631Y-113679254D01*
X128524211Y-113849523D01*
X128598126Y-113967157D01*
X128620184Y-114002262D01*
X128747738Y-114129816D01*
X128794794Y-114159383D01*
X128882721Y-114214632D01*
X128900478Y-114225789D01*
X129046468Y-114276873D01*
X129070745Y-114285368D01*
X129070750Y-114285369D01*
X129249996Y-114305565D01*
X129250000Y-114305565D01*
X129250004Y-114305565D01*
X129429249Y-114285369D01*
X129429252Y-114285368D01*
X129429255Y-114285368D01*
X129599522Y-114225789D01*
X129752262Y-114129816D01*
X129879816Y-114002262D01*
X129975789Y-113849522D01*
X130035368Y-113679255D01*
X130036926Y-113665429D01*
X130055565Y-113500003D01*
X130055565Y-113499996D01*
X130035369Y-113320750D01*
X130035368Y-113320745D01*
X130013970Y-113259592D01*
X130010612Y-113249996D01*
X130944435Y-113249996D01*
X130944435Y-113250003D01*
X130964630Y-113429249D01*
X130964631Y-113429254D01*
X131024211Y-113599523D01*
X131116357Y-113746172D01*
X131120184Y-113752262D01*
X131247738Y-113879816D01*
X131298096Y-113911458D01*
X131400477Y-113975789D01*
X131406128Y-113978510D01*
X131457988Y-114025332D01*
X131476302Y-114092758D01*
X131455255Y-114159383D01*
X131440010Y-114177912D01*
X131370183Y-114247739D01*
X131274211Y-114400476D01*
X131214631Y-114570745D01*
X131214630Y-114570750D01*
X131194435Y-114749996D01*
X131194435Y-114750003D01*
X131214630Y-114929249D01*
X131214631Y-114929254D01*
X131274211Y-115099523D01*
X131346538Y-115214630D01*
X131370184Y-115252262D01*
X131497738Y-115379816D01*
X131650478Y-115475789D01*
X131744298Y-115508618D01*
X131820745Y-115535368D01*
X131820750Y-115535369D01*
X131999996Y-115555565D01*
X132000000Y-115555565D01*
X132000002Y-115555565D01*
X132047042Y-115550264D01*
X132067496Y-115547960D01*
X132136318Y-115560014D01*
X132187697Y-115607363D01*
X132205322Y-115674973D01*
X132183596Y-115741379D01*
X132147353Y-115776173D01*
X131997739Y-115870182D01*
X131870184Y-115997737D01*
X131774211Y-116150476D01*
X131714631Y-116320745D01*
X131714630Y-116320750D01*
X131694435Y-116499996D01*
X131694435Y-116500003D01*
X131714630Y-116679249D01*
X131714631Y-116679254D01*
X131774211Y-116849523D01*
X131865483Y-116994781D01*
X131870184Y-117002262D01*
X131997738Y-117129816D01*
X132070899Y-117175786D01*
X132141495Y-117220145D01*
X132150478Y-117225789D01*
X132261571Y-117264662D01*
X132320745Y-117285368D01*
X132320750Y-117285369D01*
X132499996Y-117305565D01*
X132500000Y-117305565D01*
X132500003Y-117305565D01*
X132652862Y-117288342D01*
X132721684Y-117300396D01*
X132771740Y-117345590D01*
X132817154Y-117417865D01*
X132870184Y-117502262D01*
X132997738Y-117629816D01*
X133037204Y-117654614D01*
X133142176Y-117720573D01*
X133150478Y-117725789D01*
X133320745Y-117785368D01*
X133320750Y-117785369D01*
X133499996Y-117805565D01*
X133500000Y-117805565D01*
X133500004Y-117805565D01*
X133679249Y-117785369D01*
X133679252Y-117785368D01*
X133679255Y-117785368D01*
X133849522Y-117725789D01*
X134002262Y-117629816D01*
X134129816Y-117502262D01*
X134225789Y-117349522D01*
X134285368Y-117179255D01*
X134285759Y-117175786D01*
X134305565Y-117000003D01*
X134305565Y-116999996D01*
X140944435Y-116999996D01*
X140944435Y-117000003D01*
X140964630Y-117179249D01*
X140964631Y-117179254D01*
X141024211Y-117349523D01*
X141083849Y-117444435D01*
X141120184Y-117502262D01*
X141247738Y-117629816D01*
X141287204Y-117654614D01*
X141392176Y-117720573D01*
X141400478Y-117725789D01*
X141570745Y-117785368D01*
X141570750Y-117785369D01*
X141749996Y-117805565D01*
X141750000Y-117805565D01*
X141750004Y-117805565D01*
X141929249Y-117785369D01*
X141929252Y-117785368D01*
X141929255Y-117785368D01*
X142099522Y-117725789D01*
X142252262Y-117629816D01*
X142379816Y-117502262D01*
X142475789Y-117349522D01*
X142535368Y-117179255D01*
X142535759Y-117175786D01*
X142555565Y-117000003D01*
X142555565Y-116999996D01*
X142535369Y-116820750D01*
X142535368Y-116820745D01*
X142491170Y-116694435D01*
X142475789Y-116650478D01*
X142462452Y-116629253D01*
X142424187Y-116568354D01*
X142379816Y-116497738D01*
X142252262Y-116370184D01*
X142219379Y-116349522D01*
X142099523Y-116274211D01*
X141929254Y-116214631D01*
X141929249Y-116214630D01*
X141750004Y-116194435D01*
X141749996Y-116194435D01*
X141570750Y-116214630D01*
X141570745Y-116214631D01*
X141400476Y-116274211D01*
X141247737Y-116370184D01*
X141120184Y-116497737D01*
X141024211Y-116650476D01*
X140964631Y-116820745D01*
X140964630Y-116820750D01*
X140944435Y-116999996D01*
X134305565Y-116999996D01*
X134285369Y-116820750D01*
X134285368Y-116820745D01*
X134241170Y-116694435D01*
X134225789Y-116650478D01*
X134212452Y-116629253D01*
X134174187Y-116568354D01*
X134129816Y-116497738D01*
X134002262Y-116370184D01*
X133969379Y-116349522D01*
X133849523Y-116274211D01*
X133679254Y-116214631D01*
X133679249Y-116214630D01*
X133500004Y-116194435D01*
X133499996Y-116194435D01*
X133347136Y-116211657D01*
X133278314Y-116199602D01*
X133228259Y-116154409D01*
X133212806Y-116129816D01*
X133131235Y-115999996D01*
X136694435Y-115999996D01*
X136694435Y-116000003D01*
X136714630Y-116179249D01*
X136714631Y-116179254D01*
X136774211Y-116349523D01*
X136844510Y-116461402D01*
X136870184Y-116502262D01*
X136997738Y-116629816D01*
X137076410Y-116679249D01*
X137132721Y-116714632D01*
X137150478Y-116725789D01*
X137288860Y-116774211D01*
X137320745Y-116785368D01*
X137320750Y-116785369D01*
X137499996Y-116805565D01*
X137500000Y-116805565D01*
X137500004Y-116805565D01*
X137679249Y-116785369D01*
X137679252Y-116785368D01*
X137679255Y-116785368D01*
X137849522Y-116725789D01*
X138002262Y-116629816D01*
X138129816Y-116502262D01*
X138225789Y-116349522D01*
X138285368Y-116179255D01*
X138285369Y-116179249D01*
X138305565Y-116000003D01*
X138305565Y-115999996D01*
X138285369Y-115820750D01*
X138285368Y-115820745D01*
X138259117Y-115745723D01*
X138225789Y-115650478D01*
X138225174Y-115649500D01*
X138166151Y-115555565D01*
X138129816Y-115497738D01*
X138002262Y-115370184D01*
X137935924Y-115328501D01*
X137849523Y-115274211D01*
X137679254Y-115214631D01*
X137679249Y-115214630D01*
X137500004Y-115194435D01*
X137499996Y-115194435D01*
X137320750Y-115214630D01*
X137320745Y-115214631D01*
X137150476Y-115274211D01*
X136997737Y-115370184D01*
X136870184Y-115497737D01*
X136774211Y-115650476D01*
X136714631Y-115820745D01*
X136714630Y-115820750D01*
X136694435Y-115999996D01*
X133131235Y-115999996D01*
X133129816Y-115997738D01*
X133002262Y-115870184D01*
X132956782Y-115841607D01*
X132849523Y-115774211D01*
X132679254Y-115714631D01*
X132679249Y-115714630D01*
X132500004Y-115694435D01*
X132499995Y-115694435D01*
X132432501Y-115702039D01*
X132363680Y-115689984D01*
X132312301Y-115642634D01*
X132294677Y-115575024D01*
X132316404Y-115508618D01*
X132352645Y-115473826D01*
X132502262Y-115379816D01*
X132629816Y-115252262D01*
X132725789Y-115099522D01*
X132785368Y-114929255D01*
X132785369Y-114929249D01*
X132805565Y-114750003D01*
X132805565Y-114749997D01*
X132797119Y-114675041D01*
X132809173Y-114606219D01*
X132856522Y-114554840D01*
X132906456Y-114537936D01*
X132929255Y-114535368D01*
X133099522Y-114475789D01*
X133252262Y-114379816D01*
X133379816Y-114252262D01*
X133475789Y-114099522D01*
X133535368Y-113929255D01*
X133536253Y-113921402D01*
X133555565Y-113750003D01*
X133555565Y-113749996D01*
X133535369Y-113570750D01*
X133535368Y-113570745D01*
X133503136Y-113478631D01*
X133475789Y-113400478D01*
X133379816Y-113247738D01*
X133252262Y-113120184D01*
X133187990Y-113079799D01*
X133099523Y-113024211D01*
X132929254Y-112964631D01*
X132929249Y-112964630D01*
X132750004Y-112944435D01*
X132749996Y-112944435D01*
X132597136Y-112961657D01*
X132528314Y-112949602D01*
X132478259Y-112904409D01*
X132430871Y-112828991D01*
X132379816Y-112747738D01*
X132252262Y-112620184D01*
X132147014Y-112554052D01*
X132099523Y-112524211D01*
X131929254Y-112464631D01*
X131929249Y-112464630D01*
X131750004Y-112444435D01*
X131749996Y-112444435D01*
X131570750Y-112464630D01*
X131570745Y-112464631D01*
X131400476Y-112524211D01*
X131247737Y-112620184D01*
X131120184Y-112747737D01*
X131024211Y-112900476D01*
X130964631Y-113070745D01*
X130964630Y-113070750D01*
X130944435Y-113249996D01*
X130010612Y-113249996D01*
X129975789Y-113150478D01*
X129879816Y-112997738D01*
X129752262Y-112870184D01*
X129686704Y-112828991D01*
X129599523Y-112774211D01*
X129429254Y-112714631D01*
X129429249Y-112714630D01*
X129250004Y-112694435D01*
X129249996Y-112694435D01*
X129070750Y-112714630D01*
X129070745Y-112714631D01*
X128900476Y-112774211D01*
X128747737Y-112870184D01*
X128620184Y-112997737D01*
X128524211Y-113150476D01*
X128464631Y-113320745D01*
X128464630Y-113320750D01*
X128444435Y-113499996D01*
X122881240Y-113499996D01*
X122975789Y-113349522D01*
X123035368Y-113179255D01*
X123035369Y-113179249D01*
X123055565Y-113000003D01*
X123055565Y-112999996D01*
X123035369Y-112820750D01*
X123035368Y-112820745D01*
X122975788Y-112650476D01*
X122903461Y-112535369D01*
X122879816Y-112497738D01*
X122752262Y-112370184D01*
X122751586Y-112369759D01*
X122599523Y-112274211D01*
X122429254Y-112214631D01*
X122429249Y-112214630D01*
X122250004Y-112194435D01*
X122249996Y-112194435D01*
X122070750Y-112214630D01*
X122070745Y-112214631D01*
X121900476Y-112274211D01*
X121747737Y-112370184D01*
X121620182Y-112497739D01*
X121566057Y-112583879D01*
X121513722Y-112630169D01*
X121444669Y-112640817D01*
X121380821Y-112612442D01*
X121342449Y-112554052D01*
X121337446Y-112527634D01*
X121335187Y-112498928D01*
X121276396Y-112254043D01*
X121180019Y-112021368D01*
X121048431Y-111806637D01*
X121048429Y-111806633D01*
X121003893Y-111754488D01*
X120975323Y-111690727D01*
X120985760Y-111621641D01*
X121031891Y-111569165D01*
X121054852Y-111557775D01*
X121092326Y-111543798D01*
X121092326Y-111543797D01*
X121092331Y-111543796D01*
X121134142Y-111512496D01*
X122706935Y-111512496D01*
X122706935Y-111512503D01*
X122727130Y-111691749D01*
X122727131Y-111691754D01*
X122786711Y-111862023D01*
X122828956Y-111929255D01*
X122882684Y-112014762D01*
X123010238Y-112142316D01*
X123031324Y-112155565D01*
X123141828Y-112225000D01*
X123162978Y-112238289D01*
X123333245Y-112297868D01*
X123333250Y-112297869D01*
X123512496Y-112318065D01*
X123512500Y-112318065D01*
X123512504Y-112318065D01*
X123691749Y-112297869D01*
X123691752Y-112297868D01*
X123691755Y-112297868D01*
X123862022Y-112238289D01*
X124014762Y-112142316D01*
X124142316Y-112014762D01*
X124238289Y-111862022D01*
X124297868Y-111691755D01*
X124303720Y-111639816D01*
X124318065Y-111512503D01*
X124318065Y-111512496D01*
X124299756Y-111349996D01*
X129344435Y-111349996D01*
X129344435Y-111350003D01*
X129364630Y-111529249D01*
X129364631Y-111529254D01*
X129424211Y-111699523D01*
X129491330Y-111806341D01*
X129520184Y-111852262D01*
X129647738Y-111979816D01*
X129800478Y-112075789D01*
X129868306Y-112099523D01*
X129970745Y-112135368D01*
X129970750Y-112135369D01*
X130149996Y-112155565D01*
X130150000Y-112155565D01*
X130150004Y-112155565D01*
X130329249Y-112135369D01*
X130329252Y-112135368D01*
X130329255Y-112135368D01*
X130499522Y-112075789D01*
X130652262Y-111979816D01*
X130779816Y-111852262D01*
X130875789Y-111699522D01*
X130935368Y-111529255D01*
X130935369Y-111529249D01*
X130955565Y-111350003D01*
X130955565Y-111349996D01*
X130935369Y-111170750D01*
X130935368Y-111170745D01*
X130932650Y-111162978D01*
X130879119Y-111009996D01*
X137454435Y-111009996D01*
X137454435Y-111010003D01*
X137474630Y-111189249D01*
X137474631Y-111189254D01*
X137534211Y-111359523D01*
X137603183Y-111469290D01*
X137630184Y-111512262D01*
X137757738Y-111639816D01*
X137797993Y-111665110D01*
X137906648Y-111733383D01*
X137910478Y-111735789D01*
X137963914Y-111754487D01*
X138080745Y-111795368D01*
X138080750Y-111795369D01*
X138259996Y-111815565D01*
X138260000Y-111815565D01*
X138260001Y-111815565D01*
X138269361Y-111814510D01*
X138326197Y-111808106D01*
X138395017Y-111820160D01*
X138446397Y-111867508D01*
X138463300Y-111917440D01*
X138464630Y-111929249D01*
X138524210Y-112099521D01*
X138551100Y-112142316D01*
X138620184Y-112252262D01*
X138747738Y-112379816D01*
X138829327Y-112431082D01*
X138882721Y-112464632D01*
X138900478Y-112475789D01*
X139070745Y-112535368D01*
X139070750Y-112535369D01*
X139249996Y-112555565D01*
X139250000Y-112555565D01*
X139250004Y-112555565D01*
X139429249Y-112535369D01*
X139429252Y-112535368D01*
X139429255Y-112535368D01*
X139599522Y-112475789D01*
X139752262Y-112379816D01*
X139879816Y-112252262D01*
X139975789Y-112099522D01*
X140035368Y-111929255D01*
X140035369Y-111929249D01*
X140055565Y-111750003D01*
X140055565Y-111749996D01*
X140475605Y-111749996D01*
X140475605Y-111750003D01*
X140495800Y-111929249D01*
X140495801Y-111929254D01*
X140555381Y-112099523D01*
X140642574Y-112238289D01*
X140651354Y-112252262D01*
X140778908Y-112379816D01*
X140860497Y-112431082D01*
X140913891Y-112464632D01*
X140931648Y-112475789D01*
X141101915Y-112535368D01*
X141101920Y-112535369D01*
X141281166Y-112555565D01*
X141281170Y-112555565D01*
X141281174Y-112555565D01*
X141460419Y-112535369D01*
X141460422Y-112535368D01*
X141460425Y-112535368D01*
X141630692Y-112475789D01*
X141783432Y-112379816D01*
X141910986Y-112252262D01*
X142006959Y-112099522D01*
X142066538Y-111929255D01*
X142066539Y-111929249D01*
X142086735Y-111750003D01*
X142086735Y-111749996D01*
X142066539Y-111570750D01*
X142066538Y-111570745D01*
X142024695Y-111451164D01*
X142006959Y-111400478D01*
X142006958Y-111400476D01*
X142006957Y-111400473D01*
X141925848Y-111271390D01*
X141911874Y-111221943D01*
X141865860Y-111201915D01*
X141857696Y-111194448D01*
X141783432Y-111120184D01*
X141630693Y-111024211D01*
X141460424Y-110964631D01*
X141460419Y-110964630D01*
X141281174Y-110944435D01*
X141281166Y-110944435D01*
X141101920Y-110964630D01*
X141101915Y-110964631D01*
X140931646Y-111024211D01*
X140778907Y-111120184D01*
X140651354Y-111247737D01*
X140555381Y-111400476D01*
X140495801Y-111570745D01*
X140495800Y-111570750D01*
X140475605Y-111749996D01*
X140055565Y-111749996D01*
X140035369Y-111570750D01*
X140035368Y-111570745D01*
X139993525Y-111451164D01*
X139975789Y-111400478D01*
X139975166Y-111399487D01*
X139925302Y-111320129D01*
X139879816Y-111247738D01*
X139752262Y-111120184D01*
X139748368Y-111117737D01*
X139599523Y-111024211D01*
X139429254Y-110964631D01*
X139429249Y-110964630D01*
X139250004Y-110944435D01*
X139249996Y-110944435D01*
X139183802Y-110951893D01*
X139114980Y-110939838D01*
X139063601Y-110892489D01*
X139046698Y-110842553D01*
X139045368Y-110830745D01*
X138985789Y-110660478D01*
X138889816Y-110507738D01*
X138762262Y-110380184D01*
X138609523Y-110284211D01*
X138439254Y-110224631D01*
X138439249Y-110224630D01*
X138260004Y-110204435D01*
X138259996Y-110204435D01*
X138080750Y-110224630D01*
X138080745Y-110224631D01*
X137910476Y-110284211D01*
X137757737Y-110380184D01*
X137630184Y-110507737D01*
X137534211Y-110660476D01*
X137474631Y-110830745D01*
X137474630Y-110830750D01*
X137454435Y-111009996D01*
X130879119Y-111009996D01*
X130875789Y-111000478D01*
X130853265Y-110964632D01*
X130801774Y-110882684D01*
X130779816Y-110847738D01*
X130652262Y-110720184D01*
X130587124Y-110679255D01*
X130499523Y-110624211D01*
X130329254Y-110564631D01*
X130329249Y-110564630D01*
X130150004Y-110544435D01*
X130149996Y-110544435D01*
X129970750Y-110564630D01*
X129970745Y-110564631D01*
X129800476Y-110624211D01*
X129647737Y-110720184D01*
X129520184Y-110847737D01*
X129424211Y-111000476D01*
X129364631Y-111170745D01*
X129364630Y-111170750D01*
X129344435Y-111349996D01*
X124299756Y-111349996D01*
X124297869Y-111333250D01*
X124297868Y-111333245D01*
X124294535Y-111323719D01*
X124238289Y-111162978D01*
X124220849Y-111135223D01*
X124142315Y-111010237D01*
X124014762Y-110882684D01*
X123862023Y-110786711D01*
X123691754Y-110727131D01*
X123691749Y-110727130D01*
X123512504Y-110706935D01*
X123512496Y-110706935D01*
X123333250Y-110727130D01*
X123333245Y-110727131D01*
X123162976Y-110786711D01*
X123010237Y-110882684D01*
X122882684Y-111010237D01*
X122786711Y-111162976D01*
X122727131Y-111333245D01*
X122727130Y-111333250D01*
X122706935Y-111512496D01*
X121134142Y-111512496D01*
X121207546Y-111457546D01*
X121293796Y-111342331D01*
X121344091Y-111207483D01*
X121350500Y-111147873D01*
X121350499Y-109999996D01*
X124444435Y-109999996D01*
X124444435Y-110000003D01*
X124464630Y-110179249D01*
X124464631Y-110179254D01*
X124524211Y-110349523D01*
X124565858Y-110415803D01*
X124620184Y-110502262D01*
X124747738Y-110629816D01*
X124811786Y-110670060D01*
X124893957Y-110721692D01*
X124900478Y-110725789D01*
X125070742Y-110785367D01*
X125070745Y-110785368D01*
X125070750Y-110785369D01*
X125249996Y-110805565D01*
X125250000Y-110805565D01*
X125250004Y-110805565D01*
X125429249Y-110785369D01*
X125429252Y-110785368D01*
X125429255Y-110785368D01*
X125599522Y-110725789D01*
X125752262Y-110629816D01*
X125879816Y-110502262D01*
X125881240Y-110499996D01*
X126544435Y-110499996D01*
X126544435Y-110500003D01*
X126564630Y-110679249D01*
X126564631Y-110679254D01*
X126624211Y-110849523D01*
X126690487Y-110955000D01*
X126720184Y-111002262D01*
X126847738Y-111129816D01*
X126900512Y-111162976D01*
X126971342Y-111207482D01*
X127000478Y-111225789D01*
X127063202Y-111247737D01*
X127170745Y-111285368D01*
X127170750Y-111285369D01*
X127349996Y-111305565D01*
X127350000Y-111305565D01*
X127350004Y-111305565D01*
X127529249Y-111285369D01*
X127529252Y-111285368D01*
X127529255Y-111285368D01*
X127699522Y-111225789D01*
X127852262Y-111129816D01*
X127979816Y-111002262D01*
X128056851Y-110879660D01*
X128079494Y-110843626D01*
X128082510Y-110845521D01*
X128117705Y-110805092D01*
X128170623Y-110786340D01*
X128179255Y-110785368D01*
X128349522Y-110725789D01*
X128502262Y-110629816D01*
X128629816Y-110502262D01*
X128725789Y-110349522D01*
X128785107Y-110180000D01*
X141875138Y-110180000D01*
X142678012Y-110180000D01*
X142660795Y-110189940D01*
X142604940Y-110245795D01*
X142565444Y-110314204D01*
X142545000Y-110390504D01*
X142545000Y-110469496D01*
X142565444Y-110545796D01*
X142604940Y-110614205D01*
X142660795Y-110670060D01*
X142678012Y-110680000D01*
X141875138Y-110680000D01*
X141883430Y-110721690D01*
X141883430Y-110721692D01*
X141958807Y-110903671D01*
X141958814Y-110903684D01*
X142048479Y-111037876D01*
X142064774Y-111089919D01*
X142112995Y-111112538D01*
X142118522Y-111117737D01*
X142207533Y-111206748D01*
X142207537Y-111206751D01*
X142371315Y-111316185D01*
X142371328Y-111316192D01*
X142553306Y-111391569D01*
X142553318Y-111391572D01*
X142746504Y-111429999D01*
X142746508Y-111430000D01*
X143145000Y-111430000D01*
X143145000Y-110730000D01*
X143645000Y-110730000D01*
X143645000Y-111268215D01*
X143625315Y-111335254D01*
X143583002Y-111375601D01*
X143541638Y-111399483D01*
X143541632Y-111399487D01*
X143434487Y-111506632D01*
X143434485Y-111506635D01*
X143358719Y-111637863D01*
X143327470Y-111754488D01*
X143319500Y-111784234D01*
X143319500Y-111935766D01*
X143357018Y-112075788D01*
X143358720Y-112082137D01*
X143358720Y-112082138D01*
X143391486Y-112138890D01*
X143407959Y-112206790D01*
X143385106Y-112272817D01*
X143350071Y-112305884D01*
X143247737Y-112370184D01*
X143120184Y-112497737D01*
X143024211Y-112650476D01*
X142964631Y-112820745D01*
X142964630Y-112820750D01*
X142944435Y-112999996D01*
X142944435Y-113000003D01*
X142964630Y-113179249D01*
X142964631Y-113179254D01*
X143024211Y-113349523D01*
X143105333Y-113478627D01*
X143120184Y-113502262D01*
X143247738Y-113629816D01*
X143400478Y-113725789D01*
X143520573Y-113767812D01*
X143570745Y-113785368D01*
X143570750Y-113785369D01*
X143749996Y-113805565D01*
X143750000Y-113805565D01*
X143750004Y-113805565D01*
X143929249Y-113785369D01*
X143929252Y-113785368D01*
X143929255Y-113785368D01*
X144099522Y-113725789D01*
X144252262Y-113629816D01*
X144379816Y-113502262D01*
X144475789Y-113349522D01*
X144535368Y-113179255D01*
X144535369Y-113179249D01*
X144555565Y-113000003D01*
X144555565Y-112999996D01*
X144535369Y-112820750D01*
X144535368Y-112820745D01*
X144475788Y-112650476D01*
X144403461Y-112535369D01*
X144379816Y-112497738D01*
X144313160Y-112431082D01*
X144279675Y-112369759D01*
X144284659Y-112300067D01*
X144313160Y-112255720D01*
X144330592Y-112238288D01*
X144355515Y-112213365D01*
X144431281Y-112082135D01*
X144470500Y-111935766D01*
X144470500Y-111784234D01*
X144431281Y-111637865D01*
X144355515Y-111506635D01*
X144355513Y-111506633D01*
X144351451Y-111499597D01*
X144353654Y-111498325D01*
X144333041Y-111445022D01*
X144347073Y-111376576D01*
X144395882Y-111326582D01*
X144409163Y-111320129D01*
X144418682Y-111316186D01*
X144418684Y-111316185D01*
X144582462Y-111206751D01*
X144582466Y-111206748D01*
X144721748Y-111067466D01*
X144721751Y-111067462D01*
X144831185Y-110903684D01*
X144831192Y-110903671D01*
X144906569Y-110721692D01*
X144906569Y-110721690D01*
X144914862Y-110680000D01*
X144111988Y-110680000D01*
X144129205Y-110670060D01*
X144185060Y-110614205D01*
X144224556Y-110545796D01*
X144245000Y-110469496D01*
X144245000Y-110390504D01*
X144224556Y-110314204D01*
X144185060Y-110245795D01*
X144129205Y-110189940D01*
X144111988Y-110180000D01*
X144914862Y-110180000D01*
X146305138Y-110180000D01*
X147108012Y-110180000D01*
X147090795Y-110189940D01*
X147034940Y-110245795D01*
X146995444Y-110314204D01*
X146975000Y-110390504D01*
X146975000Y-110469496D01*
X146995444Y-110545796D01*
X147034940Y-110614205D01*
X147090795Y-110670060D01*
X147108012Y-110680000D01*
X146305138Y-110680000D01*
X146313430Y-110721690D01*
X146313430Y-110721692D01*
X146388807Y-110903671D01*
X146388814Y-110903684D01*
X146498248Y-111067462D01*
X146498251Y-111067466D01*
X146637533Y-111206748D01*
X146637537Y-111206751D01*
X146801315Y-111316185D01*
X146801328Y-111316192D01*
X146983306Y-111391569D01*
X146983318Y-111391572D01*
X147176504Y-111429999D01*
X147176508Y-111430000D01*
X147325000Y-111430000D01*
X147325000Y-110730000D01*
X147825000Y-110730000D01*
X147825000Y-111430000D01*
X147973492Y-111430000D01*
X147973495Y-111429999D01*
X148166681Y-111391572D01*
X148166693Y-111391569D01*
X148348671Y-111316192D01*
X148348684Y-111316185D01*
X148512462Y-111206751D01*
X148512466Y-111206748D01*
X148651748Y-111067466D01*
X148651751Y-111067462D01*
X148761185Y-110903684D01*
X148761192Y-110903671D01*
X148836569Y-110721692D01*
X148836569Y-110721690D01*
X148844862Y-110680000D01*
X148041988Y-110680000D01*
X148059205Y-110670060D01*
X148115060Y-110614205D01*
X148154556Y-110545796D01*
X148175000Y-110469496D01*
X148175000Y-110390504D01*
X148154556Y-110314204D01*
X148115060Y-110245795D01*
X148059205Y-110189940D01*
X148041988Y-110180000D01*
X148844862Y-110180000D01*
X148836569Y-110138309D01*
X148836569Y-110138307D01*
X148761192Y-109956328D01*
X148761185Y-109956315D01*
X148651751Y-109792537D01*
X148651748Y-109792533D01*
X148512466Y-109653251D01*
X148512462Y-109653248D01*
X148348684Y-109543814D01*
X148348671Y-109543807D01*
X148166693Y-109468430D01*
X148166681Y-109468427D01*
X147973495Y-109430000D01*
X147825000Y-109430000D01*
X147825000Y-110130000D01*
X147325000Y-110130000D01*
X147325000Y-109430000D01*
X147176504Y-109430000D01*
X146983318Y-109468427D01*
X146983306Y-109468430D01*
X146801328Y-109543807D01*
X146801315Y-109543814D01*
X146637537Y-109653248D01*
X146637533Y-109653251D01*
X146498251Y-109792533D01*
X146498248Y-109792537D01*
X146388814Y-109956315D01*
X146388807Y-109956328D01*
X146313430Y-110138307D01*
X146313430Y-110138309D01*
X146305138Y-110180000D01*
X144914862Y-110180000D01*
X144906569Y-110138309D01*
X144906569Y-110138307D01*
X144831192Y-109956328D01*
X144831185Y-109956315D01*
X144721751Y-109792537D01*
X144721748Y-109792533D01*
X144582466Y-109653251D01*
X144582462Y-109653248D01*
X144418684Y-109543814D01*
X144418671Y-109543807D01*
X144236693Y-109468430D01*
X144236681Y-109468427D01*
X144043495Y-109430000D01*
X143645000Y-109430000D01*
X143645000Y-110130000D01*
X143145000Y-110130000D01*
X143145000Y-109430000D01*
X142746504Y-109430000D01*
X142553318Y-109468427D01*
X142553306Y-109468430D01*
X142371328Y-109543807D01*
X142371315Y-109543814D01*
X142207537Y-109653248D01*
X142207533Y-109653251D01*
X142068251Y-109792533D01*
X142068248Y-109792537D01*
X141958814Y-109956315D01*
X141958807Y-109956328D01*
X141883430Y-110138307D01*
X141883430Y-110138309D01*
X141875138Y-110180000D01*
X128785107Y-110180000D01*
X128785368Y-110179255D01*
X128785369Y-110179249D01*
X128805565Y-110000003D01*
X128805565Y-109999996D01*
X128785369Y-109820750D01*
X128785368Y-109820745D01*
X128760613Y-109749999D01*
X128725789Y-109650478D01*
X128712185Y-109628828D01*
X128653461Y-109535369D01*
X128629816Y-109497738D01*
X128502262Y-109370184D01*
X128387107Y-109297827D01*
X128349523Y-109274211D01*
X128179254Y-109214631D01*
X128179249Y-109214630D01*
X128000004Y-109194435D01*
X127999996Y-109194435D01*
X127820750Y-109214630D01*
X127820745Y-109214631D01*
X127650476Y-109274211D01*
X127497737Y-109370184D01*
X127370184Y-109497737D01*
X127333849Y-109555565D01*
X127274211Y-109650478D01*
X127274210Y-109650480D01*
X127270507Y-109656374D01*
X127267869Y-109654716D01*
X127229972Y-109696358D01*
X127179383Y-109713658D01*
X127170745Y-109714632D01*
X127170744Y-109714632D01*
X127000478Y-109774210D01*
X126847737Y-109870184D01*
X126720184Y-109997737D01*
X126624211Y-110150476D01*
X126564631Y-110320745D01*
X126564630Y-110320750D01*
X126544435Y-110499996D01*
X125881240Y-110499996D01*
X125975789Y-110349522D01*
X126035368Y-110179255D01*
X126035369Y-110179249D01*
X126055565Y-110000003D01*
X126055565Y-109999996D01*
X126035369Y-109820750D01*
X126035368Y-109820745D01*
X126010613Y-109749999D01*
X125975789Y-109650478D01*
X125962185Y-109628828D01*
X125903461Y-109535369D01*
X125879816Y-109497738D01*
X125752262Y-109370184D01*
X125637107Y-109297827D01*
X125599523Y-109274211D01*
X125429254Y-109214631D01*
X125429249Y-109214630D01*
X125250004Y-109194435D01*
X125249996Y-109194435D01*
X125070750Y-109214630D01*
X125070745Y-109214631D01*
X124900476Y-109274211D01*
X124747737Y-109370184D01*
X124620184Y-109497737D01*
X124524211Y-109650476D01*
X124464631Y-109820745D01*
X124464630Y-109820750D01*
X124444435Y-109999996D01*
X121350499Y-109999996D01*
X121350499Y-108852128D01*
X121344091Y-108792517D01*
X121328234Y-108750003D01*
X121328231Y-108749996D01*
X129194435Y-108749996D01*
X129194435Y-108750003D01*
X129214630Y-108929249D01*
X129214631Y-108929254D01*
X129274211Y-109099523D01*
X129321500Y-109174782D01*
X129370184Y-109252262D01*
X129497738Y-109379816D01*
X129650478Y-109475789D01*
X129749602Y-109510474D01*
X129820745Y-109535368D01*
X129820750Y-109535369D01*
X129999996Y-109555565D01*
X130000000Y-109555565D01*
X130000004Y-109555565D01*
X130179249Y-109535369D01*
X130179252Y-109535368D01*
X130179255Y-109535368D01*
X130349522Y-109475789D01*
X130502262Y-109379816D01*
X130629816Y-109252262D01*
X130725789Y-109099522D01*
X130785368Y-108929255D01*
X130785369Y-108929249D01*
X130805565Y-108750003D01*
X130805565Y-108749996D01*
X130785369Y-108570750D01*
X130785368Y-108570745D01*
X130751210Y-108473127D01*
X130725789Y-108400478D01*
X130725174Y-108399500D01*
X130686582Y-108338080D01*
X130629816Y-108247738D01*
X130502262Y-108120184D01*
X130349523Y-108024211D01*
X130179254Y-107964631D01*
X130179249Y-107964630D01*
X130000004Y-107944435D01*
X129999996Y-107944435D01*
X129820750Y-107964630D01*
X129820745Y-107964631D01*
X129650476Y-108024211D01*
X129497737Y-108120184D01*
X129370184Y-108247737D01*
X129274211Y-108400476D01*
X129214631Y-108570745D01*
X129214630Y-108570750D01*
X129194435Y-108749996D01*
X121328231Y-108749996D01*
X121293797Y-108657671D01*
X121293793Y-108657664D01*
X121207547Y-108542455D01*
X121207544Y-108542452D01*
X121092335Y-108456206D01*
X121092328Y-108456202D01*
X120957482Y-108405908D01*
X120957483Y-108405908D01*
X120897883Y-108399501D01*
X120897881Y-108399500D01*
X120897873Y-108399500D01*
X120897864Y-108399500D01*
X118602129Y-108399500D01*
X118602123Y-108399501D01*
X118542516Y-108405908D01*
X118407671Y-108456202D01*
X118407664Y-108456206D01*
X118292455Y-108542452D01*
X118292452Y-108542455D01*
X118206206Y-108657664D01*
X118206202Y-108657671D01*
X118155908Y-108792517D01*
X118151722Y-108831458D01*
X118149501Y-108852123D01*
X118149500Y-108852135D01*
X118149500Y-111147870D01*
X118149501Y-111147876D01*
X118155908Y-111207483D01*
X118206202Y-111342328D01*
X118206206Y-111342335D01*
X118292452Y-111457544D01*
X118292455Y-111457547D01*
X118407664Y-111543793D01*
X118407671Y-111543797D01*
X118445148Y-111557775D01*
X118501082Y-111599646D01*
X118525499Y-111665110D01*
X118510648Y-111733383D01*
X118496106Y-111754487D01*
X118451575Y-111806626D01*
X118451568Y-111806637D01*
X118319980Y-112021368D01*
X118223603Y-112254043D01*
X118164812Y-112498927D01*
X118145052Y-112750000D01*
X114855449Y-112750000D01*
X114835683Y-112498852D01*
X114776873Y-112253889D01*
X114760612Y-112214631D01*
X114680466Y-112021140D01*
X114548839Y-111806346D01*
X114548838Y-111806343D01*
X114486524Y-111733383D01*
X114385224Y-111614776D01*
X114214879Y-111469288D01*
X114176688Y-111410784D01*
X114176189Y-111340916D01*
X114213543Y-111281869D01*
X114214823Y-111280759D01*
X114385224Y-111135224D01*
X114548836Y-110943659D01*
X114548837Y-110943657D01*
X114548839Y-110943655D01*
X114548839Y-110943654D01*
X114680466Y-110728859D01*
X114776873Y-110496111D01*
X114835683Y-110251148D01*
X114855449Y-110000000D01*
X114835683Y-109748852D01*
X114776873Y-109503889D01*
X114765233Y-109475788D01*
X114680466Y-109271140D01*
X114548839Y-109056346D01*
X114548838Y-109056343D01*
X114440289Y-108929249D01*
X114385224Y-108864776D01*
X114210942Y-108715925D01*
X114193656Y-108701161D01*
X114193653Y-108701160D01*
X113978859Y-108569533D01*
X113746110Y-108473126D01*
X113501151Y-108414317D01*
X113250000Y-108394551D01*
X112998848Y-108414317D01*
X112753889Y-108473126D01*
X112521140Y-108569533D01*
X112306346Y-108701160D01*
X112306343Y-108701161D01*
X112114776Y-108864776D01*
X111951161Y-109056343D01*
X111951160Y-109056346D01*
X111819533Y-109271140D01*
X111723126Y-109503889D01*
X111664317Y-109748848D01*
X111644551Y-110000000D01*
X102954896Y-110000000D01*
X102871402Y-109916506D01*
X102871396Y-109916501D01*
X102685842Y-109786575D01*
X102642217Y-109731998D01*
X102635023Y-109662500D01*
X102666546Y-109600145D01*
X102685842Y-109583425D01*
X102790025Y-109510475D01*
X102871401Y-109453495D01*
X103038495Y-109286401D01*
X103174035Y-109092830D01*
X103273903Y-108878663D01*
X103335063Y-108650408D01*
X103355659Y-108415000D01*
X103354388Y-108400478D01*
X103341223Y-108250000D01*
X103341222Y-108249994D01*
X104954357Y-108249994D01*
X104954357Y-108250005D01*
X104974890Y-108497812D01*
X104974892Y-108497824D01*
X105035936Y-108738881D01*
X105135826Y-108966606D01*
X105271833Y-109174782D01*
X105271836Y-109174785D01*
X105440256Y-109357738D01*
X105636491Y-109510474D01*
X105855190Y-109628828D01*
X106090386Y-109709571D01*
X106335665Y-109750500D01*
X106584335Y-109750500D01*
X106829614Y-109709571D01*
X107064810Y-109628828D01*
X107283509Y-109510474D01*
X107367201Y-109445333D01*
X107432192Y-109419692D01*
X107500732Y-109433258D01*
X107551057Y-109481726D01*
X107552290Y-109484361D01*
X107552396Y-109484304D01*
X107556649Y-109492093D01*
X107642809Y-109607187D01*
X107642812Y-109607190D01*
X107757906Y-109693350D01*
X107757913Y-109693354D01*
X107892620Y-109743596D01*
X107892627Y-109743598D01*
X107952155Y-109749999D01*
X107952172Y-109750000D01*
X108750000Y-109750000D01*
X108750000Y-108683012D01*
X108807007Y-108715925D01*
X108934174Y-108750000D01*
X109065826Y-108750000D01*
X109192993Y-108715925D01*
X109250000Y-108683012D01*
X109250000Y-109750000D01*
X110047828Y-109750000D01*
X110047844Y-109749999D01*
X110107372Y-109743598D01*
X110107379Y-109743596D01*
X110242086Y-109693354D01*
X110242093Y-109693350D01*
X110357187Y-109607190D01*
X110357190Y-109607187D01*
X110443350Y-109492093D01*
X110443354Y-109492086D01*
X110493596Y-109357379D01*
X110493598Y-109357372D01*
X110499999Y-109297844D01*
X110500000Y-109297827D01*
X110500000Y-108500000D01*
X109433012Y-108500000D01*
X109465925Y-108442993D01*
X109500000Y-108315826D01*
X109500000Y-108184174D01*
X109465925Y-108057007D01*
X109433012Y-108000000D01*
X110500000Y-108000000D01*
X110500000Y-107202172D01*
X110499999Y-107202155D01*
X110493598Y-107142627D01*
X110493596Y-107142620D01*
X110443354Y-107007913D01*
X110443350Y-107007906D01*
X110357190Y-106892812D01*
X110357187Y-106892809D01*
X110242093Y-106806649D01*
X110242086Y-106806645D01*
X110107379Y-106756403D01*
X110107372Y-106756401D01*
X110047844Y-106750000D01*
X109250000Y-106750000D01*
X109250000Y-107816988D01*
X109192993Y-107784075D01*
X109065826Y-107750000D01*
X108934174Y-107750000D01*
X108807007Y-107784075D01*
X108750000Y-107816988D01*
X108750000Y-106750000D01*
X107952155Y-106750000D01*
X107892627Y-106756401D01*
X107892620Y-106756403D01*
X107757913Y-106806645D01*
X107757906Y-106806649D01*
X107642812Y-106892809D01*
X107642809Y-106892812D01*
X107556649Y-107007906D01*
X107552396Y-107015696D01*
X107549217Y-107013960D01*
X107517596Y-107056135D01*
X107452113Y-107080502D01*
X107383851Y-107065598D01*
X107367199Y-107054665D01*
X107330879Y-107026396D01*
X107283509Y-106989526D01*
X107283507Y-106989525D01*
X107283506Y-106989524D01*
X107064811Y-106871172D01*
X107064802Y-106871169D01*
X106829616Y-106790429D01*
X106584335Y-106749500D01*
X106335665Y-106749500D01*
X106090383Y-106790429D01*
X105855197Y-106871169D01*
X105855188Y-106871172D01*
X105636493Y-106989524D01*
X105441753Y-107141097D01*
X105440256Y-107142262D01*
X105439920Y-107142627D01*
X105271833Y-107325217D01*
X105135826Y-107533393D01*
X105035936Y-107761118D01*
X104974892Y-108002175D01*
X104974890Y-108002187D01*
X104954357Y-108249994D01*
X103341222Y-108249994D01*
X103335063Y-108179592D01*
X103286888Y-107999799D01*
X103273905Y-107951344D01*
X103273904Y-107951343D01*
X103273903Y-107951337D01*
X103174035Y-107737171D01*
X103038495Y-107543599D01*
X102916179Y-107421283D01*
X102882696Y-107359963D01*
X102887680Y-107290271D01*
X102929551Y-107234337D01*
X102960529Y-107217422D01*
X103092086Y-107168354D01*
X103092093Y-107168350D01*
X103207187Y-107082190D01*
X103207190Y-107082187D01*
X103293350Y-106967093D01*
X103293354Y-106967086D01*
X103343596Y-106832379D01*
X103343598Y-106832372D01*
X103349999Y-106772844D01*
X103350000Y-106772827D01*
X103350000Y-106125000D01*
X102433012Y-106125000D01*
X102465925Y-106067993D01*
X102500000Y-105940826D01*
X102500000Y-105809174D01*
X102465925Y-105682007D01*
X102433012Y-105625000D01*
X103350000Y-105625000D01*
X103350000Y-105500000D01*
X111644551Y-105500000D01*
X111664317Y-105751151D01*
X111723126Y-105996110D01*
X111819533Y-106228859D01*
X111951160Y-106443653D01*
X111951161Y-106443656D01*
X111951164Y-106443659D01*
X112114776Y-106635224D01*
X112256656Y-106756401D01*
X112306343Y-106798838D01*
X112306346Y-106798839D01*
X112521140Y-106930466D01*
X112708098Y-107007906D01*
X112753889Y-107026873D01*
X112998852Y-107085683D01*
X113250000Y-107105449D01*
X113501148Y-107085683D01*
X113746111Y-107026873D01*
X113978859Y-106930466D01*
X114193659Y-106798836D01*
X114385224Y-106635224D01*
X114548836Y-106443659D01*
X114680466Y-106228859D01*
X114776873Y-105996111D01*
X114835683Y-105751148D01*
X114855449Y-105500000D01*
X118145052Y-105500000D01*
X118164812Y-105751072D01*
X118223603Y-105995956D01*
X118319980Y-106228631D01*
X118451568Y-106443362D01*
X118452266Y-106444179D01*
X119185387Y-105711058D01*
X119190889Y-105731591D01*
X119269881Y-105868408D01*
X119381592Y-105980119D01*
X119518409Y-106059111D01*
X119538940Y-106064612D01*
X118805819Y-106797732D01*
X118805819Y-106797733D01*
X118806634Y-106798429D01*
X119021368Y-106930019D01*
X119254043Y-107026396D01*
X119498927Y-107085187D01*
X119750000Y-107104947D01*
X120001072Y-107085187D01*
X120245956Y-107026396D01*
X120478631Y-106930019D01*
X120693361Y-106798432D01*
X120693363Y-106798430D01*
X120694180Y-106797732D01*
X120396444Y-106499996D01*
X134194435Y-106499996D01*
X134194435Y-106500003D01*
X134214630Y-106679249D01*
X134214631Y-106679254D01*
X134274211Y-106849523D01*
X134332024Y-106941531D01*
X134370184Y-107002262D01*
X134497738Y-107129816D01*
X134650478Y-107225789D01*
X134693849Y-107240965D01*
X134820745Y-107285368D01*
X134820750Y-107285369D01*
X134999996Y-107305565D01*
X135000000Y-107305565D01*
X135000004Y-107305565D01*
X135179249Y-107285369D01*
X135179252Y-107285368D01*
X135179255Y-107285368D01*
X135349522Y-107225789D01*
X135502262Y-107129816D01*
X135629816Y-107002262D01*
X135725789Y-106849522D01*
X135785368Y-106679255D01*
X135805565Y-106500000D01*
X135799216Y-106443653D01*
X135785369Y-106320750D01*
X135785368Y-106320745D01*
X135725788Y-106150476D01*
X135664232Y-106052511D01*
X135629816Y-105997738D01*
X135502262Y-105870184D01*
X135475794Y-105853553D01*
X135349523Y-105774211D01*
X135179254Y-105714631D01*
X135179249Y-105714630D01*
X135000004Y-105694435D01*
X134999996Y-105694435D01*
X134820750Y-105714630D01*
X134820745Y-105714631D01*
X134650476Y-105774211D01*
X134497737Y-105870184D01*
X134370184Y-105997737D01*
X134274211Y-106150476D01*
X134214631Y-106320745D01*
X134214630Y-106320750D01*
X134194435Y-106499996D01*
X120396444Y-106499996D01*
X119961059Y-106064612D01*
X119981591Y-106059111D01*
X120118408Y-105980119D01*
X120230119Y-105868408D01*
X120309111Y-105731591D01*
X120314612Y-105711059D01*
X121047732Y-106444180D01*
X121048430Y-106443363D01*
X121048432Y-106443361D01*
X121180019Y-106228631D01*
X121276396Y-105995956D01*
X121335187Y-105751072D01*
X121354947Y-105500000D01*
X121335187Y-105248927D01*
X121276396Y-105004043D01*
X121180019Y-104771368D01*
X121048429Y-104556634D01*
X121047733Y-104555819D01*
X121047732Y-104555819D01*
X120314612Y-105288939D01*
X120309111Y-105268409D01*
X120230119Y-105131592D01*
X120118408Y-105019881D01*
X119981591Y-104940889D01*
X119961058Y-104935387D01*
X120571738Y-104324706D01*
X120633061Y-104291221D01*
X120645519Y-104289169D01*
X120679255Y-104285368D01*
X120849522Y-104225789D01*
X121002262Y-104129816D01*
X121129816Y-104002262D01*
X121225789Y-103849522D01*
X121285368Y-103679255D01*
X121285369Y-103679249D01*
X121305565Y-103500003D01*
X121305565Y-103499996D01*
X122194435Y-103499996D01*
X122194435Y-103500003D01*
X122214630Y-103679249D01*
X122214631Y-103679254D01*
X122274211Y-103849523D01*
X122351877Y-103973127D01*
X122370184Y-104002262D01*
X122497738Y-104129816D01*
X122588080Y-104186582D01*
X122611287Y-104201164D01*
X122650478Y-104225789D01*
X122820742Y-104285367D01*
X122820745Y-104285368D01*
X122820750Y-104285369D01*
X122999996Y-104305565D01*
X123000000Y-104305565D01*
X123000004Y-104305565D01*
X123179249Y-104285369D01*
X123179252Y-104285368D01*
X123179255Y-104285368D01*
X123349522Y-104225789D01*
X123502262Y-104129816D01*
X123629816Y-104002262D01*
X123725789Y-103849522D01*
X123785368Y-103679255D01*
X123785369Y-103679249D01*
X123805565Y-103500003D01*
X123805565Y-103499996D01*
X134194435Y-103499996D01*
X134194435Y-103500003D01*
X134214630Y-103679249D01*
X134214631Y-103679254D01*
X134274211Y-103849523D01*
X134351877Y-103973127D01*
X134370184Y-104002262D01*
X134497738Y-104129816D01*
X134588080Y-104186582D01*
X134611287Y-104201164D01*
X134650478Y-104225789D01*
X134820742Y-104285367D01*
X134820745Y-104285368D01*
X134820750Y-104285369D01*
X134999996Y-104305565D01*
X135000000Y-104305565D01*
X135000004Y-104305565D01*
X135179249Y-104285369D01*
X135179252Y-104285368D01*
X135179255Y-104285368D01*
X135349522Y-104225789D01*
X135502262Y-104129816D01*
X135629816Y-104002262D01*
X135725789Y-103849522D01*
X135785368Y-103679255D01*
X135785369Y-103679249D01*
X135805565Y-103500003D01*
X135805565Y-103499996D01*
X135785369Y-103320750D01*
X135785368Y-103320745D01*
X135785365Y-103320737D01*
X135725789Y-103150478D01*
X135629816Y-102997738D01*
X135502262Y-102870184D01*
X135469379Y-102849522D01*
X135349523Y-102774211D01*
X135179254Y-102714631D01*
X135179249Y-102714630D01*
X135000004Y-102694435D01*
X134999996Y-102694435D01*
X134820750Y-102714630D01*
X134820745Y-102714631D01*
X134650476Y-102774211D01*
X134497737Y-102870184D01*
X134370184Y-102997737D01*
X134274211Y-103150476D01*
X134214631Y-103320745D01*
X134214630Y-103320750D01*
X134194435Y-103499996D01*
X123805565Y-103499996D01*
X123785369Y-103320750D01*
X123785368Y-103320745D01*
X123785365Y-103320737D01*
X123725789Y-103150478D01*
X123629816Y-102997738D01*
X123502262Y-102870184D01*
X123469379Y-102849522D01*
X123349523Y-102774211D01*
X123179254Y-102714631D01*
X123179249Y-102714630D01*
X123000004Y-102694435D01*
X122999996Y-102694435D01*
X122820750Y-102714630D01*
X122820745Y-102714631D01*
X122650476Y-102774211D01*
X122497737Y-102870184D01*
X122370184Y-102997737D01*
X122274211Y-103150476D01*
X122214631Y-103320745D01*
X122214630Y-103320750D01*
X122194435Y-103499996D01*
X121305565Y-103499996D01*
X121285369Y-103320750D01*
X121285368Y-103320745D01*
X121285365Y-103320737D01*
X121225789Y-103150478D01*
X121129816Y-102997738D01*
X121002262Y-102870184D01*
X120969379Y-102849522D01*
X120849523Y-102774211D01*
X120679254Y-102714631D01*
X120679249Y-102714630D01*
X120500004Y-102694435D01*
X120499996Y-102694435D01*
X120320750Y-102714630D01*
X120320745Y-102714631D01*
X120150476Y-102774211D01*
X119997737Y-102870184D01*
X119870184Y-102997737D01*
X119774211Y-103150476D01*
X119714631Y-103320745D01*
X119714630Y-103320750D01*
X119694435Y-103499996D01*
X119694435Y-103500003D01*
X119714630Y-103679249D01*
X119714633Y-103679262D01*
X119735899Y-103740035D01*
X119739461Y-103809814D01*
X119704733Y-103870441D01*
X119642739Y-103902669D01*
X119628587Y-103904608D01*
X119498927Y-103914812D01*
X119254043Y-103973603D01*
X119021368Y-104069980D01*
X118806637Y-104201567D01*
X118805818Y-104202266D01*
X119538941Y-104935387D01*
X119518409Y-104940889D01*
X119381592Y-105019881D01*
X119269881Y-105131592D01*
X119190889Y-105268409D01*
X119185387Y-105288940D01*
X118452266Y-104555818D01*
X118451567Y-104556637D01*
X118319980Y-104771368D01*
X118223603Y-105004043D01*
X118164812Y-105248927D01*
X118145052Y-105500000D01*
X114855449Y-105500000D01*
X114835683Y-105248852D01*
X114776873Y-105003889D01*
X114680466Y-104771140D01*
X114549017Y-104556637D01*
X114548838Y-104556345D01*
X114548838Y-104556343D01*
X114511875Y-104513066D01*
X114385224Y-104364776D01*
X114222490Y-104225788D01*
X114193656Y-104201161D01*
X114193653Y-104201160D01*
X113978859Y-104069533D01*
X113746110Y-103973126D01*
X113501151Y-103914317D01*
X113250000Y-103894551D01*
X112998848Y-103914317D01*
X112753889Y-103973126D01*
X112521140Y-104069533D01*
X112306346Y-104201160D01*
X112306343Y-104201161D01*
X112114776Y-104364776D01*
X111951161Y-104556343D01*
X111951160Y-104556346D01*
X111819533Y-104771140D01*
X111723126Y-105003889D01*
X111664317Y-105248848D01*
X111644551Y-105500000D01*
X103350000Y-105500000D01*
X103350000Y-104977172D01*
X103349999Y-104977155D01*
X103343598Y-104917627D01*
X103343596Y-104917620D01*
X103293354Y-104782913D01*
X103293350Y-104782906D01*
X103207190Y-104667812D01*
X103207187Y-104667809D01*
X103092093Y-104581649D01*
X103092086Y-104581645D01*
X102957379Y-104531403D01*
X102957372Y-104531401D01*
X102897844Y-104525000D01*
X102250000Y-104525000D01*
X102250000Y-105441988D01*
X102192993Y-105409075D01*
X102065826Y-105375000D01*
X101934174Y-105375000D01*
X101807007Y-105409075D01*
X101750000Y-105441988D01*
X101750000Y-104525000D01*
X101102155Y-104525000D01*
X101042627Y-104531401D01*
X101042620Y-104531403D01*
X100907913Y-104581645D01*
X100907906Y-104581649D01*
X100792812Y-104667809D01*
X100723766Y-104760042D01*
X100667832Y-104801912D01*
X100598140Y-104806896D01*
X100536817Y-104773410D01*
X100503333Y-104712086D01*
X100500500Y-104685730D01*
X100500500Y-102397648D01*
X108449500Y-102397648D01*
X108449500Y-102602351D01*
X108481522Y-102804534D01*
X108544781Y-102999223D01*
X108608691Y-103124653D01*
X108621850Y-103150478D01*
X108637715Y-103181613D01*
X108758028Y-103347213D01*
X108902786Y-103491971D01*
X109057749Y-103604556D01*
X109068390Y-103612287D01*
X109184607Y-103671503D01*
X109250776Y-103705218D01*
X109250778Y-103705218D01*
X109250781Y-103705220D01*
X109355137Y-103739127D01*
X109445465Y-103768477D01*
X109546557Y-103784488D01*
X109647648Y-103800500D01*
X109647649Y-103800500D01*
X109852351Y-103800500D01*
X109852352Y-103800500D01*
X110054534Y-103768477D01*
X110249219Y-103705220D01*
X110431610Y-103612287D01*
X110524590Y-103544732D01*
X110597213Y-103491971D01*
X110597215Y-103491968D01*
X110597219Y-103491966D01*
X110741966Y-103347219D01*
X110741968Y-103347215D01*
X110741971Y-103347213D01*
X110794732Y-103274590D01*
X110862287Y-103181610D01*
X110955220Y-102999219D01*
X111018477Y-102804534D01*
X111050500Y-102602352D01*
X111050500Y-102499996D01*
X116434435Y-102499996D01*
X116434435Y-102500003D01*
X116454630Y-102679249D01*
X116454633Y-102679262D01*
X116514209Y-102849520D01*
X116567309Y-102934029D01*
X116586309Y-103001266D01*
X116567309Y-103065971D01*
X116514209Y-103150479D01*
X116454633Y-103320737D01*
X116454630Y-103320750D01*
X116434435Y-103499996D01*
X116434435Y-103500003D01*
X116454630Y-103679249D01*
X116454631Y-103679254D01*
X116514211Y-103849523D01*
X116591877Y-103973127D01*
X116610184Y-104002262D01*
X116737738Y-104129816D01*
X116828080Y-104186582D01*
X116851287Y-104201164D01*
X116890478Y-104225789D01*
X117060742Y-104285367D01*
X117060745Y-104285368D01*
X117060750Y-104285369D01*
X117239996Y-104305565D01*
X117240000Y-104305565D01*
X117240004Y-104305565D01*
X117419249Y-104285369D01*
X117419252Y-104285368D01*
X117419255Y-104285368D01*
X117589522Y-104225789D01*
X117742262Y-104129816D01*
X117869816Y-104002262D01*
X117965789Y-103849522D01*
X118025368Y-103679255D01*
X118025369Y-103679249D01*
X118045565Y-103500003D01*
X118045565Y-103499996D01*
X118025369Y-103320750D01*
X118025368Y-103320745D01*
X117965788Y-103150475D01*
X117912691Y-103065973D01*
X117893690Y-102998736D01*
X117912691Y-102934027D01*
X117965788Y-102849524D01*
X117965789Y-102849522D01*
X118025368Y-102679255D01*
X118045565Y-102500000D01*
X118034033Y-102397648D01*
X146699500Y-102397648D01*
X146699500Y-102602351D01*
X146731522Y-102804534D01*
X146794781Y-102999223D01*
X146858691Y-103124653D01*
X146871850Y-103150478D01*
X146887715Y-103181613D01*
X147008028Y-103347213D01*
X147152786Y-103491971D01*
X147307749Y-103604556D01*
X147318390Y-103612287D01*
X147434607Y-103671503D01*
X147500776Y-103705218D01*
X147500778Y-103705218D01*
X147500781Y-103705220D01*
X147605137Y-103739127D01*
X147695465Y-103768477D01*
X147796557Y-103784488D01*
X147897648Y-103800500D01*
X147897649Y-103800500D01*
X148102351Y-103800500D01*
X148102352Y-103800500D01*
X148304534Y-103768477D01*
X148499219Y-103705220D01*
X148681610Y-103612287D01*
X148774590Y-103544732D01*
X148847213Y-103491971D01*
X148847215Y-103491968D01*
X148847219Y-103491966D01*
X148991966Y-103347219D01*
X148991968Y-103347215D01*
X148991971Y-103347213D01*
X149044732Y-103274590D01*
X149112287Y-103181610D01*
X149205220Y-102999219D01*
X149268477Y-102804534D01*
X149300500Y-102602352D01*
X149300500Y-102397648D01*
X149285915Y-102305565D01*
X149268477Y-102195465D01*
X149205218Y-102000776D01*
X149138677Y-101870184D01*
X149112287Y-101818390D01*
X149096829Y-101797114D01*
X148991971Y-101652786D01*
X148847213Y-101508028D01*
X148681613Y-101387715D01*
X148681612Y-101387714D01*
X148681610Y-101387713D01*
X148624653Y-101358691D01*
X148499223Y-101294781D01*
X148304534Y-101231522D01*
X148129995Y-101203878D01*
X148102352Y-101199500D01*
X147897648Y-101199500D01*
X147876276Y-101202885D01*
X147695465Y-101231522D01*
X147500776Y-101294781D01*
X147318386Y-101387715D01*
X147152786Y-101508028D01*
X147008028Y-101652786D01*
X146887715Y-101818386D01*
X146794781Y-102000776D01*
X146731522Y-102195465D01*
X146699500Y-102397648D01*
X118034033Y-102397648D01*
X118025368Y-102320745D01*
X117965789Y-102150478D01*
X117869816Y-101997738D01*
X117742262Y-101870184D01*
X117709377Y-101849521D01*
X117589523Y-101774211D01*
X117419254Y-101714631D01*
X117419249Y-101714630D01*
X117240004Y-101694435D01*
X117239996Y-101694435D01*
X117060750Y-101714630D01*
X117060745Y-101714631D01*
X116890476Y-101774211D01*
X116737737Y-101870184D01*
X116610184Y-101997737D01*
X116514211Y-102150476D01*
X116454631Y-102320745D01*
X116454630Y-102320750D01*
X116434435Y-102499996D01*
X111050500Y-102499996D01*
X111050500Y-102397648D01*
X111035915Y-102305565D01*
X111018477Y-102195465D01*
X110955218Y-102000776D01*
X110888677Y-101870184D01*
X110862287Y-101818390D01*
X110846829Y-101797114D01*
X110741971Y-101652786D01*
X110597213Y-101508028D01*
X110431613Y-101387715D01*
X110431612Y-101387714D01*
X110431610Y-101387713D01*
X110374653Y-101358691D01*
X110249223Y-101294781D01*
X110054534Y-101231522D01*
X109879995Y-101203878D01*
X109852352Y-101199500D01*
X109647648Y-101199500D01*
X109626276Y-101202885D01*
X109445465Y-101231522D01*
X109250776Y-101294781D01*
X109068386Y-101387715D01*
X108902786Y-101508028D01*
X108758028Y-101652786D01*
X108637715Y-101818386D01*
X108544781Y-102000776D01*
X108481522Y-102195465D01*
X108449500Y-102397648D01*
X100500500Y-102397648D01*
X100500500Y-101797114D01*
X100520185Y-101730075D01*
X100572989Y-101684320D01*
X100642147Y-101674376D01*
X100705703Y-101703401D01*
X100741542Y-101756160D01*
X100774210Y-101849521D01*
X100867341Y-101997737D01*
X100870184Y-102002262D01*
X100997738Y-102129816D01*
X101150478Y-102225789D01*
X101320745Y-102285368D01*
X101320750Y-102285369D01*
X101499996Y-102305565D01*
X101500000Y-102305565D01*
X101500004Y-102305565D01*
X101679249Y-102285369D01*
X101679252Y-102285368D01*
X101679255Y-102285368D01*
X101849522Y-102225789D01*
X102002262Y-102129816D01*
X102129816Y-102002262D01*
X102225789Y-101849522D01*
X102285368Y-101679255D01*
X102285918Y-101674376D01*
X102305565Y-101500003D01*
X102305565Y-101499996D01*
X102285369Y-101320750D01*
X102285368Y-101320745D01*
X102254148Y-101231523D01*
X102225789Y-101150478D01*
X102129816Y-100997738D01*
X102002262Y-100870184D01*
X101849521Y-100774210D01*
X101756160Y-100741542D01*
X101699383Y-100700820D01*
X101673636Y-100635867D01*
X101687092Y-100567306D01*
X101735479Y-100516903D01*
X101797114Y-100500500D01*
X149875500Y-100500500D01*
X149942539Y-100520185D01*
G37*
%TD.AperFunction*%
%TD*%
M02*
