%TF.GenerationSoftware,KiCad,Pcbnew,8.0.7*%
%TF.CreationDate,2025-04-15T10:47:43+02:00*%
%TF.ProjectId,colobus_hardware,636f6c6f-6275-4735-9f68-617264776172,rev?*%
%TF.SameCoordinates,Original*%
%TF.FileFunction,Copper,L1,Top*%
%TF.FilePolarity,Positive*%
%FSLAX46Y46*%
G04 Gerber Fmt 4.6, Leading zero omitted, Abs format (unit mm)*
G04 Created by KiCad (PCBNEW 8.0.7) date 2025-04-15 10:47:43*
%MOMM*%
%LPD*%
G01*
G04 APERTURE LIST*
G04 Aperture macros list*
%AMRoundRect*
0 Rectangle with rounded corners*
0 $1 Rounding radius*
0 $2 $3 $4 $5 $6 $7 $8 $9 X,Y pos of 4 corners*
0 Add a 4 corners polygon primitive as box body*
4,1,4,$2,$3,$4,$5,$6,$7,$8,$9,$2,$3,0*
0 Add four circle primitives for the rounded corners*
1,1,$1+$1,$2,$3*
1,1,$1+$1,$4,$5*
1,1,$1+$1,$6,$7*
1,1,$1+$1,$8,$9*
0 Add four rect primitives between the rounded corners*
20,1,$1+$1,$2,$3,$4,$5,0*
20,1,$1+$1,$4,$5,$6,$7,0*
20,1,$1+$1,$6,$7,$8,$9,0*
20,1,$1+$1,$8,$9,$2,$3,0*%
G04 Aperture macros list end*
%TA.AperFunction,SMDPad,CuDef*%
%ADD10RoundRect,0.140000X-0.170000X0.140000X-0.170000X-0.140000X0.170000X-0.140000X0.170000X0.140000X0*%
%TD*%
%TA.AperFunction,SMDPad,CuDef*%
%ADD11RoundRect,0.140000X-0.140000X-0.170000X0.140000X-0.170000X0.140000X0.170000X-0.140000X0.170000X0*%
%TD*%
%TA.AperFunction,ComponentPad*%
%ADD12R,2.000000X2.000000*%
%TD*%
%TA.AperFunction,ComponentPad*%
%ADD13C,2.000000*%
%TD*%
%TA.AperFunction,SMDPad,CuDef*%
%ADD14RoundRect,0.135000X0.185000X-0.135000X0.185000X0.135000X-0.185000X0.135000X-0.185000X-0.135000X0*%
%TD*%
%TA.AperFunction,SMDPad,CuDef*%
%ADD15R,1.100000X0.200000*%
%TD*%
%TA.AperFunction,SMDPad,CuDef*%
%ADD16R,0.200000X1.100000*%
%TD*%
%TA.AperFunction,SMDPad,CuDef*%
%ADD17R,3.100000X3.100000*%
%TD*%
%TA.AperFunction,ComponentPad*%
%ADD18R,2.200000X2.200000*%
%TD*%
%TA.AperFunction,ComponentPad*%
%ADD19C,2.200000*%
%TD*%
%TA.AperFunction,SMDPad,CuDef*%
%ADD20R,1.050000X1.600000*%
%TD*%
%TA.AperFunction,SMDPad,CuDef*%
%ADD21RoundRect,0.140000X0.140000X0.170000X-0.140000X0.170000X-0.140000X-0.170000X0.140000X-0.170000X0*%
%TD*%
%TA.AperFunction,SMDPad,CuDef*%
%ADD22RoundRect,0.150000X-0.650000X-0.150000X0.650000X-0.150000X0.650000X0.150000X-0.650000X0.150000X0*%
%TD*%
%TA.AperFunction,SMDPad,CuDef*%
%ADD23RoundRect,0.135000X-0.185000X0.135000X-0.185000X-0.135000X0.185000X-0.135000X0.185000X0.135000X0*%
%TD*%
%TA.AperFunction,SMDPad,CuDef*%
%ADD24R,1.050000X0.650000*%
%TD*%
%TA.AperFunction,SMDPad,CuDef*%
%ADD25RoundRect,0.135000X-0.135000X-0.185000X0.135000X-0.185000X0.135000X0.185000X-0.135000X0.185000X0*%
%TD*%
%TA.AperFunction,SMDPad,CuDef*%
%ADD26RoundRect,0.140000X0.170000X-0.140000X0.170000X0.140000X-0.170000X0.140000X-0.170000X-0.140000X0*%
%TD*%
%TA.AperFunction,ComponentPad*%
%ADD27R,1.700000X1.700000*%
%TD*%
%TA.AperFunction,ComponentPad*%
%ADD28O,1.700000X1.700000*%
%TD*%
%TA.AperFunction,SMDPad,CuDef*%
%ADD29RoundRect,0.135000X0.135000X0.185000X-0.135000X0.185000X-0.135000X-0.185000X0.135000X-0.185000X0*%
%TD*%
%TA.AperFunction,SMDPad,CuDef*%
%ADD30RoundRect,0.150000X-0.512500X-0.150000X0.512500X-0.150000X0.512500X0.150000X-0.512500X0.150000X0*%
%TD*%
%TA.AperFunction,SMDPad,CuDef*%
%ADD31RoundRect,0.218750X-0.256250X0.218750X-0.256250X-0.218750X0.256250X-0.218750X0.256250X0.218750X0*%
%TD*%
%TA.AperFunction,SMDPad,CuDef*%
%ADD32R,1.200000X1.400000*%
%TD*%
%TA.AperFunction,SMDPad,CuDef*%
%ADD33R,1.100000X0.280000*%
%TD*%
%TA.AperFunction,SMDPad,CuDef*%
%ADD34R,0.280000X1.100000*%
%TD*%
%TA.AperFunction,SMDPad,CuDef*%
%ADD35R,3.700000X3.700000*%
%TD*%
%TA.AperFunction,SMDPad,CuDef*%
%ADD36R,1.400000X1.200000*%
%TD*%
%TA.AperFunction,SMDPad,CuDef*%
%ADD37RoundRect,0.150000X0.500000X-0.150000X0.500000X0.150000X-0.500000X0.150000X-0.500000X-0.150000X0*%
%TD*%
%TA.AperFunction,SMDPad,CuDef*%
%ADD38RoundRect,0.075000X0.575000X-0.075000X0.575000X0.075000X-0.575000X0.075000X-0.575000X-0.075000X0*%
%TD*%
%TA.AperFunction,ComponentPad*%
%ADD39O,2.100000X1.000000*%
%TD*%
%TA.AperFunction,ComponentPad*%
%ADD40O,1.600000X1.000000*%
%TD*%
%TA.AperFunction,SMDPad,CuDef*%
%ADD41RoundRect,0.150000X-0.150000X0.512500X-0.150000X-0.512500X0.150000X-0.512500X0.150000X0.512500X0*%
%TD*%
%TA.AperFunction,ViaPad*%
%ADD42C,0.600000*%
%TD*%
%TA.AperFunction,Conductor*%
%ADD43C,0.400000*%
%TD*%
%TA.AperFunction,Conductor*%
%ADD44C,0.200000*%
%TD*%
G04 APERTURE END LIST*
D10*
%TO.P,C5,1*%
%TO.N,+3V3*%
X141200000Y-122520000D03*
%TO.P,C5,2*%
%TO.N,GND*%
X141200000Y-123480000D03*
%TD*%
%TO.P,C2,1*%
%TO.N,GND*%
X123250000Y-124520000D03*
%TO.P,C2,2*%
%TO.N,Net-(U1-XIN)*%
X123250000Y-125480000D03*
%TD*%
D11*
%TO.P,C12,1*%
%TO.N,+1V1*%
X129020000Y-110200000D03*
%TO.P,C12,2*%
%TO.N,GND*%
X129980000Y-110200000D03*
%TD*%
D12*
%TO.P,D2,1,K*%
%TO.N,GND*%
X109000000Y-108250000D03*
D13*
%TO.P,D2,2,A*%
%TO.N,Net-(D2-A)*%
X106460000Y-108250000D03*
%TD*%
D14*
%TO.P,R13,1*%
%TO.N,Net-(D4-A)*%
X110000000Y-119020000D03*
%TO.P,R13,2*%
%TO.N,LED4*%
X110000000Y-118000000D03*
%TD*%
D10*
%TO.P,C1,1*%
%TO.N,+3V3*%
X134000000Y-106520000D03*
%TO.P,C1,2*%
%TO.N,GND*%
X134000000Y-107480000D03*
%TD*%
D15*
%TO.P,U1,1,IOVDD*%
%TO.N,+3V3*%
X123400000Y-112840000D03*
%TO.P,U1,2,GPIO0*%
%TO.N,L1n*%
X123400000Y-113240000D03*
%TO.P,U1,3,GPIO1*%
%TO.N,L1p*%
X123400000Y-113640000D03*
%TO.P,U1,4,GPIO2*%
%TO.N,ID0*%
X123400000Y-114040000D03*
%TO.P,U1,5,GPIO3*%
%TO.N,ID1*%
X123400000Y-114440000D03*
%TO.P,U1,6,GPIO4*%
%TO.N,unconnected-(U1-GPIO4-Pad6)*%
X123400000Y-114840000D03*
%TO.P,U1,7,GPIO5*%
%TO.N,BTN1*%
X123400000Y-115240000D03*
%TO.P,U1,8,GPIO6*%
%TO.N,BTN2*%
X123400000Y-115640000D03*
%TO.P,U1,9,GPIO7*%
%TO.N,BTN3*%
X123400000Y-116040000D03*
%TO.P,U1,10,IOVDD*%
%TO.N,+3V3*%
X123400000Y-116440000D03*
%TO.P,U1,11,GPIO8*%
%TO.N,unconnected-(U1-GPIO8-Pad11)*%
X123400000Y-116840000D03*
%TO.P,U1,12,GPIO9*%
%TO.N,unconnected-(U1-GPIO9-Pad12)*%
X123400000Y-117240000D03*
%TO.P,U1,13,GPIO10*%
%TO.N,unconnected-(U1-GPIO10-Pad13)*%
X123400000Y-117640000D03*
%TO.P,U1,14,GPIO11*%
%TO.N,unconnected-(U1-GPIO11-Pad14)*%
X123400000Y-118040000D03*
D16*
%TO.P,U1,15,GPIO12*%
%TO.N,unconnected-(U1-GPIO12-Pad15)*%
X124350000Y-118990000D03*
%TO.P,U1,16,GPIO13*%
%TO.N,unconnected-(U1-GPIO13-Pad16)*%
X124750000Y-118990000D03*
%TO.P,U1,17,GPIO14*%
%TO.N,unconnected-(U1-GPIO14-Pad17)*%
X125150000Y-118990000D03*
%TO.P,U1,18,GPIO15*%
%TO.N,unconnected-(U1-GPIO15-Pad18)*%
X125550000Y-118990000D03*
%TO.P,U1,19,TESTEN*%
%TO.N,GND*%
X125950000Y-118990000D03*
%TO.P,U1,20,XIN*%
%TO.N,Net-(U1-XIN)*%
X126350000Y-118990000D03*
%TO.P,U1,21,XOUT*%
%TO.N,Net-(U1-XOUT)*%
X126750000Y-118990000D03*
%TO.P,U1,22,IOVDD*%
%TO.N,+3V3*%
X127150000Y-118990000D03*
%TO.P,U1,23,DVDD*%
%TO.N,+1V1*%
X127550000Y-118990000D03*
%TO.P,U1,24,SWCLK*%
%TO.N,SWDCLK*%
X127950000Y-118990000D03*
%TO.P,U1,25,SWD*%
%TO.N,SWDIO*%
X128350000Y-118990000D03*
%TO.P,U1,26,RUN*%
%TO.N,~{RESET}*%
X128750000Y-118990000D03*
%TO.P,U1,27,GPIO16*%
%TO.N,unconnected-(U1-GPIO16-Pad27)*%
X129150000Y-118990000D03*
%TO.P,U1,28,GPIO17*%
%TO.N,unconnected-(U1-GPIO17-Pad28)*%
X129550000Y-118990000D03*
D15*
%TO.P,U1,29,GPIO18*%
%TO.N,unconnected-(U1-GPIO18-Pad29)*%
X130500000Y-118040000D03*
%TO.P,U1,30,GPIO19*%
%TO.N,unconnected-(U1-GPIO19-Pad30)*%
X130500000Y-117640000D03*
%TO.P,U1,31,GPIO20*%
%TO.N,unconnected-(U1-GPIO20-Pad31)*%
X130500000Y-117240000D03*
%TO.P,U1,32,GPIO21*%
%TO.N,unconnected-(U1-GPIO21-Pad32)*%
X130500000Y-116840000D03*
%TO.P,U1,33,IOVDD*%
%TO.N,+3V3*%
X130500000Y-116440000D03*
%TO.P,U1,34,GPIO22*%
%TO.N,unconnected-(U1-GPIO22-Pad34)*%
X130500000Y-116040000D03*
%TO.P,U1,35,GPIO23*%
%TO.N,unconnected-(U1-GPIO23-Pad35)*%
X130500000Y-115640000D03*
%TO.P,U1,36,GPIO24*%
%TO.N,unconnected-(U1-GPIO24-Pad36)*%
X130500000Y-115240000D03*
%TO.P,U1,37,GPIO25*%
%TO.N,LED1*%
X130500000Y-114840000D03*
%TO.P,U1,38,GPIO26_ADC0*%
%TO.N,LED2*%
X130500000Y-114440000D03*
%TO.P,U1,39,GPIO27_ADC1*%
%TO.N,LED3*%
X130500000Y-114040000D03*
%TO.P,U1,40,GPIO28_ADC2*%
%TO.N,LED4*%
X130500000Y-113640000D03*
%TO.P,U1,41,GPIO29_ADC3*%
%TO.N,unconnected-(U1-GPIO29_ADC3-Pad41)*%
X130500000Y-113240000D03*
%TO.P,U1,42,IOVDD*%
%TO.N,+3V3*%
X130500000Y-112840000D03*
D16*
%TO.P,U1,43,ADC_AVDD*%
X129550000Y-111890000D03*
%TO.P,U1,44,VREG_IN*%
X129150000Y-111890000D03*
%TO.P,U1,45,VREG_VOUT*%
%TO.N,+1V1*%
X128750000Y-111890000D03*
%TO.P,U1,46,USB_DM*%
%TO.N,PICO_D_N*%
X128350000Y-111890000D03*
%TO.P,U1,47,USB_DP*%
%TO.N,PICO_D_P*%
X127950000Y-111890000D03*
%TO.P,U1,48,USB_VDD*%
%TO.N,+3V3*%
X127550000Y-111890000D03*
%TO.P,U1,49,IOVDD*%
X127150000Y-111890000D03*
%TO.P,U1,50,DVDD*%
%TO.N,+1V1*%
X126750000Y-111890000D03*
%TO.P,U1,51,QSPI_SD3*%
%TO.N,Net-(U1-QSPI_SD3)*%
X126350000Y-111890000D03*
%TO.P,U1,52,QSPI_SCLK*%
%TO.N,Net-(U1-QSPI_SCLK)*%
X125950000Y-111890000D03*
%TO.P,U1,53,QSPI_SD0*%
%TO.N,Net-(U1-QSPI_SD0)*%
X125550000Y-111890000D03*
%TO.P,U1,54,QSPI_SD2*%
%TO.N,Net-(U1-QSPI_SD2)*%
X125150000Y-111890000D03*
%TO.P,U1,55,QSPI_SD1*%
%TO.N,Net-(U1-QSPI_SD1)*%
X124750000Y-111890000D03*
%TO.P,U1,56,QSPI_SS*%
%TO.N,Net-(U1-QSPI_SS)*%
X124350000Y-111890000D03*
D17*
%TO.P,U1,57,GND*%
%TO.N,GND*%
X126950000Y-115440000D03*
%TD*%
D18*
%TO.P,Button3,1,1*%
%TO.N,BTN3*%
X119750000Y-124500000D03*
D19*
%TO.P,Button3,2,2*%
%TO.N,GND*%
X119750000Y-120000000D03*
%TO.P,Button3,3*%
%TO.N,N/C*%
X113250000Y-124500000D03*
%TO.P,Button3,4*%
X113250000Y-120000000D03*
%TD*%
D12*
%TO.P,D4,1,K*%
%TO.N,GND*%
X109000000Y-122000000D03*
D13*
%TO.P,D4,2,A*%
%TO.N,Net-(D4-A)*%
X106460000Y-122000000D03*
%TD*%
D20*
%TO.P,C8,1,1*%
%TO.N,5V*%
X103050000Y-127500000D03*
%TO.P,C8,2,2*%
%TO.N,GND*%
X106000000Y-127500000D03*
%TD*%
D21*
%TO.P,C16,1*%
%TO.N,+3V3*%
X122960000Y-111000000D03*
%TO.P,C16,2*%
%TO.N,GND*%
X122000000Y-111000000D03*
%TD*%
D22*
%TO.P,U2,1,~{CS}*%
%TO.N,Net-(U1-QSPI_SS)*%
X124400000Y-104845000D03*
%TO.P,U2,2,DO(IO1)*%
%TO.N,Net-(U1-QSPI_SD1)*%
X124400000Y-106115000D03*
%TO.P,U2,3,IO2*%
%TO.N,Net-(U1-QSPI_SD2)*%
X124400000Y-107385000D03*
%TO.P,U2,4,GND*%
%TO.N,GND*%
X124400000Y-108655000D03*
%TO.P,U2,5,DI(IO0)*%
%TO.N,Net-(U1-QSPI_SD0)*%
X131600000Y-108655000D03*
%TO.P,U2,6,CLK*%
%TO.N,Net-(U1-QSPI_SCLK)*%
X131600000Y-107385000D03*
%TO.P,U2,7,IO3*%
%TO.N,Net-(U1-QSPI_SD3)*%
X131600000Y-106115000D03*
%TO.P,U2,8,VCC*%
%TO.N,+3V3*%
X131600000Y-104845000D03*
%TD*%
D20*
%TO.P,C9,1,1*%
%TO.N,5V*%
X103050000Y-102000000D03*
%TO.P,C9,2,2*%
%TO.N,GND*%
X106000000Y-102000000D03*
%TD*%
D23*
%TO.P,R5,1*%
%TO.N,GND*%
X140750000Y-109990000D03*
%TO.P,R5,2*%
%TO.N,Net-(J2-CC2)*%
X140750000Y-111010000D03*
%TD*%
D24*
%TO.P,SW1,1,1*%
%TO.N,GND*%
X140825000Y-107075000D03*
X136675000Y-107075000D03*
%TO.P,SW1,2,2*%
%TO.N,Net-(R2-Pad1)*%
X140825000Y-104925000D03*
X136675000Y-104925000D03*
%TD*%
D25*
%TO.P,R3,1*%
%TO.N,Net-(U1-XOUT)*%
X124500000Y-122000000D03*
%TO.P,R3,2*%
%TO.N,Net-(C3-Pad2)*%
X125520000Y-122000000D03*
%TD*%
D14*
%TO.P,R4,1*%
%TO.N,GND*%
X140500000Y-117510000D03*
%TO.P,R4,2*%
%TO.N,Net-(J2-CC1)*%
X140500000Y-116490000D03*
%TD*%
D21*
%TO.P,C10,1*%
%TO.N,+1V1*%
X127480000Y-122000000D03*
%TO.P,C10,2*%
%TO.N,GND*%
X126520000Y-122000000D03*
%TD*%
D25*
%TO.P,R11,1*%
%TO.N,Net-(D2-A)*%
X107490000Y-111500000D03*
%TO.P,R11,2*%
%TO.N,LED2*%
X108510000Y-111500000D03*
%TD*%
D26*
%TO.P,C4,1*%
%TO.N,5V*%
X145700000Y-123367500D03*
%TO.P,C4,2*%
%TO.N,GND*%
X145700000Y-122407500D03*
%TD*%
D21*
%TO.P,C15,1*%
%TO.N,+3V3*%
X122980000Y-112000000D03*
%TO.P,C15,2*%
%TO.N,GND*%
X122020000Y-112000000D03*
%TD*%
D10*
%TO.P,C11,1*%
%TO.N,+1V1*%
X128700000Y-122020000D03*
%TO.P,C11,2*%
%TO.N,GND*%
X128700000Y-122980000D03*
%TD*%
D27*
%TO.P,J3,1,Pin_1*%
%TO.N,GND*%
X102000000Y-105875000D03*
D28*
%TO.P,J3,2,Pin_2*%
%TO.N,L0p*%
X102000000Y-108415000D03*
%TO.P,J3,3,Pin_3*%
%TO.N,L0n*%
X102000000Y-110955000D03*
%TO.P,J3,4,Pin_4*%
%TO.N,ID0*%
X102000000Y-113495000D03*
%TO.P,J3,5,Pin_5*%
%TO.N,5V*%
X102000000Y-116035000D03*
%TO.P,J3,6,Pin_6*%
%TO.N,L1n*%
X102000000Y-118575000D03*
%TO.P,J3,7,Pin_7*%
%TO.N,L1p*%
X102000000Y-121115000D03*
%TO.P,J3,8,Pin_8*%
%TO.N,ID1*%
X102000000Y-123655000D03*
%TD*%
D26*
%TO.P,C3,1*%
%TO.N,GND*%
X128700000Y-124980000D03*
%TO.P,C3,2*%
%TO.N,Net-(C3-Pad2)*%
X128700000Y-124020000D03*
%TD*%
D18*
%TO.P,Button2,1,1*%
%TO.N,BTN2*%
X119750000Y-117250000D03*
D19*
%TO.P,Button2,2,2*%
%TO.N,GND*%
X119750000Y-112750000D03*
%TO.P,Button2,3*%
%TO.N,N/C*%
X113250000Y-117250000D03*
%TO.P,Button2,4*%
X113250000Y-112750000D03*
%TD*%
D29*
%TO.P,R1,1*%
%TO.N,+3V3*%
X131510000Y-122000000D03*
%TO.P,R1,2*%
%TO.N,~{RESET}*%
X130490000Y-122000000D03*
%TD*%
D10*
%TO.P,C6,1*%
%TO.N,GND*%
X136995000Y-110170000D03*
%TO.P,C6,2*%
%TO.N,Net-(U6-XTALOUT)*%
X136995000Y-111130000D03*
%TD*%
D30*
%TO.P,U4,1,I/O1*%
%TO.N,D_P*%
X138112500Y-113300000D03*
%TO.P,U4,2,GND*%
%TO.N,GND*%
X138112500Y-114250000D03*
%TO.P,U4,3,I/O2*%
%TO.N,D_N*%
X138112500Y-115200000D03*
%TO.P,U4,4,I/O2*%
%TO.N,USB_DN*%
X140387500Y-115200000D03*
%TO.P,U4,5,VBUS*%
%TO.N,5V*%
X140387500Y-114250000D03*
%TO.P,U4,6,I/O1*%
%TO.N,USB_DP*%
X140387500Y-113300000D03*
%TD*%
D31*
%TO.P,D1,1,K*%
%TO.N,GND*%
X144000000Y-104712500D03*
%TO.P,D1,2,A*%
%TO.N,Net-(D1-A)*%
X144000000Y-106287500D03*
%TD*%
D18*
%TO.P,Button1,1,1*%
%TO.N,BTN1*%
X119750000Y-110000000D03*
D19*
%TO.P,Button1,2,2*%
%TO.N,GND*%
X119750000Y-105500000D03*
%TO.P,Button1,3*%
%TO.N,N/C*%
X113250000Y-110000000D03*
%TO.P,Button1,4*%
X113250000Y-105500000D03*
%TD*%
D26*
%TO.P,C17,1*%
%TO.N,+3V3*%
X121800000Y-109980000D03*
%TO.P,C17,2*%
%TO.N,GND*%
X121800000Y-109020000D03*
%TD*%
D29*
%TO.P,R2,1*%
%TO.N,Net-(R2-Pad1)*%
X134510000Y-105000000D03*
%TO.P,R2,2*%
%TO.N,Net-(U1-QSPI_SS)*%
X133490000Y-105000000D03*
%TD*%
D14*
%TO.P,R12,1*%
%TO.N,Net-(D3-A)*%
X110500000Y-112520000D03*
%TO.P,R12,2*%
%TO.N,LED3*%
X110500000Y-111500000D03*
%TD*%
D11*
%TO.P,C18,1*%
%TO.N,+3V3*%
X122020000Y-119500000D03*
%TO.P,C18,2*%
%TO.N,GND*%
X122980000Y-119500000D03*
%TD*%
D32*
%TO.P,Y2,1,1*%
%TO.N,Net-(U6-XTALOUT)*%
X135470000Y-111850000D03*
%TO.P,Y2,2,2*%
%TO.N,GND*%
X135470000Y-109650000D03*
%TO.P,Y2,3,3*%
%TO.N,Net-(U6-XTALIN{slash}CLKIN)*%
X133770000Y-109650000D03*
%TO.P,Y2,4,4*%
%TO.N,GND*%
X133770000Y-111850000D03*
%TD*%
D33*
%TO.P,U6,1,USBDM_DN1/PRT_DIS_M1*%
%TO.N,PICO_D_N*%
X132780000Y-118500000D03*
%TO.P,U6,2,USBDP_DN1/PRT_DIS_P1*%
%TO.N,PICO_D_P*%
X132780000Y-119000000D03*
%TO.P,U6,3,USBDM_DN2/PRT_DIS_M2*%
%TO.N,L0n*%
X132780000Y-119500000D03*
%TO.P,U6,4,USBDP_DN2/PRT_DIS_P2*%
%TO.N,L0p*%
X132780000Y-120000000D03*
%TO.P,U6,5,VDDA33*%
%TO.N,+3V3*%
X132780000Y-120500000D03*
%TO.P,U6,6,NC*%
%TO.N,unconnected-(U6-NC-Pad6)*%
X132780000Y-121000000D03*
%TO.P,U6,7,NC*%
%TO.N,unconnected-(U6-NC-Pad7)*%
X132780000Y-121500000D03*
%TO.P,U6,8,NC*%
%TO.N,unconnected-(U6-NC-Pad8)*%
X132780000Y-122000000D03*
%TO.P,U6,9,NC*%
%TO.N,unconnected-(U6-NC-Pad9)*%
X132780000Y-122500000D03*
D34*
%TO.P,U6,10,VDDA33*%
%TO.N,+3V3*%
X133750000Y-123450000D03*
%TO.P,U6,11,TEST*%
%TO.N,GND*%
X134240000Y-123450000D03*
%TO.P,U6,12,PRTPWR1/BC_EN1*%
%TO.N,unconnected-(U6-PRTPWR1{slash}BC_EN1-Pad12)*%
X134740000Y-123450000D03*
%TO.P,U6,13,OCS_N1*%
%TO.N,unconnected-(U6-OCS_N1-Pad13)*%
X135240000Y-123450000D03*
%TO.P,U6,14,CRFILT*%
%TO.N,unconnected-(U6-CRFILT-Pad14)*%
X135740000Y-123450000D03*
%TO.P,U6,15,VDD33*%
%TO.N,+3V3*%
X136240000Y-123450000D03*
%TO.P,U6,16,PRTPWR21/BC_EN2*%
%TO.N,unconnected-(U6-PRTPWR21{slash}BC_EN2-Pad16)*%
X136750000Y-123450000D03*
%TO.P,U6,17,OCS_N2*%
%TO.N,unconnected-(U6-OCS_N2-Pad17)*%
X137250000Y-123450000D03*
%TO.P,U6,18,NC*%
%TO.N,unconnected-(U6-NC-Pad18)*%
X137750000Y-123450000D03*
D33*
%TO.P,U6,19,NC*%
%TO.N,unconnected-(U6-NC-Pad19)*%
X138720000Y-122490000D03*
%TO.P,U6,20,NC*%
%TO.N,unconnected-(U6-NC-Pad20)*%
X138720000Y-121990000D03*
%TO.P,U6,21,NC*%
%TO.N,unconnected-(U6-NC-Pad21)*%
X138720000Y-121490000D03*
%TO.P,U6,22,SDA/SMBDATA*%
%TO.N,GND*%
X138720000Y-120990000D03*
%TO.P,U6,23,VDD33*%
%TO.N,+3V3*%
X138720000Y-120490000D03*
%TO.P,U6,24,SCL/SMBCLK/CFG_SEL0*%
%TO.N,GND*%
X138720000Y-119990000D03*
%TO.P,U6,25,HS_IND/CFG_SEL1*%
%TO.N,unconnected-(U6-HS_IND{slash}CFG_SEL1-Pad25)*%
X138720000Y-119490000D03*
%TO.P,U6,26,RESET_N*%
%TO.N,Net-(U6-RESET_N)*%
X138720000Y-118990000D03*
%TO.P,U6,27,VBUS_DET*%
X138720000Y-118490000D03*
D34*
%TO.P,U6,28,SUSP_IND/LOCAL_PWR/NON_REM0*%
%TO.N,unconnected-(U6-SUSP_IND{slash}LOCAL_PWR{slash}NON_REM0-Pad28)*%
X137730000Y-117510000D03*
%TO.P,U6,29,VDDA33*%
%TO.N,+3V3*%
X137240000Y-117510000D03*
%TO.P,U6,30,USBDM_UP*%
%TO.N,D_N*%
X136740000Y-117510000D03*
%TO.P,U6,31,USBDP_UP*%
%TO.N,D_P*%
X136230000Y-117510000D03*
%TO.P,U6,32,XTALOUT*%
%TO.N,Net-(U6-XTALOUT)*%
X135730000Y-117510000D03*
%TO.P,U6,33,XTALIN/CLKIN*%
%TO.N,Net-(U6-XTALIN{slash}CLKIN)*%
X135230000Y-117510000D03*
%TO.P,U6,34,PLLFILT*%
%TO.N,unconnected-(U6-PLLFILT-Pad34)*%
X134730000Y-117510000D03*
%TO.P,U6,35,RBIAS*%
%TO.N,Net-(U6-RBIAS)*%
X134230000Y-117510000D03*
%TO.P,U6,36,VDDA33*%
%TO.N,+3V3*%
X133740000Y-117510000D03*
D35*
%TO.P,U6,37,EXP*%
%TO.N,GND*%
X135750000Y-120500000D03*
%TD*%
D27*
%TO.P,J1,1,Pin_1*%
%TO.N,GND*%
X131925000Y-126750000D03*
D28*
%TO.P,J1,2,Pin_2*%
%TO.N,SWDCLK*%
X134465000Y-126750000D03*
%TO.P,J1,3,Pin_3*%
%TO.N,SWDIO*%
X137005000Y-126750000D03*
%TO.P,J1,4,Pin_4*%
%TO.N,~{RESET}*%
X139545000Y-126750000D03*
%TO.P,J1,5,Pin_5*%
%TO.N,+3V3*%
X142085000Y-126750000D03*
%TD*%
D36*
%TO.P,Y3,1,1*%
%TO.N,Net-(C3-Pad2)*%
X127100000Y-123650000D03*
%TO.P,Y3,2,2*%
%TO.N,GND*%
X124900000Y-123650000D03*
%TO.P,Y3,3,3*%
%TO.N,Net-(U1-XIN)*%
X124900000Y-125350000D03*
%TO.P,Y3,4,4*%
%TO.N,GND*%
X127100000Y-125350000D03*
%TD*%
D26*
%TO.P,C13,1*%
%TO.N,+3V3*%
X131000000Y-111080000D03*
%TO.P,C13,2*%
%TO.N,GND*%
X131000000Y-110120000D03*
%TD*%
%TO.P,C7,1*%
%TO.N,GND*%
X132245000Y-111130000D03*
%TO.P,C7,2*%
%TO.N,Net-(U6-XTALIN{slash}CLKIN)*%
X132245000Y-110170000D03*
%TD*%
D37*
%TO.P,J2,A1,GND*%
%TO.N,GND*%
X142755000Y-117950000D03*
%TO.P,J2,A4,VBUS*%
%TO.N,5V*%
X142755000Y-117150000D03*
D38*
%TO.P,J2,A5,CC1*%
%TO.N,Net-(J2-CC1)*%
X142755000Y-116000000D03*
%TO.P,J2,A6,D+*%
%TO.N,USB_DP*%
X142755000Y-115000000D03*
%TO.P,J2,A7,D-*%
%TO.N,USB_DN*%
X142755000Y-114500000D03*
%TO.P,J2,A8,SBU1*%
%TO.N,unconnected-(J2-SBU1-PadA8)*%
X142755000Y-113500000D03*
D37*
%TO.P,J2,A9,VBUS*%
%TO.N,5V*%
X142755000Y-112350000D03*
%TO.P,J2,A12,GND*%
%TO.N,GND*%
X142755000Y-111550000D03*
%TO.P,J2,B1,GND*%
X142755000Y-111550000D03*
%TO.P,J2,B4,VBUS*%
%TO.N,5V*%
X142755000Y-112350000D03*
D38*
%TO.P,J2,B5,CC2*%
%TO.N,Net-(J2-CC2)*%
X142755000Y-113000000D03*
%TO.P,J2,B6,D+*%
%TO.N,USB_DP*%
X142755000Y-114000000D03*
%TO.P,J2,B7,D-*%
%TO.N,USB_DN*%
X142755000Y-115500000D03*
%TO.P,J2,B8,SBU2*%
%TO.N,unconnected-(J2-SBU2-PadB8)*%
X142755000Y-116500000D03*
D37*
%TO.P,J2,B9,VBUS*%
%TO.N,5V*%
X142755000Y-117150000D03*
%TO.P,J2,B12,GND*%
%TO.N,GND*%
X142755000Y-117950000D03*
D39*
%TO.P,J2,S1,SHIELD*%
X143395000Y-119070000D03*
D40*
X147575000Y-119070000D03*
D39*
X143395000Y-110430000D03*
D40*
X147575000Y-110430000D03*
%TD*%
D29*
%TO.P,R10,1*%
%TO.N,Net-(D1-A)*%
X144010000Y-108000000D03*
%TO.P,R10,2*%
%TO.N,LED1*%
X142990000Y-108000000D03*
%TD*%
D11*
%TO.P,C20,1*%
%TO.N,+3V3*%
X122040000Y-120500000D03*
%TO.P,C20,2*%
%TO.N,GND*%
X123000000Y-120500000D03*
%TD*%
%TO.P,C14,1*%
%TO.N,+3V3*%
X122020000Y-121500000D03*
%TO.P,C14,2*%
%TO.N,GND*%
X122980000Y-121500000D03*
%TD*%
D10*
%TO.P,C19,1*%
%TO.N,+3V3*%
X122000000Y-117520000D03*
%TO.P,C19,2*%
%TO.N,GND*%
X122000000Y-118480000D03*
%TD*%
D14*
%TO.P,R15,1*%
%TO.N,Net-(U6-RBIAS)*%
X133500000Y-115510000D03*
%TO.P,R15,2*%
%TO.N,GND*%
X133500000Y-114490000D03*
%TD*%
D41*
%TO.P,U3,1,GND*%
%TO.N,GND*%
X144400000Y-121750000D03*
%TO.P,U3,2,VO*%
%TO.N,+3V3*%
X142500000Y-121750000D03*
%TO.P,U3,3,VI*%
%TO.N,5V*%
X143450000Y-124025000D03*
%TD*%
D12*
%TO.P,D3,1,K*%
%TO.N,GND*%
X109000000Y-115125000D03*
D13*
%TO.P,D3,2,A*%
%TO.N,Net-(D3-A)*%
X106460000Y-115125000D03*
%TD*%
D14*
%TO.P,R6,1*%
%TO.N,+3V3*%
X140500000Y-120010000D03*
%TO.P,R6,2*%
%TO.N,Net-(U6-RESET_N)*%
X140500000Y-118990000D03*
%TD*%
D42*
%TO.N,GND*%
X142000000Y-118000000D03*
%TO.N,L0n*%
X131000000Y-120000000D03*
%TO.N,L0p*%
X131000000Y-120924314D03*
%TO.N,GND*%
X146500000Y-107000000D03*
X138750000Y-106000000D03*
X101000000Y-127500000D03*
X144400000Y-121750000D03*
X126500000Y-105000000D03*
X121500000Y-108500000D03*
X116000000Y-105500000D03*
X106500000Y-118500000D03*
X135000000Y-108000000D03*
X114500000Y-127000000D03*
X136000000Y-119500000D03*
X126000000Y-102000000D03*
X122500000Y-127000000D03*
X116000000Y-112000000D03*
X139500000Y-124500000D03*
X134500000Y-120500000D03*
X136500000Y-102000000D03*
X124000000Y-120000000D03*
X115959720Y-116986234D03*
X117500000Y-120000000D03*
X126500000Y-107500000D03*
X105000000Y-112500000D03*
X148500000Y-123000000D03*
X130000000Y-105000000D03*
X119000000Y-127000000D03*
X146500000Y-114000000D03*
X138500000Y-107500000D03*
X117000000Y-123500000D03*
X129500000Y-125000000D03*
X130500000Y-101500000D03*
X126000000Y-127000000D03*
X137000000Y-120500000D03*
X126750000Y-121250000D03*
X128000000Y-116500000D03*
X107000000Y-125000000D03*
X148500000Y-116000000D03*
X135500000Y-121500000D03*
X114265479Y-101493762D03*
X127500000Y-127000000D03*
X116000000Y-109500000D03*
X139137499Y-114612501D03*
X134000000Y-113000000D03*
X123500000Y-123000000D03*
X133500000Y-114490000D03*
X141200000Y-123367500D03*
X126950000Y-115437500D03*
X141000000Y-108500000D03*
X138500000Y-109000000D03*
X143000000Y-102500000D03*
X126000000Y-114000000D03*
%TO.N,BTN1*%
X121250000Y-115250000D03*
%TO.N,BTN3*%
X121500163Y-116449998D03*
%TO.N,+3V3*%
X122020000Y-122980000D03*
X142000000Y-120500000D03*
X137500000Y-116000000D03*
X126529430Y-117720570D03*
X133500000Y-117000000D03*
X135000000Y-106500000D03*
X135000000Y-124500000D03*
X140500000Y-121500000D03*
X123512500Y-111512500D03*
%TO.N,5V*%
X146438749Y-122938749D03*
X143500000Y-120500000D03*
X141750000Y-117000000D03*
X104500000Y-125500000D03*
X145750000Y-120500000D03*
X101500000Y-101500000D03*
X104000000Y-117500000D03*
X144500000Y-124025000D03*
X104000000Y-115000000D03*
X146500000Y-121500000D03*
X141281170Y-111750000D03*
X139250000Y-111750000D03*
%TO.N,~{RESET}*%
X132750000Y-124500000D03*
%TO.N,Net-(J2-CC2)*%
X138260000Y-111010000D03*
X143750000Y-113000000D03*
%TO.N,L0p*%
X117240000Y-102500000D03*
%TO.N,L1n*%
X122250000Y-113000000D03*
X116000000Y-114000000D03*
%TO.N,L0n*%
X117240000Y-103500000D03*
%TO.N,ID0*%
X115500000Y-115500000D03*
X111500000Y-115000000D03*
%TO.N,LED1*%
X132500000Y-116500000D03*
X135000000Y-103500000D03*
%TO.N,LED2*%
X120500000Y-103500000D03*
X132000000Y-114750000D03*
%TO.N,LED3*%
X132750000Y-113750000D03*
X123000000Y-103500000D03*
%TO.N,LED4*%
X131750000Y-113250000D03*
X109000000Y-118000000D03*
%TO.N,+1V1*%
X130150000Y-111350000D03*
X129250000Y-113500000D03*
%TO.N,PICO_D_N*%
X128000000Y-110000000D03*
X131750000Y-118250000D03*
%TO.N,PICO_D_P*%
X130500000Y-118640002D03*
X127350000Y-110500000D03*
%TO.N,Net-(U1-QSPI_SD0)*%
X125250000Y-110000000D03*
X130000000Y-108750000D03*
%TO.N,GND*%
X135750000Y-120500000D03*
%TD*%
D43*
%TO.N,5V*%
X141750000Y-117000000D02*
X141300000Y-117450000D01*
X141300000Y-117450000D02*
X141300000Y-118800000D01*
X143000000Y-120500000D02*
X143500000Y-120500000D01*
X141300000Y-118800000D02*
X143000000Y-120500000D01*
D44*
%TO.N,GND*%
X142050000Y-117950000D02*
X142000000Y-118000000D01*
X142755000Y-117950000D02*
X142050000Y-117950000D01*
X140500000Y-117510000D02*
X139137499Y-116147499D01*
X139137499Y-116147499D02*
X139137499Y-114612501D01*
%TO.N,Net-(J2-CC1)*%
X142755000Y-116000000D02*
X140990000Y-116000000D01*
X140990000Y-116000000D02*
X140500000Y-116490000D01*
D43*
%TO.N,5V*%
X142755000Y-117150000D02*
X141900000Y-117150000D01*
X141900000Y-117150000D02*
X141750000Y-117000000D01*
D44*
%TO.N,L0n*%
X131631471Y-119520000D02*
X132000000Y-119520000D01*
X131480000Y-119520000D02*
X131000000Y-120000000D01*
X132000000Y-119520000D02*
X131480000Y-119520000D01*
X132000000Y-119520000D02*
X132780000Y-119520000D01*
%TO.N,L0p*%
X131904314Y-120020000D02*
X131000000Y-120924314D01*
%TO.N,PICO_D_P*%
X130879998Y-119020000D02*
X132780000Y-119020000D01*
X130500000Y-118640002D02*
X130879998Y-119020000D01*
%TO.N,L0p*%
X131980000Y-120020000D02*
X131904314Y-120020000D01*
%TO.N,+3V3*%
X132780000Y-120500000D02*
X131990000Y-120500000D01*
X131990000Y-120500000D02*
X131930000Y-120560000D01*
X131930000Y-120560000D02*
X131930000Y-121580000D01*
X131930000Y-121580000D02*
X131510000Y-122000000D01*
X131510000Y-122000000D02*
X131510000Y-122520000D01*
X131510000Y-122520000D02*
X132440000Y-123450000D01*
X132440000Y-123450000D02*
X133750000Y-123450000D01*
%TO.N,+1V1*%
X128750000Y-111890000D02*
X128750000Y-110470000D01*
X128750000Y-110470000D02*
X129020000Y-110200000D01*
X129020000Y-110200000D02*
X129020000Y-110220000D01*
X129020000Y-110220000D02*
X130150000Y-111350000D01*
X126750000Y-111890000D02*
X126750000Y-110251471D01*
X129020000Y-110020000D02*
X129020000Y-110200000D01*
X126750000Y-110251471D02*
X127601471Y-109400000D01*
X127601471Y-109400000D02*
X128400000Y-109400000D01*
X128400000Y-109400000D02*
X129020000Y-110020000D01*
%TO.N,PICO_D_N*%
X128000000Y-110000000D02*
X128350000Y-110350000D01*
X128350000Y-110350000D02*
X128350000Y-112000000D01*
%TO.N,PICO_D_P*%
X127950000Y-111040000D02*
X127950000Y-111890000D01*
X127350000Y-110500000D02*
X127410000Y-110500000D01*
X127410000Y-110500000D02*
X127950000Y-111040000D01*
%TO.N,+3V3*%
X123400000Y-112840000D02*
X127050000Y-112840000D01*
X127050000Y-112840000D02*
X127150000Y-112740000D01*
X127150000Y-112740000D02*
X127150000Y-111890000D01*
X129150000Y-111890000D02*
X129150000Y-112740000D01*
X129150000Y-112740000D02*
X128890000Y-113000000D01*
X127810000Y-113000000D02*
X127550000Y-112740000D01*
X128890000Y-113000000D02*
X127810000Y-113000000D01*
X127550000Y-112740000D02*
X127550000Y-111890000D01*
X140500000Y-120010000D02*
X140500000Y-121500000D01*
X140500000Y-121500000D02*
X140750000Y-121750000D01*
X140750000Y-121750000D02*
X142500000Y-121750000D01*
X141200000Y-122520000D02*
X141200000Y-122200000D01*
X141200000Y-122200000D02*
X140500000Y-121500000D01*
X142500000Y-121750000D02*
X141970000Y-121750000D01*
X141970000Y-121750000D02*
X141200000Y-122520000D01*
X140500000Y-121500000D02*
X139510000Y-120510000D01*
X139510000Y-120510000D02*
X138720000Y-120510000D01*
X140500000Y-120010000D02*
X141510000Y-120010000D01*
X141510000Y-120010000D02*
X142000000Y-120500000D01*
%TO.N,Net-(U6-RESET_N)*%
X140500000Y-118990000D02*
X138720000Y-118990000D01*
%TO.N,GND*%
X138720000Y-119990000D02*
X136260000Y-119990000D01*
X136260000Y-119990000D02*
X135750000Y-120500000D01*
X138720000Y-120990000D02*
X136240000Y-120990000D01*
X136240000Y-120990000D02*
X135750000Y-120500000D01*
X134240000Y-123450000D02*
X134240000Y-122010000D01*
X134240000Y-122010000D02*
X135750000Y-120500000D01*
%TO.N,Net-(U1-XIN)*%
X123250000Y-125480000D02*
X122640000Y-124870000D01*
X122640000Y-124870000D02*
X122640000Y-122860000D01*
X122640000Y-122860000D02*
X125080000Y-120420000D01*
X125935686Y-120420000D02*
X126350000Y-120005686D01*
X125080000Y-120420000D02*
X125935686Y-120420000D01*
X126350000Y-120005686D02*
X126350000Y-118990000D01*
%TO.N,GND*%
X123200000Y-124520000D02*
X123200000Y-123300000D01*
X123200000Y-123300000D02*
X123500000Y-123000000D01*
X123200000Y-124520000D02*
X124070000Y-123650000D01*
X124070000Y-123650000D02*
X124900000Y-123650000D01*
%TO.N,Net-(U1-XIN)*%
X123200000Y-125480000D02*
X124770000Y-125480000D01*
X124770000Y-125480000D02*
X124900000Y-125350000D01*
X124550000Y-125000000D02*
X124900000Y-125350000D01*
%TO.N,GND*%
X124510000Y-124040000D02*
X124900000Y-123650000D01*
X129500000Y-125000000D02*
X128720000Y-125000000D01*
X128720000Y-125000000D02*
X128700000Y-124980000D01*
X127100000Y-125350000D02*
X128330000Y-125350000D01*
X128330000Y-125350000D02*
X128700000Y-124980000D01*
%TO.N,Net-(U1-XIN)*%
X124350000Y-125350000D02*
X124900000Y-125350000D01*
%TO.N,GND*%
X123500000Y-123000000D02*
X124250000Y-123000000D01*
X124250000Y-123000000D02*
X124900000Y-123650000D01*
X132245000Y-111130000D02*
X133050000Y-111130000D01*
X139137499Y-114612500D02*
X139137499Y-114612501D01*
X122000000Y-111000000D02*
X122000000Y-111980000D01*
X127500000Y-125750000D02*
X127100000Y-125350000D01*
X122980000Y-119500000D02*
X122980000Y-121500000D01*
X126520000Y-121480000D02*
X126750000Y-121250000D01*
X120500000Y-112000000D02*
X119750000Y-112750000D01*
X132870000Y-109000000D02*
X132870000Y-108610000D01*
X144400000Y-121750000D02*
X145042500Y-121750000D01*
X129960000Y-110200000D02*
X130920000Y-110200000D01*
X139137500Y-114612501D02*
X139250000Y-114725001D01*
X122000000Y-118480000D02*
X122000000Y-118520000D01*
X123500000Y-119500000D02*
X124000000Y-120000000D01*
X126950000Y-115437500D02*
X125812500Y-115437500D01*
X124900000Y-123650000D02*
X125150000Y-123650000D01*
X134000000Y-107480000D02*
X134000000Y-107500000D01*
X142755000Y-111550000D02*
X142755000Y-111070000D01*
X131925000Y-126750000D02*
X131500000Y-126750000D01*
X122000000Y-111980000D02*
X122020000Y-112000000D01*
X122980000Y-121500000D02*
X122980000Y-121020000D01*
X127500000Y-127000000D02*
X127500000Y-125750000D01*
X130920000Y-110200000D02*
X131000000Y-110120000D01*
X133050000Y-111130000D02*
X133770000Y-111850000D01*
X138112500Y-114250000D02*
X138774999Y-114250000D01*
X142755000Y-117950000D02*
X142755000Y-118430000D01*
X125790000Y-120000000D02*
X124000000Y-120000000D01*
X140750000Y-109990000D02*
X141195000Y-109990000D01*
X126520000Y-122000000D02*
X126520000Y-121480000D01*
X128700000Y-122980000D02*
X129500000Y-123780000D01*
X121800000Y-108800000D02*
X121500000Y-108500000D01*
X132870000Y-108610000D02*
X134000000Y-107480000D01*
X131530000Y-109590000D02*
X132280000Y-109590000D01*
X139137499Y-114612501D02*
X139137500Y-114612501D01*
X135470000Y-110030000D02*
X135470000Y-109650000D01*
X138774999Y-114250000D02*
X139137499Y-114612500D01*
X136250000Y-121000000D02*
X135750000Y-120500000D01*
X133770000Y-112770000D02*
X134000000Y-113000000D01*
X135470000Y-108970000D02*
X135470000Y-109650000D01*
X142755000Y-111070000D02*
X143395000Y-110430000D01*
X133770000Y-111850000D02*
X133770000Y-112770000D01*
X124000000Y-120000000D02*
X123500000Y-120000000D01*
X122980000Y-121020000D02*
X124000000Y-120000000D01*
X129500000Y-123780000D02*
X129500000Y-125000000D01*
X124400000Y-108655000D02*
X125345000Y-108655000D01*
X131000000Y-110120000D02*
X131530000Y-109590000D01*
X125150000Y-123650000D02*
X126850000Y-125350000D01*
X141195000Y-109990000D02*
X142755000Y-111550000D01*
X133770000Y-111730000D02*
X135470000Y-110030000D01*
X145042500Y-121750000D02*
X145700000Y-122407500D01*
X136995000Y-110170000D02*
X135990000Y-110170000D01*
X125950000Y-118990000D02*
X125950000Y-119840000D01*
X122980000Y-119500000D02*
X123500000Y-119500000D01*
X125950000Y-119840000D02*
X125790000Y-120000000D01*
X122000000Y-118520000D02*
X122980000Y-119500000D01*
X123500000Y-120000000D02*
X123000000Y-120500000D01*
X122020000Y-112000000D02*
X120500000Y-112000000D01*
X125345000Y-108655000D02*
X126500000Y-107500000D01*
X142755000Y-118430000D02*
X143395000Y-119070000D01*
X133770000Y-111850000D02*
X133770000Y-111730000D01*
X126850000Y-125350000D02*
X127100000Y-125350000D01*
X132280000Y-109590000D02*
X132870000Y-109000000D01*
X121800000Y-109020000D02*
X121800000Y-108800000D01*
%TO.N,BTN1*%
X120250000Y-110500000D02*
X119750000Y-110000000D01*
X123400000Y-115240000D02*
X121260000Y-115240000D01*
X121260000Y-115240000D02*
X121250000Y-115250000D01*
X121262500Y-115237500D02*
X121250000Y-115250000D01*
%TO.N,BTN2*%
X121498529Y-115850000D02*
X121150000Y-115850000D01*
X121150000Y-115850000D02*
X119750000Y-117250000D01*
X123400000Y-115640000D02*
X121708529Y-115640000D01*
X121708529Y-115640000D02*
X121498529Y-115850000D01*
%TO.N,BTN3*%
X121910161Y-116040000D02*
X121500163Y-116449998D01*
X123400000Y-116040000D02*
X121910161Y-116040000D01*
%TO.N,+3V3*%
X130500000Y-116440000D02*
X131350000Y-116440000D01*
X124500000Y-116790000D02*
X124500000Y-117500000D01*
X133740000Y-117240000D02*
X133500000Y-117000000D01*
X124500000Y-117500000D02*
X124720570Y-117720570D01*
X134000000Y-106520000D02*
X134980000Y-106520000D01*
X136240000Y-124260000D02*
X136240000Y-123470000D01*
X133990000Y-106510000D02*
X134000000Y-106520000D01*
X122960000Y-111980000D02*
X122980000Y-112000000D01*
X129150000Y-112000000D02*
X129550000Y-112000000D01*
X127550000Y-112000000D02*
X127150000Y-112000000D01*
X122000000Y-117520000D02*
X121390000Y-118130000D01*
X121800000Y-109980000D02*
X121940000Y-109980000D01*
X123400000Y-116440000D02*
X124150000Y-116440000D01*
X122020000Y-121500000D02*
X122020000Y-119500000D01*
X127150000Y-118140000D02*
X126730570Y-117720570D01*
X122960000Y-111000000D02*
X122960000Y-111980000D01*
X134980000Y-106520000D02*
X135000000Y-106500000D01*
X131000000Y-111080000D02*
X131000000Y-112340000D01*
X129550000Y-112000000D02*
X130387500Y-112837500D01*
X137500000Y-116500000D02*
X137500000Y-116000000D01*
X122020000Y-121500000D02*
X122020000Y-122980000D01*
X123025000Y-112000000D02*
X123512500Y-111512500D01*
X133750000Y-123470000D02*
X133750000Y-124270000D01*
X122010000Y-119490000D02*
X122020000Y-119500000D01*
X133740000Y-117510000D02*
X133740000Y-117240000D01*
X123400000Y-116440000D02*
X122550000Y-116440000D01*
X123000000Y-111000000D02*
X123512500Y-111512500D01*
X121390000Y-118870000D02*
X122010000Y-119490000D01*
X122550000Y-116440000D02*
X122000000Y-116990000D01*
X136000000Y-124500000D02*
X136240000Y-124260000D01*
X137240000Y-116760000D02*
X137500000Y-116500000D01*
X122980000Y-112420000D02*
X123400000Y-112840000D01*
X131350000Y-116440000D02*
X132420000Y-117510000D01*
X131600000Y-104845000D02*
X132325000Y-104845000D01*
X132420000Y-117510000D02*
X133740000Y-117510000D01*
X122960000Y-111000000D02*
X123000000Y-111000000D01*
X142000000Y-120500000D02*
X142000000Y-121250000D01*
X124150000Y-116440000D02*
X124500000Y-116790000D01*
X132325000Y-104845000D02*
X133990000Y-106510000D01*
X135000000Y-124500000D02*
X136000000Y-124500000D01*
X133980000Y-124500000D02*
X135000000Y-124500000D01*
X122000000Y-116990000D02*
X122000000Y-117520000D01*
X122980000Y-112000000D02*
X122980000Y-112420000D01*
X126730570Y-117720570D02*
X126529430Y-117720570D01*
X123512500Y-112837500D02*
X123512500Y-111512500D01*
X124720570Y-117720570D02*
X126529430Y-117720570D01*
X133750000Y-124270000D02*
X133980000Y-124500000D01*
X133000000Y-120500000D02*
X132479901Y-120500000D01*
X136250000Y-123940000D02*
X136250000Y-123250000D01*
X127150000Y-118990000D02*
X127150000Y-118140000D01*
X121390000Y-118130000D02*
X121390000Y-118870000D01*
X121940000Y-109980000D02*
X122960000Y-111000000D01*
X131000000Y-112340000D02*
X130500000Y-112840000D01*
X137240000Y-117510000D02*
X137240000Y-116760000D01*
X142000000Y-121250000D02*
X142500000Y-121750000D01*
X122980000Y-112000000D02*
X123025000Y-112000000D01*
%TO.N,Net-(U1-XIN)*%
X125000000Y-125350000D02*
X124900000Y-125350000D01*
%TO.N,Net-(C3-Pad2)*%
X128380000Y-123650000D02*
X128750000Y-124020000D01*
X127100000Y-123650000D02*
X128380000Y-123650000D01*
X125510000Y-122000000D02*
X125510000Y-122060000D01*
X125510000Y-122060000D02*
X127100000Y-123650000D01*
D43*
%TO.N,5V*%
X139250000Y-113735052D02*
X139250000Y-111750000D01*
X139764948Y-114250000D02*
X139250000Y-113735052D01*
X140387500Y-114250000D02*
X139764948Y-114250000D01*
X145700000Y-123367500D02*
X146009999Y-123367500D01*
X103050000Y-126950000D02*
X104500000Y-125500000D01*
X139250000Y-111750000D02*
X141281170Y-111750000D01*
X141281170Y-111750000D02*
X141881170Y-112350000D01*
X144500000Y-124025000D02*
X145042500Y-124025000D01*
X146438749Y-122938750D02*
X146438749Y-122938749D01*
X143500000Y-120500000D02*
X145750000Y-120500000D01*
X103035000Y-115000000D02*
X102000000Y-116035000D01*
X104000000Y-115000000D02*
X103035000Y-115000000D01*
X146438750Y-122938749D02*
X146500000Y-122877499D01*
X103050000Y-127500000D02*
X103050000Y-126950000D01*
X143450000Y-124025000D02*
X144500000Y-124025000D01*
X146500000Y-122877499D02*
X146500000Y-121500000D01*
X146500000Y-121250000D02*
X145750000Y-120500000D01*
X103050000Y-102000000D02*
X102000000Y-102000000D01*
X141881170Y-112350000D02*
X142755000Y-112350000D01*
X102000000Y-102000000D02*
X101500000Y-101500000D01*
X145042500Y-124025000D02*
X145700000Y-123367500D01*
X104000000Y-117500000D02*
X103465000Y-117500000D01*
X146500000Y-121500000D02*
X146500000Y-121250000D01*
X103465000Y-117500000D02*
X102000000Y-116035000D01*
X146009999Y-123367500D02*
X146438749Y-122938750D01*
X146438749Y-122938749D02*
X146438750Y-122938749D01*
D44*
%TO.N,Net-(U6-XTALOUT)*%
X136190000Y-111130000D02*
X135470000Y-111850000D01*
X134880000Y-112440000D02*
X135470000Y-111850000D01*
X136995000Y-111130000D02*
X136190000Y-111130000D01*
X134880000Y-115828924D02*
X134880000Y-112440000D01*
X135730000Y-117510000D02*
X135730000Y-116678924D01*
X135730000Y-116678924D02*
X134880000Y-115828924D01*
%TO.N,Net-(U6-XTALIN{slash}CLKIN)*%
X131635000Y-110780000D02*
X131635000Y-111515000D01*
X132245000Y-110170000D02*
X131635000Y-110780000D01*
X135230000Y-117510000D02*
X135230000Y-116750000D01*
X134480000Y-114360000D02*
X134480000Y-116000000D01*
X132245000Y-110170000D02*
X133250000Y-110170000D01*
X135230000Y-116750000D02*
X134480000Y-116000000D01*
X131635000Y-111515000D02*
X134480000Y-114360000D01*
%TO.N,Net-(D1-A)*%
X144000000Y-107990000D02*
X144010000Y-108000000D01*
X144000000Y-106287500D02*
X144000000Y-107990000D01*
%TO.N,Net-(D2-A)*%
X107490000Y-109010000D02*
X106730000Y-108250000D01*
X107490000Y-111500000D02*
X107490000Y-109010000D01*
%TO.N,Net-(D3-A)*%
X109065000Y-112520000D02*
X106460000Y-115125000D01*
X110500000Y-112520000D02*
X109065000Y-112520000D01*
%TO.N,Net-(D4-A)*%
X110000000Y-119020000D02*
X109440000Y-119020000D01*
X109440000Y-119020000D02*
X106460000Y-122000000D01*
%TO.N,~{RESET}*%
X128750000Y-119750000D02*
X130490000Y-121490000D01*
X130490000Y-122000000D02*
X130490000Y-122240000D01*
X130490000Y-121490000D02*
X130490000Y-122000000D01*
X130490000Y-122240000D02*
X132750000Y-124500000D01*
X128750000Y-118990000D02*
X128750000Y-119750000D01*
%TO.N,SWDCLK*%
X129520000Y-121771076D02*
X129520000Y-122000000D01*
X133215000Y-125500000D02*
X134465000Y-126750000D01*
X127950000Y-118990000D02*
X127950000Y-120201076D01*
X129520000Y-122000000D02*
X129520000Y-123020000D01*
X129520000Y-121915686D02*
X129520000Y-122000000D01*
X129520000Y-123020000D02*
X132000000Y-125500000D01*
X132000000Y-125500000D02*
X133215000Y-125500000D01*
X127950000Y-120201076D02*
X129520000Y-121771076D01*
%TO.N,SWDIO*%
X134344314Y-125600000D02*
X133844314Y-125100000D01*
X129920000Y-121485686D02*
X128350000Y-119915686D01*
X129920000Y-122854314D02*
X129920000Y-121485686D01*
X133844314Y-125100000D02*
X132165686Y-125100000D01*
X128350000Y-119915686D02*
X128350000Y-118990000D01*
X135855000Y-125600000D02*
X134344314Y-125600000D01*
X137005000Y-126750000D02*
X135855000Y-125600000D01*
X132165686Y-125100000D02*
X129920000Y-122854314D01*
%TO.N,Net-(J2-CC2)*%
X140750000Y-111010000D02*
X138260000Y-111010000D01*
X142755000Y-113000000D02*
X143750000Y-113000000D01*
%TO.N,USB_DN*%
X141805000Y-115232410D02*
X142072590Y-115500000D01*
X142755000Y-114500000D02*
X142072590Y-114500000D01*
X141475000Y-114475000D02*
X141754999Y-114475000D01*
X142072590Y-114500000D02*
X141805000Y-114767590D01*
X141779999Y-114500000D02*
X142755000Y-114500000D01*
X141805000Y-114767590D02*
X141805000Y-115232410D01*
X140387500Y-115200000D02*
X140750000Y-115200000D01*
X141754999Y-114475000D02*
X141779999Y-114500000D01*
X140750000Y-115200000D02*
X141475000Y-114475000D01*
X142072590Y-115500000D02*
X142755000Y-115500000D01*
%TO.N,USB_DP*%
X141754999Y-114025000D02*
X141779999Y-114000000D01*
X141475000Y-114025000D02*
X141754999Y-114025000D01*
X142755000Y-115000000D02*
X143437410Y-115000000D01*
X140387500Y-113300000D02*
X140750000Y-113300000D01*
X143437410Y-114000000D02*
X142755000Y-114000000D01*
X140750000Y-113300000D02*
X141475000Y-114025000D01*
X143705000Y-114267590D02*
X143437410Y-114000000D01*
X143437410Y-115000000D02*
X143705000Y-114732410D01*
X141779999Y-114000000D02*
X142755000Y-114000000D01*
X143705000Y-114732410D02*
X143705000Y-114267590D01*
%TO.N,L0p*%
X115000000Y-102500000D02*
X114000000Y-103500000D01*
X106400000Y-105100000D02*
X103085000Y-108415000D01*
X114000000Y-103500000D02*
X111934314Y-103500000D01*
X111934314Y-103500000D02*
X110334314Y-105100000D01*
X132780000Y-120020000D02*
X131980000Y-120020000D01*
X103085000Y-108415000D02*
X102000000Y-108415000D01*
X110334314Y-105100000D02*
X106400000Y-105100000D01*
X117240000Y-102500000D02*
X115000000Y-102500000D01*
X133000000Y-120000000D02*
X132414215Y-120000000D01*
%TO.N,L1p*%
X119979899Y-114500000D02*
X119989949Y-114489949D01*
X113700000Y-114600000D02*
X110900000Y-117400000D01*
X119879898Y-114600000D02*
X113700000Y-114600000D01*
X105036471Y-121115000D02*
X102000000Y-121115000D01*
X123400000Y-113640000D02*
X120839899Y-113640000D01*
X108751471Y-117400000D02*
X105036471Y-121115000D01*
X120839899Y-113640000D02*
X119979899Y-114500000D01*
X110900000Y-117400000D02*
X108751471Y-117400000D01*
X119989949Y-114489949D02*
X119879898Y-114600000D01*
%TO.N,L1n*%
X115850000Y-114150000D02*
X116000000Y-114000000D01*
X112096814Y-115637500D02*
X113584314Y-114150000D01*
X102000000Y-118575000D02*
X105425000Y-118575000D01*
X123400000Y-113240000D02*
X122490000Y-113240000D01*
X122490000Y-113240000D02*
X122250000Y-113000000D01*
X110734314Y-117000000D02*
X112096814Y-115637500D01*
X105425000Y-118575000D02*
X106000000Y-118000000D01*
X113584314Y-114150000D02*
X115850000Y-114150000D01*
X106000000Y-118000000D02*
X107000000Y-117000000D01*
X107000000Y-117000000D02*
X110734314Y-117000000D01*
%TO.N,L0n*%
X104045000Y-110955000D02*
X104500000Y-110500000D01*
X104500000Y-107565686D02*
X106565686Y-105500000D01*
X114980000Y-103500000D02*
X117240000Y-103500000D01*
X110500000Y-105500000D02*
X112100000Y-103900000D01*
X114580000Y-103900000D02*
X114980000Y-103500000D01*
X106565686Y-105500000D02*
X110500000Y-105500000D01*
X102000000Y-110955000D02*
X104045000Y-110955000D01*
X104500000Y-110500000D02*
X104500000Y-107565686D01*
X133000000Y-119500000D02*
X132348529Y-119500000D01*
X112100000Y-103900000D02*
X114580000Y-103900000D01*
%TO.N,ID0*%
X105000000Y-114901471D02*
X105000000Y-115700000D01*
X110568628Y-116600000D02*
X111334314Y-115834314D01*
X111500000Y-115668628D02*
X111500000Y-115000000D01*
X105000000Y-115700000D02*
X105900000Y-116600000D01*
X110437500Y-116600000D02*
X110568628Y-116600000D01*
X111334314Y-115834314D02*
X111500000Y-115668628D01*
X102000000Y-113495000D02*
X103593529Y-113495000D01*
X121005584Y-114040000D02*
X120772792Y-114272792D01*
X120772792Y-114272792D02*
X120045585Y-115000000D01*
X116000000Y-115000000D02*
X115500000Y-115500000D01*
X103593529Y-113495000D02*
X105000000Y-114901471D01*
X105900000Y-116600000D02*
X110437500Y-116600000D01*
X120045585Y-115000000D02*
X116000000Y-115000000D01*
X123400000Y-114040000D02*
X121005584Y-114040000D01*
%TO.N,ID1*%
X115793529Y-122805000D02*
X111195000Y-122805000D01*
X121211470Y-114440000D02*
X120825735Y-114825735D01*
X115793529Y-118406471D02*
X115793529Y-122805000D01*
X110345000Y-123655000D02*
X102000000Y-123655000D01*
X120151471Y-115500000D02*
X118700000Y-115500000D01*
X118700000Y-115500000D02*
X115793529Y-118406471D01*
X111195000Y-122805000D02*
X110345000Y-123655000D01*
X123400000Y-114440000D02*
X121211470Y-114440000D01*
X120825735Y-114825735D02*
X120151471Y-115500000D01*
%TO.N,Net-(U1-QSPI_SS)*%
X122500000Y-109326924D02*
X122500000Y-106574448D01*
X124350000Y-111176924D02*
X122500000Y-109326924D01*
X132735000Y-104245000D02*
X125000000Y-104245000D01*
X124350000Y-112000000D02*
X124350000Y-111176924D01*
X125000000Y-104245000D02*
X124400000Y-104845000D01*
X124229448Y-104845000D02*
X124400000Y-104845000D01*
X133490000Y-105000000D02*
X132735000Y-104245000D01*
X122500000Y-106574448D02*
X124229448Y-104845000D01*
%TO.N,Net-(R2-Pad1)*%
X134510000Y-105000000D02*
X136600000Y-105000000D01*
X136600000Y-105000000D02*
X136675000Y-104925000D01*
X140825000Y-104925000D02*
X136675000Y-104925000D01*
%TO.N,Net-(U1-XOUT)*%
X126750000Y-120171372D02*
X126000000Y-120921372D01*
X126750000Y-118990000D02*
X126750000Y-120171372D01*
X125568628Y-120921372D02*
X124490000Y-122000000D01*
X126000000Y-120921372D02*
X125568628Y-120921372D01*
%TO.N,D_P*%
X136200000Y-113300000D02*
X135500000Y-114000000D01*
X136230000Y-116230000D02*
X135500000Y-115500000D01*
X136230000Y-117510000D02*
X136230000Y-116230000D01*
X138112500Y-113300000D02*
X136200000Y-113300000D01*
X135500000Y-114000000D02*
X135500000Y-115500000D01*
%TO.N,D_N*%
X137050000Y-114799999D02*
X137050000Y-114050000D01*
X136740000Y-117510000D02*
X136740000Y-115990000D01*
X136365686Y-113700000D02*
X136000000Y-114065686D01*
X138112500Y-115200000D02*
X137450001Y-115200000D01*
X136700000Y-113700000D02*
X136365686Y-113700000D01*
X137450001Y-115200000D02*
X137050000Y-114799999D01*
X136740000Y-115990000D02*
X136000000Y-115250000D01*
X137050000Y-114050000D02*
X136700000Y-113700000D01*
X136000000Y-114065686D02*
X136000000Y-115250000D01*
%TO.N,LED1*%
X142990000Y-105640000D02*
X142990000Y-108000000D01*
X131500000Y-115090000D02*
X131500000Y-115500000D01*
X131500000Y-115500000D02*
X132500000Y-116500000D01*
X135000000Y-103500000D02*
X140850000Y-103500000D01*
X132500000Y-116416140D02*
X132500000Y-116500000D01*
X131250000Y-114840000D02*
X131500000Y-115090000D01*
X130500000Y-114840000D02*
X131250000Y-114840000D01*
X140850000Y-103500000D02*
X142990000Y-105640000D01*
%TO.N,LED2*%
X131690000Y-114440000D02*
X132000000Y-114750000D01*
X120500000Y-103500000D02*
X119770101Y-103500000D01*
X115000000Y-107700000D02*
X112310000Y-107700000D01*
X119770101Y-103500000D02*
X115570101Y-107700000D01*
X130500000Y-114440000D02*
X131690000Y-114440000D01*
X115570101Y-107700000D02*
X115000000Y-107700000D01*
X112310000Y-107700000D02*
X108510000Y-111500000D01*
%TO.N,LED3*%
X110500000Y-111490000D02*
X110500000Y-110075686D01*
X110500000Y-110075686D02*
X112475686Y-108100000D01*
X120900000Y-108100000D02*
X122100000Y-106900000D01*
X112475686Y-108100000D02*
X120900000Y-108100000D01*
X130500000Y-114040000D02*
X132460000Y-114040000D01*
X132460000Y-114040000D02*
X132750000Y-113750000D01*
X122100000Y-106900000D02*
X122100000Y-104400000D01*
X122100000Y-104400000D02*
X123000000Y-103500000D01*
%TO.N,LED4*%
X110000000Y-118000000D02*
X109000000Y-118000000D01*
X130500000Y-113640000D02*
X131360000Y-113640000D01*
X131360000Y-113640000D02*
X131750000Y-113250000D01*
%TO.N,Net-(U6-RESET_N)*%
X138720000Y-118490000D02*
X138720000Y-118990000D01*
%TO.N,Net-(U6-RBIAS)*%
X133500000Y-115585686D02*
X133500000Y-115510000D01*
X134230000Y-117510000D02*
X134230000Y-116315686D01*
X134230000Y-116315686D02*
X133500000Y-115585686D01*
%TO.N,+1V1*%
X129250000Y-116937500D02*
X128850000Y-117337500D01*
X129000000Y-110200000D02*
X129023866Y-110200000D01*
X128352500Y-117337500D02*
X127550000Y-118140000D01*
X128850000Y-117337500D02*
X128352500Y-117337500D01*
X128680000Y-122000000D02*
X128700000Y-122020000D01*
X127550000Y-118140000D02*
X127550000Y-118990000D01*
X127550000Y-121930000D02*
X127480000Y-122000000D01*
X127550000Y-118990000D02*
X127550000Y-121930000D01*
X129250000Y-113500000D02*
X129250000Y-116937500D01*
X127480000Y-122000000D02*
X128680000Y-122000000D01*
%TO.N,PICO_D_N*%
X132780000Y-118520000D02*
X132020000Y-118520000D01*
X132020000Y-118520000D02*
X131750000Y-118250000D01*
%TO.N,Net-(U1-QSPI_SD3)*%
X132440552Y-107985000D02*
X132700000Y-107725552D01*
X126350000Y-109215686D02*
X127580686Y-107985000D01*
X132700000Y-106950000D02*
X131865000Y-106115000D01*
X132700000Y-107725552D02*
X132700000Y-106950000D01*
X131865000Y-106115000D02*
X131600000Y-106115000D01*
X126350000Y-112000000D02*
X126350000Y-109215686D01*
X127580686Y-107985000D02*
X132440552Y-107985000D01*
%TO.N,Net-(U1-QSPI_SD2)*%
X123300000Y-108314448D02*
X123300000Y-108995552D01*
X125150000Y-110845552D02*
X125150000Y-112000000D01*
X123300000Y-108995552D02*
X125150000Y-110845552D01*
X123300000Y-108314448D02*
X124229448Y-107385000D01*
X124229448Y-107385000D02*
X124400000Y-107385000D01*
%TO.N,Net-(U1-QSPI_SCLK)*%
X127615000Y-107385000D02*
X125950000Y-109050000D01*
X131600000Y-107385000D02*
X127615000Y-107385000D01*
X125950000Y-109050000D02*
X125950000Y-112000000D01*
%TO.N,Net-(U1-QSPI_SD0)*%
X125550000Y-112000000D02*
X125550000Y-110300000D01*
X130095000Y-108655000D02*
X130000000Y-108750000D01*
X125550000Y-110300000D02*
X125250000Y-110000000D01*
X131600000Y-108655000D02*
X130095000Y-108655000D01*
%TO.N,Net-(U1-QSPI_SD1)*%
X122900000Y-107444448D02*
X124229448Y-106115000D01*
X124229448Y-106115000D02*
X124400000Y-106115000D01*
X124750000Y-112000000D02*
X124750000Y-111011238D01*
X124750000Y-111011238D02*
X122900000Y-109161238D01*
X122900000Y-109161238D02*
X122900000Y-107444448D01*
%TD*%
%TA.AperFunction,Conductor*%
%TO.N,GND*%
G36*
X105299420Y-100520185D02*
G01*
X105345175Y-100572989D01*
X105355119Y-100642147D01*
X105326094Y-100705703D01*
X105275714Y-100740682D01*
X105232913Y-100756645D01*
X105232906Y-100756649D01*
X105117812Y-100842809D01*
X105117809Y-100842812D01*
X105031649Y-100957906D01*
X105031645Y-100957913D01*
X104981403Y-101092620D01*
X104981401Y-101092627D01*
X104975000Y-101152155D01*
X104975000Y-101750000D01*
X107025000Y-101750000D01*
X107025000Y-101152172D01*
X107024999Y-101152155D01*
X107018598Y-101092627D01*
X107018596Y-101092620D01*
X106968354Y-100957913D01*
X106968350Y-100957906D01*
X106882190Y-100842812D01*
X106882187Y-100842809D01*
X106767093Y-100756649D01*
X106767086Y-100756645D01*
X106724286Y-100740682D01*
X106668352Y-100698811D01*
X106643935Y-100633346D01*
X106658787Y-100565073D01*
X106708192Y-100515668D01*
X106767619Y-100500500D01*
X149875500Y-100500500D01*
X149942539Y-100520185D01*
X149988294Y-100572989D01*
X149999500Y-100624500D01*
X149999500Y-128875500D01*
X149979815Y-128942539D01*
X149927011Y-128988294D01*
X149875500Y-128999500D01*
X106767619Y-128999500D01*
X106700580Y-128979815D01*
X106654825Y-128927011D01*
X106644881Y-128857853D01*
X106673906Y-128794297D01*
X106724286Y-128759318D01*
X106767086Y-128743354D01*
X106767093Y-128743350D01*
X106882187Y-128657190D01*
X106882190Y-128657187D01*
X106968350Y-128542093D01*
X106968354Y-128542086D01*
X107018596Y-128407379D01*
X107018598Y-128407372D01*
X107024999Y-128347844D01*
X107025000Y-128347827D01*
X107025000Y-127750000D01*
X104975000Y-127750000D01*
X104975000Y-128347844D01*
X104981401Y-128407372D01*
X104981403Y-128407379D01*
X105031645Y-128542086D01*
X105031649Y-128542093D01*
X105117809Y-128657187D01*
X105117812Y-128657190D01*
X105232906Y-128743350D01*
X105232913Y-128743354D01*
X105275714Y-128759318D01*
X105331648Y-128801189D01*
X105356065Y-128866654D01*
X105341213Y-128934927D01*
X105291808Y-128984332D01*
X105232381Y-128999500D01*
X103819048Y-128999500D01*
X103752009Y-128979815D01*
X103706254Y-128927011D01*
X103696310Y-128857853D01*
X103725335Y-128794297D01*
X103775715Y-128759318D01*
X103817328Y-128743797D01*
X103817327Y-128743797D01*
X103817331Y-128743796D01*
X103932546Y-128657546D01*
X104018796Y-128542331D01*
X104069091Y-128407483D01*
X104075500Y-128347873D01*
X104075499Y-126966517D01*
X104095184Y-126899479D01*
X104111813Y-126878842D01*
X104338500Y-126652155D01*
X104975000Y-126652155D01*
X104975000Y-127250000D01*
X105750000Y-127250000D01*
X106250000Y-127250000D01*
X107025000Y-127250000D01*
X107025000Y-126897648D01*
X108449500Y-126897648D01*
X108449500Y-127102351D01*
X108481522Y-127304534D01*
X108544781Y-127499223D01*
X108607032Y-127621395D01*
X108620508Y-127647844D01*
X108637715Y-127681613D01*
X108758028Y-127847213D01*
X108902786Y-127991971D01*
X109051477Y-128099999D01*
X109068390Y-128112287D01*
X109184607Y-128171503D01*
X109250776Y-128205218D01*
X109250778Y-128205218D01*
X109250781Y-128205220D01*
X109355137Y-128239127D01*
X109445465Y-128268477D01*
X109546557Y-128284488D01*
X109647648Y-128300500D01*
X109647649Y-128300500D01*
X109852351Y-128300500D01*
X109852352Y-128300500D01*
X110054534Y-128268477D01*
X110249219Y-128205220D01*
X110431610Y-128112287D01*
X110526494Y-128043350D01*
X110597213Y-127991971D01*
X110597215Y-127991968D01*
X110597219Y-127991966D01*
X110741966Y-127847219D01*
X110741968Y-127847215D01*
X110741971Y-127847213D01*
X110841276Y-127710529D01*
X110862287Y-127681610D01*
X110955220Y-127499219D01*
X111018477Y-127304534D01*
X111050500Y-127102352D01*
X111050500Y-126897648D01*
X111038596Y-126822489D01*
X111018477Y-126695465D01*
X110961362Y-126519685D01*
X110955220Y-126500781D01*
X110955218Y-126500778D01*
X110955218Y-126500776D01*
X110900708Y-126393796D01*
X110862287Y-126318390D01*
X110842654Y-126291367D01*
X110741971Y-126152786D01*
X110597213Y-126008028D01*
X110431613Y-125887715D01*
X110431612Y-125887714D01*
X110431610Y-125887713D01*
X110342543Y-125842331D01*
X110249223Y-125794781D01*
X110054534Y-125731522D01*
X109879995Y-125703878D01*
X109852352Y-125699500D01*
X109647648Y-125699500D01*
X109623329Y-125703351D01*
X109445465Y-125731522D01*
X109250776Y-125794781D01*
X109068386Y-125887715D01*
X108902786Y-126008028D01*
X108758028Y-126152786D01*
X108637715Y-126318386D01*
X108544781Y-126500776D01*
X108481522Y-126695465D01*
X108449500Y-126897648D01*
X107025000Y-126897648D01*
X107025000Y-126652172D01*
X107024999Y-126652155D01*
X107018598Y-126592627D01*
X107018596Y-126592620D01*
X106968354Y-126457913D01*
X106968350Y-126457906D01*
X106882190Y-126342812D01*
X106882187Y-126342809D01*
X106767093Y-126256649D01*
X106767086Y-126256645D01*
X106632379Y-126206403D01*
X106632372Y-126206401D01*
X106572844Y-126200000D01*
X106250000Y-126200000D01*
X106250000Y-127250000D01*
X105750000Y-127250000D01*
X105750000Y-126200000D01*
X105427155Y-126200000D01*
X105367627Y-126206401D01*
X105367620Y-126206403D01*
X105232913Y-126256645D01*
X105232911Y-126256646D01*
X105198939Y-126282078D01*
X105134811Y-126305995D01*
X105121300Y-126338150D01*
X105031647Y-126457911D01*
X105031645Y-126457913D01*
X104981403Y-126592620D01*
X104981401Y-126592627D01*
X104975000Y-126652155D01*
X104338500Y-126652155D01*
X104699290Y-126291365D01*
X104746013Y-126262007D01*
X104849522Y-126225789D01*
X104956061Y-126158845D01*
X105012536Y-126142885D01*
X105025362Y-126108499D01*
X105036935Y-126095142D01*
X105129816Y-126002262D01*
X105225789Y-125849522D01*
X105285368Y-125679255D01*
X105287773Y-125657913D01*
X105305565Y-125500003D01*
X105305565Y-125499996D01*
X105285369Y-125320750D01*
X105285368Y-125320745D01*
X105242671Y-125198724D01*
X105225789Y-125150478D01*
X105129816Y-124997738D01*
X105002262Y-124870184D01*
X104983669Y-124858501D01*
X104849523Y-124774211D01*
X104679254Y-124714631D01*
X104679249Y-124714630D01*
X104500004Y-124694435D01*
X104499996Y-124694435D01*
X104320750Y-124714630D01*
X104320745Y-124714631D01*
X104150476Y-124774211D01*
X103997737Y-124870184D01*
X103870184Y-124997737D01*
X103774212Y-125150475D01*
X103774211Y-125150476D01*
X103737992Y-125253984D01*
X103708632Y-125300709D01*
X102846160Y-126163181D01*
X102784837Y-126196666D01*
X102758479Y-126199500D01*
X102477130Y-126199500D01*
X102477123Y-126199501D01*
X102417516Y-126205908D01*
X102282671Y-126256202D01*
X102282664Y-126256206D01*
X102167455Y-126342452D01*
X102167452Y-126342455D01*
X102081206Y-126457664D01*
X102081202Y-126457671D01*
X102030908Y-126592517D01*
X102024501Y-126652116D01*
X102024500Y-126652135D01*
X102024500Y-128347870D01*
X102024501Y-128347876D01*
X102030908Y-128407483D01*
X102081202Y-128542328D01*
X102081206Y-128542335D01*
X102167452Y-128657544D01*
X102167455Y-128657547D01*
X102282664Y-128743793D01*
X102282671Y-128743797D01*
X102324285Y-128759318D01*
X102380219Y-128801189D01*
X102404636Y-128866653D01*
X102389785Y-128934926D01*
X102340380Y-128984332D01*
X102280952Y-128999500D01*
X100624500Y-128999500D01*
X100557461Y-128979815D01*
X100511706Y-128927011D01*
X100500500Y-128875500D01*
X100500500Y-124194196D01*
X100520185Y-124127157D01*
X100572989Y-124081402D01*
X100642147Y-124071458D01*
X100705703Y-124100483D01*
X100736881Y-124141790D01*
X100787108Y-124249501D01*
X100825965Y-124332830D01*
X100825967Y-124332834D01*
X100917138Y-124463039D01*
X100961505Y-124526401D01*
X101128599Y-124693495D01*
X101210342Y-124750732D01*
X101322165Y-124829032D01*
X101322167Y-124829033D01*
X101322170Y-124829035D01*
X101536337Y-124928903D01*
X101764592Y-124990063D01*
X101919946Y-125003655D01*
X101999999Y-125010659D01*
X102000000Y-125010659D01*
X102000001Y-125010659D01*
X102039234Y-125007226D01*
X102235408Y-124990063D01*
X102463663Y-124928903D01*
X102677830Y-124829035D01*
X102871401Y-124693495D01*
X103038495Y-124526401D01*
X103174035Y-124332830D01*
X103176707Y-124327097D01*
X103222878Y-124274658D01*
X103289091Y-124255500D01*
X110258331Y-124255500D01*
X110258347Y-124255501D01*
X110265943Y-124255501D01*
X110424054Y-124255501D01*
X110424057Y-124255501D01*
X110576785Y-124214577D01*
X110650904Y-124171784D01*
X110713716Y-124135520D01*
X110825520Y-124023716D01*
X110825520Y-124023714D01*
X110835724Y-124013511D01*
X110835727Y-124013506D01*
X111407417Y-123441819D01*
X111468740Y-123408334D01*
X111495098Y-123405500D01*
X111822181Y-123405500D01*
X111889220Y-123425185D01*
X111934975Y-123477989D01*
X111944919Y-123547147D01*
X111927908Y-123594290D01*
X111819533Y-123771140D01*
X111723126Y-124003889D01*
X111664317Y-124248848D01*
X111644551Y-124500000D01*
X111664317Y-124751151D01*
X111723126Y-124996110D01*
X111819533Y-125228859D01*
X111951160Y-125443653D01*
X111951161Y-125443656D01*
X111999280Y-125499996D01*
X112114776Y-125635224D01*
X112227528Y-125731523D01*
X112306343Y-125798838D01*
X112306346Y-125798839D01*
X112521140Y-125930466D01*
X112753889Y-126026873D01*
X112998852Y-126085683D01*
X113250000Y-126105449D01*
X113501148Y-126085683D01*
X113746111Y-126026873D01*
X113978859Y-125930466D01*
X114193659Y-125798836D01*
X114385224Y-125635224D01*
X114548836Y-125443659D01*
X114680466Y-125228859D01*
X114776873Y-124996111D01*
X114835683Y-124751148D01*
X114855449Y-124500000D01*
X114835683Y-124248852D01*
X114776873Y-124003889D01*
X114680466Y-123771140D01*
X114572092Y-123594290D01*
X114553847Y-123526844D01*
X114574963Y-123460242D01*
X114628735Y-123415628D01*
X114677819Y-123405500D01*
X115872584Y-123405500D01*
X115872586Y-123405500D01*
X116025313Y-123364577D01*
X116162245Y-123285520D01*
X116274049Y-123173716D01*
X116353106Y-123036784D01*
X116394029Y-122884057D01*
X116394029Y-118706568D01*
X116413714Y-118639529D01*
X116430348Y-118618887D01*
X117168717Y-117880518D01*
X117937821Y-117111413D01*
X117999142Y-117077930D01*
X118068834Y-117082914D01*
X118124767Y-117124786D01*
X118149184Y-117190250D01*
X118149500Y-117199096D01*
X118149500Y-118397870D01*
X118149501Y-118397876D01*
X118155908Y-118457483D01*
X118206202Y-118592328D01*
X118206206Y-118592335D01*
X118292452Y-118707544D01*
X118292455Y-118707547D01*
X118407664Y-118793793D01*
X118407671Y-118793797D01*
X118445148Y-118807775D01*
X118501082Y-118849646D01*
X118525499Y-118915110D01*
X118510648Y-118983383D01*
X118496106Y-119004487D01*
X118451575Y-119056626D01*
X118451568Y-119056637D01*
X118319980Y-119271368D01*
X118223603Y-119504043D01*
X118164812Y-119748927D01*
X118145052Y-120000000D01*
X118164812Y-120251072D01*
X118223603Y-120495956D01*
X118319980Y-120728631D01*
X118451568Y-120943362D01*
X118452266Y-120944179D01*
X119185387Y-120211058D01*
X119190889Y-120231591D01*
X119269881Y-120368408D01*
X119381592Y-120480119D01*
X119518409Y-120559111D01*
X119538940Y-120564612D01*
X118805819Y-121297732D01*
X118805819Y-121297733D01*
X118806634Y-121298429D01*
X119021368Y-121430019D01*
X119254043Y-121526396D01*
X119498927Y-121585187D01*
X119750000Y-121604947D01*
X120001072Y-121585187D01*
X120245956Y-121526396D01*
X120478631Y-121430019D01*
X120693361Y-121298432D01*
X120693363Y-121298430D01*
X120694180Y-121297732D01*
X119961059Y-120564612D01*
X119981591Y-120559111D01*
X120118408Y-120480119D01*
X120230119Y-120368408D01*
X120309111Y-120231591D01*
X120314612Y-120211059D01*
X121047732Y-120944180D01*
X121048430Y-120943364D01*
X121080974Y-120890256D01*
X121132785Y-120843380D01*
X121201715Y-120831957D01*
X121265878Y-120859613D01*
X121304903Y-120917569D01*
X121305778Y-120920449D01*
X121307504Y-120926391D01*
X121310603Y-120933551D01*
X121307535Y-120934878D01*
X121320876Y-120987984D01*
X121303707Y-121046207D01*
X121287509Y-121073597D01*
X121287504Y-121073610D01*
X121242357Y-121229002D01*
X121242356Y-121229008D01*
X121239500Y-121265302D01*
X121239500Y-121734697D01*
X121242356Y-121770991D01*
X121242357Y-121770997D01*
X121287504Y-121926390D01*
X121287505Y-121926393D01*
X121287506Y-121926395D01*
X121369883Y-122065687D01*
X121383180Y-122078984D01*
X121416666Y-122140305D01*
X121419500Y-122166666D01*
X121419500Y-122397587D01*
X121399815Y-122464626D01*
X121392450Y-122474896D01*
X121390186Y-122477734D01*
X121294211Y-122630476D01*
X121234631Y-122800745D01*
X121234631Y-122800748D01*
X121229861Y-122843081D01*
X121202794Y-122907494D01*
X121145199Y-122947049D01*
X121075362Y-122949186D01*
X121063309Y-122945378D01*
X120957485Y-122905909D01*
X120957483Y-122905908D01*
X120897883Y-122899501D01*
X120897881Y-122899500D01*
X120897873Y-122899500D01*
X120897864Y-122899500D01*
X118602129Y-122899500D01*
X118602123Y-122899501D01*
X118542516Y-122905908D01*
X118407671Y-122956202D01*
X118407664Y-122956206D01*
X118292455Y-123042452D01*
X118292452Y-123042455D01*
X118206206Y-123157664D01*
X118206202Y-123157671D01*
X118155908Y-123292517D01*
X118149501Y-123352116D01*
X118149500Y-123352135D01*
X118149500Y-125647870D01*
X118149501Y-125647876D01*
X118155908Y-125707483D01*
X118206202Y-125842328D01*
X118206206Y-125842335D01*
X118292452Y-125957544D01*
X118292455Y-125957547D01*
X118407664Y-126043793D01*
X118407671Y-126043797D01*
X118542517Y-126094091D01*
X118542516Y-126094091D01*
X118549444Y-126094835D01*
X118602127Y-126100500D01*
X120897872Y-126100499D01*
X120957483Y-126094091D01*
X121092331Y-126043796D01*
X121207546Y-125957546D01*
X121293796Y-125842331D01*
X121344091Y-125707483D01*
X121350500Y-125647873D01*
X121350499Y-123729093D01*
X121370184Y-123662055D01*
X121422987Y-123616300D01*
X121492146Y-123606356D01*
X121540470Y-123624099D01*
X121670478Y-123705789D01*
X121840745Y-123765368D01*
X121840749Y-123765369D01*
X121929383Y-123775355D01*
X121993797Y-123802421D01*
X122033352Y-123860015D01*
X122039500Y-123898575D01*
X122039500Y-124783330D01*
X122039499Y-124783348D01*
X122039499Y-124949054D01*
X122039498Y-124949054D01*
X122080424Y-125101789D01*
X122080425Y-125101790D01*
X122102049Y-125139243D01*
X122102050Y-125139244D01*
X122159477Y-125238712D01*
X122159481Y-125238717D01*
X122278349Y-125357585D01*
X122278355Y-125357590D01*
X122403181Y-125482416D01*
X122436666Y-125543739D01*
X122439500Y-125570097D01*
X122439500Y-125684697D01*
X122442356Y-125720991D01*
X122442357Y-125720997D01*
X122487504Y-125876390D01*
X122487505Y-125876393D01*
X122487506Y-125876395D01*
X122524357Y-125938707D01*
X122569881Y-126015684D01*
X122569887Y-126015692D01*
X122684307Y-126130112D01*
X122684311Y-126130115D01*
X122684313Y-126130117D01*
X122823605Y-126212494D01*
X122828080Y-126213794D01*
X122979002Y-126257642D01*
X122979005Y-126257642D01*
X122979007Y-126257643D01*
X123015310Y-126260500D01*
X123015318Y-126260500D01*
X123484682Y-126260500D01*
X123484690Y-126260500D01*
X123520993Y-126257643D01*
X123520995Y-126257642D01*
X123520997Y-126257642D01*
X123671921Y-126213794D01*
X123741790Y-126213993D01*
X123800460Y-126251935D01*
X123805772Y-126258546D01*
X123842454Y-126307546D01*
X123883336Y-126338150D01*
X123957664Y-126393793D01*
X123957671Y-126393797D01*
X124092517Y-126444091D01*
X124092516Y-126444091D01*
X124099444Y-126444835D01*
X124152127Y-126450500D01*
X125647872Y-126450499D01*
X125707483Y-126444091D01*
X125842331Y-126393796D01*
X125926105Y-126331082D01*
X125991569Y-126306665D01*
X126059842Y-126321516D01*
X126074727Y-126331082D01*
X126157910Y-126393352D01*
X126157913Y-126393354D01*
X126292620Y-126443596D01*
X126292627Y-126443598D01*
X126352155Y-126449999D01*
X126352172Y-126450000D01*
X126850000Y-126450000D01*
X126850000Y-125474000D01*
X126869685Y-125406961D01*
X126922489Y-125361206D01*
X126974000Y-125350000D01*
X127226000Y-125350000D01*
X127293039Y-125369685D01*
X127338794Y-125422489D01*
X127350000Y-125474000D01*
X127350000Y-126450000D01*
X127847828Y-126450000D01*
X127847844Y-126449999D01*
X127907372Y-126443598D01*
X127907379Y-126443596D01*
X128042086Y-126393354D01*
X128042093Y-126393350D01*
X128157187Y-126307190D01*
X128157190Y-126307187D01*
X128243350Y-126192093D01*
X128243354Y-126192086D01*
X128293596Y-126057379D01*
X128293598Y-126057372D01*
X128299999Y-125997844D01*
X128300000Y-125997827D01*
X128300000Y-125881127D01*
X128319685Y-125814088D01*
X128372489Y-125768333D01*
X128433725Y-125757509D01*
X128450000Y-125758789D01*
X128950000Y-125758789D01*
X128970910Y-125757145D01*
X129126195Y-125712031D01*
X129265374Y-125629721D01*
X129265383Y-125629714D01*
X129379714Y-125515383D01*
X129379721Y-125515374D01*
X129462031Y-125376195D01*
X129504504Y-125230000D01*
X128950000Y-125230000D01*
X128950000Y-125758789D01*
X128450000Y-125758789D01*
X128450000Y-125104000D01*
X128469685Y-125036961D01*
X128522489Y-124991206D01*
X128574000Y-124980000D01*
X128700000Y-124980000D01*
X128700000Y-124924500D01*
X128719685Y-124857461D01*
X128772489Y-124811706D01*
X128824000Y-124800500D01*
X128934682Y-124800500D01*
X128934690Y-124800500D01*
X128970993Y-124797643D01*
X128970995Y-124797642D01*
X128970997Y-124797642D01*
X129126389Y-124752496D01*
X129126389Y-124752495D01*
X129126395Y-124752494D01*
X129135233Y-124747267D01*
X129198352Y-124730000D01*
X129504504Y-124730000D01*
X129462031Y-124583803D01*
X129450090Y-124563613D01*
X129432906Y-124495889D01*
X129450089Y-124437369D01*
X129462494Y-124416395D01*
X129507643Y-124260993D01*
X129510500Y-124224690D01*
X129510500Y-124159097D01*
X129530185Y-124092058D01*
X129582989Y-124046303D01*
X129652147Y-124036359D01*
X129715703Y-124065384D01*
X129722181Y-124071416D01*
X130896406Y-125245642D01*
X130929891Y-125306965D01*
X130924907Y-125376657D01*
X130883035Y-125432590D01*
X130852059Y-125449505D01*
X130832911Y-125456646D01*
X130832906Y-125456649D01*
X130717812Y-125542809D01*
X130717809Y-125542812D01*
X130631649Y-125657906D01*
X130631645Y-125657913D01*
X130581403Y-125792620D01*
X130581401Y-125792627D01*
X130575000Y-125852155D01*
X130575000Y-126500000D01*
X131491988Y-126500000D01*
X131459075Y-126557007D01*
X131425000Y-126684174D01*
X131425000Y-126815826D01*
X131459075Y-126942993D01*
X131491988Y-127000000D01*
X130575000Y-127000000D01*
X130575000Y-127647844D01*
X130581401Y-127707372D01*
X130581403Y-127707379D01*
X130631645Y-127842086D01*
X130631649Y-127842093D01*
X130717809Y-127957187D01*
X130717812Y-127957190D01*
X130832906Y-128043350D01*
X130832913Y-128043354D01*
X130967620Y-128093596D01*
X130967627Y-128093598D01*
X131027155Y-128099999D01*
X131027172Y-128100000D01*
X131675000Y-128100000D01*
X131675000Y-127183012D01*
X131732007Y-127215925D01*
X131859174Y-127250000D01*
X131990826Y-127250000D01*
X132117993Y-127215925D01*
X132175000Y-127183012D01*
X132175000Y-128100000D01*
X132822828Y-128100000D01*
X132822844Y-128099999D01*
X132882372Y-128093598D01*
X132882379Y-128093596D01*
X133017086Y-128043354D01*
X133017093Y-128043350D01*
X133132187Y-127957190D01*
X133132190Y-127957187D01*
X133218350Y-127842093D01*
X133218354Y-127842086D01*
X133267422Y-127710529D01*
X133309293Y-127654595D01*
X133374757Y-127630178D01*
X133443030Y-127645030D01*
X133471285Y-127666181D01*
X133593599Y-127788495D01*
X133690384Y-127856265D01*
X133787165Y-127924032D01*
X133787167Y-127924033D01*
X133787170Y-127924035D01*
X134001337Y-128023903D01*
X134229592Y-128085063D01*
X134400319Y-128100000D01*
X134464999Y-128105659D01*
X134465000Y-128105659D01*
X134465001Y-128105659D01*
X134529681Y-128100000D01*
X134700408Y-128085063D01*
X134928663Y-128023903D01*
X135142830Y-127924035D01*
X135336401Y-127788495D01*
X135503495Y-127621401D01*
X135633425Y-127435842D01*
X135688002Y-127392217D01*
X135757500Y-127385023D01*
X135819855Y-127416546D01*
X135836575Y-127435842D01*
X135966500Y-127621395D01*
X135966505Y-127621401D01*
X136133599Y-127788495D01*
X136230384Y-127856265D01*
X136327165Y-127924032D01*
X136327167Y-127924033D01*
X136327170Y-127924035D01*
X136541337Y-128023903D01*
X136769592Y-128085063D01*
X136940319Y-128100000D01*
X137004999Y-128105659D01*
X137005000Y-128105659D01*
X137005001Y-128105659D01*
X137069681Y-128100000D01*
X137240408Y-128085063D01*
X137468663Y-128023903D01*
X137682830Y-127924035D01*
X137876401Y-127788495D01*
X138043495Y-127621401D01*
X138173425Y-127435842D01*
X138228002Y-127392217D01*
X138297500Y-127385023D01*
X138359855Y-127416546D01*
X138376575Y-127435842D01*
X138506500Y-127621395D01*
X138506505Y-127621401D01*
X138673599Y-127788495D01*
X138770384Y-127856265D01*
X138867165Y-127924032D01*
X138867167Y-127924033D01*
X138867170Y-127924035D01*
X139081337Y-128023903D01*
X139309592Y-128085063D01*
X139480319Y-128100000D01*
X139544999Y-128105659D01*
X139545000Y-128105659D01*
X139545001Y-128105659D01*
X139609681Y-128100000D01*
X139780408Y-128085063D01*
X140008663Y-128023903D01*
X140222830Y-127924035D01*
X140416401Y-127788495D01*
X140583495Y-127621401D01*
X140713425Y-127435842D01*
X140768002Y-127392217D01*
X140837500Y-127385023D01*
X140899855Y-127416546D01*
X140916575Y-127435842D01*
X141046500Y-127621395D01*
X141046505Y-127621401D01*
X141213599Y-127788495D01*
X141310384Y-127856265D01*
X141407165Y-127924032D01*
X141407167Y-127924033D01*
X141407170Y-127924035D01*
X141621337Y-128023903D01*
X141849592Y-128085063D01*
X142020319Y-128100000D01*
X142084999Y-128105659D01*
X142085000Y-128105659D01*
X142085001Y-128105659D01*
X142149681Y-128100000D01*
X142320408Y-128085063D01*
X142548663Y-128023903D01*
X142762830Y-127924035D01*
X142956401Y-127788495D01*
X143123495Y-127621401D01*
X143259035Y-127427830D01*
X143358903Y-127213663D01*
X143420063Y-126985408D01*
X143427741Y-126897648D01*
X146699500Y-126897648D01*
X146699500Y-127102351D01*
X146731522Y-127304534D01*
X146794781Y-127499223D01*
X146857032Y-127621395D01*
X146870508Y-127647844D01*
X146887715Y-127681613D01*
X147008028Y-127847213D01*
X147152786Y-127991971D01*
X147301477Y-128099999D01*
X147318390Y-128112287D01*
X147434607Y-128171503D01*
X147500776Y-128205218D01*
X147500778Y-128205218D01*
X147500781Y-128205220D01*
X147605137Y-128239127D01*
X147695465Y-128268477D01*
X147796557Y-128284488D01*
X147897648Y-128300500D01*
X147897649Y-128300500D01*
X148102351Y-128300500D01*
X148102352Y-128300500D01*
X148304534Y-128268477D01*
X148499219Y-128205220D01*
X148681610Y-128112287D01*
X148776494Y-128043350D01*
X148847213Y-127991971D01*
X148847215Y-127991968D01*
X148847219Y-127991966D01*
X148991966Y-127847219D01*
X148991968Y-127847215D01*
X148991971Y-127847213D01*
X149091276Y-127710529D01*
X149112287Y-127681610D01*
X149205220Y-127499219D01*
X149268477Y-127304534D01*
X149300500Y-127102352D01*
X149300500Y-126897648D01*
X149288596Y-126822489D01*
X149268477Y-126695465D01*
X149211362Y-126519685D01*
X149205220Y-126500781D01*
X149205218Y-126500778D01*
X149205218Y-126500776D01*
X149150708Y-126393796D01*
X149112287Y-126318390D01*
X149092654Y-126291367D01*
X148991971Y-126152786D01*
X148847213Y-126008028D01*
X148681613Y-125887715D01*
X148681612Y-125887714D01*
X148681610Y-125887713D01*
X148592543Y-125842331D01*
X148499223Y-125794781D01*
X148304534Y-125731522D01*
X148129995Y-125703878D01*
X148102352Y-125699500D01*
X147897648Y-125699500D01*
X147873329Y-125703351D01*
X147695465Y-125731522D01*
X147500776Y-125794781D01*
X147318386Y-125887715D01*
X147152786Y-126008028D01*
X147008028Y-126152786D01*
X146887715Y-126318386D01*
X146794781Y-126500776D01*
X146731522Y-126695465D01*
X146699500Y-126897648D01*
X143427741Y-126897648D01*
X143440659Y-126750000D01*
X143420063Y-126514592D01*
X143368329Y-126321516D01*
X143358905Y-126286344D01*
X143358904Y-126286343D01*
X143358903Y-126286337D01*
X143259035Y-126072171D01*
X143253425Y-126064158D01*
X143123494Y-125878597D01*
X142956402Y-125711506D01*
X142956395Y-125711501D01*
X142950655Y-125707482D01*
X142879854Y-125657906D01*
X142762834Y-125575967D01*
X142762830Y-125575965D01*
X142640100Y-125518735D01*
X142548663Y-125476097D01*
X142548659Y-125476096D01*
X142548655Y-125476094D01*
X142320413Y-125414938D01*
X142320403Y-125414936D01*
X142085001Y-125394341D01*
X142084999Y-125394341D01*
X141849596Y-125414936D01*
X141849586Y-125414938D01*
X141621344Y-125476094D01*
X141621335Y-125476098D01*
X141407171Y-125575964D01*
X141407169Y-125575965D01*
X141213597Y-125711505D01*
X141046505Y-125878597D01*
X140916575Y-126064158D01*
X140861998Y-126107783D01*
X140792500Y-126114977D01*
X140730145Y-126083454D01*
X140713425Y-126064158D01*
X140583494Y-125878597D01*
X140416402Y-125711506D01*
X140416395Y-125711501D01*
X140410655Y-125707482D01*
X140339854Y-125657906D01*
X140222834Y-125575967D01*
X140222830Y-125575965D01*
X140100100Y-125518735D01*
X140008663Y-125476097D01*
X140008659Y-125476096D01*
X140008655Y-125476094D01*
X139780413Y-125414938D01*
X139780403Y-125414936D01*
X139545001Y-125394341D01*
X139544999Y-125394341D01*
X139309596Y-125414936D01*
X139309586Y-125414938D01*
X139081344Y-125476094D01*
X139081335Y-125476098D01*
X138867171Y-125575964D01*
X138867169Y-125575965D01*
X138673597Y-125711505D01*
X138506505Y-125878597D01*
X138376575Y-126064158D01*
X138321998Y-126107783D01*
X138252500Y-126114977D01*
X138190145Y-126083454D01*
X138173425Y-126064158D01*
X138043494Y-125878597D01*
X137876402Y-125711506D01*
X137876395Y-125711501D01*
X137870655Y-125707482D01*
X137799854Y-125657906D01*
X137682834Y-125575967D01*
X137682830Y-125575965D01*
X137560100Y-125518735D01*
X137468663Y-125476097D01*
X137468659Y-125476096D01*
X137468655Y-125476094D01*
X137240413Y-125414938D01*
X137240403Y-125414936D01*
X137005001Y-125394341D01*
X137004999Y-125394341D01*
X136769596Y-125414936D01*
X136769583Y-125414939D01*
X136641241Y-125449327D01*
X136571392Y-125447664D01*
X136521468Y-125417233D01*
X136342590Y-125238355D01*
X136342588Y-125238352D01*
X136302960Y-125198724D01*
X136269475Y-125137401D01*
X136274459Y-125067709D01*
X136316331Y-125011776D01*
X136328643Y-125003655D01*
X136338892Y-124997738D01*
X136368716Y-124980520D01*
X136480520Y-124868716D01*
X136480520Y-124868714D01*
X136490728Y-124858507D01*
X136490730Y-124858504D01*
X136598506Y-124750728D01*
X136598511Y-124750724D01*
X136608714Y-124740520D01*
X136608716Y-124740520D01*
X136720520Y-124628716D01*
X136758749Y-124562499D01*
X136809316Y-124514284D01*
X136866137Y-124500499D01*
X136937871Y-124500499D01*
X136937872Y-124500499D01*
X136937873Y-124500498D01*
X136937887Y-124500498D01*
X136964376Y-124497649D01*
X136986748Y-124495245D01*
X137013250Y-124495245D01*
X137062127Y-124500500D01*
X137437872Y-124500499D01*
X137437875Y-124500498D01*
X137437887Y-124500498D01*
X137464376Y-124497649D01*
X137486748Y-124495245D01*
X137513250Y-124495245D01*
X137562127Y-124500500D01*
X137937872Y-124500499D01*
X137997483Y-124494091D01*
X138132331Y-124443796D01*
X138247546Y-124357546D01*
X138333796Y-124242331D01*
X138384091Y-124107483D01*
X138390500Y-124047873D01*
X138390500Y-123730000D01*
X140395496Y-123730000D01*
X140437968Y-123876195D01*
X140520278Y-124015374D01*
X140520285Y-124015383D01*
X140634616Y-124129714D01*
X140634625Y-124129721D01*
X140773804Y-124212031D01*
X140929089Y-124257145D01*
X140950000Y-124258789D01*
X141450000Y-124258789D01*
X141470910Y-124257145D01*
X141626195Y-124212031D01*
X141765374Y-124129721D01*
X141765383Y-124129714D01*
X141879714Y-124015383D01*
X141879721Y-124015374D01*
X141962031Y-123876195D01*
X142004504Y-123730000D01*
X141450000Y-123730000D01*
X141450000Y-124258789D01*
X140950000Y-124258789D01*
X140950000Y-123730000D01*
X140395496Y-123730000D01*
X138390500Y-123730000D01*
X138390499Y-123254498D01*
X138410183Y-123187460D01*
X138462987Y-123141705D01*
X138514499Y-123130499D01*
X139317871Y-123130499D01*
X139317872Y-123130499D01*
X139377483Y-123124091D01*
X139512331Y-123073796D01*
X139627546Y-122987546D01*
X139713796Y-122872331D01*
X139764091Y-122737483D01*
X139770500Y-122677873D01*
X139770499Y-122302128D01*
X139765245Y-122253252D01*
X139765245Y-122226747D01*
X139765348Y-122225789D01*
X139769519Y-122186990D01*
X139796255Y-122122444D01*
X139853647Y-122082594D01*
X139923472Y-122080099D01*
X139980489Y-122112567D01*
X139997738Y-122129816D01*
X140150478Y-122225789D01*
X140306454Y-122280367D01*
X140363230Y-122321089D01*
X140388978Y-122386041D01*
X140389500Y-122397409D01*
X140389500Y-122724697D01*
X140392356Y-122760991D01*
X140392357Y-122760997D01*
X140437504Y-122916390D01*
X140437507Y-122916397D01*
X140449910Y-122937370D01*
X140467093Y-123005094D01*
X140449912Y-123063608D01*
X140437968Y-123083804D01*
X140395496Y-123230000D01*
X140701648Y-123230000D01*
X140764766Y-123247267D01*
X140773605Y-123252494D01*
X140773608Y-123252494D01*
X140773610Y-123252496D01*
X140929002Y-123297642D01*
X140929005Y-123297642D01*
X140929007Y-123297643D01*
X140965310Y-123300500D01*
X140965318Y-123300500D01*
X141434682Y-123300500D01*
X141434690Y-123300500D01*
X141470993Y-123297643D01*
X141470995Y-123297642D01*
X141470997Y-123297642D01*
X141626389Y-123252496D01*
X141626389Y-123252495D01*
X141626395Y-123252494D01*
X141635233Y-123247267D01*
X141698352Y-123230000D01*
X142004504Y-123230000D01*
X141962031Y-123083803D01*
X141950090Y-123063613D01*
X141932906Y-122995889D01*
X141950091Y-122937367D01*
X141958492Y-122923161D01*
X142009564Y-122875481D01*
X142078306Y-122862980D01*
X142099816Y-122867212D01*
X142247426Y-122910097D01*
X142247429Y-122910097D01*
X142247431Y-122910098D01*
X142284306Y-122913000D01*
X142284314Y-122913000D01*
X142682105Y-122913000D01*
X142749144Y-122932685D01*
X142794899Y-122985489D01*
X142804843Y-123054647D01*
X142784328Y-123102996D01*
X142785890Y-123103920D01*
X142698255Y-123252103D01*
X142698254Y-123252106D01*
X142652402Y-123409926D01*
X142652401Y-123409932D01*
X142649500Y-123446798D01*
X142649500Y-124603201D01*
X142652401Y-124640067D01*
X142652402Y-124640073D01*
X142698254Y-124797893D01*
X142698255Y-124797896D01*
X142698256Y-124797898D01*
X142716669Y-124829032D01*
X142775730Y-124928901D01*
X142781918Y-124939364D01*
X142781923Y-124939370D01*
X142898129Y-125055576D01*
X142898133Y-125055579D01*
X142898135Y-125055581D01*
X143039602Y-125139244D01*
X143078259Y-125150475D01*
X143197426Y-125185097D01*
X143197429Y-125185097D01*
X143197431Y-125185098D01*
X143234306Y-125188000D01*
X143234314Y-125188000D01*
X143665686Y-125188000D01*
X143665694Y-125188000D01*
X143702569Y-125185098D01*
X143702571Y-125185097D01*
X143702573Y-125185097D01*
X143744191Y-125173005D01*
X143860398Y-125139244D01*
X144001865Y-125055581D01*
X144118081Y-124939365D01*
X144164296Y-124861218D01*
X144215362Y-124813538D01*
X144284103Y-124801034D01*
X144311974Y-124807299D01*
X144320745Y-124810368D01*
X144320752Y-124810368D01*
X144320753Y-124810369D01*
X144499996Y-124830565D01*
X144500000Y-124830565D01*
X144500004Y-124830565D01*
X144679249Y-124810369D01*
X144679252Y-124810368D01*
X144679255Y-124810368D01*
X144849522Y-124750789D01*
X144850488Y-124750181D01*
X144859523Y-124744506D01*
X144925494Y-124725500D01*
X145111496Y-124725500D01*
X145202540Y-124707389D01*
X145246828Y-124698580D01*
X145315544Y-124670117D01*
X145374307Y-124645777D01*
X145374308Y-124645776D01*
X145374311Y-124645775D01*
X145489043Y-124569114D01*
X145875715Y-124182440D01*
X145937034Y-124148958D01*
X145953663Y-124146506D01*
X145970993Y-124145143D01*
X145970995Y-124145142D01*
X145970997Y-124145142D01*
X146032900Y-124127157D01*
X146126395Y-124099994D01*
X146245783Y-124029387D01*
X146261438Y-124021565D01*
X146341810Y-123988275D01*
X146456542Y-123911614D01*
X146638042Y-123730112D01*
X146684764Y-123700756D01*
X146788271Y-123664538D01*
X146941011Y-123568565D01*
X147068565Y-123441011D01*
X147164538Y-123288271D01*
X147224117Y-123118004D01*
X147224947Y-123110638D01*
X147244314Y-122938752D01*
X147244314Y-122938745D01*
X147224286Y-122760993D01*
X147224117Y-122759494D01*
X147209382Y-122717383D01*
X147207458Y-122711884D01*
X147200500Y-122670930D01*
X147200500Y-121925493D01*
X147219508Y-121859519D01*
X147225787Y-121849525D01*
X147225786Y-121849525D01*
X147225789Y-121849522D01*
X147285368Y-121679255D01*
X147288192Y-121654196D01*
X147305565Y-121500000D01*
X147305565Y-121499996D01*
X147285369Y-121320750D01*
X147285368Y-121320745D01*
X147225788Y-121150475D01*
X147192064Y-121096805D01*
X147175439Y-121055019D01*
X147173686Y-121046207D01*
X147173580Y-121045672D01*
X147173578Y-121045667D01*
X147169566Y-121035980D01*
X147169549Y-121035941D01*
X147141582Y-120968422D01*
X147120775Y-120918189D01*
X147044114Y-120803457D01*
X147044112Y-120803454D01*
X147044111Y-120803453D01*
X146541367Y-120300710D01*
X146512006Y-120253983D01*
X146511493Y-120252517D01*
X146475789Y-120150478D01*
X146379816Y-119997738D01*
X146252262Y-119870184D01*
X146212182Y-119845000D01*
X146099523Y-119774211D01*
X145929254Y-119714631D01*
X145929249Y-119714630D01*
X145750004Y-119694435D01*
X145749996Y-119694435D01*
X145570750Y-119714630D01*
X145570745Y-119714631D01*
X145400474Y-119774212D01*
X145390477Y-119780494D01*
X145324506Y-119799500D01*
X144892242Y-119799500D01*
X144825203Y-119779815D01*
X144779448Y-119727011D01*
X144769504Y-119657853D01*
X144789140Y-119606609D01*
X144831185Y-119543683D01*
X144831192Y-119543671D01*
X144906569Y-119361692D01*
X144906569Y-119361690D01*
X144914862Y-119320000D01*
X144111988Y-119320000D01*
X144129205Y-119310060D01*
X144185060Y-119254205D01*
X144224556Y-119185796D01*
X144245000Y-119109496D01*
X144245000Y-119030504D01*
X144224556Y-118954204D01*
X144185060Y-118885795D01*
X144129205Y-118829940D01*
X144111988Y-118820000D01*
X144914862Y-118820000D01*
X146305138Y-118820000D01*
X147108012Y-118820000D01*
X147090795Y-118829940D01*
X147034940Y-118885795D01*
X146995444Y-118954204D01*
X146975000Y-119030504D01*
X146975000Y-119109496D01*
X146995444Y-119185796D01*
X147034940Y-119254205D01*
X147090795Y-119310060D01*
X147108012Y-119320000D01*
X146305138Y-119320000D01*
X146313430Y-119361690D01*
X146313430Y-119361692D01*
X146388807Y-119543671D01*
X146388814Y-119543684D01*
X146498248Y-119707462D01*
X146498251Y-119707466D01*
X146637533Y-119846748D01*
X146637537Y-119846751D01*
X146801315Y-119956185D01*
X146801328Y-119956192D01*
X146983306Y-120031569D01*
X146983318Y-120031572D01*
X147176504Y-120069999D01*
X147176508Y-120070000D01*
X147325000Y-120070000D01*
X147325000Y-119370000D01*
X147825000Y-119370000D01*
X147825000Y-120070000D01*
X147973492Y-120070000D01*
X147973495Y-120069999D01*
X148166681Y-120031572D01*
X148166693Y-120031569D01*
X148348671Y-119956192D01*
X148348684Y-119956185D01*
X148512462Y-119846751D01*
X148512466Y-119846748D01*
X148651748Y-119707466D01*
X148651751Y-119707462D01*
X148761185Y-119543684D01*
X148761192Y-119543671D01*
X148836569Y-119361692D01*
X148836569Y-119361690D01*
X148844862Y-119320000D01*
X148041988Y-119320000D01*
X148059205Y-119310060D01*
X148115060Y-119254205D01*
X148154556Y-119185796D01*
X148175000Y-119109496D01*
X148175000Y-119030504D01*
X148154556Y-118954204D01*
X148115060Y-118885795D01*
X148059205Y-118829940D01*
X148041988Y-118820000D01*
X148844862Y-118820000D01*
X148836569Y-118778309D01*
X148836569Y-118778307D01*
X148761192Y-118596328D01*
X148761185Y-118596315D01*
X148651751Y-118432537D01*
X148651748Y-118432533D01*
X148512466Y-118293251D01*
X148512462Y-118293248D01*
X148348684Y-118183814D01*
X148348671Y-118183807D01*
X148166693Y-118108430D01*
X148166681Y-118108427D01*
X147973495Y-118070000D01*
X147825000Y-118070000D01*
X147825000Y-118770000D01*
X147325000Y-118770000D01*
X147325000Y-118070000D01*
X147176504Y-118070000D01*
X146983318Y-118108427D01*
X146983306Y-118108430D01*
X146801328Y-118183807D01*
X146801315Y-118183814D01*
X146637537Y-118293248D01*
X146637533Y-118293251D01*
X146498251Y-118432533D01*
X146498248Y-118432537D01*
X146388814Y-118596315D01*
X146388807Y-118596328D01*
X146313430Y-118778307D01*
X146313430Y-118778309D01*
X146305138Y-118820000D01*
X144914862Y-118820000D01*
X144906569Y-118778309D01*
X144906569Y-118778307D01*
X144831192Y-118596328D01*
X144831185Y-118596315D01*
X144721751Y-118432537D01*
X144721748Y-118432533D01*
X144582466Y-118293251D01*
X144582462Y-118293248D01*
X144418684Y-118183814D01*
X144418674Y-118183809D01*
X144409157Y-118179867D01*
X144354754Y-118136026D01*
X144332689Y-118069731D01*
X144349969Y-118002032D01*
X144353648Y-117996597D01*
X144355512Y-117993367D01*
X144355515Y-117993365D01*
X144431281Y-117862135D01*
X144470500Y-117715766D01*
X144470500Y-117564234D01*
X144431281Y-117417865D01*
X144355515Y-117286635D01*
X144248365Y-117179485D01*
X144117135Y-117103719D01*
X144009679Y-117074926D01*
X143997406Y-117071638D01*
X143937746Y-117035273D01*
X143907217Y-116972426D01*
X143905500Y-116951863D01*
X143905500Y-116934313D01*
X143905499Y-116934298D01*
X143903754Y-116912128D01*
X143902598Y-116897431D01*
X143880432Y-116821137D01*
X143880631Y-116751272D01*
X143884946Y-116739094D01*
X143890687Y-116725236D01*
X143905500Y-116612720D01*
X143905500Y-116387280D01*
X143890687Y-116274764D01*
X143890686Y-116274763D01*
X143889626Y-116266705D01*
X143892689Y-116266301D01*
X143892689Y-116233698D01*
X143889626Y-116233295D01*
X143895644Y-116187585D01*
X143905500Y-116112720D01*
X143905500Y-115887280D01*
X143890687Y-115774764D01*
X143890686Y-115774763D01*
X143889626Y-115766705D01*
X143892689Y-115766301D01*
X143892689Y-115733698D01*
X143889626Y-115733295D01*
X143893500Y-115703866D01*
X143905500Y-115612720D01*
X143905500Y-115432506D01*
X143925185Y-115365467D01*
X143941813Y-115344830D01*
X144063509Y-115223134D01*
X144063514Y-115223131D01*
X144073714Y-115212930D01*
X144073716Y-115212930D01*
X144185520Y-115101126D01*
X144264577Y-114964194D01*
X144300787Y-114829057D01*
X144305500Y-114811468D01*
X144305500Y-114653353D01*
X144305500Y-114188533D01*
X144304427Y-114184530D01*
X144291093Y-114134767D01*
X144264577Y-114035806D01*
X144264575Y-114035802D01*
X144264574Y-114035799D01*
X144185524Y-113898880D01*
X144185518Y-113898872D01*
X144155988Y-113869342D01*
X144122503Y-113808019D01*
X144127487Y-113738327D01*
X144169359Y-113682394D01*
X144177685Y-113676675D01*
X144252262Y-113629816D01*
X144379816Y-113502262D01*
X144475789Y-113349522D01*
X144535368Y-113179255D01*
X144537410Y-113161135D01*
X144555565Y-113000003D01*
X144555565Y-112999996D01*
X144535369Y-112820750D01*
X144535368Y-112820745D01*
X144534117Y-112817169D01*
X144475789Y-112650478D01*
X144464126Y-112631917D01*
X144428677Y-112575500D01*
X144379816Y-112497738D01*
X144313160Y-112431082D01*
X144279675Y-112369759D01*
X144284659Y-112300067D01*
X144313160Y-112255720D01*
X144330009Y-112238871D01*
X144355515Y-112213365D01*
X144431281Y-112082135D01*
X144470500Y-111935766D01*
X144470500Y-111784234D01*
X144431281Y-111637865D01*
X144355515Y-111506635D01*
X144355513Y-111506633D01*
X144351451Y-111499597D01*
X144353654Y-111498325D01*
X144333041Y-111445022D01*
X144347073Y-111376576D01*
X144395882Y-111326582D01*
X144409163Y-111320129D01*
X144418682Y-111316186D01*
X144418684Y-111316185D01*
X144582462Y-111206751D01*
X144582466Y-111206748D01*
X144721748Y-111067466D01*
X144721751Y-111067462D01*
X144831185Y-110903684D01*
X144831192Y-110903671D01*
X144906569Y-110721692D01*
X144906569Y-110721690D01*
X144914862Y-110680000D01*
X144111988Y-110680000D01*
X144129205Y-110670060D01*
X144185060Y-110614205D01*
X144224556Y-110545796D01*
X144245000Y-110469496D01*
X144245000Y-110390504D01*
X144224556Y-110314204D01*
X144185060Y-110245795D01*
X144129205Y-110189940D01*
X144111988Y-110180000D01*
X144914862Y-110180000D01*
X146305138Y-110180000D01*
X147108012Y-110180000D01*
X147090795Y-110189940D01*
X147034940Y-110245795D01*
X146995444Y-110314204D01*
X146975000Y-110390504D01*
X146975000Y-110469496D01*
X146995444Y-110545796D01*
X147034940Y-110614205D01*
X147090795Y-110670060D01*
X147108012Y-110680000D01*
X146305138Y-110680000D01*
X146313430Y-110721690D01*
X146313430Y-110721692D01*
X146388807Y-110903671D01*
X146388814Y-110903684D01*
X146498248Y-111067462D01*
X146498251Y-111067466D01*
X146637533Y-111206748D01*
X146637537Y-111206751D01*
X146801315Y-111316185D01*
X146801328Y-111316192D01*
X146983306Y-111391569D01*
X146983318Y-111391572D01*
X147176504Y-111429999D01*
X147176508Y-111430000D01*
X147325000Y-111430000D01*
X147325000Y-110730000D01*
X147825000Y-110730000D01*
X147825000Y-111430000D01*
X147973492Y-111430000D01*
X147973495Y-111429999D01*
X148166681Y-111391572D01*
X148166693Y-111391569D01*
X148348671Y-111316192D01*
X148348684Y-111316185D01*
X148512462Y-111206751D01*
X148512466Y-111206748D01*
X148651748Y-111067466D01*
X148651751Y-111067462D01*
X148761185Y-110903684D01*
X148761192Y-110903671D01*
X148836569Y-110721692D01*
X148836569Y-110721690D01*
X148844862Y-110680000D01*
X148041988Y-110680000D01*
X148059205Y-110670060D01*
X148115060Y-110614205D01*
X148154556Y-110545796D01*
X148175000Y-110469496D01*
X148175000Y-110390504D01*
X148154556Y-110314204D01*
X148115060Y-110245795D01*
X148059205Y-110189940D01*
X148041988Y-110180000D01*
X148844862Y-110180000D01*
X148836569Y-110138309D01*
X148836569Y-110138307D01*
X148761192Y-109956328D01*
X148761185Y-109956315D01*
X148651751Y-109792537D01*
X148651748Y-109792533D01*
X148512466Y-109653251D01*
X148512462Y-109653248D01*
X148348684Y-109543814D01*
X148348671Y-109543807D01*
X148166693Y-109468430D01*
X148166681Y-109468427D01*
X147973495Y-109430000D01*
X147825000Y-109430000D01*
X147825000Y-110130000D01*
X147325000Y-110130000D01*
X147325000Y-109430000D01*
X147176504Y-109430000D01*
X146983318Y-109468427D01*
X146983306Y-109468430D01*
X146801328Y-109543807D01*
X146801315Y-109543814D01*
X146637537Y-109653248D01*
X146637533Y-109653251D01*
X146498251Y-109792533D01*
X146498248Y-109792537D01*
X146388814Y-109956315D01*
X146388807Y-109956328D01*
X146313430Y-110138307D01*
X146313430Y-110138309D01*
X146305138Y-110180000D01*
X144914862Y-110180000D01*
X144906569Y-110138309D01*
X144906569Y-110138307D01*
X144831192Y-109956328D01*
X144831185Y-109956315D01*
X144721751Y-109792537D01*
X144721748Y-109792533D01*
X144582466Y-109653251D01*
X144582462Y-109653248D01*
X144418684Y-109543814D01*
X144418671Y-109543807D01*
X144236693Y-109468430D01*
X144236681Y-109468427D01*
X144043495Y-109430000D01*
X143645000Y-109430000D01*
X143645000Y-110130000D01*
X143145000Y-110130000D01*
X143145000Y-109430000D01*
X142746504Y-109430000D01*
X142553318Y-109468427D01*
X142553306Y-109468430D01*
X142371328Y-109543807D01*
X142371315Y-109543814D01*
X142207537Y-109653248D01*
X142207533Y-109653251D01*
X142068251Y-109792533D01*
X142068248Y-109792537D01*
X141958814Y-109956315D01*
X141958807Y-109956328D01*
X141883430Y-110138307D01*
X141883430Y-110138309D01*
X141875138Y-110180000D01*
X142678012Y-110180000D01*
X142660795Y-110189940D01*
X142604940Y-110245795D01*
X142565444Y-110314204D01*
X142545000Y-110390504D01*
X142545000Y-110469496D01*
X142565444Y-110545796D01*
X142604940Y-110614205D01*
X142660795Y-110670060D01*
X142678012Y-110680000D01*
X141875138Y-110680000D01*
X141883430Y-110721692D01*
X141883432Y-110721699D01*
X141890278Y-110738227D01*
X141897745Y-110807697D01*
X141866469Y-110870175D01*
X141856203Y-110879556D01*
X141782180Y-110953580D01*
X141720857Y-110987065D01*
X141651165Y-110982081D01*
X141595232Y-110940209D01*
X141570815Y-110874745D01*
X141570499Y-110865899D01*
X141570499Y-110810831D01*
X141570498Y-110810806D01*
X141567665Y-110774799D01*
X141567665Y-110774796D01*
X141522869Y-110620607D01*
X141488581Y-110562629D01*
X141471398Y-110494905D01*
X141488582Y-110436386D01*
X141522404Y-110379196D01*
X141522405Y-110379194D01*
X141562844Y-110240000D01*
X141010409Y-110240000D01*
X141000680Y-110239618D01*
X140999186Y-110239500D01*
X140500830Y-110239500D01*
X140500813Y-110239501D01*
X140499692Y-110239589D01*
X140499330Y-110239618D01*
X140489607Y-110240000D01*
X139937156Y-110240000D01*
X139940324Y-110250905D01*
X139940124Y-110320775D01*
X139902181Y-110379445D01*
X139838543Y-110408288D01*
X139821247Y-110409500D01*
X138842412Y-110409500D01*
X138775373Y-110389815D01*
X138765097Y-110382445D01*
X138762263Y-110380185D01*
X138762262Y-110380184D01*
X138690058Y-110334815D01*
X138609523Y-110284211D01*
X138439254Y-110224631D01*
X138439249Y-110224630D01*
X138260004Y-110204435D01*
X138259996Y-110204435D01*
X138080750Y-110224630D01*
X138080745Y-110224631D01*
X137910476Y-110284211D01*
X137757737Y-110380184D01*
X137754241Y-110383681D01*
X137692918Y-110417166D01*
X137666560Y-110420000D01*
X137493352Y-110420000D01*
X137430233Y-110402732D01*
X137421395Y-110397506D01*
X137421393Y-110397505D01*
X137421389Y-110397503D01*
X137265997Y-110352357D01*
X137265991Y-110352356D01*
X137229697Y-110349500D01*
X137229690Y-110349500D01*
X137119000Y-110349500D01*
X137051961Y-110329815D01*
X137006206Y-110277011D01*
X136995000Y-110225500D01*
X136995000Y-110170000D01*
X136869000Y-110170000D01*
X136801961Y-110150315D01*
X136756206Y-110097511D01*
X136745000Y-110046000D01*
X136745000Y-109920000D01*
X137245000Y-109920000D01*
X137799504Y-109920000D01*
X137757031Y-109773804D01*
X137737039Y-109740000D01*
X139937156Y-109740000D01*
X140500000Y-109740000D01*
X141000000Y-109740000D01*
X141562844Y-109740000D01*
X141522404Y-109600805D01*
X141440738Y-109462714D01*
X141440731Y-109462705D01*
X141327294Y-109349268D01*
X141327285Y-109349261D01*
X141189191Y-109267593D01*
X141189188Y-109267592D01*
X141035130Y-109222834D01*
X141000000Y-109220068D01*
X141000000Y-109740000D01*
X140500000Y-109740000D01*
X140500000Y-109220068D01*
X140499999Y-109220068D01*
X140464869Y-109222834D01*
X140464868Y-109222834D01*
X140310811Y-109267592D01*
X140310808Y-109267593D01*
X140172714Y-109349261D01*
X140172705Y-109349268D01*
X140059268Y-109462705D01*
X140059261Y-109462714D01*
X139977595Y-109600805D01*
X139937156Y-109740000D01*
X137737039Y-109740000D01*
X137674721Y-109634625D01*
X137674714Y-109634616D01*
X137560383Y-109520285D01*
X137560374Y-109520278D01*
X137421195Y-109437968D01*
X137421190Y-109437966D01*
X137265918Y-109392855D01*
X137265912Y-109392854D01*
X137245000Y-109391209D01*
X137245000Y-109920000D01*
X136745000Y-109920000D01*
X136745000Y-109391210D01*
X136744999Y-109391209D01*
X136724091Y-109392854D01*
X136717859Y-109393993D01*
X136717408Y-109391524D01*
X136658665Y-109391327D01*
X136600014Y-109353355D01*
X136571203Y-109289702D01*
X136570000Y-109272468D01*
X136570000Y-108902172D01*
X136569999Y-108902155D01*
X136563598Y-108842627D01*
X136563596Y-108842620D01*
X136513354Y-108707913D01*
X136513350Y-108707906D01*
X136427190Y-108592812D01*
X136427187Y-108592809D01*
X136312093Y-108506649D01*
X136312086Y-108506645D01*
X136177379Y-108456403D01*
X136177372Y-108456401D01*
X136117844Y-108450000D01*
X135720000Y-108450000D01*
X135720000Y-109526000D01*
X135700315Y-109593039D01*
X135647511Y-109638794D01*
X135596000Y-109650000D01*
X135344000Y-109650000D01*
X135276961Y-109630315D01*
X135231206Y-109577511D01*
X135220000Y-109526000D01*
X135220000Y-108450000D01*
X134822155Y-108450000D01*
X134762627Y-108456401D01*
X134762617Y-108456403D01*
X134664046Y-108493168D01*
X134594355Y-108498152D01*
X134577381Y-108493168D01*
X134477482Y-108455908D01*
X134477483Y-108455908D01*
X134451825Y-108453150D01*
X134387274Y-108426412D01*
X134347426Y-108369019D01*
X134344933Y-108299194D01*
X134380586Y-108239105D01*
X134419783Y-108216864D01*
X134419033Y-108215131D01*
X134426195Y-108212031D01*
X134565374Y-108129721D01*
X134565383Y-108129714D01*
X134679714Y-108015383D01*
X134679721Y-108015374D01*
X134762031Y-107876195D01*
X134804504Y-107730000D01*
X134124000Y-107730000D01*
X134056961Y-107710315D01*
X134011206Y-107657511D01*
X134000000Y-107606000D01*
X134000000Y-107424500D01*
X134019685Y-107357461D01*
X134072489Y-107311706D01*
X134124000Y-107300500D01*
X134234682Y-107300500D01*
X134234690Y-107300500D01*
X134270993Y-107297643D01*
X134270995Y-107297642D01*
X134270997Y-107297642D01*
X134426389Y-107252496D01*
X134426389Y-107252495D01*
X134426395Y-107252494D01*
X134435232Y-107247267D01*
X134498352Y-107230000D01*
X134641442Y-107230000D01*
X134682397Y-107236958D01*
X134820745Y-107285368D01*
X134820750Y-107285369D01*
X134999996Y-107305565D01*
X135000000Y-107305565D01*
X135000004Y-107305565D01*
X135179249Y-107285369D01*
X135179252Y-107285368D01*
X135179255Y-107285368D01*
X135349522Y-107225789D01*
X135349524Y-107225787D01*
X135349526Y-107225787D01*
X135460028Y-107156354D01*
X135527264Y-107137353D01*
X135594099Y-107157720D01*
X135639314Y-107210988D01*
X135650000Y-107261347D01*
X135650000Y-107447844D01*
X135656401Y-107507372D01*
X135656403Y-107507379D01*
X135706645Y-107642086D01*
X135706649Y-107642093D01*
X135792809Y-107757187D01*
X135792812Y-107757190D01*
X135907906Y-107843350D01*
X135907913Y-107843354D01*
X136042620Y-107893596D01*
X136042627Y-107893598D01*
X136102155Y-107899999D01*
X136102172Y-107900000D01*
X136425000Y-107900000D01*
X136925000Y-107900000D01*
X137247828Y-107900000D01*
X137247844Y-107899999D01*
X137307372Y-107893598D01*
X137307379Y-107893596D01*
X137442086Y-107843354D01*
X137442093Y-107843350D01*
X137557187Y-107757190D01*
X137557190Y-107757187D01*
X137643350Y-107642093D01*
X137643354Y-107642086D01*
X137693596Y-107507379D01*
X137693598Y-107507372D01*
X137699999Y-107447844D01*
X139800000Y-107447844D01*
X139806401Y-107507372D01*
X139806403Y-107507379D01*
X139856645Y-107642086D01*
X139856649Y-107642093D01*
X139942809Y-107757187D01*
X139942812Y-107757190D01*
X140057906Y-107843350D01*
X140057913Y-107843354D01*
X140192620Y-107893596D01*
X140192627Y-107893598D01*
X140252155Y-107899999D01*
X140252172Y-107900000D01*
X140575000Y-107900000D01*
X141075000Y-107900000D01*
X141397828Y-107900000D01*
X141397844Y-107899999D01*
X141457372Y-107893598D01*
X141457379Y-107893596D01*
X141592086Y-107843354D01*
X141592093Y-107843350D01*
X141707187Y-107757190D01*
X141707190Y-107757187D01*
X141793350Y-107642093D01*
X141793354Y-107642086D01*
X141843596Y-107507379D01*
X141843598Y-107507372D01*
X141849999Y-107447844D01*
X141850000Y-107447827D01*
X141850000Y-107325000D01*
X141075000Y-107325000D01*
X141075000Y-107900000D01*
X140575000Y-107900000D01*
X140575000Y-107325000D01*
X139800000Y-107325000D01*
X139800000Y-107447844D01*
X137699999Y-107447844D01*
X137700000Y-107447827D01*
X137700000Y-107325000D01*
X136925000Y-107325000D01*
X136925000Y-107900000D01*
X136425000Y-107900000D01*
X136425000Y-106825000D01*
X136925000Y-106825000D01*
X137700000Y-106825000D01*
X137700000Y-106702172D01*
X137699999Y-106702155D01*
X139800000Y-106702155D01*
X139800000Y-106825000D01*
X140575000Y-106825000D01*
X141075000Y-106825000D01*
X141850000Y-106825000D01*
X141850000Y-106702172D01*
X141849999Y-106702155D01*
X141843598Y-106642627D01*
X141843596Y-106642620D01*
X141793354Y-106507913D01*
X141793350Y-106507906D01*
X141707190Y-106392812D01*
X141707187Y-106392809D01*
X141592093Y-106306649D01*
X141592086Y-106306645D01*
X141457379Y-106256403D01*
X141457372Y-106256401D01*
X141397844Y-106250000D01*
X141075000Y-106250000D01*
X141075000Y-106825000D01*
X140575000Y-106825000D01*
X140575000Y-106250000D01*
X140252155Y-106250000D01*
X140192627Y-106256401D01*
X140192620Y-106256403D01*
X140057913Y-106306645D01*
X140057906Y-106306649D01*
X139942812Y-106392809D01*
X139942809Y-106392812D01*
X139856649Y-106507906D01*
X139856645Y-106507913D01*
X139806403Y-106642620D01*
X139806401Y-106642627D01*
X139800000Y-106702155D01*
X137699999Y-106702155D01*
X137693598Y-106642627D01*
X137693596Y-106642620D01*
X137643354Y-106507913D01*
X137643350Y-106507906D01*
X137557190Y-106392812D01*
X137557187Y-106392809D01*
X137442093Y-106306649D01*
X137442086Y-106306645D01*
X137307379Y-106256403D01*
X137307372Y-106256401D01*
X137247844Y-106250000D01*
X136925000Y-106250000D01*
X136925000Y-106825000D01*
X136425000Y-106825000D01*
X136425000Y-106250000D01*
X136102155Y-106250000D01*
X136042627Y-106256401D01*
X136042620Y-106256403D01*
X135913727Y-106304477D01*
X135844035Y-106309461D01*
X135782712Y-106275976D01*
X135753352Y-106229249D01*
X135725789Y-106150478D01*
X135694386Y-106100500D01*
X135629816Y-105997738D01*
X135502262Y-105870184D01*
X135437503Y-105829493D01*
X135391213Y-105777159D01*
X135380565Y-105708106D01*
X135408940Y-105644257D01*
X135467330Y-105605885D01*
X135503476Y-105600500D01*
X135741769Y-105600500D01*
X135808808Y-105620185D01*
X135816080Y-105625233D01*
X135879497Y-105672706D01*
X135904114Y-105691135D01*
X135907668Y-105693795D01*
X135907671Y-105693797D01*
X136042517Y-105744091D01*
X136042516Y-105744091D01*
X136049444Y-105744835D01*
X136102127Y-105750500D01*
X137247872Y-105750499D01*
X137307483Y-105744091D01*
X137442331Y-105693796D01*
X137557546Y-105607546D01*
X137558790Y-105605885D01*
X137581768Y-105575190D01*
X137637701Y-105533318D01*
X137681035Y-105525500D01*
X139818965Y-105525500D01*
X139886004Y-105545185D01*
X139918232Y-105575190D01*
X139942449Y-105607541D01*
X139942452Y-105607544D01*
X139942454Y-105607546D01*
X139942457Y-105607548D01*
X140057664Y-105693793D01*
X140057671Y-105693797D01*
X140192517Y-105744091D01*
X140192516Y-105744091D01*
X140199444Y-105744835D01*
X140252127Y-105750500D01*
X141397872Y-105750499D01*
X141457483Y-105744091D01*
X141592331Y-105693796D01*
X141707546Y-105607546D01*
X141793360Y-105492912D01*
X141849294Y-105451042D01*
X141918986Y-105446058D01*
X141980308Y-105479543D01*
X142353181Y-105852416D01*
X142386666Y-105913739D01*
X142389500Y-105940097D01*
X142389500Y-107330404D01*
X142369815Y-107397443D01*
X142353181Y-107418085D01*
X142348869Y-107422396D01*
X142348863Y-107422404D01*
X142267131Y-107560606D01*
X142267129Y-107560611D01*
X142222335Y-107714791D01*
X142222334Y-107714797D01*
X142219500Y-107750811D01*
X142219500Y-108249169D01*
X142219501Y-108249191D01*
X142222335Y-108285205D01*
X142267129Y-108439388D01*
X142267131Y-108439393D01*
X142348863Y-108577595D01*
X142348869Y-108577603D01*
X142462396Y-108691130D01*
X142462400Y-108691133D01*
X142462402Y-108691135D01*
X142600607Y-108772869D01*
X142619008Y-108778215D01*
X142754791Y-108817664D01*
X142754794Y-108817664D01*
X142754796Y-108817665D01*
X142790819Y-108820500D01*
X143189180Y-108820499D01*
X143225204Y-108817665D01*
X143379393Y-108772869D01*
X143436882Y-108738869D01*
X143504602Y-108721688D01*
X143563117Y-108738869D01*
X143620607Y-108772869D01*
X143620610Y-108772869D01*
X143620612Y-108772871D01*
X143774791Y-108817664D01*
X143774794Y-108817664D01*
X143774796Y-108817665D01*
X143810819Y-108820500D01*
X144209180Y-108820499D01*
X144245204Y-108817665D01*
X144399393Y-108772869D01*
X144537598Y-108691135D01*
X144651135Y-108577598D01*
X144732869Y-108439393D01*
X144766862Y-108322387D01*
X144777664Y-108285208D01*
X144777664Y-108285206D01*
X144777665Y-108285204D01*
X144780500Y-108249181D01*
X144780499Y-107750820D01*
X144777665Y-107714796D01*
X144732869Y-107560607D01*
X144651135Y-107422402D01*
X144651133Y-107422400D01*
X144651130Y-107422396D01*
X144636819Y-107408085D01*
X144603334Y-107346762D01*
X144600500Y-107320404D01*
X144600500Y-107208185D01*
X144620185Y-107141146D01*
X144659401Y-107102647D01*
X144705391Y-107074281D01*
X144824281Y-106955391D01*
X144912549Y-106812287D01*
X144965436Y-106652685D01*
X144975500Y-106554174D01*
X144975500Y-106020826D01*
X144965436Y-105922315D01*
X144912549Y-105762713D01*
X144912545Y-105762707D01*
X144912544Y-105762704D01*
X144824283Y-105619612D01*
X144824280Y-105619608D01*
X144792000Y-105587328D01*
X144758515Y-105526005D01*
X144763499Y-105456313D01*
X144792000Y-105411966D01*
X144823885Y-105380080D01*
X144912091Y-105237077D01*
X144912093Y-105237072D01*
X144964942Y-105077583D01*
X144974999Y-104979150D01*
X144975000Y-104979137D01*
X144975000Y-104962500D01*
X144124000Y-104962500D01*
X144056961Y-104942815D01*
X144011206Y-104890011D01*
X144000000Y-104838500D01*
X144000000Y-104712500D01*
X143874000Y-104712500D01*
X143806961Y-104692815D01*
X143761206Y-104640011D01*
X143750000Y-104588500D01*
X143750000Y-104462500D01*
X144250000Y-104462500D01*
X144974999Y-104462500D01*
X144974999Y-104445864D01*
X144974998Y-104445847D01*
X144964943Y-104347416D01*
X144912093Y-104187927D01*
X144912091Y-104187922D01*
X144823885Y-104044919D01*
X144705080Y-103926114D01*
X144562077Y-103837908D01*
X144562072Y-103837906D01*
X144402583Y-103785057D01*
X144304150Y-103775000D01*
X144250000Y-103775000D01*
X144250000Y-104462500D01*
X143750000Y-104462500D01*
X143750000Y-103775000D01*
X143749999Y-103774999D01*
X143695864Y-103775000D01*
X143695847Y-103775001D01*
X143597415Y-103785057D01*
X143437927Y-103837906D01*
X143437922Y-103837908D01*
X143294919Y-103926114D01*
X143176114Y-104044919D01*
X143087908Y-104187922D01*
X143087906Y-104187927D01*
X143035057Y-104347416D01*
X143025000Y-104445849D01*
X143025000Y-104526403D01*
X143005315Y-104593442D01*
X142952511Y-104639197D01*
X142883353Y-104649141D01*
X142819797Y-104620116D01*
X142813319Y-104614084D01*
X141337590Y-103138355D01*
X141337588Y-103138352D01*
X141218717Y-103019481D01*
X141218709Y-103019475D01*
X141116936Y-102960717D01*
X141116934Y-102960716D01*
X141081790Y-102940425D01*
X141081789Y-102940424D01*
X141057915Y-102934027D01*
X140929057Y-102899499D01*
X140770943Y-102899499D01*
X140763347Y-102899499D01*
X140763331Y-102899500D01*
X135582412Y-102899500D01*
X135515373Y-102879815D01*
X135505097Y-102872445D01*
X135502263Y-102870185D01*
X135502262Y-102870184D01*
X135397781Y-102804534D01*
X135349523Y-102774211D01*
X135179254Y-102714631D01*
X135179249Y-102714630D01*
X135000004Y-102694435D01*
X134999996Y-102694435D01*
X134820750Y-102714630D01*
X134820745Y-102714631D01*
X134650476Y-102774211D01*
X134497737Y-102870184D01*
X134370184Y-102997737D01*
X134274211Y-103150476D01*
X134214631Y-103320745D01*
X134214630Y-103320750D01*
X134194435Y-103499996D01*
X134194435Y-103500003D01*
X134214630Y-103679249D01*
X134214631Y-103679254D01*
X134274211Y-103849523D01*
X134364480Y-103993184D01*
X134383480Y-104060420D01*
X134363112Y-104127256D01*
X134309845Y-104172470D01*
X134280784Y-104179848D01*
X134281031Y-104181196D01*
X134274797Y-104182334D01*
X134120611Y-104227129D01*
X134120604Y-104227132D01*
X134063119Y-104261128D01*
X133995395Y-104278309D01*
X133936881Y-104261128D01*
X133879395Y-104227132D01*
X133879388Y-104227129D01*
X133725208Y-104182335D01*
X133725202Y-104182334D01*
X133689188Y-104179500D01*
X133689181Y-104179500D01*
X133570097Y-104179500D01*
X133503058Y-104159815D01*
X133482416Y-104143181D01*
X133222590Y-103883355D01*
X133222588Y-103883352D01*
X133103717Y-103764481D01*
X133103709Y-103764475D01*
X133001075Y-103705220D01*
X133001074Y-103705219D01*
X133001074Y-103705220D01*
X132966785Y-103685423D01*
X132943762Y-103679254D01*
X132814057Y-103644499D01*
X132655943Y-103644499D01*
X132648347Y-103644499D01*
X132648331Y-103644500D01*
X124920943Y-103644500D01*
X124768213Y-103685423D01*
X124733926Y-103705220D01*
X124733925Y-103705220D01*
X124631287Y-103764477D01*
X124631282Y-103764481D01*
X124387583Y-104008181D01*
X124326260Y-104041666D01*
X124299902Y-104044500D01*
X123827638Y-104044500D01*
X123760599Y-104024815D01*
X123714844Y-103972011D01*
X123704900Y-103902853D01*
X123722643Y-103854529D01*
X123722954Y-103854033D01*
X123725789Y-103849522D01*
X123785368Y-103679255D01*
X123789284Y-103644499D01*
X123805565Y-103500003D01*
X123805565Y-103499996D01*
X123785369Y-103320750D01*
X123785368Y-103320745D01*
X123758286Y-103243350D01*
X123725789Y-103150478D01*
X123629816Y-102997738D01*
X123502262Y-102870184D01*
X123466759Y-102847876D01*
X123349523Y-102774211D01*
X123179254Y-102714631D01*
X123179249Y-102714630D01*
X123000004Y-102694435D01*
X122999996Y-102694435D01*
X122820750Y-102714630D01*
X122820745Y-102714631D01*
X122650476Y-102774211D01*
X122497737Y-102870184D01*
X122370184Y-102997737D01*
X122274210Y-103150478D01*
X122214630Y-103320750D01*
X122204837Y-103407668D01*
X122177770Y-103472082D01*
X122169298Y-103481465D01*
X121731286Y-103919478D01*
X121619481Y-104031282D01*
X121619479Y-104031285D01*
X121599499Y-104065892D01*
X121579518Y-104100501D01*
X121540423Y-104168215D01*
X121499499Y-104320943D01*
X121499499Y-104320945D01*
X121499499Y-104489046D01*
X121499500Y-104489059D01*
X121499500Y-104919273D01*
X121479815Y-104986312D01*
X121427011Y-105032067D01*
X121357853Y-105042011D01*
X121294297Y-105012986D01*
X121260939Y-104966726D01*
X121180019Y-104771368D01*
X121048429Y-104556634D01*
X121047733Y-104555819D01*
X121047732Y-104555819D01*
X120314612Y-105288939D01*
X120309111Y-105268409D01*
X120230119Y-105131592D01*
X120118408Y-105019881D01*
X119981591Y-104940889D01*
X119961058Y-104935387D01*
X120571738Y-104324706D01*
X120633061Y-104291221D01*
X120645519Y-104289169D01*
X120679255Y-104285368D01*
X120849522Y-104225789D01*
X121002262Y-104129816D01*
X121129816Y-104002262D01*
X121225789Y-103849522D01*
X121285368Y-103679255D01*
X121289284Y-103644499D01*
X121305565Y-103500003D01*
X121305565Y-103499996D01*
X121285369Y-103320750D01*
X121285368Y-103320745D01*
X121258286Y-103243350D01*
X121225789Y-103150478D01*
X121129816Y-102997738D01*
X121002262Y-102870184D01*
X120966759Y-102847876D01*
X120849523Y-102774211D01*
X120679254Y-102714631D01*
X120679249Y-102714630D01*
X120500004Y-102694435D01*
X120499996Y-102694435D01*
X120320750Y-102714630D01*
X120320745Y-102714631D01*
X120150476Y-102774211D01*
X119997736Y-102870185D01*
X119994903Y-102872445D01*
X119992724Y-102873334D01*
X119991842Y-102873889D01*
X119991744Y-102873734D01*
X119930217Y-102898855D01*
X119917588Y-102899500D01*
X119856770Y-102899500D01*
X119856754Y-102899499D01*
X119849158Y-102899499D01*
X119691044Y-102899499D01*
X119583688Y-102928265D01*
X119538311Y-102940424D01*
X119538310Y-102940425D01*
X119503167Y-102960716D01*
X119503165Y-102960717D01*
X119401391Y-103019475D01*
X119401383Y-103019481D01*
X119289581Y-103131284D01*
X119289579Y-103131286D01*
X117323293Y-105097573D01*
X115357685Y-107063181D01*
X115296362Y-107096666D01*
X115270004Y-107099500D01*
X114142691Y-107099500D01*
X114075652Y-107079815D01*
X114029897Y-107027011D01*
X114019953Y-106957853D01*
X114048978Y-106894297D01*
X114077901Y-106869773D01*
X114193654Y-106798839D01*
X114193656Y-106798838D01*
X114193656Y-106798837D01*
X114193659Y-106798836D01*
X114385224Y-106635224D01*
X114548836Y-106443659D01*
X114680466Y-106228859D01*
X114776873Y-105996111D01*
X114835683Y-105751148D01*
X114855449Y-105500000D01*
X114835683Y-105248852D01*
X114776873Y-105003889D01*
X114766620Y-104979137D01*
X114680466Y-104771140D01*
X114621753Y-104675330D01*
X114603508Y-104607884D01*
X114624624Y-104541282D01*
X114678396Y-104496668D01*
X114695371Y-104490770D01*
X114811785Y-104459577D01*
X114868906Y-104426598D01*
X114948716Y-104380520D01*
X115060520Y-104268716D01*
X115060520Y-104268714D01*
X115070725Y-104258510D01*
X115070727Y-104258506D01*
X115192417Y-104136818D01*
X115253741Y-104103334D01*
X115280098Y-104100500D01*
X116657588Y-104100500D01*
X116724627Y-104120185D01*
X116734903Y-104127555D01*
X116737736Y-104129814D01*
X116737738Y-104129816D01*
X116890478Y-104225789D01*
X117040572Y-104278309D01*
X117060745Y-104285368D01*
X117060750Y-104285369D01*
X117239996Y-104305565D01*
X117240000Y-104305565D01*
X117240004Y-104305565D01*
X117419249Y-104285369D01*
X117419252Y-104285368D01*
X117419255Y-104285368D01*
X117589522Y-104225789D01*
X117742262Y-104129816D01*
X117869816Y-104002262D01*
X117965789Y-103849522D01*
X118025368Y-103679255D01*
X118029284Y-103644499D01*
X118045565Y-103500003D01*
X118045565Y-103499996D01*
X118025369Y-103320750D01*
X118025368Y-103320745D01*
X117965788Y-103150475D01*
X117912691Y-103065973D01*
X117893690Y-102998736D01*
X117912691Y-102934027D01*
X117965788Y-102849524D01*
X117965789Y-102849522D01*
X118025368Y-102679255D01*
X118025369Y-102679249D01*
X118045565Y-102500003D01*
X118045565Y-102499996D01*
X118034033Y-102397648D01*
X146699500Y-102397648D01*
X146699500Y-102602351D01*
X146731522Y-102804534D01*
X146794781Y-102999223D01*
X146858691Y-103124653D01*
X146875452Y-103157547D01*
X146887715Y-103181613D01*
X147008028Y-103347213D01*
X147152786Y-103491971D01*
X147307749Y-103604556D01*
X147318390Y-103612287D01*
X147434607Y-103671503D01*
X147500776Y-103705218D01*
X147500778Y-103705218D01*
X147500781Y-103705220D01*
X147605137Y-103739127D01*
X147695465Y-103768477D01*
X147736656Y-103775001D01*
X147897648Y-103800500D01*
X147897649Y-103800500D01*
X148102351Y-103800500D01*
X148102352Y-103800500D01*
X148304534Y-103768477D01*
X148499219Y-103705220D01*
X148681610Y-103612287D01*
X148774590Y-103544732D01*
X148847213Y-103491971D01*
X148847215Y-103491968D01*
X148847219Y-103491966D01*
X148991966Y-103347219D01*
X148991968Y-103347215D01*
X148991971Y-103347213D01*
X149067106Y-103243797D01*
X149112287Y-103181610D01*
X149205220Y-102999219D01*
X149268477Y-102804534D01*
X149300500Y-102602352D01*
X149300500Y-102397648D01*
X149288320Y-102320745D01*
X149268477Y-102195465D01*
X149211296Y-102019481D01*
X149205220Y-102000781D01*
X149205218Y-102000778D01*
X149205218Y-102000776D01*
X149171503Y-101934607D01*
X149112287Y-101818390D01*
X149096829Y-101797114D01*
X148991971Y-101652786D01*
X148847213Y-101508028D01*
X148681613Y-101387715D01*
X148681612Y-101387714D01*
X148681610Y-101387713D01*
X148624653Y-101358691D01*
X148499223Y-101294781D01*
X148304534Y-101231522D01*
X148129995Y-101203878D01*
X148102352Y-101199500D01*
X147897648Y-101199500D01*
X147876276Y-101202885D01*
X147695465Y-101231522D01*
X147500776Y-101294781D01*
X147318386Y-101387715D01*
X147152786Y-101508028D01*
X147008028Y-101652786D01*
X146887715Y-101818386D01*
X146794781Y-102000776D01*
X146731522Y-102195465D01*
X146699500Y-102397648D01*
X118034033Y-102397648D01*
X118025369Y-102320750D01*
X118025368Y-102320745D01*
X117981531Y-102195466D01*
X117965789Y-102150478D01*
X117869816Y-101997738D01*
X117742262Y-101870184D01*
X117709377Y-101849521D01*
X117589523Y-101774211D01*
X117419254Y-101714631D01*
X117419249Y-101714630D01*
X117240004Y-101694435D01*
X117239996Y-101694435D01*
X117060750Y-101714630D01*
X117060745Y-101714631D01*
X116890476Y-101774211D01*
X116737736Y-101870185D01*
X116734903Y-101872445D01*
X116732724Y-101873334D01*
X116731842Y-101873889D01*
X116731744Y-101873734D01*
X116670217Y-101898855D01*
X116657588Y-101899500D01*
X115086670Y-101899500D01*
X115086654Y-101899499D01*
X115079058Y-101899499D01*
X114920943Y-101899499D01*
X114844579Y-101919961D01*
X114768214Y-101940423D01*
X114768209Y-101940426D01*
X114631290Y-102019475D01*
X114631282Y-102019481D01*
X113787584Y-102863181D01*
X113726261Y-102896666D01*
X113699903Y-102899500D01*
X112020984Y-102899500D01*
X112020968Y-102899499D01*
X112013372Y-102899499D01*
X111855257Y-102899499D01*
X111778893Y-102919961D01*
X111702528Y-102940423D01*
X111702523Y-102940426D01*
X111565604Y-103019475D01*
X111565596Y-103019481D01*
X110121898Y-104463181D01*
X110060575Y-104496666D01*
X110034217Y-104499500D01*
X106486669Y-104499500D01*
X106486653Y-104499499D01*
X106479057Y-104499499D01*
X106320943Y-104499499D01*
X106168215Y-104540423D01*
X106168214Y-104540423D01*
X106168212Y-104540424D01*
X106140646Y-104556340D01*
X106140645Y-104556341D01*
X106140138Y-104556634D01*
X106031285Y-104619479D01*
X106031282Y-104619481D01*
X103160511Y-107490253D01*
X103099188Y-107523738D01*
X103029496Y-107518754D01*
X102985149Y-107490253D01*
X102916181Y-107421285D01*
X102882696Y-107359962D01*
X102887680Y-107290270D01*
X102929552Y-107234337D01*
X102960529Y-107217422D01*
X103092086Y-107168354D01*
X103092093Y-107168350D01*
X103207187Y-107082190D01*
X103207190Y-107082187D01*
X103293350Y-106967093D01*
X103293354Y-106967086D01*
X103343596Y-106832379D01*
X103343598Y-106832372D01*
X103349999Y-106772844D01*
X103350000Y-106772827D01*
X103350000Y-106125000D01*
X102433012Y-106125000D01*
X102465925Y-106067993D01*
X102500000Y-105940826D01*
X102500000Y-105809174D01*
X102465925Y-105682007D01*
X102433012Y-105625000D01*
X103350000Y-105625000D01*
X103350000Y-104977172D01*
X103349999Y-104977155D01*
X103343598Y-104917627D01*
X103343596Y-104917620D01*
X103293354Y-104782913D01*
X103293350Y-104782906D01*
X103207190Y-104667812D01*
X103207187Y-104667809D01*
X103092093Y-104581649D01*
X103092086Y-104581645D01*
X102957379Y-104531403D01*
X102957372Y-104531401D01*
X102897844Y-104525000D01*
X102250000Y-104525000D01*
X102250000Y-105441988D01*
X102192993Y-105409075D01*
X102065826Y-105375000D01*
X101934174Y-105375000D01*
X101807007Y-105409075D01*
X101750000Y-105441988D01*
X101750000Y-104525000D01*
X101102155Y-104525000D01*
X101042627Y-104531401D01*
X101042620Y-104531403D01*
X100907913Y-104581645D01*
X100907906Y-104581649D01*
X100792812Y-104667809D01*
X100723766Y-104760042D01*
X100667832Y-104801912D01*
X100598140Y-104806896D01*
X100536817Y-104773410D01*
X100503333Y-104712086D01*
X100500500Y-104685730D01*
X100500500Y-101797114D01*
X100520185Y-101730075D01*
X100572989Y-101684320D01*
X100642147Y-101674376D01*
X100705703Y-101703401D01*
X100741542Y-101756160D01*
X100774210Y-101849521D01*
X100805614Y-101899500D01*
X100870184Y-102002262D01*
X100997738Y-102129816D01*
X101150478Y-102225789D01*
X101253984Y-102262007D01*
X101300710Y-102291367D01*
X101553453Y-102544111D01*
X101553454Y-102544112D01*
X101668192Y-102620777D01*
X101795667Y-102673578D01*
X101795672Y-102673580D01*
X101900516Y-102694435D01*
X101924692Y-102699244D01*
X101986603Y-102731629D01*
X102021177Y-102792344D01*
X102024501Y-102820861D01*
X102024501Y-102847876D01*
X102030908Y-102907483D01*
X102081202Y-103042328D01*
X102081206Y-103042335D01*
X102167452Y-103157544D01*
X102167455Y-103157547D01*
X102282664Y-103243793D01*
X102282671Y-103243797D01*
X102417517Y-103294091D01*
X102417516Y-103294091D01*
X102424444Y-103294835D01*
X102477127Y-103300500D01*
X103622872Y-103300499D01*
X103682483Y-103294091D01*
X103817331Y-103243796D01*
X103932546Y-103157546D01*
X104018796Y-103042331D01*
X104069091Y-102907483D01*
X104075500Y-102847873D01*
X104075500Y-102847844D01*
X104975000Y-102847844D01*
X104981401Y-102907372D01*
X104981403Y-102907379D01*
X105031645Y-103042086D01*
X105031649Y-103042093D01*
X105117809Y-103157187D01*
X105117812Y-103157190D01*
X105232906Y-103243350D01*
X105232913Y-103243354D01*
X105367620Y-103293596D01*
X105367627Y-103293598D01*
X105427155Y-103299999D01*
X105427172Y-103300000D01*
X105750000Y-103300000D01*
X106250000Y-103300000D01*
X106572828Y-103300000D01*
X106572844Y-103299999D01*
X106632372Y-103293598D01*
X106632379Y-103293596D01*
X106767086Y-103243354D01*
X106767093Y-103243350D01*
X106882187Y-103157190D01*
X106882190Y-103157187D01*
X106968350Y-103042093D01*
X106968354Y-103042086D01*
X107018596Y-102907379D01*
X107018598Y-102907372D01*
X107024999Y-102847844D01*
X107025000Y-102847827D01*
X107025000Y-102397648D01*
X108449500Y-102397648D01*
X108449500Y-102602351D01*
X108481522Y-102804534D01*
X108544781Y-102999223D01*
X108608691Y-103124653D01*
X108625452Y-103157547D01*
X108637715Y-103181613D01*
X108758028Y-103347213D01*
X108902786Y-103491971D01*
X109057749Y-103604556D01*
X109068390Y-103612287D01*
X109184607Y-103671503D01*
X109250776Y-103705218D01*
X109250778Y-103705218D01*
X109250781Y-103705220D01*
X109355137Y-103739127D01*
X109445465Y-103768477D01*
X109486656Y-103775001D01*
X109647648Y-103800500D01*
X109647649Y-103800500D01*
X109852351Y-103800500D01*
X109852352Y-103800500D01*
X110054534Y-103768477D01*
X110249219Y-103705220D01*
X110431610Y-103612287D01*
X110524590Y-103544732D01*
X110597213Y-103491971D01*
X110597215Y-103491968D01*
X110597219Y-103491966D01*
X110741966Y-103347219D01*
X110741968Y-103347215D01*
X110741971Y-103347213D01*
X110817106Y-103243797D01*
X110862287Y-103181610D01*
X110955220Y-102999219D01*
X111018477Y-102804534D01*
X111050500Y-102602352D01*
X111050500Y-102397648D01*
X111038320Y-102320745D01*
X111018477Y-102195465D01*
X110961296Y-102019481D01*
X110955220Y-102000781D01*
X110955218Y-102000778D01*
X110955218Y-102000776D01*
X110921503Y-101934607D01*
X110862287Y-101818390D01*
X110846829Y-101797114D01*
X110741971Y-101652786D01*
X110597213Y-101508028D01*
X110431613Y-101387715D01*
X110431612Y-101387714D01*
X110431610Y-101387713D01*
X110374653Y-101358691D01*
X110249223Y-101294781D01*
X110054534Y-101231522D01*
X109879995Y-101203878D01*
X109852352Y-101199500D01*
X109647648Y-101199500D01*
X109626276Y-101202885D01*
X109445465Y-101231522D01*
X109250776Y-101294781D01*
X109068386Y-101387715D01*
X108902786Y-101508028D01*
X108758028Y-101652786D01*
X108637715Y-101818386D01*
X108544781Y-102000776D01*
X108481522Y-102195465D01*
X108449500Y-102397648D01*
X107025000Y-102397648D01*
X107025000Y-102250000D01*
X106250000Y-102250000D01*
X106250000Y-103300000D01*
X105750000Y-103300000D01*
X105750000Y-102250000D01*
X104975000Y-102250000D01*
X104975000Y-102847844D01*
X104075500Y-102847844D01*
X104075499Y-101152128D01*
X104069091Y-101092517D01*
X104033740Y-100997737D01*
X104018797Y-100957671D01*
X104018793Y-100957664D01*
X103932547Y-100842455D01*
X103932544Y-100842452D01*
X103817335Y-100756206D01*
X103817328Y-100756202D01*
X103775715Y-100740682D01*
X103719781Y-100698811D01*
X103695364Y-100633347D01*
X103710215Y-100565074D01*
X103759620Y-100515668D01*
X103819048Y-100500500D01*
X105232381Y-100500500D01*
X105299420Y-100520185D01*
G37*
%TD.AperFunction*%
%TA.AperFunction,Conductor*%
G36*
X123624987Y-122826761D02*
G01*
X123680920Y-122868633D01*
X123705337Y-122934097D01*
X123704942Y-122956199D01*
X123700000Y-123002155D01*
X123700000Y-123400000D01*
X124776000Y-123400000D01*
X124843039Y-123419685D01*
X124888794Y-123472489D01*
X124900000Y-123524000D01*
X124900000Y-123776000D01*
X124880315Y-123843039D01*
X124827511Y-123888794D01*
X124776000Y-123900000D01*
X123694000Y-123900000D01*
X123626961Y-123880315D01*
X123581206Y-123827511D01*
X123570000Y-123776000D01*
X123570000Y-123757114D01*
X123520910Y-123742854D01*
X123520914Y-123742854D01*
X123500000Y-123741209D01*
X123500000Y-124396000D01*
X123480315Y-124463039D01*
X123427511Y-124508794D01*
X123376000Y-124520000D01*
X123364500Y-124520000D01*
X123297461Y-124500315D01*
X123251706Y-124447511D01*
X123240500Y-124396000D01*
X123240500Y-123160096D01*
X123260185Y-123093057D01*
X123276815Y-123072419D01*
X123493973Y-122855261D01*
X123555295Y-122821777D01*
X123624987Y-122826761D01*
G37*
%TD.AperFunction*%
%TA.AperFunction,Conductor*%
G36*
X143489884Y-121304425D02*
G01*
X143554298Y-121331492D01*
X143593853Y-121389087D01*
X143600000Y-121427645D01*
X143600000Y-121500000D01*
X144276000Y-121500000D01*
X144343039Y-121519685D01*
X144388794Y-121572489D01*
X144400000Y-121624000D01*
X144400000Y-121750000D01*
X144526000Y-121750000D01*
X144593039Y-121769685D01*
X144638794Y-121822489D01*
X144650000Y-121874000D01*
X144650000Y-122909795D01*
X144650001Y-122909795D01*
X144652488Y-122909600D01*
X144652494Y-122909599D01*
X144766697Y-122876420D01*
X144836566Y-122876619D01*
X144895236Y-122914561D01*
X144924080Y-122978199D01*
X144920368Y-123030091D01*
X144892357Y-123126502D01*
X144892356Y-123126508D01*
X144890993Y-123143835D01*
X144866108Y-123209123D01*
X144855056Y-123221786D01*
X144851360Y-123225482D01*
X144790037Y-123258967D01*
X144722724Y-123254842D01*
X144679254Y-123239631D01*
X144500004Y-123219435D01*
X144499996Y-123219435D01*
X144320746Y-123239631D01*
X144320744Y-123239631D01*
X144311974Y-123242700D01*
X144242195Y-123246258D01*
X144181569Y-123211525D01*
X144164294Y-123188777D01*
X144145898Y-123157671D01*
X144118081Y-123110635D01*
X144118075Y-123110629D01*
X144113298Y-123104469D01*
X144114982Y-123103162D01*
X144086757Y-123051472D01*
X144091741Y-122981780D01*
X144123752Y-122934057D01*
X144150000Y-122909793D01*
X144150000Y-122000000D01*
X143600000Y-122000000D01*
X143600000Y-122328149D01*
X143602899Y-122364989D01*
X143602900Y-122364995D01*
X143648716Y-122522693D01*
X143648717Y-122522696D01*
X143736288Y-122670771D01*
X143734566Y-122671788D01*
X143756257Y-122727045D01*
X143742572Y-122795562D01*
X143694017Y-122845803D01*
X143632742Y-122862000D01*
X143267895Y-122862000D01*
X143200856Y-122842315D01*
X143155101Y-122789511D01*
X143145157Y-122720353D01*
X143165671Y-122672003D01*
X143164110Y-122671080D01*
X143185444Y-122635006D01*
X143251744Y-122522898D01*
X143287421Y-122400099D01*
X143297597Y-122365073D01*
X143297598Y-122365067D01*
X143297977Y-122360248D01*
X143300500Y-122328194D01*
X143300500Y-121421842D01*
X143320185Y-121354803D01*
X143372989Y-121309048D01*
X143438381Y-121298622D01*
X143489884Y-121304425D01*
G37*
%TD.AperFunction*%
%TA.AperFunction,Conductor*%
G36*
X114656463Y-115220185D02*
G01*
X114702218Y-115272989D01*
X114712644Y-115338383D01*
X114694435Y-115499996D01*
X114694435Y-115500003D01*
X114714630Y-115679249D01*
X114714631Y-115679254D01*
X114774211Y-115849523D01*
X114866556Y-115996488D01*
X114870184Y-116002262D01*
X114997738Y-116129816D01*
X115150478Y-116225789D01*
X115277992Y-116270408D01*
X115320745Y-116285368D01*
X115320750Y-116285369D01*
X115499996Y-116305565D01*
X115500000Y-116305565D01*
X115500004Y-116305565D01*
X115679249Y-116285369D01*
X115679252Y-116285368D01*
X115679255Y-116285368D01*
X115849522Y-116225789D01*
X116002262Y-116129816D01*
X116129816Y-116002262D01*
X116225789Y-115849522D01*
X116283867Y-115683545D01*
X116324589Y-115626769D01*
X116389542Y-115601022D01*
X116400909Y-115600500D01*
X117450902Y-115600500D01*
X117517941Y-115620185D01*
X117563696Y-115672989D01*
X117573640Y-115742147D01*
X117544615Y-115805703D01*
X117538583Y-115812181D01*
X115313010Y-118037753D01*
X115313006Y-118037758D01*
X115270527Y-118111336D01*
X115270527Y-118111337D01*
X115233952Y-118174685D01*
X115227169Y-118200000D01*
X115193028Y-118327414D01*
X115193028Y-118327416D01*
X115193028Y-118495517D01*
X115193029Y-118495530D01*
X115193029Y-122080500D01*
X115173344Y-122147539D01*
X115120540Y-122193294D01*
X115069029Y-122204500D01*
X111281670Y-122204500D01*
X111281654Y-122204499D01*
X111274058Y-122204499D01*
X111115943Y-122204499D01*
X111039579Y-122224961D01*
X110963214Y-122245423D01*
X110963209Y-122245426D01*
X110826290Y-122324475D01*
X110826282Y-122324481D01*
X110711681Y-122439083D01*
X110650358Y-122472568D01*
X110580666Y-122467584D01*
X110524733Y-122425712D01*
X110500316Y-122360248D01*
X110500000Y-122351402D01*
X110500000Y-122250000D01*
X109433012Y-122250000D01*
X109465925Y-122192993D01*
X109500000Y-122065826D01*
X109500000Y-121934174D01*
X109465925Y-121807007D01*
X109433012Y-121750000D01*
X110500000Y-121750000D01*
X110500000Y-120952172D01*
X110499999Y-120952155D01*
X110493598Y-120892627D01*
X110493596Y-120892620D01*
X110443354Y-120757913D01*
X110443350Y-120757906D01*
X110357190Y-120642812D01*
X110357187Y-120642809D01*
X110242093Y-120556649D01*
X110242086Y-120556645D01*
X110107379Y-120506403D01*
X110107372Y-120506401D01*
X110047844Y-120500000D01*
X109250000Y-120500000D01*
X109250000Y-121566988D01*
X109192993Y-121534075D01*
X109065826Y-121500000D01*
X108934174Y-121500000D01*
X108807007Y-121534075D01*
X108750000Y-121566988D01*
X108750000Y-120610596D01*
X108769685Y-120543557D01*
X108786319Y-120522915D01*
X109129979Y-120179255D01*
X109513216Y-119796017D01*
X109574537Y-119762534D01*
X109635488Y-119764623D01*
X109714796Y-119787665D01*
X109750819Y-119790500D01*
X110249180Y-119790499D01*
X110285204Y-119787665D01*
X110439393Y-119742869D01*
X110577598Y-119661135D01*
X110691135Y-119547598D01*
X110772869Y-119409393D01*
X110817665Y-119255204D01*
X110820500Y-119219181D01*
X110820499Y-118820820D01*
X110817665Y-118784796D01*
X110772869Y-118630607D01*
X110738869Y-118573117D01*
X110721688Y-118505398D01*
X110738869Y-118446882D01*
X110772869Y-118389393D01*
X110774081Y-118385223D01*
X110817664Y-118235208D01*
X110817665Y-118235202D01*
X110818901Y-118219500D01*
X110820500Y-118199181D01*
X110820500Y-118124501D01*
X110840185Y-118057462D01*
X110892989Y-118011707D01*
X110944500Y-118000501D01*
X110979054Y-118000501D01*
X110979057Y-118000501D01*
X111131785Y-117959577D01*
X111190026Y-117925951D01*
X111268716Y-117880520D01*
X111380520Y-117768716D01*
X111380520Y-117768714D01*
X111390724Y-117758511D01*
X111390728Y-117758506D01*
X111504610Y-117644623D01*
X111565931Y-117611140D01*
X111635623Y-117616124D01*
X111691556Y-117657996D01*
X111712863Y-117703359D01*
X111723126Y-117746110D01*
X111819533Y-117978859D01*
X111951160Y-118193653D01*
X111951161Y-118193656D01*
X111986645Y-118235202D01*
X112114776Y-118385224D01*
X112243928Y-118495530D01*
X112285118Y-118530710D01*
X112323311Y-118589217D01*
X112323809Y-118659085D01*
X112286456Y-118718131D01*
X112285118Y-118719290D01*
X112114776Y-118864776D01*
X111951161Y-119056343D01*
X111951160Y-119056346D01*
X111819533Y-119271140D01*
X111723126Y-119503889D01*
X111664317Y-119748848D01*
X111644551Y-120000000D01*
X111664317Y-120251151D01*
X111723126Y-120496110D01*
X111819533Y-120728859D01*
X111951160Y-120943653D01*
X111951161Y-120943656D01*
X111984841Y-120983090D01*
X112114776Y-121135224D01*
X112263066Y-121261875D01*
X112306343Y-121298838D01*
X112306346Y-121298839D01*
X112521140Y-121430466D01*
X112752737Y-121526396D01*
X112753889Y-121526873D01*
X112998852Y-121585683D01*
X113250000Y-121605449D01*
X113501148Y-121585683D01*
X113746111Y-121526873D01*
X113978859Y-121430466D01*
X114193659Y-121298836D01*
X114385224Y-121135224D01*
X114548836Y-120943659D01*
X114680466Y-120728859D01*
X114776873Y-120496111D01*
X114835683Y-120251148D01*
X114855449Y-120000000D01*
X114835683Y-119748852D01*
X114776873Y-119503889D01*
X114750778Y-119440889D01*
X114680466Y-119271140D01*
X114548839Y-119056346D01*
X114548838Y-119056343D01*
X114486524Y-118983383D01*
X114385224Y-118864776D01*
X114214879Y-118719288D01*
X114176688Y-118660784D01*
X114176189Y-118590916D01*
X114213543Y-118531869D01*
X114214823Y-118530759D01*
X114385224Y-118385224D01*
X114548836Y-118193659D01*
X114680466Y-117978859D01*
X114776873Y-117746111D01*
X114835683Y-117501148D01*
X114855449Y-117250000D01*
X114835683Y-116998852D01*
X114776873Y-116753889D01*
X114760612Y-116714631D01*
X114680466Y-116521140D01*
X114548839Y-116306345D01*
X114548838Y-116306343D01*
X114447413Y-116187590D01*
X114385224Y-116114776D01*
X114246727Y-115996488D01*
X114193656Y-115951161D01*
X114193653Y-115951160D01*
X113978859Y-115819533D01*
X113746112Y-115723127D01*
X113703359Y-115712863D01*
X113642768Y-115678072D01*
X113610604Y-115616046D01*
X113617080Y-115546477D01*
X113644626Y-115504608D01*
X113722497Y-115426738D01*
X113912416Y-115236819D01*
X113973739Y-115203334D01*
X114000097Y-115200500D01*
X114589424Y-115200500D01*
X114656463Y-115220185D01*
G37*
%TD.AperFunction*%
%TA.AperFunction,Conductor*%
G36*
X123185677Y-119519685D02*
G01*
X123206319Y-119536319D01*
X123213681Y-119543681D01*
X123247166Y-119605004D01*
X123250000Y-119631362D01*
X123250000Y-120250000D01*
X123778790Y-120250000D01*
X123777145Y-120229089D01*
X123732031Y-120073803D01*
X123728934Y-120066646D01*
X123730945Y-120065775D01*
X123716510Y-120008904D01*
X123738662Y-119942639D01*
X123793123Y-119898870D01*
X123862602Y-119891492D01*
X123914734Y-119914225D01*
X123957948Y-119946575D01*
X124007669Y-119983796D01*
X124007671Y-119983797D01*
X124051112Y-119999999D01*
X124142517Y-120034091D01*
X124202127Y-120040500D01*
X124310903Y-120040499D01*
X124377941Y-120060183D01*
X124423696Y-120112987D01*
X124433640Y-120182145D01*
X124404616Y-120245701D01*
X124398583Y-120252180D01*
X123928574Y-120722188D01*
X123867251Y-120755673D01*
X123797559Y-120750689D01*
X123796532Y-120750000D01*
X123250000Y-120750000D01*
X123250000Y-121349402D01*
X123230315Y-121416441D01*
X123213681Y-121437083D01*
X123187083Y-121463681D01*
X123125760Y-121497166D01*
X123099402Y-121500000D01*
X122924500Y-121500000D01*
X122857461Y-121480315D01*
X122811706Y-121427511D01*
X122800500Y-121376000D01*
X122800500Y-121265317D01*
X122800499Y-121265302D01*
X122797643Y-121229008D01*
X122797642Y-121229002D01*
X122752495Y-121073608D01*
X122749395Y-121066443D01*
X122752500Y-121065099D01*
X122739113Y-121012275D01*
X122756293Y-120953789D01*
X122772494Y-120926395D01*
X122774222Y-120920449D01*
X122817642Y-120770997D01*
X122817643Y-120770991D01*
X122818673Y-120757906D01*
X122820500Y-120734690D01*
X122820500Y-120265310D01*
X122817643Y-120229007D01*
X122805692Y-120187873D01*
X122773337Y-120076506D01*
X122772494Y-120073605D01*
X122756293Y-120046211D01*
X122739110Y-119978490D01*
X122752035Y-119934696D01*
X122749396Y-119933554D01*
X122752489Y-119926402D01*
X122752494Y-119926395D01*
X122797643Y-119770993D01*
X122800500Y-119734690D01*
X122800500Y-119624000D01*
X122820185Y-119556961D01*
X122872989Y-119511206D01*
X122924500Y-119500000D01*
X123118638Y-119500000D01*
X123185677Y-119519685D01*
G37*
%TD.AperFunction*%
%TA.AperFunction,Conductor*%
G36*
X107469413Y-117620185D02*
G01*
X107515168Y-117672989D01*
X107525112Y-117742147D01*
X107496087Y-117805703D01*
X107490055Y-117812181D01*
X104824055Y-120478181D01*
X104762732Y-120511666D01*
X104736374Y-120514500D01*
X103289091Y-120514500D01*
X103222052Y-120494815D01*
X103176711Y-120442909D01*
X103174037Y-120437175D01*
X103174034Y-120437170D01*
X103174033Y-120437169D01*
X103112663Y-120349522D01*
X103038494Y-120243597D01*
X102871402Y-120076506D01*
X102871396Y-120076501D01*
X102685842Y-119946575D01*
X102642217Y-119891998D01*
X102635023Y-119822500D01*
X102666546Y-119760145D01*
X102685842Y-119743425D01*
X102708026Y-119727891D01*
X102871401Y-119613495D01*
X103038495Y-119446401D01*
X103174035Y-119252830D01*
X103176707Y-119247097D01*
X103222878Y-119194658D01*
X103289091Y-119175500D01*
X105338331Y-119175500D01*
X105338347Y-119175501D01*
X105345943Y-119175501D01*
X105504054Y-119175501D01*
X105504057Y-119175501D01*
X105656785Y-119134577D01*
X105718307Y-119099057D01*
X105793716Y-119055520D01*
X105905520Y-118943716D01*
X105905521Y-118943714D01*
X106480520Y-118368716D01*
X106480520Y-118368714D01*
X106490724Y-118358511D01*
X106490727Y-118358506D01*
X107212417Y-117636819D01*
X107273740Y-117603334D01*
X107300098Y-117600500D01*
X107402374Y-117600500D01*
X107469413Y-117620185D01*
G37*
%TD.AperFunction*%
%TA.AperFunction,Conductor*%
G36*
X142146790Y-117946567D02*
G01*
X142152427Y-117947597D01*
X142152431Y-117947598D01*
X142189306Y-117950500D01*
X142189314Y-117950500D01*
X142881000Y-117950500D01*
X142948039Y-117970185D01*
X142993794Y-118022989D01*
X143005000Y-118074500D01*
X143005000Y-118756000D01*
X143000889Y-118770000D01*
X142805504Y-118770000D01*
X142729204Y-118790444D01*
X142660795Y-118829940D01*
X142614880Y-118875854D01*
X142561961Y-118860315D01*
X142516206Y-118807511D01*
X142505000Y-118756000D01*
X142505000Y-118200000D01*
X142124500Y-118200000D01*
X142057461Y-118180315D01*
X142011706Y-118127511D01*
X142000500Y-118076000D01*
X142000500Y-118068547D01*
X142020185Y-118001508D01*
X142072989Y-117955753D01*
X142142147Y-117945809D01*
X142146790Y-117946567D01*
G37*
%TD.AperFunction*%
%TA.AperFunction,Conductor*%
G36*
X139327667Y-115718006D02*
G01*
X139351855Y-115745921D01*
X139352139Y-115745702D01*
X139356179Y-115750911D01*
X139356732Y-115751548D01*
X139356919Y-115751865D01*
X139356921Y-115751867D01*
X139356923Y-115751870D01*
X139473129Y-115868076D01*
X139473133Y-115868079D01*
X139473135Y-115868081D01*
X139614602Y-115951744D01*
X139639177Y-115958883D01*
X139698062Y-115996488D01*
X139727270Y-116059960D01*
X139723660Y-116112555D01*
X139682334Y-116254799D01*
X139679500Y-116290811D01*
X139679500Y-116689169D01*
X139679501Y-116689191D01*
X139682335Y-116725205D01*
X139727129Y-116879388D01*
X139727130Y-116879391D01*
X139727131Y-116879393D01*
X139743104Y-116906402D01*
X139761419Y-116937371D01*
X139778601Y-117005095D01*
X139761419Y-117063611D01*
X139727594Y-117120806D01*
X139687156Y-117260000D01*
X140239591Y-117260000D01*
X140249318Y-117260382D01*
X140249516Y-117260397D01*
X140250819Y-117260500D01*
X140376001Y-117260499D01*
X140443039Y-117280183D01*
X140488794Y-117332987D01*
X140500000Y-117384499D01*
X140500000Y-117636000D01*
X140480315Y-117703039D01*
X140427511Y-117748794D01*
X140376000Y-117760000D01*
X139687154Y-117760000D01*
X139687420Y-117760914D01*
X139687219Y-117830783D01*
X139649276Y-117889453D01*
X139585638Y-117918295D01*
X139520833Y-117908787D01*
X139520641Y-117909303D01*
X139518238Y-117908406D01*
X139516508Y-117908153D01*
X139513480Y-117906632D01*
X139377482Y-117855908D01*
X139377483Y-117855908D01*
X139317883Y-117849501D01*
X139317881Y-117849500D01*
X139317873Y-117849500D01*
X139317865Y-117849500D01*
X138494499Y-117849500D01*
X138427460Y-117829815D01*
X138381705Y-117777011D01*
X138370499Y-117725500D01*
X138370499Y-116912129D01*
X138370498Y-116912123D01*
X138369882Y-116906395D01*
X138364091Y-116852517D01*
X138336269Y-116777923D01*
X138313797Y-116717671D01*
X138313793Y-116717664D01*
X138227548Y-116602457D01*
X138227546Y-116602454D01*
X138227544Y-116602452D01*
X138227542Y-116602450D01*
X138209743Y-116589126D01*
X138167873Y-116533192D01*
X138162889Y-116463500D01*
X138179062Y-116423887D01*
X138202070Y-116387270D01*
X138225789Y-116349522D01*
X138285368Y-116179255D01*
X138288192Y-116154196D01*
X138293102Y-116110617D01*
X138320168Y-116046203D01*
X138377763Y-116006648D01*
X138416322Y-116000500D01*
X138690686Y-116000500D01*
X138690694Y-116000500D01*
X138727569Y-115997598D01*
X138727571Y-115997597D01*
X138727573Y-115997597D01*
X138769191Y-115985505D01*
X138885398Y-115951744D01*
X139026865Y-115868081D01*
X139143081Y-115751865D01*
X139143267Y-115751549D01*
X139143477Y-115751353D01*
X139147861Y-115745702D01*
X139148772Y-115746409D01*
X139194336Y-115703866D01*
X139263077Y-115691362D01*
X139327667Y-115718006D01*
G37*
%TD.AperFunction*%
%TA.AperFunction,Conductor*%
G36*
X124931231Y-113460185D02*
G01*
X124976986Y-113512989D01*
X124986930Y-113582147D01*
X124963460Y-113638810D01*
X124956646Y-113647911D01*
X124956645Y-113647913D01*
X124906403Y-113782620D01*
X124906401Y-113782627D01*
X124900000Y-113842155D01*
X124900000Y-115190000D01*
X126826000Y-115190000D01*
X126893039Y-115209685D01*
X126938794Y-115262489D01*
X126950000Y-115314000D01*
X126950000Y-115566000D01*
X126930315Y-115633039D01*
X126877511Y-115678794D01*
X126826000Y-115690000D01*
X124900000Y-115690000D01*
X124900000Y-116041402D01*
X124880315Y-116108441D01*
X124827511Y-116154196D01*
X124758353Y-116164140D01*
X124694797Y-116135115D01*
X124688319Y-116129083D01*
X124518717Y-115959481D01*
X124518712Y-115959477D01*
X124508259Y-115953442D01*
X124460044Y-115902874D01*
X124446973Y-115859323D01*
X124446321Y-115853264D01*
X124446320Y-115826747D01*
X124450500Y-115787873D01*
X124450499Y-115492128D01*
X124450498Y-115492111D01*
X124446320Y-115453253D01*
X124446320Y-115426747D01*
X124450500Y-115387873D01*
X124450499Y-115092128D01*
X124450498Y-115092111D01*
X124446320Y-115053253D01*
X124446320Y-115026747D01*
X124450500Y-114987873D01*
X124450499Y-114692128D01*
X124450498Y-114692111D01*
X124446320Y-114653253D01*
X124446320Y-114626747D01*
X124450500Y-114587873D01*
X124450499Y-114292128D01*
X124450498Y-114292111D01*
X124446320Y-114253253D01*
X124446320Y-114226747D01*
X124450500Y-114187873D01*
X124450499Y-113892128D01*
X124450498Y-113892111D01*
X124446320Y-113853253D01*
X124446320Y-113826747D01*
X124450500Y-113787873D01*
X124450499Y-113564500D01*
X124470183Y-113497461D01*
X124522987Y-113451706D01*
X124574499Y-113440500D01*
X124864192Y-113440500D01*
X124931231Y-113460185D01*
G37*
%TD.AperFunction*%
%TA.AperFunction,Conductor*%
G36*
X111569345Y-109958087D02*
G01*
X111625279Y-109999958D01*
X111649630Y-110064539D01*
X111664317Y-110251148D01*
X111673189Y-110288101D01*
X111723126Y-110496110D01*
X111819533Y-110728859D01*
X111951160Y-110943653D01*
X111951161Y-110943656D01*
X111982646Y-110980520D01*
X112114776Y-111135224D01*
X112207937Y-111214791D01*
X112285118Y-111280710D01*
X112323311Y-111339217D01*
X112323809Y-111409085D01*
X112286456Y-111468131D01*
X112285118Y-111469290D01*
X112114776Y-111614776D01*
X111951161Y-111806343D01*
X111951160Y-111806346D01*
X111819533Y-112021140D01*
X111723126Y-112253889D01*
X111664317Y-112498848D01*
X111644551Y-112750000D01*
X111664317Y-113001151D01*
X111723126Y-113246110D01*
X111819533Y-113478859D01*
X111951160Y-113693653D01*
X111951161Y-113693656D01*
X111989314Y-113738327D01*
X112114776Y-113885224D01*
X112245258Y-113996666D01*
X112306343Y-114048838D01*
X112306346Y-114048839D01*
X112500785Y-114167992D01*
X112547660Y-114219803D01*
X112559083Y-114288733D01*
X112531426Y-114352896D01*
X112523676Y-114361400D01*
X112339137Y-114545940D01*
X112277814Y-114579425D01*
X112208123Y-114574441D01*
X112152189Y-114532570D01*
X112146462Y-114524230D01*
X112129817Y-114497740D01*
X112129815Y-114497737D01*
X112002262Y-114370184D01*
X111849523Y-114274211D01*
X111679254Y-114214631D01*
X111679249Y-114214630D01*
X111500004Y-114194435D01*
X111499996Y-114194435D01*
X111320750Y-114214630D01*
X111320745Y-114214631D01*
X111150476Y-114274211D01*
X110997737Y-114370184D01*
X110870184Y-114497737D01*
X110774209Y-114650480D01*
X110741041Y-114745269D01*
X110700320Y-114802045D01*
X110635367Y-114827792D01*
X110566805Y-114814336D01*
X110516403Y-114765948D01*
X110500000Y-114704314D01*
X110500000Y-114077172D01*
X110499999Y-114077155D01*
X110493598Y-114017627D01*
X110493596Y-114017620D01*
X110443354Y-113882913D01*
X110443350Y-113882906D01*
X110357190Y-113767812D01*
X110357187Y-113767809D01*
X110242093Y-113681649D01*
X110242086Y-113681645D01*
X110107379Y-113631403D01*
X110107372Y-113631401D01*
X110047844Y-113625000D01*
X109250000Y-113625000D01*
X109250000Y-114691988D01*
X109192993Y-114659075D01*
X109065826Y-114625000D01*
X108934174Y-114625000D01*
X108807007Y-114659075D01*
X108750000Y-114691988D01*
X108750000Y-113735596D01*
X108769685Y-113668557D01*
X108786316Y-113647918D01*
X109277416Y-113156819D01*
X109338739Y-113123334D01*
X109365097Y-113120500D01*
X109830404Y-113120500D01*
X109897443Y-113140185D01*
X109918085Y-113156819D01*
X109922396Y-113161130D01*
X109922400Y-113161133D01*
X109922402Y-113161135D01*
X110060607Y-113242869D01*
X110085152Y-113250000D01*
X110214791Y-113287664D01*
X110214794Y-113287664D01*
X110214796Y-113287665D01*
X110250819Y-113290500D01*
X110749180Y-113290499D01*
X110785204Y-113287665D01*
X110939393Y-113242869D01*
X111077598Y-113161135D01*
X111191135Y-113047598D01*
X111272869Y-112909393D01*
X111317665Y-112755204D01*
X111320500Y-112719181D01*
X111320499Y-112320820D01*
X111317665Y-112284796D01*
X111272869Y-112130607D01*
X111238869Y-112073117D01*
X111221688Y-112005398D01*
X111238869Y-111946882D01*
X111272869Y-111889393D01*
X111296997Y-111806346D01*
X111317664Y-111735208D01*
X111317665Y-111735202D01*
X111317808Y-111733383D01*
X111320500Y-111699181D01*
X111320499Y-111300820D01*
X111317665Y-111264796D01*
X111272869Y-111110607D01*
X111191135Y-110972402D01*
X111191133Y-110972400D01*
X111191130Y-110972396D01*
X111136819Y-110918085D01*
X111103334Y-110856762D01*
X111100500Y-110830404D01*
X111100500Y-110375782D01*
X111120185Y-110308743D01*
X111136815Y-110288105D01*
X111438334Y-109986586D01*
X111499654Y-109953103D01*
X111569345Y-109958087D01*
G37*
%TD.AperFunction*%
%TA.AperFunction,Conductor*%
G36*
X105305703Y-109212736D02*
G01*
X105315724Y-109222460D01*
X105440256Y-109357738D01*
X105636491Y-109510474D01*
X105636493Y-109510475D01*
X105760364Y-109577511D01*
X105855190Y-109628828D01*
X106090386Y-109709571D01*
X106335665Y-109750500D01*
X106584335Y-109750500D01*
X106745091Y-109723675D01*
X106814456Y-109732057D01*
X106868278Y-109776610D01*
X106889468Y-109843189D01*
X106889500Y-109845984D01*
X106889500Y-110830404D01*
X106869815Y-110897443D01*
X106853181Y-110918085D01*
X106848869Y-110922396D01*
X106848863Y-110922404D01*
X106767131Y-111060606D01*
X106767129Y-111060611D01*
X106722335Y-111214791D01*
X106722334Y-111214797D01*
X106719500Y-111250811D01*
X106719500Y-111749169D01*
X106719501Y-111749191D01*
X106722335Y-111785205D01*
X106767129Y-111939388D01*
X106767131Y-111939393D01*
X106848863Y-112077595D01*
X106848869Y-112077603D01*
X106962396Y-112191130D01*
X106962400Y-112191133D01*
X106962402Y-112191135D01*
X107100607Y-112272869D01*
X107141268Y-112284682D01*
X107254791Y-112317664D01*
X107254794Y-112317664D01*
X107254796Y-112317665D01*
X107290819Y-112320500D01*
X107689180Y-112320499D01*
X107725204Y-112317665D01*
X107879393Y-112272869D01*
X107936882Y-112238869D01*
X108004602Y-112221688D01*
X108063117Y-112238869D01*
X108120607Y-112272869D01*
X108184492Y-112291429D01*
X108243376Y-112329034D01*
X108272583Y-112392506D01*
X108262837Y-112461693D01*
X108237577Y-112498186D01*
X107063548Y-113672215D01*
X107002225Y-113705700D01*
X106935604Y-113701815D01*
X106829616Y-113665429D01*
X106584335Y-113624500D01*
X106335665Y-113624500D01*
X106090383Y-113665429D01*
X105855197Y-113746169D01*
X105855188Y-113746172D01*
X105636493Y-113864524D01*
X105459528Y-114002262D01*
X105440256Y-114017262D01*
X105423189Y-114035802D01*
X105299997Y-114169624D01*
X105240110Y-114205615D01*
X105170271Y-114203514D01*
X105121086Y-114173322D01*
X104081119Y-113133355D01*
X104081117Y-113133352D01*
X103962246Y-113014481D01*
X103962245Y-113014480D01*
X103869124Y-112960717D01*
X103825314Y-112935423D01*
X103672586Y-112894499D01*
X103514472Y-112894499D01*
X103506876Y-112894499D01*
X103506860Y-112894500D01*
X103289091Y-112894500D01*
X103222052Y-112874815D01*
X103176711Y-112822909D01*
X103174037Y-112817175D01*
X103174034Y-112817170D01*
X103174033Y-112817169D01*
X103057316Y-112650478D01*
X103038494Y-112623597D01*
X102871402Y-112456506D01*
X102871396Y-112456501D01*
X102685842Y-112326575D01*
X102642217Y-112271998D01*
X102635023Y-112202500D01*
X102666546Y-112140145D01*
X102685842Y-112123425D01*
X102719979Y-112099522D01*
X102871401Y-111993495D01*
X103038495Y-111826401D01*
X103174035Y-111632830D01*
X103176707Y-111627097D01*
X103222878Y-111574658D01*
X103289091Y-111555500D01*
X103958331Y-111555500D01*
X103958347Y-111555501D01*
X103965943Y-111555501D01*
X104124054Y-111555501D01*
X104124057Y-111555501D01*
X104276785Y-111514577D01*
X104335775Y-111480519D01*
X104413716Y-111435520D01*
X104525520Y-111323716D01*
X104525520Y-111323714D01*
X104535724Y-111313511D01*
X104535728Y-111313506D01*
X104858506Y-110990728D01*
X104858511Y-110990724D01*
X104868714Y-110980520D01*
X104868716Y-110980520D01*
X104980520Y-110868716D01*
X105040221Y-110765310D01*
X105059577Y-110731785D01*
X105100500Y-110579057D01*
X105100500Y-110420943D01*
X105100500Y-109306449D01*
X105120185Y-109239410D01*
X105172989Y-109193655D01*
X105242147Y-109183711D01*
X105305703Y-109212736D01*
G37*
%TD.AperFunction*%
%TA.AperFunction,Conductor*%
G36*
X118094795Y-108720185D02*
G01*
X118140550Y-108772989D01*
X118151045Y-108837752D01*
X118149500Y-108852127D01*
X118149500Y-108852134D01*
X118149500Y-108852135D01*
X118149500Y-111147870D01*
X118149501Y-111147876D01*
X118155908Y-111207483D01*
X118206202Y-111342328D01*
X118206206Y-111342335D01*
X118292452Y-111457544D01*
X118292455Y-111457547D01*
X118407664Y-111543793D01*
X118407671Y-111543797D01*
X118445148Y-111557775D01*
X118501082Y-111599646D01*
X118525499Y-111665110D01*
X118510648Y-111733383D01*
X118496106Y-111754487D01*
X118451575Y-111806626D01*
X118451568Y-111806637D01*
X118319980Y-112021368D01*
X118223603Y-112254043D01*
X118164812Y-112498927D01*
X118145052Y-112750000D01*
X118164812Y-113001072D01*
X118223603Y-113245956D01*
X118319980Y-113478631D01*
X118451568Y-113693362D01*
X118452266Y-113694179D01*
X119185387Y-112961058D01*
X119190889Y-112981591D01*
X119269881Y-113118408D01*
X119381592Y-113230119D01*
X119518409Y-113309111D01*
X119538940Y-113314612D01*
X118890372Y-113963181D01*
X118829049Y-113996666D01*
X118802691Y-113999500D01*
X116916322Y-113999500D01*
X116849283Y-113979815D01*
X116803528Y-113927011D01*
X116793102Y-113889383D01*
X116785369Y-113820750D01*
X116785368Y-113820748D01*
X116785368Y-113820745D01*
X116725789Y-113650478D01*
X116629816Y-113497738D01*
X116502262Y-113370184D01*
X116349523Y-113274211D01*
X116179254Y-113214631D01*
X116179249Y-113214630D01*
X116000004Y-113194435D01*
X115999996Y-113194435D01*
X115820750Y-113214630D01*
X115820745Y-113214631D01*
X115650476Y-113274211D01*
X115497737Y-113370184D01*
X115370183Y-113497738D01*
X115366135Y-113502815D01*
X115308946Y-113542954D01*
X115269190Y-113549500D01*
X114836785Y-113549500D01*
X114769746Y-113529815D01*
X114723991Y-113477011D01*
X114714047Y-113407853D01*
X114722224Y-113378048D01*
X114776872Y-113246114D01*
X114776872Y-113246113D01*
X114776873Y-113246111D01*
X114835683Y-113001148D01*
X114855449Y-112750000D01*
X114835683Y-112498852D01*
X114776873Y-112253889D01*
X114760088Y-112213367D01*
X114680466Y-112021140D01*
X114548839Y-111806346D01*
X114548838Y-111806343D01*
X114488578Y-111735788D01*
X114385224Y-111614776D01*
X114214879Y-111469288D01*
X114176688Y-111410784D01*
X114176189Y-111340916D01*
X114213543Y-111281869D01*
X114214823Y-111280759D01*
X114385224Y-111135224D01*
X114548836Y-110943659D01*
X114680466Y-110728859D01*
X114776873Y-110496111D01*
X114835683Y-110251148D01*
X114855449Y-110000000D01*
X114835683Y-109748852D01*
X114776873Y-109503889D01*
X114765234Y-109475789D01*
X114680466Y-109271140D01*
X114548839Y-109056346D01*
X114548838Y-109056344D01*
X114548837Y-109056343D01*
X114548836Y-109056341D01*
X114419604Y-108905029D01*
X114391034Y-108841270D01*
X114401471Y-108772185D01*
X114447602Y-108719709D01*
X114513895Y-108700500D01*
X118027756Y-108700500D01*
X118094795Y-108720185D01*
G37*
%TD.AperFunction*%
%TA.AperFunction,Conductor*%
G36*
X122122539Y-111019685D02*
G01*
X122168294Y-111072489D01*
X122179500Y-111124000D01*
X122179500Y-111234697D01*
X122182356Y-111270991D01*
X122182357Y-111270997D01*
X122227503Y-111426389D01*
X122227505Y-111426393D01*
X122227506Y-111426395D01*
X122243706Y-111453789D01*
X122260889Y-111521510D01*
X122248059Y-111565342D01*
X122250605Y-111566444D01*
X122247504Y-111573610D01*
X122202357Y-111729002D01*
X122202356Y-111729008D01*
X122199500Y-111765302D01*
X122199500Y-111876000D01*
X122179815Y-111943039D01*
X122127011Y-111988794D01*
X122075500Y-112000000D01*
X121881362Y-112000000D01*
X121814323Y-111980315D01*
X121793681Y-111963681D01*
X121786319Y-111956319D01*
X121752834Y-111894996D01*
X121750000Y-111868638D01*
X121750000Y-111124000D01*
X121769685Y-111056961D01*
X121822489Y-111011206D01*
X121874000Y-111000000D01*
X122055500Y-111000000D01*
X122122539Y-111019685D01*
G37*
%TD.AperFunction*%
%TA.AperFunction,Conductor*%
G36*
X142698039Y-111319685D02*
G01*
X142743794Y-111372489D01*
X142755000Y-111424000D01*
X142755000Y-111425500D01*
X142735315Y-111492539D01*
X142682511Y-111538294D01*
X142631000Y-111549500D01*
X142189295Y-111549500D01*
X142157814Y-111551978D01*
X142089437Y-111537613D01*
X142039681Y-111488561D01*
X142031042Y-111469305D01*
X142029515Y-111464940D01*
X142025962Y-111395160D01*
X142060699Y-111334537D01*
X142122697Y-111302318D01*
X142146562Y-111300000D01*
X142631000Y-111300000D01*
X142698039Y-111319685D01*
G37*
%TD.AperFunction*%
%TA.AperFunction,Conductor*%
G36*
X109250000Y-109756068D02*
G01*
X109276186Y-109804024D01*
X109271202Y-109873716D01*
X109242701Y-109918063D01*
X108517582Y-110643181D01*
X108456259Y-110676666D01*
X108429902Y-110679500D01*
X108310831Y-110679500D01*
X108310807Y-110679501D01*
X108274796Y-110682335D01*
X108249093Y-110689802D01*
X108179223Y-110689601D01*
X108120554Y-110651658D01*
X108091712Y-110588019D01*
X108090500Y-110570725D01*
X108090500Y-109874000D01*
X108110185Y-109806961D01*
X108162989Y-109761206D01*
X108214500Y-109750000D01*
X108750000Y-109750000D01*
X108750000Y-108683012D01*
X108807007Y-108715925D01*
X108934174Y-108750000D01*
X109065826Y-108750000D01*
X109192993Y-108715925D01*
X109250000Y-108683012D01*
X109250000Y-109756068D01*
G37*
%TD.AperFunction*%
%TA.AperFunction,Conductor*%
G36*
X130943039Y-109889685D02*
G01*
X130988794Y-109942489D01*
X131000000Y-109994000D01*
X131000000Y-110175500D01*
X130980315Y-110242539D01*
X130927511Y-110288294D01*
X130876000Y-110299500D01*
X130765302Y-110299500D01*
X130729008Y-110302356D01*
X130729002Y-110302357D01*
X130573609Y-110347504D01*
X130573606Y-110347505D01*
X130429495Y-110432732D01*
X130366374Y-110450000D01*
X130150597Y-110450000D01*
X130083558Y-110430315D01*
X130062916Y-110413681D01*
X130016319Y-110367084D01*
X129982834Y-110305761D01*
X129980000Y-110279403D01*
X129980000Y-110074000D01*
X129999685Y-110006961D01*
X130024809Y-109985190D01*
X130078290Y-109931709D01*
X130079685Y-109926961D01*
X130132489Y-109881206D01*
X130184000Y-109870000D01*
X130876000Y-109870000D01*
X130943039Y-109889685D01*
G37*
%TD.AperFunction*%
%TA.AperFunction,Conductor*%
G36*
X111563885Y-105387863D02*
G01*
X111619818Y-105429735D01*
X111644235Y-105495199D01*
X111644286Y-105496631D01*
X111644551Y-105499999D01*
X111644551Y-105500000D01*
X111646496Y-105524713D01*
X111664317Y-105751151D01*
X111723126Y-105996110D01*
X111819533Y-106228859D01*
X111951160Y-106443653D01*
X111951161Y-106443656D01*
X111973217Y-106469480D01*
X112114776Y-106635224D01*
X112256656Y-106756401D01*
X112306343Y-106798838D01*
X112306346Y-106798839D01*
X112422097Y-106869772D01*
X112468972Y-106921584D01*
X112480395Y-106990513D01*
X112452738Y-107054676D01*
X112394782Y-107093701D01*
X112357307Y-107099499D01*
X112230943Y-107099499D01*
X112154579Y-107119961D01*
X112078214Y-107140423D01*
X112078209Y-107140426D01*
X111941290Y-107219475D01*
X111941282Y-107219481D01*
X110668063Y-108492701D01*
X110606740Y-108526186D01*
X110537048Y-108521202D01*
X110504058Y-108500000D01*
X109433012Y-108500000D01*
X109465925Y-108442993D01*
X109500000Y-108315826D01*
X109500000Y-108184174D01*
X109465925Y-108057007D01*
X109433012Y-108000000D01*
X110500000Y-108000000D01*
X110500000Y-107202172D01*
X110499999Y-107202155D01*
X110493598Y-107142627D01*
X110493596Y-107142620D01*
X110443354Y-107007913D01*
X110443350Y-107007906D01*
X110357190Y-106892812D01*
X110357187Y-106892809D01*
X110242093Y-106806649D01*
X110242086Y-106806645D01*
X110107379Y-106756403D01*
X110107372Y-106756401D01*
X110047844Y-106750000D01*
X109250000Y-106750000D01*
X109250000Y-107816988D01*
X109192993Y-107784075D01*
X109065826Y-107750000D01*
X108934174Y-107750000D01*
X108807007Y-107784075D01*
X108750000Y-107816988D01*
X108750000Y-106750000D01*
X107952155Y-106750000D01*
X107892627Y-106756401D01*
X107892620Y-106756403D01*
X107757913Y-106806645D01*
X107757906Y-106806649D01*
X107642812Y-106892809D01*
X107642809Y-106892812D01*
X107556649Y-107007906D01*
X107552396Y-107015696D01*
X107549217Y-107013960D01*
X107517596Y-107056135D01*
X107452113Y-107080502D01*
X107383851Y-107065598D01*
X107367199Y-107054665D01*
X107331669Y-107027011D01*
X107283509Y-106989526D01*
X107283507Y-106989525D01*
X107283506Y-106989524D01*
X107064811Y-106871172D01*
X107064802Y-106871169D01*
X106829616Y-106790429D01*
X106584335Y-106749500D01*
X106464782Y-106749500D01*
X106397743Y-106729815D01*
X106351988Y-106677011D01*
X106342044Y-106607853D01*
X106371069Y-106544297D01*
X106377101Y-106537819D01*
X106522109Y-106392812D01*
X106778102Y-106136819D01*
X106839425Y-106103334D01*
X106865783Y-106100500D01*
X110413331Y-106100500D01*
X110413347Y-106100501D01*
X110420943Y-106100501D01*
X110579054Y-106100501D01*
X110579057Y-106100501D01*
X110731785Y-106059577D01*
X110801233Y-106019481D01*
X110868716Y-105980520D01*
X110980520Y-105868716D01*
X110980520Y-105868714D01*
X110990724Y-105858511D01*
X110990727Y-105858506D01*
X111432871Y-105416363D01*
X111494193Y-105382879D01*
X111563885Y-105387863D01*
G37*
%TD.AperFunction*%
%TA.AperFunction,Conductor*%
G36*
X133363770Y-108060112D02*
G01*
X133374819Y-108069917D01*
X133434616Y-108129714D01*
X133434625Y-108129721D01*
X133580520Y-108216003D01*
X133579757Y-108217292D01*
X133626742Y-108256386D01*
X133647764Y-108323018D01*
X133629425Y-108390438D01*
X133577548Y-108437241D01*
X133523789Y-108449500D01*
X133124647Y-108449500D01*
X133057608Y-108429815D01*
X133011853Y-108377011D01*
X133001909Y-108307853D01*
X133030934Y-108244297D01*
X133036952Y-108237833D01*
X133058506Y-108216280D01*
X133058511Y-108216276D01*
X133068714Y-108206072D01*
X133068716Y-108206072D01*
X133180520Y-108094268D01*
X133180523Y-108094261D01*
X133185470Y-108087817D01*
X133186826Y-108088858D01*
X133230296Y-108047394D01*
X133298900Y-108034157D01*
X133363770Y-108060112D01*
G37*
%TD.AperFunction*%
%TA.AperFunction,Conductor*%
G36*
X130242539Y-104865185D02*
G01*
X130288294Y-104917989D01*
X130299500Y-104969500D01*
X130299500Y-105060701D01*
X130302401Y-105097567D01*
X130302402Y-105097573D01*
X130348254Y-105255393D01*
X130348255Y-105255396D01*
X130431917Y-105396862D01*
X130436702Y-105403031D01*
X130434256Y-105404927D01*
X130460857Y-105453642D01*
X130455873Y-105523334D01*
X130435069Y-105555703D01*
X130436702Y-105556969D01*
X130431917Y-105563137D01*
X130348255Y-105704603D01*
X130348254Y-105704606D01*
X130302402Y-105862426D01*
X130302401Y-105862432D01*
X130299500Y-105899298D01*
X130299500Y-106330701D01*
X130302401Y-106367567D01*
X130302402Y-106367573D01*
X130348254Y-106525393D01*
X130348257Y-106525400D01*
X130390825Y-106597380D01*
X130408008Y-106665104D01*
X130385848Y-106731366D01*
X130331381Y-106775129D01*
X130284093Y-106784500D01*
X127701670Y-106784500D01*
X127701654Y-106784499D01*
X127694058Y-106784499D01*
X127535943Y-106784499D01*
X127482427Y-106798839D01*
X127383214Y-106825423D01*
X127383209Y-106825426D01*
X127246290Y-106904475D01*
X127246282Y-106904481D01*
X125856877Y-108293886D01*
X125795554Y-108327371D01*
X125725862Y-108322387D01*
X125669929Y-108280515D01*
X125655456Y-108251500D01*
X125654382Y-108251965D01*
X125651282Y-108244803D01*
X125567685Y-108103447D01*
X125562900Y-108097278D01*
X125565366Y-108095364D01*
X125538802Y-108046776D01*
X125543749Y-107977082D01*
X125564856Y-107944232D01*
X125563301Y-107943026D01*
X125568077Y-107936868D01*
X125568081Y-107936865D01*
X125651744Y-107795398D01*
X125697598Y-107637569D01*
X125700500Y-107600694D01*
X125700500Y-107169306D01*
X125697598Y-107132431D01*
X125696838Y-107129816D01*
X125651745Y-106974606D01*
X125651744Y-106974603D01*
X125651744Y-106974602D01*
X125568081Y-106833135D01*
X125568078Y-106833132D01*
X125563298Y-106826969D01*
X125565750Y-106825066D01*
X125539155Y-106776421D01*
X125544104Y-106706726D01*
X125564940Y-106674304D01*
X125563298Y-106673031D01*
X125568075Y-106666870D01*
X125568081Y-106666865D01*
X125651744Y-106525398D01*
X125697598Y-106367569D01*
X125700500Y-106330694D01*
X125700500Y-105899306D01*
X125697598Y-105862431D01*
X125696459Y-105858511D01*
X125651745Y-105704606D01*
X125651744Y-105704603D01*
X125651744Y-105704602D01*
X125568081Y-105563135D01*
X125568078Y-105563132D01*
X125563298Y-105556969D01*
X125565750Y-105555066D01*
X125539155Y-105506421D01*
X125544104Y-105436726D01*
X125564940Y-105404304D01*
X125563298Y-105403031D01*
X125568075Y-105396870D01*
X125568081Y-105396865D01*
X125651744Y-105255398D01*
X125697598Y-105097569D01*
X125700500Y-105060694D01*
X125700500Y-104969500D01*
X125720185Y-104902461D01*
X125772989Y-104856706D01*
X125824500Y-104845500D01*
X130175500Y-104845500D01*
X130242539Y-104865185D01*
G37*
%TD.AperFunction*%
%TA.AperFunction,Conductor*%
G36*
X119190889Y-105731591D02*
G01*
X119269881Y-105868408D01*
X119381592Y-105980119D01*
X119518409Y-106059111D01*
X119538940Y-106064612D01*
X118805819Y-106797732D01*
X118805819Y-106797733D01*
X118806634Y-106798429D01*
X119021368Y-106930019D01*
X119254043Y-107026396D01*
X119498927Y-107085187D01*
X119750000Y-107104947D01*
X120001072Y-107085187D01*
X120245956Y-107026396D01*
X120478631Y-106930019D01*
X120693361Y-106798432D01*
X120693363Y-106798430D01*
X120694180Y-106797732D01*
X119961059Y-106064612D01*
X119981591Y-106059111D01*
X120118408Y-105980119D01*
X120230119Y-105868408D01*
X120309111Y-105731591D01*
X120314612Y-105711059D01*
X121047732Y-106444180D01*
X121048430Y-106443363D01*
X121048432Y-106443361D01*
X121180019Y-106228631D01*
X121260939Y-106033273D01*
X121304780Y-105978870D01*
X121371074Y-105956805D01*
X121438773Y-105974084D01*
X121486384Y-106025221D01*
X121499500Y-106080726D01*
X121499500Y-106599903D01*
X121479815Y-106666942D01*
X121463181Y-106687584D01*
X120687584Y-107463181D01*
X120626261Y-107496666D01*
X120599903Y-107499500D01*
X116919198Y-107499500D01*
X116852159Y-107479815D01*
X116806404Y-107427011D01*
X116796460Y-107357853D01*
X116825485Y-107294297D01*
X116831517Y-107287819D01*
X117129812Y-106989524D01*
X118063028Y-106056307D01*
X118124347Y-106022825D01*
X118194038Y-106027809D01*
X118249972Y-106069680D01*
X118265266Y-106096538D01*
X118319980Y-106228631D01*
X118451568Y-106443362D01*
X118452266Y-106444179D01*
X119185387Y-105711058D01*
X119190889Y-105731591D01*
G37*
%TD.AperFunction*%
%TD*%
M02*
