%TF.GenerationSoftware,KiCad,Pcbnew,8.0.7*%
%TF.CreationDate,2025-04-15T10:47:43+02:00*%
%TF.ProjectId,colobus_hardware,636f6c6f-6275-4735-9f68-617264776172,rev?*%
%TF.SameCoordinates,Original*%
%TF.FileFunction,Copper,L3,Inr*%
%TF.FilePolarity,Positive*%
%FSLAX46Y46*%
G04 Gerber Fmt 4.6, Leading zero omitted, Abs format (unit mm)*
G04 Created by KiCad (PCBNEW 8.0.7) date 2025-04-15 10:47:43*
%MOMM*%
%LPD*%
G01*
G04 APERTURE LIST*
%TA.AperFunction,ComponentPad*%
%ADD10R,2.000000X2.000000*%
%TD*%
%TA.AperFunction,ComponentPad*%
%ADD11C,2.000000*%
%TD*%
%TA.AperFunction,ComponentPad*%
%ADD12R,2.200000X2.200000*%
%TD*%
%TA.AperFunction,ComponentPad*%
%ADD13C,2.200000*%
%TD*%
%TA.AperFunction,ComponentPad*%
%ADD14R,1.700000X1.700000*%
%TD*%
%TA.AperFunction,ComponentPad*%
%ADD15O,1.700000X1.700000*%
%TD*%
%TA.AperFunction,ComponentPad*%
%ADD16O,2.100000X1.000000*%
%TD*%
%TA.AperFunction,ComponentPad*%
%ADD17O,1.600000X1.000000*%
%TD*%
%TA.AperFunction,ViaPad*%
%ADD18C,0.600000*%
%TD*%
G04 APERTURE END LIST*
D10*
%TO.N,GND*%
%TO.C,D2*%
X109000000Y-108250000D03*
D11*
%TO.N,Net-(D2-A)*%
X106460000Y-108250000D03*
%TD*%
D12*
%TO.N,BTN3*%
%TO.C,Button3*%
X119750000Y-124500000D03*
D13*
%TO.N,GND*%
X119750000Y-120000000D03*
%TO.N,N/C*%
X113250000Y-124500000D03*
X113250000Y-120000000D03*
%TD*%
D10*
%TO.N,GND*%
%TO.C,D4*%
X109000000Y-122000000D03*
D11*
%TO.N,Net-(D4-A)*%
X106460000Y-122000000D03*
%TD*%
D14*
%TO.N,GND*%
%TO.C,J3*%
X102000000Y-105875000D03*
D15*
%TO.N,L0p*%
X102000000Y-108415000D03*
%TO.N,L0n*%
X102000000Y-110955000D03*
%TO.N,ID0*%
X102000000Y-113495000D03*
%TO.N,5V*%
X102000000Y-116035000D03*
%TO.N,L1n*%
X102000000Y-118575000D03*
%TO.N,L1p*%
X102000000Y-121115000D03*
%TO.N,ID1*%
X102000000Y-123655000D03*
%TD*%
D12*
%TO.N,BTN2*%
%TO.C,Button2*%
X119750000Y-117250000D03*
D13*
%TO.N,GND*%
X119750000Y-112750000D03*
%TO.N,N/C*%
X113250000Y-117250000D03*
X113250000Y-112750000D03*
%TD*%
D12*
%TO.N,BTN1*%
%TO.C,Button1*%
X119750000Y-110000000D03*
D13*
%TO.N,GND*%
X119750000Y-105500000D03*
%TO.N,N/C*%
X113250000Y-110000000D03*
X113250000Y-105500000D03*
%TD*%
D14*
%TO.N,GND*%
%TO.C,J1*%
X131925000Y-126750000D03*
D15*
%TO.N,SWDCLK*%
X134465000Y-126750000D03*
%TO.N,SWDIO*%
X137005000Y-126750000D03*
%TO.N,~{RESET}*%
X139545000Y-126750000D03*
%TO.N,+3V3*%
X142085000Y-126750000D03*
%TD*%
D16*
%TO.N,GND*%
%TO.C,J2*%
X143395000Y-119070000D03*
D17*
X147575000Y-119070000D03*
D16*
X143395000Y-110430000D03*
D17*
X147575000Y-110430000D03*
%TD*%
D10*
%TO.N,GND*%
%TO.C,D3*%
X109000000Y-115125000D03*
D11*
%TO.N,Net-(D3-A)*%
X106460000Y-115125000D03*
%TD*%
D18*
%TO.N,GND*%
X142000000Y-118000000D03*
%TO.N,L0n*%
X131000000Y-120000000D03*
%TO.N,L0p*%
X131000000Y-120924314D03*
%TO.N,GND*%
X146500000Y-107000000D03*
X138750000Y-106000000D03*
X101000000Y-127500000D03*
X144400000Y-121750000D03*
X126500000Y-105000000D03*
X121500000Y-108500000D03*
X116000000Y-105500000D03*
X106500000Y-118500000D03*
X135000000Y-108000000D03*
X114500000Y-127000000D03*
X136000000Y-119500000D03*
X126000000Y-102000000D03*
X122500000Y-127000000D03*
X116000000Y-112000000D03*
X139500000Y-124500000D03*
X134500000Y-120500000D03*
X136500000Y-102000000D03*
X124000000Y-120000000D03*
X115959720Y-116986234D03*
X117500000Y-120000000D03*
X126500000Y-107500000D03*
X105000000Y-112500000D03*
X148500000Y-123000000D03*
X130000000Y-105000000D03*
X119000000Y-127000000D03*
X146500000Y-114000000D03*
X138500000Y-107500000D03*
X117000000Y-123500000D03*
X129500000Y-125000000D03*
X130500000Y-101500000D03*
X126000000Y-127000000D03*
X137000000Y-120500000D03*
X126750000Y-121250000D03*
X128000000Y-116500000D03*
X107000000Y-125000000D03*
X148500000Y-116000000D03*
X135500000Y-121500000D03*
X114265479Y-101493762D03*
X127500000Y-127000000D03*
X116000000Y-109500000D03*
X139137499Y-114612501D03*
X134000000Y-113000000D03*
X123500000Y-123000000D03*
X133500000Y-114490000D03*
X141200000Y-123367500D03*
X126950000Y-115437500D03*
X141000000Y-108500000D03*
X138500000Y-109000000D03*
X143000000Y-102500000D03*
X126000000Y-114000000D03*
%TO.N,BTN1*%
X121250000Y-115250000D03*
%TO.N,BTN3*%
X121500163Y-116449998D03*
%TO.N,+3V3*%
X122020000Y-122980000D03*
X142000000Y-120500000D03*
X137500000Y-116000000D03*
X126529430Y-117720570D03*
X133500000Y-117000000D03*
X135000000Y-106500000D03*
X135000000Y-124500000D03*
X140500000Y-121500000D03*
X123512500Y-111512500D03*
%TO.N,5V*%
X146438749Y-122938749D03*
X143500000Y-120500000D03*
X141750000Y-117000000D03*
X104500000Y-125500000D03*
X145750000Y-120500000D03*
X101500000Y-101500000D03*
X104000000Y-117500000D03*
X144500000Y-124025000D03*
X104000000Y-115000000D03*
X146500000Y-121500000D03*
X141281170Y-111750000D03*
X139250000Y-111750000D03*
%TO.N,~{RESET}*%
X132750000Y-124500000D03*
%TO.N,Net-(J2-CC2)*%
X138260000Y-111010000D03*
X143750000Y-113000000D03*
%TO.N,L0p*%
X117240000Y-102500000D03*
%TO.N,L1n*%
X122250000Y-113000000D03*
X116000000Y-114000000D03*
%TO.N,L0n*%
X117240000Y-103500000D03*
%TO.N,ID0*%
X115500000Y-115500000D03*
X111500000Y-115000000D03*
%TO.N,LED1*%
X132500000Y-116500000D03*
X135000000Y-103500000D03*
%TO.N,LED2*%
X120500000Y-103500000D03*
X132000000Y-114750000D03*
%TO.N,LED3*%
X132750000Y-113750000D03*
X123000000Y-103500000D03*
%TO.N,LED4*%
X131750000Y-113250000D03*
X109000000Y-118000000D03*
%TO.N,+1V1*%
X130150000Y-111350000D03*
X129250000Y-113500000D03*
%TO.N,PICO_D_N*%
X128000000Y-110000000D03*
X131750000Y-118250000D03*
%TO.N,PICO_D_P*%
X130500000Y-118640002D03*
X127350000Y-110500000D03*
%TO.N,Net-(U1-QSPI_SD0)*%
X125250000Y-110000000D03*
X130000000Y-108750000D03*
%TO.N,GND*%
X135750000Y-120500000D03*
%TD*%
%TA.AperFunction,Conductor*%
%TO.N,+3V3*%
G36*
X130389789Y-104029983D02*
G01*
X136395961Y-104491997D01*
X136461294Y-104516766D01*
X136502864Y-104572923D01*
X136509892Y-104603876D01*
X137499999Y-114999998D01*
X137499999Y-114999999D01*
X141880436Y-119380436D01*
X141907316Y-119420664D01*
X141958366Y-119543911D01*
X141958371Y-119543920D01*
X142067860Y-119707781D01*
X142067863Y-119707785D01*
X142207217Y-119847139D01*
X142241707Y-119870184D01*
X142371086Y-119956632D01*
X142475786Y-120000000D01*
X142494333Y-120007682D01*
X142534562Y-120034562D01*
X142687043Y-120187043D01*
X142720528Y-120248366D01*
X142716407Y-120315670D01*
X142714631Y-120320746D01*
X142694435Y-120499996D01*
X142694435Y-120500003D01*
X142714630Y-120679249D01*
X142714631Y-120679254D01*
X142774211Y-120849523D01*
X142821203Y-120924310D01*
X142870184Y-121002262D01*
X142997738Y-121129816D01*
X143150478Y-121225789D01*
X143235776Y-121255636D01*
X143292551Y-121296356D01*
X143310926Y-121329138D01*
X144033821Y-123256858D01*
X144038929Y-123326540D01*
X144005552Y-123387923D01*
X144000266Y-123392655D01*
X143870184Y-123522737D01*
X143774211Y-123675476D01*
X143714631Y-123845745D01*
X143714630Y-123845750D01*
X143694435Y-124024996D01*
X143694435Y-124025003D01*
X143714630Y-124204249D01*
X143714631Y-124204254D01*
X143774211Y-124374523D01*
X143851632Y-124497737D01*
X143870184Y-124527262D01*
X143997738Y-124654816D01*
X144150478Y-124750789D01*
X144320745Y-124810368D01*
X144320749Y-124810369D01*
X144389883Y-124818158D01*
X144454297Y-124845224D01*
X144493852Y-124902818D01*
X144500000Y-124941378D01*
X144500000Y-127376000D01*
X144480315Y-127443039D01*
X144427511Y-127488794D01*
X144376000Y-127500000D01*
X143419470Y-127500000D01*
X143352431Y-127480315D01*
X143306676Y-127427511D01*
X143296732Y-127358353D01*
X143307088Y-127323595D01*
X143358430Y-127213492D01*
X143358432Y-127213486D01*
X143415636Y-127000000D01*
X142518012Y-127000000D01*
X142550925Y-126942993D01*
X142585000Y-126815826D01*
X142585000Y-126684174D01*
X142550925Y-126557007D01*
X142518012Y-126500000D01*
X143415636Y-126500000D01*
X143415635Y-126499999D01*
X143358432Y-126286513D01*
X143358429Y-126286507D01*
X143258600Y-126072422D01*
X143258599Y-126072420D01*
X143123113Y-125878926D01*
X143123108Y-125878920D01*
X142956082Y-125711894D01*
X142762578Y-125576399D01*
X142548492Y-125476570D01*
X142548486Y-125476567D01*
X142335000Y-125419364D01*
X142335000Y-126316988D01*
X142277993Y-126284075D01*
X142150826Y-126250000D01*
X142019174Y-126250000D01*
X141892007Y-126284075D01*
X141835000Y-126316988D01*
X141835000Y-125419364D01*
X141834999Y-125419364D01*
X141621513Y-125476567D01*
X141621507Y-125476570D01*
X141407422Y-125576399D01*
X141407420Y-125576400D01*
X141213926Y-125711886D01*
X141213920Y-125711891D01*
X141046891Y-125878920D01*
X141046890Y-125878922D01*
X140916880Y-126064595D01*
X140862303Y-126108219D01*
X140792804Y-126115412D01*
X140730450Y-126083890D01*
X140713730Y-126064594D01*
X140583494Y-125878597D01*
X140416402Y-125711506D01*
X140416395Y-125711501D01*
X140222834Y-125575967D01*
X140222830Y-125575965D01*
X140222828Y-125575964D01*
X140008663Y-125476097D01*
X140008659Y-125476096D01*
X140008655Y-125476094D01*
X139892354Y-125444932D01*
X139832693Y-125408567D01*
X139802164Y-125345720D01*
X139810459Y-125276345D01*
X139854944Y-125222467D01*
X139858456Y-125220175D01*
X140002262Y-125129816D01*
X140129816Y-125002262D01*
X140225789Y-124849522D01*
X140285368Y-124679255D01*
X140288122Y-124654815D01*
X140305565Y-124500003D01*
X140305565Y-124499996D01*
X140285369Y-124320750D01*
X140285368Y-124320745D01*
X140241170Y-124194435D01*
X140225789Y-124150478D01*
X140129816Y-123997738D01*
X140002262Y-123870184D01*
X139899422Y-123805565D01*
X139849523Y-123774211D01*
X139679254Y-123714631D01*
X139679249Y-123714630D01*
X139500004Y-123694435D01*
X139499996Y-123694435D01*
X139320750Y-123714630D01*
X139320745Y-123714631D01*
X139150476Y-123774211D01*
X138997737Y-123870184D01*
X138870184Y-123997737D01*
X138774211Y-124150476D01*
X138714631Y-124320745D01*
X138714630Y-124320750D01*
X138694435Y-124499996D01*
X138694435Y-124500003D01*
X138714630Y-124679249D01*
X138714631Y-124679254D01*
X138774211Y-124849523D01*
X138807699Y-124902818D01*
X138870184Y-125002262D01*
X138997738Y-125129816D01*
X139150478Y-125225789D01*
X139150483Y-125225792D01*
X139156753Y-125228812D01*
X139155657Y-125231086D01*
X139202949Y-125265008D01*
X139228694Y-125329961D01*
X139215236Y-125398522D01*
X139166847Y-125448924D01*
X139137310Y-125461099D01*
X139081341Y-125476095D01*
X139081335Y-125476098D01*
X138867171Y-125575964D01*
X138867169Y-125575965D01*
X138673597Y-125711505D01*
X138506505Y-125878597D01*
X138376575Y-126064158D01*
X138321998Y-126107783D01*
X138252500Y-126114977D01*
X138190145Y-126083454D01*
X138173425Y-126064158D01*
X138043494Y-125878597D01*
X137876402Y-125711506D01*
X137876395Y-125711501D01*
X137682834Y-125575967D01*
X137682830Y-125575965D01*
X137682828Y-125575964D01*
X137468663Y-125476097D01*
X137468659Y-125476096D01*
X137468655Y-125476094D01*
X137240413Y-125414938D01*
X137240403Y-125414936D01*
X137005001Y-125394341D01*
X137004999Y-125394341D01*
X136769596Y-125414936D01*
X136769586Y-125414938D01*
X136541344Y-125476094D01*
X136541335Y-125476098D01*
X136327171Y-125575964D01*
X136327169Y-125575965D01*
X136133597Y-125711505D01*
X135966505Y-125878597D01*
X135836575Y-126064158D01*
X135781998Y-126107783D01*
X135712500Y-126114977D01*
X135650145Y-126083454D01*
X135633425Y-126064158D01*
X135503494Y-125878597D01*
X135336402Y-125711506D01*
X135336395Y-125711501D01*
X135142834Y-125575967D01*
X135142830Y-125575965D01*
X135142828Y-125575964D01*
X134928663Y-125476097D01*
X134928659Y-125476096D01*
X134928655Y-125476094D01*
X134700413Y-125414938D01*
X134700403Y-125414936D01*
X134465001Y-125394341D01*
X134464999Y-125394341D01*
X134229596Y-125414936D01*
X134229586Y-125414938D01*
X134001344Y-125476094D01*
X134001335Y-125476098D01*
X133787171Y-125575964D01*
X133787169Y-125575965D01*
X133593600Y-125711503D01*
X133471673Y-125833430D01*
X133410350Y-125866914D01*
X133340658Y-125861930D01*
X133284725Y-125820058D01*
X133267810Y-125789081D01*
X133218797Y-125657671D01*
X133218793Y-125657664D01*
X133132547Y-125542455D01*
X133132544Y-125542452D01*
X133020045Y-125458235D01*
X132978174Y-125402302D01*
X132973190Y-125332610D01*
X133006675Y-125271287D01*
X133053402Y-125241927D01*
X133099522Y-125225789D01*
X133252262Y-125129816D01*
X133379816Y-125002262D01*
X133475789Y-124849522D01*
X133535368Y-124679255D01*
X133538122Y-124654815D01*
X133555565Y-124500003D01*
X133555565Y-124499996D01*
X133535369Y-124320750D01*
X133535368Y-124320745D01*
X133491170Y-124194435D01*
X133475789Y-124150478D01*
X133379816Y-123997738D01*
X133252262Y-123870184D01*
X133149422Y-123805565D01*
X133099523Y-123774211D01*
X132929254Y-123714631D01*
X132929249Y-123714630D01*
X132750004Y-123694435D01*
X132749996Y-123694435D01*
X132570750Y-123714630D01*
X132570745Y-123714631D01*
X132400476Y-123774211D01*
X132247737Y-123870184D01*
X132120184Y-123997737D01*
X132024211Y-124150476D01*
X131964631Y-124320745D01*
X131964630Y-124320750D01*
X131944435Y-124499996D01*
X131944435Y-124500003D01*
X131964630Y-124679249D01*
X131964631Y-124679254D01*
X132024211Y-124849523D01*
X132057699Y-124902818D01*
X132120184Y-125002262D01*
X132247738Y-125129816D01*
X132312496Y-125170506D01*
X132358787Y-125222841D01*
X132369435Y-125291894D01*
X132341060Y-125355743D01*
X132282670Y-125394115D01*
X132246524Y-125399500D01*
X131027129Y-125399500D01*
X131027123Y-125399501D01*
X130967516Y-125405908D01*
X130832671Y-125456202D01*
X130832664Y-125456206D01*
X130717455Y-125542452D01*
X130717452Y-125542455D01*
X130631206Y-125657664D01*
X130631202Y-125657671D01*
X130580908Y-125792517D01*
X130574501Y-125852116D01*
X130574500Y-125852135D01*
X130574500Y-125876000D01*
X130554815Y-125943039D01*
X130502011Y-125988794D01*
X130450500Y-126000000D01*
X129795685Y-126000000D01*
X129728646Y-125980315D01*
X129682891Y-125927511D01*
X129672947Y-125858353D01*
X129701972Y-125794797D01*
X129754731Y-125758958D01*
X129788607Y-125747103D01*
X129849522Y-125725789D01*
X130002262Y-125629816D01*
X130129816Y-125502262D01*
X130225789Y-125349522D01*
X130285368Y-125179255D01*
X130286354Y-125170506D01*
X130305565Y-125000003D01*
X130305565Y-124999996D01*
X130285369Y-124820750D01*
X130285368Y-124820745D01*
X130260889Y-124750788D01*
X130225789Y-124650478D01*
X130129816Y-124497738D01*
X130002262Y-124370184D01*
X129849523Y-124274211D01*
X129679254Y-124214631D01*
X129679249Y-124214630D01*
X129500004Y-124194435D01*
X129499996Y-124194435D01*
X129320750Y-124214630D01*
X129320745Y-124214631D01*
X129150476Y-124274211D01*
X128997737Y-124370184D01*
X128870184Y-124497737D01*
X128774211Y-124650476D01*
X128714631Y-124820745D01*
X128714630Y-124820750D01*
X128694435Y-124999996D01*
X128694435Y-125000003D01*
X128714630Y-125179249D01*
X128714631Y-125179254D01*
X128774211Y-125349523D01*
X128853742Y-125476095D01*
X128870184Y-125502262D01*
X128997738Y-125629816D01*
X129128364Y-125711894D01*
X129150478Y-125725789D01*
X129245269Y-125758958D01*
X129302046Y-125799680D01*
X129327793Y-125864633D01*
X129314337Y-125933194D01*
X129265950Y-125983597D01*
X129204315Y-126000000D01*
X129000003Y-126000000D01*
X129000000Y-126000000D01*
X128588460Y-126029395D01*
X126119202Y-126205770D01*
X126096484Y-126205305D01*
X126000003Y-126194435D01*
X125999996Y-126194435D01*
X125820751Y-126214630D01*
X125820745Y-126214632D01*
X125791627Y-126224820D01*
X125759511Y-126231462D01*
X123113083Y-126420493D01*
X123044811Y-126405635D01*
X123016567Y-126384489D01*
X123002262Y-126370184D01*
X122849523Y-126274211D01*
X122679254Y-126214631D01*
X122679249Y-126214630D01*
X122500004Y-126194435D01*
X122499996Y-126194435D01*
X122320750Y-126214630D01*
X122320745Y-126214631D01*
X122176007Y-126265278D01*
X122106228Y-126268839D01*
X122045600Y-126234110D01*
X122013373Y-126172117D01*
X122011113Y-126144368D01*
X122109375Y-122999996D01*
X122694435Y-122999996D01*
X122694435Y-123000003D01*
X122714630Y-123179249D01*
X122714631Y-123179254D01*
X122774211Y-123349523D01*
X122785507Y-123367500D01*
X122870184Y-123502262D01*
X122997738Y-123629816D01*
X123070409Y-123675478D01*
X123132721Y-123714632D01*
X123150478Y-123725789D01*
X123288860Y-123774211D01*
X123320745Y-123785368D01*
X123320750Y-123785369D01*
X123499996Y-123805565D01*
X123500000Y-123805565D01*
X123500004Y-123805565D01*
X123679249Y-123785369D01*
X123679252Y-123785368D01*
X123679255Y-123785368D01*
X123849522Y-123725789D01*
X124002262Y-123629816D01*
X124129816Y-123502262D01*
X124214495Y-123367496D01*
X140394435Y-123367496D01*
X140394435Y-123367503D01*
X140414630Y-123546749D01*
X140414631Y-123546754D01*
X140474211Y-123717023D01*
X140517156Y-123785369D01*
X140570184Y-123869762D01*
X140697738Y-123997316D01*
X140850478Y-124093289D01*
X141013909Y-124150476D01*
X141020745Y-124152868D01*
X141020750Y-124152869D01*
X141199996Y-124173065D01*
X141200000Y-124173065D01*
X141200004Y-124173065D01*
X141379249Y-124152869D01*
X141379252Y-124152868D01*
X141379255Y-124152868D01*
X141549522Y-124093289D01*
X141702262Y-123997316D01*
X141829816Y-123869762D01*
X141925789Y-123717022D01*
X141985368Y-123546755D01*
X142005565Y-123367500D01*
X142003539Y-123349523D01*
X141985369Y-123188250D01*
X141985368Y-123188245D01*
X141925788Y-123017976D01*
X141829815Y-122865237D01*
X141702262Y-122737684D01*
X141549523Y-122641711D01*
X141379254Y-122582131D01*
X141379249Y-122582130D01*
X141200004Y-122561935D01*
X141199996Y-122561935D01*
X141020750Y-122582130D01*
X141020745Y-122582131D01*
X140850476Y-122641711D01*
X140697737Y-122737684D01*
X140570184Y-122865237D01*
X140474211Y-123017976D01*
X140414631Y-123188245D01*
X140414630Y-123188250D01*
X140394435Y-123367496D01*
X124214495Y-123367496D01*
X124225789Y-123349522D01*
X124285368Y-123179255D01*
X124285369Y-123179249D01*
X124305565Y-123000003D01*
X124305565Y-122999996D01*
X124285369Y-122820750D01*
X124285368Y-122820745D01*
X124225788Y-122650476D01*
X124166151Y-122555565D01*
X124129816Y-122497738D01*
X124002262Y-122370184D01*
X123899422Y-122305565D01*
X123849523Y-122274211D01*
X123679254Y-122214631D01*
X123679249Y-122214630D01*
X123500004Y-122194435D01*
X123499996Y-122194435D01*
X123320750Y-122214630D01*
X123320745Y-122214631D01*
X123150476Y-122274211D01*
X122997737Y-122370184D01*
X122870184Y-122497737D01*
X122774211Y-122650476D01*
X122714631Y-122820745D01*
X122714630Y-122820750D01*
X122694435Y-122999996D01*
X122109375Y-122999996D01*
X122164063Y-121249996D01*
X125944435Y-121249996D01*
X125944435Y-121250003D01*
X125964630Y-121429249D01*
X125964631Y-121429254D01*
X126024211Y-121599523D01*
X126093429Y-121709682D01*
X126120184Y-121752262D01*
X126247738Y-121879816D01*
X126400478Y-121975789D01*
X126570745Y-122035368D01*
X126570750Y-122035369D01*
X126749996Y-122055565D01*
X126750000Y-122055565D01*
X126750004Y-122055565D01*
X126929249Y-122035369D01*
X126929252Y-122035368D01*
X126929255Y-122035368D01*
X127099522Y-121975789D01*
X127252262Y-121879816D01*
X127379816Y-121752262D01*
X127475789Y-121599522D01*
X127535368Y-121429255D01*
X127535814Y-121425298D01*
X127555565Y-121250003D01*
X127555565Y-121249996D01*
X127535369Y-121070750D01*
X127535368Y-121070745D01*
X127511405Y-121002262D01*
X127475789Y-120900478D01*
X127379816Y-120747738D01*
X127252262Y-120620184D01*
X127180026Y-120574795D01*
X127099523Y-120524211D01*
X126929254Y-120464631D01*
X126929249Y-120464630D01*
X126750004Y-120444435D01*
X126749996Y-120444435D01*
X126570750Y-120464630D01*
X126570745Y-120464631D01*
X126400476Y-120524211D01*
X126247737Y-120620184D01*
X126120184Y-120747737D01*
X126024211Y-120900476D01*
X125964631Y-121070745D01*
X125964630Y-121070750D01*
X125944435Y-121249996D01*
X122164063Y-121249996D01*
X122203125Y-119999996D01*
X123194435Y-119999996D01*
X123194435Y-120000003D01*
X123214630Y-120179249D01*
X123214631Y-120179254D01*
X123274211Y-120349523D01*
X123303531Y-120396185D01*
X123370184Y-120502262D01*
X123497738Y-120629816D01*
X123650478Y-120725789D01*
X123705563Y-120745064D01*
X123820745Y-120785368D01*
X123820750Y-120785369D01*
X123999996Y-120805565D01*
X124000000Y-120805565D01*
X124000004Y-120805565D01*
X124179249Y-120785369D01*
X124179252Y-120785368D01*
X124179255Y-120785368D01*
X124349522Y-120725789D01*
X124502262Y-120629816D01*
X124629816Y-120502262D01*
X124725789Y-120349522D01*
X124785368Y-120179255D01*
X124785369Y-120179249D01*
X124805565Y-120000003D01*
X124805565Y-119999996D01*
X124785369Y-119820750D01*
X124785368Y-119820745D01*
X124768197Y-119771674D01*
X124725789Y-119650478D01*
X124725786Y-119650474D01*
X124678174Y-119574699D01*
X124629816Y-119497738D01*
X124502262Y-119370184D01*
X124488975Y-119361835D01*
X124349523Y-119274211D01*
X124179254Y-119214631D01*
X124179249Y-119214630D01*
X124000004Y-119194435D01*
X123999996Y-119194435D01*
X123820750Y-119214630D01*
X123820745Y-119214631D01*
X123650476Y-119274211D01*
X123497737Y-119370184D01*
X123370184Y-119497737D01*
X123274211Y-119650476D01*
X123214631Y-119820745D01*
X123214630Y-119820750D01*
X123194435Y-119999996D01*
X122203125Y-119999996D01*
X122245625Y-118639998D01*
X129694435Y-118639998D01*
X129694435Y-118640005D01*
X129714630Y-118819251D01*
X129714631Y-118819256D01*
X129774211Y-118989525D01*
X129864419Y-119133089D01*
X129870184Y-119142264D01*
X129997738Y-119269818D01*
X130078788Y-119320745D01*
X130150478Y-119365791D01*
X130251782Y-119401239D01*
X130308559Y-119441961D01*
X130334306Y-119506914D01*
X130320850Y-119575475D01*
X130315822Y-119584252D01*
X130274212Y-119650474D01*
X130214631Y-119820745D01*
X130214630Y-119820750D01*
X130194435Y-119999996D01*
X130194435Y-120000003D01*
X130214630Y-120179249D01*
X130214633Y-120179262D01*
X130274209Y-120349518D01*
X130274211Y-120349522D01*
X130303531Y-120396185D01*
X130322531Y-120463422D01*
X130303531Y-120528129D01*
X130274211Y-120574791D01*
X130274209Y-120574795D01*
X130214633Y-120745051D01*
X130214630Y-120745064D01*
X130194435Y-120924310D01*
X130194435Y-120924317D01*
X130214630Y-121103563D01*
X130214631Y-121103568D01*
X130274211Y-121273837D01*
X130369381Y-121425298D01*
X130370184Y-121426576D01*
X130497738Y-121554130D01*
X130650478Y-121650103D01*
X130733787Y-121679254D01*
X130820745Y-121709682D01*
X130820750Y-121709683D01*
X130999996Y-121729879D01*
X131000000Y-121729879D01*
X131000004Y-121729879D01*
X131179249Y-121709683D01*
X131179252Y-121709682D01*
X131179255Y-121709682D01*
X131349522Y-121650103D01*
X131502262Y-121554130D01*
X131629816Y-121426576D01*
X131725789Y-121273836D01*
X131785368Y-121103569D01*
X131789066Y-121070750D01*
X131805565Y-120924317D01*
X131805565Y-120924310D01*
X131785369Y-120745064D01*
X131785368Y-120745059D01*
X131725788Y-120574789D01*
X131696469Y-120528130D01*
X131688518Y-120499996D01*
X133694435Y-120499996D01*
X133694435Y-120500003D01*
X133714630Y-120679249D01*
X133714631Y-120679254D01*
X133774211Y-120849523D01*
X133821203Y-120924310D01*
X133870184Y-121002262D01*
X133997738Y-121129816D01*
X134150478Y-121225789D01*
X134287791Y-121273837D01*
X134320745Y-121285368D01*
X134320750Y-121285369D01*
X134499996Y-121305565D01*
X134500000Y-121305565D01*
X134500002Y-121305565D01*
X134529449Y-121302246D01*
X134564610Y-121298285D01*
X134633432Y-121310339D01*
X134684811Y-121357688D01*
X134702436Y-121425298D01*
X134701714Y-121435388D01*
X134694435Y-121499995D01*
X134694435Y-121500003D01*
X134714630Y-121679249D01*
X134714631Y-121679254D01*
X134774211Y-121849523D01*
X134853549Y-121975788D01*
X134870184Y-122002262D01*
X134997738Y-122129816D01*
X135088080Y-122186582D01*
X135132721Y-122214632D01*
X135150478Y-122225789D01*
X135288860Y-122274211D01*
X135320745Y-122285368D01*
X135320750Y-122285369D01*
X135499996Y-122305565D01*
X135500000Y-122305565D01*
X135500004Y-122305565D01*
X135679249Y-122285369D01*
X135679252Y-122285368D01*
X135679255Y-122285368D01*
X135849522Y-122225789D01*
X136002262Y-122129816D01*
X136129816Y-122002262D01*
X136225789Y-121849522D01*
X136285368Y-121679255D01*
X136299466Y-121554130D01*
X136305565Y-121500003D01*
X136305565Y-121499996D01*
X136285369Y-121320750D01*
X136285367Y-121320740D01*
X136253029Y-121228326D01*
X136249466Y-121158547D01*
X136282389Y-121099689D01*
X136287319Y-121094759D01*
X136348642Y-121061274D01*
X136418334Y-121066258D01*
X136462681Y-121094759D01*
X136497738Y-121129816D01*
X136650478Y-121225789D01*
X136787791Y-121273837D01*
X136820745Y-121285368D01*
X136820750Y-121285369D01*
X136999996Y-121305565D01*
X137000000Y-121305565D01*
X137000004Y-121305565D01*
X137179249Y-121285369D01*
X137179252Y-121285368D01*
X137179255Y-121285368D01*
X137349522Y-121225789D01*
X137502262Y-121129816D01*
X137629816Y-121002262D01*
X137725789Y-120849522D01*
X137785368Y-120679255D01*
X137785369Y-120679249D01*
X137805565Y-120500003D01*
X137805565Y-120499996D01*
X137785369Y-120320750D01*
X137785368Y-120320745D01*
X137760041Y-120248366D01*
X137725789Y-120150478D01*
X137629816Y-119997738D01*
X137502262Y-119870184D01*
X137456537Y-119841453D01*
X137349523Y-119774211D01*
X137179254Y-119714631D01*
X137179249Y-119714630D01*
X137000004Y-119694435D01*
X136999996Y-119694435D01*
X136935388Y-119701714D01*
X136866566Y-119689659D01*
X136815187Y-119642310D01*
X136797563Y-119574699D01*
X136798285Y-119564610D01*
X136805565Y-119500002D01*
X136805565Y-119499996D01*
X136785369Y-119320750D01*
X136785368Y-119320745D01*
X136767548Y-119269818D01*
X136725789Y-119150478D01*
X136629816Y-118997738D01*
X136502262Y-118870184D01*
X136349523Y-118774211D01*
X136179254Y-118714631D01*
X136179249Y-118714630D01*
X136000004Y-118694435D01*
X135999996Y-118694435D01*
X135820750Y-118714630D01*
X135820745Y-118714631D01*
X135650476Y-118774211D01*
X135497737Y-118870184D01*
X135370184Y-118997737D01*
X135274211Y-119150476D01*
X135214631Y-119320745D01*
X135214630Y-119320750D01*
X135194435Y-119499996D01*
X135194435Y-119500003D01*
X135214630Y-119679249D01*
X135214633Y-119679262D01*
X135246970Y-119771674D01*
X135250532Y-119841453D01*
X135217610Y-119900310D01*
X135212680Y-119905240D01*
X135151357Y-119938725D01*
X135081665Y-119933741D01*
X135037318Y-119905240D01*
X135002262Y-119870184D01*
X134849523Y-119774211D01*
X134679254Y-119714631D01*
X134679249Y-119714630D01*
X134500004Y-119694435D01*
X134499996Y-119694435D01*
X134320750Y-119714630D01*
X134320745Y-119714631D01*
X134150476Y-119774211D01*
X133997737Y-119870184D01*
X133870184Y-119997737D01*
X133774211Y-120150476D01*
X133714631Y-120320745D01*
X133714630Y-120320750D01*
X133694435Y-120499996D01*
X131688518Y-120499996D01*
X131677468Y-120460894D01*
X131696469Y-120396184D01*
X131725788Y-120349524D01*
X131725790Y-120349518D01*
X131785368Y-120179255D01*
X131785369Y-120179249D01*
X131805565Y-120000003D01*
X131805565Y-119999996D01*
X131785369Y-119820750D01*
X131785368Y-119820745D01*
X131768197Y-119771674D01*
X131725789Y-119650478D01*
X131725786Y-119650474D01*
X131678174Y-119574699D01*
X131629816Y-119497738D01*
X131502262Y-119370184D01*
X131488975Y-119361835D01*
X131349521Y-119274210D01*
X131248217Y-119238763D01*
X131191441Y-119198041D01*
X131165693Y-119133089D01*
X131179149Y-119064527D01*
X131184177Y-119055750D01*
X131215451Y-119005977D01*
X131267785Y-118959685D01*
X131336838Y-118949036D01*
X131386418Y-118966955D01*
X131400475Y-118975788D01*
X131570745Y-119035368D01*
X131570750Y-119035369D01*
X131749996Y-119055565D01*
X131750000Y-119055565D01*
X131750004Y-119055565D01*
X131929249Y-119035369D01*
X131929252Y-119035368D01*
X131929255Y-119035368D01*
X132099522Y-118975789D01*
X132252262Y-118879816D01*
X132379816Y-118752262D01*
X132475789Y-118599522D01*
X132535368Y-118429255D01*
X132551004Y-118290480D01*
X132555565Y-118250003D01*
X132555565Y-118249996D01*
X132535369Y-118070750D01*
X132535368Y-118070745D01*
X132510613Y-118000000D01*
X132475789Y-117900478D01*
X132451696Y-117862135D01*
X132425689Y-117820745D01*
X132379816Y-117747738D01*
X132252262Y-117620184D01*
X132099523Y-117524211D01*
X131929254Y-117464631D01*
X131929249Y-117464630D01*
X131750004Y-117444435D01*
X131749996Y-117444435D01*
X131570750Y-117464630D01*
X131570745Y-117464631D01*
X131400476Y-117524211D01*
X131247737Y-117620184D01*
X131120182Y-117747739D01*
X131034547Y-117884026D01*
X130982212Y-117930316D01*
X130913159Y-117940964D01*
X130863583Y-117923047D01*
X130849525Y-117914214D01*
X130679254Y-117854633D01*
X130679249Y-117854632D01*
X130500004Y-117834437D01*
X130499996Y-117834437D01*
X130320750Y-117854632D01*
X130320745Y-117854633D01*
X130150476Y-117914213D01*
X129997737Y-118010186D01*
X129870184Y-118137739D01*
X129774211Y-118290478D01*
X129714631Y-118460747D01*
X129714630Y-118460752D01*
X129694435Y-118639998D01*
X122245625Y-118639998D01*
X122390625Y-113999996D01*
X125194435Y-113999996D01*
X125194435Y-114000003D01*
X125214630Y-114179249D01*
X125214631Y-114179254D01*
X125274211Y-114349523D01*
X125326818Y-114433246D01*
X125370184Y-114502262D01*
X125497738Y-114629816D01*
X125650478Y-114725789D01*
X125719678Y-114750003D01*
X125820745Y-114785368D01*
X125820750Y-114785369D01*
X125999996Y-114805565D01*
X126000000Y-114805565D01*
X126000003Y-114805565D01*
X126122559Y-114791756D01*
X126176395Y-114785690D01*
X126245217Y-114797744D01*
X126296597Y-114845093D01*
X126314221Y-114912704D01*
X126295273Y-114974882D01*
X126224211Y-115087976D01*
X126164631Y-115258245D01*
X126164630Y-115258250D01*
X126144435Y-115437496D01*
X126144435Y-115437503D01*
X126164630Y-115616749D01*
X126164631Y-115616754D01*
X126224211Y-115787023D01*
X126276464Y-115870182D01*
X126320184Y-115939762D01*
X126447738Y-116067316D01*
X126600478Y-116163289D01*
X126747208Y-116214632D01*
X126770745Y-116222868D01*
X126770750Y-116222869D01*
X126949996Y-116243065D01*
X126950000Y-116243065D01*
X126950004Y-116243065D01*
X127072386Y-116229276D01*
X127141207Y-116241331D01*
X127192587Y-116288680D01*
X127210211Y-116356290D01*
X127209489Y-116366379D01*
X127194435Y-116499995D01*
X127194435Y-116500003D01*
X127214630Y-116679249D01*
X127214631Y-116679254D01*
X127274211Y-116849523D01*
X127368763Y-117000000D01*
X127370184Y-117002262D01*
X127497738Y-117129816D01*
X127650478Y-117225789D01*
X127820745Y-117285368D01*
X127820750Y-117285369D01*
X127999996Y-117305565D01*
X128000000Y-117305565D01*
X128000004Y-117305565D01*
X128179249Y-117285369D01*
X128179252Y-117285368D01*
X128179255Y-117285368D01*
X128349522Y-117225789D01*
X128502262Y-117129816D01*
X128629816Y-117002262D01*
X128725789Y-116849522D01*
X128785368Y-116679255D01*
X128785369Y-116679249D01*
X128805565Y-116500003D01*
X128805565Y-116499996D01*
X128785369Y-116320750D01*
X128785368Y-116320745D01*
X128769085Y-116274211D01*
X128725789Y-116150478D01*
X128629816Y-115997738D01*
X128502262Y-115870184D01*
X128502259Y-115870182D01*
X128349523Y-115774211D01*
X128179254Y-115714631D01*
X128179249Y-115714630D01*
X128000004Y-115694435D01*
X127999995Y-115694435D01*
X127877612Y-115708223D01*
X127808791Y-115696168D01*
X127757412Y-115648818D01*
X127739788Y-115581208D01*
X127740510Y-115571119D01*
X127755565Y-115437502D01*
X127755565Y-115437496D01*
X127735369Y-115258250D01*
X127735368Y-115258245D01*
X127720512Y-115215788D01*
X127675789Y-115087978D01*
X127647275Y-115042599D01*
X127620507Y-114999998D01*
X127579816Y-114935238D01*
X127452262Y-114807684D01*
X127416748Y-114785369D01*
X127299523Y-114711711D01*
X127129254Y-114652131D01*
X127129249Y-114652130D01*
X126950004Y-114631935D01*
X126949996Y-114631935D01*
X126773603Y-114651809D01*
X126704781Y-114639754D01*
X126653402Y-114592405D01*
X126635778Y-114524795D01*
X126654727Y-114462616D01*
X126725788Y-114349524D01*
X126739356Y-114310750D01*
X126785368Y-114179255D01*
X126785369Y-114179249D01*
X126805565Y-114000003D01*
X126805565Y-113999996D01*
X126785369Y-113820750D01*
X126785368Y-113820745D01*
X126768048Y-113771248D01*
X126725789Y-113650478D01*
X126631235Y-113499996D01*
X128444435Y-113499996D01*
X128444435Y-113500003D01*
X128464630Y-113679249D01*
X128464631Y-113679254D01*
X128524211Y-113849523D01*
X128547579Y-113886712D01*
X128620184Y-114002262D01*
X128747738Y-114129816D01*
X128900478Y-114225789D01*
X129006761Y-114262979D01*
X129070745Y-114285368D01*
X129070750Y-114285369D01*
X129249996Y-114305565D01*
X129250000Y-114305565D01*
X129250004Y-114305565D01*
X129429249Y-114285369D01*
X129429252Y-114285368D01*
X129429255Y-114285368D01*
X129599522Y-114225789D01*
X129752262Y-114129816D01*
X129879816Y-114002262D01*
X129975789Y-113849522D01*
X130035368Y-113679255D01*
X130035369Y-113679249D01*
X130055565Y-113500003D01*
X130055565Y-113499996D01*
X130035369Y-113320750D01*
X130035368Y-113320745D01*
X130010612Y-113249996D01*
X130944435Y-113249996D01*
X130944435Y-113250003D01*
X130964630Y-113429249D01*
X130964631Y-113429254D01*
X131024211Y-113599523D01*
X131103550Y-113725789D01*
X131120184Y-113752262D01*
X131247738Y-113879816D01*
X131250767Y-113881719D01*
X131400477Y-113975789D01*
X131406128Y-113978510D01*
X131457988Y-114025332D01*
X131476302Y-114092758D01*
X131455255Y-114159383D01*
X131440010Y-114177912D01*
X131370183Y-114247739D01*
X131274211Y-114400476D01*
X131214631Y-114570745D01*
X131214630Y-114570750D01*
X131194435Y-114749996D01*
X131194435Y-114750003D01*
X131214630Y-114929249D01*
X131214631Y-114929254D01*
X131274211Y-115099523D01*
X131347266Y-115215788D01*
X131370184Y-115252262D01*
X131497738Y-115379816D01*
X131650478Y-115475789D01*
X131744298Y-115508618D01*
X131820745Y-115535368D01*
X131820750Y-115535369D01*
X131999996Y-115555565D01*
X132000000Y-115555565D01*
X132000002Y-115555565D01*
X132047042Y-115550264D01*
X132067496Y-115547960D01*
X132136318Y-115560014D01*
X132187697Y-115607363D01*
X132205322Y-115674973D01*
X132183596Y-115741379D01*
X132147353Y-115776173D01*
X131997739Y-115870182D01*
X131870184Y-115997737D01*
X131774211Y-116150476D01*
X131714631Y-116320745D01*
X131714630Y-116320750D01*
X131694435Y-116499996D01*
X131694435Y-116500003D01*
X131714630Y-116679249D01*
X131714631Y-116679254D01*
X131774211Y-116849523D01*
X131868763Y-117000000D01*
X131870184Y-117002262D01*
X131997738Y-117129816D01*
X132150478Y-117225789D01*
X132320745Y-117285368D01*
X132320750Y-117285369D01*
X132499996Y-117305565D01*
X132500000Y-117305565D01*
X132500004Y-117305565D01*
X132679249Y-117285369D01*
X132679252Y-117285368D01*
X132679255Y-117285368D01*
X132849522Y-117225789D01*
X133002262Y-117129816D01*
X133129816Y-117002262D01*
X133225789Y-116849522D01*
X133285368Y-116679255D01*
X133285369Y-116679249D01*
X133305565Y-116500003D01*
X133305565Y-116499996D01*
X133285369Y-116320750D01*
X133285368Y-116320745D01*
X133269085Y-116274211D01*
X133225789Y-116150478D01*
X133129816Y-115997738D01*
X133002262Y-115870184D01*
X133002259Y-115870182D01*
X132849523Y-115774211D01*
X132679254Y-115714631D01*
X132679249Y-115714630D01*
X132500004Y-115694435D01*
X132499995Y-115694435D01*
X132432501Y-115702039D01*
X132363680Y-115689984D01*
X132312301Y-115642634D01*
X132294677Y-115575024D01*
X132316404Y-115508618D01*
X132352645Y-115473826D01*
X132502262Y-115379816D01*
X132629816Y-115252262D01*
X132725789Y-115099522D01*
X132725790Y-115099520D01*
X132725840Y-115099378D01*
X132725898Y-115099295D01*
X132728812Y-115093247D01*
X132729870Y-115093756D01*
X132766557Y-115042599D01*
X132831508Y-115016847D01*
X132900071Y-115030298D01*
X132930565Y-115052643D01*
X132997738Y-115119816D01*
X133150478Y-115215789D01*
X133271825Y-115258250D01*
X133320745Y-115275368D01*
X133320750Y-115275369D01*
X133499996Y-115295565D01*
X133500000Y-115295565D01*
X133500004Y-115295565D01*
X133679249Y-115275369D01*
X133679252Y-115275368D01*
X133679255Y-115275368D01*
X133849522Y-115215789D01*
X134002262Y-115119816D01*
X134129816Y-114992262D01*
X134225789Y-114839522D01*
X134285368Y-114669255D01*
X134285369Y-114669249D01*
X134305565Y-114490003D01*
X134305565Y-114489996D01*
X134285369Y-114310750D01*
X134285368Y-114310745D01*
X134263321Y-114247738D01*
X134225789Y-114140478D01*
X134213037Y-114120184D01*
X134138942Y-114002262D01*
X134129816Y-113987738D01*
X134129815Y-113987737D01*
X134125475Y-113982295D01*
X134127202Y-113980917D01*
X134098777Y-113928861D01*
X134103761Y-113859169D01*
X134145633Y-113803236D01*
X134178989Y-113785461D01*
X134179255Y-113785368D01*
X134349522Y-113725789D01*
X134502262Y-113629816D01*
X134629816Y-113502262D01*
X134725789Y-113349522D01*
X134785368Y-113179255D01*
X134785369Y-113179249D01*
X134805565Y-113000003D01*
X134805565Y-112999996D01*
X134785369Y-112820750D01*
X134785368Y-112820745D01*
X134725788Y-112650476D01*
X134666151Y-112555565D01*
X134629816Y-112497738D01*
X134502262Y-112370184D01*
X134349523Y-112274211D01*
X134179254Y-112214631D01*
X134179249Y-112214630D01*
X134000004Y-112194435D01*
X133999996Y-112194435D01*
X133820750Y-112214630D01*
X133820745Y-112214631D01*
X133650476Y-112274211D01*
X133497737Y-112370184D01*
X133370184Y-112497737D01*
X133274211Y-112650476D01*
X133214631Y-112820745D01*
X133214630Y-112820749D01*
X133205619Y-112900730D01*
X133178552Y-112965144D01*
X133120957Y-113004699D01*
X133051120Y-113006836D01*
X133041445Y-113003888D01*
X132929257Y-112964632D01*
X132929249Y-112964630D01*
X132750004Y-112944435D01*
X132749996Y-112944435D01*
X132597136Y-112961657D01*
X132528314Y-112949602D01*
X132478259Y-112904409D01*
X132456754Y-112870184D01*
X132379816Y-112747738D01*
X132252262Y-112620184D01*
X132149422Y-112555565D01*
X132099523Y-112524211D01*
X131929254Y-112464631D01*
X131929249Y-112464630D01*
X131750004Y-112444435D01*
X131749996Y-112444435D01*
X131570750Y-112464630D01*
X131570745Y-112464631D01*
X131400476Y-112524211D01*
X131247737Y-112620184D01*
X131120184Y-112747737D01*
X131024211Y-112900476D01*
X130964631Y-113070745D01*
X130964630Y-113070750D01*
X130944435Y-113249996D01*
X130010612Y-113249996D01*
X129991170Y-113194435D01*
X129975789Y-113150478D01*
X129879816Y-112997738D01*
X129752262Y-112870184D01*
X129599523Y-112774211D01*
X129429254Y-112714631D01*
X129429249Y-112714630D01*
X129250004Y-112694435D01*
X129249996Y-112694435D01*
X129070750Y-112714630D01*
X129070745Y-112714631D01*
X128900476Y-112774211D01*
X128747737Y-112870184D01*
X128620184Y-112997737D01*
X128524211Y-113150476D01*
X128464631Y-113320745D01*
X128464630Y-113320750D01*
X128444435Y-113499996D01*
X126631235Y-113499996D01*
X126629816Y-113497738D01*
X126502262Y-113370184D01*
X126469379Y-113349522D01*
X126349523Y-113274211D01*
X126179254Y-113214631D01*
X126179249Y-113214630D01*
X126000004Y-113194435D01*
X125999996Y-113194435D01*
X125820750Y-113214630D01*
X125820745Y-113214631D01*
X125650476Y-113274211D01*
X125497737Y-113370184D01*
X125370184Y-113497737D01*
X125274211Y-113650476D01*
X125214631Y-113820745D01*
X125214630Y-113820750D01*
X125194435Y-113999996D01*
X122390625Y-113999996D01*
X122394321Y-113881719D01*
X122416088Y-113815331D01*
X122470296Y-113771248D01*
X122477288Y-113768560D01*
X122599522Y-113725789D01*
X122752262Y-113629816D01*
X122879816Y-113502262D01*
X122975789Y-113349522D01*
X123035368Y-113179255D01*
X123035369Y-113179249D01*
X123055565Y-113000003D01*
X123055565Y-112999996D01*
X123035369Y-112820750D01*
X123035368Y-112820745D01*
X122975788Y-112650476D01*
X122916151Y-112555565D01*
X122879816Y-112497738D01*
X122752262Y-112370184D01*
X122599524Y-112274212D01*
X122599520Y-112274210D01*
X122532056Y-112250603D01*
X122475280Y-112209881D01*
X122449533Y-112144928D01*
X122449072Y-112129689D01*
X122450757Y-112075788D01*
X122496246Y-110620126D01*
X122518014Y-110553735D01*
X122572222Y-110509652D01*
X122620185Y-110500000D01*
X124566560Y-110500000D01*
X124633599Y-110519685D01*
X124654241Y-110536319D01*
X124747738Y-110629816D01*
X124826412Y-110679250D01*
X124891557Y-110720184D01*
X124900478Y-110725789D01*
X125070742Y-110785367D01*
X125070745Y-110785368D01*
X125070750Y-110785369D01*
X125249996Y-110805565D01*
X125250000Y-110805565D01*
X125250004Y-110805565D01*
X125429249Y-110785369D01*
X125429252Y-110785368D01*
X125429255Y-110785368D01*
X125599522Y-110725789D01*
X125752262Y-110629816D01*
X125845759Y-110536319D01*
X125907082Y-110502834D01*
X125933440Y-110500000D01*
X126433622Y-110500000D01*
X126500661Y-110519685D01*
X126546416Y-110572489D01*
X126556842Y-110610117D01*
X126564630Y-110679250D01*
X126564631Y-110679254D01*
X126624211Y-110849523D01*
X126683849Y-110944435D01*
X126720184Y-111002262D01*
X126847738Y-111129816D01*
X127000478Y-111225789D01*
X127063205Y-111247738D01*
X127170745Y-111285368D01*
X127170750Y-111285369D01*
X127349996Y-111305565D01*
X127350000Y-111305565D01*
X127350004Y-111305565D01*
X127529249Y-111285369D01*
X127529252Y-111285368D01*
X127529255Y-111285368D01*
X127699522Y-111225789D01*
X127852262Y-111129816D01*
X127979816Y-111002262D01*
X128056851Y-110879660D01*
X128079494Y-110843626D01*
X128082510Y-110845521D01*
X128117705Y-110805092D01*
X128170623Y-110786340D01*
X128179255Y-110785368D01*
X128349522Y-110725789D01*
X128502262Y-110629816D01*
X128595759Y-110536319D01*
X128657082Y-110502834D01*
X128683440Y-110500000D01*
X129569469Y-110500000D01*
X129636508Y-110519685D01*
X129682263Y-110572489D01*
X129692207Y-110641647D01*
X129663182Y-110705203D01*
X129651606Y-110716315D01*
X129520184Y-110847737D01*
X129424211Y-111000476D01*
X129364631Y-111170745D01*
X129364630Y-111170750D01*
X129344435Y-111349996D01*
X129344435Y-111350003D01*
X129364630Y-111529249D01*
X129364631Y-111529254D01*
X129424211Y-111699523D01*
X129446999Y-111735789D01*
X129520184Y-111852262D01*
X129647738Y-111979816D01*
X129800478Y-112075789D01*
X129954515Y-112129689D01*
X129970745Y-112135368D01*
X129970750Y-112135369D01*
X130149996Y-112155565D01*
X130150000Y-112155565D01*
X130150004Y-112155565D01*
X130329249Y-112135369D01*
X130329252Y-112135368D01*
X130329255Y-112135368D01*
X130499522Y-112075789D01*
X130652262Y-111979816D01*
X130779816Y-111852262D01*
X130875789Y-111699522D01*
X130935368Y-111529255D01*
X130949878Y-111400478D01*
X130955565Y-111350003D01*
X130955565Y-111349996D01*
X130935369Y-111170750D01*
X130935368Y-111170745D01*
X130899340Y-111067782D01*
X130875789Y-111000478D01*
X130853265Y-110964632D01*
X130815114Y-110903914D01*
X130779816Y-110847738D01*
X130652262Y-110720184D01*
X130587124Y-110679255D01*
X130499523Y-110624211D01*
X130329254Y-110564631D01*
X130329249Y-110564630D01*
X130150004Y-110544435D01*
X130149997Y-110544435D01*
X130137878Y-110545800D01*
X130069057Y-110533742D01*
X130017680Y-110486391D01*
X130000000Y-110422579D01*
X130000000Y-109666378D01*
X130019685Y-109599339D01*
X130072489Y-109553584D01*
X130110117Y-109543158D01*
X130179250Y-109535369D01*
X130179253Y-109535368D01*
X130179255Y-109535368D01*
X130349522Y-109475789D01*
X130502262Y-109379816D01*
X130629816Y-109252262D01*
X130725789Y-109099522D01*
X130785368Y-108929255D01*
X130797594Y-108820745D01*
X130805565Y-108750003D01*
X130805565Y-108749996D01*
X130785369Y-108570750D01*
X130785368Y-108570745D01*
X130725788Y-108400476D01*
X130666151Y-108305565D01*
X130629816Y-108247738D01*
X130502262Y-108120184D01*
X130349523Y-108024211D01*
X130280321Y-107999996D01*
X134194435Y-107999996D01*
X134194435Y-108000003D01*
X134214630Y-108179249D01*
X134214631Y-108179254D01*
X134274211Y-108349523D01*
X134367341Y-108497738D01*
X134370184Y-108502262D01*
X134497738Y-108629816D01*
X134650478Y-108725789D01*
X134719678Y-108750003D01*
X134820745Y-108785368D01*
X134820750Y-108785369D01*
X134999996Y-108805565D01*
X135000000Y-108805565D01*
X135000004Y-108805565D01*
X135179249Y-108785369D01*
X135179252Y-108785368D01*
X135179255Y-108785368D01*
X135349522Y-108725789D01*
X135502262Y-108629816D01*
X135629816Y-108502262D01*
X135725789Y-108349522D01*
X135785368Y-108179255D01*
X135785369Y-108179249D01*
X135805565Y-108000003D01*
X135805565Y-107999996D01*
X135785369Y-107820750D01*
X135785368Y-107820745D01*
X135741170Y-107694435D01*
X135725789Y-107650478D01*
X135629816Y-107497738D01*
X135502262Y-107370184D01*
X135349523Y-107274211D01*
X135179254Y-107214631D01*
X135179249Y-107214630D01*
X135000004Y-107194435D01*
X134999996Y-107194435D01*
X134820750Y-107214630D01*
X134820745Y-107214631D01*
X134650476Y-107274211D01*
X134497737Y-107370184D01*
X134370184Y-107497737D01*
X134274211Y-107650476D01*
X134214631Y-107820745D01*
X134214630Y-107820750D01*
X134194435Y-107999996D01*
X130280321Y-107999996D01*
X130179254Y-107964631D01*
X130179250Y-107964630D01*
X130110116Y-107956841D01*
X130045702Y-107929774D01*
X130006147Y-107872179D01*
X130000000Y-107833621D01*
X130000000Y-105916378D01*
X130019685Y-105849339D01*
X130072489Y-105803584D01*
X130110117Y-105793158D01*
X130179250Y-105785369D01*
X130179253Y-105785368D01*
X130179255Y-105785368D01*
X130349522Y-105725789D01*
X130502262Y-105629816D01*
X130629816Y-105502262D01*
X130725789Y-105349522D01*
X130785368Y-105179255D01*
X130805565Y-105000000D01*
X130785368Y-104820745D01*
X130725789Y-104650478D01*
X130629816Y-104497738D01*
X130502262Y-104370184D01*
X130349522Y-104274211D01*
X130349519Y-104274209D01*
X130339386Y-104270663D01*
X130282612Y-104229939D01*
X130256867Y-104164986D01*
X130270325Y-104096425D01*
X130318714Y-104046023D01*
X130386671Y-104029784D01*
X130389789Y-104029983D01*
G37*
%TD.AperFunction*%
%TD*%
%TA.AperFunction,Conductor*%
%TO.N,5V*%
G36*
X114017576Y-100520185D02*
G01*
X114063331Y-100572989D01*
X114073275Y-100642147D01*
X114044250Y-100705703D01*
X113991492Y-100741541D01*
X113915959Y-100767971D01*
X113763216Y-100863946D01*
X113635663Y-100991499D01*
X113539690Y-101144238D01*
X113480110Y-101314507D01*
X113480109Y-101314512D01*
X113459914Y-101493758D01*
X113459914Y-101493765D01*
X113480109Y-101673011D01*
X113480110Y-101673016D01*
X113539690Y-101843285D01*
X113543610Y-101849523D01*
X113635663Y-101996024D01*
X113763217Y-102123578D01*
X113915957Y-102219551D01*
X114086224Y-102279130D01*
X114086229Y-102279131D01*
X114265475Y-102299327D01*
X114265479Y-102299327D01*
X114265483Y-102299327D01*
X114444728Y-102279131D01*
X114444731Y-102279130D01*
X114444734Y-102279130D01*
X114615001Y-102219551D01*
X114767741Y-102123578D01*
X114895295Y-101996024D01*
X114991268Y-101843284D01*
X115050847Y-101673017D01*
X115050848Y-101673011D01*
X115071044Y-101493765D01*
X115071044Y-101493758D01*
X115050848Y-101314512D01*
X115050847Y-101314507D01*
X115036747Y-101274211D01*
X114991268Y-101144240D01*
X114895295Y-100991500D01*
X114767741Y-100863946D01*
X114615001Y-100767973D01*
X114614998Y-100767971D01*
X114539466Y-100741541D01*
X114482690Y-100700820D01*
X114456943Y-100635867D01*
X114470399Y-100567305D01*
X114518787Y-100516903D01*
X114580421Y-100500500D01*
X130202886Y-100500500D01*
X130269925Y-100520185D01*
X130315680Y-100572989D01*
X130325624Y-100642147D01*
X130296599Y-100705703D01*
X130243840Y-100741542D01*
X130150478Y-100774210D01*
X129997737Y-100870184D01*
X129870184Y-100997737D01*
X129774211Y-101150476D01*
X129714631Y-101320745D01*
X129714630Y-101320750D01*
X129694435Y-101499996D01*
X129694435Y-101500003D01*
X129714630Y-101679249D01*
X129714631Y-101679254D01*
X129774211Y-101849523D01*
X129866264Y-101996024D01*
X129870184Y-102002262D01*
X129997738Y-102129816D01*
X130076410Y-102179249D01*
X130140548Y-102219550D01*
X130150478Y-102225789D01*
X130302918Y-102279130D01*
X130320745Y-102285368D01*
X130320750Y-102285369D01*
X130499996Y-102305565D01*
X130500000Y-102305565D01*
X130500004Y-102305565D01*
X130679249Y-102285369D01*
X130679252Y-102285368D01*
X130679255Y-102285368D01*
X130849522Y-102225789D01*
X131002262Y-102129816D01*
X131129816Y-102002262D01*
X131131240Y-101999996D01*
X135694435Y-101999996D01*
X135694435Y-102000003D01*
X135714630Y-102179249D01*
X135714631Y-102179254D01*
X135774211Y-102349523D01*
X135868760Y-102499996D01*
X135870184Y-102502262D01*
X135997738Y-102629816D01*
X136076410Y-102679249D01*
X136132721Y-102714632D01*
X136150478Y-102725789D01*
X136288860Y-102774211D01*
X136320745Y-102785368D01*
X136320750Y-102785369D01*
X136499996Y-102805565D01*
X136500000Y-102805565D01*
X136500004Y-102805565D01*
X136679249Y-102785369D01*
X136679252Y-102785368D01*
X136679255Y-102785368D01*
X136849522Y-102725789D01*
X137002262Y-102629816D01*
X137129816Y-102502262D01*
X137131240Y-102499996D01*
X142194435Y-102499996D01*
X142194435Y-102500003D01*
X142214630Y-102679249D01*
X142214631Y-102679254D01*
X142274211Y-102849523D01*
X142327309Y-102934027D01*
X142370184Y-103002262D01*
X142497738Y-103129816D01*
X142650478Y-103225789D01*
X142820745Y-103285368D01*
X142820750Y-103285369D01*
X142999996Y-103305565D01*
X143000000Y-103305565D01*
X143000004Y-103305565D01*
X143179249Y-103285369D01*
X143179252Y-103285368D01*
X143179255Y-103285368D01*
X143349522Y-103225789D01*
X143502262Y-103129816D01*
X143629816Y-103002262D01*
X143725789Y-102849522D01*
X143785368Y-102679255D01*
X143785369Y-102679249D01*
X143805565Y-102500003D01*
X143805565Y-102499996D01*
X143794033Y-102397648D01*
X146699500Y-102397648D01*
X146699500Y-102602351D01*
X146731522Y-102804534D01*
X146794781Y-102999223D01*
X146858691Y-103124653D01*
X146871850Y-103150478D01*
X146887715Y-103181613D01*
X147008028Y-103347213D01*
X147152786Y-103491971D01*
X147307749Y-103604556D01*
X147318390Y-103612287D01*
X147430469Y-103669394D01*
X147500776Y-103705218D01*
X147500778Y-103705218D01*
X147500781Y-103705220D01*
X147602332Y-103738216D01*
X147695465Y-103768477D01*
X147796557Y-103784488D01*
X147897648Y-103800500D01*
X147897649Y-103800500D01*
X148102351Y-103800500D01*
X148102352Y-103800500D01*
X148304534Y-103768477D01*
X148499219Y-103705220D01*
X148681610Y-103612287D01*
X148783685Y-103538126D01*
X148847213Y-103491971D01*
X148847215Y-103491968D01*
X148847219Y-103491966D01*
X148991966Y-103347219D01*
X148991968Y-103347215D01*
X148991971Y-103347213D01*
X149080190Y-103225788D01*
X149112287Y-103181610D01*
X149205220Y-102999219D01*
X149268477Y-102804534D01*
X149300500Y-102602352D01*
X149300500Y-102397648D01*
X149292878Y-102349523D01*
X149268477Y-102195465D01*
X149205218Y-102000776D01*
X149138677Y-101870184D01*
X149112287Y-101818390D01*
X149104556Y-101807749D01*
X148991971Y-101652786D01*
X148847213Y-101508028D01*
X148681613Y-101387715D01*
X148681612Y-101387714D01*
X148681610Y-101387713D01*
X148624653Y-101358691D01*
X148499223Y-101294781D01*
X148304534Y-101231522D01*
X148129995Y-101203878D01*
X148102352Y-101199500D01*
X147897648Y-101199500D01*
X147873329Y-101203351D01*
X147695465Y-101231522D01*
X147500776Y-101294781D01*
X147318386Y-101387715D01*
X147152786Y-101508028D01*
X147008028Y-101652786D01*
X146887715Y-101818386D01*
X146794781Y-102000776D01*
X146731522Y-102195465D01*
X146699500Y-102397648D01*
X143794033Y-102397648D01*
X143785369Y-102320750D01*
X143785368Y-102320745D01*
X143780056Y-102305565D01*
X143725789Y-102150478D01*
X143629816Y-101997738D01*
X143502262Y-101870184D01*
X143459451Y-101843284D01*
X143349523Y-101774211D01*
X143179254Y-101714631D01*
X143179249Y-101714630D01*
X143000004Y-101694435D01*
X142999996Y-101694435D01*
X142820750Y-101714630D01*
X142820745Y-101714631D01*
X142650476Y-101774211D01*
X142497737Y-101870184D01*
X142370184Y-101997737D01*
X142274211Y-102150476D01*
X142214631Y-102320745D01*
X142214630Y-102320750D01*
X142194435Y-102499996D01*
X137131240Y-102499996D01*
X137225789Y-102349522D01*
X137285368Y-102179255D01*
X137285369Y-102179249D01*
X137305565Y-102000003D01*
X137305565Y-101999996D01*
X137285369Y-101820750D01*
X137285368Y-101820745D01*
X137241170Y-101694435D01*
X137225789Y-101650478D01*
X137129816Y-101497738D01*
X137002262Y-101370184D01*
X136849523Y-101274211D01*
X136679254Y-101214631D01*
X136679249Y-101214630D01*
X136500004Y-101194435D01*
X136499996Y-101194435D01*
X136320750Y-101214630D01*
X136320745Y-101214631D01*
X136150476Y-101274211D01*
X135997737Y-101370184D01*
X135870184Y-101497737D01*
X135774211Y-101650476D01*
X135714631Y-101820745D01*
X135714630Y-101820750D01*
X135694435Y-101999996D01*
X131131240Y-101999996D01*
X131225789Y-101849522D01*
X131285368Y-101679255D01*
X131286072Y-101673011D01*
X131305565Y-101500003D01*
X131305565Y-101499996D01*
X131285369Y-101320750D01*
X131285368Y-101320745D01*
X131254148Y-101231523D01*
X131225789Y-101150478D01*
X131221869Y-101144240D01*
X131129815Y-100997737D01*
X131002262Y-100870184D01*
X130849521Y-100774210D01*
X130756160Y-100741542D01*
X130699383Y-100700820D01*
X130673636Y-100635867D01*
X130687092Y-100567306D01*
X130735479Y-100516903D01*
X130797114Y-100500500D01*
X149875500Y-100500500D01*
X149942539Y-100520185D01*
X149988294Y-100572989D01*
X149999500Y-100624500D01*
X149999500Y-128875500D01*
X149979815Y-128942539D01*
X149927011Y-128988294D01*
X149875500Y-128999500D01*
X100624500Y-128999500D01*
X100557461Y-128979815D01*
X100511706Y-128927011D01*
X100500500Y-128875500D01*
X100500500Y-128348071D01*
X100520185Y-128281032D01*
X100572989Y-128235277D01*
X100642147Y-128225333D01*
X100665455Y-128231030D01*
X100820737Y-128285366D01*
X100820743Y-128285367D01*
X100820745Y-128285368D01*
X100820746Y-128285368D01*
X100820750Y-128285369D01*
X100999996Y-128305565D01*
X101000000Y-128305565D01*
X101000004Y-128305565D01*
X101179249Y-128285369D01*
X101179252Y-128285368D01*
X101179255Y-128285368D01*
X101349522Y-128225789D01*
X101502262Y-128129816D01*
X101629816Y-128002262D01*
X101725789Y-127849522D01*
X101785368Y-127679255D01*
X101785369Y-127679249D01*
X101805565Y-127500003D01*
X101805565Y-127499996D01*
X101785369Y-127320750D01*
X101785368Y-127320745D01*
X101725789Y-127150478D01*
X101629816Y-126997738D01*
X101529726Y-126897648D01*
X108449500Y-126897648D01*
X108449500Y-127102351D01*
X108481522Y-127304534D01*
X108544781Y-127499223D01*
X108607032Y-127621396D01*
X108636513Y-127679255D01*
X108637715Y-127681613D01*
X108758028Y-127847213D01*
X108902786Y-127991971D01*
X109030916Y-128085061D01*
X109068390Y-128112287D01*
X109184607Y-128171503D01*
X109250776Y-128205218D01*
X109250778Y-128205218D01*
X109250781Y-128205220D01*
X109314083Y-128225788D01*
X109445465Y-128268477D01*
X109524734Y-128281032D01*
X109647648Y-128300500D01*
X109647649Y-128300500D01*
X109852351Y-128300500D01*
X109852352Y-128300500D01*
X110054534Y-128268477D01*
X110249219Y-128205220D01*
X110431610Y-128112287D01*
X110525885Y-128043793D01*
X110597213Y-127991971D01*
X110597215Y-127991968D01*
X110597219Y-127991966D01*
X110741966Y-127847219D01*
X110741968Y-127847215D01*
X110741971Y-127847213D01*
X110837058Y-127716335D01*
X110862287Y-127681610D01*
X110952872Y-127503827D01*
X110955218Y-127499223D01*
X110955218Y-127499222D01*
X110955220Y-127499219D01*
X111018477Y-127304534D01*
X111050500Y-127102352D01*
X111050500Y-126999996D01*
X113694435Y-126999996D01*
X113694435Y-127000003D01*
X113714630Y-127179249D01*
X113714631Y-127179254D01*
X113774211Y-127349523D01*
X113854994Y-127478087D01*
X113870184Y-127502262D01*
X113997738Y-127629816D01*
X114037793Y-127654984D01*
X114135433Y-127716336D01*
X114150478Y-127725789D01*
X114320745Y-127785368D01*
X114320750Y-127785369D01*
X114499996Y-127805565D01*
X114500000Y-127805565D01*
X114500004Y-127805565D01*
X114679249Y-127785369D01*
X114679252Y-127785368D01*
X114679255Y-127785368D01*
X114849522Y-127725789D01*
X115002262Y-127629816D01*
X115129816Y-127502262D01*
X115225789Y-127349522D01*
X115285368Y-127179255D01*
X115285369Y-127179249D01*
X115305565Y-127000003D01*
X115305565Y-126999996D01*
X115285369Y-126820750D01*
X115285368Y-126820745D01*
X115241531Y-126695466D01*
X115225789Y-126650478D01*
X115129816Y-126497738D01*
X115002262Y-126370184D01*
X115002254Y-126370179D01*
X114849523Y-126274211D01*
X114679254Y-126214631D01*
X114679249Y-126214630D01*
X114500004Y-126194435D01*
X114499996Y-126194435D01*
X114320750Y-126214630D01*
X114320745Y-126214631D01*
X114150476Y-126274211D01*
X113997737Y-126370184D01*
X113870184Y-126497737D01*
X113774211Y-126650476D01*
X113714631Y-126820745D01*
X113714630Y-126820750D01*
X113694435Y-126999996D01*
X111050500Y-126999996D01*
X111050500Y-126897648D01*
X111035398Y-126802298D01*
X111018477Y-126695465D01*
X110963149Y-126525185D01*
X110955220Y-126500781D01*
X110955218Y-126500778D01*
X110955218Y-126500776D01*
X110921503Y-126434607D01*
X110862287Y-126318390D01*
X110854556Y-126307749D01*
X110741971Y-126152786D01*
X110597213Y-126008028D01*
X110431613Y-125887715D01*
X110431612Y-125887714D01*
X110431610Y-125887713D01*
X110342543Y-125842331D01*
X110249223Y-125794781D01*
X110054534Y-125731522D01*
X109879995Y-125703878D01*
X109852352Y-125699500D01*
X109647648Y-125699500D01*
X109623329Y-125703351D01*
X109445465Y-125731522D01*
X109250776Y-125794781D01*
X109068386Y-125887715D01*
X108902786Y-126008028D01*
X108758028Y-126152786D01*
X108637715Y-126318386D01*
X108544781Y-126500776D01*
X108481522Y-126695465D01*
X108449500Y-126897648D01*
X101529726Y-126897648D01*
X101502262Y-126870184D01*
X101472858Y-126851708D01*
X101349523Y-126774211D01*
X101179254Y-126714631D01*
X101179249Y-126714630D01*
X101000004Y-126694435D01*
X100999996Y-126694435D01*
X100820750Y-126714630D01*
X100820742Y-126714632D01*
X100665454Y-126768970D01*
X100595676Y-126772531D01*
X100535048Y-126737802D01*
X100502821Y-126675809D01*
X100500500Y-126651928D01*
X100500500Y-124194196D01*
X100520185Y-124127157D01*
X100572989Y-124081402D01*
X100642147Y-124071458D01*
X100705703Y-124100483D01*
X100736881Y-124141790D01*
X100794116Y-124264529D01*
X100825965Y-124332830D01*
X100825967Y-124332834D01*
X100858430Y-124379195D01*
X100961505Y-124526401D01*
X101128599Y-124693495D01*
X101203050Y-124745626D01*
X101322165Y-124829032D01*
X101322167Y-124829033D01*
X101322170Y-124829035D01*
X101536337Y-124928903D01*
X101536343Y-124928904D01*
X101536344Y-124928905D01*
X101582925Y-124941386D01*
X101764592Y-124990063D01*
X101952918Y-125006539D01*
X101999999Y-125010659D01*
X102000000Y-125010659D01*
X102000001Y-125010659D01*
X102039234Y-125007226D01*
X102121873Y-124999996D01*
X106194435Y-124999996D01*
X106194435Y-125000003D01*
X106214630Y-125179249D01*
X106214631Y-125179254D01*
X106274211Y-125349523D01*
X106333357Y-125443653D01*
X106370184Y-125502262D01*
X106497738Y-125629816D01*
X106650478Y-125725789D01*
X106820745Y-125785368D01*
X106820750Y-125785369D01*
X106999996Y-125805565D01*
X107000000Y-125805565D01*
X107000004Y-125805565D01*
X107179249Y-125785369D01*
X107179252Y-125785368D01*
X107179255Y-125785368D01*
X107349522Y-125725789D01*
X107502262Y-125629816D01*
X107629816Y-125502262D01*
X107725789Y-125349522D01*
X107785368Y-125179255D01*
X107805565Y-125000000D01*
X107804445Y-124990063D01*
X107785369Y-124820750D01*
X107785368Y-124820745D01*
X107740841Y-124693495D01*
X107725789Y-124650478D01*
X107631237Y-124500000D01*
X111644551Y-124500000D01*
X111664317Y-124751151D01*
X111723126Y-124996110D01*
X111819533Y-125228859D01*
X111951160Y-125443653D01*
X111951161Y-125443656D01*
X111951164Y-125443659D01*
X112114776Y-125635224D01*
X112227528Y-125731523D01*
X112306343Y-125798838D01*
X112306346Y-125798839D01*
X112521140Y-125930466D01*
X112708393Y-126008028D01*
X112753889Y-126026873D01*
X112998852Y-126085683D01*
X113250000Y-126105449D01*
X113501148Y-126085683D01*
X113746111Y-126026873D01*
X113978859Y-125930466D01*
X114193659Y-125798836D01*
X114385224Y-125635224D01*
X114548836Y-125443659D01*
X114680466Y-125228859D01*
X114776873Y-124996111D01*
X114835683Y-124751148D01*
X114855449Y-124500000D01*
X114835683Y-124248852D01*
X114776873Y-124003889D01*
X114727363Y-123884361D01*
X114680466Y-123771140D01*
X114548839Y-123556346D01*
X114548838Y-123556343D01*
X114501142Y-123500499D01*
X114500712Y-123499996D01*
X116194435Y-123499996D01*
X116194435Y-123500003D01*
X116214630Y-123679249D01*
X116214631Y-123679254D01*
X116274211Y-123849523D01*
X116342964Y-123958942D01*
X116370184Y-124002262D01*
X116497738Y-124129816D01*
X116535923Y-124153809D01*
X116632721Y-124214632D01*
X116650478Y-124225789D01*
X116739954Y-124257098D01*
X116820745Y-124285368D01*
X116820750Y-124285369D01*
X116999996Y-124305565D01*
X117000000Y-124305565D01*
X117000004Y-124305565D01*
X117179249Y-124285369D01*
X117179252Y-124285368D01*
X117179255Y-124285368D01*
X117349522Y-124225789D01*
X117502262Y-124129816D01*
X117629816Y-124002262D01*
X117725789Y-123849522D01*
X117785368Y-123679255D01*
X117788101Y-123654999D01*
X117805565Y-123500003D01*
X117805565Y-123499996D01*
X117785369Y-123320750D01*
X117785368Y-123320745D01*
X117750084Y-123219909D01*
X117725789Y-123150478D01*
X117698773Y-123107483D01*
X117661312Y-123047864D01*
X117629816Y-122997738D01*
X117502262Y-122870184D01*
X117459128Y-122843081D01*
X117349523Y-122774211D01*
X117179254Y-122714631D01*
X117179249Y-122714630D01*
X117000004Y-122694435D01*
X116999996Y-122694435D01*
X116820750Y-122714630D01*
X116820745Y-122714631D01*
X116650476Y-122774211D01*
X116497737Y-122870184D01*
X116370184Y-122997737D01*
X116274211Y-123150476D01*
X116214631Y-123320745D01*
X116214630Y-123320750D01*
X116194435Y-123499996D01*
X114500712Y-123499996D01*
X114385224Y-123364776D01*
X114215607Y-123219909D01*
X114193656Y-123201161D01*
X114193653Y-123201160D01*
X113978859Y-123069533D01*
X113746110Y-122973126D01*
X113501151Y-122914317D01*
X113250000Y-122894551D01*
X112998848Y-122914317D01*
X112753889Y-122973126D01*
X112521140Y-123069533D01*
X112306346Y-123201160D01*
X112306343Y-123201161D01*
X112114776Y-123364776D01*
X111951161Y-123556343D01*
X111951160Y-123556346D01*
X111819533Y-123771140D01*
X111723126Y-124003889D01*
X111664317Y-124248848D01*
X111644551Y-124500000D01*
X107631237Y-124500000D01*
X107629816Y-124497738D01*
X107502262Y-124370184D01*
X107349523Y-124274211D01*
X107179254Y-124214631D01*
X107179249Y-124214630D01*
X107000004Y-124194435D01*
X106999996Y-124194435D01*
X106820750Y-124214630D01*
X106820745Y-124214631D01*
X106650476Y-124274211D01*
X106497737Y-124370184D01*
X106370184Y-124497737D01*
X106274211Y-124650476D01*
X106214631Y-124820745D01*
X106214630Y-124820750D01*
X106194435Y-124999996D01*
X102121873Y-124999996D01*
X102235408Y-124990063D01*
X102463663Y-124928903D01*
X102677830Y-124829035D01*
X102871401Y-124693495D01*
X103038495Y-124526401D01*
X103174035Y-124332830D01*
X103273903Y-124118663D01*
X103335063Y-123890408D01*
X103355659Y-123655000D01*
X103335063Y-123419592D01*
X103284812Y-123232049D01*
X103273905Y-123191344D01*
X103273904Y-123191343D01*
X103273903Y-123191337D01*
X103174035Y-122977171D01*
X103171204Y-122973127D01*
X103038494Y-122783597D01*
X102871402Y-122616506D01*
X102871396Y-122616501D01*
X102685842Y-122486575D01*
X102642217Y-122431998D01*
X102635023Y-122362500D01*
X102666546Y-122300145D01*
X102685842Y-122283425D01*
X102784088Y-122214632D01*
X102871401Y-122153495D01*
X103024902Y-121999994D01*
X104954357Y-121999994D01*
X104954357Y-122000005D01*
X104974890Y-122247812D01*
X104974892Y-122247824D01*
X105035936Y-122488881D01*
X105135826Y-122716606D01*
X105271833Y-122924782D01*
X105271836Y-122924785D01*
X105440256Y-123107738D01*
X105636491Y-123260474D01*
X105636493Y-123260475D01*
X105805830Y-123352116D01*
X105855190Y-123378828D01*
X106090386Y-123459571D01*
X106335665Y-123500500D01*
X106584335Y-123500500D01*
X106829614Y-123459571D01*
X107064810Y-123378828D01*
X107283509Y-123260474D01*
X107350437Y-123208381D01*
X107366786Y-123195657D01*
X107431780Y-123170014D01*
X107500320Y-123183580D01*
X107550644Y-123232049D01*
X107551841Y-123234607D01*
X107551953Y-123234546D01*
X107556206Y-123242335D01*
X107642452Y-123357544D01*
X107642455Y-123357547D01*
X107757664Y-123443793D01*
X107757671Y-123443797D01*
X107892517Y-123494091D01*
X107892516Y-123494091D01*
X107899444Y-123494835D01*
X107952127Y-123500500D01*
X110047872Y-123500499D01*
X110107483Y-123494091D01*
X110242331Y-123443796D01*
X110357546Y-123357546D01*
X110443796Y-123242331D01*
X110494091Y-123107483D01*
X110500500Y-123047873D01*
X110500499Y-120952128D01*
X110494091Y-120892517D01*
X110491505Y-120885584D01*
X110443797Y-120757671D01*
X110443793Y-120757664D01*
X110357547Y-120642455D01*
X110357544Y-120642452D01*
X110242335Y-120556206D01*
X110242328Y-120556202D01*
X110107482Y-120505908D01*
X110107483Y-120505908D01*
X110047883Y-120499501D01*
X110047881Y-120499500D01*
X110047873Y-120499500D01*
X110047864Y-120499500D01*
X107952129Y-120499500D01*
X107952123Y-120499501D01*
X107892516Y-120505908D01*
X107757671Y-120556202D01*
X107757664Y-120556206D01*
X107642455Y-120642452D01*
X107642452Y-120642455D01*
X107556206Y-120757664D01*
X107551953Y-120765454D01*
X107548750Y-120763705D01*
X107517200Y-120805800D01*
X107451721Y-120830178D01*
X107383457Y-120815286D01*
X107366786Y-120804343D01*
X107342408Y-120785369D01*
X107283509Y-120739526D01*
X107120550Y-120651337D01*
X107064811Y-120621172D01*
X107064802Y-120621169D01*
X106829616Y-120540429D01*
X106584335Y-120499500D01*
X106335665Y-120499500D01*
X106090383Y-120540429D01*
X105855197Y-120621169D01*
X105855188Y-120621172D01*
X105636493Y-120739524D01*
X105440257Y-120892261D01*
X105271833Y-121075217D01*
X105135826Y-121283393D01*
X105035936Y-121511118D01*
X104974892Y-121752175D01*
X104974890Y-121752187D01*
X104954357Y-121999994D01*
X103024902Y-121999994D01*
X103038495Y-121986401D01*
X103174035Y-121792830D01*
X103273903Y-121578663D01*
X103335063Y-121350408D01*
X103355659Y-121115000D01*
X103335063Y-120879592D01*
X103282948Y-120685095D01*
X103273905Y-120651344D01*
X103273904Y-120651343D01*
X103273903Y-120651337D01*
X103174035Y-120437171D01*
X103132143Y-120377342D01*
X103038494Y-120243597D01*
X102871402Y-120076506D01*
X102871396Y-120076501D01*
X102685842Y-119946575D01*
X102642217Y-119891998D01*
X102635023Y-119822500D01*
X102666546Y-119760145D01*
X102685842Y-119743425D01*
X102736747Y-119707781D01*
X102871401Y-119613495D01*
X103038495Y-119446401D01*
X103174035Y-119252830D01*
X103273903Y-119038663D01*
X103335063Y-118810408D01*
X103355659Y-118575000D01*
X103349097Y-118499996D01*
X105694435Y-118499996D01*
X105694435Y-118500003D01*
X105714630Y-118679249D01*
X105714631Y-118679254D01*
X105774211Y-118849523D01*
X105831402Y-118940541D01*
X105870184Y-119002262D01*
X105997738Y-119129816D01*
X106059372Y-119168543D01*
X106132721Y-119214632D01*
X106150478Y-119225789D01*
X106280084Y-119271140D01*
X106320745Y-119285368D01*
X106320750Y-119285369D01*
X106499996Y-119305565D01*
X106500000Y-119305565D01*
X106500004Y-119305565D01*
X106679249Y-119285369D01*
X106679252Y-119285368D01*
X106679255Y-119285368D01*
X106849522Y-119225789D01*
X107002262Y-119129816D01*
X107129816Y-119002262D01*
X107225789Y-118849522D01*
X107285368Y-118679255D01*
X107289791Y-118639998D01*
X107305565Y-118500003D01*
X107305565Y-118499996D01*
X107285369Y-118320750D01*
X107285368Y-118320745D01*
X107275611Y-118292860D01*
X107225789Y-118150478D01*
X107201199Y-118111344D01*
X107174796Y-118069323D01*
X107131235Y-117999996D01*
X108194435Y-117999996D01*
X108194435Y-118000003D01*
X108214630Y-118179249D01*
X108214631Y-118179254D01*
X108274211Y-118349523D01*
X108304598Y-118397883D01*
X108370184Y-118502262D01*
X108497738Y-118629816D01*
X108576410Y-118679249D01*
X108611287Y-118701164D01*
X108650478Y-118725789D01*
X108800146Y-118778160D01*
X108820745Y-118785368D01*
X108820750Y-118785369D01*
X108999996Y-118805565D01*
X109000000Y-118805565D01*
X109000004Y-118805565D01*
X109179249Y-118785369D01*
X109179252Y-118785368D01*
X109179255Y-118785368D01*
X109349522Y-118725789D01*
X109502262Y-118629816D01*
X109629816Y-118502262D01*
X109725789Y-118349522D01*
X109785368Y-118179255D01*
X109787560Y-118159799D01*
X109805565Y-118000003D01*
X109805565Y-117999996D01*
X109785369Y-117820750D01*
X109785368Y-117820745D01*
X109748634Y-117715765D01*
X109725789Y-117650478D01*
X109704156Y-117616050D01*
X109686582Y-117588080D01*
X109629816Y-117497738D01*
X109502262Y-117370184D01*
X109447472Y-117335757D01*
X109349523Y-117274211D01*
X109280332Y-117250000D01*
X111644551Y-117250000D01*
X111664317Y-117501151D01*
X111723126Y-117746110D01*
X111819533Y-117978859D01*
X111951160Y-118193653D01*
X111951161Y-118193656D01*
X111951164Y-118193659D01*
X112114776Y-118385224D01*
X112249165Y-118500003D01*
X112285118Y-118530710D01*
X112323311Y-118589217D01*
X112323809Y-118659085D01*
X112286456Y-118718131D01*
X112285118Y-118719290D01*
X112114776Y-118864776D01*
X111951161Y-119056343D01*
X111951160Y-119056346D01*
X111819533Y-119271140D01*
X111723126Y-119503889D01*
X111664317Y-119748848D01*
X111649197Y-119940965D01*
X111644551Y-120000000D01*
X111647074Y-120032052D01*
X111664317Y-120251151D01*
X111723126Y-120496110D01*
X111819533Y-120728859D01*
X111951160Y-120943653D01*
X111951161Y-120943655D01*
X111951162Y-120943657D01*
X111951164Y-120943659D01*
X112114776Y-121135224D01*
X112230667Y-121234204D01*
X112306343Y-121298838D01*
X112306346Y-121298839D01*
X112521140Y-121430466D01*
X112715853Y-121511118D01*
X112753889Y-121526873D01*
X112998852Y-121585683D01*
X113250000Y-121605449D01*
X113501148Y-121585683D01*
X113746111Y-121526873D01*
X113978859Y-121430466D01*
X114193659Y-121298836D01*
X114385224Y-121135224D01*
X114548836Y-120943659D01*
X114548837Y-120943657D01*
X114548839Y-120943655D01*
X114548839Y-120943654D01*
X114680466Y-120728859D01*
X114776873Y-120496111D01*
X114835683Y-120251148D01*
X114855449Y-120000000D01*
X114855449Y-119999995D01*
X116694435Y-119999995D01*
X116694435Y-120000003D01*
X116714630Y-120179249D01*
X116714631Y-120179254D01*
X116774211Y-120349523D01*
X116860039Y-120486117D01*
X116870184Y-120502262D01*
X116997738Y-120629816D01*
X117150478Y-120725789D01*
X117189745Y-120739529D01*
X117320745Y-120785368D01*
X117320750Y-120785369D01*
X117499996Y-120805565D01*
X117500000Y-120805565D01*
X117500004Y-120805565D01*
X117679249Y-120785369D01*
X117679252Y-120785368D01*
X117679255Y-120785368D01*
X117849522Y-120725789D01*
X118002262Y-120629816D01*
X118066376Y-120565701D01*
X118127695Y-120532219D01*
X118197387Y-120537203D01*
X118253321Y-120579074D01*
X118268615Y-120605932D01*
X118319533Y-120728859D01*
X118451160Y-120943653D01*
X118451161Y-120943655D01*
X118451162Y-120943657D01*
X118451164Y-120943659D01*
X118614776Y-121135224D01*
X118730667Y-121234204D01*
X118806343Y-121298838D01*
X118806346Y-121298839D01*
X119021140Y-121430466D01*
X119215853Y-121511118D01*
X119253889Y-121526873D01*
X119498852Y-121585683D01*
X119750000Y-121605449D01*
X120001148Y-121585683D01*
X120246111Y-121526873D01*
X120478859Y-121430466D01*
X120693659Y-121298836D01*
X120885224Y-121135224D01*
X121048836Y-120943659D01*
X121048837Y-120943657D01*
X121048839Y-120943655D01*
X121048839Y-120943654D01*
X121180466Y-120728859D01*
X121276873Y-120496111D01*
X121335683Y-120251148D01*
X121355449Y-120000000D01*
X121335683Y-119748852D01*
X121276873Y-119503889D01*
X121248047Y-119434296D01*
X121180466Y-119271140D01*
X121048839Y-119056346D01*
X121048838Y-119056343D01*
X121004391Y-119004303D01*
X120975820Y-118940541D01*
X120986257Y-118871455D01*
X121032388Y-118818980D01*
X121055345Y-118807590D01*
X121092331Y-118793796D01*
X121207546Y-118707546D01*
X121293796Y-118592331D01*
X121344091Y-118457483D01*
X121350500Y-118397873D01*
X121350499Y-117377455D01*
X121370183Y-117310417D01*
X121422987Y-117264662D01*
X121488383Y-117254236D01*
X121500160Y-117255563D01*
X121500163Y-117255563D01*
X121500165Y-117255563D01*
X121559990Y-117248822D01*
X121641847Y-117239599D01*
X121710668Y-117251653D01*
X121762047Y-117299002D01*
X121779672Y-117366612D01*
X121779669Y-117366692D01*
X121740371Y-118624205D01*
X121740372Y-118624206D01*
X121739879Y-118639997D01*
X121739878Y-118640001D01*
X121697871Y-119984203D01*
X121697872Y-119984204D01*
X121697379Y-119999995D01*
X121697378Y-119999999D01*
X121658809Y-121234203D01*
X121658810Y-121234204D01*
X121658317Y-121249995D01*
X121658316Y-121249999D01*
X121628124Y-122216125D01*
X121606356Y-122282517D01*
X121570158Y-122317245D01*
X121517741Y-122350181D01*
X121517739Y-122350182D01*
X121390184Y-122477737D01*
X121294211Y-122630476D01*
X121234631Y-122800745D01*
X121234631Y-122800748D01*
X121229861Y-122843081D01*
X121202794Y-122907494D01*
X121145199Y-122947049D01*
X121075362Y-122949186D01*
X121063309Y-122945378D01*
X120957485Y-122905909D01*
X120957483Y-122905908D01*
X120897883Y-122899501D01*
X120897881Y-122899500D01*
X120897873Y-122899500D01*
X120897864Y-122899500D01*
X118602129Y-122899500D01*
X118602123Y-122899501D01*
X118542516Y-122905908D01*
X118407671Y-122956202D01*
X118407664Y-122956206D01*
X118292455Y-123042452D01*
X118292452Y-123042455D01*
X118206206Y-123157664D01*
X118206202Y-123157671D01*
X118155908Y-123292517D01*
X118149501Y-123352116D01*
X118149500Y-123352135D01*
X118149500Y-125647870D01*
X118149501Y-125647876D01*
X118155908Y-125707483D01*
X118206202Y-125842328D01*
X118206206Y-125842335D01*
X118292452Y-125957544D01*
X118292455Y-125957547D01*
X118407664Y-126043793D01*
X118407671Y-126043797D01*
X118549785Y-126096802D01*
X118549197Y-126098378D01*
X118601783Y-126128318D01*
X118634172Y-126190227D01*
X118627949Y-126259819D01*
X118585089Y-126314999D01*
X118578528Y-126319419D01*
X118497743Y-126370179D01*
X118497737Y-126370184D01*
X118370184Y-126497737D01*
X118274211Y-126650476D01*
X118214631Y-126820745D01*
X118214630Y-126820750D01*
X118194435Y-126999996D01*
X118194435Y-127000003D01*
X118214630Y-127179249D01*
X118214631Y-127179254D01*
X118274211Y-127349523D01*
X118354994Y-127478087D01*
X118370184Y-127502262D01*
X118497738Y-127629816D01*
X118537793Y-127654984D01*
X118635433Y-127716336D01*
X118650478Y-127725789D01*
X118820745Y-127785368D01*
X118820750Y-127785369D01*
X118999996Y-127805565D01*
X119000000Y-127805565D01*
X119000004Y-127805565D01*
X119179249Y-127785369D01*
X119179252Y-127785368D01*
X119179255Y-127785368D01*
X119349522Y-127725789D01*
X119502262Y-127629816D01*
X119629816Y-127502262D01*
X119725789Y-127349522D01*
X119785368Y-127179255D01*
X119785369Y-127179249D01*
X119805565Y-127000003D01*
X119805565Y-126999996D01*
X119785369Y-126820750D01*
X119785368Y-126820745D01*
X119741531Y-126695466D01*
X119725789Y-126650478D01*
X119629816Y-126497738D01*
X119502262Y-126370184D01*
X119502260Y-126370182D01*
X119437502Y-126329492D01*
X119391212Y-126277158D01*
X119380564Y-126208104D01*
X119408939Y-126144256D01*
X119467329Y-126105884D01*
X119503470Y-126100499D01*
X120897872Y-126100499D01*
X120957483Y-126094091D01*
X121092331Y-126043796D01*
X121207546Y-125957546D01*
X121288955Y-125848797D01*
X121344887Y-125806928D01*
X121414579Y-125801944D01*
X121475902Y-125835429D01*
X121509386Y-125896752D01*
X121512160Y-125926983D01*
X121505859Y-126128594D01*
X121507279Y-126185365D01*
X121507281Y-126185397D01*
X121509541Y-126213154D01*
X121509745Y-126214631D01*
X121517336Y-126269471D01*
X121564857Y-126405278D01*
X121583367Y-126440884D01*
X121596077Y-126465335D01*
X121597084Y-126467271D01*
X121604008Y-126480591D01*
X121611845Y-126487850D01*
X121680941Y-126584187D01*
X121680946Y-126584192D01*
X121702316Y-126600881D01*
X121743037Y-126657657D01*
X121746598Y-126727436D01*
X121743037Y-126739563D01*
X121714633Y-126820739D01*
X121714630Y-126820750D01*
X121694435Y-126999996D01*
X121694435Y-127000003D01*
X121714630Y-127179249D01*
X121714631Y-127179254D01*
X121774211Y-127349523D01*
X121854994Y-127478087D01*
X121870184Y-127502262D01*
X121997738Y-127629816D01*
X122037793Y-127654984D01*
X122135433Y-127716336D01*
X122150478Y-127725789D01*
X122320745Y-127785368D01*
X122320750Y-127785369D01*
X122499996Y-127805565D01*
X122500000Y-127805565D01*
X122500004Y-127805565D01*
X122679249Y-127785369D01*
X122679252Y-127785368D01*
X122679255Y-127785368D01*
X122849522Y-127725789D01*
X123002262Y-127629816D01*
X123129816Y-127502262D01*
X123225789Y-127349522D01*
X123285368Y-127179255D01*
X123288611Y-127150478D01*
X123303843Y-127015286D01*
X123330909Y-126950872D01*
X123388504Y-126911317D01*
X123418226Y-126905484D01*
X125070830Y-126787440D01*
X125139100Y-126802298D01*
X125188501Y-126851708D01*
X125203346Y-126919982D01*
X125202884Y-126925007D01*
X125199970Y-126950872D01*
X125194436Y-126999996D01*
X125194435Y-127000003D01*
X125214630Y-127179249D01*
X125214631Y-127179254D01*
X125274211Y-127349523D01*
X125354994Y-127478087D01*
X125370184Y-127502262D01*
X125497738Y-127629816D01*
X125537793Y-127654984D01*
X125635433Y-127716336D01*
X125650478Y-127725789D01*
X125820745Y-127785368D01*
X125820750Y-127785369D01*
X125999996Y-127805565D01*
X126000000Y-127805565D01*
X126000004Y-127805565D01*
X126179249Y-127785369D01*
X126179252Y-127785368D01*
X126179255Y-127785368D01*
X126349522Y-127725789D01*
X126502262Y-127629816D01*
X126629816Y-127502262D01*
X126645007Y-127478084D01*
X126697339Y-127431796D01*
X126766393Y-127421146D01*
X126830242Y-127449521D01*
X126854990Y-127478082D01*
X126870184Y-127502262D01*
X126997738Y-127629816D01*
X127037793Y-127654984D01*
X127135433Y-127716336D01*
X127150478Y-127725789D01*
X127320745Y-127785368D01*
X127320750Y-127785369D01*
X127499996Y-127805565D01*
X127500000Y-127805565D01*
X127500004Y-127805565D01*
X127679249Y-127785369D01*
X127679252Y-127785368D01*
X127679255Y-127785368D01*
X127849522Y-127725789D01*
X128002262Y-127629816D01*
X128129816Y-127502262D01*
X128225789Y-127349522D01*
X128285368Y-127179255D01*
X128285369Y-127179249D01*
X128305565Y-127000003D01*
X128305565Y-126999996D01*
X128285369Y-126820750D01*
X128285366Y-126820737D01*
X128249181Y-126717327D01*
X128245619Y-126647548D01*
X128280347Y-126586921D01*
X128342341Y-126554693D01*
X128357380Y-126552688D01*
X128624475Y-126533610D01*
X129013615Y-126505815D01*
X129022449Y-126505500D01*
X129204315Y-126505500D01*
X129334319Y-126488497D01*
X129371001Y-126478734D01*
X129395940Y-126472098D01*
X129395944Y-126472096D01*
X129395954Y-126472094D01*
X129454111Y-126448177D01*
X129523594Y-126440884D01*
X129552783Y-126450064D01*
X129586226Y-126465338D01*
X129653265Y-126485023D01*
X129653269Y-126485024D01*
X129795685Y-126505500D01*
X129795688Y-126505500D01*
X130450500Y-126505500D01*
X130517539Y-126525185D01*
X130563294Y-126577989D01*
X130574500Y-126629500D01*
X130574500Y-127647870D01*
X130574501Y-127647876D01*
X130580908Y-127707483D01*
X130631202Y-127842328D01*
X130631206Y-127842335D01*
X130717452Y-127957544D01*
X130717455Y-127957547D01*
X130832664Y-128043793D01*
X130832671Y-128043797D01*
X130967517Y-128094091D01*
X130967516Y-128094091D01*
X130974444Y-128094835D01*
X131027127Y-128100500D01*
X132822872Y-128100499D01*
X132882483Y-128094091D01*
X133017331Y-128043796D01*
X133132546Y-127957546D01*
X133218796Y-127842331D01*
X133267810Y-127710916D01*
X133309681Y-127654984D01*
X133375145Y-127630566D01*
X133443418Y-127645417D01*
X133471673Y-127666569D01*
X133593599Y-127788495D01*
X133679672Y-127848764D01*
X133787165Y-127924032D01*
X133787167Y-127924033D01*
X133787170Y-127924035D01*
X134001337Y-128023903D01*
X134229592Y-128085063D01*
X134406034Y-128100500D01*
X134464999Y-128105659D01*
X134465000Y-128105659D01*
X134465001Y-128105659D01*
X134523966Y-128100500D01*
X134700408Y-128085063D01*
X134928663Y-128023903D01*
X135142830Y-127924035D01*
X135336401Y-127788495D01*
X135503495Y-127621401D01*
X135633425Y-127435842D01*
X135688002Y-127392217D01*
X135757500Y-127385023D01*
X135819855Y-127416546D01*
X135836575Y-127435842D01*
X135894394Y-127518417D01*
X135966505Y-127621401D01*
X136133599Y-127788495D01*
X136219672Y-127848764D01*
X136327165Y-127924032D01*
X136327167Y-127924033D01*
X136327170Y-127924035D01*
X136541337Y-128023903D01*
X136769592Y-128085063D01*
X136946034Y-128100500D01*
X137004999Y-128105659D01*
X137005000Y-128105659D01*
X137005001Y-128105659D01*
X137063966Y-128100500D01*
X137240408Y-128085063D01*
X137468663Y-128023903D01*
X137682830Y-127924035D01*
X137876401Y-127788495D01*
X138043495Y-127621401D01*
X138173425Y-127435842D01*
X138228002Y-127392217D01*
X138297500Y-127385023D01*
X138359855Y-127416546D01*
X138376575Y-127435842D01*
X138434394Y-127518417D01*
X138506505Y-127621401D01*
X138673599Y-127788495D01*
X138759672Y-127848764D01*
X138867165Y-127924032D01*
X138867167Y-127924033D01*
X138867170Y-127924035D01*
X139081337Y-128023903D01*
X139309592Y-128085063D01*
X139486034Y-128100500D01*
X139544999Y-128105659D01*
X139545000Y-128105659D01*
X139545001Y-128105659D01*
X139603966Y-128100500D01*
X139780408Y-128085063D01*
X140008663Y-128023903D01*
X140222830Y-127924035D01*
X140416401Y-127788495D01*
X140583495Y-127621401D01*
X140713425Y-127435842D01*
X140768002Y-127392217D01*
X140837500Y-127385023D01*
X140899855Y-127416546D01*
X140916575Y-127435842D01*
X140974394Y-127518417D01*
X141046505Y-127621401D01*
X141213599Y-127788495D01*
X141299672Y-127848764D01*
X141407165Y-127924032D01*
X141407167Y-127924033D01*
X141407170Y-127924035D01*
X141621337Y-128023903D01*
X141849592Y-128085063D01*
X142026034Y-128100500D01*
X142084999Y-128105659D01*
X142085000Y-128105659D01*
X142085001Y-128105659D01*
X142143966Y-128100500D01*
X142320408Y-128085063D01*
X142548663Y-128023903D01*
X142762830Y-127924035D01*
X142870327Y-127848763D01*
X142936533Y-127826436D01*
X143004300Y-127843446D01*
X143022648Y-127856621D01*
X143039044Y-127870828D01*
X143079134Y-127905567D01*
X143079138Y-127905569D01*
X143192951Y-127957547D01*
X143210011Y-127965338D01*
X143277050Y-127985023D01*
X143277054Y-127985024D01*
X143419470Y-128005500D01*
X143419473Y-128005500D01*
X144375990Y-128005500D01*
X144376000Y-128005500D01*
X144483456Y-127993947D01*
X144534967Y-127982741D01*
X144569197Y-127971347D01*
X144637497Y-127948616D01*
X144637501Y-127948613D01*
X144637504Y-127948613D01*
X144758543Y-127870825D01*
X144811347Y-127825070D01*
X144905567Y-127716336D01*
X144965338Y-127585459D01*
X144985023Y-127518420D01*
X144985024Y-127518416D01*
X145005500Y-127376000D01*
X145005500Y-126897648D01*
X146699500Y-126897648D01*
X146699500Y-127102351D01*
X146731522Y-127304534D01*
X146794781Y-127499223D01*
X146857032Y-127621396D01*
X146886513Y-127679255D01*
X146887715Y-127681613D01*
X147008028Y-127847213D01*
X147152786Y-127991971D01*
X147280916Y-128085061D01*
X147318390Y-128112287D01*
X147434607Y-128171503D01*
X147500776Y-128205218D01*
X147500778Y-128205218D01*
X147500781Y-128205220D01*
X147564083Y-128225788D01*
X147695465Y-128268477D01*
X147774734Y-128281032D01*
X147897648Y-128300500D01*
X147897649Y-128300500D01*
X148102351Y-128300500D01*
X148102352Y-128300500D01*
X148304534Y-128268477D01*
X148499219Y-128205220D01*
X148681610Y-128112287D01*
X148775885Y-128043793D01*
X148847213Y-127991971D01*
X148847215Y-127991968D01*
X148847219Y-127991966D01*
X148991966Y-127847219D01*
X148991968Y-127847215D01*
X148991971Y-127847213D01*
X149087058Y-127716335D01*
X149112287Y-127681610D01*
X149202872Y-127503827D01*
X149205218Y-127499223D01*
X149205218Y-127499222D01*
X149205220Y-127499219D01*
X149268477Y-127304534D01*
X149300500Y-127102352D01*
X149300500Y-126897648D01*
X149285398Y-126802298D01*
X149268477Y-126695465D01*
X149213149Y-126525185D01*
X149205220Y-126500781D01*
X149205218Y-126500778D01*
X149205218Y-126500776D01*
X149171503Y-126434607D01*
X149112287Y-126318390D01*
X149104556Y-126307749D01*
X148991971Y-126152786D01*
X148847213Y-126008028D01*
X148681613Y-125887715D01*
X148681612Y-125887714D01*
X148681610Y-125887713D01*
X148592543Y-125842331D01*
X148499223Y-125794781D01*
X148304534Y-125731522D01*
X148129995Y-125703878D01*
X148102352Y-125699500D01*
X147897648Y-125699500D01*
X147873329Y-125703351D01*
X147695465Y-125731522D01*
X147500776Y-125794781D01*
X147318386Y-125887715D01*
X147152786Y-126008028D01*
X147008028Y-126152786D01*
X146887715Y-126318386D01*
X146794781Y-126500776D01*
X146731522Y-126695465D01*
X146699500Y-126897648D01*
X145005500Y-126897648D01*
X145005500Y-124941378D01*
X144999195Y-124861786D01*
X144993047Y-124823226D01*
X144992447Y-124820745D01*
X144974291Y-124745628D01*
X144974290Y-124745626D01*
X144948525Y-124693493D01*
X144910543Y-124616639D01*
X144875838Y-124566106D01*
X144875695Y-124565864D01*
X144870986Y-124559040D01*
X144773482Y-124453241D01*
X144773481Y-124453239D01*
X144650121Y-124379195D01*
X144650122Y-124379195D01*
X144650118Y-124379193D01*
X144585704Y-124352127D01*
X144585705Y-124352127D01*
X144585702Y-124352126D01*
X144446478Y-124315836D01*
X144442119Y-124315027D01*
X144442179Y-124314701D01*
X144420757Y-124309809D01*
X144384381Y-124297081D01*
X144359362Y-124285032D01*
X144326732Y-124264529D01*
X144305023Y-124247217D01*
X144277778Y-124219972D01*
X144260466Y-124198264D01*
X144257910Y-124194196D01*
X144239964Y-124165636D01*
X144227920Y-124140627D01*
X144215187Y-124104238D01*
X144209011Y-124077175D01*
X144204696Y-124038870D01*
X144204697Y-124011111D01*
X144209010Y-123972829D01*
X144215186Y-123945761D01*
X144227919Y-123909373D01*
X144239966Y-123884361D01*
X144260469Y-123851731D01*
X144277777Y-123830026D01*
X144351849Y-123755954D01*
X144354144Y-123753719D01*
X144363625Y-123744733D01*
X144449646Y-123629399D01*
X144480360Y-123572912D01*
X144481433Y-123571134D01*
X144483022Y-123568019D01*
X144483023Y-123568015D01*
X144483025Y-123568013D01*
X144533067Y-123433115D01*
X144543076Y-123289584D01*
X144537968Y-123219902D01*
X144507135Y-123079365D01*
X144503448Y-123069534D01*
X144477371Y-122999996D01*
X147694435Y-122999996D01*
X147694435Y-123000003D01*
X147714630Y-123179249D01*
X147714631Y-123179254D01*
X147774211Y-123349523D01*
X147826736Y-123433115D01*
X147870184Y-123502262D01*
X147997738Y-123629816D01*
X148150478Y-123725789D01*
X148280084Y-123771140D01*
X148320745Y-123785368D01*
X148320750Y-123785369D01*
X148499996Y-123805565D01*
X148500000Y-123805565D01*
X148500004Y-123805565D01*
X148679249Y-123785369D01*
X148679252Y-123785368D01*
X148679255Y-123785368D01*
X148849522Y-123725789D01*
X149002262Y-123629816D01*
X149129816Y-123502262D01*
X149225789Y-123349522D01*
X149285368Y-123179255D01*
X149285369Y-123179249D01*
X149305565Y-123000003D01*
X149305565Y-122999996D01*
X149285369Y-122820750D01*
X149285368Y-122820745D01*
X149269085Y-122774211D01*
X149225789Y-122650478D01*
X149129816Y-122497738D01*
X149002262Y-122370184D01*
X148970429Y-122350182D01*
X148849523Y-122274211D01*
X148679254Y-122214631D01*
X148679249Y-122214630D01*
X148500004Y-122194435D01*
X148499996Y-122194435D01*
X148320750Y-122214630D01*
X148320745Y-122214631D01*
X148150476Y-122274211D01*
X147997737Y-122370184D01*
X147870184Y-122497737D01*
X147774211Y-122650476D01*
X147714631Y-122820745D01*
X147714630Y-122820750D01*
X147694435Y-122999996D01*
X144477371Y-122999996D01*
X144370185Y-122714166D01*
X144365077Y-122644484D01*
X144398453Y-122583101D01*
X144459717Y-122549508D01*
X144472407Y-122547407D01*
X144579249Y-122535369D01*
X144579252Y-122535368D01*
X144579255Y-122535368D01*
X144749522Y-122475789D01*
X144902262Y-122379816D01*
X145029816Y-122252262D01*
X145125789Y-122099522D01*
X145185368Y-121929255D01*
X145200739Y-121792834D01*
X145205565Y-121750003D01*
X145205565Y-121749996D01*
X145185369Y-121570750D01*
X145185368Y-121570745D01*
X145171621Y-121531458D01*
X145125789Y-121400478D01*
X145029816Y-121247738D01*
X144902262Y-121120184D01*
X144881721Y-121107277D01*
X144749523Y-121024211D01*
X144579254Y-120964631D01*
X144579249Y-120964630D01*
X144400004Y-120944435D01*
X144399996Y-120944435D01*
X144220750Y-120964630D01*
X144220745Y-120964631D01*
X144050476Y-121024211D01*
X143916101Y-121108645D01*
X143848864Y-121127645D01*
X143782029Y-121107277D01*
X143741960Y-121064277D01*
X143733510Y-121049201D01*
X143733497Y-121049179D01*
X143690962Y-120985229D01*
X143690958Y-120985225D01*
X143587172Y-120885591D01*
X143587153Y-120885575D01*
X143530399Y-120844871D01*
X143530397Y-120844869D01*
X143530389Y-120844864D01*
X143530382Y-120844860D01*
X143530372Y-120844854D01*
X143402739Y-120778506D01*
X143402726Y-120778500D01*
X143384378Y-120772080D01*
X143359362Y-120760032D01*
X143326732Y-120739529D01*
X143305023Y-120722217D01*
X143277781Y-120694975D01*
X143260470Y-120673269D01*
X143249221Y-120655366D01*
X143239962Y-120640630D01*
X143227920Y-120615626D01*
X143215186Y-120579233D01*
X143209011Y-120552179D01*
X143204696Y-120513873D01*
X143204697Y-120486117D01*
X143215176Y-120393112D01*
X143216953Y-120377342D01*
X143216952Y-120377341D01*
X143219131Y-120358005D01*
X143220795Y-120347390D01*
X143220962Y-120346564D01*
X143221413Y-120339197D01*
X143221874Y-120333891D01*
X143221840Y-120332217D01*
X143225083Y-120279256D01*
X143219311Y-120203981D01*
X143233812Y-120135632D01*
X143282964Y-120085974D01*
X143342948Y-120070500D01*
X144043543Y-120070500D01*
X144173582Y-120044632D01*
X144236835Y-120032051D01*
X144418914Y-119956632D01*
X144582782Y-119847139D01*
X144722139Y-119707782D01*
X144831632Y-119543914D01*
X144907051Y-119361835D01*
X144936332Y-119214630D01*
X144945500Y-119168543D01*
X146274499Y-119168543D01*
X146312947Y-119361829D01*
X146312950Y-119361839D01*
X146388364Y-119543907D01*
X146388371Y-119543920D01*
X146497860Y-119707781D01*
X146497863Y-119707785D01*
X146637214Y-119847136D01*
X146637218Y-119847139D01*
X146801079Y-119956628D01*
X146801092Y-119956635D01*
X146983160Y-120032049D01*
X146983165Y-120032051D01*
X146983169Y-120032051D01*
X146983170Y-120032052D01*
X147176456Y-120070500D01*
X147176459Y-120070500D01*
X147973543Y-120070500D01*
X148103582Y-120044632D01*
X148166835Y-120032051D01*
X148348914Y-119956632D01*
X148512782Y-119847139D01*
X148652139Y-119707782D01*
X148761632Y-119543914D01*
X148837051Y-119361835D01*
X148866332Y-119214630D01*
X148875500Y-119168543D01*
X148875500Y-118971456D01*
X148837052Y-118778170D01*
X148837051Y-118778169D01*
X148837051Y-118778165D01*
X148837049Y-118778160D01*
X148761635Y-118596092D01*
X148761628Y-118596079D01*
X148652139Y-118432218D01*
X148652136Y-118432214D01*
X148512785Y-118292863D01*
X148512781Y-118292860D01*
X148348920Y-118183371D01*
X148348907Y-118183364D01*
X148166839Y-118107950D01*
X148166829Y-118107947D01*
X147973543Y-118069500D01*
X147973541Y-118069500D01*
X147176459Y-118069500D01*
X147176457Y-118069500D01*
X146983170Y-118107947D01*
X146983160Y-118107950D01*
X146801092Y-118183364D01*
X146801079Y-118183371D01*
X146637218Y-118292860D01*
X146637214Y-118292863D01*
X146497863Y-118432214D01*
X146497860Y-118432218D01*
X146388371Y-118596079D01*
X146388364Y-118596092D01*
X146312950Y-118778160D01*
X146312947Y-118778170D01*
X146274500Y-118971456D01*
X146274500Y-118971459D01*
X146274500Y-119168541D01*
X146274500Y-119168543D01*
X146274499Y-119168543D01*
X144945500Y-119168543D01*
X144945500Y-118971456D01*
X144907052Y-118778170D01*
X144907051Y-118778169D01*
X144907051Y-118778165D01*
X144907049Y-118778160D01*
X144831635Y-118596092D01*
X144831628Y-118596079D01*
X144722139Y-118432218D01*
X144722136Y-118432214D01*
X144582785Y-118292863D01*
X144582781Y-118292860D01*
X144418920Y-118183371D01*
X144418913Y-118183367D01*
X144409474Y-118179458D01*
X144355070Y-118135617D01*
X144333004Y-118069323D01*
X144350283Y-118001624D01*
X144353431Y-117996972D01*
X144355511Y-117993368D01*
X144355515Y-117993365D01*
X144431281Y-117862135D01*
X144470500Y-117715766D01*
X144470500Y-117564234D01*
X144431281Y-117417865D01*
X144355515Y-117286635D01*
X144248365Y-117179485D01*
X144182750Y-117141602D01*
X144117136Y-117103719D01*
X144043950Y-117084109D01*
X143970766Y-117064500D01*
X143819234Y-117064500D01*
X143672863Y-117103719D01*
X143541635Y-117179485D01*
X143541632Y-117179487D01*
X143434487Y-117286632D01*
X143434485Y-117286635D01*
X143358719Y-117417863D01*
X143336403Y-117501151D01*
X143319500Y-117564234D01*
X143319500Y-117715766D01*
X143351755Y-117836145D01*
X143358720Y-117862137D01*
X143358721Y-117862140D01*
X143371053Y-117883499D01*
X143387527Y-117951398D01*
X143364675Y-118017426D01*
X143309755Y-118060617D01*
X143263667Y-118069500D01*
X142924209Y-118069500D01*
X142857170Y-118049815D01*
X142811415Y-117997011D01*
X142800989Y-117959383D01*
X142785369Y-117820750D01*
X142785368Y-117820745D01*
X142748634Y-117715765D01*
X142725789Y-117650478D01*
X142704156Y-117616050D01*
X142686582Y-117588080D01*
X142629816Y-117497738D01*
X142502262Y-117370184D01*
X142447472Y-117335757D01*
X142349523Y-117274211D01*
X142179254Y-117214631D01*
X142179249Y-117214630D01*
X142000004Y-117194435D01*
X141999996Y-117194435D01*
X141820750Y-117214630D01*
X141820745Y-117214631D01*
X141650476Y-117274211D01*
X141497737Y-117370184D01*
X141370184Y-117497737D01*
X141274211Y-117650476D01*
X141233411Y-117767078D01*
X141192689Y-117823854D01*
X141127736Y-117849601D01*
X141059175Y-117836145D01*
X141028688Y-117813804D01*
X139214880Y-115999996D01*
X147694435Y-115999996D01*
X147694435Y-116000003D01*
X147714630Y-116179249D01*
X147714631Y-116179254D01*
X147774211Y-116349523D01*
X147855755Y-116479298D01*
X147870184Y-116502262D01*
X147997738Y-116629816D01*
X148150478Y-116725789D01*
X148320745Y-116785368D01*
X148320750Y-116785369D01*
X148499996Y-116805565D01*
X148500000Y-116805565D01*
X148500004Y-116805565D01*
X148679249Y-116785369D01*
X148679252Y-116785368D01*
X148679255Y-116785368D01*
X148849522Y-116725789D01*
X149002262Y-116629816D01*
X149129816Y-116502262D01*
X149225789Y-116349522D01*
X149285368Y-116179255D01*
X149287425Y-116161000D01*
X149305565Y-116000003D01*
X149305565Y-115999996D01*
X149285369Y-115820750D01*
X149285368Y-115820745D01*
X149251210Y-115723127D01*
X149225789Y-115650478D01*
X149225174Y-115649500D01*
X149174640Y-115569075D01*
X149129816Y-115497738D01*
X149002262Y-115370184D01*
X148849523Y-115274211D01*
X148679254Y-115214631D01*
X148679249Y-115214630D01*
X148500004Y-115194435D01*
X148499996Y-115194435D01*
X148320750Y-115214630D01*
X148320745Y-115214631D01*
X148150476Y-115274211D01*
X147997737Y-115370184D01*
X147870184Y-115497737D01*
X147774211Y-115650476D01*
X147714631Y-115820745D01*
X147714630Y-115820750D01*
X147694435Y-115999996D01*
X139214880Y-115999996D01*
X138810945Y-115596061D01*
X138777460Y-115534738D01*
X138782444Y-115465046D01*
X138824316Y-115409113D01*
X138889780Y-115384696D01*
X138939581Y-115391338D01*
X138958244Y-115397869D01*
X138958247Y-115397869D01*
X138958249Y-115397870D01*
X139137495Y-115418066D01*
X139137499Y-115418066D01*
X139137503Y-115418066D01*
X139316748Y-115397870D01*
X139316751Y-115397869D01*
X139316754Y-115397869D01*
X139487021Y-115338290D01*
X139639761Y-115242317D01*
X139767315Y-115114763D01*
X139863288Y-114962023D01*
X139922867Y-114791756D01*
X139932880Y-114702887D01*
X139943064Y-114612504D01*
X139943064Y-114612497D01*
X139922868Y-114433251D01*
X139922867Y-114433246D01*
X139888728Y-114335682D01*
X139863288Y-114262979D01*
X139767315Y-114110239D01*
X139657072Y-113999996D01*
X145694435Y-113999996D01*
X145694435Y-114000003D01*
X145714630Y-114179249D01*
X145714631Y-114179254D01*
X145774211Y-114349523D01*
X145811202Y-114408393D01*
X145870184Y-114502262D01*
X145997738Y-114629816D01*
X146030625Y-114650480D01*
X146132721Y-114714632D01*
X146150478Y-114725789D01*
X146202071Y-114743842D01*
X146320745Y-114785368D01*
X146320750Y-114785369D01*
X146499996Y-114805565D01*
X146500000Y-114805565D01*
X146500004Y-114805565D01*
X146679249Y-114785369D01*
X146679252Y-114785368D01*
X146679255Y-114785368D01*
X146849522Y-114725789D01*
X147002262Y-114629816D01*
X147129816Y-114502262D01*
X147225789Y-114349522D01*
X147285368Y-114179255D01*
X147285369Y-114179249D01*
X147305565Y-114000003D01*
X147305565Y-113999996D01*
X147285369Y-113820750D01*
X147285368Y-113820745D01*
X147259273Y-113746169D01*
X147225789Y-113650478D01*
X147213492Y-113630908D01*
X147186582Y-113588080D01*
X147129816Y-113497738D01*
X147002262Y-113370184D01*
X146899422Y-113305565D01*
X146849523Y-113274211D01*
X146679254Y-113214631D01*
X146679249Y-113214630D01*
X146500004Y-113194435D01*
X146499996Y-113194435D01*
X146320750Y-113214630D01*
X146320745Y-113214631D01*
X146150476Y-113274211D01*
X145997737Y-113370184D01*
X145870184Y-113497737D01*
X145774211Y-113650476D01*
X145714631Y-113820745D01*
X145714630Y-113820750D01*
X145694435Y-113999996D01*
X139657072Y-113999996D01*
X139639761Y-113982685D01*
X139638338Y-113981791D01*
X139487022Y-113886712D01*
X139316753Y-113827132D01*
X139316748Y-113827131D01*
X139137503Y-113806936D01*
X139137495Y-113806936D01*
X138958249Y-113827131D01*
X138958244Y-113827132D01*
X138787975Y-113886712D01*
X138635236Y-113982685D01*
X138507683Y-114110238D01*
X138411710Y-114262977D01*
X138352130Y-114433246D01*
X138352129Y-114433251D01*
X138331934Y-114612497D01*
X138331934Y-114612504D01*
X138352129Y-114791750D01*
X138352131Y-114791758D01*
X138358661Y-114810419D01*
X138362222Y-114880198D01*
X138327493Y-114940825D01*
X138265500Y-114973052D01*
X138195924Y-114966646D01*
X138153938Y-114939054D01*
X138017518Y-114802634D01*
X137984033Y-114741311D01*
X137981758Y-114726709D01*
X137963357Y-114533495D01*
X137707197Y-111843822D01*
X137720436Y-111775222D01*
X137768665Y-111724666D01*
X137836569Y-111708211D01*
X137896610Y-111727075D01*
X137906351Y-111733196D01*
X137910478Y-111735789D01*
X138080745Y-111795368D01*
X138080750Y-111795369D01*
X138259996Y-111815565D01*
X138260000Y-111815565D01*
X138260004Y-111815565D01*
X138439249Y-111795369D01*
X138439252Y-111795368D01*
X138439255Y-111795368D01*
X138609522Y-111735789D01*
X138762262Y-111639816D01*
X138889816Y-111512262D01*
X138985789Y-111359522D01*
X139045368Y-111189255D01*
X139045369Y-111189249D01*
X139065565Y-111010003D01*
X139065565Y-111009996D01*
X139045369Y-110830750D01*
X139045368Y-110830745D01*
X138985789Y-110660478D01*
X138902889Y-110528543D01*
X141844499Y-110528543D01*
X141882947Y-110721829D01*
X141882950Y-110721839D01*
X141958364Y-110903907D01*
X141958371Y-110903920D01*
X142067860Y-111067781D01*
X142067863Y-111067785D01*
X142207214Y-111207136D01*
X142207218Y-111207139D01*
X142371079Y-111316628D01*
X142371092Y-111316635D01*
X142527456Y-111381402D01*
X142553165Y-111392051D01*
X142553169Y-111392051D01*
X142553170Y-111392052D01*
X142746456Y-111430500D01*
X142746459Y-111430500D01*
X143263667Y-111430500D01*
X143330706Y-111450185D01*
X143376461Y-111502989D01*
X143386405Y-111572147D01*
X143371053Y-111616501D01*
X143358721Y-111637859D01*
X143358720Y-111637862D01*
X143358720Y-111637863D01*
X143358719Y-111637865D01*
X143319500Y-111784234D01*
X143319500Y-111935766D01*
X143352786Y-112059993D01*
X143358720Y-112082137D01*
X143358720Y-112082138D01*
X143391486Y-112138890D01*
X143407959Y-112206790D01*
X143385106Y-112272817D01*
X143350071Y-112305884D01*
X143247737Y-112370184D01*
X143120184Y-112497737D01*
X143024211Y-112650476D01*
X142964631Y-112820745D01*
X142964630Y-112820750D01*
X142944435Y-112999996D01*
X142944435Y-113000003D01*
X142964630Y-113179249D01*
X142964631Y-113179254D01*
X143024211Y-113349523D01*
X143105476Y-113478855D01*
X143120184Y-113502262D01*
X143247738Y-113629816D01*
X143400478Y-113725789D01*
X143519544Y-113767452D01*
X143570745Y-113785368D01*
X143570750Y-113785369D01*
X143749996Y-113805565D01*
X143750000Y-113805565D01*
X143750004Y-113805565D01*
X143929249Y-113785369D01*
X143929252Y-113785368D01*
X143929255Y-113785368D01*
X144099522Y-113725789D01*
X144252262Y-113629816D01*
X144379816Y-113502262D01*
X144475789Y-113349522D01*
X144535368Y-113179255D01*
X144535369Y-113179249D01*
X144555565Y-113000003D01*
X144555565Y-112999996D01*
X144535369Y-112820750D01*
X144535368Y-112820745D01*
X144502141Y-112725788D01*
X144475789Y-112650478D01*
X144379816Y-112497738D01*
X144313160Y-112431082D01*
X144279675Y-112369759D01*
X144284659Y-112300067D01*
X144313160Y-112255720D01*
X144330683Y-112238197D01*
X144355515Y-112213365D01*
X144431281Y-112082135D01*
X144470500Y-111935766D01*
X144470500Y-111784234D01*
X144431281Y-111637865D01*
X144355515Y-111506635D01*
X144355513Y-111506633D01*
X144351451Y-111499597D01*
X144353779Y-111498252D01*
X144333355Y-111445422D01*
X144347393Y-111376977D01*
X144396206Y-111326986D01*
X144409470Y-111320543D01*
X144418914Y-111316632D01*
X144582782Y-111207139D01*
X144722139Y-111067782D01*
X144831632Y-110903914D01*
X144907051Y-110721835D01*
X144945500Y-110528543D01*
X146274499Y-110528543D01*
X146312947Y-110721829D01*
X146312950Y-110721839D01*
X146388364Y-110903907D01*
X146388371Y-110903920D01*
X146497860Y-111067781D01*
X146497863Y-111067785D01*
X146637214Y-111207136D01*
X146637218Y-111207139D01*
X146801079Y-111316628D01*
X146801092Y-111316635D01*
X146957456Y-111381402D01*
X146983165Y-111392051D01*
X146983169Y-111392051D01*
X146983170Y-111392052D01*
X147176456Y-111430500D01*
X147176459Y-111430500D01*
X147973543Y-111430500D01*
X148129462Y-111399485D01*
X148166835Y-111392051D01*
X148348914Y-111316632D01*
X148512782Y-111207139D01*
X148652139Y-111067782D01*
X148761632Y-110903914D01*
X148837051Y-110721835D01*
X148875500Y-110528541D01*
X148875500Y-110331459D01*
X148875500Y-110331456D01*
X148837052Y-110138170D01*
X148837051Y-110138169D01*
X148837051Y-110138165D01*
X148814449Y-110083599D01*
X148761635Y-109956092D01*
X148761628Y-109956079D01*
X148652139Y-109792218D01*
X148652136Y-109792214D01*
X148512785Y-109652863D01*
X148512781Y-109652860D01*
X148348920Y-109543371D01*
X148348907Y-109543364D01*
X148166839Y-109467950D01*
X148166829Y-109467947D01*
X147973543Y-109429500D01*
X147973541Y-109429500D01*
X147176459Y-109429500D01*
X147176457Y-109429500D01*
X146983170Y-109467947D01*
X146983160Y-109467950D01*
X146801092Y-109543364D01*
X146801079Y-109543371D01*
X146637218Y-109652860D01*
X146637214Y-109652863D01*
X146497863Y-109792214D01*
X146497860Y-109792218D01*
X146388371Y-109956079D01*
X146388364Y-109956092D01*
X146312950Y-110138160D01*
X146312947Y-110138170D01*
X146274500Y-110331456D01*
X146274500Y-110331459D01*
X146274500Y-110528541D01*
X146274500Y-110528543D01*
X146274499Y-110528543D01*
X144945500Y-110528543D01*
X144945500Y-110528541D01*
X144945500Y-110331459D01*
X144945500Y-110331456D01*
X144907052Y-110138170D01*
X144907051Y-110138169D01*
X144907051Y-110138165D01*
X144884449Y-110083599D01*
X144831635Y-109956092D01*
X144831628Y-109956079D01*
X144722139Y-109792218D01*
X144722136Y-109792214D01*
X144582785Y-109652863D01*
X144582781Y-109652860D01*
X144418920Y-109543371D01*
X144418907Y-109543364D01*
X144236839Y-109467950D01*
X144236829Y-109467947D01*
X144043543Y-109429500D01*
X144043541Y-109429500D01*
X142746459Y-109429500D01*
X142746457Y-109429500D01*
X142553170Y-109467947D01*
X142553160Y-109467950D01*
X142371092Y-109543364D01*
X142371079Y-109543371D01*
X142207218Y-109652860D01*
X142207214Y-109652863D01*
X142067863Y-109792214D01*
X142067860Y-109792218D01*
X141958371Y-109956079D01*
X141958364Y-109956092D01*
X141882950Y-110138160D01*
X141882947Y-110138170D01*
X141844500Y-110331456D01*
X141844500Y-110331459D01*
X141844500Y-110528541D01*
X141844500Y-110528543D01*
X141844499Y-110528543D01*
X138902889Y-110528543D01*
X138889816Y-110507738D01*
X138762262Y-110380184D01*
X138643507Y-110305565D01*
X138609523Y-110284211D01*
X138439254Y-110224631D01*
X138439249Y-110224630D01*
X138260004Y-110204435D01*
X138259996Y-110204435D01*
X138080750Y-110224630D01*
X138080745Y-110224631D01*
X137910476Y-110284211D01*
X137751842Y-110383889D01*
X137750705Y-110382079D01*
X137695551Y-110404588D01*
X137626857Y-110391823D01*
X137575969Y-110343946D01*
X137559499Y-110292987D01*
X137293500Y-107499996D01*
X137694435Y-107499996D01*
X137694435Y-107500003D01*
X137714630Y-107679249D01*
X137714631Y-107679254D01*
X137774211Y-107849523D01*
X137855934Y-107979583D01*
X137870184Y-108002262D01*
X137997738Y-108129816D01*
X138021911Y-108145005D01*
X138021913Y-108145006D01*
X138068204Y-108197341D01*
X138078852Y-108266395D01*
X138050477Y-108330243D01*
X138021913Y-108354994D01*
X137997737Y-108370184D01*
X137870184Y-108497737D01*
X137774211Y-108650476D01*
X137714631Y-108820745D01*
X137714630Y-108820750D01*
X137694435Y-108999996D01*
X137694435Y-109000003D01*
X137714630Y-109179249D01*
X137714631Y-109179254D01*
X137774211Y-109349523D01*
X137841693Y-109456919D01*
X137870184Y-109502262D01*
X137997738Y-109629816D01*
X138034414Y-109652861D01*
X138132721Y-109714632D01*
X138150478Y-109725789D01*
X138288857Y-109774210D01*
X138320745Y-109785368D01*
X138320750Y-109785369D01*
X138499996Y-109805565D01*
X138500000Y-109805565D01*
X138500004Y-109805565D01*
X138679249Y-109785369D01*
X138679252Y-109785368D01*
X138679255Y-109785368D01*
X138849522Y-109725789D01*
X139002262Y-109629816D01*
X139129816Y-109502262D01*
X139225789Y-109349522D01*
X139285368Y-109179255D01*
X139285872Y-109174782D01*
X139305565Y-109000003D01*
X139305565Y-108999996D01*
X139285369Y-108820750D01*
X139285368Y-108820745D01*
X139260612Y-108749996D01*
X139225789Y-108650478D01*
X139131235Y-108499996D01*
X140194435Y-108499996D01*
X140194435Y-108500003D01*
X140214630Y-108679249D01*
X140214631Y-108679254D01*
X140274211Y-108849523D01*
X140339982Y-108954196D01*
X140370184Y-109002262D01*
X140497738Y-109129816D01*
X140569301Y-109174782D01*
X140632721Y-109214632D01*
X140650478Y-109225789D01*
X140780084Y-109271140D01*
X140820745Y-109285368D01*
X140820750Y-109285369D01*
X140999996Y-109305565D01*
X141000000Y-109305565D01*
X141000004Y-109305565D01*
X141179249Y-109285369D01*
X141179252Y-109285368D01*
X141179255Y-109285368D01*
X141349522Y-109225789D01*
X141502262Y-109129816D01*
X141629816Y-109002262D01*
X141725789Y-108849522D01*
X141785368Y-108679255D01*
X141787801Y-108657664D01*
X141805565Y-108500003D01*
X141805565Y-108499996D01*
X141785369Y-108320750D01*
X141785368Y-108320745D01*
X141725788Y-108150476D01*
X141649690Y-108029367D01*
X141629816Y-107997738D01*
X141502262Y-107870184D01*
X141469379Y-107849522D01*
X141349523Y-107774211D01*
X141179254Y-107714631D01*
X141179249Y-107714630D01*
X141000004Y-107694435D01*
X140999996Y-107694435D01*
X140820750Y-107714630D01*
X140820745Y-107714631D01*
X140650476Y-107774211D01*
X140497737Y-107870184D01*
X140370184Y-107997737D01*
X140274211Y-108150476D01*
X140214631Y-108320745D01*
X140214630Y-108320750D01*
X140194435Y-108499996D01*
X139131235Y-108499996D01*
X139129816Y-108497738D01*
X139002262Y-108370184D01*
X138978084Y-108354992D01*
X138931796Y-108302661D01*
X138921146Y-108233607D01*
X138949521Y-108169758D01*
X138978082Y-108145009D01*
X139002262Y-108129816D01*
X139129816Y-108002262D01*
X139225789Y-107849522D01*
X139285368Y-107679255D01*
X139285369Y-107679249D01*
X139305565Y-107500003D01*
X139305565Y-107499996D01*
X139285369Y-107320750D01*
X139285368Y-107320745D01*
X139243860Y-107202123D01*
X139225789Y-107150478D01*
X139131235Y-106999996D01*
X145694435Y-106999996D01*
X145694435Y-107000003D01*
X145714630Y-107179249D01*
X145714631Y-107179254D01*
X145774211Y-107349523D01*
X145819547Y-107421674D01*
X145870184Y-107502262D01*
X145997738Y-107629816D01*
X146076410Y-107679249D01*
X146132721Y-107714632D01*
X146150478Y-107725789D01*
X146288860Y-107774211D01*
X146320745Y-107785368D01*
X146320750Y-107785369D01*
X146499996Y-107805565D01*
X146500000Y-107805565D01*
X146500004Y-107805565D01*
X146679249Y-107785369D01*
X146679252Y-107785368D01*
X146679255Y-107785368D01*
X146849522Y-107725789D01*
X147002262Y-107629816D01*
X147129816Y-107502262D01*
X147225789Y-107349522D01*
X147285368Y-107179255D01*
X147285369Y-107179249D01*
X147305565Y-107000003D01*
X147305565Y-106999996D01*
X147285369Y-106820750D01*
X147285368Y-106820745D01*
X147268617Y-106772873D01*
X147225789Y-106650478D01*
X147215064Y-106633410D01*
X147176533Y-106572087D01*
X147129816Y-106497738D01*
X147002262Y-106370184D01*
X146899422Y-106305565D01*
X146849523Y-106274211D01*
X146679254Y-106214631D01*
X146679249Y-106214630D01*
X146500004Y-106194435D01*
X146499996Y-106194435D01*
X146320750Y-106214630D01*
X146320745Y-106214631D01*
X146150476Y-106274211D01*
X145997737Y-106370184D01*
X145870184Y-106497737D01*
X145774211Y-106650476D01*
X145714631Y-106820745D01*
X145714630Y-106820750D01*
X145694435Y-106999996D01*
X139131235Y-106999996D01*
X139129816Y-106997738D01*
X139059990Y-106927912D01*
X139026505Y-106866589D01*
X139031489Y-106796897D01*
X139073361Y-106740964D01*
X139093875Y-106728508D01*
X139099514Y-106725791D01*
X139099522Y-106725789D01*
X139252262Y-106629816D01*
X139379816Y-106502262D01*
X139475789Y-106349522D01*
X139535368Y-106179255D01*
X139535369Y-106179249D01*
X139555565Y-106000003D01*
X139555565Y-105999996D01*
X139535369Y-105820750D01*
X139535368Y-105820745D01*
X139518998Y-105773962D01*
X139475789Y-105650478D01*
X139379816Y-105497738D01*
X139252262Y-105370184D01*
X139219379Y-105349522D01*
X139099523Y-105274211D01*
X138929254Y-105214631D01*
X138929249Y-105214630D01*
X138750004Y-105194435D01*
X138749996Y-105194435D01*
X138570750Y-105214630D01*
X138570745Y-105214631D01*
X138400476Y-105274211D01*
X138247737Y-105370184D01*
X138120184Y-105497737D01*
X138024211Y-105650476D01*
X137964631Y-105820745D01*
X137964630Y-105820750D01*
X137944435Y-105999996D01*
X137944435Y-106000003D01*
X137964630Y-106179249D01*
X137964631Y-106179254D01*
X138024211Y-106349523D01*
X138120184Y-106502262D01*
X138190009Y-106572087D01*
X138223494Y-106633410D01*
X138218510Y-106703102D01*
X138176638Y-106759035D01*
X138156135Y-106771485D01*
X138150485Y-106774205D01*
X137997737Y-106870184D01*
X137870184Y-106997737D01*
X137774211Y-107150476D01*
X137714631Y-107320745D01*
X137714630Y-107320750D01*
X137694435Y-107499996D01*
X137293500Y-107499996D01*
X137013116Y-104555958D01*
X137013115Y-104555950D01*
X137002845Y-104491949D01*
X137002843Y-104491941D01*
X137002842Y-104491933D01*
X136995820Y-104461009D01*
X136995812Y-104460978D01*
X136977434Y-104398814D01*
X136909160Y-104272168D01*
X136874828Y-104225789D01*
X136867588Y-104216008D01*
X136766401Y-104113727D01*
X136640493Y-104044095D01*
X136575160Y-104019326D01*
X136575157Y-104019325D01*
X136575156Y-104019324D01*
X136575154Y-104019324D01*
X136515412Y-104005991D01*
X136434731Y-103987986D01*
X136329497Y-103979891D01*
X135857985Y-103943620D01*
X135792653Y-103918851D01*
X135751083Y-103862694D01*
X135746473Y-103792976D01*
X135750452Y-103779037D01*
X135770940Y-103720487D01*
X135785367Y-103679259D01*
X135785369Y-103679249D01*
X135805565Y-103500003D01*
X135805565Y-103499996D01*
X135785369Y-103320750D01*
X135785368Y-103320745D01*
X135752141Y-103225788D01*
X135725789Y-103150478D01*
X135629816Y-102997738D01*
X135502262Y-102870184D01*
X135469379Y-102849522D01*
X135349523Y-102774211D01*
X135179254Y-102714631D01*
X135179249Y-102714630D01*
X135000004Y-102694435D01*
X134999996Y-102694435D01*
X134820750Y-102714630D01*
X134820745Y-102714631D01*
X134650476Y-102774211D01*
X134497737Y-102870184D01*
X134370184Y-102997737D01*
X134274211Y-103150476D01*
X134214631Y-103320745D01*
X134214630Y-103320750D01*
X134194435Y-103499996D01*
X134194435Y-103500003D01*
X134213520Y-103669394D01*
X134201465Y-103738216D01*
X134154116Y-103789595D01*
X134086506Y-103807219D01*
X134080790Y-103806912D01*
X131926387Y-103641189D01*
X130428559Y-103525972D01*
X130428499Y-103525967D01*
X130428489Y-103525967D01*
X130422080Y-103525515D01*
X130421986Y-103525509D01*
X130418868Y-103525310D01*
X130418828Y-103525307D01*
X130418817Y-103525307D01*
X130412461Y-103524942D01*
X130412450Y-103524942D01*
X130269195Y-103538124D01*
X130269177Y-103538127D01*
X130201236Y-103554362D01*
X130201233Y-103554363D01*
X130201209Y-103554372D01*
X130067464Y-103607384D01*
X130067462Y-103607385D01*
X129954069Y-103695932D01*
X129954065Y-103695935D01*
X129905674Y-103746339D01*
X129905669Y-103746346D01*
X129821815Y-103863250D01*
X129774290Y-103999060D01*
X129774289Y-103999064D01*
X129760833Y-104067616D01*
X129756347Y-104155451D01*
X129733268Y-104221399D01*
X129678199Y-104264401D01*
X129673467Y-104266166D01*
X129650477Y-104274211D01*
X129650475Y-104274212D01*
X129497737Y-104370184D01*
X129370184Y-104497737D01*
X129274211Y-104650476D01*
X129214631Y-104820745D01*
X129214630Y-104820750D01*
X129194435Y-104999996D01*
X129194435Y-105000003D01*
X129214630Y-105179249D01*
X129214631Y-105179254D01*
X129274211Y-105349523D01*
X129370184Y-105502262D01*
X129491757Y-105623835D01*
X129525242Y-105685158D01*
X129523053Y-105746450D01*
X129514978Y-105773949D01*
X129514977Y-105773955D01*
X129514977Y-105773958D01*
X129514976Y-105773962D01*
X129494500Y-105916378D01*
X129494500Y-107833621D01*
X129500804Y-107913202D01*
X129500804Y-107913206D01*
X129506951Y-107951765D01*
X129518607Y-107999992D01*
X129521596Y-108012357D01*
X129518214Y-108082144D01*
X129488749Y-108129173D01*
X129370183Y-108247739D01*
X129274211Y-108400476D01*
X129214631Y-108570745D01*
X129214630Y-108570750D01*
X129194435Y-108749996D01*
X129194435Y-108750003D01*
X129214630Y-108929249D01*
X129214631Y-108929254D01*
X129274211Y-109099523D01*
X129370184Y-109252262D01*
X129491757Y-109373835D01*
X129525242Y-109435158D01*
X129523053Y-109496450D01*
X129514978Y-109523949D01*
X129514977Y-109523955D01*
X129514977Y-109523958D01*
X129514976Y-109523962D01*
X129496444Y-109652861D01*
X129494500Y-109666379D01*
X129494500Y-109870500D01*
X129474815Y-109937539D01*
X129422011Y-109983294D01*
X129370500Y-109994500D01*
X128915759Y-109994500D01*
X128848720Y-109974815D01*
X128802965Y-109922011D01*
X128792539Y-109884384D01*
X128785369Y-109820749D01*
X128785368Y-109820745D01*
X128760788Y-109750499D01*
X128725789Y-109650478D01*
X128712185Y-109628828D01*
X128658485Y-109543364D01*
X128629816Y-109497738D01*
X128502262Y-109370184D01*
X128482454Y-109357738D01*
X128349523Y-109274211D01*
X128179254Y-109214631D01*
X128179249Y-109214630D01*
X128000004Y-109194435D01*
X127999996Y-109194435D01*
X127820750Y-109214630D01*
X127820745Y-109214631D01*
X127650476Y-109274211D01*
X127497737Y-109370184D01*
X127370184Y-109497737D01*
X127341511Y-109543371D01*
X127274211Y-109650478D01*
X127274210Y-109650480D01*
X127270507Y-109656374D01*
X127267869Y-109654716D01*
X127229972Y-109696358D01*
X127179383Y-109713658D01*
X127170745Y-109714632D01*
X127170744Y-109714632D01*
X127000478Y-109774210D01*
X126847739Y-109870183D01*
X126726164Y-109991758D01*
X126664841Y-110025242D01*
X126603548Y-110023053D01*
X126576043Y-110014976D01*
X126471876Y-110000000D01*
X126433622Y-109994500D01*
X126433620Y-109994500D01*
X126165759Y-109994500D01*
X126098720Y-109974815D01*
X126052965Y-109922011D01*
X126042539Y-109884384D01*
X126035369Y-109820749D01*
X126035368Y-109820745D01*
X126010788Y-109750499D01*
X125975789Y-109650478D01*
X125962185Y-109628828D01*
X125908485Y-109543364D01*
X125879816Y-109497738D01*
X125752262Y-109370184D01*
X125732454Y-109357738D01*
X125599523Y-109274211D01*
X125429254Y-109214631D01*
X125429249Y-109214630D01*
X125250004Y-109194435D01*
X125249996Y-109194435D01*
X125070750Y-109214630D01*
X125070745Y-109214631D01*
X124900476Y-109274211D01*
X124747737Y-109370184D01*
X124620184Y-109497737D01*
X124524211Y-109650476D01*
X124464631Y-109820745D01*
X124464630Y-109820749D01*
X124457461Y-109884384D01*
X124430394Y-109948798D01*
X124372800Y-109988353D01*
X124334241Y-109994500D01*
X122620179Y-109994500D01*
X122520462Y-110004434D01*
X122520460Y-110004434D01*
X122472498Y-110014085D01*
X122376700Y-110043496D01*
X122376696Y-110043498D01*
X122253289Y-110117463D01*
X122199071Y-110161554D01*
X122101504Y-110267291D01*
X122037674Y-110396243D01*
X122015906Y-110462632D01*
X121990992Y-110604338D01*
X121967691Y-111349996D01*
X121945504Y-112059992D01*
X121945504Y-112059995D01*
X121943819Y-112113880D01*
X121943802Y-112144987D01*
X121944263Y-112160215D01*
X121944866Y-112170083D01*
X121929305Y-112238197D01*
X121887069Y-112282636D01*
X121747737Y-112370184D01*
X121620184Y-112497737D01*
X121620182Y-112497740D01*
X121566502Y-112583170D01*
X121514167Y-112629461D01*
X121445113Y-112640108D01*
X121381265Y-112611732D01*
X121342894Y-112553342D01*
X121337893Y-112526934D01*
X121335683Y-112498852D01*
X121276873Y-112253889D01*
X121260088Y-112213367D01*
X121180466Y-112021140D01*
X121048839Y-111806346D01*
X121048838Y-111806343D01*
X121004391Y-111754303D01*
X120975820Y-111690541D01*
X120986257Y-111621455D01*
X121032388Y-111568980D01*
X121055345Y-111557590D01*
X121092331Y-111543796D01*
X121207546Y-111457546D01*
X121293796Y-111342331D01*
X121344091Y-111207483D01*
X121350500Y-111147873D01*
X121350499Y-109427475D01*
X121370184Y-109360437D01*
X121422987Y-109314682D01*
X121488383Y-109304256D01*
X121500000Y-109305565D01*
X121500000Y-109305564D01*
X121500001Y-109305565D01*
X121500004Y-109305565D01*
X121679249Y-109285369D01*
X121679252Y-109285368D01*
X121679255Y-109285368D01*
X121849522Y-109225789D01*
X122002262Y-109129816D01*
X122129816Y-109002262D01*
X122225789Y-108849522D01*
X122285368Y-108679255D01*
X122287801Y-108657664D01*
X122305565Y-108500003D01*
X122305565Y-108499996D01*
X122285369Y-108320750D01*
X122285368Y-108320745D01*
X122225788Y-108150476D01*
X122149690Y-108029367D01*
X122129816Y-107997738D01*
X122002262Y-107870184D01*
X121969379Y-107849522D01*
X121849523Y-107774211D01*
X121679254Y-107714631D01*
X121679249Y-107714630D01*
X121500004Y-107694435D01*
X121499996Y-107694435D01*
X121320750Y-107714630D01*
X121320745Y-107714631D01*
X121150476Y-107774211D01*
X120997737Y-107870184D01*
X120870184Y-107997737D01*
X120774210Y-108150478D01*
X120745123Y-108233607D01*
X120716132Y-108316455D01*
X120675412Y-108373230D01*
X120610460Y-108398978D01*
X120599092Y-108399500D01*
X118602129Y-108399500D01*
X118602123Y-108399501D01*
X118542516Y-108405908D01*
X118407671Y-108456202D01*
X118407664Y-108456206D01*
X118292455Y-108542452D01*
X118292452Y-108542455D01*
X118206206Y-108657664D01*
X118206202Y-108657671D01*
X118155908Y-108792517D01*
X118149501Y-108852116D01*
X118149500Y-108852135D01*
X118149500Y-111147870D01*
X118149501Y-111147876D01*
X118155908Y-111207483D01*
X118206202Y-111342328D01*
X118206206Y-111342335D01*
X118292452Y-111457544D01*
X118292455Y-111457547D01*
X118407664Y-111543793D01*
X118407669Y-111543796D01*
X118444650Y-111557589D01*
X118500584Y-111599459D01*
X118525002Y-111664922D01*
X118510151Y-111733196D01*
X118495609Y-111754302D01*
X118451161Y-111806344D01*
X118451160Y-111806346D01*
X118319533Y-112021140D01*
X118223126Y-112253889D01*
X118164317Y-112498848D01*
X118144551Y-112750000D01*
X118164317Y-113001151D01*
X118223126Y-113246110D01*
X118319533Y-113478859D01*
X118451160Y-113693653D01*
X118451161Y-113693656D01*
X118482555Y-113730413D01*
X118614776Y-113885224D01*
X118749165Y-114000003D01*
X118806343Y-114048838D01*
X118806346Y-114048839D01*
X119021140Y-114180466D01*
X119103625Y-114214632D01*
X119253889Y-114276873D01*
X119498852Y-114335683D01*
X119750000Y-114355449D01*
X120001148Y-114335683D01*
X120246111Y-114276873D01*
X120478859Y-114180466D01*
X120693659Y-114048836D01*
X120885224Y-113885224D01*
X121048836Y-113693659D01*
X121180466Y-113478859D01*
X121225481Y-113370184D01*
X121267020Y-113269899D01*
X121310861Y-113215495D01*
X121377155Y-113193430D01*
X121444854Y-113210709D01*
X121492465Y-113261846D01*
X121498622Y-113276396D01*
X121524209Y-113349519D01*
X121524211Y-113349522D01*
X121620184Y-113502262D01*
X121747738Y-113629816D01*
X121841800Y-113688919D01*
X121888090Y-113741253D01*
X121898738Y-113810306D01*
X121897954Y-113815382D01*
X121889068Y-113865925D01*
X121889067Y-113865933D01*
X121885371Y-113984205D01*
X121885372Y-113984206D01*
X121884879Y-113999996D01*
X121884878Y-113999999D01*
X121870073Y-114473759D01*
X121848305Y-114540151D01*
X121794097Y-114584234D01*
X121724662Y-114592013D01*
X121680162Y-114574880D01*
X121599523Y-114524211D01*
X121429254Y-114464631D01*
X121429249Y-114464630D01*
X121250004Y-114444435D01*
X121249996Y-114444435D01*
X121070750Y-114464630D01*
X121070745Y-114464631D01*
X120900476Y-114524211D01*
X120747737Y-114620184D01*
X120620184Y-114747737D01*
X120524211Y-114900476D01*
X120464631Y-115070745D01*
X120464630Y-115070750D01*
X120444435Y-115249996D01*
X120444435Y-115250003D01*
X120464630Y-115429249D01*
X120464633Y-115429260D01*
X120483978Y-115484547D01*
X120487539Y-115554326D01*
X120452809Y-115614953D01*
X120390816Y-115647179D01*
X120366936Y-115649500D01*
X118602129Y-115649500D01*
X118602123Y-115649501D01*
X118542516Y-115655908D01*
X118407671Y-115706202D01*
X118407664Y-115706206D01*
X118292455Y-115792452D01*
X118292452Y-115792455D01*
X118206206Y-115907664D01*
X118206202Y-115907671D01*
X118155908Y-116042517D01*
X118149501Y-116102116D01*
X118149500Y-116102135D01*
X118149500Y-118397870D01*
X118149501Y-118397876D01*
X118155908Y-118457483D01*
X118206202Y-118592328D01*
X118206206Y-118592335D01*
X118292452Y-118707544D01*
X118292455Y-118707547D01*
X118407664Y-118793793D01*
X118407669Y-118793796D01*
X118444650Y-118807589D01*
X118500584Y-118849459D01*
X118525002Y-118914922D01*
X118510151Y-118983196D01*
X118495609Y-119004302D01*
X118451161Y-119056344D01*
X118451160Y-119056346D01*
X118319533Y-119271141D01*
X118319531Y-119271144D01*
X118268616Y-119394067D01*
X118224775Y-119448471D01*
X118158481Y-119470536D01*
X118090782Y-119453257D01*
X118066374Y-119434296D01*
X118002262Y-119370184D01*
X117849523Y-119274211D01*
X117679254Y-119214631D01*
X117679249Y-119214630D01*
X117500004Y-119194435D01*
X117499996Y-119194435D01*
X117320750Y-119214630D01*
X117320745Y-119214631D01*
X117150476Y-119274211D01*
X116997737Y-119370184D01*
X116870184Y-119497737D01*
X116774211Y-119650476D01*
X116714631Y-119820745D01*
X116714630Y-119820750D01*
X116694435Y-119999995D01*
X114855449Y-119999995D01*
X114835683Y-119748852D01*
X114776873Y-119503889D01*
X114748047Y-119434296D01*
X114680466Y-119271140D01*
X114548839Y-119056346D01*
X114548838Y-119056343D01*
X114449933Y-118940541D01*
X114385224Y-118864776D01*
X114214879Y-118719288D01*
X114176688Y-118660784D01*
X114176189Y-118590916D01*
X114213543Y-118531869D01*
X114214823Y-118530759D01*
X114385224Y-118385224D01*
X114548836Y-118193659D01*
X114680466Y-117978859D01*
X114776873Y-117746111D01*
X114835683Y-117501148D01*
X114855449Y-117250000D01*
X114835683Y-116998852D01*
X114776873Y-116753889D01*
X114765233Y-116725788D01*
X114680466Y-116521140D01*
X114548839Y-116306346D01*
X114548838Y-116306343D01*
X114480038Y-116225789D01*
X114385224Y-116114776D01*
X114214746Y-115969174D01*
X114193656Y-115951161D01*
X114193653Y-115951160D01*
X113978859Y-115819533D01*
X113746110Y-115723126D01*
X113501151Y-115664317D01*
X113250000Y-115644551D01*
X112998848Y-115664317D01*
X112753889Y-115723126D01*
X112521140Y-115819533D01*
X112306346Y-115951160D01*
X112306343Y-115951161D01*
X112114776Y-116114776D01*
X111951161Y-116306343D01*
X111951160Y-116306346D01*
X111819533Y-116521140D01*
X111723126Y-116753889D01*
X111664317Y-116998848D01*
X111644551Y-117250000D01*
X109280332Y-117250000D01*
X109179254Y-117214631D01*
X109179249Y-117214630D01*
X109000004Y-117194435D01*
X108999996Y-117194435D01*
X108820750Y-117214630D01*
X108820745Y-117214631D01*
X108650476Y-117274211D01*
X108497737Y-117370184D01*
X108370184Y-117497737D01*
X108274211Y-117650476D01*
X108214631Y-117820745D01*
X108214630Y-117820750D01*
X108194435Y-117999996D01*
X107131235Y-117999996D01*
X107129816Y-117997738D01*
X107002262Y-117870184D01*
X106989452Y-117862135D01*
X106849523Y-117774211D01*
X106679254Y-117714631D01*
X106679249Y-117714630D01*
X106500004Y-117694435D01*
X106499996Y-117694435D01*
X106320750Y-117714630D01*
X106320745Y-117714631D01*
X106150476Y-117774211D01*
X105997737Y-117870184D01*
X105870184Y-117997737D01*
X105774211Y-118150476D01*
X105714631Y-118320745D01*
X105714630Y-118320750D01*
X105694435Y-118499996D01*
X103349097Y-118499996D01*
X103335063Y-118339592D01*
X103284390Y-118150476D01*
X103273905Y-118111344D01*
X103273904Y-118111343D01*
X103273903Y-118111337D01*
X103174035Y-117897171D01*
X103149507Y-117862140D01*
X103038494Y-117703597D01*
X102871402Y-117536506D01*
X102871401Y-117536505D01*
X102685405Y-117406269D01*
X102641781Y-117351692D01*
X102634588Y-117282193D01*
X102666110Y-117219839D01*
X102685405Y-117203119D01*
X102871082Y-117073105D01*
X103038105Y-116906082D01*
X103173600Y-116712578D01*
X103273429Y-116498492D01*
X103273432Y-116498486D01*
X103330636Y-116285000D01*
X102433012Y-116285000D01*
X102465925Y-116227993D01*
X102500000Y-116100826D01*
X102500000Y-115969174D01*
X102465925Y-115842007D01*
X102433012Y-115785000D01*
X103330636Y-115785000D01*
X103330635Y-115784999D01*
X103273432Y-115571513D01*
X103273429Y-115571507D01*
X103173600Y-115357422D01*
X103173599Y-115357420D01*
X103038113Y-115163926D01*
X103038108Y-115163920D01*
X102999182Y-115124994D01*
X104954357Y-115124994D01*
X104954357Y-115125005D01*
X104974890Y-115372812D01*
X104974892Y-115372824D01*
X105035936Y-115613881D01*
X105135826Y-115841606D01*
X105271833Y-116049782D01*
X105271836Y-116049785D01*
X105440256Y-116232738D01*
X105636491Y-116385474D01*
X105636493Y-116385475D01*
X105809862Y-116479298D01*
X105855190Y-116503828D01*
X106090386Y-116584571D01*
X106335665Y-116625500D01*
X106584335Y-116625500D01*
X106829614Y-116584571D01*
X107064810Y-116503828D01*
X107283509Y-116385474D01*
X107366786Y-116320657D01*
X107431780Y-116295014D01*
X107500320Y-116308580D01*
X107550644Y-116357049D01*
X107551841Y-116359607D01*
X107551953Y-116359546D01*
X107556206Y-116367335D01*
X107642452Y-116482544D01*
X107642455Y-116482547D01*
X107757664Y-116568793D01*
X107757671Y-116568797D01*
X107892517Y-116619091D01*
X107892516Y-116619091D01*
X107899444Y-116619835D01*
X107952127Y-116625500D01*
X110047872Y-116625499D01*
X110107483Y-116619091D01*
X110242331Y-116568796D01*
X110357546Y-116482546D01*
X110443796Y-116367331D01*
X110494091Y-116232483D01*
X110500500Y-116172873D01*
X110500499Y-115297111D01*
X110520183Y-115230074D01*
X110572987Y-115184319D01*
X110642146Y-115174375D01*
X110705702Y-115203400D01*
X110741540Y-115256158D01*
X110774209Y-115349519D01*
X110817280Y-115418066D01*
X110870184Y-115502262D01*
X110997738Y-115629816D01*
X111039263Y-115655908D01*
X111146239Y-115723126D01*
X111150478Y-115725789D01*
X111156777Y-115727993D01*
X111320745Y-115785368D01*
X111320750Y-115785369D01*
X111499996Y-115805565D01*
X111500000Y-115805565D01*
X111500004Y-115805565D01*
X111679249Y-115785369D01*
X111679252Y-115785368D01*
X111679255Y-115785368D01*
X111849522Y-115725789D01*
X112002262Y-115629816D01*
X112129816Y-115502262D01*
X112131240Y-115499996D01*
X114694435Y-115499996D01*
X114694435Y-115500003D01*
X114714630Y-115679249D01*
X114714631Y-115679254D01*
X114774211Y-115849523D01*
X114838074Y-115951160D01*
X114870184Y-116002262D01*
X114997738Y-116129816D01*
X115150478Y-116225789D01*
X115150480Y-116225790D01*
X115288382Y-116274045D01*
X115345158Y-116314766D01*
X115370905Y-116379719D01*
X115357449Y-116448281D01*
X115335113Y-116478763D01*
X115329903Y-116483972D01*
X115233931Y-116636710D01*
X115174351Y-116806979D01*
X115174350Y-116806984D01*
X115154155Y-116986230D01*
X115154155Y-116986237D01*
X115174350Y-117165483D01*
X115174351Y-117165488D01*
X115233931Y-117335757D01*
X115329904Y-117488496D01*
X115457458Y-117616050D01*
X115610198Y-117712023D01*
X115707613Y-117746110D01*
X115780465Y-117771602D01*
X115780470Y-117771603D01*
X115959716Y-117791799D01*
X115959720Y-117791799D01*
X115959724Y-117791799D01*
X116138969Y-117771603D01*
X116138972Y-117771602D01*
X116138975Y-117771602D01*
X116309242Y-117712023D01*
X116461982Y-117616050D01*
X116589536Y-117488496D01*
X116685509Y-117335756D01*
X116745088Y-117165489D01*
X116756467Y-117064500D01*
X116765285Y-116986237D01*
X116765285Y-116986230D01*
X116745089Y-116806984D01*
X116745088Y-116806979D01*
X116716678Y-116725788D01*
X116685509Y-116636712D01*
X116681175Y-116629815D01*
X116642835Y-116568797D01*
X116589536Y-116483972D01*
X116461982Y-116356418D01*
X116309242Y-116260445D01*
X116309239Y-116260443D01*
X116171337Y-116212188D01*
X116114561Y-116171466D01*
X116088814Y-116106513D01*
X116102271Y-116037952D01*
X116124609Y-116007468D01*
X116129816Y-116002262D01*
X116225789Y-115849522D01*
X116285368Y-115679255D01*
X116287051Y-115664317D01*
X116305565Y-115500003D01*
X116305565Y-115499996D01*
X116285369Y-115320750D01*
X116285368Y-115320745D01*
X116257925Y-115242317D01*
X116225789Y-115150478D01*
X116129816Y-114997738D01*
X116124745Y-114992667D01*
X116091260Y-114931344D01*
X116096244Y-114861652D01*
X116138116Y-114805719D01*
X116173301Y-114789439D01*
X116172682Y-114787668D01*
X116179255Y-114785368D01*
X116349522Y-114725789D01*
X116502262Y-114629816D01*
X116629816Y-114502262D01*
X116725789Y-114349522D01*
X116785368Y-114179255D01*
X116785369Y-114179249D01*
X116805565Y-114000003D01*
X116805565Y-113999996D01*
X116785369Y-113820750D01*
X116785368Y-113820745D01*
X116759273Y-113746169D01*
X116725789Y-113650478D01*
X116713492Y-113630908D01*
X116686582Y-113588080D01*
X116629816Y-113497738D01*
X116502262Y-113370184D01*
X116399422Y-113305565D01*
X116349523Y-113274211D01*
X116179254Y-113214631D01*
X116179249Y-113214630D01*
X116000004Y-113194435D01*
X115999996Y-113194435D01*
X115820750Y-113214630D01*
X115820745Y-113214631D01*
X115650476Y-113274211D01*
X115497737Y-113370184D01*
X115370184Y-113497737D01*
X115274211Y-113650476D01*
X115214631Y-113820745D01*
X115214630Y-113820750D01*
X115194435Y-113999996D01*
X115194435Y-114000003D01*
X115214630Y-114179249D01*
X115214631Y-114179254D01*
X115274211Y-114349523D01*
X115370184Y-114502262D01*
X115375254Y-114507332D01*
X115408739Y-114568655D01*
X115403755Y-114638347D01*
X115361883Y-114694280D01*
X115326703Y-114710577D01*
X115327318Y-114712332D01*
X115150476Y-114774211D01*
X114997737Y-114870184D01*
X114870184Y-114997737D01*
X114774211Y-115150476D01*
X114714631Y-115320745D01*
X114714630Y-115320750D01*
X114694435Y-115499996D01*
X112131240Y-115499996D01*
X112225789Y-115349522D01*
X112285368Y-115179255D01*
X112287096Y-115163920D01*
X112305565Y-115000003D01*
X112305565Y-114999995D01*
X112285369Y-114820750D01*
X112285368Y-114820745D01*
X112248237Y-114714632D01*
X112225789Y-114650478D01*
X112201926Y-114612501D01*
X112156466Y-114540151D01*
X112129816Y-114497738D01*
X112002262Y-114370184D01*
X111996232Y-114366395D01*
X111849523Y-114274211D01*
X111679254Y-114214631D01*
X111679249Y-114214630D01*
X111500004Y-114194435D01*
X111499996Y-114194435D01*
X111320750Y-114214630D01*
X111320745Y-114214631D01*
X111150476Y-114274211D01*
X110997737Y-114370184D01*
X110870184Y-114497737D01*
X110774209Y-114650480D01*
X110741540Y-114743842D01*
X110700818Y-114800618D01*
X110635866Y-114826365D01*
X110567304Y-114812909D01*
X110516901Y-114764521D01*
X110500499Y-114702887D01*
X110500499Y-114077129D01*
X110500498Y-114077123D01*
X110494091Y-114017516D01*
X110443797Y-113882671D01*
X110443793Y-113882664D01*
X110357547Y-113767455D01*
X110357544Y-113767452D01*
X110242335Y-113681206D01*
X110242328Y-113681202D01*
X110107482Y-113630908D01*
X110107483Y-113630908D01*
X110047883Y-113624501D01*
X110047881Y-113624500D01*
X110047873Y-113624500D01*
X110047864Y-113624500D01*
X107952129Y-113624500D01*
X107952123Y-113624501D01*
X107892516Y-113630908D01*
X107757671Y-113681202D01*
X107757664Y-113681206D01*
X107642455Y-113767452D01*
X107642452Y-113767455D01*
X107556206Y-113882664D01*
X107551953Y-113890454D01*
X107548750Y-113888705D01*
X107517200Y-113930800D01*
X107451721Y-113955178D01*
X107383457Y-113940286D01*
X107366786Y-113929343D01*
X107343807Y-113911458D01*
X107283509Y-113864526D01*
X107104136Y-113767454D01*
X107064811Y-113746172D01*
X107064802Y-113746169D01*
X106829616Y-113665429D01*
X106584335Y-113624500D01*
X106335665Y-113624500D01*
X106090383Y-113665429D01*
X105855197Y-113746169D01*
X105855188Y-113746172D01*
X105636493Y-113864524D01*
X105440257Y-114017261D01*
X105271833Y-114200217D01*
X105135826Y-114408393D01*
X105035936Y-114636118D01*
X104974892Y-114877175D01*
X104974890Y-114877187D01*
X104954357Y-115124994D01*
X102999182Y-115124994D01*
X102871078Y-114996890D01*
X102685405Y-114866879D01*
X102641780Y-114812302D01*
X102634588Y-114742804D01*
X102666110Y-114680449D01*
X102685406Y-114663730D01*
X102721657Y-114638347D01*
X102871401Y-114533495D01*
X103038495Y-114366401D01*
X103174035Y-114172830D01*
X103273903Y-113958663D01*
X103335063Y-113730408D01*
X103355659Y-113495000D01*
X103354246Y-113478855D01*
X103336342Y-113274211D01*
X103335063Y-113259592D01*
X103286888Y-113079799D01*
X103273905Y-113031344D01*
X103273904Y-113031343D01*
X103273903Y-113031337D01*
X103174035Y-112817171D01*
X103165909Y-112805565D01*
X103038494Y-112623597D01*
X102914892Y-112499996D01*
X104194435Y-112499996D01*
X104194435Y-112500003D01*
X104214630Y-112679249D01*
X104214631Y-112679254D01*
X104274211Y-112849523D01*
X104340992Y-112955803D01*
X104370184Y-113002262D01*
X104497738Y-113129816D01*
X104576410Y-113179249D01*
X104632721Y-113214632D01*
X104650478Y-113225789D01*
X104820745Y-113285368D01*
X104820750Y-113285369D01*
X104999996Y-113305565D01*
X105000000Y-113305565D01*
X105000004Y-113305565D01*
X105179249Y-113285369D01*
X105179252Y-113285368D01*
X105179255Y-113285368D01*
X105349522Y-113225789D01*
X105502262Y-113129816D01*
X105629816Y-113002262D01*
X105725789Y-112849522D01*
X105785368Y-112679255D01*
X105785369Y-112679249D01*
X105805565Y-112500003D01*
X105805565Y-112499996D01*
X105785369Y-112320750D01*
X105785368Y-112320745D01*
X105740061Y-112191265D01*
X105725789Y-112150478D01*
X105719296Y-112140145D01*
X105631237Y-112000000D01*
X105629816Y-111997738D01*
X105502262Y-111870184D01*
X105460312Y-111843825D01*
X105349523Y-111774211D01*
X105179254Y-111714631D01*
X105179249Y-111714630D01*
X105000004Y-111694435D01*
X104999996Y-111694435D01*
X104820750Y-111714630D01*
X104820745Y-111714631D01*
X104650476Y-111774211D01*
X104497737Y-111870184D01*
X104370184Y-111997737D01*
X104274211Y-112150476D01*
X104214631Y-112320745D01*
X104214630Y-112320750D01*
X104194435Y-112499996D01*
X102914892Y-112499996D01*
X102871402Y-112456506D01*
X102871396Y-112456501D01*
X102685842Y-112326575D01*
X102642217Y-112271998D01*
X102635023Y-112202500D01*
X102666546Y-112140145D01*
X102685842Y-112123425D01*
X102744807Y-112082137D01*
X102871401Y-111993495D01*
X103038495Y-111826401D01*
X103174035Y-111632830D01*
X103273903Y-111418663D01*
X103335063Y-111190408D01*
X103355659Y-110955000D01*
X103335063Y-110719592D01*
X103283872Y-110528541D01*
X103273905Y-110491344D01*
X103273904Y-110491343D01*
X103273903Y-110491337D01*
X103174035Y-110277171D01*
X103138057Y-110225788D01*
X103038494Y-110083597D01*
X102954896Y-110000000D01*
X111644551Y-110000000D01*
X111664317Y-110251151D01*
X111723126Y-110496110D01*
X111819533Y-110728859D01*
X111951160Y-110943653D01*
X111951161Y-110943656D01*
X111951164Y-110943659D01*
X112114776Y-111135224D01*
X112207750Y-111214631D01*
X112285118Y-111280710D01*
X112323311Y-111339217D01*
X112323809Y-111409085D01*
X112286456Y-111468131D01*
X112285118Y-111469290D01*
X112114776Y-111614776D01*
X111951161Y-111806343D01*
X111951160Y-111806346D01*
X111819533Y-112021140D01*
X111723126Y-112253889D01*
X111664317Y-112498848D01*
X111644551Y-112750000D01*
X111664317Y-113001151D01*
X111723126Y-113246110D01*
X111819533Y-113478859D01*
X111951160Y-113693653D01*
X111951161Y-113693656D01*
X111982555Y-113730413D01*
X112114776Y-113885224D01*
X112249165Y-114000003D01*
X112306343Y-114048838D01*
X112306346Y-114048839D01*
X112521140Y-114180466D01*
X112603625Y-114214632D01*
X112753889Y-114276873D01*
X112998852Y-114335683D01*
X113250000Y-114355449D01*
X113501148Y-114335683D01*
X113746111Y-114276873D01*
X113978859Y-114180466D01*
X114193659Y-114048836D01*
X114385224Y-113885224D01*
X114548836Y-113693659D01*
X114680466Y-113478859D01*
X114776873Y-113246111D01*
X114835683Y-113001148D01*
X114855449Y-112750000D01*
X114835683Y-112498852D01*
X114776873Y-112253889D01*
X114760088Y-112213367D01*
X114680466Y-112021140D01*
X114667509Y-111999996D01*
X115194435Y-111999996D01*
X115194435Y-112000003D01*
X115214630Y-112179249D01*
X115214631Y-112179254D01*
X115274211Y-112349523D01*
X115367341Y-112497737D01*
X115370184Y-112502262D01*
X115497738Y-112629816D01*
X115650478Y-112725789D01*
X115820745Y-112785368D01*
X115820750Y-112785369D01*
X115999996Y-112805565D01*
X116000000Y-112805565D01*
X116000004Y-112805565D01*
X116179249Y-112785369D01*
X116179252Y-112785368D01*
X116179255Y-112785368D01*
X116349522Y-112725789D01*
X116502262Y-112629816D01*
X116629816Y-112502262D01*
X116725789Y-112349522D01*
X116785368Y-112179255D01*
X116785369Y-112179249D01*
X116805565Y-112000003D01*
X116805565Y-111999996D01*
X116785369Y-111820750D01*
X116785368Y-111820745D01*
X116780329Y-111806344D01*
X116725789Y-111650478D01*
X116717862Y-111637863D01*
X116629815Y-111497737D01*
X116502262Y-111370184D01*
X116349523Y-111274211D01*
X116179254Y-111214631D01*
X116179249Y-111214630D01*
X116000004Y-111194435D01*
X115999996Y-111194435D01*
X115820750Y-111214630D01*
X115820745Y-111214631D01*
X115650476Y-111274211D01*
X115497737Y-111370184D01*
X115370184Y-111497737D01*
X115274211Y-111650476D01*
X115214631Y-111820745D01*
X115214630Y-111820750D01*
X115194435Y-111999996D01*
X114667509Y-111999996D01*
X114548839Y-111806346D01*
X114548838Y-111806343D01*
X114449933Y-111690541D01*
X114385224Y-111614776D01*
X114214879Y-111469288D01*
X114176688Y-111410784D01*
X114176189Y-111340916D01*
X114213543Y-111281869D01*
X114214823Y-111280759D01*
X114385224Y-111135224D01*
X114548836Y-110943659D01*
X114680466Y-110728859D01*
X114776873Y-110496111D01*
X114835683Y-110251148D01*
X114855449Y-110000000D01*
X114835683Y-109748852D01*
X114776873Y-109503889D01*
X114775260Y-109499996D01*
X115194435Y-109499996D01*
X115194435Y-109500003D01*
X115214630Y-109679249D01*
X115214631Y-109679254D01*
X115274211Y-109849523D01*
X115341173Y-109956092D01*
X115370184Y-110002262D01*
X115497738Y-110129816D01*
X115548239Y-110161548D01*
X115648636Y-110224632D01*
X115650478Y-110225789D01*
X115820745Y-110285368D01*
X115820750Y-110285369D01*
X115999996Y-110305565D01*
X116000000Y-110305565D01*
X116000004Y-110305565D01*
X116179249Y-110285369D01*
X116179252Y-110285368D01*
X116179255Y-110285368D01*
X116349522Y-110225789D01*
X116502262Y-110129816D01*
X116629816Y-110002262D01*
X116725789Y-109849522D01*
X116785368Y-109679255D01*
X116788342Y-109652860D01*
X116805565Y-109500003D01*
X116805565Y-109499996D01*
X116785369Y-109320750D01*
X116785368Y-109320745D01*
X116773351Y-109286402D01*
X116725789Y-109150478D01*
X116629816Y-108997738D01*
X116502262Y-108870184D01*
X116473537Y-108852135D01*
X116349523Y-108774211D01*
X116179254Y-108714631D01*
X116179249Y-108714630D01*
X116000004Y-108694435D01*
X115999996Y-108694435D01*
X115820750Y-108714630D01*
X115820745Y-108714631D01*
X115650476Y-108774211D01*
X115497737Y-108870184D01*
X115370184Y-108997737D01*
X115274211Y-109150476D01*
X115214631Y-109320745D01*
X115214630Y-109320750D01*
X115194435Y-109499996D01*
X114775260Y-109499996D01*
X114761985Y-109467947D01*
X114680466Y-109271140D01*
X114548839Y-109056346D01*
X114548838Y-109056343D01*
X114440289Y-108929249D01*
X114385224Y-108864776D01*
X114209426Y-108714630D01*
X114193656Y-108701161D01*
X114193653Y-108701160D01*
X113978859Y-108569533D01*
X113746110Y-108473126D01*
X113501151Y-108414317D01*
X113250000Y-108394551D01*
X112998848Y-108414317D01*
X112753889Y-108473126D01*
X112521140Y-108569533D01*
X112306346Y-108701160D01*
X112306343Y-108701161D01*
X112114776Y-108864776D01*
X111951161Y-109056343D01*
X111951160Y-109056346D01*
X111819533Y-109271140D01*
X111723126Y-109503889D01*
X111664317Y-109748848D01*
X111644551Y-110000000D01*
X102954896Y-110000000D01*
X102871402Y-109916506D01*
X102871396Y-109916501D01*
X102685842Y-109786575D01*
X102642217Y-109731998D01*
X102635023Y-109662500D01*
X102666546Y-109600145D01*
X102685842Y-109583425D01*
X102770764Y-109523962D01*
X102871401Y-109453495D01*
X103038495Y-109286401D01*
X103174035Y-109092830D01*
X103273903Y-108878663D01*
X103335063Y-108650408D01*
X103355659Y-108415000D01*
X103354388Y-108400478D01*
X103350409Y-108354994D01*
X103341223Y-108249994D01*
X104954357Y-108249994D01*
X104954357Y-108250005D01*
X104974890Y-108497812D01*
X104974892Y-108497824D01*
X105035936Y-108738881D01*
X105135826Y-108966606D01*
X105271833Y-109174782D01*
X105271836Y-109174785D01*
X105440256Y-109357738D01*
X105636491Y-109510474D01*
X105855190Y-109628828D01*
X106090386Y-109709571D01*
X106335665Y-109750500D01*
X106584335Y-109750500D01*
X106829614Y-109709571D01*
X107064810Y-109628828D01*
X107283509Y-109510474D01*
X107366786Y-109445657D01*
X107431780Y-109420014D01*
X107500320Y-109433580D01*
X107550644Y-109482049D01*
X107551841Y-109484607D01*
X107551953Y-109484546D01*
X107556206Y-109492335D01*
X107642452Y-109607544D01*
X107642455Y-109607547D01*
X107757664Y-109693793D01*
X107757671Y-109693797D01*
X107892517Y-109744091D01*
X107892516Y-109744091D01*
X107899444Y-109744835D01*
X107952127Y-109750500D01*
X110047872Y-109750499D01*
X110107483Y-109744091D01*
X110242331Y-109693796D01*
X110357546Y-109607546D01*
X110443796Y-109492331D01*
X110494091Y-109357483D01*
X110500500Y-109297873D01*
X110500499Y-107499996D01*
X125694435Y-107499996D01*
X125694435Y-107500003D01*
X125714630Y-107679249D01*
X125714631Y-107679254D01*
X125774211Y-107849523D01*
X125855934Y-107979583D01*
X125870184Y-108002262D01*
X125997738Y-108129816D01*
X126150478Y-108225789D01*
X126288860Y-108274211D01*
X126320745Y-108285368D01*
X126320750Y-108285369D01*
X126499996Y-108305565D01*
X126500000Y-108305565D01*
X126500004Y-108305565D01*
X126679249Y-108285369D01*
X126679252Y-108285368D01*
X126679255Y-108285368D01*
X126849522Y-108225789D01*
X127002262Y-108129816D01*
X127129816Y-108002262D01*
X127225789Y-107849522D01*
X127285368Y-107679255D01*
X127285369Y-107679249D01*
X127305565Y-107500003D01*
X127305565Y-107499996D01*
X127285369Y-107320750D01*
X127285368Y-107320745D01*
X127243860Y-107202123D01*
X127225789Y-107150478D01*
X127129816Y-106997738D01*
X127002262Y-106870184D01*
X126996541Y-106866589D01*
X126849523Y-106774211D01*
X126679254Y-106714631D01*
X126679249Y-106714630D01*
X126500004Y-106694435D01*
X126499996Y-106694435D01*
X126320750Y-106714630D01*
X126320745Y-106714631D01*
X126150476Y-106774211D01*
X125997737Y-106870184D01*
X125870184Y-106997737D01*
X125774211Y-107150476D01*
X125714631Y-107320745D01*
X125714630Y-107320750D01*
X125694435Y-107499996D01*
X110500499Y-107499996D01*
X110500499Y-107202128D01*
X110494091Y-107142517D01*
X110480265Y-107105448D01*
X110443797Y-107007671D01*
X110443793Y-107007664D01*
X110357547Y-106892455D01*
X110357544Y-106892452D01*
X110242335Y-106806206D01*
X110242328Y-106806202D01*
X110107482Y-106755908D01*
X110107483Y-106755908D01*
X110047883Y-106749501D01*
X110047881Y-106749500D01*
X110047873Y-106749500D01*
X110047864Y-106749500D01*
X107952129Y-106749500D01*
X107952123Y-106749501D01*
X107892516Y-106755908D01*
X107757671Y-106806202D01*
X107757664Y-106806206D01*
X107642455Y-106892452D01*
X107642452Y-106892455D01*
X107556206Y-107007664D01*
X107551953Y-107015454D01*
X107548750Y-107013705D01*
X107517200Y-107055800D01*
X107451721Y-107080178D01*
X107383457Y-107065286D01*
X107366786Y-107054343D01*
X107331492Y-107026873D01*
X107283509Y-106989526D01*
X107104136Y-106892454D01*
X107064811Y-106871172D01*
X107064802Y-106871169D01*
X106829616Y-106790429D01*
X106584335Y-106749500D01*
X106335665Y-106749500D01*
X106090383Y-106790429D01*
X105855197Y-106871169D01*
X105855188Y-106871172D01*
X105636493Y-106989524D01*
X105487553Y-107105449D01*
X105440256Y-107142262D01*
X105432693Y-107150478D01*
X105271833Y-107325217D01*
X105135826Y-107533393D01*
X105035936Y-107761118D01*
X104974892Y-108002175D01*
X104974890Y-108002187D01*
X104954357Y-108249994D01*
X103341223Y-108249994D01*
X103335063Y-108179592D01*
X103286336Y-107997737D01*
X103273905Y-107951344D01*
X103273904Y-107951343D01*
X103273903Y-107951337D01*
X103174035Y-107737171D01*
X103166065Y-107725789D01*
X103038496Y-107543600D01*
X102994892Y-107499996D01*
X102916567Y-107421671D01*
X102883084Y-107360351D01*
X102888068Y-107290659D01*
X102929939Y-107234725D01*
X102960915Y-107217810D01*
X103092331Y-107168796D01*
X103207546Y-107082546D01*
X103293796Y-106967331D01*
X103344091Y-106832483D01*
X103350500Y-106772873D01*
X103350499Y-105500000D01*
X111644551Y-105500000D01*
X111664317Y-105751151D01*
X111723126Y-105996110D01*
X111819533Y-106228859D01*
X111951160Y-106443653D01*
X111951161Y-106443656D01*
X111951164Y-106443659D01*
X112114776Y-106635224D01*
X112207750Y-106714631D01*
X112306343Y-106798838D01*
X112306346Y-106798839D01*
X112521140Y-106930466D01*
X112726321Y-107015454D01*
X112753889Y-107026873D01*
X112998852Y-107085683D01*
X113250000Y-107105449D01*
X113501148Y-107085683D01*
X113746111Y-107026873D01*
X113978859Y-106930466D01*
X114193659Y-106798836D01*
X114385224Y-106635224D01*
X114548836Y-106443659D01*
X114680466Y-106228859D01*
X114776873Y-105996111D01*
X114835683Y-105751148D01*
X114855449Y-105500000D01*
X114855449Y-105499996D01*
X115194435Y-105499996D01*
X115194435Y-105500003D01*
X115214630Y-105679249D01*
X115214631Y-105679254D01*
X115274211Y-105849523D01*
X115316219Y-105916378D01*
X115370184Y-106002262D01*
X115497738Y-106129816D01*
X115576410Y-106179249D01*
X115632721Y-106214632D01*
X115650478Y-106225789D01*
X115659252Y-106228859D01*
X115820745Y-106285368D01*
X115820750Y-106285369D01*
X115999996Y-106305565D01*
X116000000Y-106305565D01*
X116000004Y-106305565D01*
X116179249Y-106285369D01*
X116179252Y-106285368D01*
X116179255Y-106285368D01*
X116349522Y-106225789D01*
X116502262Y-106129816D01*
X116629816Y-106002262D01*
X116725789Y-105849522D01*
X116785368Y-105679255D01*
X116785369Y-105679249D01*
X116805565Y-105500003D01*
X116805565Y-105500000D01*
X118144551Y-105500000D01*
X118164317Y-105751151D01*
X118223126Y-105996110D01*
X118319533Y-106228859D01*
X118451160Y-106443653D01*
X118451161Y-106443656D01*
X118451164Y-106443659D01*
X118614776Y-106635224D01*
X118707750Y-106714631D01*
X118806343Y-106798838D01*
X118806346Y-106798839D01*
X119021140Y-106930466D01*
X119226321Y-107015454D01*
X119253889Y-107026873D01*
X119498852Y-107085683D01*
X119750000Y-107105449D01*
X120001148Y-107085683D01*
X120246111Y-107026873D01*
X120478859Y-106930466D01*
X120693659Y-106798836D01*
X120885224Y-106635224D01*
X121048836Y-106443659D01*
X121180466Y-106228859D01*
X121276873Y-105996111D01*
X121335683Y-105751148D01*
X121355449Y-105500000D01*
X121335683Y-105248852D01*
X121276873Y-105003889D01*
X121275260Y-104999996D01*
X125694435Y-104999996D01*
X125694435Y-105000003D01*
X125714630Y-105179249D01*
X125714631Y-105179254D01*
X125774211Y-105349523D01*
X125867341Y-105497737D01*
X125870184Y-105502262D01*
X125997738Y-105629816D01*
X126053789Y-105665035D01*
X126120446Y-105706919D01*
X126150478Y-105725789D01*
X126288129Y-105773955D01*
X126320745Y-105785368D01*
X126320750Y-105785369D01*
X126499996Y-105805565D01*
X126500000Y-105805565D01*
X126500004Y-105805565D01*
X126679249Y-105785369D01*
X126679252Y-105785368D01*
X126679255Y-105785368D01*
X126849522Y-105725789D01*
X127002262Y-105629816D01*
X127129816Y-105502262D01*
X127225789Y-105349522D01*
X127285368Y-105179255D01*
X127285369Y-105179249D01*
X127305565Y-105000003D01*
X127305565Y-104999996D01*
X127285369Y-104820750D01*
X127285368Y-104820745D01*
X127241170Y-104694435D01*
X127225789Y-104650478D01*
X127129816Y-104497738D01*
X127002262Y-104370184D01*
X126899422Y-104305565D01*
X126849523Y-104274211D01*
X126679254Y-104214631D01*
X126679249Y-104214630D01*
X126500004Y-104194435D01*
X126499996Y-104194435D01*
X126320750Y-104214630D01*
X126320745Y-104214631D01*
X126150476Y-104274211D01*
X125997737Y-104370184D01*
X125870184Y-104497737D01*
X125774211Y-104650476D01*
X125714631Y-104820745D01*
X125714630Y-104820750D01*
X125694435Y-104999996D01*
X121275260Y-104999996D01*
X121180466Y-104771141D01*
X121180466Y-104771140D01*
X121048839Y-104556346D01*
X121048833Y-104556337D01*
X120888732Y-104368882D01*
X120860161Y-104305121D01*
X120870598Y-104236035D01*
X120916727Y-104183561D01*
X121002262Y-104129816D01*
X121129816Y-104002262D01*
X121225789Y-103849522D01*
X121285368Y-103679255D01*
X121286479Y-103669394D01*
X121305565Y-103500003D01*
X121305565Y-103499996D01*
X122194435Y-103499996D01*
X122194435Y-103500003D01*
X122214630Y-103679249D01*
X122214631Y-103679254D01*
X122274211Y-103849523D01*
X122351877Y-103973127D01*
X122370184Y-104002262D01*
X122497738Y-104129816D01*
X122497740Y-104129817D01*
X122634911Y-104216008D01*
X122650478Y-104225789D01*
X122760825Y-104264401D01*
X122820745Y-104285368D01*
X122820750Y-104285369D01*
X122999996Y-104305565D01*
X123000000Y-104305565D01*
X123000004Y-104305565D01*
X123179249Y-104285369D01*
X123179252Y-104285368D01*
X123179255Y-104285368D01*
X123349522Y-104225789D01*
X123502262Y-104129816D01*
X123629816Y-104002262D01*
X123725789Y-103849522D01*
X123785368Y-103679255D01*
X123786479Y-103669394D01*
X123805565Y-103500003D01*
X123805565Y-103499996D01*
X123785369Y-103320750D01*
X123785368Y-103320745D01*
X123752141Y-103225788D01*
X123725789Y-103150478D01*
X123629816Y-102997738D01*
X123502262Y-102870184D01*
X123469379Y-102849522D01*
X123349523Y-102774211D01*
X123179254Y-102714631D01*
X123179249Y-102714630D01*
X123000004Y-102694435D01*
X122999996Y-102694435D01*
X122820750Y-102714630D01*
X122820745Y-102714631D01*
X122650476Y-102774211D01*
X122497737Y-102870184D01*
X122370184Y-102997737D01*
X122274211Y-103150476D01*
X122214631Y-103320745D01*
X122214630Y-103320750D01*
X122194435Y-103499996D01*
X121305565Y-103499996D01*
X121285369Y-103320750D01*
X121285368Y-103320745D01*
X121252141Y-103225788D01*
X121225789Y-103150478D01*
X121129816Y-102997738D01*
X121002262Y-102870184D01*
X120969379Y-102849522D01*
X120849523Y-102774211D01*
X120679254Y-102714631D01*
X120679249Y-102714630D01*
X120500004Y-102694435D01*
X120499996Y-102694435D01*
X120320750Y-102714630D01*
X120320745Y-102714631D01*
X120150476Y-102774211D01*
X119997737Y-102870184D01*
X119870184Y-102997737D01*
X119774211Y-103150476D01*
X119714631Y-103320745D01*
X119714630Y-103320750D01*
X119694435Y-103499996D01*
X119694435Y-103500003D01*
X119714630Y-103679249D01*
X119714632Y-103679257D01*
X119735729Y-103739548D01*
X119739290Y-103809326D01*
X119704561Y-103869954D01*
X119642568Y-103902181D01*
X119628418Y-103904119D01*
X119498852Y-103914317D01*
X119498848Y-103914318D01*
X119253889Y-103973126D01*
X119021140Y-104069533D01*
X118806346Y-104201160D01*
X118806343Y-104201161D01*
X118614776Y-104364776D01*
X118451161Y-104556343D01*
X118451160Y-104556346D01*
X118319533Y-104771140D01*
X118223126Y-105003889D01*
X118164317Y-105248848D01*
X118144551Y-105500000D01*
X116805565Y-105500000D01*
X116805565Y-105499996D01*
X116785369Y-105320750D01*
X116785368Y-105320745D01*
X116769085Y-105274211D01*
X116725789Y-105150478D01*
X116629816Y-104997738D01*
X116502262Y-104870184D01*
X116349523Y-104774211D01*
X116179254Y-104714631D01*
X116179249Y-104714630D01*
X116000004Y-104694435D01*
X115999996Y-104694435D01*
X115820750Y-104714630D01*
X115820745Y-104714631D01*
X115650476Y-104774211D01*
X115497737Y-104870184D01*
X115370184Y-104997737D01*
X115274211Y-105150476D01*
X115214631Y-105320745D01*
X115214630Y-105320750D01*
X115194435Y-105499996D01*
X114855449Y-105499996D01*
X114835683Y-105248852D01*
X114776873Y-105003889D01*
X114680466Y-104771141D01*
X114680466Y-104771140D01*
X114548839Y-104556346D01*
X114548838Y-104556343D01*
X114493826Y-104491933D01*
X114385224Y-104364776D01*
X114209426Y-104214630D01*
X114193656Y-104201161D01*
X114193653Y-104201160D01*
X113978859Y-104069533D01*
X113746110Y-103973126D01*
X113501151Y-103914317D01*
X113250000Y-103894551D01*
X112998848Y-103914317D01*
X112753889Y-103973126D01*
X112521140Y-104069533D01*
X112306346Y-104201160D01*
X112306343Y-104201161D01*
X112114776Y-104364776D01*
X111951161Y-104556343D01*
X111951160Y-104556346D01*
X111819533Y-104771140D01*
X111723126Y-105003889D01*
X111664317Y-105248848D01*
X111644551Y-105500000D01*
X103350499Y-105500000D01*
X103350499Y-104977128D01*
X103344091Y-104917517D01*
X103307999Y-104820750D01*
X103293797Y-104782671D01*
X103293793Y-104782664D01*
X103207547Y-104667455D01*
X103207544Y-104667452D01*
X103092335Y-104581206D01*
X103092328Y-104581202D01*
X102957482Y-104530908D01*
X102957483Y-104530908D01*
X102897883Y-104524501D01*
X102897881Y-104524500D01*
X102897873Y-104524500D01*
X102897864Y-104524500D01*
X101102129Y-104524500D01*
X101102123Y-104524501D01*
X101042516Y-104530908D01*
X100907671Y-104581202D01*
X100907664Y-104581206D01*
X100792455Y-104667452D01*
X100792452Y-104667455D01*
X100723766Y-104759208D01*
X100667832Y-104801079D01*
X100598141Y-104806063D01*
X100536818Y-104772577D01*
X100503334Y-104711254D01*
X100500500Y-104684897D01*
X100500500Y-102397648D01*
X108449500Y-102397648D01*
X108449500Y-102602351D01*
X108481522Y-102804534D01*
X108544781Y-102999223D01*
X108608691Y-103124653D01*
X108621850Y-103150478D01*
X108637715Y-103181613D01*
X108758028Y-103347213D01*
X108902786Y-103491971D01*
X109057749Y-103604556D01*
X109068390Y-103612287D01*
X109180469Y-103669394D01*
X109250776Y-103705218D01*
X109250778Y-103705218D01*
X109250781Y-103705220D01*
X109352332Y-103738216D01*
X109445465Y-103768477D01*
X109546557Y-103784488D01*
X109647648Y-103800500D01*
X109647649Y-103800500D01*
X109852351Y-103800500D01*
X109852352Y-103800500D01*
X110054534Y-103768477D01*
X110249219Y-103705220D01*
X110431610Y-103612287D01*
X110533685Y-103538126D01*
X110597213Y-103491971D01*
X110597215Y-103491968D01*
X110597219Y-103491966D01*
X110741966Y-103347219D01*
X110741968Y-103347215D01*
X110741971Y-103347213D01*
X110830190Y-103225788D01*
X110862287Y-103181610D01*
X110955220Y-102999219D01*
X111018477Y-102804534D01*
X111050500Y-102602352D01*
X111050500Y-102499996D01*
X116434435Y-102499996D01*
X116434435Y-102500003D01*
X116454630Y-102679249D01*
X116454633Y-102679262D01*
X116514209Y-102849520D01*
X116567309Y-102934029D01*
X116586309Y-103001266D01*
X116567309Y-103065971D01*
X116514209Y-103150479D01*
X116454633Y-103320737D01*
X116454630Y-103320750D01*
X116434435Y-103499996D01*
X116434435Y-103500003D01*
X116454630Y-103679249D01*
X116454631Y-103679254D01*
X116514211Y-103849523D01*
X116591877Y-103973127D01*
X116610184Y-104002262D01*
X116737738Y-104129816D01*
X116737740Y-104129817D01*
X116874911Y-104216008D01*
X116890478Y-104225789D01*
X117000825Y-104264401D01*
X117060745Y-104285368D01*
X117060750Y-104285369D01*
X117239996Y-104305565D01*
X117240000Y-104305565D01*
X117240004Y-104305565D01*
X117419249Y-104285369D01*
X117419252Y-104285368D01*
X117419255Y-104285368D01*
X117589522Y-104225789D01*
X117742262Y-104129816D01*
X117869816Y-104002262D01*
X117965789Y-103849522D01*
X118025368Y-103679255D01*
X118026479Y-103669394D01*
X118045565Y-103500003D01*
X118045565Y-103499996D01*
X118025369Y-103320750D01*
X118025368Y-103320745D01*
X117965788Y-103150475D01*
X117912691Y-103065973D01*
X117893690Y-102998736D01*
X117912691Y-102934027D01*
X117965788Y-102849524D01*
X117965789Y-102849522D01*
X118025368Y-102679255D01*
X118025369Y-102679249D01*
X118045565Y-102500003D01*
X118045565Y-102499996D01*
X118025369Y-102320750D01*
X118025368Y-102320745D01*
X118020056Y-102305565D01*
X117965789Y-102150478D01*
X117871235Y-101999996D01*
X125194435Y-101999996D01*
X125194435Y-102000003D01*
X125214630Y-102179249D01*
X125214631Y-102179254D01*
X125274211Y-102349523D01*
X125368760Y-102499996D01*
X125370184Y-102502262D01*
X125497738Y-102629816D01*
X125576410Y-102679249D01*
X125632721Y-102714632D01*
X125650478Y-102725789D01*
X125788860Y-102774211D01*
X125820745Y-102785368D01*
X125820750Y-102785369D01*
X125999996Y-102805565D01*
X126000000Y-102805565D01*
X126000004Y-102805565D01*
X126179249Y-102785369D01*
X126179252Y-102785368D01*
X126179255Y-102785368D01*
X126349522Y-102725789D01*
X126502262Y-102629816D01*
X126629816Y-102502262D01*
X126725789Y-102349522D01*
X126785368Y-102179255D01*
X126785369Y-102179249D01*
X126805565Y-102000003D01*
X126805565Y-101999996D01*
X126785369Y-101820750D01*
X126785368Y-101820745D01*
X126741170Y-101694435D01*
X126725789Y-101650478D01*
X126629816Y-101497738D01*
X126502262Y-101370184D01*
X126349523Y-101274211D01*
X126179254Y-101214631D01*
X126179249Y-101214630D01*
X126000004Y-101194435D01*
X125999996Y-101194435D01*
X125820750Y-101214630D01*
X125820745Y-101214631D01*
X125650476Y-101274211D01*
X125497737Y-101370184D01*
X125370184Y-101497737D01*
X125274211Y-101650476D01*
X125214631Y-101820745D01*
X125214630Y-101820750D01*
X125194435Y-101999996D01*
X117871235Y-101999996D01*
X117869816Y-101997738D01*
X117742262Y-101870184D01*
X117699451Y-101843284D01*
X117589523Y-101774211D01*
X117419254Y-101714631D01*
X117419249Y-101714630D01*
X117240004Y-101694435D01*
X117239996Y-101694435D01*
X117060750Y-101714630D01*
X117060745Y-101714631D01*
X116890476Y-101774211D01*
X116737737Y-101870184D01*
X116610184Y-101997737D01*
X116514211Y-102150476D01*
X116454631Y-102320745D01*
X116454630Y-102320750D01*
X116434435Y-102499996D01*
X111050500Y-102499996D01*
X111050500Y-102397648D01*
X111042878Y-102349523D01*
X111018477Y-102195465D01*
X110955218Y-102000776D01*
X110888677Y-101870184D01*
X110862287Y-101818390D01*
X110854556Y-101807749D01*
X110741971Y-101652786D01*
X110597213Y-101508028D01*
X110431613Y-101387715D01*
X110431612Y-101387714D01*
X110431610Y-101387713D01*
X110374653Y-101358691D01*
X110249223Y-101294781D01*
X110054534Y-101231522D01*
X109879995Y-101203878D01*
X109852352Y-101199500D01*
X109647648Y-101199500D01*
X109623329Y-101203351D01*
X109445465Y-101231522D01*
X109250776Y-101294781D01*
X109068386Y-101387715D01*
X108902786Y-101508028D01*
X108758028Y-101652786D01*
X108637715Y-101818386D01*
X108544781Y-102000776D01*
X108481522Y-102195465D01*
X108449500Y-102397648D01*
X100500500Y-102397648D01*
X100500500Y-100624500D01*
X100520185Y-100557461D01*
X100572989Y-100511706D01*
X100624500Y-100500500D01*
X113950537Y-100500500D01*
X114017576Y-100520185D01*
G37*
%TD.AperFunction*%
%TD*%
M02*
